<svg width="15" height="16" viewBox="0 0 15 16" fill="none" xmlns="http://www.w3.org/2000/svg">
<path id="Vector" d="M12.0037 11.2356C11.4124 11.2356 10.8832 11.469 10.4786 11.8348L4.93068 8.60559C4.96958 8.42662 5.00071 8.24766 5.00071 8.06091C5.00071 7.87416 4.96958 7.6952 4.93068 7.51623L10.4164 4.31819C10.8365 4.70725 11.389 4.94846 12.0037 4.94846C13.2954 4.94846 14.3381 3.90579 14.3381 2.61412C14.3381 1.32246 13.2954 0.279785 12.0037 0.279785C10.7121 0.279785 9.66938 1.32246 9.66938 2.61412C9.66938 2.80087 9.70051 2.97984 9.73941 3.1588L4.25372 6.35684C3.83354 5.96779 3.28108 5.72657 2.66637 5.72657C1.3747 5.72657 0.332031 6.76924 0.332031 8.06091C0.332031 9.35258 1.3747 10.3952 2.66637 10.3952C3.28108 10.3952 3.83354 10.154 4.25372 9.76498L9.79388 13.0019C9.75497 13.1653 9.73163 13.3365 9.73163 13.5077C9.73163 14.7605 10.751 15.7798 12.0037 15.7798C13.2565 15.7798 14.2758 14.7605 14.2758 13.5077C14.2758 12.2549 13.2565 11.2356 12.0037 11.2356Z" fill="#555656"/>
</svg>
