<svg width="24" height="22" viewBox="0 0 24 22" fill="none" xmlns="http://www.w3.org/2000/svg">
<path id="Vector" d="M11.7456 0.925476L0 6.40676L3.13216 7.81623V10.4786C2.19251 10.7918 1.56608 11.7314 1.56608 12.6711C1.56608 13.6107 2.19251 14.5504 3.13216 14.8636V15.0202L1.72269 18.309C1.25287 19.7185 1.56608 21.2845 3.9152 21.2845C6.26433 21.2845 6.57754 19.7185 6.10772 18.309L4.69825 15.0202C5.63789 14.5504 6.26433 13.7673 6.26433 12.6711C6.26433 11.5748 5.63789 10.7918 4.69825 10.4786V8.59927L11.7456 11.888L23.4912 6.40676L11.7456 0.925476ZM18.6364 11.105L11.589 14.2372L7.83041 12.5145V12.6711C7.83041 13.7673 7.36058 14.707 6.57754 15.49L7.51719 17.6825V17.8392C7.6738 18.4656 7.83041 19.092 7.6738 19.7185C8.77006 20.1883 10.0229 20.5015 11.589 20.5015C16.7571 20.5015 18.6364 17.3693 18.6364 15.8032V11.105Z" fill="#405189"/>
</svg>
