<svg xmlns="http://www.w3.org/2000/svg" width="18" height="23" viewBox="0 0 18 23" fill="none">
  <path d="M10.0228 5.71188C10.0228 5.09937 9.5328 4.59823 8.90916 4.59823C8.29665 4.59823 7.79551 5.08824 7.79551 5.71188V7.93917H5.56822C4.95572 7.93917 4.45458 8.42917 4.45458 9.05281C4.45458 9.66532 4.94458 10.1665 5.56822 10.1665H7.79551V12.3937C7.79551 13.0063 8.28552 13.5074 8.90916 13.5074C9.52166 13.5074 10.0228 13.0174 10.0228 12.3937V10.1665H12.2501C12.8626 10.1665 13.3637 9.67645 13.3637 9.05281C13.3637 8.44031 12.8737 7.93917 12.2501 7.93917H10.0228V5.71188ZM8.90916 0.143654C13.5865 0.143654 17.8183 3.72959 17.8183 9.27554C17.8183 12.8169 15.0899 16.982 9.64416 21.7818C9.22098 22.1493 8.5862 22.1493 8.16301 21.7818C2.72843 16.982 0 12.8169 0 9.27554C0 3.72959 4.23185 0.143654 8.90916 0.143654Z" fill="#405189"/>
</svg>