<svg xmlns="http://www.w3.org/2000/svg" width="21" height="19" viewBox="0 0 21 19" fill="none">
  <path d="M19.6412 2.84993L19.6335 2.8586L13.1053 9.82917V15.1776C13.1057 15.432 13.0432 15.6825 12.9233 15.9068C12.8034 16.1311 12.6298 16.3223 12.4181 16.4634L9.33379 18.5202C9.10136 18.675 8.83125 18.7638 8.55229 18.7771C8.27333 18.7904 7.996 18.7277 7.7499 18.5957C7.50379 18.4637 7.29815 18.2674 7.15493 18.0276C7.01171 17.7879 6.93628 17.5137 6.93669 17.2344V9.82917L0.408527 2.8586L0.400816 2.84993C0.200091 2.62903 0.0677821 2.35462 0.0199404 2.06001C-0.0279013 1.76539 0.0107799 1.46322 0.131292 1.19016C0.251803 0.917094 0.448966 0.684869 0.698863 0.521654C0.948759 0.358438 1.24065 0.271249 1.53912 0.27066H18.5029C18.8016 0.270689 19.0939 0.357475 19.3442 0.520473C19.5946 0.68347 19.7922 0.915663 19.913 1.18884C20.0339 1.46202 20.0728 1.76441 20.0251 2.0593C19.9774 2.35418 19.845 2.62884 19.6441 2.84993H19.6412Z" fill="#405189"/>
</svg>