<svg id="Layer_1" enable-background="new 0 0 52 52" height="512" viewBox="0 0 52 52" width="512" xmlns="http://www.w3.org/2000/svg"><g id="_x35_1"><g><g><g><g><g><path d="m46.2588654 10.8065767-8.0132294 37.3328963c-.2727623 1.2707901-1.5271759 2.080162-2.8018074 1.8077774l-27.8886557-5.9596672c-1.2746305-.2723808-2.0868025-1.5233688-1.8140368-2.7941589l8.0132256-37.3328972c.2727661-1.2707906 1.5271788-2.0801606 2.8018093-1.8077786l27.888657 5.9596664c1.2746277.2723828 2.0867997 1.5233717 1.8140374 2.7941618z" fill="#c2c2ef"/></g></g></g><g><g><g><path d="m41.5507622 7.4802027v38.1804886c0 1.2996407-1.0566978 2.3532104-2.360199 2.3532104h-28.52034c-1.3035011 0-2.3601971-1.0535698-2.3601971-2.3532104v-38.1804886c0-1.2996426 1.0566959-2.3532104 2.3601971-2.3532104h28.52034c1.3035011-.0000001 2.360199 1.0535678 2.360199 2.3532104z" fill="#e4e3ff"/></g></g></g><g><g><g><path d="m41.5533562 7.4807091v38.177906c0 1.3053436-1.0571785 2.3517227-2.3624535 2.3517227h-28.5227804c-1.2299528 0-2.2439394-.9277306-2.3517904-2.1359558.0754566.0107994.1510448.0107994.2265005.0107994h28.5121155c1.305275 0 2.3624535-1.0572472 2.3624535-2.3517265v-38.1887016c0-.064724 0-.1402459-.0107956-.2049699 1.1975545.107851 2.1467504 1.1111708 2.1467504 2.3409257z" fill="#d0d0f7"/></g></g></g></g><g opacity=".5"><g><g><g><path d="m13.7211695 6.8544812c0 .3453569-.2824955.6280441-.6280441.6280441h-.6694889c-.3453569 0-.6280441-.2826872-.6280441-.6280441 0-.3453574.2826872-.6280446.6280441-.6280446h.6694889c.3455486 0 .6280441.2826872.6280441.6280446z" fill="#fff"/></g></g></g><g><g><g><path d="m24.0940704 6.8544812c0 .3453569-.2826862.6280441-.6280441.6280441h-8.2377033c-.3453579 0-.6278534-.2826872-.6278534-.6280441 0-.3453574.2824955-.6280446.6278534-.6280446h8.2377033c.3453579 0 .6280441.2826872.6280441.6280446z" fill="#fff"/></g></g></g></g><g opacity=".5"><g><g><g><path d="m10.4395905 22.1499767c-.3453569 0-.6280441-.2824955-.6280441-.6280441v-.6694889c0-.345356.2826872-.6280441.6280441-.6280441.3453579 0 .6280451.2826881.6280451.6280441v.6694889c-.0000001.3455486-.2826873.6280441-.6280451.6280441z" fill="#fff"/></g></g></g><g><g><g><path d="m10.4395905 32.5228767c-.3453569 0-.6280441-.2826843-.6280441-.6280441v-8.2377033c0-.345356.2826872-.6278515.6280441-.6278515.3453579 0 .6280451.2824955.6280451.6278515v8.2377033c-.0000001.3453598-.2826873.6280441-.6280451.6280441z" fill="#fff"/></g></g></g></g></g><g><g><g><path d="m37.2905502 17.5481472c0 .3301983-.2718735.602108-.608551.602108h-23.0090122c-.3301973 0-.6021481-.2719097-.6021481-.602108 0-.3366776.2719507-.6085892.6021481-.6085892h23.0090122c.3366776 0 .608551.2719117.608551.6085892z" fill="#d0d0f7"/></g></g></g><g><g><g><path d="m37.2905502 20.8530636c0 .3301964-.2718735.602108-.608551.602108h-23.0090122c-.3301973 0-.6021481-.2719116-.6021481-.602108 0-.3366795.2719507-.6085911.6021481-.6085911h23.0090122c.3366776 0 .608551.2719116.608551.6085911z" fill="#d0d0f7"/></g></g></g><g><g><g><g><g><path d="m36.7612686 10.0686054v3.6214705c0 .6360216-.5192451 1.1552639-1.1552658 1.1552639h-22.2352333c-.6360207 0-1.1552639-.5192423-1.1552639-1.1552639v-3.6214705c0-.6360216.5192432-1.1552649 1.1552639-1.1552649h22.2352333c.6360207.0000001 1.1552658.5192433 1.1552658 1.1552649z" fill="#7979f7"/></g></g></g><g><g><g><path d="m36.7612686 10.0686054v3.6214705c0 .6360216-.5192451 1.1552639-1.1552658 1.1552639h-22.2352333c-.6360207 0-1.1552639-.5192423-1.1552639-1.1552639v-.1167784h22.1184559c.6360207 0 1.1551857-.5192432 1.1551857-1.1552639v-3.504693h.1168556c.6360207 0 1.1552658.5192432 1.1552658 1.1552648z" fill="#5e5eef"/></g></g></g></g><g><g><g><path d="m13.637887 12.872139c-.0302734-.0317383-.0454102-.0703125-.0454102-.1162109 0-.0195313.0058594-.0439453.0180664-.0727539l.9257813-2.1850586c.0388737-.0897093.110714-.1489258.2104492-.1489258h.0361328c.0997353 0 .1715746.0592165.2104492.1489258l.9257813 2.1850586c.012207.0288086.0180664.0532227.0180664.0727539 0 .0458984-.0151367.0844727-.0454102.1162109-.0302734.03125-.0693359.046875-.1176758.046875-.0341797 0-.0649414-.0087891-.0927734-.0273438-.027832-.0180664-.0488281-.0429688-.0634766-.0742188l-.2358398-.5664063h-1.234375l-.2358398.5664063c-.0146484.03125-.0356445.0561523-.0634766.0742188-.027832.0185547-.0585938.0273438-.0927734.0273438-.0483399 0-.0874024-.015625-.1176758-.046875zm.6367188-.9223633h.9804688l-.4902344-1.1796875z" fill="#fff"/></g><g><path d="m15.7741175 12.9688187c-.0444336 0-.0849609-.0117188-.1206055-.0356445-.034668-.0224609-.0620117-.0541992-.0810547-.0947266l-.2236328-.5375977h-1.1679688l-.2226563.5356445c-.0200195.0424805-.0473633.0742188-.0825195.097168-.0844727.0556641-.2055664.0444336-.2739258-.0268555-.0395508-.0415039-.059082-.0922852-.059082-.1508789 0-.0268555.0073242-.0576172.0219727-.0922852l.9257813-2.1850586c.0456057-.1064129.1346226-.1791992.2563477-.1791992h.0361328c.1206121 0 .2100058.0716114.2563477.1787109l.9257813 2.1855469c.0146484.034668.0219727.0654297.0219727.0922852 0 .0585938-.0195313.109375-.059082.1508789-.0400393.041504-.0917971.0620118-.1538088.0620118zm-1.659668-.7675782h1.3007813l.0131836.0307617.2358398.5664063c.0097656.0209961.0244141.0385742.0444336.0512695.046875.0322266.1118164.0239258.1469727-.012207.0214844-.0224609.0317383-.0483398.0317383-.081543 0-.0073242-.0019531-.0244141-.0141602-.0532227l-.9257813-2.1850586c-.0314026-.0716362-.0860205-.1186523-.1645508-.1186523h-.0361328c-.0784121 0-.1333036.0468817-.1645508.1191406l-.9257813 2.1845703c-.012207.0288086-.0141602.0458984-.0141602.0532227 0 .0332031.0102539.059082.0317383.081543.0361328.0371094.1005859.0439453.1464844.0126953.0205078-.0131836.0351563-.0307617.0458984-.0537109zm1.215332-.2016601h-1.1298828l.5649414-1.3598633zm-.9804687-.0996094h.8310547l-.4155273-.9995117z" fill="#fff"/></g></g><g><g><path d="m17.0553665 13.7178421c-.1430664-.0366211-.2602539-.0810547-.3520508-.1342773-.043457-.0268555-.0654297-.0693359-.0654297-.1274414 0-.0385742.0136719-.0732422.0415039-.1030273.027832-.0302734.0625-.0454102.1035156-.0454102.0195313 0 .0410156.0043945.0654297.0141602.184082.0922852.3837891.1381836.5991211.1381836.3701172 0 .5551758-.1972656.5551758-.5917969v-.2431641c-.171875.184082-.3789063.2758789-.6206055.2758789-.1430664 0-.28125-.0356445-.4155273-.1069336s-.2451172-.1782227-.3325195-.3198242c-.0869141-.1411133-.1303711-.3139648-.1303711-.5170898s.043457-.3754883.1303711-.5170898c.0874023-.1416016.1982422-.2480469.3325195-.3193359.1342773-.0717773.2724609-.1074219.4155273-.1074219.2416992 0 .4487305.0922852.6206055.2758789v-.0908203c0-.0458984.015625-.0849609.0473633-.1176758.03125-.0327148.0698242-.0493164.1162109-.0493164.0458984 0 .0849609.0166016.1176758.0493164s.0493164.0717773.0493164.1176758v1.6225586c0 .3051758-.0742188.5400391-.2216797.7045898s-.3579102.246582-.6313477.246582c-.1406249-.0000001-.2822265-.0180665-.4248046-.0541993zm.6967774-1.190918c.0874023-.0483398.1708984-.1137695.2504883-.1958008v-.7480469c-.0795898-.0820313-.1630859-.1474609-.2504883-.1958008-.0869141-.0483398-.1875-.0727539-.3012695-.0727539-.1816406 0-.3295898.0551758-.4448242.1655273-.1147461.1098633-.1723633.269043-.1723633.4770508s.0576172.3671875.1723633.4775391c.1152344.1098633.2631836.1650391.4448242.1650391.1137695 0 .2143554-.024414.3012695-.0727539z" fill="#fff"/></g><g><path d="m17.4801712 13.821846c-.144043 0-.2910156-.0185547-.4370117-.0556641-.1499023-.0380859-.269043-.0839844-.3647461-.1391602-.0595703-.0371094-.090332-.0957031-.090332-.1708984 0-.0517578.0180664-.0981445.0546875-.137207.0551758-.0595703.1347656-.0800781.2241211-.043457.1796875.0898438.3735352.1347656.5805664.1347656.3398438 0 .5053711-.1772461.5053711-.5419922v-.1264648c-.1635742.1391602-.3549805.2089844-.5708008.2089844-.1503906 0-.2978516-.0375977-.4389648-.112793-.1411133-.074707-.2597656-.1884766-.3515625-.3374023-.0913086-.1484375-.1376953-.331543-.1376953-.543457 0-.2114258.0463867-.3945313.1376953-.543457.0917969-.1484375.2099609-.2617188.3515625-.3369141.140625-.0751953.2880859-.1132813.4389648-.1132813.2163086 0 .4082031.0703125.5717773.2099609.0053711-.0488281.0253906-.0913086.0605469-.1274414.0800781-.0849609.2192383-.0864258.3046875-.0004883.0424805.0424805.0639648.09375.0639648.152832v1.6225586c0 .315918-.0786133.5644531-.234375.737793-.15625.1748047-.3813476.2631836-.668457.2631836zm-.4125977-.1523437c.1381836.034668.2768555.0527344.4125977.0527344.2573242 0 .4575195-.0776367.5942383-.2299805.1386719-.1547852.2089844-.3808594.2089844-.6713867v-1.6225586c0-.0327148-.0112305-.0585938-.034668-.0825195-.0478516-.046875-.1186523-.0473633-.1625977-.0004883-.0229492.0234375-.0336914.0498047-.0336914.0830078v.2172852l-.0864258-.0922852c-.1616211-.1723633-.3579102-.2602539-.5839844-.2602539-.1342773 0-.2661133.0341797-.3920898.1015625-.1254883.0668945-.230957.168457-.3134766.3017578-.081543.1328125-.1230469.2978516-.1230469.4907227 0 .1933594.0415039.3583984.1230469.4907227.0825195.1337891.1879883.2353516.3134766.3022461.1264648.0668945.2583008.1010742.3920898.1010742.2294922 0 .4208984-.0854492.5839844-.2602539l.0864258-.0927734v.3701172c0 .4199219-.2089844.6416016-.6049805.6416016-.2226563 0-.4316406-.0478516-.621582-.1430664-.0429688-.0185547-.0825195-.0097656-.1098633.0200195-.019043.0205078-.0283203.0429688-.0283203.0693359 0 .0532227.0239258.0737305.0419922.0849609.0854492.0493163.1992188.0927733.3378906.1284179zm.3833008-1.0200196c-.1933594 0-.3549805-.0600586-.4794922-.1787109-.1245117-.1201172-.1875-.2924805-.1875-.5136719s.0629883-.394043.1875-.5131836.2856445-.1791992.4794922-.1791992c.121582 0 .2314453.0263672.3256836.0791016.0908203.0498047.1791992.1191406.2617188.2045898l.0141602.0141602v.7890625l-.0141602.0141602c-.0825195.0854492-.1708984.1547852-.2617188.2050781-.0947265.052246-.2041015.0786132-.3256836.0786132zm0-1.2851562c-.1694336 0-.3037109.0498047-.4101563.1518555-.1040039.0996094-.1572266.2480469-.1572266.440918s.0532227.3413086.1572266.4414063c.1064453.1015625.2407227.1513672.4101563.1513672.1044922 0 .1977539-.0224609.2768555-.0664063v-.0004883c.0776367-.0424805.152832-.1005859.2250977-.1723633v-.7070313c-.0722656-.0717773-.1474609-.1298828-.2250977-.1723633-.0791016-.0444336-.1723633-.0668945-.2768555-.0668945z" fill="#fff"/></g></g><g><g><path d="m19.2081985 12.872139c-.0317383-.0317383-.0473633-.0703125-.0473633-.1162109v-1.5576172c0-.0458984.015625-.0849609.0473633-.1176758.03125-.0327148.0703125-.0493164.1162109-.0493164s.0854492.0166016.1176758.0493164c.0327148.0327148.0493164.0717773.0493164.1176758v.15625c.1694336-.2275391.359375-.3413086.5698242-.3413086h.0180664c.0458984 0 .0839844.0161133.1142578.0473633s.0454102.0703125.0454102.1162109-.015625.0834961-.046875.1123047c-.0317383.0292969-.0717773.043457-.1201172.043457h-.0180664c-.1162109 0-.2226563.0288086-.3193359.0854492-.0966797.0571289-.1777344.1352539-.2431641.234375v1.1035156c0 .0458984-.0166016.0844727-.0493164.1162109-.0322266.03125-.0717773.046875-.1176758.046875s-.0849609-.0156249-.1162109-.0468749z" fill="#fff"/></g><g><path d="m19.3244095 12.9688187c-.059082 0-.1113281-.0209961-.1513672-.0615234-.0415039-.0410156-.0620117-.0917969-.0620117-.1513672v-1.5576172c0-.059082.0205078-.1103516.0610352-.1523438.0810547-.0849609.2226563-.0844727.3056641-.0004883.0419922.0424805.0634766.09375.0634766.152832v.0175781c.1567383-.1674805.3310547-.2524414.5200195-.2524414h.0180664c.0595703 0 .1098633.0209961.1503906.0625.0390625.0405273.059082.0913086.059082.1508789s-.0214844.1108398-.0629883.1489258c-.0405273.0375977-.0922852.0566406-.1538086.0566406h-.0180664c-.105957 0-.2050781.0268555-.2939453.0786133-.0854492.0507813-.1591797.1201172-.21875.206543v1.0883789c0 .0595703-.0214844.1103516-.0644531.1518555-.041504.0405274-.0927735.0610352-.1523438.0610352zm0-1.8876953c-.0322266 0-.0581055.0112305-.0800781.0341797-.0229492.0234375-.0336914.0498047-.0336914.0830078v1.5576172c0 .0327148.0107422.0585938.0327148.0810547.0439453.043457.1181641.043457.1640625-.0009766.0229492-.0224609.0341797-.0478516.0341797-.0800781v-1.1186523l.0083008-.012207c.0693359-.1054688.15625-.1894531.2592773-.25.1044922-.0615234.2207031-.0922852.3447266-.0922852h.0180664c.0361328 0 .0639648-.0102539.0864258-.0302734.0209961-.0195313.0307617-.043457.0307617-.0756836 0-.0332031-.0102539-.0595703-.0317383-.081543-.0205078-.0214844-.0463867-.0322266-.078125-.0322266h-.0180664c-.1928711 0-.3710938.1083984-.5297852.3212891l-.0898438.1210938v-.3071289c0-.0327148-.0112305-.0585938-.034668-.0825195-.0234374-.0234377-.0502929-.0346681-.0825194-.0346681z" fill="#fff"/></g></g><g><g><path d="m20.8864212 12.6851273c-.1655273-.168457-.2485352-.4047852-.2485352-.7099609 0-.171875.03125-.3300781.0942383-.4755859.0629883-.1450195.159668-.262207.2905273-.3520508.1303711-.0893555.2915039-.1342773.4829102-.1342773.1787109 0 .3339844.0419922.4643555.1254883.1308594.0834961.2299805.1948242.2978516.3339844.0673828.1391602.1015625.2910156.1015625.4555664 0 .0458984-.0151367.0844727-.0454102.1162109-.0302734.03125-.0708008.046875-.121582.046875h-1.2304688c.019043.1694336.0820313.3012695.1884766.3959961.1064453.0942383.2553711.1411133.4467773.1411133.1015625 0 .1904297-.0092773.2666016-.0288086s.1508789-.0473633.2231445-.0834961c.0195313-.0097656.0415039-.0146484.0654297-.0146484.0385742 0 .0727539.0136719.1015625.0400391.0292969.0268555.0439453.0605469.0439453.1015625 0 .0532227-.0317383.0981445-.0947266.1342773-.0942383.0532227-.1875.0932617-.2792969.1201172-.0922852.0263672-.2104492.0395508-.355957.0395508-.2949218-.0000002-.5258789-.0839846-.6914062-.2519533zm1.15625-.8623047c-.0073242-.1186523-.0380859-.2177734-.0927734-.2978516-.0541992-.0795898-.121582-.1381836-.2011719-.1757813-.0800781-.0375977-.1611328-.0561523-.2431641-.0561523-.0825195 0-.1635742.0185547-.2431641.0561523-.0800781.0375977-.1464844.0961914-.199707.1757813-.0532227.0800781-.0834961.1791992-.0908203.2978516z" fill="#fff"/></g><g><path d="m21.5778275 12.9868851c-.3081055 0-.5527344-.0893555-.7270508-.2666016-.1743164-.1777344-.2626953-.4282227-.2626953-.7451172 0-.1782227.0327148-.3447266.0981445-.4956055.0664063-.152832.1699219-.2783203.3081055-.3730469.1386719-.0952148.3105469-.1430664.5112305-.1430664.1879883 0 .3530273.0449219.4912109.1333008.1376953.0878906.2441406.2070313.315918.3540039.0708008.1459961.1064453.3066406.1064453.4775391 0 .0585938-.0195313.109375-.059082.1508789-.0400391.0415039-.0932617.0620117-.1577148.0620117h-1.1728516c.0239258.1308594.078125.2319336.1640625.309082.0961914.0849609.2353516.128418.4135742.128418.0981445 0 .1835938-.0092773.2543945-.0273438.0727539-.019043.1445313-.0458984.2128906-.0800781.0688477-.0332031.1616211-.0224609.2231445.0332031.0400391.0366211.0600586.0834961.0600586.1386719 0 .0498047-.0205078.1206055-.1196289.1777344-.097168.0546875-.1948242.0966797-.2900391.1245117-.0981445.0283204-.2192382.041504-.3701171.041504zm-.6557618-.3369141c.1547852.1572266.3754883.2373047.6557617.2373047.1396484 0 .2548828-.0126953.3422852-.0375977.0878906-.0258789.1782227-.0649414.2685547-.1157227.0693359-.0400391.0693359-.078125.0693359-.0908203 0-.0268555-.0087891-.0473633-.027832-.0649414-.0327148-.0297852-.0786133-.0336914-.1108398-.0170898-.074707.0371094-.1533203.0664063-.2333984.0869141-.0795898.0205078-.1708984.0302734-.2788086.0302734-.203125 0-.3647461-.0512695-.4799805-.1533203-.1157227-.1030273-.1845703-.2470703-.2050781-.4282227l-.0063477-.0551758h1.2866211c.0371094 0 .0649414-.0107422.0854492-.0317383.0214844-.0224609.0317383-.0483398.0317383-.081543 0-.1552734-.0327148-.3012695-.0966797-.4335938-.0634766-.1303711-.1577148-.2358398-.2797852-.3139648s-.269043-.1176758-.4375-.1176758c-.1801758 0-.3330078.0424805-.4545898.1254883-.1220703.0839844-.2143555.1953125-.2729492.3310547-.0595703.1381836-.090332.2915039-.090332.4555664-.0000001.2895509.0791015.5166017.2343749.6748048zm1.1738282-.7773437h-1.1772461l.003418-.0527344c.0078125-.1269531.0410156-.2353516.0991211-.3227539.0581055-.0869141.1323242-.1518555.2197266-.1933594.171875-.0791016.3564453-.0800781.5292969 0 .0878906.0415039.1621094.1064453.2211914.1928711.059082.0869141.0932617.1958008.1010742.3232422zm-1.0688477-.0996094h.9604492c-.0117188-.0864258-.0380859-.1601563-.0791016-.2197266-.0483398-.0717773-.109375-.125-.1811523-.1586914-.1455078-.0688477-.3007813-.0688477-.4433594 0-.0722656.0336914-.1308594.0854492-.1796875.1582031-.040039.0600586-.0659179.1337891-.0771484.2202149z" fill="#fff"/></g></g><g><g><path d="m23.1955032 12.6851273c-.1655273-.168457-.2485352-.4047852-.2485352-.7099609 0-.171875.03125-.3300781.0942383-.4755859.0629883-.1450195.159668-.262207.2905273-.3520508.1303711-.0893555.2915039-.1342773.4829102-.1342773.1787109 0 .3339844.0419922.4643555.1254883.1308594.0834961.2299805.1948242.2978516.3339844.0673828.1391602.1015625.2910156.1015625.4555664 0 .0458984-.0151367.0844727-.0454102.1162109-.0302734.03125-.0708008.046875-.121582.046875h-1.2304688c.019043.1694336.0820313.3012695.1884766.3959961.1064453.0942383.2553711.1411133.4467773.1411133.1015625 0 .1904297-.0092773.2666016-.0288086s.1508789-.0473633.2231445-.0834961c.0195313-.0097656.0415039-.0146484.0654297-.0146484.0385742 0 .0727539.0136719.1015625.0400391.0292969.0268555.0439453.0605469.0439453.1015625 0 .0532227-.0317383.0981445-.0947266.1342773-.0942383.0532227-.1875.0932617-.2792969.1201172-.0922852.0263672-.2104492.0395508-.355957.0395508-.2949218-.0000002-.5258788-.0839846-.6914062-.2519533zm1.15625-.8623047c-.0073242-.1186523-.0380859-.2177734-.0927734-.2978516-.0541992-.0795898-.121582-.1381836-.2011719-.1757813-.0800781-.0375977-.1611328-.0561523-.2431641-.0561523-.0825195 0-.1635742.0185547-.2431641.0561523-.0800781.0375977-.1464844.0961914-.199707.1757813-.0532227.0800781-.0834961.1791992-.0908203.2978516z" fill="#fff"/></g><g><path d="m23.8869095 12.9868851c-.3081055 0-.5527344-.0893555-.7270508-.2666016-.1743164-.1777344-.2626953-.4282227-.2626953-.7451172 0-.1782227.0327148-.3447266.0981445-.4956055.0664063-.152832.1699219-.2783203.3081055-.3730469.1386719-.0952148.3105469-.1430664.5112305-.1430664.1879883 0 .3530273.0449219.4912109.1333008.1376953.0878906.2441406.2070313.315918.3540039.0708008.1459961.1064453.3066406.1064453.4775391 0 .0585938-.0195313.109375-.059082.1508789-.0400391.0415039-.0932617.0620117-.1577148.0620117h-1.1728516c.0239258.1308594.078125.2319336.1640625.309082.0961914.0849609.2353516.128418.4135742.128418.0981445 0 .1835938-.0092773.2543945-.0273438.0727539-.019043.1445313-.0458984.2128906-.0800781.0688477-.0332031.1611328-.0224609.2231445.0332031.0400391.0366211.0600586.0834961.0600586.1386719 0 .0498047-.0205078.1206055-.1196289.1777344-.097168.0546875-.1948242.0966797-.2900391.1245117-.0981445.0283204-.2192382.041504-.3701171.041504zm-.6557617-.3369141c.1547852.1572266.3754883.2373047.6557617.2373047.1396484 0 .2548828-.0126953.3422852-.0375977.0878906-.0258789.1782227-.0649414.2685547-.1157227.0693359-.0400391.0693359-.078125.0693359-.0908203 0-.0268555-.0087891-.0473633-.027832-.0649414-.0322266-.0297852-.0791016-.0336914-.1108398-.0170898-.074707.0371094-.1533203.0664063-.2333984.0869141-.0795898.0205078-.1708984.0302734-.2788086.0302734-.203125 0-.3647461-.0512695-.4799805-.1533203-.1157227-.1030273-.1845703-.2470703-.2050781-.4282227l-.0063477-.0551758h1.2866211c.0371094 0 .0649414-.0107422.0854492-.0317383.0214844-.0224609.0317383-.0483398.0317383-.081543 0-.1552734-.0327148-.3012695-.0966797-.4335938-.0634766-.1303711-.1577148-.2358398-.2797852-.3139648s-.269043-.1176758-.4375-.1176758c-.1801758 0-.3330078.0424805-.4545898.1254883-.1220703.0839844-.2143555.1953125-.2729492.3310547-.0595703.1381836-.090332.2915039-.090332.4555664-.0000001.2895509.0791014.5166017.2343749.6748048zm1.1738281-.7773437h-1.1772461l.003418-.0527344c.0078125-.1269531.0410156-.2353516.0991211-.3227539.0581055-.0869141.1323242-.1518555.2197266-.1933594.171875-.0791016.3564453-.0800781.5292969 0 .0878906.0415039.1621094.1064453.2211914.1928711.059082.0869141.0932617.1958008.1010742.3232422zm-1.0688477-.0996094h.9604492c-.0117188-.0864258-.0380859-.1601563-.0791016-.2197266-.0483398-.0717773-.109375-.125-.1811523-.1586914-.1455078-.0688477-.3007813-.0688477-.4433594 0-.0722656.0336914-.1308594.0854492-.1796875.1582031-.040039.0600586-.0659179.1337891-.0771484.2202149z" fill="#fff"/></g></g><g><g><path d="m25.4152298 12.872139c-.0317383-.0317383-.0473633-.0703125-.0473633-.1162109v-1.5576172c0-.0458984.015625-.0849609.0473633-.1176758.03125-.0327148.0703125-.0493164.1162109-.0493164s.0854492.0166016.1176758.0493164c.0327148.0327148.0493164.0717773.0493164.1176758v.1489258c.0673828-.0966797.1494141-.1767578.2451172-.2392578.0952148-.0629883.2192383-.0947266.3720703-.0947266.1352539 0 .2514648.0366211.3481445.1088867.0966797.0727539.1660156.1611328.2070313.2651367.1499023-.2490234.3725586-.3740234.6679688-.3740234.1352539 0 .2485352.0341797.3393555.1015625.0908203.0678711.1577148.1552734.2016602.2617188.043457.1064453.0649414.2177734.0649414.3339844v1.0454102c0 .0458984-.0161133.0844727-.0488281.1162109-.0327148.03125-.0717773.046875-.1181641.046875-.0458984 0-.0844727-.015625-.1157227-.046875-.0317383-.0317383-.0473633-.0703125-.0473633-.1162109v-.9804688c0-.1572266-.027832-.2724609-.0834961-.3466797-.0556641-.0737305-.1513672-.1103516-.2866211-.1103516-.1235352 0-.2260742.0317383-.3071289.0961914-.0810547.0639648-.152832.1479492-.2158203.2519531v1.0893555c0 .0458984-.0161133.0844727-.0488281.1162109-.0327148.03125-.0722656.046875-.1181641.046875s-.0844727-.015625-.1162109-.046875c-.03125-.0317383-.046875-.0703125-.046875-.1162109v-.9804688c0-.1572266-.027832-.2724609-.0834961-.3466797-.0556641-.0737305-.1513672-.1103516-.2871094-.1103516-.1230469 0-.2255859.0317383-.3066406.0961914-.0810547.0639648-.152832.1479492-.2158203.2519531v1.0893555c0 .0458984-.0166016.0844727-.0493164.1162109-.0322266.03125-.0717773.046875-.1176758.046875s-.084961-.0156249-.116211-.0468749z" fill="#fff"/></g><g><path d="m27.9777298 12.9688187c-.0595703 0-.1103516-.0205078-.1508789-.0615234-.0415039-.0410156-.0620117-.0917969-.0620117-.1513672v-.9804688c0-.1450195-.0249023-.2514648-.0737305-.3168945-.0454102-.0595703-.128418-.090332-.246582-.090332-.1132813 0-.2036133.0283203-.2758789.0854492-.0727539.0576172-.1391602.1337891-.1972656.2270508v1.0751953c0 .0595703-.0214844.1108398-.0639648.1518555-.0849609.0820313-.2211914.0810547-.3041992 0-.0410156-.0419922-.0615234-.0927734-.0615234-.1518555v-.9804688c0-.1450195-.0249023-.2514648-.0737305-.3168945-.0454102-.0595703-.128418-.090332-.2470703-.090332-.1118164 0-.2041016.0288086-.2753906.0854492-.0727539.0576172-.1391602.1337891-.1972656.2270508v1.0751953c0 .0595703-.0214844.1103516-.0644531.1518555-.0825195.0805664-.2231445.0810547-.3037109-.0004883-.0415039-.0410156-.0620117-.0917969-.0620117-.1513672v-1.5576172c0-.059082.0205078-.1103516.0610352-.1523438.0810547-.0849609.2226563-.0844727.3056641-.0004883.0419922.0424805.0634766.09375.0634766.152832v.0083008c.0507813-.0537109.1069336-.1005859.1679688-.140625.1030273-.0678711.237793-.1025391.3994141-.1025391.1455078 0 .2724609.0395508.3779297.1186523.078125.0585938.1396484.1269531.184082.2045898.1577148-.2148438.3793945-.3232422.6611328-.3232422.1455078 0 .2695313.0371094.3691406.1113281.097168.0727539.1704102.1674805.2182617.2827148.0454102.1118164.0683594.2304688.0683594.3530273v1.0454102c0 .0595703-.0214844.1108398-.0639648.1518555s-.0937505.0610354-.1528325.0610354zm-.5332031-1.7001953c.1513672 0 .2612305.043457.3266602.1298828.0629883.0839844.0932617.2075195.0932617.3769531v.9804688c0 .0327148.0107422.0585938.0327148.0810547.0444336.0444336.1181641.043457.1640625-.0009766.0229492-.0219727.0336914-.0473633.0336914-.0800781v-1.0454102c0-.109375-.0209961-.215332-.0615234-.3149414-.0405273-.0981445-.1025391-.1791992-.1850586-.2407227-.0820313-.0605469-.1860352-.0917969-.3095703-.0917969-.2788086 0-.4833984.1147461-.625.3500977l-.0522461.0864258-.0371094-.09375c-.0375977-.0947266-.1015625-.1767578-.190918-.2436523-.0874023-.0654297-.1943359-.0991211-.3178711-.0991211-.1420898 0-.2578125.0292969-.3442383.0864258-.090332.059082-.168457.1352539-.2319336.2265625l-.0908203.1303711v-.3081055c0-.0327148-.0112305-.0585938-.034668-.0825195-.046875-.046875-.1186523-.0463867-.1625977-.0004883-.0229492.0234375-.0336914.0498047-.0336914.0830078v1.5576172c0 .0327148.0107422.0585938.0327148.0810547.0444336.043457.1181641.043457.1640625-.0009766.0229492-.0224609.0341797-.0478516.0341797-.0800781v-1.1035156l.0068359-.0117188c.065918-.1088867.1425781-.1982422.2280273-.2651367.0888672-.0712891.2026367-.1069336.3374023-.1069336.1518555 0 .2617188.043457.3271484.1298828.0629883.0839844.0932617.2075195.0932617.3769531v.9804688c0 .0327148.0107422.0585938.0327148.0810547.0439453.043457.1186523.0424805.1640625-.0009766.0229492-.0219727.0336914-.0473633.0336914-.0800781v-1.1035156l.0068359-.0117188c.065918-.1088867.1425781-.1982422.2280273-.2651367.0888676-.0712891.2026372-.1069336.3378911-.1069336z" fill="#fff"/></g></g><g><g><path d="m29.0905228 12.6851273c-.1655273-.168457-.2485352-.4047852-.2485352-.7099609 0-.171875.03125-.3300781.0942383-.4755859.0629883-.1450195.159668-.262207.2905273-.3520508.1303711-.0893555.2915039-.1342773.4829102-.1342773.1787109 0 .3339844.0419922.4643555.1254883.1308594.0834961.2299805.1948242.2978516.3339844.0673828.1391602.1015625.2910156.1015625.4555664 0 .0458984-.0151367.0844727-.0454102.1162109-.0302734.03125-.0708008.046875-.121582.046875h-1.2304688c.019043.1694336.0820313.3012695.1884766.3959961.1064453.0942383.2553711.1411133.4467773.1411133.1015625 0 .1904297-.0092773.2666016-.0288086s.1508789-.0473633.2231445-.0834961c.0195313-.0097656.0415039-.0146484.0654297-.0146484.0385742 0 .0727539.0136719.1015625.0400391.0292969.0268555.0439453.0605469.0439453.1015625 0 .0532227-.0317383.0981445-.0947266.1342773-.0942383.0532227-.1875.0932617-.2792969.1201172-.0922852.0263672-.2104492.0395508-.355957.0395508-.2949219-.0000002-.5258789-.0839846-.6914062-.2519533zm1.15625-.8623047c-.0073242-.1186523-.0380859-.2177734-.0927734-.2978516-.0541992-.0795898-.121582-.1381836-.2011719-.1757813-.0800781-.0375977-.1611328-.0561523-.2431641-.0561523-.0825195 0-.1635742.0185547-.2431641.0561523-.0800781.0375977-.1464844.0961914-.199707.1757813-.0532227.0800781-.0834961.1791992-.0908203.2978516z" fill="#fff"/></g><g><path d="m29.781929 12.9868851c-.3081055 0-.5527344-.0893555-.7270508-.2666016-.1743164-.1777344-.2626953-.4282227-.2626953-.7451172 0-.1782227.0327148-.3447266.0981445-.4956055.0664063-.152832.1699219-.2783203.3081055-.3730469.1386719-.0952148.3105469-.1430664.5112305-.1430664.1879883 0 .3530273.0449219.4912109.1333008.1376953.0878906.2441406.2070313.315918.3540039.0708008.1459961.1064453.3066406.1064453.4775391 0 .0585938-.0195313.109375-.059082.1508789-.0400391.0415039-.0932617.0620117-.1577148.0620117h-1.1728516c.0239258.1308594.078125.2319336.1640625.309082.0961914.0849609.2353516.128418.4135742.128418.0981445 0 .1835938-.0092773.2543945-.0273438.0727539-.019043.1445313-.0458984.2128906-.0800781.0683594-.0332031.1611328-.0224609.2231445.0332031.0400391.0366211.0600586.0834961.0600586.1386719 0 .0498047-.0205078.1206055-.1196289.1777344-.097168.0546875-.1948242.0966797-.2900391.1245117-.0981444.0283204-.2192382.041504-.3701171.041504zm-.6557617-.3369141c.1547852.1572266.3754883.2373047.6557617.2373047.1396484 0 .2548828-.0126953.3422852-.0375977.0878906-.0258789.1782227-.0649414.2685547-.1157227.0693359-.0400391.0693359-.078125.0693359-.0908203 0-.0268555-.0087891-.0473633-.027832-.0649414-.0322266-.0297852-.0791016-.0336914-.1108398-.0170898-.074707.0371094-.1533203.0664063-.2333984.0869141-.0795898.0205078-.1708984.0302734-.2788086.0302734-.203125 0-.3647461-.0512695-.4799805-.1533203-.1157227-.1030273-.1845703-.2470703-.2050781-.4282227l-.0063477-.0551758h1.2866211c.0371094 0 .0649414-.0107422.0854492-.0317383.0214844-.0224609.0317383-.0483398.0317383-.081543 0-.1552734-.0327148-.3012695-.0966797-.4335938-.0634766-.1303711-.1577148-.2358398-.2797852-.3139648s-.269043-.1176758-.4375-.1176758c-.1801758 0-.3330078.0424805-.4545898.1254883-.1220703.0839844-.2143555.1953125-.2729492.3310547-.0595703.1381836-.090332.2915039-.090332.4555664-.0000001.2895509.0791015.5166017.2343749.6748048zm1.1738281-.7773437h-1.1772461l.003418-.0527344c.0078125-.1269531.0410156-.2353516.0991211-.3227539.0581055-.0869141.1323242-.1518555.2197266-.1933594.171875-.0791016.3564453-.0800781.5292969 0 .0878906.0415039.1621094.1064453.2211914.1928711.059082.0869141.0932617.1958008.1010742.3232422zm-1.0688476-.0996094h.9604492c-.0117188-.0864258-.0380859-.1601563-.0791016-.2197266-.0483398-.0717773-.109375-.125-.1811523-.1586914-.1450195-.0688477-.300293-.0688477-.4433594 0-.0722656.0336914-.1308594.0854492-.1796875.1582031-.0400391.0600586-.065918.1337891-.0771484.2202149z" fill="#fff"/></g></g><g><g><path d="m31.3107376 12.872139c-.0317383-.0317383-.0473633-.0703125-.0473633-.1162109v-1.5576172c0-.0458984.015625-.0849609.0473633-.1176758.03125-.0327148.0703125-.0493164.1162109-.0493164s.0854492.0166016.1176758.0493164c.0327148.0327148.0493164.0717773.0493164.1176758v.1489258c.0917969-.1015625.190918-.1826172.2973633-.2431641s.2324219-.0908203.3779297-.0908203c.1328125 0 .2485352.0317383.3466797.0947266.0976563.0625.1728516.1484375.2246094.2573242.0522461.1088867.078125.2290039.078125.359375v1.03125c0 .0458984-.0161133.0844727-.0488281.1162109-.0327148.03125-.0722656.046875-.1181641.046875s-.0844727-.015625-.1162109-.046875c-.03125-.0317383-.046875-.0703125-.046875-.1162109v-.9946289c0-.2954102-.1333008-.4428711-.3994141-.4428711-.1210938 0-.2294922.03125-.324707.0942383-.0957031.0629883-.1860352.1474609-.2705078.2539063v1.0893555c0 .0458984-.0166016.0844727-.0493164.1162109-.0322266.03125-.0717773.046875-.1176758.046875s-.084961-.0156251-.116211-.0468751z" fill="#fff"/></g><g><path d="m32.7516556 12.9688187c-.059082 0-.1098633-.0205078-.1513672-.0610352-.0410156-.0419922-.0615234-.0927734-.0615234-.1518555v-.9946289c0-.2680664-.1113281-.3930664-.3496094-.3930664-.1108398 0-.2109375.0292969-.2973633.0859375-.0874023.0576172-.1704102.1347656-.2480469.2299805v1.0717773c0 .0595703-.0214844.1103516-.0644531.1518555-.0830078.0805664-.2236328.0810547-.3037109-.0004883-.0415039-.0410156-.0620117-.0917969-.0620117-.1513672v-1.5576172c0-.059082.0205078-.1103516.0615234-.1523438.0800781-.0849609.222168-.0844727.3051758-.0004883.0419922.0424805.0634766.09375.0634766.152832v.0268555c.0708008-.0649414.1450195-.1206055.2226563-.1645508.1137695-.0644531.2490234-.097168.402832-.097168.1416016 0 .2675781.0341797.3735352.1025391.1054688.0673828.1875.1611328.2426758.277832.0551758.1147461.0830078.2426758.0830078.3808594v1.03125c0 .0595703-.0214844.1108398-.0639648.1518555s-.0937502.0610353-.1528322.0610353zm-.5625-1.7001953c.2050781 0 .4492188.0854492.4492188.4926758v.9946289c0 .0327148.0107422.0585938.0327148.0810547.0444336.043457.1186523.0424805.1640625-.0009766.0229492-.0219727.0336914-.0473633.0336914-.0800781v-1.03125c0-.1230469-.0249023-.2363281-.0732422-.3378906-.0478516-.0996094-.1171875-.1791992-.206543-.2368164-.0898438-.0576172-.1972656-.0869141-.3198242-.0869141-.1362305 0-.2548828.0283203-.3530273.0844727-.1015625.0576172-.1972656.1362305-.2851563.2333984l-.0869141.0961914v-.2788086c0-.0327148-.0112305-.0585938-.034668-.0825195-.046875-.046875-.1186523-.0463867-.1625977-.0004883-.0229492.0234375-.0336914.0498047-.0336914.0830078v1.5576172c0 .0327148.0107422.0585938.0327148.0810547.0444336.043457.1186523.043457.1640625-.0009766.0229492-.0224609.0341797-.0478516.0341797-.0800781v-1.1069336l.0107422-.0136719c.0869141-.109375.1816406-.1982422.2822266-.2646484.1025392-.0678712.2211915-.1020508.3520509-.1020508z" fill="#fff"/></g></g><g><g><path d="m33.7931595 12.4580765v-1.1254883h-.2578125c-.019043 0-.0356445-.0063477-.0488281-.0195313-.0131836-.0136719-.0200195-.0297852-.0200195-.0493164 0-.0239258.0112305-.0444336.0327148-.0615234l.4936523-.4829102c.0219727-.0219727.0424805-.0327148.0620117-.0327148.019043 0 .0356445.0073242.0488281.0219727s.0200195.03125.0200195.0507813v.2905273h.4101563c.0410156 0 .074707.0131836.1015625.0395508.0268555.0268555.0400391.0605469.0400391.1020508 0 .0385742-.0131836.0717773-.0400391.0996094s-.0605469.0415039-.1015625.0415039h-.4101563v1.0966797c0 .0942383.0224609.1542969.0668945.1796875.0449219.0253906.1010742.0380859.1689453.0380859.0483398 0 .0966797-.0073242.1450195-.0219727.0097656-.0024414.0200195-.0048828.03125-.0073242.0107422-.0024414.0244141-.003418.0415039-.003418.0336914 0 .0639648.0126953.0908203.0380859.0263672.0253906.0400391.0561523.0400391.0922852 0 .0556641-.027832.0981445-.0834961.1274414-.0947266.043457-.1948242.0649414-.3012695.0649414-.3535155 0-.5302733-.159668-.5302733-.4790039z" fill="#fff"/></g><g><path d="m34.3234329 12.9868851c-.3793945 0-.5800781-.1826172-.5800781-.5288086v-1.0756836h-.2080078c-.0327148 0-.0620117-.0117188-.0839844-.0341797-.0234375-.0239258-.034668-.0522461-.034668-.0844727 0-.0273438.0087891-.0668945.0512695-.1005859l.4897461-.4794922c.0625-.0634766.1381836-.059082.1831055-.0083008.0219727.0239258.0327148.0522461.0327148.0839844v.2407227h.3603516c.0541992 0 .1000977.0180664.1367188.0537109.0366211.0366211.0546875.0830078.0546875.1376953 0 .0517578-.0180664.097168-.0537109.1342773-.0366211.0375977-.0830078.0566406-.1376953.0566406h-.3603516v1.046875c0 .0727539.0151367.1210938.0419922.1362305.0634766.0371094.171875.0429688.2744141.0117188l.0351563-.0083008c.0136719-.0029297.0302734-.0043945.0522461-.0043945.046875 0 .0888672.0170898.125.0517578.0366211.0351563.0556641.0795898.0556641.128418 0 .0517578-.019043.1235352-.1098633.171875-.1030275.0473633-.2114259.0703125-.3247072.0703125zm-.2685547-2.2504883c-.0004883 0-.0087891.0004883-.0268555.0180664l-.4936523.4833984c-.0180664.0146484-.0180664.0219727-.0180664.0258789 0 .0063477.0019531.0102539.0063477.0146484.0019531.0024414.0053711.0043945.0126953.0043945h.3076172v1.175293c0 .2924805.152832.4291992.4804688.4291992.1000977 0 .1918945-.0200195.2802734-.0605469.0478516-.0253906.0546875-.0571289.0546875-.0820313 0-.0219727-.0078125-.0400391-.0249023-.0561523-.0283203-.027832-.0703125-.0253906-.0864258-.0219727l-.0302734.0068359c-.1220703.0385742-.2617188.0297852-.3505859-.0209961-.0615234-.0351563-.0922852-.1098633-.0922852-.2231445v-1.1464844h.4599609c.0273438 0 .0483398-.0083008.0654297-.0263672.0180664-.0185547.0263672-.0390625.0263672-.0649414 0-.0283203-.0083008-.0493164-.0253906-.0668945-.0175781-.0166016-.0385742-.0249023-.0664063-.0249023h-.4599609v-.340332c0-.0058594-.0014648-.0107422-.0073242-.0175781-.0039064-.0043944-.0073243-.005371-.0117189-.005371z" fill="#fff"/></g></g></g></g><g><g><g><g><g><path d="m32.3416138 33.5485458v8.7286797h-14.3304634v-8.9532738l7.0529327-7.0572567z" fill="#e4e3ff"/></g></g></g><g><g><g><path d="m32.3459244 32.7613373v8.7286796h-14.3304615v-8.9532776l7.0529327-7.0572547z" fill="#f9b938"/></g></g></g><g><g><g><path d="m32.3459091 32.7624855v1.5245934l-7.2775039-7.2818261-7.0529328 7.0572548v-1.5246162l7.0529328-7.0572319z" fill="#ecb021"/></g></g></g><g><g><g><path d="m33.1223373 41.0343857v.8660851c0 .2724838-.22089.4933777-.4933777.4933777h-14.909481c-.2724857 0-.4933796-.2208939-.4933796-.4933777v-.8660851c0-.2724838.2208939-.4933777.4933796-.4933777h14.909481c.2724877 0 .4933777.2208939.4933777.4933777z" fill="#fc6559"/></g></g></g><g><g><g><path d="m33.1233482 41.0333519v.8681259c0 .2720985-.2202721.4923706-.4923706.4923706h-14.913517c-.2720985 0-.4923458-.2202721-.4923458-.4923706v-.1770706h14.7320995c.2720985 0 .4923744-.2245941.4923744-.4966927v-.6867065h.1813889c.2720986 0 .4923706.2202721.4923706.4923439z" fill="#f05543"/></g></g></g><g><g><g><g><g><g><path d="m34.0692101 33.4448967c-.2030067.2073021-.4751053.310955-.7472038.310955-.2677765 0-.539875-.103653-.7471771-.310955l-1.0365715-1.0365715-6.4612046-6.4655552-4.3708248 4.3751469-.4276047.4319-1.4598236 1.4598236-1.0322208 1.0279236c-.4146328.4103127-1.0840721.4103127-1.4943829 0-.4146328-.4103088-.4146328-1.0840721 0-1.4943562l1.9003696-1.9003696 2.5136623-2.5179844 3.6236191-3.6236191c.1986828-.1986847.4664593-.3109818.7472057-.3109818.2850418 0 .5528183.1122971.7471771.3109818l8.2449799 8.2492771c.4146081.4103089.4146081 1.0797501.0000001 1.4943848z" fill="#fc6559"/></g></g></g></g></g></g><g opacity=".3"><g><g><g><g><path d="m20.338232 28.656126c-.0844021-.0844021-.0844021-.2209969 0-.3053989l.2863121-.2863121c.0844021-.0844021.2209969-.0844021.3053989 0s.0844021.2209969 0 .3053989l-.286312.2863121c-.0844021.0844021-.2209969.0844021-.305399 0z" fill="#fff"/></g></g></g></g><g><g><g><g><path d="m21.0437222 27.9506359c-.0844021-.0844021-.0844021-.2209969 0-.3053989l1.8693771-1.869379c.084404-.0844021.2209988-.0844021.3054008 0s.0844021.2209969 0 .3053989l-1.869379 1.869379c-.0844021.0844021-.2209969.0844021-.3053989 0z" fill="#fff"/></g></g></g></g></g></g><g><g><g><g><path d="m26.7721462 30.86763c0 .8755856-.7210522 1.5863266-1.5965767 1.5863266-.8755856 0-1.5863285-.710741-1.5863285-1.5863266 0-.8755226.710743-1.5862656 1.5863285-1.5862656.8755246 0 1.5965767.710743 1.5965767 1.5862656z" fill="#474646"/></g></g></g><g><g><g><path d="m26.4425201 29.9096851c-.2678242-.195715-.5974503-.3193169-.9579449-.3193169-.8755875 0-1.5863285.710743-1.5863285 1.5863285 0 .3604965.1236649.6901207.319315.9579468-.3811168-.2987575-.6283207-.7519855-.6283207-1.2670135 0-.8755226.710743-1.5862656 1.5863285-1.5862656.5150299 0 .9785042.2472039 1.2669506.6283207z" fill="#2d2c2c"/></g></g></g></g><g><g><g><g><path d="m27.7712727 37.3615036v3.1828423h-5.1811562v-3.1828423c0-1.431797 1.163969-2.5957642 2.5957012-2.5957642.7210522 0 1.359684.2883835 1.8335323.7622299.4635392.4635392.7519227 1.1227914.7519227 1.8335343z" fill="#474646"/></g></g></g><g><g><g><path d="m27.220211 35.7648621c-.4429169-.3501816-.9888783-.5562057-1.5862656-.5562057-1.4317951 0-2.5957642 1.1639671-2.5957642 2.5957642v2.7399254h-.4429169v-3.1828423c0-1.431797 1.163969-2.5957642 2.585453-2.5957642.7210522 0 1.359684.2883835 1.8437805.7622299.0721113.072113.1442224.1545333.1957132.2368927z" fill="#2d2c2c"/></g></g></g></g></g></g></svg>