<?xml version="1.0" encoding="UTF-8"?>
<svg version="1.1" xmlns="http://www.w3.org/2000/svg" width="512" height="512">
<path d="M0 0 C3.43403788 2.00011167 6.21175747 4.42351494 8 8 C8.51118507 12.65932621 8.54728848 16.72299355 6.6875 21.0625 C3.0415148 25.04764661 -1.03162292 28.30706411 -5.27539062 31.63720703 C-8.54619783 34.22181148 -11.76833811 36.86675169 -15 39.5 C-16.38527587 40.62517337 -17.77069026 41.75017622 -19.15625 42.875 C-22.27629187 45.41003402 -25.39029454 47.9522895 -28.5 50.5 C-29.77423828 51.54220703 -29.77423828 51.54220703 -31.07421875 52.60546875 C-32.69184284 53.92937204 -34.30902287 55.25382061 -35.92431641 56.58056641 C-38.05161282 58.32712088 -40.18189527 60.06998356 -42.3125 61.8125 C-42.9828125 62.36421875 -43.653125 62.9159375 -44.34375 63.484375 C-56.32276812 73.26365327 -56.32276812 73.26365327 -64.0234375 72.9140625 C-65.04695312 72.87023437 -66.07046875 72.82640625 -67.125 72.78125 C-68.1975 72.7296875 -69.27 72.678125 -70.375 72.625 C-71.37789062 72.58117187 -72.38078125 72.53734375 -73.4140625 72.4921875 C-76.94308218 72.3357285 -80.47151956 72.16806775 -84 72 C-85.27124159 71.93950533 -85.27124159 71.93950533 -86.56816483 71.87778854 C-89.36657241 71.74459538 -92.16497615 71.61132176 -94.96337891 71.47802734 C-95.9315303 71.43191818 -96.8996817 71.38580902 -97.89717102 71.33830261 C-100.264781 71.22554189 -102.63239066 71.11277419 -105 71 C-107.90000521 81.71441473 -110.7868991 92.43226735 -113.65714359 103.15469551 C-114.99034946 108.13353466 -116.32802804 113.11108082 -117.67602539 118.0859375 C-118.97694129 122.88769392 -120.26598016 127.69249515 -121.54687309 132.49962997 C-122.0374396 134.33235763 -122.53226282 136.16395141 -123.03141975 137.99435806 C-123.73027523 140.55992837 -124.41383535 143.12912685 -125.09399414 145.69970703 C-125.30330566 146.45424667 -125.51261719 147.20878632 -125.72827148 147.9861908 C-126.85731523 152.32831687 -127.21380939 155.65529474 -126 160 C-124.21345134 162.35216351 -124.21345134 162.35216351 -121.875 164.375 C-118.98988966 167.10133854 -116.20777312 169.79717507 -113.625 172.8125 C-110.69098781 176.22872253 -107.67483383 179.56230352 -104.625 182.875 C-100.45334377 187.40993441 -96.30628336 191.96487516 -92.19921875 196.55859375 C-90.67445465 198.25127148 -89.13423395 199.93010408 -87.58203125 201.59765625 C-79.91061977 209.8947946 -76.04240445 215.95173244 -75.70288086 227.44482422 C-75.66291489 228.73162079 -75.62294891 230.01841736 -75.58177185 231.34420776 C-75.54260924 232.74769582 -75.50363853 234.15118923 -75.46484375 235.5546875 C-75.42170705 237.01702676 -75.37829058 238.47935779 -75.33460999 239.94168091 C-75.24371141 243.01655024 -75.15580099 246.09148631 -75.07006836 249.16650391 C-74.96201832 253.03587707 -74.84727388 256.90501521 -74.73056602 260.77413559 C-74.48748534 268.85820915 -74.27436896 276.94251679 -74.09246826 285.02819824 C-74.03333515 287.56815071 -73.96835249 290.10797806 -73.89581299 292.64758301 C-73.80722112 295.83014142 -73.74481514 299.01199861 -73.69140625 302.1953125 C-73.66143051 303.09023407 -73.63145477 303.98515564 -73.60057068 304.90719604 C-73.53543197 311.68993354 -75.30639378 316.81441091 -79.7109375 322.0234375 C-85.06347814 326.37080619 -89.74202233 328.53041694 -96.8515625 328.3125 C-102.33125926 327.5154532 -107.26214873 325.24591453 -110.9375 321.0625 C-117.05978831 311.97182948 -116.17228541 301.08338231 -116.38442612 290.48386765 C-116.43058626 288.22954459 -116.48346427 285.9754704 -116.5383606 283.72134399 C-116.69401384 277.31899562 -116.84504178 270.91661736 -116.97412109 264.51367188 C-117.05390117 260.58017886 -117.14749833 256.64721767 -117.24994278 252.71425247 C-117.28614553 251.22413259 -117.31724423 249.73387907 -117.34298325 248.24354172 C-117.37952014 246.15710137 -117.43370028 244.07177906 -117.49169922 241.98583984 C-117.51755096 240.80275238 -117.54340271 239.61966492 -117.57003784 238.40072632 C-118.30462319 232.59062496 -120.37238299 228.06364195 -124.75 224.0625 C-127.40317651 221.54414915 -129.92819227 219.02498948 -132.3125 216.25 C-135.78568642 212.20992568 -139.38160808 208.29260898 -143.00512695 204.38769531 C-146.12193457 201.0126137 -149.08404785 197.54756634 -152 194 C-149.95488633 200.73684504 -147.29097876 207.08289227 -144.42553711 213.50195312 C-141.42033419 220.23621028 -139.38933949 226.19245872 -141.82055664 233.44921875 C-145.96450493 243.07364622 -150.37959378 252.56837216 -154.8125 262.0625 C-156.51205201 265.70627132 -158.20999897 269.35078457 -159.90625 272.99609375 C-160.54600517 274.37075806 -160.54600517 274.37075806 -161.19868469 275.77319336 C-164.04424293 281.90232702 -166.83536893 288.05385656 -169.59375 294.22265625 C-170.31390963 295.82615185 -171.03420286 297.42958745 -171.75463867 299.03295898 C-172.77470734 301.30376752 -173.7908715 303.57586793 -174.79385376 305.85427856 C-181.99911407 322.21884234 -181.99911407 322.21884234 -189.5625 327.9375 C-196.05879479 329.94544566 -203.05318657 329.9998117 -209.5 327.8125 C-215.16954841 323.7020774 -219.23773133 319.58610823 -220.41699219 312.49121094 C-221.08008962 302.12736827 -217.22981874 294.49135319 -212.73376465 285.37783813 C-211.41679572 282.70802748 -210.1310686 280.02508023 -208.85253906 277.33666992 C-207.1057315 273.66947536 -205.34803073 270.00788521 -203.57958984 266.35107422 C-200.06783413 259.08027454 -196.62286037 251.77972282 -193.24099731 244.44763184 C-192.26836101 242.35205931 -191.27643118 240.26642063 -190.28295898 238.18066406 C-189.69285203 236.90866454 -189.10368401 235.63622885 -188.515625 234.36328125 C-187.74653809 232.72806519 -187.74653809 232.72806519 -186.96191406 231.05981445 C-184.93191468 224.60245853 -188.01032453 219.20271091 -190.6484375 213.359375 C-191.01724533 212.52719452 -191.38605316 211.69501404 -191.76603699 210.83761597 C-192.55511033 209.05882644 -193.34722758 207.2813846 -194.14212036 205.50518799 C-196.20860517 200.88709395 -198.25303819 196.25923925 -200.30078125 191.6328125 C-200.90873787 190.26187943 -200.90873787 190.26187943 -201.52897644 188.86325073 C-204.94696259 181.14753721 -208.28382839 173.40094448 -211.5625 165.625 C-212.00835449 164.57022461 -212.45420898 163.51544922 -212.91357422 162.42871094 C-216.85852265 153.0489581 -217.93476009 146.50719286 -215.27172852 136.51416016 C-215.08801697 135.81394745 -214.90430542 135.11373474 -214.71502686 134.39230347 C-214.11243128 132.10526671 -213.49591607 129.82224853 -212.87890625 127.5390625 C-212.45451655 125.9412423 -212.03094025 124.34320586 -211.60813904 122.7449646 C-210.72378598 119.40990179 -209.83313586 116.07661354 -208.93725586 112.74462891 C-207.78780992 108.46950739 -206.64891415 104.19167022 -205.51400852 99.91266823 C-204.43058421 95.82892564 -203.34267254 91.74638362 -202.25390625 87.6640625 C-202.04618654 86.88426655 -201.83846684 86.1044706 -201.62445259 85.30104446 C-201.03796771 83.10318978 -200.4483769 80.90619478 -199.85766602 78.70947266 C-199.52235367 77.45897125 -199.18704132 76.20846985 -198.84156799 74.92007446 C-198 72 -198 72 -197 70 C-197.99 70 -198.98 70 -200 70 C-200.17208984 71.42892578 -200.17208984 71.42892578 -200.34765625 72.88671875 C-201.02575423 77.61910378 -202.22000316 82.19453093 -203.4375 86.8125 C-203.65470703 87.67037109 -203.87191406 88.52824219 -204.09570312 89.41210938 C-204.31033203 90.23130859 -204.52496094 91.05050781 -204.74609375 91.89453125 C-204.93872803 92.63550049 -205.1313623 93.37646973 -205.32983398 94.13989258 C-206 96 -206 96 -208 98 C-229.25500185 77.05911148 -229.25500185 77.05911148 -229.5 69.75 C-229.364483 64.82621579 -228.64518958 62.2444375 -225.14453125 58.79296875 C-220.80657045 55.16614906 -216.33742186 51.74324122 -211.80712891 48.36328125 C-208.72886386 46.04106671 -205.71130011 43.64241235 -202.6875 41.25 C-186.21451157 28.26950198 -186.21451157 28.26950198 -175 29 C-170.94773994 29.68734179 -167.00565461 30.69764936 -163.03125 31.73828125 C-160.68651586 32.31998681 -158.3410214 32.89863414 -155.99487305 33.47460938 C-154.77263031 33.7764917 -153.55038757 34.07837402 -152.29110718 34.3894043 C-131.21620918 39.52092574 -110.3667627 43.45070525 -88.6875 45 C-87.09373535 45.14352402 -87.09373535 45.14352402 -85.46777344 45.28994751 C-72.04830833 46.6534247 -72.04830833 46.6534247 -60.16818237 41.33387756 C-57.61153647 39.022481 -55.3165359 36.55326383 -53 34 C-51.74878812 32.94540081 -50.47409032 31.91674613 -49.16015625 30.94140625 C-43.27708789 26.4233878 -37.53699402 21.8031062 -31.9375 16.9375 C-27.31117695 12.92119134 -22.60875734 9.04514088 -17.75 5.3125 C-16.92616821 4.6791272 -16.92616821 4.6791272 -16.08569336 4.03295898 C-10.7237777 -0.04270942 -6.74234713 -1.09688931 0 0 Z " fill="#000000" transform="translate(304,159)"/>
<path d="M0 0 C8.10638899 6.44826397 13.79847492 13.70051675 15.75 24.1875 C16.7201387 36.6720718 14.81138743 46.47747212 6.66796875 56.18359375 C-1.27227985 64.47961723 -9.50333767 67.62749638 -20.875 68.24609375 C-31.5262105 68.0611769 -39.73371146 64.32030324 -47.44140625 57.1484375 C-54.66675771 49.61703985 -57.81047108 41.66456398 -58.34375 31.265625 C-58.03063518 20.98502167 -54.31767446 11.75766538 -47.3984375 4.15234375 C-33.92557675 -8.48852759 -15.69299605 -8.75186318 0 0 Z " fill="#000000" transform="translate(193.25,124.8125)"/>
<path d="M0 0 C1.65 0 3.3 0 5 0 C5.14397217 1.25321045 5.28794434 2.5064209 5.4362793 3.79760742 C8.62326172 35.89718731 8.62326172 35.89718731 23.41796875 63.77392578 C25.122565 66.17246106 26.19309406 68.49749578 27.3125 71.21484375 C31.89120679 81.77125281 36.9535521 86.68072588 47.50001526 90.96505737 C53.50656057 93.28126907 59.61223073 95.35312904 65.78292847 97.18849182 C72.10566141 99.12172436 72.10566141 99.12172436 74 102 C74.9831543 104.97094727 74.9831543 104.97094727 75.82421875 108.56640625 C75.97534622 109.20110336 76.12647369 109.83580048 76.28218079 110.48973083 C76.76074596 112.51176081 77.22399291 114.5369716 77.6875 116.5625 C78.01012819 117.92925858 78.33368579 119.29579812 78.65820312 120.66210938 C81 130.61564564 81 130.61564564 81 133 C82.05960938 133.14695313 82.05960938 133.14695313 83.140625 133.296875 C88.32107536 134.051815 93.41855948 134.83004159 98.5078125 136.05859375 C109.07517315 138.54287692 118.3813611 139.3099933 129.22216797 138.03198242 C134.21930034 137.56490712 137.16555709 137.54017582 141.16796875 140.7890625 C142.84448242 142.38134766 142.84448242 142.38134766 144 144 C144 144.99 144 145.98 144 147 C141.80321964 145.98006626 140.02529594 145.02180356 138.18212891 143.43310547 C135.46843186 141.6508945 134.0513185 141.71352151 130.8359375 141.8828125 C129.80774902 141.91826172 128.77956055 141.95371094 127.72021484 141.99023438 C126.61629395 142.03470703 125.51237305 142.07917969 124.375 142.125 C110.4515647 142.44884674 97.51777342 140.14289068 84 137 C84.47626831 137.72533936 84.47626831 137.72533936 84.9621582 138.46533203 C86.41562618 140.68304371 87.86408956 142.90398222 89.3125 145.125 C89.81201172 145.88554687 90.31152344 146.64609375 90.82617188 147.4296875 C93.49002866 151.52250057 95.89568406 155.58345667 98 160 C102.70058428 169.41658032 110.69802497 175.67245993 120.11132812 180.06591797 C125.60537252 181.84247424 131.27596845 181.54694662 137 181.5625 C148.32324655 181.63104548 148.32324655 181.63104548 152.18115234 184.78076172 C156.02651202 189.66684288 160 196.60267597 160 203 C160.90621094 203.12117187 161.81242188 203.24234375 162.74609375 203.3671875 C165.27449776 203.71501027 167.80051912 204.08048027 170.32421875 204.4609375 C172.40347002 204.76586489 174.48858337 205.04287116 176.58203125 205.2265625 C183.96993291 206.15836992 188.47390851 211.40616668 193 217 C193 217.66 193 218.32 193 219 C194.18529297 219.14695313 194.18529297 219.14695313 195.39453125 219.296875 C205.72222479 220.66603209 215.82966434 222.76642948 226 225 C225.67 225.99 225.34 226.98 225 228 C220.6447866 227.21402254 216.29103681 226.42020734 211.9375 225.625 C210.70837891 225.40328125 209.47925781 225.1815625 208.21289062 224.953125 C204.80290219 224.32811364 201.40028601 223.6756531 198 223 C197.24928223 222.8565918 196.49856445 222.71318359 195.72509766 222.56542969 C190.07822389 221.26803119 187.815823 217.68896684 184.40625 213.3125 C180.09285546 209.16715979 174.64391624 208.9008783 168.94873047 208.16601562 C160.13513865 206.92916591 160.13513865 206.92916591 157.0625 204.4140625 C155.76881237 202.3288423 154.89214787 200.28612892 154 198 C152.98179289 196.00866266 151.93916113 194.02966324 150.875 192.0625 C150.39804687 191.12535156 149.92109375 190.18820313 149.4296875 189.22265625 C148.13273546 186.69602191 148.13273546 186.69602191 145 186 C143.36494012 185.91125526 141.72723227 185.86753996 140.08984375 185.8515625 C124.0255762 185.36508612 111.80020386 182.01988589 100.33984375 170.2734375 C98.7152089 168.23860658 97.28396844 166.26090095 96 164 C94.12422766 171.31606963 92.61912267 178.67570474 91.23071289 186.09838867 C90.9526964 187.57026931 90.6685468 189.04100517 90.37817383 190.51049805 C88.65856492 199.22155938 87.51906135 207.14397084 89 216 C89.14203857 217.04325439 89.28407715 218.08650879 89.43041992 219.16137695 C92.03409405 237.15762831 96.98854582 249.4162918 109 263 C114.99742568 269.87891544 117.96562402 274.44643705 117.41015625 283.80859375 C117.27723887 285.20609594 117.1402098 286.60321061 117 288 C116.85081872 289.67820481 116.70383183 291.35660558 116.55859375 293.03515625 C116.47818848 293.95449951 116.3977832 294.87384277 116.31494141 295.82104492 C115.85029675 301.21209132 115.41974693 306.60528985 115 312 C114.94293884 312.6846936 114.88587769 313.36938721 114.8270874 314.0748291 C114.45171889 318.58557696 114.1363838 323.09482775 113.88766479 327.61437988 C113.79684221 329.10579502 113.68762095 330.59621849 113.55886841 332.08483887 C112.68692566 340.95701544 112.68692566 340.95701544 116.15576172 348.86279297 C117.93751007 350.51287073 119.75703315 352.12316575 121.61328125 353.68896484 C125.43164436 357.38624647 125.98230798 361.25669369 126.625 366.375 C126.77066406 367.25027344 126.91632813 368.12554687 127.06640625 369.02734375 C127.66475945 372.75992798 128 376.20654316 128 380 C126.68 380 125.36 380 124 380 C123.53844354 378.20916094 123.08096796 376.4172701 122.625 374.625 C122.19767578 372.97757812 122.19767578 372.97757812 121.76171875 371.296875 C121 368 121 368 120.70703125 365.328125 C120.05658496 359.40812108 118.46814943 357.26835459 113.875 353.4375 C110.57755136 350.40721873 109.11956217 348.85522794 108.4909668 344.35888672 C108.51340862 342.98597726 108.56347132 341.61332528 108.63671875 340.2421875 C108.6570668 339.50003494 108.67741486 338.75788239 108.69837952 337.99324036 C108.77095775 335.6600966 108.88130015 333.33121492 109 331 C109.03178345 330.27551666 109.06356689 329.55103333 109.09631348 328.80459595 C109.28516215 324.50020571 109.52900824 320.2011344 109.8012085 315.90127563 C109.9415859 313.621133 110.0664771 311.34054758 110.18798828 309.05932617 C110.53860298 302.62455273 110.9036675 296.24106997 111.77734375 289.8515625 C112.79190238 281.87716139 113.0420688 276.44193189 108.28051758 269.6628418 C105.22692054 265.7565775 101.95934654 262.07749142 98.55859375 258.47167969 C90.71958874 249.99846946 88.25073109 240.83870829 85.875 229.8125 C85.7242099 229.11745361 85.5734198 228.42240723 85.4180603 227.70629883 C82.82903241 215.48408497 82.23375636 204.8371509 85.1015625 192.64453125 C85.51493946 190.70315695 85.92499343 188.76107265 86.33203125 186.81835938 C86.96939883 183.81303163 87.62385216 180.81731391 88.33642578 177.82885742 C91.76664498 164.18691322 91.76664498 164.18691322 87.90240479 151.17871094 C86.12730359 148.55011864 84.26003316 146.03117243 82.2644043 143.56610107 C77.79515125 138.03044921 75.85410335 133.25429459 75.0703125 126.19921875 C74.01275731 113.28564104 74.01275731 113.28564104 67.45831299 102.67510986 C59.57813415 97.48684534 50.01944605 95.03384909 40.96166992 92.75488281 C38 92 38 92 36 91 C35.82984375 91.65484375 35.6596875 92.3096875 35.484375 92.984375 C34.68420473 95.99778217 33.84160411 98.99791435 33 102 C32.73316406 103.0415625 32.46632813 104.083125 32.19140625 105.15625 C30.02054849 112.79766931 27.45225016 116.49439188 21 121 C19.60095761 122.00566946 18.20258363 123.01226908 16.8046875 124.01953125 C1.00078433 135.33087744 1.00078433 135.33087744 -7.1875 134.6875 C-7.97817871 134.63408447 -8.76885742 134.58066895 -9.58349609 134.52563477 C-11.23060099 134.41393606 -12.87741719 134.29790334 -14.52392578 134.17773438 C-17.67522747 133.95153169 -20.82809935 133.75876406 -23.98168945 133.56762695 C-26.98822781 133.38509079 -29.99408342 133.19247695 -33 133 C-32.67 132.01 -32.34 131.02 -32 130 C-20.64969703 129.82715275 -20.64969703 129.82715275 -15.4375 130.5 C-14.35275391 130.61408203 -14.35275391 130.61408203 -13.24609375 130.73046875 C-11 131 -11 131 -8.59765625 131.48828125 C0.37241773 132.60785439 6.12129256 127.37649632 12.88671875 122.2109375 C13.56565186 121.67170654 14.24458496 121.13247559 14.9440918 120.5769043 C17 119 17 119 19.11254883 117.65161133 C27.15904372 112.38290394 29.84524766 104.449408 32.3125 95.4453125 C33.58188464 88.37753012 31.75333426 84.13839335 27.8125 78.3125 C24.77664453 73.98853614 21.52332162 69.86858052 18.18603516 65.77490234 C4.10121081 48.10224644 0 22.3259725 0 0 Z " fill="#000000" transform="translate(249,24)"/>
<path d="M0 0 C91.08 0 182.16 0 276 0 C276 2.64 276 5.28 276 8 C184.92 8 93.84 8 0 8 C0 5.36 0 2.72 0 0 Z " fill="#000000" transform="translate(236,433)"/>
<path d="M0 0 C29.37 0 58.74 0 89 0 C88 5 88 5 86 8 C83.21863025 8.28624875 80.66081207 8.37823168 77.87841797 8.34057617 C77.03931885 8.34101425 76.20021973 8.34145233 75.33569336 8.34190369 C72.55429035 8.3398089 69.77348557 8.31644563 66.9921875 8.29296875 C65.06690805 8.28737524 63.14162435 8.28310399 61.21633911 8.28010559 C56.14288597 8.26863749 51.06968946 8.23915346 45.99633789 8.20599365 C40.82181267 8.17533505 35.64724607 8.16160927 30.47265625 8.14648438 C20.31499125 8.11428561 10.15751695 8.06306559 0 8 C0 5.36 0 2.72 0 0 Z " fill="#000000" transform="translate(0,433)"/>
<path d="M0 0 C2.90058644 2.26608315 3.03793595 4.15174378 3.9375 7.75 C4.36988134 11.9951986 2.94229727 14.3735691 0.859375 17.96875 C-0.62846502 21.48546278 0.2161166 24.34187746 1 28 C-2 30 -2 30 -4.5625 29.875 C-7 29 -7 29 -8.3125 27.3125 C-10.03332061 21.52428523 -8.60656533 18.21313065 -6 13 C-5.74803177 9.74899636 -5.74803177 9.74899636 -6 7 C-7.65 7.66 -9.3 8.32 -11 9 C-10.67 10.65 -10.34 12.3 -10 14 C-12.31 14.66 -14.62 15.32 -17 16 C-17.69965443 14.73581754 -18.38434763 13.46334598 -19.0625 12.1875 C-19.44535156 11.47980469 -19.82820313 10.77210937 -20.22265625 10.04296875 C-21 8 -21 8 -20 5 C-18.2578125 3.6484375 -18.2578125 3.6484375 -16.125 2.375 C-15.07699219 1.73691406 -15.07699219 1.73691406 -14.0078125 1.0859375 C-9.23701497 -1.49437712 -5.15574031 -1.21198373 0 0 Z " fill="#000000" transform="translate(133,69)"/>
<path d="M0 0 C9.9 0 19.8 0 30 0 C30 2.64 30 5.28 30 8 C18.78 8 7.56 8 -4 8 C-2.68 5.36 -1.36 2.72 0 0 Z " fill="#000000" transform="translate(151,433)"/>
<path d="M0 0 C2.53515625 0.8984375 2.53515625 0.8984375 3.9765625 3.234375 C4.34652344 4.23726563 4.71648437 5.24015625 5.09765625 6.2734375 C5.505 7.35367188 5.91234375 8.43390625 6.33203125 9.546875 C6.7290625 10.65289062 7.12609375 11.75890625 7.53515625 12.8984375 C8.13070312 14.43371094 8.13070312 14.43371094 8.73828125 16 C11.53515625 23.30732835 11.53515625 23.30732835 11.53515625 27.8984375 C9.55515625 28.2284375 7.57515625 28.5584375 5.53515625 28.8984375 C3.6584037 25.18022481 1.81285041 21.44736096 -0.02734375 17.7109375 C-0.56037109 16.65583984 -1.09339844 15.60074219 -1.64257812 14.51367188 C-2.14208984 13.49208984 -2.64160156 12.47050781 -3.15625 11.41796875 C-3.85536499 10.01188354 -3.85536499 10.01188354 -4.56860352 8.57739258 C-5.59223624 5.51764814 -5.51535619 3.92662047 -4.46484375 0.8984375 C-2.46484375 -0.1015625 -2.46484375 -0.1015625 0 0 Z " fill="#000000" transform="translate(104.46484375,77.1015625)"/>
<path d="M0 0 C2.4375 0.375 2.4375 0.375 4.4375 2.375 C4.75 5.375 4.75 5.375 4.4375 8.375 C1.4375 10.375 1.4375 10.375 -1.125 10.3125 C-3.5625 9.375 -3.5625 9.375 -5.0625 7.0625 C-5.5625 4.375 -5.5625 4.375 -4.5 2.0625 C-2.5625 0.375 -2.5625 0.375 0 0 Z " fill="#000000" transform="translate(116.5625,106.625)"/>
<path d="M0 0 C0.99 0.103125 1.98 0.20625 3 0.3125 C5 3.3125 5 3.3125 4.6875 5.9375 C4 8.3125 4 8.3125 3 9.3125 C0.0625 9.5 0.0625 9.5 -3 9.3125 C-5 7.3125 -5 7.3125 -5.25 4.8125 C-4.86676958 0.9801958 -3.75087075 0.3907157 0 0 Z " fill="#000000" transform="translate(134,99.6875)"/>
</svg>
