<?xml version="1.0" encoding="UTF-8"?>
<svg version="1.1" xmlns="http://www.w3.org/2000/svg" width="512" height="512">
<path d="M0 0 C0.73531262 -0.00175304 1.47062525 -0.00350607 2.22822008 -0.00531223 C4.68151457 -0.00994815 7.13474918 -0.00751298 9.58804607 -0.00507832 C11.36902514 -0.0069475 13.1500038 -0.00924863 14.93098181 -0.01194364 C19.81715484 -0.01805471 24.70331074 -0.01792886 29.58948672 -0.01674926 C34.86227375 -0.01654508 40.1350553 -0.02206564 45.40783978 -0.02680683 C55.735 -0.03510999 66.06215451 -0.03786152 76.38931779 -0.03841921 C84.7838663 -0.0388945 93.17841293 -0.04094989 101.57296085 -0.04411983 C125.3757866 -0.05292525 149.17860783 -0.05753935 172.98143522 -0.05678936 C174.26440412 -0.0567494 175.54737303 -0.05670945 176.86921978 -0.05666828 C178.15375593 -0.0566274 179.43829209 -0.05658652 180.76175358 -0.0565444 C201.58250325 -0.05613789 222.40323484 -0.06570893 243.22397927 -0.07980665 C264.60525157 -0.09416962 285.98651506 -0.10107688 307.36779231 -0.10021287 C319.37070014 -0.09988089 331.37358901 -0.10262854 343.3764925 -0.11339092 C353.59519673 -0.12249484 363.81387341 -0.12467202 374.03257994 -0.1178815 C379.24502843 -0.11461585 384.45742405 -0.11456129 389.66986752 -0.12323475 C394.44486421 -0.13109852 399.2197661 -0.12966952 403.99476048 -0.12095062 C405.7187976 -0.11941538 407.44284179 -0.1212327 409.16687057 -0.12681069 C424.46378242 -0.17301077 437.90029612 0.87855986 450.6121397 10.37863445 C460.48336844 20.47942665 464.92495672 31.5071492 464.83308697 45.56003094 C464.84170254 46.64451519 464.85031811 47.72899944 464.85919476 48.84634686 C464.88172283 52.39772334 464.8751397 55.94830224 464.86604595 59.4997282 C464.8712873 61.98874932 464.87756565 64.47776844 464.88482952 66.96678448 C464.89520951 72.17065085 464.89070646 77.37424337 464.87605572 82.57809734 C464.85887166 89.22334549 464.88237267 95.86772863 464.91754532 102.51288033 C464.93957965 107.64926589 464.93806312 112.7854464 464.92978001 117.92186451 C464.92896381 120.37090345 464.93576316 122.81995794 464.95055103 125.26895237 C465.04052795 142.86511055 464.12851162 155.72731115 451.5262022 168.99582195 C443.44607886 176.68018415 433.91342246 180.28623364 422.90406227 180.26285553 C421.77762567 180.26638388 421.77762567 180.26638388 420.62843278 180.2699835 C418.09783575 180.2766704 415.56729011 180.27621537 413.03668499 180.27580547 C411.20966023 180.27910429 409.3826362 180.2828299 407.5556131 180.28694695 C402.52358738 180.29697306 397.49157359 180.30068473 392.45953929 180.30333626 C387.03671217 180.30723751 381.61389451 180.31681599 376.19107342 180.32554913 C363.08912655 180.34531878 349.98717891 180.35538046 336.88522086 180.36427692 C330.71669454 180.36865906 324.54816908 180.37402607 318.37964344 180.37926579 C297.87636875 180.39627869 277.37309459 180.41077309 256.86981392 180.41801453 C251.54816404 180.41992445 246.22651417 180.42184312 240.90486431 180.42380047 C240.24372405 180.42404062 239.58258379 180.42428077 238.90140898 180.4245282 C218.13658536 180.4321741 197.37181325 180.45384095 176.60701275 180.48532391 C153.27885991 180.52067793 129.9507444 180.54226906 106.6225639 180.54565877 C94.27080708 180.54782454 81.91913164 180.55658313 69.56739902 180.58211994 C59.04847717 180.60381711 48.52965646 180.61188217 38.01071476 180.60215316 C32.64431402 180.59760563 27.27812201 180.59952124 21.91174984 180.6189146 C16.99587458 180.6365264 12.08036064 180.63556449 7.16448165 180.62001731 C5.38917733 180.61763824 3.61384811 180.62198028 1.83858185 180.63384596 C-12.8566927 180.72595776 -24.75192885 178.41361981 -35.86051655 168.12863445 C-42.37580906 161.30888902 -47.79701531 152.20069244 -47.84753132 142.5519743 C-47.85468662 141.61294765 -47.86184193 140.67392101 -47.86921406 139.70643902 C-47.87190296 138.67787289 -47.87459187 137.64930676 -47.87736225 136.58957195 C-47.88393345 135.50464962 -47.89050465 134.41972729 -47.89727497 133.30192852 C-47.91702372 129.70249647 -47.92867647 126.10310626 -47.93864155 122.50363445 C-47.94271708 121.27343578 -47.9467926 120.04323711 -47.95099163 118.7757597 C-47.96971018 112.93182063 -47.98427116 107.08789798 -47.9926036 101.24393463 C-48.0013844 95.18666666 -48.02061737 89.12965028 -48.05704975 83.07248211 C-48.09555983 76.56562758 -48.11429895 70.0589997 -48.11880779 63.55203533 C-48.12366634 61.07703696 -48.13525927 58.60204193 -48.15384579 56.12710857 C-48.17831267 52.65209265 -48.17725749 49.17792971 -48.170331 45.7028532 C-48.18314106 44.69048092 -48.19595112 43.67810863 -48.20914936 42.6350584 C-48.12209299 30.5794237 -43.54346425 21.13955352 -35.7003603 12.12863445 C-25.97963675 2.54967146 -13.16352141 0.00711473 0 0 Z " fill="#287FB8" transform="translate(47.70036029815674,152.87136554718018)"/>
<path d="M0 0 C0.73531262 -0.00175304 1.47062525 -0.00350607 2.22822008 -0.00531223 C4.68151457 -0.00994815 7.13474918 -0.00751298 9.58804607 -0.00507832 C11.36902514 -0.0069475 13.1500038 -0.00924863 14.93098181 -0.01194364 C19.81715484 -0.01805471 24.70331074 -0.01792886 29.58948672 -0.01674926 C34.86227375 -0.01654508 40.1350553 -0.02206564 45.40783978 -0.02680683 C55.735 -0.03510999 66.06215451 -0.03786152 76.38931779 -0.03841921 C84.7838663 -0.0388945 93.17841293 -0.04094989 101.57296085 -0.04411983 C125.3757866 -0.05292525 149.17860783 -0.05753935 172.98143522 -0.05678936 C174.26440412 -0.0567494 175.54737303 -0.05670945 176.86921978 -0.05666828 C178.15375593 -0.0566274 179.43829209 -0.05658652 180.76175358 -0.0565444 C201.58250325 -0.05613789 222.40323484 -0.06570893 243.22397927 -0.07980665 C264.60525157 -0.09416962 285.98651506 -0.10107688 307.36779231 -0.10021287 C319.37070014 -0.09988089 331.37358901 -0.10262854 343.3764925 -0.11339092 C353.59519673 -0.12249484 363.81387341 -0.12467202 374.03257994 -0.1178815 C379.24502843 -0.11461585 384.45742405 -0.11456129 389.66986752 -0.12323475 C394.44486421 -0.13109852 399.2197661 -0.12966952 403.99476048 -0.12095062 C405.7187976 -0.11941538 407.44284179 -0.1212327 409.16687057 -0.12681069 C424.46378242 -0.17301077 437.90029612 0.87855986 450.6121397 10.37863445 C460.48336844 20.47942665 464.92495672 31.5071492 464.83308697 45.56003094 C464.84170254 46.64451519 464.85031811 47.72899944 464.85919476 48.84634686 C464.88172283 52.39772334 464.8751397 55.94830224 464.86604595 59.4997282 C464.8712873 61.98874932 464.87756565 64.47776844 464.88482952 66.96678448 C464.89520951 72.17065085 464.89070646 77.37424337 464.87605572 82.57809734 C464.85887166 89.22334549 464.88237267 95.86772863 464.91754532 102.51288033 C464.93957965 107.64926589 464.93806312 112.7854464 464.92978001 117.92186451 C464.92896381 120.37090345 464.93576316 122.81995794 464.95055103 125.26895237 C465.04052795 142.86511055 464.12851162 155.72731115 451.5262022 168.99582195 C443.44607886 176.68018415 433.91342246 180.28623364 422.90406227 180.26285553 C421.77762567 180.26638388 421.77762567 180.26638388 420.62843278 180.2699835 C418.09783575 180.2766704 415.56729011 180.27621537 413.03668499 180.27580547 C411.20966023 180.27910429 409.3826362 180.2828299 407.5556131 180.28694695 C402.52358738 180.29697306 397.49157359 180.30068473 392.45953929 180.30333626 C387.03671217 180.30723751 381.61389451 180.31681599 376.19107342 180.32554913 C363.08912655 180.34531878 349.98717891 180.35538046 336.88522086 180.36427692 C330.71669454 180.36865906 324.54816908 180.37402607 318.37964344 180.37926579 C297.87636875 180.39627869 277.37309459 180.41077309 256.86981392 180.41801453 C251.54816404 180.41992445 246.22651417 180.42184312 240.90486431 180.42380047 C240.24372405 180.42404062 239.58258379 180.42428077 238.90140898 180.4245282 C218.13658536 180.4321741 197.37181325 180.45384095 176.60701275 180.48532391 C153.27885991 180.52067793 129.9507444 180.54226906 106.6225639 180.54565877 C94.27080708 180.54782454 81.91913164 180.55658313 69.56739902 180.58211994 C59.04847717 180.60381711 48.52965646 180.61188217 38.01071476 180.60215316 C32.64431402 180.59760563 27.27812201 180.59952124 21.91174984 180.6189146 C16.99587458 180.6365264 12.08036064 180.63556449 7.16448165 180.62001731 C5.38917733 180.61763824 3.61384811 180.62198028 1.83858185 180.63384596 C-12.8566927 180.72595776 -24.75192885 178.41361981 -35.86051655 168.12863445 C-42.37580906 161.30888902 -47.79701531 152.20069244 -47.84753132 142.5519743 C-47.85468662 141.61294765 -47.86184193 140.67392101 -47.86921406 139.70643902 C-47.87190296 138.67787289 -47.87459187 137.64930676 -47.87736225 136.58957195 C-47.88393345 135.50464962 -47.89050465 134.41972729 -47.89727497 133.30192852 C-47.91702372 129.70249647 -47.92867647 126.10310626 -47.93864155 122.50363445 C-47.94271708 121.27343578 -47.9467926 120.04323711 -47.95099163 118.7757597 C-47.96971018 112.93182063 -47.98427116 107.08789798 -47.9926036 101.24393463 C-48.0013844 95.18666666 -48.02061737 89.12965028 -48.05704975 83.07248211 C-48.09555983 76.56562758 -48.11429895 70.0589997 -48.11880779 63.55203533 C-48.12366634 61.07703696 -48.13525927 58.60204193 -48.15384579 56.12710857 C-48.17831267 52.65209265 -48.17725749 49.17792971 -48.170331 45.7028532 C-48.18314106 44.69048092 -48.19595112 43.67810863 -48.20914936 42.6350584 C-48.12209299 30.5794237 -43.54346425 21.13955352 -35.7003603 12.12863445 C-25.97963675 2.54967146 -13.16352141 0.00711473 0 0 Z M-24.7003603 27.12863445 C-28.13597165 32.09226558 -30.8088404 36.22531959 -30.85426044 42.4083128 C-30.86286091 43.28147137 -30.87146137 44.15462994 -30.88032246 45.05424786 C-30.88458241 46.00957912 -30.88884235 46.96491039 -30.89323139 47.94919109 C-30.90140888 48.95769115 -30.90958637 49.96619122 -30.91801167 51.00525188 C-30.9428642 54.3497588 -30.95938416 57.69422317 -30.9737978 61.0387907 C-30.97912148 62.18197702 -30.98444515 63.32516335 -30.98993015 64.50299168 C-31.01666505 70.55747971 -31.03603623 76.61194714 -31.05045795 82.66647625 C-31.06378227 87.67056906 -31.09160732 92.67425267 -31.1324892 97.678195 C-31.18188855 103.72471139 -31.20658863 109.77085731 -31.21368504 115.81756687 C-31.22038567 118.11757161 -31.23557656 120.41756848 -31.25957584 122.71745777 C-31.29133672 125.94617748 -31.29124686 129.17347998 -31.28385639 132.40231609 C-31.30026173 133.34347775 -31.31666706 134.2846394 -31.33356953 135.2543211 C-31.26149727 142.99048396 -29.02050453 149.51541194 -23.72363567 155.27985001 C-17.93331821 160.72856106 -12.753211 163.32036899 -4.7003603 163.12863445 C-4.68634174 162.10092937 -4.68634174 162.10092937 -4.67203999 161.05246258 C-4.6179412 157.9104901 -4.53437206 154.76994378 -4.4503603 151.62863445 C-4.42909077 150.01215008 -4.42909077 150.01215008 -4.40739155 148.36300945 C-4.15801751 140.18354114 -2.72891571 134.9588663 2.4246397 128.44113445 C11.43375409 121.19467288 19.89155382 120.40517633 31.08894634 120.49371624 C32.68263195 120.48794812 34.27631089 120.48000237 35.86997604 120.47008002 C40.22926664 120.44927806 44.58800735 120.45949136 48.94729948 120.47501111 C53.65632598 120.48634805 58.3652595 120.4688503 63.07426739 120.4551115 C72.29128905 120.43289957 81.50810693 120.43767119 90.72513652 120.45217471 C98.21720185 120.46347498 105.70921014 120.46499443 113.20128155 120.45955563 C114.26832886 120.45878946 115.33537617 120.4580233 116.43475825 120.45723391 C118.60256761 120.45563526 120.77037696 120.45401419 122.93818629 120.45237096 C143.2570806 120.43811944 163.57586204 120.45449683 183.89473784 120.48137279 C201.32240487 120.503711 218.74990537 120.49983071 236.17756939 120.47677898 C256.42465328 120.45001046 276.6716383 120.43949268 296.91873741 120.4548403 C299.07849088 120.45643302 301.23824436 120.45800487 303.39799786 120.45955563 C304.46058742 120.460327 305.52317699 120.46109838 306.61796623 120.46189313 C314.09945685 120.46620697 321.58088465 120.45893039 329.06236553 120.44715786 C338.18208937 120.43312266 347.30159807 120.43695434 356.42129731 120.46356158 C361.07273811 120.47668596 365.72382045 120.48187566 370.37525845 120.46531582 C374.63654041 120.45037464 378.89713297 120.4586727 383.15835273 120.48520358 C384.69657268 120.49077095 386.23485133 120.48798734 387.77303326 120.47582464 C398.23530349 120.39946835 405.87042811 121.76165991 414.1746397 128.44113445 C420.13275248 135.97639473 420.9263104 142.2556075 421.0496397 151.62863445 C421.09411236 153.29152508 421.09411236 153.29152508 421.13948345 154.98800945 C421.20966309 157.70162197 421.26261582 160.41440126 421.2996397 163.12863445 C428.52228642 163.46408394 433.9985311 161.07253354 439.3933897 156.26144695 C446.10894029 148.94832619 447.74975844 142.54950426 447.71956158 132.85397625 C447.72803112 131.84489208 447.73650066 130.83580791 447.74522686 129.79614544 C447.76855073 126.47325174 447.76961998 123.15082244 447.7683897 119.8278532 C447.77549472 117.50768634 447.78319422 115.18752122 447.79146099 112.86735821 C447.80489575 108.00786739 447.80647932 103.14853901 447.80061626 98.28903484 C447.79472539 92.07843276 447.82529213 85.8686138 447.86573315 79.65816307 C447.89165369 74.86671572 447.89448349 70.07545574 447.89084148 65.28394794 C447.89252906 62.99512866 447.9021364 60.70630039 447.91998577 58.41755009 C447.94225774 55.2083346 447.93243026 52.00068891 447.91487408 48.79147625 C447.92813732 47.85659878 447.94140057 46.92172131 447.95506573 45.95851421 C447.85218169 37.81579243 445.09859937 31.51684879 439.9246397 25.25363445 C433.683463 20.20125331 428.1271883 17.97724962 420.09681702 17.99441338 C419.35455621 17.99206115 418.6122954 17.98970892 417.84754184 17.98728541 C415.34053721 17.98058635 412.8335843 17.9810539 410.32657146 17.98146343 C408.51889567 17.97816537 406.71122062 17.97443993 404.90354651 17.97032195 C399.92047746 17.96028728 394.93742045 17.9565828 389.95434272 17.95393264 C384.58608891 17.95003395 379.21784468 17.94045534 373.84959698 17.93171978 C360.87776501 17.91194336 347.90593225 17.9018878 334.93408898 17.89299199 C328.82893051 17.88861114 322.72377292 17.88324382 316.61861515 17.87800312 C296.32983391 17.8609899 276.04105321 17.84649492 255.75226593 17.83925438 C250.48542372 17.83734441 245.21858151 17.83542409 239.95173931 17.83346844 C238.64265441 17.8329847 237.33356952 17.83250096 235.98481538 17.83200256 C214.77047708 17.82369926 193.55619512 17.79835769 172.34188143 17.76588776 C150.5731878 17.7328403 128.80452283 17.71480772 107.03580397 17.71161014 C94.8087653 17.70944293 82.58180877 17.70066343 70.3547945 17.67514896 C59.9433599 17.6534736 49.53202739 17.64537597 39.12057278 17.65511575 C33.80720688 17.65966957 28.49405178 17.65771131 23.18071461 17.6383543 C18.31676679 17.62078727 13.45318459 17.62166777 8.58923324 17.63725159 C6.82943006 17.6396375 5.06960199 17.63525342 3.30983696 17.62342294 C-8.08278513 17.55157589 -16.79526545 17.72798112 -24.7003603 27.12863445 Z " fill="#000203" transform="translate(47.70036029815674,152.87136554718018)"/>
<path d="M0 0 C2.69990662 1.79993774 4.5418865 3.083773 6 6 C6.12272611 8.83684446 6.18574561 11.65071994 6.20532227 14.48876953 C6.21522186 15.36688293 6.22512146 16.24499634 6.23532104 17.14971924 C6.26698274 20.06072262 6.29171191 22.97174235 6.31640625 25.8828125 C6.33697175 27.89778067 6.35796811 29.91274449 6.37937927 31.92770386 C6.43464171 37.23773681 6.48403257 42.54780897 6.53222656 47.85791016 C6.58241115 53.27379862 6.63811308 58.68962997 6.69335938 64.10546875 C6.80099197 74.73693041 6.9024256 85.3684416 7 96 C7.4940332 95.49549316 7.98806641 94.99098633 8.49707031 94.47119141 C10.74276467 92.18387109 12.99626015 89.90439218 15.25 87.625 C16.02730469 86.8309375 16.80460937 86.036875 17.60546875 85.21875 C18.35957031 84.45820313 19.11367188 83.69765625 19.890625 82.9140625 C20.58188477 82.2123291 21.27314453 81.5105957 21.98535156 80.78759766 C24.94624571 78.16039614 27.04865955 77.07927837 31 76.75 C33.98440917 76.99870076 35.5803583 77.2716845 38 79 C39.59177021 81.2284783 40.01314313 83.06425528 40.5625 85.75 C39.94597466 89.31214644 39.28244125 90.1302777 36.92700195 92.73266602 C35.97164047 93.78866501 35.97164047 93.78866501 34.99697876 94.86599731 C31.92586504 98.14783739 28.78862858 101.35432017 25.60546875 104.52734375 C24.93203934 105.20172989 24.25860992 105.87611603 23.56477356 106.57093811 C22.1567956 107.97959068 20.74757776 109.38700499 19.3371582 110.79321289 C17.17216396 112.95279773 15.01262744 115.11773882 12.85351562 117.28320312 C11.47948763 118.6565712 10.10514994 120.02962951 8.73046875 121.40234375 C8.08466354 122.05017319 7.43885834 122.69800262 6.77348328 123.36546326 C5.87663567 124.25758263 5.87663567 124.25758263 4.96166992 125.16772461 C4.1739344 125.95426674 4.1739344 125.95426674 3.37028503 126.75669861 C1.40681856 128.53821161 -0.005867 129.00111752 -2.625 129.5 C-6.3247458 128.95188951 -7.0662819 128.35991733 -9.74047852 125.9309082 C-10.44334991 125.29343658 -11.14622131 124.65596497 -11.87039185 123.99917603 C-15.14683121 120.92340877 -18.35482177 117.78812537 -21.52734375 114.60546875 C-22.53892296 113.59532463 -22.53892296 113.59532463 -23.57093811 112.56477356 C-24.97959068 111.1567956 -26.38700499 109.74757776 -27.79321289 108.3371582 C-29.95279773 106.17216396 -32.11773882 104.01262744 -34.28320312 101.85351562 C-35.6565712 100.47948763 -37.02962951 99.10514994 -38.40234375 97.73046875 C-39.37408791 96.76176094 -39.37408791 96.76176094 -40.36546326 95.77348328 C-41.25758263 94.87663567 -41.25758263 94.87663567 -42.16772461 93.96166992 C-42.69208603 93.43651291 -43.21644745 92.9113559 -43.75669861 92.37028503 C-45.70378391 90.22433566 -45.99604051 89.06071212 -46.1875 86.125 C-46.00235491 83.03924846 -45.77840309 81.48976433 -44 79 C-40.7677285 76.69123464 -37.89035463 76.53315744 -34 77 C-28.56480044 80.09460784 -24.4693017 84.29624884 -20.125 88.75 C-19.43664062 89.44738281 -18.74828125 90.14476562 -18.0390625 90.86328125 C-16.35470418 92.57103343 -14.67522383 94.28329443 -13 96 C-12.99635437 94.8835762 -12.99270874 93.7671524 -12.98895264 92.61689758 C-12.95201326 82.09623714 -12.89425207 71.57586969 -12.81609726 61.05543232 C-12.77658616 55.64672442 -12.74441544 50.23818022 -12.72900391 44.8293457 C-12.71386136 39.60960272 -12.67945829 34.39030966 -12.63169098 29.17076683 C-12.61685242 27.17931211 -12.60895757 25.18779316 -12.60811615 23.19628334 C-12.6057522 20.40681602 -12.57871881 17.61859789 -12.54589844 14.8293457 C-12.55344398 13.59396057 -12.55344398 13.59396057 -12.56114197 12.33361816 C-12.48886731 8.36400494 -12.28136163 6.44056136 -10.09088135 3.01066589 C-6.75662595 -0.19567272 -4.58264522 -0.44927894 0 0 Z " fill="#000000" transform="translate(259,358)"/>
<path d="M0 0 C5.28149453 3.18930829 6.91725606 7.49994052 9.25 12.9375 C17.56232379 31.33973566 29.38954436 47.10409305 48 56 C46.92698213 52.45904103 45.63906715 49.12917671 44.0546875 45.79296875 C43.52294922 44.6647168 43.52294922 44.6647168 42.98046875 43.51367188 C42.24657499 41.96938306 41.5018371 40.43019882 40.74609375 38.89648438 C38.27496841 33.58763818 37.08347493 28.87319585 38 23 C40.01385876 19.90175575 41.38347812 19.20103974 44.875 18.0625 C48.95466328 17.98090673 50.59812234 18.70901617 54 21 C55.95910348 23.92696538 57.29355872 27.07153244 58.671875 30.3046875 C59.28461273 31.67888351 59.28461273 31.67888351 59.909729 33.08084106 C61.20815422 36.00452189 62.47916696 38.93923612 63.75 41.875 C64.61933479 43.84322576 65.49041017 45.81068371 66.36328125 47.77734375 C75.30606389 67.99198702 75.30606389 67.99198702 75.5 72 C75.5515625 72.639375 75.603125 73.27875 75.65625 73.9375 C74.39781859 77.89257013 70.44784767 80.20753894 66.93411255 82.1307373 C64.56506493 83.26617565 62.17671379 84.33846572 59.76953125 85.390625 C58.89729416 85.7807074 58.02505707 86.17078979 57.12638855 86.57269287 C54.35902073 87.80752219 51.58587849 89.02873993 48.8125 90.25 C46.93777086 91.08508453 45.06341775 91.92101377 43.18945312 92.7578125 C39.76756249 94.2813288 36.34508306 95.80340258 32.91723633 97.31347656 C32.23139969 97.61594299 31.54556305 97.91840942 30.83894348 98.2300415 C26.56448684 100.0197399 22.59695519 100.64876384 18 100 C14.65761962 97.85744848 14.10832046 96.39717502 13.0625 92.5625 C12.98825978 88.33080758 13.34472868 87.25964278 16 84 C19.0164671 82.14183828 22.19654455 80.73329227 25.4375 79.3125 C26.29666016 78.92255859 27.15582031 78.53261719 28.04101562 78.13085938 C29.64064789 77.40488197 31.24314023 76.68514892 32.84936523 75.97387695 C34.92773816 75.0327225 36.96643733 74.03393186 39 73 C38.27296875 72.61070312 37.5459375 72.22140625 36.796875 71.8203125 C14.25988812 59.28050185 -3.58513097 37.55415629 -12 13 C-12.53205128 5.41826923 -12.53205128 5.41826923 -10 2 C-6.77706714 -0.3020949 -3.88003676 -0.47510654 0 0 Z " fill="#000000" transform="translate(353,358)"/>
<path d="M0 0 C2.69990662 1.79993774 4.5418865 3.083773 6 6 C6.61524824 12.27233593 4.89005975 16.45244642 2.1875 21.9375 C1.5850647 23.17886719 1.5850647 23.17886719 0.97045898 24.4453125 C-9.35099446 45.0921717 -24.12706198 62.51082155 -45 73 C-44.02160156 73.44730469 -43.04320312 73.89460938 -42.03515625 74.35546875 C-30.18622358 79.8029237 -30.18622358 79.8029237 -24.6875 82.6875 C-23.67236328 83.21923828 -23.67236328 83.21923828 -22.63671875 83.76171875 C-20.59551258 85.30602031 -19.8784657 86.60787034 -19 89 C-19.13529482 92.78825503 -19.50759021 95.23184073 -21.5625 98.4375 C-24.99044352 100.63489969 -28.07951906 100.49350175 -32 100 C-35.3084909 99.00658445 -38.39857941 97.63383026 -41.5390625 96.203125 C-42.86579483 95.61806183 -42.86579483 95.61806183 -44.21932983 95.0211792 C-46.0796386 94.19747337 -47.93683661 93.36670967 -49.79101562 92.52929688 C-52.61690731 91.25365314 -55.45178796 90.00009117 -58.2890625 88.75 C-60.10212978 87.94398317 -61.91464913 87.13673246 -63.7265625 86.328125 C-64.5673233 85.95504211 -65.40808411 85.58195923 -66.27432251 85.1975708 C-71.6971979 82.74013171 -76.74355471 80.25644529 -81 76 C-81.6939519 69.24098329 -79.98061391 64.55769076 -77.203125 58.4609375 C-76.81308289 57.57644928 -76.42304077 56.69196106 -76.0211792 55.78067017 C-75.19747337 53.9203614 -74.36670967 52.06316339 -73.52929688 50.20898438 C-72.25365314 47.38309269 -71.00009117 44.54821204 -69.75 41.7109375 C-68.94398317 39.89787022 -68.13673246 38.08535087 -67.328125 36.2734375 C-66.95504211 35.4326767 -66.58195923 34.59191589 -66.1975708 33.72567749 C-63.74013171 28.3028021 -61.25644529 23.25644529 -57 19 C-52.16058232 18.44465699 -50.08644286 18.27570476 -46 21 C-43.45846624 24.81230064 -43.25930448 27.59775304 -44 32 C-45.54491329 36.30949497 -47.49747185 40.38669893 -49.5 44.5 C-50.02464844 45.60859375 -50.54929687 46.7171875 -51.08984375 47.859375 C-52.37967708 50.57975075 -53.68322564 53.29258967 -55 56 C-32.63961777 45.2349956 -21.42717723 27.21532581 -11.38671875 5.35546875 C-8.56188131 0.55722374 -5.48168626 -0.78309804 0 0 Z " fill="#000000" transform="translate(165,358)"/>
<path d="M0 0 C2.24674446 2.5245415 2.94194254 3.54521653 3.375 6.9375 C2.9543466 10.37283613 2.05181308 12.23794392 0 15 C-3.23274209 16.61637105 -6.49603425 16.46139562 -10 16 C-12.83014269 14.92231754 -15.3433097 13.42682941 -17.9375 11.875 C-49.35150892 -5.73635552 -85.5431525 -7.77279071 -119.91796875 1.4453125 C-129.98438499 4.3610489 -139.41757686 9.00390615 -148.5625 14.0625 C-152.57990525 16.1129058 -155.70380127 16.54727167 -160.1484375 15.70703125 C-162 15 -162 15 -164.0625 12.8125 C-165.15158379 9.54524863 -165.49872011 7.41979504 -165 4 C-161.84404784 -1.01336151 -157.68244637 -3.23893641 -152.5625 -5.875 C-151.72847656 -6.30699707 -150.89445313 -6.73899414 -150.03515625 -7.18408203 C-104.6938256 -29.91378555 -42.37426844 -30.1468676 0 0 Z " fill="#000000" transform="translate(337,48)"/>
<path d="M0 0 C28.38 0 56.76 0 86 0 C86 8.58 86 17.16 86 26 C57.62 26 29.24 26 0 26 C0 17.42 0 8.84 0 0 Z " fill="#003C5B" transform="translate(264,290)"/>
<path d="M0 0 C28.38 0 56.76 0 86 0 C86 8.58 86 17.16 86 26 C57.62 26 29.24 26 0 26 C0 17.42 0 8.84 0 0 Z " fill="#003C5B" transform="translate(162,290)"/>
<path d="M0 0 C0.7300827 0.01797638 1.46016541 0.03595276 2.21237183 0.05447388 C2.9933876 0.05374374 3.77440338 0.05301361 4.5790863 0.05226135 C7.14986644 0.05573325 9.71881422 0.0945727 12.28927612 0.13381958 C14.07573965 0.14314919 15.86221599 0.15026461 17.6486969 0.15525818 C22.34258565 0.17431645 27.03569644 0.22340688 31.72927856 0.27877808 C36.52195716 0.32999599 41.3147619 0.35277763 46.1076355 0.37796021 C55.50581814 0.43152729 64.90321999 0.51945331 74.30099487 0.62210083 C74.30099487 9.20210083 74.30099487 17.78210083 74.30099487 26.62210083 C46.25099487 26.62210083 18.20099487 26.62210083 -10.69900513 26.62210083 C-10.69900513 0.10814278 -10.69900513 0.10814278 0 0 Z " fill="#003C5B" transform="translate(70.69900512695313,289.3778991699219)"/>
<path d="M0 0 C10.21395914 -0.06779407 20.42776869 -0.12282668 30.64190197 -0.15543652 C35.38480683 -0.1710881 40.1275497 -0.19231715 44.87036133 -0.22631836 C49.44800215 -0.25892985 54.02548721 -0.27685684 58.60323524 -0.28463173 C60.34913904 -0.29017202 62.09503438 -0.30099089 63.84087181 -0.31719017 C66.28757482 -0.33898842 68.73363533 -0.34196595 71.18041992 -0.34057617 C71.90115189 -0.351362 72.62188385 -0.36214783 73.36445618 -0.3732605 C77.74593708 -0.34635546 80.51578964 0.30555458 84 3 C87.43187671 9.86375343 85 18.32609038 85 26 C56.95 26 28.9 26 0 26 C0 17.42 0 8.84 0 0 Z " fill="#003C5B" transform="translate(367,290)"/>
<path d="M0 0 C2.39609046 2.6894893 2.96784124 3.77890854 3.5 7.4375 C3 11 3 11 1 13.9375 C-2.73287702 16.50385295 -5.64268156 16.50078903 -10 16 C-13.5 14.828125 -13.5 14.828125 -17 13.25 C-43.89310043 1.68428963 -71.41081236 2.92653943 -98.28125 13.4765625 C-100.23583576 14.25999277 -102.11601919 15.0580096 -104 16 C-111.24087591 16.58394161 -111.24087591 16.58394161 -114.4375 14.125 C-117.04191134 10.58300058 -117.43241556 8.41063875 -117 4 C-113.82178446 -1.3627033 -109.45023394 -2.93928093 -103.875 -5.0625 C-102.55387207 -5.57792358 -102.55387207 -5.57792358 -101.20605469 -6.10375977 C-70.80579208 -17.56503945 -28.00943464 -19.30459978 0 0 Z " fill="#000000" transform="translate(313,82)"/>
<path d="M0 0 C0.66773438 0.14824219 1.33546875 0.29648438 2.0234375 0.44921875 C6.9298792 1.74679011 9.86590238 3.77154976 13.375 7.3125 C14.40987316 10.11461808 14.13307019 12.44224952 13.375 15.3125 C11.375 18.3125 11.375 18.3125 8.375 20.3125 C3.44280258 21.00473823 -0.13917837 20.20185247 -4.875 18.8125 C-16.61647585 15.68342649 -29.54876318 16.22313856 -41.14453125 19.625 C-44.9393169 20.67678311 -47.7055591 20.86259697 -51.625 20.3125 C-54.61528679 18.31897547 -56.20309415 16.90994505 -57.13671875 13.375 C-57.46058239 9.575 -57.46058239 9.575 -56.625 7.3125 C-52.58712605 3.23797364 -48.87469801 1.24872639 -43.25 0 C-42.528125 -0.16242188 -41.80625 -0.32484375 -41.0625 -0.4921875 C-27.71251701 -3.14878947 -13.27645203 -2.98720171 0 0 Z " fill="#000000" transform="translate(277.625,112.6875)"/>
<path d="M0 0 C1.22404541 -0.00004028 2.44809082 -0.00008057 3.70922852 -0.00012207 C6.2948114 0.00523469 8.88039378 0.02282367 11.46582031 0.05175781 C15.42303235 0.09359703 19.37854167 0.09282677 23.3359375 0.0859375 C25.84897016 0.0964305 28.36199405 0.10936918 30.875 0.125 C32.05843994 0.12520142 33.24187988 0.12540283 34.46118164 0.12561035 C36.11815063 0.14947815 36.11815063 0.14947815 37.80859375 0.17382812 C38.77724365 0.18224731 39.74589355 0.1906665 40.74389648 0.19934082 C44.88028173 0.8050084 47.52127735 2.67752735 50.4375 5.59375 C50.97117984 9.63446876 50.93560889 11.81268916 48.72265625 15.28271484 C44.36752267 19.31326482 37.98546522 18.30356901 32.4375 18.2578125 C31.1690625 18.26259613 29.900625 18.26737976 28.59375 18.27230835 C25.91319176 18.27570934 23.23491858 18.26902278 20.5546875 18.24560547 C17.12774145 18.21711542 13.70275319 18.23352701 10.27587891 18.26346779 C6.99635007 18.28593044 3.71705444 18.27018061 0.4375 18.2578125 C-0.7896875 18.26793365 -2.016875 18.27805481 -3.28125 18.28848267 C-12.74007972 18.15824734 -12.74007972 18.15824734 -15.8359375 15.27099609 C-18.13736045 11.70235864 -18.30703285 9.76313396 -17.5625 5.59375 C-13.20172665 -1.0736685 -7.2014176 -0.09976775 0 0 Z " fill="#000101" transform="translate(239.5625,238.40625)"/>
<path d="M0 0 C0.66 0.33 1.32 0.66 2 1 C-1.96 4.96 -5.92 8.92 -10 13 C-10 8.97698923 -8.67577112 7.95743123 -6 5 C-4.05056443 3.25501743 -2.04941287 1.63021478 0 0 Z " fill="#0B2434" transform="translate(18,160)"/>
</svg>
