<svg xmlns="http://www.w3.org/2000/svg" viewBox="0 0 24 24" width="24" height="24">
    <path fill="none" stroke="currentColor" stroke-width="2" d="M2.5,19 L21.5,19 L21.5,19 C21.7761424,19 22,18.7761424 22,18.5 L22,14.5 C22,14.2238576 21.7761424,14 21.5,14 L16.5,14 L16.5,14 C16.2238576,14 16,13.7761424 16,13.5 L16,9.5 L11,11 L11,6 L14,4 L10,2 L6,4 L9,6 L9,11 L4,9.5 L4,13.5 C4,13.7761424 3.77614237,14 3.5,14 L3.5,14 L2.5,14 L2.5,18.5 C2.5,18.7761424 2.72385763,19 3,19 L3,19 L2.5,19 Z" />
</svg>
