<svg id="Layer_1" enable-background="new 0 0 512 512" viewBox="0 0 512 512" xmlns="http://www.w3.org/2000/svg"><g clip-rule="evenodd" fill-rule="evenodd"><g><path d="m155.696 168.889c4.936 7.04 10.742 13.427 17.261 19.003l-46.933 46.006-17.868-18.414z" fill="#a79ba7"/><path d="m164.743 183.775c.923 3.027 2.643 5.328 5.109 6.851l-46.623 46.317-5.71-6.256z" fill="#837683"/><path d="m66.591 293.613-20.165-20.782c-3.542-3.65-3.452-9.532.197-13.074l55.852-54.197c3.649-3.542 9.534-3.453 13.075.196l20.165 20.781c3.541 3.649 3.453 9.534-.197 13.074l-55.852 54.196c-3.65 3.543-9.533 3.456-13.075-.194z" fill="#f1ba84"/><path d="m135.766 231.354-55.853 54.196c-3.65 3.541-9.532 3.453-13.074-.196l-20.166-20.781c-.745-.768-1.33-1.635-1.754-2.558-1.848 3.453-1.359 7.866 1.505 10.817l20.166 20.781c3.542 3.65 9.424 3.737 13.074.196l55.852-54.196c2.882-2.796 3.543-7.052 1.952-10.516-.436.817-1.004 1.58-1.702 2.257z" fill="#e3a76f"/><ellipse cx="231.911" cy="117.689" fill="#8ac9fe" rx="101.705" ry="101.705" transform="matrix(.707 -.707 .707 .707 -15.293 198.456)"/><path d="m231.911 15.984c56.17 0 101.705 45.535 101.705 101.705s-45.535 101.705-101.705 101.705c-1.656 0-3.301-.043-4.937-.121 53.876-2.576 96.768-47.07 96.768-101.584 0-54.515-42.892-99.008-96.768-101.584 1.636-.078 3.282-.121 4.937-.121z" fill="#60b7ff"/><ellipse cx="231.911" cy="117.689" fill="#eceff1" rx="77.235" ry="77.235" transform="matrix(.493 -.87 .87 .493 15.236 261.513)"/><path d="m231.911 40.454c1.755 0 3.495.065 5.221.18-40.22 2.685-72.014 36.155-72.014 77.056 0 40.9 31.794 74.369 72.014 77.055-1.726.115-3.466.18-5.221.18-42.656 0-77.235-34.579-77.235-77.235 0-42.657 34.579-77.236 77.235-77.236z" fill="#d1d1d6"/></g><g><circle cx="231.864" cy="117.873" fill="#ffc338" r="50.865"/><path d="m231.864 67.008c28.092 0 50.865 22.773 50.865 50.865s-22.773 50.865-50.865 50.865c-1.381 0-2.749-.057-4.102-.165 26.173-2.089 46.763-23.989 46.763-50.7s-20.589-48.611-46.763-50.7c1.353-.108 2.721-.165 4.102-.165z" fill="#f5b829"/><path d="m254.214 99.328c1.708 4.073-.208 8.76-4.281 10.469-4.073 1.708-8.76-.208-10.469-4.281-1.017-2.422-2.943-3.819-5.056-4.355-1.476-.374-3.004-.4-4.414-.116-1.315.265-2.504.783-3.408 1.518-.876.713-1.433 1.728-1.373 2.972.046.955.591 1.641 1.352 2.137 1.689 1.103 4.197 1.745 6.628 2.144 4.341.713 9.107 1.919 13.187 4.382 5.012 3.026 8.795 7.596 9.651 14.646.058.482.097 1.124.116 1.918.157 6.568-2.819 11.448-7.294 14.843-2.639 2.002-5.777 3.398-8.988 4.245v.211c0 4.418-3.582 8-8 8s-8-3.582-8-8v-.381c-2.43-.718-4.738-1.77-6.816-3.154-4.423-2.945-7.813-7.299-9.251-13.063-1.053-4.28 1.564-8.604 5.844-9.656 4.28-1.053 8.604 1.564 9.656 5.844.386 1.55 1.327 2.74 2.563 3.563 1.771 1.18 4.093 1.741 6.481 1.684.344-.008.853-.053 1.528-.135 2.059-.25 4.049-.854 5.357-1.846.599-.455.999-1.05.982-1.781v-.031c-.001-.05-.017-.077-.054-.387-.156-1.287-.955-2.187-2.026-2.833-2.003-1.209-4.822-1.88-7.5-2.319-4.238-.696-8.872-1.985-12.753-4.518-4.809-3.139-8.264-7.797-8.602-14.762-.332-6.842 2.609-12.325 7.248-16.097 2.14-1.74 4.648-3.078 7.342-3.971v-.53c0-4.418 3.582-8 8-8s8 3.582 8 8v.43c6.041 1.953 11.417 6.225 14.35 13.21z" fill="#ffe177"/></g><g><path d="m199.68 373.996h276.125c2.2 0 4 1.8 4 4v12.004c0 2.2-1.8 4-4 4h-276.125c-2.2 0-4-1.8-4-4v-12.004c0-2.2 1.799-4 4-4z" fill="#a79ba7"/><path d="m469.805 373.996h6c2.2 0 4 1.8 4 4v12.004c0 2.2-1.8 4-4 4h-276.125c-2.2 0-4-1.8-4-4v-6h270.125c2.2 0 4-1.8 4-4z" fill="#837683"/><path d="m220.015 291.804h25.855c3.242 0 5.886 2.644 5.886 5.886v60.414c0 3.242-2.644 5.887-5.886 5.887h-25.855c-3.242 0-5.886-2.645-5.886-5.887v-60.414c0-3.242 2.644-5.886 5.886-5.886z" fill="#fe646f"/><path d="m236.059 291.804h9.811c3.242 0 5.886 2.644 5.886 5.886v60.414c0 3.242-2.644 5.887-5.886 5.887h-9.811c3.242 0 5.886-2.644 5.886-5.887v-60.414c0-3.242-2.644-5.886-5.886-5.886z" fill="#fd4755"/><path d="m315.74 253.983c-8.618 0-17.237 0-25.856 0-3.242 0-5.887 2.644-5.886 5.886v98.236c0 3.242 2.644 5.886 5.886 5.886h25.856c3.242 0 5.886-2.644 5.886-5.886 0-34.759 0-63.478 0-98.236 0-3.242-2.644-5.886-5.886-5.886z" fill="#ffe177"/><path d="m315.74 253.983h-9.811c3.242 0 5.886 2.645 5.886 5.886v98.236c0 3.242-2.644 5.887-5.886 5.887h9.811c3.242 0 5.886-2.644 5.886-5.887 0-34.758 0-63.478 0-98.236 0-3.242-2.644-5.886-5.886-5.886z" fill="#ffd064"/><path d="m385.609 214.49h-25.855c-3.242 0-5.886 2.644-5.886 5.886v137.729c0 3.242 2.644 5.886 5.886 5.886h25.855c3.242 0 5.886-2.644 5.886-5.886v-137.729c0-3.242-2.644-5.886-5.886-5.886z" fill="#6cf5c2"/><path d="m385.609 214.489h-9.811c3.242 0 5.886 2.644 5.886 5.886v137.729c0 3.242-2.644 5.886-5.886 5.886h9.811c3.242 0 5.886-2.644 5.886-5.886v-137.728c0-3.242-2.644-5.887-5.886-5.887z" fill="#00e499"/><path d="m429.621 178.962h25.855c3.242 0 5.886 2.645 5.886 5.887v173.256c0 3.242-2.644 5.887-5.886 5.887h-25.855c-3.242 0-5.886-2.644-5.886-5.887v-173.257c-.001-3.242 2.643-5.886 5.886-5.886z" fill="#8ac9fe"/><path d="m445.665 178.962h9.811c3.242 0 5.886 2.644 5.886 5.887v173.256c0 3.242-2.644 5.887-5.886 5.887h-9.811c3.242 0 5.886-2.644 5.886-5.887v-173.257c0-3.242-2.644-5.886-5.886-5.886z" fill="#60b7ff"/><path d="m212.787 263.702c-4.159 1.45-8.706-.747-10.156-4.906s.747-8.706 4.906-10.156c40.846-14.225 82.924-32.502 124.564-56.235 36.386-20.738 72.451-45.663 107.081-75.713l-7.507.408c-4.401.224-8.151-3.162-8.375-7.562-.224-4.401 3.162-8.151 7.562-8.375l30.093-1.634c4.401-.224 8.151 3.162 8.375 7.563.027.521.002 1.033-.068 1.53l.006.001-4.342 29.823c-.621 4.366-4.665 7.402-9.031 6.781s-7.402-4.665-6.781-9.031l1.164-7.992c-35.633 30.996-72.789 56.697-110.301 78.077-42.524 24.235-85.488 42.898-127.19 57.421z" fill="#a79ba7"/></g><g><path d="m65.405 385.27 76.397-44.262c14.338-8.307 28.917-14.197 44.676-9.085 17.571 5.698 46.262 17.933 75.522 23.211 10.861 3.521 17.632 14.397 14.677 25.423-2.955 11.028-12.274 16.715-25.423 14.681l10.228 1.637c11.721 1.875 22.485.27 32.743-5.704l73.452-42.782c57.096-33.253 65.482 17.905 46.498 29.592l-133.295 82.08c-12.259 7.547-25.674 9.309-39.581 5.581l-96.684-25.907-35.806 20.672c-6.884 3.974-15.741 1.602-19.716-5.283l-28.954-50.15c-3.97-6.877-1.606-15.722 5.266-19.704z" fill="#f6dccd"/><path d="m274.935 385.133c-4.083 7.979-12.495 11.836-23.68 10.106-15.837-4.188-31.657-8.482-47.481-12.722-4.238-1.136-6.754-5.492-5.618-9.731 1.136-4.238 5.492-6.754 9.731-5.618z" fill="#f1cbbc"/><path d="m65.404 385.27 76.397-44.261c14.338-8.307 28.917-14.197 44.676-9.085 9.4 3.048 21.984 7.968 36.135 12.692l-147.99 85.443-14.482-25.084c-3.971-6.877-1.608-15.723 5.264-19.705z" fill="#f1cbbc"/><path d="m73.022 361.164 60.589 107.056c2.93 5.176 1.091 11.808-4.085 14.738l-20.609 11.664c-5.176 2.93-11.809 1.091-14.738-4.085l-60.59-107.057c-2.929-5.176-1.091-11.809 4.085-14.738l20.609-11.663c5.177-2.93 11.809-1.092 14.739 4.085z" fill="#d1d1d6"/><path d="m104.888 434.718 10.724 18.949 10.604 18.738c2.924 5.166 1.099 11.781-4.053 14.72l7.362-4.166c5.176-2.93 7.015-9.562 4.085-14.738l-10.64-18.801-21.366-37.751-21.39-37.794-7.193-12.709c-2.538-4.484-7.854-6.462-12.596-5.007l12.454 22.004 21.366 37.751 10.64 18.801z" fill="#b1b1b5"/><path d="m59.171 377.161c-4.021.588-6.804 4.324-6.216 8.345s4.324 6.804 8.345 6.216 6.804-4.324 6.216-8.345c-.587-4.02-4.324-6.803-8.345-6.216z" fill="#685e68"/></g></g></svg>