<svg xmlns="http://www.w3.org/2000/svg" width="20" height="21" viewBox="0 0 20 21" fill="none">
  <g clip-path="url(#clip0_490_12878)">
    <path d="M11.6673 6.77598H3.88954C3.7422 6.77598 3.60089 6.71744 3.4967 6.61326C3.39252 6.50907 3.33398 6.36776 3.33398 6.22042V3.9982C3.33398 3.85086 3.39252 3.70955 3.4967 3.60536C3.60089 3.50117 3.7422 3.44264 3.88954 3.44264H11.6673C11.8147 3.44264 11.956 3.50117 12.0602 3.60536C12.1643 3.70955 12.2229 3.85086 12.2229 3.9982V6.22042C12.2229 6.36776 12.1643 6.50907 12.0602 6.61326C11.956 6.71744 11.8147 6.77598 11.6673 6.77598ZM4.4451 5.66486H11.1118V4.52042H4.4451V5.66486Z" fill="white"/>
    <path d="M11.6673 7.93153H3.88954C3.7422 7.93153 3.60089 7.99007 3.4967 8.09425C3.39252 8.19844 3.33398 8.33975 3.33398 8.48709V10.6649C3.33398 10.8122 3.39252 10.9535 3.4967 11.0577C3.60089 11.1619 3.7422 11.2204 3.88954 11.2204H10.2007L12.2229 9.16487V8.48709C12.2229 8.33975 12.1643 8.19844 12.0602 8.09425C11.956 7.99007 11.8147 7.93153 11.6673 7.93153ZM11.1118 10.1093H4.4451V8.9982H11.1118V10.1093Z" fill="white"/>
    <path d="M6.14466 17.6149V17.5815L6.32244 16.8093H2.22244V2.33154H13.3336V8.02598L14.4447 6.97598V1.77598C14.4447 1.62864 14.3861 1.48733 14.2819 1.38315C14.1778 1.27896 14.0365 1.22043 13.8891 1.22043H1.66688C1.51954 1.22043 1.37823 1.27896 1.27405 1.38315C1.16986 1.48733 1.11133 1.62864 1.11133 1.77598V17.3315C1.11133 17.4789 1.16986 17.6202 1.27405 17.7244C1.37823 17.8286 1.51954 17.8871 1.66688 17.8871H6.11133C6.11591 17.7957 6.12705 17.7047 6.14466 17.6149Z" fill="white"/>
    <path d="M12.2224 10.7593L11.7891 11.1982C11.8966 11.176 11.9951 11.1225 12.0722 11.0444C12.1494 10.9663 12.2016 10.8671 12.2224 10.7593Z" fill="white"/>
    <path d="M3.33398 15.076C3.33398 15.2233 3.39252 15.3646 3.4967 15.4688C3.60089 15.573 3.7422 15.6315 3.88954 15.6315H6.57843L6.7451 14.9093L6.81732 14.6037V14.576H4.4451V13.4426H7.96732L9.07843 12.3315H3.88954C3.7422 12.3315 3.60089 12.3901 3.4967 12.4942C3.39252 12.5984 3.33398 12.7397 3.33398 12.8871V15.076Z" fill="white"/>
    <path d="M18.6064 9.37042L16.7342 7.4982C16.6511 7.41488 16.5524 7.34878 16.4437 7.30367C16.3351 7.25857 16.2186 7.23535 16.1009 7.23535C15.9832 7.23535 15.8667 7.25857 15.758 7.30367C15.6494 7.34878 15.5506 7.41488 15.4676 7.4982L7.85089 15.1593L7.22311 17.8315C7.1996 17.9468 7.19908 18.0656 7.22155 18.1811C7.24403 18.2966 7.28907 18.4065 7.35409 18.5045C7.41912 18.6026 7.50285 18.6869 7.60049 18.7525C7.69813 18.8181 7.80776 18.8639 7.92311 18.8871C7.98037 18.8928 8.03807 18.8928 8.09533 18.8871C8.1634 18.8982 8.23282 18.8982 8.30088 18.8871L10.9953 18.2926L18.6064 10.6649C18.6896 10.5822 18.7556 10.484 18.8006 10.3758C18.8456 10.2676 18.8688 10.1515 18.8688 10.0343C18.8688 9.9171 18.8456 9.80104 18.8006 9.69282C18.7556 9.58461 18.6896 9.48637 18.6064 9.40375V9.37042ZM10.4287 17.2815L8.39533 17.7315L8.88977 15.7149L14.6009 9.94264L16.1676 11.5093L10.4287 17.2815ZM16.7953 10.8815L15.2287 9.31486L16.112 8.44264L17.6898 10.0204L16.7953 10.8815Z" fill="white"/>
  </g>
  <defs>
    <clipPath id="clip0_490_12878">
      <rect width="20" height="20" fill="white" transform="translate(0 0.109314)"/>
    </clipPath>
  </defs>
</svg>