<svg width="25" height="24" viewBox="0 0 25 24" fill="none" xmlns="http://www.w3.org/2000/svg">
<path d="M4.91119 5.45793L0.992195 9.37693C0.355365 10.0436 0 10.93 0 11.8519C0 12.7738 0.355365 13.6603 0.992195 14.3269L4.91119 18.2459C5.19409 18.5192 5.573 18.6704 5.96629 18.6669C6.35959 18.6635 6.7358 18.5058 7.01392 18.2277C7.29203 17.9495 7.44978 17.5733 7.4532 17.18C7.45662 16.7867 7.30542 16.4078 7.03219 16.1249L4.25219 13.3449L22.5022 13.3219C22.9 13.3219 23.2815 13.1639 23.5628 12.8826C23.8441 12.6013 24.0022 12.2197 24.0022 11.8219C24.0022 11.4241 23.8441 11.0426 23.5628 10.7613C23.2815 10.48 22.9 10.3219 22.5022 10.3219L4.26619 10.3449L7.03219 7.57893C7.17545 7.44056 7.28973 7.27504 7.36834 7.09203C7.44695 6.90903 7.48833 6.7122 7.49006 6.51303C7.49179 6.31386 7.45384 6.11634 7.37842 5.932C7.303 5.74765 7.19162 5.58017 7.05078 5.43933C6.90994 5.29849 6.74246 5.18711 6.55812 5.11169C6.37378 5.03627 6.17626 4.99832 5.97709 5.00005C5.77792 5.00178 5.58109 5.04316 5.39808 5.12177C5.21508 5.20039 5.04956 5.31466 4.91119 5.45793Z" fill="#2A3037"/>
</svg>
