<svg xmlns="http://www.w3.org/2000/svg" width="18" height="18" viewBox="0 0 18 18" fill="none">
  <path d="M5.55247 0.0992432C4.07986 0.0992432 2.66757 0.684234 1.62628 1.72552C0.584991 2.76681 0 4.17911 0 5.65171V12.1296C0 13.6022 0.584991 15.0145 1.62628 16.0558C2.66757 17.0971 4.07986 17.6821 5.55247 17.6821H12.0304C13.503 17.6821 14.9153 17.0971 15.9565 16.0558C16.9978 15.0145 17.5828 13.6022 17.5828 12.1296V7.50254C17.5828 7.2571 17.4853 7.02172 17.3118 6.84817C17.1382 6.67462 16.9028 6.57712 16.6574 6.57712H15.732C15.4866 6.57712 15.2512 6.47963 15.0776 6.30608C14.9041 6.13253 14.8066 5.89715 14.8066 5.65171C14.8066 4.17911 14.2216 2.76681 13.1803 1.72552C12.139 0.684234 10.7267 0.0992432 9.25412 0.0992432H5.55247ZM5.55247 4.7263H9.25412C9.76309 4.7263 10.1795 5.14274 10.1795 5.65171C10.1795 6.16069 9.76309 6.57712 9.25412 6.57712H5.55247C5.04349 6.57712 4.62706 6.16069 4.62706 5.65171C4.62706 5.14274 5.04349 4.7263 5.55247 4.7263ZM5.55247 11.2042H12.0304C12.5393 11.2042 12.9558 11.6206 12.9558 12.1296C12.9558 12.6386 12.5393 13.055 12.0304 13.055H5.55247C5.04349 13.055 4.62706 12.6386 4.62706 12.1296C4.62706 11.6206 5.04349 11.2042 5.55247 11.2042Z" fill="#7C7E80"/>
</svg>