<svg height="24" viewBox="0 0 24 24" width="24" xmlns="http://www.w3.org/2000/svg"><g id="Layer_1" data-name="Layer 1"><circle cx="14.5" cy="13.5" fill="#3ae4de" r="5"/><path d="m6.5 20.5a2 2 0 0 1 -2-2v-12a2 2 0 0 1 2-2h1v16z" fill="#bf1533"/><path d="m7.5 20.5v-16h9a2 2 0 0 1 2 2v3.823l-.818-.677a5 5 0 1 0 0 7.708l.818-.677v1.823a2 2 0 0 1 -2 2z" fill="#ff3446"/></g><g id="Layer_2_copy" data-name="Layer 2 copy"><path d="m7.5 21a.5.5 0 0 1 -.5-.5v-16a.5.5 0 0 1 1 0v16a.5.5 0 0 1 -.5.5z" fill="#9b1846"/><path d="m16.5 21h-10a2.5 2.5 0 0 1 -2.5-2.5v-12a2.5 2.5 0 0 1 2.5-2.5h10a2.5 2.5 0 0 1 2.5 2.5v3.9a.5.5 0 0 1 -1 0v-3.9a1.5 1.5 0 0 0 -1.5-1.5h-10a1.5 1.5 0 0 0 -1.5 1.5v12a1.5 1.5 0 0 0 1.5 1.5h10a1.5 1.5 0 0 0 1.5-1.5v-1.9a.5.5 0 0 1 1 0v1.9a2.5 2.5 0 0 1 -2.5 2.5z" fill="#1a1a1a"/><path d="m15.5 7h-5a.5.5 0 0 1 0-1h5a.5.5 0 0 1 0 1z" fill="#ffb8be"/><path d="m17.5 14a.5.5 0 0 1 -.5-.5 2.5 2.5 0 0 0 -2.5-2.5.5.5 0 0 1 0-1 3.5 3.5 0 0 1 3.5 3.5.5.5 0 0 1 -.5.5z" fill="#deffff"/><g fill="#ffdc00"><path d="m14.5 19a5.5 5.5 0 1 1 5.5-5.5 5.506 5.506 0 0 1 -5.5 5.5zm0-10a4.5 4.5 0 1 0 4.5 4.5 4.505 4.505 0 0 0 -4.5-4.5z"/><path d="m20.146 19.854-2.464-2.465a.5.5 0 0 1 .707-.707l2.465 2.464a.5.5 0 0 1 -.708.708z"/></g></g></svg>