<?xml version="1.0" encoding="UTF-8"?>
<svg version="1.1" xmlns="http://www.w3.org/2000/svg" width="512" height="512">
<path d="M0 0 C1.02138565 0.27906189 2.0427713 0.55812378 3.09510803 0.84564209 C6.32887789 1.73304633 9.55680897 2.63996794 12.78515625 3.546875 C14.94563178 4.14053159 17.1064371 4.73298939 19.26757812 5.32421875 C55.62656352 15.32536618 55.62656352 15.32536618 63.84765625 28.296875 C65.16649016 31.05760664 66.08327363 33.87262855 66.97265625 36.796875 C67.24416504 37.64475586 67.51567383 38.49263672 67.79541016 39.36621094 C71.64387715 51.54031167 75.23408949 63.80331416 78.84814453 76.04882812 C79.10464783 76.91413147 79.36115112 77.77943481 79.62542725 78.67095947 C80.11415308 80.32035417 80.60029138 81.97051827 81.08355713 83.621521 C81.92244097 87.24817078 81.92244097 87.24817078 83.84765625 90.296875 C85.53364626 90.02936257 87.20694115 89.68120385 88.87109375 89.30078125 C89.89203125 89.07197266 90.91296875 88.84316406 91.96484375 88.60742188 C93.57746094 88.23713867 93.57746094 88.23713867 95.22265625 87.859375 C97.33400045 87.3787127 99.44595597 86.90072564 101.55859375 86.42578125 C102.50009277 86.20994385 103.4415918 85.99410645 104.41162109 85.77172852 C106.84765625 85.296875 106.84765625 85.296875 109.84765625 85.296875 C109.92242187 84.58402344 109.9971875 83.87117188 110.07421875 83.13671875 C111.0039819 76.36403228 112.45552063 71.72152217 117.84765625 67.296875 C126.59293582 61.96116604 139.9349549 65.84219432 149.48803711 67.640625 C151.67213418 68.04911522 153.8597445 68.43174736 156.04882812 68.8125 C172.17032225 71.71383162 172.17032225 71.71383162 178.28515625 77.671875 C180.02802461 80.59989384 180.53390366 82.92403463 180.84765625 86.296875 C181.40179294 86.34060808 181.95592962 86.38434116 182.52685833 86.42939949 C190.19736364 87.10908746 197.72902606 88.40262524 205.3059082 89.74951172 C206.73762515 90.00123534 208.16939446 90.25266128 209.60121155 90.5038147 C213.4610052 91.18199982 217.31991846 91.86506634 221.17858529 92.54963064 C223.59236536 92.97770245 226.00630993 93.40483426 228.42030907 93.83166885 C236.84938832 95.3222603 245.27766665 96.81729941 253.70532227 98.31591797 C261.55192855 99.71107206 269.4003539 101.0956455 277.24965698 102.47553813 C284.00276425 103.66326126 290.75445159 104.85883571 297.50510567 106.06042302 C301.53124602 106.77689238 305.55790164 107.49007758 309.58605385 108.1951561 C313.36915615 108.85758044 317.15039906 109.52974372 320.9304409 110.20940781 C322.31612616 110.45683937 323.70243895 110.7007862 325.08940125 110.94095612 C326.98492029 111.26974771 328.87801315 111.61243578 330.77095032 111.95578003 C331.83000737 112.14344877 332.88906443 112.33111752 333.98021412 112.52447319 C337.36707253 113.43678997 340.33604998 114.78526873 342.84765625 117.296875 C343.52851058 123.80427119 342.73608935 130.25680813 341.66015625 136.671875 C341.55928711 137.34935791 341.45841797 138.02684082 341.35449219 138.72485352 C340.44229789 143.6859857 338.63324086 146.05881663 334.84765625 149.296875 C334.18765625 149.956875 333.52765625 150.616875 332.84765625 151.296875 C333.60385254 151.3062207 334.36004883 151.31556641 335.13916016 151.32519531 C338.58430759 151.379067 342.02812187 151.46268341 345.47265625 151.546875 C346.66246094 151.56105469 347.85226562 151.57523438 349.078125 151.58984375 C360.53423595 151.90984685 360.53423595 151.90984685 364.84765625 156.296875 C367.44967068 161.32893165 367.14678253 166.69538722 367.09765625 172.234375 C367.10539063 173.10255859 367.113125 173.97074219 367.12109375 174.86523438 C367.10568151 179.96283198 366.9128248 184.55529548 364.84765625 189.296875 C362.34927546 191.49696674 360.32520865 193.19809115 356.90151978 193.42698669 C354.63450006 193.2415549 352.40661807 192.9360081 350.15625 192.60546875 C334.88079157 191.07312439 320.21186634 189.83546641 307.66874695 200.00740051 C298.4465701 208.24837427 290.2922957 217.56163763 282.4699707 227.12158203 C279.53939454 230.62813629 276.38825308 233.57401034 272.90202332 236.51803589 C269.16146802 239.75691475 265.73135015 243.31183962 262.25390625 246.828125 C261.46294556 247.62287231 260.67198486 248.41761963 259.85705566 249.2364502 C257.35146102 251.75415932 254.84914767 254.27508946 252.34765625 256.796875 C249.04853945 260.12275689 245.74601251 263.44519836 242.44140625 266.765625 C241.32699158 267.89248718 241.32699158 267.89248718 240.19006348 269.04211426 C236.76669837 272.4813095 233.31348788 275.80251166 229.62304688 278.95507812 C226.28306364 281.81972971 223.55298724 284.83066967 220.84765625 288.296875 C229.59811158 301.80951799 241.55343547 319.296256 257.86444855 323.86132812 C276.86635615 327.90694521 297.85629584 326.10390202 317.08491516 324.5847168 C317.76653214 324.53796342 318.44814911 324.49121004 319.15042114 324.44303989 C320.97754626 324.31579812 322.80302678 324.16551904 324.62825012 324.01341248 C329.47117338 324.43982256 332.50196011 326.7655656 335.66015625 330.359375 C338.17526991 334.4629815 338.3361921 338.61581331 337.84765625 343.296875 C336.13355855 347.98808975 334.05911432 350.61685623 329.84765625 353.296875 C324.84788037 355.00149245 320.19153732 355.62256105 314.9453125 355.7109375 C314.22274765 355.73030365 313.5001828 355.7496698 312.75572205 355.7696228 C310.4739825 355.82885105 308.19219092 355.87557355 305.91015625 355.921875 C304.35219295 355.96010723 302.79424959 355.99916192 301.23632812 356.0390625 C297.44026844 356.13450475 293.64411003 356.21874168 289.84765625 356.296875 C291.20865146 357.67333607 292.56967554 359.04976862 293.9309082 360.42599487 C294.96371839 361.47092986 295.99500647 362.51736995 297.02539062 363.56469727 C299.83779958 366.39213806 302.71783744 369.08990079 305.734375 371.69921875 C310.02743847 375.4169603 314.11657744 379.31057068 318.16015625 383.296875 C318.86205078 383.96976562 319.56394531 384.64265625 320.28710938 385.3359375 C324.94591636 389.93700903 328.46574159 393.9569357 329.0625 400.73828125 C328.25857811 406.88658527 326.48398105 410.90021609 321.78515625 415.171875 C317.24983307 416.90880728 312.63857929 416.99899303 307.84765625 416.296875 C294.52947839 409.26059486 283.5815884 395.12306048 273.09765625 384.546875 C270.02252158 381.44492786 266.94392745 378.34647245 263.86328125 375.25 C263.17663391 374.55505432 262.48998657 373.86010864 261.78253174 373.144104 C257.89270153 369.23484656 253.90455339 365.51636735 249.70648193 361.93914795 C247.84765625 360.296875 247.84765625 360.296875 246.15843201 358.13781738 C242.74767637 355.4205461 239.31345496 355.64322405 235.1262207 355.58886719 C234.24586151 355.5625824 233.36550232 355.53629761 232.45846558 355.50921631 C229.54260765 355.43035151 226.62757699 355.38363143 223.7109375 355.34375 C222.70979605 355.32744789 221.70865459 355.31114578 220.67717552 355.29434967 C215.36676738 355.21089162 210.05677157 355.15371919 204.74584961 355.11621094 C199.29881256 355.07219529 193.85842685 354.93494868 188.41372395 354.77552414 C184.19495458 354.67006083 179.97771286 354.6373756 175.75774193 354.62308502 C173.75338536 354.60378682 171.74907784 354.55779938 169.74602699 354.48293304 C159.35166498 354.11892945 151.75730634 354.57431678 143.73168373 361.69749928 C140.88355565 364.49285241 138.17706648 367.38073037 135.54296303 370.37810135 C133.44866053 372.74846434 131.20709034 374.93613983 128.92358398 377.12329102 C127.62355602 378.42988918 126.32602379 379.73897627 125.03125 381.05078125 C124.31961197 381.7662059 123.60797394 382.48163055 122.87477112 383.21873474 C120.67564465 385.42972997 118.47993917 387.64406867 116.28515625 389.859375 C113.34936864 392.8220231 110.410066 395.78112284 107.46875 398.73828125 C106.81966171 399.39566788 106.17057343 400.0530545 105.5018158 400.73036194 C89.94819296 416.36615778 89.94819296 416.36615778 81.41015625 416.734375 C76.46210269 416.59452423 73.61246217 415.68520032 69.84765625 412.296875 C66.53580094 408.64241397 65.99030684 405.80897129 65.53515625 400.984375 C66.13492158 393.90714409 70.51038969 389.18490498 75.42578125 384.390625 C75.95604919 383.86223022 76.48631714 383.33383545 77.03265381 382.78942871 C78.14862881 381.68013129 79.26817347 380.57441439 80.39111328 379.47216797 C82.08621562 377.80810613 83.7705273 376.13372683 85.453125 374.45703125 C90.61427328 369.33360008 95.80654351 364.29715964 101.35058594 359.58398438 C102.56368843 358.54101693 103.71641827 357.42811298 104.84765625 356.296875 C103.85958984 356.28229248 102.87152344 356.26770996 101.85351562 356.25268555 C98.15557312 356.19431165 94.45821489 356.11708476 90.76074219 356.03442383 C89.16643827 356.00135702 87.57202242 355.97326941 85.97753906 355.95043945 C83.67334698 355.91655428 81.370164 355.86422763 79.06640625 355.80859375 C78.36398804 355.80220383 77.66156982 355.7958139 76.93786621 355.78923035 C71.38957279 355.62774882 65.53083904 354.71802741 61.27844238 350.88090515 C57.52642273 346.53728716 56.55165978 343.05895781 56.625 337.359375 C57.05388024 333.38658963 58.89822282 330.43619511 61.41015625 327.421875 C62.84765625 326.296875 62.84765625 326.296875 64.84765625 326.296875 C64.5104657 325.80027374 64.17327515 325.30367249 63.8258667 324.79202271 C59.65687969 318.09079491 58.65070177 311.86272646 57.80078125 304.1015625 C57.56515472 302.15816483 57.56515472 302.15816483 57.32476807 300.17550659 C56.89665665 296.63037836 56.49419863 293.08279423 56.09848022 289.53392029 C55.84480495 287.27144485 55.58512882 285.0097361 55.32348633 282.74816895 C54.13314447 272.45629557 52.98956679 262.15966544 51.86450195 251.86047363 C51.41091237 247.71529563 50.95329962 243.57056165 50.49609375 239.42578125 C49.60949428 231.3832255 48.72710725 223.34021557 47.84765625 215.296875 C46.56375 215.19632813 45.27984375 215.09578125 43.95703125 214.9921875 C35.93238789 214.18522441 28.02464006 212.62485626 20.09765625 211.171875 C18.39042757 210.86155933 16.68315135 210.5515051 14.97583008 210.24169922 C11.4184809 209.59529217 7.86164732 208.94613985 4.30517578 208.29492188 C-0.2581856 207.45950799 -4.82267314 206.63044244 -9.38754272 205.80331421 C-12.90343933 205.16564982 -16.41878364 204.52498385 -19.93395996 203.88336182 C-21.6179646 203.57629677 -23.30212785 203.27010028 -24.9864502 202.96478271 C-27.33007066 202.53942707 -29.67293155 202.11011533 -32.015625 201.6796875 C-32.71273087 201.55394348 -33.40983673 201.42819946 -34.12806702 201.29864502 C-38.92367583 200.41120896 -38.92367583 200.41120896 -41.15234375 199.296875 C-41.24845947 200.34391602 -41.3445752 201.39095703 -41.44360352 202.46972656 C-42.22051162 208.62283201 -43.90700332 214.54611956 -45.4921875 220.53125 C-45.84599646 221.88256843 -46.19932382 223.23401304 -46.55221558 224.58557129 C-47.31977527 227.52140673 -48.09048986 230.45638895 -48.86367798 233.39074707 C-50.11071622 238.12351797 -51.35127707 242.8579709 -52.59057617 247.59277344 C-53.02728855 249.26104983 -53.46401051 250.92932371 -53.90074158 252.59759521 C-54.12220289 253.44358025 -54.34366421 254.28956528 -54.57183647 255.16118622 C-55.26465589 257.80667178 -55.95819326 260.45196831 -56.65187073 263.097229 C-60.15959593 276.47775878 -63.64059344 289.8651157 -67.1109066 303.25539398 C-67.98736139 306.63707585 -68.86420145 310.01865759 -69.74116516 313.40020752 C-73.20755125 326.76616889 -73.20755125 326.76616889 -76.66989136 340.13317871 C-78.03569214 345.40929317 -79.40407484 350.68473217 -80.77417374 355.95973206 C-81.27752503 357.89950286 -81.77998839 359.83950437 -82.28142929 361.7797699 C-83.87872308 367.9593035 -85.50220435 374.13124567 -87.15234375 380.296875 C-87.40346798 381.24213547 -87.65459221 382.18739594 -87.91332626 383.16130066 C-88.68057646 386.03005631 -89.46422351 388.89384575 -90.25268555 391.75683594 C-90.59922416 393.06045767 -90.59922416 393.06045767 -90.95276356 394.39041519 C-92.88885682 401.30732857 -95.56060151 406.27311338 -101.08984375 411.046875 C-101.73824219 411.61921875 -102.38664062 412.1915625 -103.0546875 412.78125 C-109.66222258 417.55540942 -117.37142521 417.06378278 -125.15234375 416.296875 C-132.11716362 414.26016527 -137.21415332 410.36064503 -141.15234375 404.296875 C-148.59258037 390.1860814 -142.43767715 374.83791744 -138.6171875 360.37890625 C-138.26653918 359.03853455 -137.91629853 357.69805615 -137.56642151 356.35748291 C-136.81056435 353.46457213 -136.05208822 350.57236608 -135.29150391 347.68069458 C-134.05849588 342.99260537 -132.83148507 338.30295895 -131.60546875 333.61303711 C-130.26395306 328.48210045 -128.92216085 323.35123751 -127.57858276 318.22084045 C-123.8699742 304.05756194 -120.18154881 289.88908443 -116.5 275.71875 C-116.21673292 274.62853231 -115.93346584 273.53831463 -115.64161491 272.41506004 C-113.92543662 265.80977215 -112.2096067 259.2043938 -110.49385452 252.59899521 C-106.7943357 238.35671058 -103.09335276 224.11481207 -99.38468552 209.87490654 C-98.16355722 205.18534961 -96.94397036 200.49540419 -95.72836304 195.80441284 C-89.15610777 170.44256777 -82.31147929 145.16903859 -75.22640228 119.94570541 C-73.12725797 112.47224991 -71.0316764 104.99779335 -68.93532562 97.52355385 C-68.41237062 95.65951985 -67.88920402 93.79554519 -67.36582184 91.93163109 C-64.14238701 80.45172579 -60.95270212 68.96358519 -57.81855583 57.45898247 C-56.56027973 52.84690184 -55.2911021 48.23780373 -54.02377319 43.62820435 C-53.36714858 41.22700268 -52.71615002 38.82425439 -52.07119751 36.41989136 C-51.1935018 33.14945245 -50.29629174 29.88496462 -49.39453125 26.62109375 C-49.03035851 25.23032623 -49.03035851 25.23032623 -48.65882874 23.8114624 C-45.6442539 13.08002758 -39.67460182 5.07978468 -30.02734375 -0.515625 C-20.1367427 -4.60087326 -9.9647887 -2.83461456 0 0 Z M142.78515625 123.171875 C141.94404297 123.34589844 141.10292969 123.51992187 140.23632812 123.69921875 C139.0365332 123.96025391 139.0365332 123.96025391 137.8125 124.2265625 C136.70829712 124.46221924 136.70829712 124.46221924 135.58178711 124.70263672 C133.6317357 125.14441977 133.6317357 125.14441977 132.84765625 127.296875 C133.16529278 129.29584411 133.16529278 129.29584411 133.78515625 131.421875 C133.97980469 132.14632812 134.17445313 132.87078125 134.375 133.6171875 C134.53097656 134.17148438 134.68695313 134.72578125 134.84765625 135.296875 C137.0950867 135.82868675 139.34572727 136.34694626 141.59765625 136.859375 C142.850625 137.14941406 144.10359375 137.43945312 145.39453125 137.73828125 C148.96042688 138.54800948 148.96042688 138.54800948 152.84765625 137.296875 C153.17765625 132.016875 153.50765625 126.736875 153.84765625 121.296875 C150.09904666 121.296875 146.43584012 122.37934778 142.78515625 123.171875 Z M172.84765625 140.921875 C170.60888782 143.58041251 168.76022218 146.39717826 166.84765625 149.296875 C165.85765625 150.286875 164.86765625 151.276875 163.84765625 152.296875 C217.96765625 152.296875 272.08765625 152.296875 327.84765625 152.296875 C326.19765625 150.976875 324.54765625 149.656875 322.84765625 148.296875 C322.00203125 147.575 321.15640625 146.853125 320.28515625 146.109375 C317.33598083 143.91374264 317.33598083 143.91374264 313.84765625 143.296875 C310.95724881 144.93855657 308.37963724 146.8650016 305.69921875 148.828125 C302.16113926 150.65047827 300.59972339 150.49466997 296.84765625 149.296875 C294.9765625 147.8515625 294.9765625 147.8515625 293.41015625 146.171875 C290.69609539 143.6964129 290.20830693 143.31619557 286.34765625 143.109375 C282.73887502 144.33378292 280.47533892 145.78084577 277.62109375 148.23828125 C275.15644243 149.70947179 273.67686799 149.70534782 270.84765625 149.296875 C268.40331608 147.65615352 266.32907465 145.7803871 264.12890625 143.828125 C261.38103096 141.98366076 260.09459051 141.7617226 256.84765625 142.296875 C254.76538117 143.57373417 254.76538117 143.57373417 252.91015625 145.296875 C250.42860751 147.23674239 248.98318565 148.25938814 245.91015625 149.109375 C241.74334506 148.00389448 239.24397052 145.61115168 236.09375 142.73046875 C233.93468295 141.04810251 233.93468295 141.04810251 231.3125 141.41796875 C228.81728886 142.30770331 227.09062018 143.34878146 224.97265625 144.921875 C222.03259859 146.810339 220.96415857 147.2906338 217.34765625 147.484375 C214.03208449 146.35944887 212.39788178 145.31105346 209.72265625 143.171875 C206.85505582 140.79146663 206.85505582 140.79146663 203.28515625 140.109375 C201.05478448 141.19596638 199.37448308 142.36682972 197.41015625 143.859375 C195.11113649 145.54532282 193.78755004 146.31255488 190.97265625 147.046875 C186.73052887 146.02876443 184.2289566 143.68665637 180.99609375 140.828125 C177.92071989 138.63622218 175.81460865 138.51122618 172.84765625 140.921875 Z M39.84765625 144.296875 C39.18765625 146.936875 38.52765625 149.576875 37.84765625 152.296875 C52.36765625 152.296875 66.88765625 152.296875 81.84765625 152.296875 C81.84765625 151.966875 81.84765625 151.636875 81.84765625 151.296875 C76.50995942 150.29539096 71.17141445 149.29860634 65.83203125 148.30615234 C64.01603549 147.96792313 62.20027751 147.62841459 60.38476562 147.28759766 C57.77405381 146.79773215 55.16251938 146.31248485 52.55078125 145.828125 C51.74022278 145.67500854 50.92966431 145.52189209 50.09454346 145.36413574 C46.59943648 144.72004446 43.41437114 144.296875 39.84765625 144.296875 Z M128.84765625 149.296875 C127.85765625 150.781875 127.85765625 150.781875 126.84765625 152.296875 C131.79765625 152.296875 136.74765625 152.296875 141.84765625 152.296875 C141.84765625 151.966875 141.84765625 151.636875 141.84765625 151.296875 C137.55765625 150.636875 133.26765625 149.976875 128.84765625 149.296875 Z M122.84765625 193.296875 C124.49765625 194.946875 126.14765625 196.596875 127.84765625 198.296875 C129.21891829 199.67260336 130.58977169 201.04873915 131.96020508 202.42529297 C136.26276303 206.74577859 140.5684778 211.06310417 144.87524414 215.37939453 C146.72738382 217.23656764 148.5786256 219.09463664 150.42895508 220.95361328 C153.1143052 223.65116193 155.80293281 226.34540708 158.4921875 229.0390625 C159.31016312 229.8621994 160.12813873 230.6853363 160.97090149 231.53341675 C165.20602459 235.76894781 169.52020853 239.82905862 174.06034851 243.7354126 C176.55310504 245.91318283 178.8899354 248.22691839 181.22265625 250.57421875 C182.14433594 251.49912109 183.06601562 252.42402344 184.015625 253.37695312 C184.95969232 254.32937068 185.90370207 255.28184531 186.84765625 256.234375 C187.82268011 257.2144281 188.79793905 258.1942474 189.7734375 259.17382812 C192.13382243 261.54589813 194.4918253 263.9202836 196.84765625 266.296875 C204.6165103 259.97129137 211.48737258 252.71977493 218.52026367 245.60375977 C220.21969321 243.88603867 221.92228096 242.1714907 223.625 240.45703125 C224.1304686 239.94326431 224.63593719 239.42949738 225.15672302 238.90016174 C227.92410012 236.11440439 230.76419531 233.47036813 233.73657227 230.90356445 C237.95390818 227.2514537 241.9098853 223.37917107 245.84765625 219.4296875 C246.56880615 218.70949432 247.28995605 217.98930115 248.03295898 217.24728394 C249.53996482 215.74095314 251.04573059 214.23338077 252.55029297 212.72460938 C254.86571775 210.40377128 257.18650658 208.08839171 259.5078125 205.7734375 C260.97558165 204.30500852 262.4430411 202.8362699 263.91015625 201.3671875 C264.60689453 200.67247345 265.30363281 199.9777594 266.02148438 199.26199341 C266.65634766 198.62397797 267.29121094 197.98596252 267.9453125 197.32861328 C268.50742432 196.76570587 269.06953613 196.20279846 269.64868164 195.62283325 C270.95943915 194.47119542 270.95943915 194.47119542 270.84765625 193.296875 C222.00765625 193.296875 173.16765625 193.296875 122.84765625 193.296875 Z M101.84765625 217.296875 C101.94343964 218.1463974 102.03922302 218.9959198 102.13790894 219.8711853 C103.04983127 227.95944305 103.96161247 236.0477167 104.87324333 244.13600731 C105.34168989 248.29217742 105.81018707 252.4483418 106.27880859 256.60449219 C106.7328143 260.63103457 107.18667574 264.65759319 107.64044571 268.68416214 C107.81179 270.20438822 107.98318241 271.72460888 108.15462875 273.24482346 C108.23604237 273.96674503 108.31745598 274.68866661 108.40133667 275.4324646 C108.48191378 276.14677454 108.56249088 276.86108448 108.64550972 277.59704018 C108.80478135 279.0121658 108.96348541 280.42735543 109.12159538 281.84261131 C109.54393074 285.62141658 109.97585358 289.39882755 110.42022705 293.17510986 C110.51391634 293.98431696 110.60760563 294.79352406 110.70413399 295.62725258 C110.88342003 297.17567696 111.06584983 298.72374189 111.25202751 300.27135277 C112.20172284 308.55039561 112.05587282 314.97823749 107.84765625 322.296875 C107.84765625 322.956875 107.84765625 323.616875 107.84765625 324.296875 C111.89919957 324.57276581 115.94698806 324.77011488 120.00585938 324.90112305 C121.37987598 324.95580788 122.75327212 325.03040391 124.125 325.12670898 C130.36577676 325.5532533 135.65187253 325.69414617 141.04394531 322.26293945 C143.63346748 319.91412922 146.01320433 317.53172933 148.34777832 314.93807983 C150.41691782 312.67397441 152.60884053 310.54749612 154.8024292 308.40486145 C157.59651216 305.66861553 160.34312661 302.88532966 163.09765625 300.109375 C164.24715671 298.95483999 165.39689529 297.80054202 166.546875 296.64648438 C169.31653951 293.86599091 172.08301527 291.08236304 174.84765625 288.296875 C170.94411101 283.41744345 166.69063181 279.26566181 162.04803467 275.08856201 C157.3238366 270.80216029 152.8011029 266.33242983 148.30078125 261.8125 C147.55308472 261.06158081 146.80538818 260.31066162 146.03503418 259.5369873 C143.72067444 257.20882741 141.40873576 254.87829085 139.09765625 252.546875 C136.02252158 249.44492786 132.94392745 246.34647245 129.86328125 243.25 C129.17663391 242.55505432 128.48998657 241.86010864 127.78253174 241.144104 C123.86485967 237.20686565 119.84457518 233.46143266 115.623703 229.8502655 C112.39518666 227.02649602 109.44647314 223.93693529 106.45507812 220.86523438 C105.26917482 219.65925937 104.06056918 218.47568142 102.84765625 217.296875 C102.51765625 217.296875 102.18765625 217.296875 101.84765625 217.296875 Z M195.46484375 311.6171875 C194.88992188 312.21273438 194.315 312.80828125 193.72265625 313.421875 C190.67273856 316.52862346 187.49466112 319.36944682 184.1328125 322.1328125 C183.70871094 322.51695312 183.28460938 322.90109375 182.84765625 323.296875 C182.84765625 323.626875 182.84765625 323.956875 182.84765625 324.296875 C192.41765625 324.296875 201.98765625 324.296875 211.84765625 324.296875 C210.19765625 322.646875 208.54765625 320.996875 206.84765625 319.296875 C206.0484375 318.48605469 205.24921875 317.67523438 204.42578125 316.83984375 C203.6575 316.06253906 202.88921875 315.28523438 202.09765625 314.484375 C201.3190625 313.69417969 200.54046875 312.90398437 199.73828125 312.08984375 C197.55796746 309.78523295 197.55796746 309.78523295 195.46484375 311.6171875 Z " fill="#A5593B" transform="translate(145.15234375,95.703125)"/>
<path d="M0 0 C1.02138565 0.27906189 2.0427713 0.55812378 3.09510803 0.84564209 C6.32887789 1.73304633 9.55680897 2.63996794 12.78515625 3.546875 C14.94563178 4.14053159 17.1064371 4.73298939 19.26757812 5.32421875 C55.62656352 15.32536618 55.62656352 15.32536618 63.84765625 28.296875 C65.16649016 31.05760664 66.08327363 33.87262855 66.97265625 36.796875 C67.24416504 37.64475586 67.51567383 38.49263672 67.79541016 39.36621094 C71.64387715 51.54031167 75.23408949 63.80331416 78.84814453 76.04882812 C79.10464783 76.91413147 79.36115112 77.77943481 79.62542725 78.67095947 C80.11415308 80.32035417 80.60029138 81.97051827 81.08355713 83.621521 C81.92244097 87.24817078 81.92244097 87.24817078 83.84765625 90.296875 C85.53364626 90.02936257 87.20694115 89.68120385 88.87109375 89.30078125 C89.89203125 89.07197266 90.91296875 88.84316406 91.96484375 88.60742188 C93.57746094 88.23713867 93.57746094 88.23713867 95.22265625 87.859375 C97.33400045 87.3787127 99.44595597 86.90072564 101.55859375 86.42578125 C102.50009277 86.20994385 103.4415918 85.99410645 104.41162109 85.77172852 C106.84765625 85.296875 106.84765625 85.296875 109.84765625 85.296875 C109.92242187 84.58402344 109.9971875 83.87117188 110.07421875 83.13671875 C111.0039819 76.36403228 112.45552063 71.72152217 117.84765625 67.296875 C126.59293582 61.96116604 139.9349549 65.84219432 149.48803711 67.640625 C151.67213418 68.04911522 153.8597445 68.43174736 156.04882812 68.8125 C172.17032225 71.71383162 172.17032225 71.71383162 178.28515625 77.671875 C180.02802461 80.59989384 180.53390366 82.92403463 180.84765625 86.296875 C181.40179294 86.34060808 181.95592962 86.38434116 182.52685833 86.42939949 C190.19736364 87.10908746 197.72902606 88.40262524 205.3059082 89.74951172 C206.73762515 90.00123534 208.16939446 90.25266128 209.60121155 90.5038147 C213.4610052 91.18199982 217.31991846 91.86506634 221.17858529 92.54963064 C223.59236536 92.97770245 226.00630993 93.40483426 228.42030907 93.83166885 C236.84938832 95.3222603 245.27766665 96.81729941 253.70532227 98.31591797 C261.55192855 99.71107206 269.4003539 101.0956455 277.24965698 102.47553813 C284.00276425 103.66326126 290.75445159 104.85883571 297.50510567 106.06042302 C301.53124602 106.77689238 305.55790164 107.49007758 309.58605385 108.1951561 C313.36915615 108.85758044 317.15039906 109.52974372 320.9304409 110.20940781 C322.31612616 110.45683937 323.70243895 110.7007862 325.08940125 110.94095612 C326.98492029 111.26974771 328.87801315 111.61243578 330.77095032 111.95578003 C331.83000737 112.14344877 332.88906443 112.33111752 333.98021412 112.52447319 C337.36707253 113.43678997 340.33604998 114.78526873 342.84765625 117.296875 C343.52851058 123.80427119 342.73608935 130.25680813 341.66015625 136.671875 C341.55928711 137.34935791 341.45841797 138.02684082 341.35449219 138.72485352 C340.44229789 143.6859857 338.63324086 146.05881663 334.84765625 149.296875 C334.18765625 149.956875 333.52765625 150.616875 332.84765625 151.296875 C330.50390625 152.09765625 330.50390625 152.09765625 327.84765625 152.296875 C325.56640625 151.15234375 325.56640625 151.15234375 323.34765625 149.484375 C318.94357462 146.18592481 318.94357462 146.18592481 313.84765625 144.296875 C311.0548061 145.62759799 311.0548061 145.62759799 308.41015625 147.734375 C303.63055678 151.31737489 303.63055678 151.31737489 299.71484375 151.21484375 C296.73170247 150.25975083 295.5122686 149.42601043 293.41015625 147.171875 C290.69609539 144.6964129 290.20830693 144.31619557 286.34765625 144.109375 C282.73887502 145.33378292 280.47533892 146.78084577 277.62109375 149.23828125 C275.15644243 150.70947179 273.67686799 150.70534782 270.84765625 150.296875 C268.40331608 148.65615352 266.32907465 146.7803871 264.12890625 144.828125 C261.38103096 142.98366076 260.09459051 142.7617226 256.84765625 143.296875 C254.76538117 144.57373417 254.76538117 144.57373417 252.91015625 146.296875 C250.42860751 148.23674239 248.98318565 149.25938814 245.91015625 150.109375 C241.74334506 149.00389448 239.24397052 146.61115168 236.09375 143.73046875 C233.93468295 142.04810251 233.93468295 142.04810251 231.3125 142.41796875 C228.81728886 143.30770331 227.09062018 144.34878146 224.97265625 145.921875 C222.03259859 147.810339 220.96415857 148.2906338 217.34765625 148.484375 C214.03208449 147.35944887 212.39788178 146.31105346 209.72265625 144.171875 C206.85505582 141.79146663 206.85505582 141.79146663 203.28515625 141.109375 C201.05478448 142.19596638 199.37448308 143.36682972 197.41015625 144.859375 C195.11113649 146.54532282 193.78755004 147.31255488 190.97265625 148.046875 C187.46995084 147.2062257 186.1308636 146.03155431 183.41015625 143.734375 C180.42021742 141.09799102 180.42021742 141.09799102 176.71484375 140.0546875 C174.5877175 140.34053093 174.5877175 140.34053093 171.84765625 141.296875 C171.53828125 142.6271875 171.53828125 142.6271875 171.22265625 143.984375 C169.57404441 147.95603079 167.62002987 150.30316323 163.84765625 152.296875 C160.30543297 152.94987552 156.8751592 152.86226237 153.28515625 152.734375 C152.30659668 152.72059814 151.32803711 152.70682129 150.31982422 152.69262695 C144.88938795 152.56824868 139.79081545 152.05925559 134.47265625 150.984375 C130.12908732 150.15432125 127.99489417 150.2347648 124.22265625 152.609375 C123.63226563 153.07988281 123.041875 153.55039063 122.43359375 154.03515625 C117.66893879 157.82575613 110.54496264 156.59361336 104.84765625 156.296875 C102.32836055 155.92583823 99.81636775 155.50292176 97.3125 155.0390625 C96.59073074 154.9071048 95.86896149 154.77514709 95.12532043 154.63919067 C93.54472007 154.35004315 91.96450783 154.05876777 90.38464355 153.765625 C86.78548479 153.10062141 83.18293415 152.45482531 79.58062744 151.80712891 C75.71506724 151.11117228 71.85056363 150.40944774 67.98608398 149.70751953 C64.99420283 149.16444124 62.0019851 148.62324199 59.00976562 148.08203125 C57.09503121 147.73448997 55.18031689 147.38683795 53.265625 147.0390625 C52.37715378 146.87864471 51.48868256 146.71822693 50.57328796 146.552948 C49.74754776 146.40254059 48.92180756 146.25213318 48.07104492 146.09716797 C47.34954758 145.96631805 46.62805023 145.83546814 45.88468933 145.70065308 C43.85223051 145.2977817 41.85309362 144.81668504 39.84765625 144.296875 C39.66203125 145.51375 39.47640625 146.730625 39.28515625 147.984375 C38.41847767 151.58491468 37.33973491 153.08750063 34.28515625 155.171875 C33.66511719 155.54054687 33.04507813 155.90921875 32.40625 156.2890625 C30.67304519 157.22255247 30.67304519 157.22255247 29.84765625 159.296875 C29.82156306 161.31764726 29.80170141 163.33850201 29.78515625 165.359375 C29.32211646 171.71564842 27.75899958 174.9443578 23.2265625 179.36328125 C11.34692817 189.01914167 -1.62450667 192.4217071 -16.73583984 191.56640625 C-22.56315025 190.91644154 -28.05057808 188.89673002 -33.59375 187.0703125 C-39.80872121 185.0298449 -46.12297841 183.45168928 -52.46484375 181.859375 C-64.82112921 178.72342282 -76.98873064 175.10313106 -89.15234375 171.296875 C-83.03214934 148.01595804 -76.60553761 124.8248588 -70.11871338 101.64385986 C-68.57439372 96.12286565 -67.03324436 90.60098515 -65.49186897 85.07916832 C-64.22274855 80.53447429 -62.95078916 75.99060938 -61.67282104 71.44839478 C-59.37984903 63.29415714 -57.09985446 55.13778889 -54.89515591 46.95916462 C-53.92588877 43.36935612 -52.94452792 39.78290847 -51.96181679 36.19676018 C-51.50466413 34.51571516 -51.05327029 32.83309137 -50.6082058 31.14880562 C-47.39924127 19.01366361 -43.81213178 8.79731409 -33.15234375 1.296875 C-22.5500235 -4.85247075 -11.31512569 -3.21873559 0 0 Z M142.78515625 123.171875 C141.94404297 123.34589844 141.10292969 123.51992187 140.23632812 123.69921875 C139.0365332 123.96025391 139.0365332 123.96025391 137.8125 124.2265625 C136.70829712 124.46221924 136.70829712 124.46221924 135.58178711 124.70263672 C133.6317357 125.14441977 133.6317357 125.14441977 132.84765625 127.296875 C133.16529278 129.29584411 133.16529278 129.29584411 133.78515625 131.421875 C133.97980469 132.14632812 134.17445313 132.87078125 134.375 133.6171875 C134.53097656 134.17148438 134.68695313 134.72578125 134.84765625 135.296875 C137.0950867 135.82868675 139.34572727 136.34694626 141.59765625 136.859375 C142.850625 137.14941406 144.10359375 137.43945312 145.39453125 137.73828125 C148.96042688 138.54800948 148.96042688 138.54800948 152.84765625 137.296875 C153.17765625 132.016875 153.50765625 126.736875 153.84765625 121.296875 C150.09904666 121.296875 146.43584012 122.37934778 142.78515625 123.171875 Z " fill="#FED951" transform="translate(145.15234375,95.703125)"/>
<path d="M0 0 C5.70357393 1.21924337 11.33443177 2.58126559 16.9453125 4.171875 C17.67028931 4.37500809 18.39526611 4.57814117 19.14221191 4.78742981 C20.68013377 5.21836123 22.2177883 5.65024772 23.75518799 6.08303833 C36.29589975 9.61250565 48.84573917 13.07786695 61.47314453 16.28613281 C62.74327393 16.61049316 62.74327393 16.61049316 64.0390625 16.94140625 C64.76303223 17.12388916 65.48700195 17.30637207 66.23291016 17.49438477 C68 18 68 18 70 19 C85.75916897 19.90750475 99.06140617 18.00640888 111.375 7.375 C113.64632475 5.30930959 115.84245915 3.18401374 118 1 C118.05607422 2.32064453 118.05607422 2.32064453 118.11328125 3.66796875 C118.17902344 4.82941406 118.24476563 5.99085938 118.3125 7.1875 C118.39951172 8.91033203 118.39951172 8.91033203 118.48828125 10.66796875 C119.0349402 14.22751138 119.80193711 16.1681707 122 19 C124.83660233 20.743726 126.75211154 21.22386892 130.05224609 20.96972656 C130.8425119 20.91957397 131.63277771 20.86942139 132.44699097 20.81774902 C133.722332 20.73007263 133.722332 20.73007263 135.0234375 20.640625 C167.97860185 19.0975464 167.97860185 19.0975464 178.23104858 27.53387451 C179.70778126 28.88266021 181.10551905 30.31633855 182.5 31.75 C183.78463135 33.05179199 183.78463135 33.05179199 185.09521484 34.37988281 C191.91610917 42.62029561 192.67699511 51.3450481 193.65771484 61.59686279 C194.04364884 65.43397439 194.50492436 69.2596557 194.98046875 73.08642578 C195.82570603 79.91601085 196.63765263 86.7487648 197.42698669 93.58503151 C197.97769066 98.35327331 198.5388473 103.12011039 199.10835648 107.88614178 C199.47749155 110.99534342 199.83711659 114.10559369 200.19423676 117.21619606 C200.3645056 118.68483826 200.53828088 120.15307892 200.71585846 121.62085533 C202.12135841 133.27840139 202.98782624 142.569593 197 153 C190.96910596 153.34107688 184.93891024 153.62848703 178.90307617 153.86669922 C176.85095812 153.95520988 174.79941404 154.05828736 172.7487793 154.17626953 C169.79766939 154.34351577 166.84844674 154.45799609 163.89453125 154.5625 C162.52238213 154.65724609 162.52238213 154.65724609 161.12251282 154.75390625 C155.09195666 154.89844791 155.09195666 154.89844791 152.34817505 152.64089966 C148.14965621 146.82212488 147.70762982 139.8047876 146.953125 132.8671875 C146.71749847 130.91702225 146.71749847 130.91702225 146.47711182 128.92745972 C146.04868805 125.36845862 145.6464834 121.80696181 145.25082397 118.2441864 C144.9114185 115.20743862 144.55970732 112.17215764 144.20865631 109.13673782 C143.1091831 99.61622216 142.05756748 90.09068794 141.0168457 80.56359863 C140.56325612 76.41842063 140.10564337 72.27368665 139.6484375 68.12890625 C138.76183803 60.0863505 137.879451 52.04334057 137 44 C135.71609375 43.89945312 134.4321875 43.79890625 133.109375 43.6953125 C125.08473164 42.88834941 117.17698381 41.32798126 109.25 39.875 C107.54277132 39.56468433 105.8354951 39.2546301 104.12817383 38.94482422 C100.57082465 38.29841717 97.01399107 37.64926485 93.45751953 36.99804688 C88.89415815 36.16263299 84.32967061 35.33356744 79.76480103 34.50643921 C76.24890442 33.86877482 72.73356011 33.22810885 69.21838379 32.58648682 C67.53437915 32.27942177 65.8502159 31.97322528 64.16589355 31.66790771 C61.82227309 31.24255207 59.4794122 30.81324033 57.13671875 30.3828125 C56.43961288 30.25706848 55.74250702 30.13132446 55.02427673 30.00177002 C50.22866792 29.11433396 50.22866792 29.11433396 48 28 C47.90388428 29.04704102 47.80776855 30.09408203 47.70874023 31.17285156 C46.93183213 37.32595701 45.24534043 43.24924456 43.66015625 49.234375 C43.30634729 50.58569343 42.95301993 51.93713804 42.60012817 53.28869629 C41.83256848 56.22453173 41.06185389 59.15951395 40.28866577 62.09387207 C39.04162753 66.82664297 37.80106668 71.5610959 36.56176758 76.29589844 C36.1250552 77.96417483 35.68833324 79.63244871 35.25160217 81.30072021 C35.03014086 82.14670525 34.80867954 82.99269028 34.58050728 83.86431122 C33.88768786 86.50979678 33.19415049 89.15509331 32.50047302 91.800354 C28.99274782 105.18088378 25.51175031 118.5682407 22.04143715 131.95851898 C21.16498236 135.34020085 20.2881423 138.72178259 19.41117859 142.10333252 C15.9447925 155.46929389 15.9447925 155.46929389 12.48245239 168.83630371 C11.11665161 174.11241817 9.74826891 179.38785717 8.37817001 184.66285706 C7.87481872 186.60262786 7.37235536 188.54262937 6.87091446 190.4828949 C5.27362067 196.6624285 3.6501394 202.83437067 2 209 C1.74887577 209.94526047 1.49775154 210.89052094 1.23901749 211.86442566 C0.47176729 214.73318131 -0.31187976 217.59697075 -1.1003418 220.45996094 C-1.44688041 221.76358267 -1.44688041 221.76358267 -1.80041981 223.09354019 C-3.73651307 230.01045357 -6.40825776 234.97623838 -11.9375 239.75 C-12.58589844 240.32234375 -13.23429687 240.8946875 -13.90234375 241.484375 C-20.50987883 246.25853442 -28.21908146 245.76690778 -36 245 C-42.96481987 242.96329027 -48.06180957 239.06377003 -52 233 C-59.44024035 218.88919933 -53.28532495 203.54104961 -49.46484375 189.08203125 C-49.11405771 187.74111033 -48.76367977 186.40008261 -48.41366577 185.05895996 C-47.65767595 182.16549863 -46.89906615 179.27274234 -46.13833618 176.38052368 C-44.90789865 171.70229658 -43.68330231 167.02255256 -42.4597168 162.3425293 C-42.02669983 160.6865355 -41.59367046 159.03054495 -41.16062927 157.3745575 C-40.94115568 156.53526892 -40.72168209 155.69598034 -40.49555779 154.83125877 C-39.81076535 152.21350412 -39.12537243 149.59590732 -38.43983459 146.97834778 C-34.68974575 132.65677841 -30.96274662 118.32926634 -27.2421875 104 C-26.66218124 101.76657464 -26.08216923 99.53315077 -25.50215149 97.29972839 C-23.2118613 88.48019171 -20.92189789 79.6605703 -18.63278198 70.84072876 C-12.49813639 47.20650983 -6.3445242 23.57889801 0 0 Z " fill="#738488" transform="translate(56,267)"/>
<path d="M0 0 C2.18409707 0.40849022 4.37170739 0.79112236 6.56079102 1.171875 C22.68228514 4.07320662 22.68228514 4.07320662 28.79711914 10.03125 C30.5399875 12.95926884 31.04586655 15.28340963 31.35961914 18.65625 C31.91375583 18.69998308 32.46789251 18.74371616 33.03882122 18.78877449 C40.70932653 19.46846246 48.24098895 20.76200024 55.81787109 22.10888672 C57.24958804 22.36061034 58.68135735 22.61203628 60.11317444 22.8631897 C63.97296809 23.54137482 67.83188135 24.22444134 71.69054818 24.90900564 C74.10432825 25.33707745 76.51827282 25.76420926 78.93227196 26.19104385 C87.36135121 27.6816353 95.78962954 29.17667441 104.21728516 30.67529297 C112.06389144 32.07044706 119.91231679 33.4550205 127.76161987 34.83491313 C134.51472714 36.02263626 141.26641448 37.21821071 148.01706856 38.41979802 C152.04320892 39.13626738 156.06986453 39.84945258 160.09801674 40.5545311 C163.88111904 41.21695544 167.66236195 41.88911872 171.44240379 42.56878281 C172.82808905 42.81621437 174.21440184 43.0601612 175.60136414 43.30033112 C177.49688319 43.62912271 179.38997604 43.97181078 181.28291321 44.31515503 C182.34197026 44.50282377 183.40102732 44.69049252 184.49217701 44.88384819 C187.87903542 45.79616497 190.84801287 47.14464373 193.35961914 49.65625 C194.04047347 56.16364619 193.24805224 62.61618313 192.17211914 69.03125 C192.07125 69.70873291 191.97038086 70.38621582 191.86645508 71.08422852 C190.95426078 76.0453607 189.14520375 78.41819163 185.35961914 81.65625 C184.69961914 82.31625 184.03961914 82.97625 183.35961914 83.65625 C181.01586914 84.45703125 181.01586914 84.45703125 178.35961914 84.65625 C176.07836914 83.51171875 176.07836914 83.51171875 173.85961914 81.84375 C169.45553751 78.54529981 169.45553751 78.54529981 164.35961914 76.65625 C161.56676899 77.98697299 161.56676899 77.98697299 158.92211914 80.09375 C154.14251967 83.67674989 154.14251967 83.67674989 150.22680664 83.57421875 C147.24366537 82.61912583 146.02423149 81.78538543 143.92211914 79.53125 C141.20805828 77.0557879 140.72026982 76.67557057 136.85961914 76.46875 C133.25083791 77.69315792 130.98730181 79.14022077 128.13305664 81.59765625 C125.66840532 83.06884679 124.18883088 83.06472282 121.35961914 82.65625 C118.91527897 81.01552852 116.84103754 79.1397621 114.64086914 77.1875 C111.89299385 75.34303576 110.6065534 75.1210976 107.35961914 75.65625 C105.27734406 76.93310917 105.27734406 76.93310917 103.42211914 78.65625 C100.9405704 80.59611739 99.49514854 81.61876314 96.42211914 82.46875 C92.25530795 81.36326948 89.75593341 78.97052668 86.60571289 76.08984375 C84.44664584 74.40747751 84.44664584 74.40747751 81.82446289 74.77734375 C79.32925175 75.66707831 77.60258307 76.70815646 75.48461914 78.28125 C72.54456148 80.169714 71.47612146 80.6500088 67.85961914 80.84375 C64.54404739 79.71882387 62.90984467 78.67042846 60.23461914 76.53125 C57.36701871 74.15084163 57.36701871 74.15084163 53.79711914 73.46875 C51.56674737 74.55534138 49.88644597 75.72620472 47.92211914 77.21875 C45.62309938 78.90469782 44.29951293 79.67192988 41.48461914 80.40625 C37.98191373 79.5656007 36.6428265 78.39092931 33.92211914 76.09375 C30.93218031 73.45736602 30.93218031 73.45736602 27.22680664 72.4140625 C25.09968039 72.69990593 25.09968039 72.69990593 22.35961914 73.65625 C22.15336914 74.543125 21.94711914 75.43 21.73461914 76.34375 C20.0860073 80.31540579 18.13199276 82.66253823 14.35961914 84.65625 C10.81739586 85.30925052 7.38712209 85.22163737 3.79711914 85.09375 C2.81855957 85.07997314 1.84 85.06619629 0.83178711 85.05200195 C-4.59864916 84.92762368 -9.69722166 84.41863059 -15.01538086 83.34375 C-19.35894979 82.51369625 -21.49314294 82.5941398 -25.26538086 84.96875 C-25.85577148 85.43925781 -26.44616211 85.90976563 -27.05444336 86.39453125 C-31.81841289 90.18458583 -38.9437934 88.95428246 -44.64038086 88.65625 C-47.20228963 88.27647552 -49.72380914 87.86046256 -52.26538086 87.37890625 C-53.77138071 87.1032311 -55.27740396 86.82768375 -56.78344727 86.55224609 C-57.57358215 86.40591736 -58.36371704 86.25958862 -59.17779541 86.10882568 C-62.55476562 85.48820373 -65.93592204 84.89211999 -69.31706238 84.29470825 C-80.57959799 82.30208144 -91.82831548 80.23630569 -103.07098389 78.13470459 C-105.43131811 77.69518016 -107.79270732 77.26194521 -110.15454102 76.83056641 C-113.88709605 76.1449664 -117.60780195 75.40681091 -121.32788086 74.65625 C-122.36928223 74.46828857 -123.41068359 74.28032715 -124.48364258 74.08666992 C-131.88890484 72.51876639 -136.79451879 69.51807127 -141.64038086 63.65625 C-143.7513082 60.24796447 -145.31707807 56.7389393 -146.82788086 53.03125 C-147.24150879 52.06864258 -147.65513672 51.10603516 -148.08129883 50.11425781 C-148.90396109 48.193963 -149.71707503 46.26954464 -150.51977539 44.34082031 C-151.52159199 41.94082568 -152.55261964 39.55773439 -153.60522461 37.1796875 C-157.64038086 28.01996258 -157.64038086 28.01996258 -157.64038086 25.65625 C-152.28641626 23.37075713 -146.92953944 21.09228694 -141.56982422 18.8203125 C-139.74641183 18.04620242 -137.92381451 17.27016954 -136.10205078 16.4921875 C-133.48543099 15.37515514 -130.86597112 14.26503928 -128.24584961 13.15625 C-127.43012985 12.80626953 -126.6144101 12.45628906 -125.77397156 12.09570312 C-125.01340958 11.77537109 -124.2528476 11.45503906 -123.46923828 11.125 C-122.8008342 10.84076172 -122.13243011 10.55652344 -121.44377136 10.26367188 C-119.64038086 9.65625 -119.64038086 9.65625 -116.64038086 9.65625 C-116.4201123 10.27669189 -116.19984375 10.89713379 -115.97290039 11.53637695 C-114.94345864 14.36350451 -113.85560534 17.16453168 -112.76538086 19.96875 C-112.41991211 20.94521484 -112.07444336 21.92167969 -111.71850586 22.92773438 C-109.58764227 28.44766894 -109.58764227 28.44766894 -105.08862305 31.99365234 C-102.60064923 32.74004449 -100.21083075 33.29703729 -97.64038086 33.65625 C-97.3184375 32.77199341 -97.3184375 32.77199341 -96.98999023 31.86987305 C-95.16551717 28.87738078 -93.11256607 27.91234169 -90.04663086 26.23828125 C-88.37793945 25.31692383 -88.37793945 25.31692383 -86.67553711 24.37695312 C-85.49726603 23.74067365 -84.31887928 23.10460832 -83.14038086 22.46875 C-81.96144307 21.82196938 -80.78305086 21.17419322 -79.60522461 20.52539062 C-71.65907506 16.1655971 -71.65907506 16.1655971 -68.64038086 14.65625 C-67.65038086 17.29625 -66.66038086 19.93625 -65.64038086 22.65625 C-64.95935303 22.50478516 -64.2783252 22.35332031 -63.57666016 22.19726562 C-60.49444499 21.51367274 -57.41118634 20.83490736 -54.32788086 20.15625 C-53.25602539 19.91777344 -52.18416992 19.67929688 -51.07983398 19.43359375 C-50.05180664 19.20800781 -49.0237793 18.98242188 -47.96459961 18.75 C-46.54280396 18.43579102 -46.54280396 18.43579102 -45.09228516 18.11523438 C-42.64038086 17.65625 -42.64038086 17.65625 -39.64038086 17.65625 C-39.56561523 16.94339844 -39.49084961 16.23054688 -39.41381836 15.49609375 C-38.48405521 8.72340728 -37.03251648 4.08089717 -31.64038086 -0.34375 C-22.89510129 -5.67945896 -9.5530822 -1.79843068 0 0 Z M-6.70288086 55.53125 C-7.54399414 55.70527344 -8.38510742 55.87929687 -9.25170898 56.05859375 C-10.45150391 56.31962891 -10.45150391 56.31962891 -11.67553711 56.5859375 C-12.77973999 56.82159424 -12.77973999 56.82159424 -13.90625 57.06201172 C-15.85630141 57.50379477 -15.85630141 57.50379477 -16.64038086 59.65625 C-16.32274433 61.65521911 -16.32274433 61.65521911 -15.70288086 63.78125 C-15.50823242 64.50570312 -15.31358398 65.23015625 -15.11303711 65.9765625 C-14.95706055 66.53085938 -14.80108398 67.08515625 -14.64038086 67.65625 C-12.39295041 68.18806175 -10.14230984 68.70632126 -7.89038086 69.21875 C-6.63741211 69.50878906 -5.38444336 69.79882812 -4.09350586 70.09765625 C-0.52761023 70.90738448 -0.52761023 70.90738448 3.35961914 69.65625 C3.68961914 64.37625 4.01961914 59.09625 4.35961914 53.65625 C0.61100955 53.65625 -3.05219699 54.73872278 -6.70288086 55.53125 Z " fill="#BA6745" transform="translate(294.640380859375,163.34375)"/>
<path d="M0 0 C1.4488282 -0.01429802 1.4488282 -0.01429802 2.92692566 -0.02888489 C4.48930717 -0.02751778 4.48930717 -0.02751778 6.08325195 -0.02612305 C7.169272 -0.03040817 8.25529205 -0.0346933 9.3742218 -0.03910828 C11.67997543 -0.04485484 13.98574719 -0.04534945 16.29150391 -0.04101562 C19.7634331 -0.03789403 23.23447741 -0.0611764 26.70629883 -0.08666992 C37.94643261 -0.11758938 48.63676424 0.21860448 59.64453125 2.59277344 C66.13375045 3.86083397 73.14720668 4.73097564 79.21182919 1.77398586 C83.72102859 -0.20015217 87.95768614 -0.14599775 92.81898499 -0.11302185 C93.77628382 -0.11840739 94.73358265 -0.12379293 95.71989053 -0.12934166 C98.9180472 -0.14361509 102.11578962 -0.13651896 105.31396484 -0.12939453 C107.61065503 -0.13509832 109.90734239 -0.14206261 112.20402527 -0.15019226 C118.43526073 -0.16813538 124.66635546 -0.16695335 130.897609 -0.16124988 C136.09919705 -0.15816045 141.30075797 -0.16424757 146.50234216 -0.17028862 C159.47224416 -0.18513827 172.44205798 -0.18151703 185.41195845 -0.16942532 C196.6722123 -0.15948822 207.93230194 -0.17244328 219.19253046 -0.19635951 C230.76187067 -0.22074677 242.33111572 -0.22995979 253.90048307 -0.22370678 C260.39296153 -0.2203327 266.88530423 -0.22278269 273.37776375 -0.23995781 C279.48045247 -0.25539752 285.58282684 -0.25150419 291.68550301 -0.23265266 C293.92605529 -0.22895892 296.16663071 -0.23209799 298.40716171 -0.24253845 C301.4638276 -0.25569555 304.51944464 -0.24424721 307.57606506 -0.22654724 C308.46429508 -0.23615225 309.35252509 -0.24575725 310.26767117 -0.25565332 C315.68785206 -0.19099745 318.86333188 0.61274701 323.1340332 4.2746582 C325.73604764 9.30671485 325.43315948 14.67317043 325.3840332 20.2121582 C325.39176758 21.0803418 325.39950195 21.94852539 325.4074707 22.84301758 C325.39205847 27.94061518 325.19920176 32.53307868 323.1340332 37.2746582 C318.05747349 41.6932915 313.93274296 41.84929047 307.52896118 41.79364014 C306.08794448 41.80489201 306.08794448 41.80489201 304.61781633 41.8163712 C301.40246154 41.83665236 298.18781164 41.82854462 294.97241211 41.82055664 C292.6661306 41.82929138 290.35985515 41.83977682 288.05358887 41.85188293 C281.79376513 41.87977534 275.53413882 41.88314689 269.27426195 41.88216305 C262.73189895 41.88528933 256.18962524 41.91090166 249.64730835 41.93414307 C238.66681327 41.97077816 227.68635918 41.99221083 216.70581055 42.00366211 C205.39718257 42.01549358 194.08862049 42.03569603 182.7800293 42.06713867 C182.08264867 42.06907477 181.38526805 42.07101088 180.66675468 42.07300565 C177.16810542 42.08277035 173.66945664 42.09269943 170.17080808 42.10271025 C141.1585866 42.18551141 112.1463504 42.23921435 83.1340332 42.2746582 C88.59935599 47.76327793 94.06747137 53.24909913 99.53904724 58.73148441 C102.08035679 61.27798515 104.62073925 63.82539585 107.15893555 66.375 C109.61411185 68.84114026 112.07181112 71.30474121 114.53118896 73.76669121 C115.91305225 75.15126776 117.29237395 76.53837944 118.67163086 77.92555237 C123.14023164 82.39454548 127.65875484 86.73147602 132.46369076 90.8384676 C136.90796028 94.65973081 141.02280878 98.85145502 145.1965332 102.9621582 C145.68500732 103.43177979 146.17348145 103.90140137 146.67675781 104.38525391 C148.1027191 105.75678016 149.51127974 107.14632656 150.91918945 108.53637695 C152.17034546 109.75780396 152.17034546 109.75780396 153.44677734 111.00390625 C155.1340332 113.2746582 155.1340332 113.2746582 155.12719727 115.33422852 C153.89233158 117.74689137 152.44959022 119.21819733 150.45825195 121.05981445 C149.7125293 121.75526367 148.96680664 122.45071289 148.19848633 123.16723633 C147.4140918 123.88331055 146.62969727 124.59938477 145.8215332 125.3371582 C145.04874023 126.05709961 144.27594727 126.77704102 143.47973633 127.51879883 C140.13585549 130.61541075 136.82077505 133.58837505 133.1340332 136.2746582 C132.6493457 135.77836914 132.1646582 135.28208008 131.6652832 134.77075195 C130.9949707 134.09141602 130.3246582 133.41208008 129.6340332 132.7121582 C128.65950195 131.72022461 128.65950195 131.72022461 127.6652832 130.70825195 C125.65759068 128.7780167 123.6256157 126.96557261 121.51293945 125.15576172 C116.98982523 121.20822281 112.76020451 117.01046413 108.5402832 112.7434082 C107.74932251 111.94866089 106.95836182 111.15391357 106.14343262 110.33508301 C102.79384747 106.96930272 99.4503005 103.59754772 96.10620117 100.22631836 C93.64882381 97.75075593 91.18837263 95.27827738 88.7277832 92.8059082 C87.98484009 92.05466675 87.24189697 91.30342529 86.47644043 90.52941895 C82.41473766 86.44893426 78.26567806 82.54513034 73.89051819 78.80162048 C71.16473316 76.43201815 68.6124011 73.90198444 66.0715332 71.3371582 C65.55115479 70.81484619 65.03077637 70.29253418 64.49462891 69.75439453 C61.83681099 67.0666995 59.26603845 64.34768244 56.8215332 61.4621582 C56.05848877 60.60823486 56.05848877 60.60823486 55.2800293 59.73706055 C54.08538765 58.36628061 52.90481841 56.98146673 51.78491211 55.54898071 C44.08075778 45.76379522 44.08075778 45.76379522 32.97607422 41.02392578 C27.32871672 40.54994169 21.72225097 40.79060655 16.0715332 41.0871582 C13.1668497 41.17866141 10.26323729 41.24841237 7.3575592 41.29899597 C5.5659304 41.33646506 3.77458882 41.40048384 1.98509216 41.49555969 C-3.48974502 41.68903927 -6.58929888 41.06418904 -10.8659668 37.2746582 C-14.30522316 32.49653518 -13.23484595 25.95915693 -13.2409668 20.3371582 C-13.26545898 19.15702148 -13.28995117 17.97688477 -13.31518555 16.76098633 C-13.31905273 15.62209961 -13.32291992 14.48321289 -13.3269043 13.30981445 C-13.33512207 12.27219971 -13.34333984 11.23458496 -13.35180664 10.16552734 C-12.73661385 6.50497566 -11.45581493 4.89553442 -8.8659668 2.2746582 C-5.82808791 0.4146746 -3.53924845 0.01927844 0 0 Z " fill="#783C28" transform="translate(186.865966796875,247.725341796875)"/>
<path d="M0 0 C0.33 0 0.66 0 1 0 C1.05607422 1.32064453 1.05607422 1.32064453 1.11328125 2.66796875 C1.17902344 3.82941406 1.24476563 4.99085938 1.3125 6.1875 C1.37050781 7.33605469 1.42851562 8.48460937 1.48828125 9.66796875 C2.0349402 13.22751138 2.80193711 15.1681707 5 18 C7.83660233 19.743726 9.75211154 20.22386892 13.05224609 19.96972656 C13.8425119 19.91957397 14.63277771 19.86942139 15.44699097 19.81774902 C16.722332 19.73007263 16.722332 19.73007263 18.0234375 19.640625 C50.97860185 18.0975464 50.97860185 18.0975464 61.23104858 26.53387451 C62.70778126 27.88266021 64.10551905 29.31633855 65.5 30.75 C66.3564209 31.61786133 67.2128418 32.48572266 68.09521484 33.37988281 C74.91610917 41.62029561 75.67699511 50.3450481 76.65771484 60.59686279 C77.04364884 64.43397439 77.50492436 68.2596557 77.98046875 72.08642578 C78.82570603 78.91601085 79.63765263 85.7487648 80.42698669 92.58503151 C80.97769066 97.35327331 81.5388473 102.12011039 82.10835648 106.88614178 C82.47749155 109.99534342 82.83711659 113.10559369 83.19423676 116.21619606 C83.3645056 117.68483826 83.53828088 119.15307892 83.71585846 120.62085533 C85.12135841 132.27840139 85.98782624 141.569593 80 152 C73.96910596 152.34107688 67.93891024 152.62848703 61.90307617 152.86669922 C59.85095812 152.95520988 57.79941404 153.05828736 55.7487793 153.17626953 C52.79766939 153.34351577 49.84844674 153.45799609 46.89453125 153.5625 C45.97976517 153.62566406 45.06499908 153.68882812 44.12251282 153.75390625 C38.09195666 153.89844791 38.09195666 153.89844791 35.34817505 151.64089966 C31.14965621 145.82212488 30.70762982 138.8047876 29.953125 131.8671875 C29.79604065 130.56707733 29.6389563 129.26696716 29.47711182 127.92745972 C29.04868805 124.36845862 28.6464834 120.80696181 28.25082397 117.2441864 C27.9114185 114.20743862 27.55970732 111.17215764 27.20865631 108.13673782 C26.1091831 98.61622216 25.05756748 89.09068794 24.0168457 79.56359863 C23.56325612 75.41842063 23.10564337 71.27368665 22.6484375 67.12890625 C21.76183803 59.0863505 20.879451 51.04334057 20 43 C18.71609375 42.89945312 17.4321875 42.79890625 16.109375 42.6953125 C8.08473164 41.88834941 0.17698381 40.32798126 -7.75 38.875 C-9.45722868 38.56468433 -11.1645049 38.2546301 -12.87182617 37.94482422 C-16.42917535 37.29841717 -19.98600893 36.64926485 -23.54248047 35.99804688 C-28.10584185 35.16263299 -32.67032939 34.33356744 -37.23519897 33.50643921 C-40.75109558 32.86877482 -44.26643989 32.22810885 -47.78161621 31.58648682 C-49.46562085 31.27942177 -51.1497841 30.97322528 -52.83410645 30.66790771 C-55.17772691 30.24255207 -57.5205878 29.81324033 -59.86328125 29.3828125 C-60.90894005 29.19419647 -60.90894005 29.19419647 -61.97572327 29.00177002 C-66.77133208 28.11433396 -66.77133208 28.11433396 -69 27 C-68.69128878 25.20767663 -68.37790936 23.41615679 -68.0625 21.625 C-67.88847656 20.62726563 -67.71445313 19.62953125 -67.53515625 18.6015625 C-67 16 -67 16 -66 14 C-61.43841631 14.43033808 -57.42195811 15.14934233 -53.0625 16.5625 C-40.22892075 20.18588886 -26.13473383 18.8317264 -14.3125 12.75 C-8.72970823 9.43647251 -3.61508497 5.42262746 0 0 Z " fill="#55696D" transform="translate(173,268)"/>
<path d="M0 0 C8.24324768 0.65056625 16.32299684 2.0064924 24.45825195 3.45263672 C25.8899689 3.70436034 27.32173821 3.95578628 28.7535553 4.2069397 C32.61334895 4.88512482 36.47226221 5.56819134 40.33092904 6.25275564 C42.74470911 6.68082745 45.15865368 7.10795926 47.57265282 7.53479385 C56.00173207 9.0253853 64.4300104 10.52042441 72.85766602 12.01904297 C80.7042723 13.41419706 88.55269765 14.7987705 96.40200073 16.17866313 C103.155108 17.36638626 109.90679534 18.56196071 116.65744942 19.76354802 C120.68358977 20.48001738 124.71024539 21.19320258 128.7383976 21.8982811 C132.5214999 22.56070544 136.30274281 23.23286872 140.08278465 23.91253281 C141.46846991 24.15996437 142.8547827 24.4039112 144.241745 24.64408112 C146.13726404 24.97287271 148.0303569 25.31556078 149.92329407 25.65890503 C150.98235112 25.84657377 152.04140818 26.03424252 153.13255787 26.22759819 C156.51941628 27.13991497 159.48839373 28.48839373 162 31 C162.68085433 37.50739619 161.8884331 43.95993313 160.8125 50.375 C160.71163086 51.05248291 160.61076172 51.72996582 160.50683594 52.42797852 C159.59464164 57.3891107 157.78558461 59.76194163 154 63 C153.34 63.66 152.68 64.32 152 65 C149.65625 65.80078125 149.65625 65.80078125 147 66 C144.71875 64.85546875 144.71875 64.85546875 142.5 63.1875 C138.09591837 59.88904981 138.09591837 59.88904981 133 58 C130.20714985 59.33072299 130.20714985 59.33072299 127.5625 61.4375 C122.78290053 65.02049989 122.78290053 65.02049989 118.8671875 64.91796875 C115.88404622 63.96287583 114.66461235 63.12913543 112.5625 60.875 C109.84843914 58.3995379 109.36065068 58.01932057 105.5 57.8125 C101.89121877 59.03690792 99.62768267 60.48397077 96.7734375 62.94140625 C94.30878618 64.41259679 92.82921174 64.40847282 90 64 C87.55565983 62.35927852 85.4814184 60.4835121 83.28125 58.53125 C80.53337471 56.68678576 79.24693426 56.4648476 76 57 C73.91772492 58.27685917 73.91772492 58.27685917 72.0625 60 C69.58095126 61.93986739 68.1355294 62.96251314 65.0625 63.8125 C60.89568881 62.70701948 58.39631427 60.31427668 55.24609375 57.43359375 C53.0870267 55.75122751 53.0870267 55.75122751 50.46484375 56.12109375 C47.96963261 57.01082831 46.24296393 58.05190646 44.125 59.625 C41.18494234 61.513464 40.11650232 61.9937588 36.5 62.1875 C33.18442824 61.06257387 31.55022553 60.01417846 28.875 57.875 C26.00739957 55.49459163 26.00739957 55.49459163 22.4375 54.8125 C20.20712823 55.89909138 18.52682683 57.06995472 16.5625 58.5625 C14.26348024 60.24844782 12.93989379 61.01567988 10.125 61.75 C6.62229459 60.9093507 5.28320735 59.73467931 2.5625 57.4375 C-0.42743883 54.80111602 -0.42743883 54.80111602 -4.1328125 53.7578125 C-6.25993875 54.04365593 -6.25993875 54.04365593 -9 55 C-9.16700955 49.58647914 -8.55991708 44.66477372 -7.5390625 39.35546875 C-7.38843353 38.54564041 -7.23780457 37.73581207 -7.08261108 36.90144348 C-6.60261174 34.32898813 -6.11389 31.75827881 -5.625 29.1875 C-5.30412515 27.47341247 -4.98380772 25.75922049 -4.6640625 24.04492188 C-3.16269705 16.01910771 -1.62819515 8.00118123 0 0 Z " fill="#A5C7CC" transform="translate(326,182)"/>
<path d="M0 0 C0.87180908 0.00572021 1.74361816 0.01144043 2.6418457 0.01733398 C16.46570251 0.39654203 26.62860266 6.41606589 36 16.25 C43.3630117 25.09928088 46.82293682 36.64577005 46.5 48.08984375 C45.22286227 60.40224966 40.49125707 72.08135483 31.25 80.5 C20.04085619 89.28408866 7.4315266 93.0580601 -6.75 91.5 C-19.56299216 88.8964468 -30.09534708 83.24279616 -37.75 72.5 C-45.06357732 60.31070447 -47.68676306 48.50439555 -44.625 34.5 C-40.8802617 21.0537769 -33.39746391 11.92532573 -21.53515625 4.82421875 C-14.3898871 1.42695894 -7.91051904 -0.06085607 0 0 Z " fill="#B96646" transform="translate(178.75,-0.5)"/>
<path d="M0 0 C8.42059502 4.46802997 11.82818711 13.42520587 15.375 21.8125 C15.83624268 22.88250244 16.29748535 23.95250488 16.77270508 25.05493164 C20.38408656 33.48311435 23.89390195 41.9547785 27.375 50.4375 C27.85670654 51.61030518 28.33841309 52.78311035 28.8347168 53.99145508 C29.27468994 55.07579834 29.71466309 56.1601416 30.16796875 57.27734375 C30.55879639 58.23890381 30.94962402 59.20046387 31.35229492 60.19116211 C32.1875 62.5 32.1875 62.5 32.1875 64.5 C26.99775579 66.81166383 21.80167315 69.10817582 16.59912109 71.39086914 C14.83004102 72.16960839 13.06276761 72.95246531 11.29736328 73.73950195 C8.7601697 74.86975823 6.21685787 75.98507079 3.671875 77.09765625 C2.88319031 77.452798 2.09450562 77.80793976 1.28192139 78.17384338 C0.54145569 78.49425095 -0.19901001 78.81465851 -0.96191406 79.14477539 C-1.61033264 79.43123428 -2.25875122 79.71769318 -2.92681885 80.01283264 C-5.30746366 80.62787429 -6.55570153 80.46839563 -8.8125 79.5 C-9.89852905 77.96212769 -9.89852905 77.96212769 -10.73193359 75.95263672 C-11.0526181 75.20029755 -11.37330261 74.44795837 -11.70370483 73.67282104 C-12.202285 72.43871994 -12.202285 72.43871994 -12.7109375 71.1796875 C-13.06838043 70.32883575 -13.42582336 69.47798401 -13.7940979 68.60134888 C-14.93952945 65.86494133 -16.06356956 63.12029881 -17.1875 60.375 C-17.93613546 58.57885773 -18.68612136 56.7832777 -19.4375 54.98828125 C-21.25125201 50.64340345 -23.04169626 46.28948028 -24.8197937 41.92990112 C-25.76208502 39.62340349 -26.71251546 37.32041201 -27.66430664 35.01782227 C-28.21288927 33.67744528 -28.76101656 32.3368818 -29.30859375 30.99609375 C-29.77966553 29.84810303 -30.2507373 28.7001123 -30.73608398 27.51733398 C-33.04481043 21.04567371 -32.52261429 16.54668781 -29.8125 10.3125 C-23.71106445 -0.87927607 -11.80884881 -4.5511183 0 0 Z " fill="#F2C41B" transform="translate(144.8125,108.5)"/>
<path d="M0 0 C2.18409707 0.40849022 4.37170739 0.79112236 6.56079102 1.171875 C23.0065328 4.13121052 23.0065328 4.13121052 28.79711914 10.21875 C33.75626381 17.95501569 30.85356552 27.15375263 29.10961914 35.53125 C26.97933779 46.04456202 25.22652617 56.55914597 23.88012695 67.20263672 C22.92293852 74.07985115 21.8599333 78.55240854 16.52319336 83.28466797 C13.99202899 84.88928108 12.58688628 85.04238757 9.61352539 85.0546875 C8.69909668 85.06048828 7.78466797 85.06628906 6.8425293 85.07226562 C5.87879395 85.05873047 4.91505859 85.04519531 3.92211914 85.03125 C2.4494458 85.02254883 2.4494458 85.02254883 0.94702148 85.01367188 C-6.5927448 84.87963159 -13.4245133 83.94354387 -20.64038086 81.65625 C-20.36323242 80.98078125 -20.08608398 80.3053125 -19.80053711 79.609375 C-19.43831055 78.71734375 -19.07608398 77.8253125 -18.70288086 76.90625 C-18.34323242 76.02453125 -17.98358398 75.1428125 -17.61303711 74.234375 C-16.7868151 72.04438896 -16.14668143 69.93726729 -15.64038086 67.65625 C-9.98416934 68.14143293 -4.38659318 68.81693222 1.22290039 69.6953125 C2.37701416 69.87529785 3.53112793 70.0552832 4.72021484 70.24072266 C5.59121826 70.37784668 6.46222168 70.5149707 7.35961914 70.65625 C8.81003771 63.18390838 10.24794438 55.70925162 11.67504883 48.23242188 C12.11558086 45.9310976 12.55872997 43.63027195 13.00512695 41.33007812 C13.58963113 38.31526709 14.1634483 35.2986112 14.73461914 32.28125 C14.91412109 31.36778809 15.09362305 30.45432617 15.27856445 29.51318359 C15.43679688 28.66578613 15.5950293 27.81838867 15.75805664 26.9453125 C15.89904785 26.21006348 16.04003906 25.47481445 16.18530273 24.71728516 C16.37588898 22.46388302 16.026379 20.80429469 15.35961914 18.65625 C14.68382812 18.54031494 14.00803711 18.42437988 13.31176758 18.30493164 C10.24411488 17.77776116 7.17686529 17.24828055 4.10961914 16.71875 C3.04614258 16.53634766 1.98266602 16.35394531 0.88696289 16.16601562 C-0.1378418 15.98876953 -1.16264648 15.81152344 -2.21850586 15.62890625 C-3.16113281 15.46656494 -4.10375977 15.30422363 -5.07495117 15.13696289 C-7.29257833 14.7214216 -9.45995251 14.23276243 -11.64038086 13.65625 C-11.61476074 14.65422607 -11.58914063 15.65220215 -11.56274414 16.68041992 C-11.6410537 20.69070642 -12.15415696 24.3281911 -12.88256836 28.26953125 C-13.01100128 28.96515671 -13.1394342 29.66078217 -13.27175903 30.37748718 C-13.54267648 31.8343621 -13.81679629 33.29064488 -14.09399414 34.74633789 C-14.51716328 36.97815056 -14.9250056 39.21241486 -15.33178711 41.44726562 C-15.59779897 42.86735924 -15.86469456 44.28728767 -16.13256836 45.70703125 C-16.37346191 46.99262939 -16.61435547 48.27822754 -16.86254883 49.6027832 C-17.64038086 52.65625 -17.64038086 52.65625 -19.64038086 54.65625 C-20.52725586 53.74875 -21.41413086 52.84125 -22.32788086 51.90625 C-28.28480464 46.74276894 -36.172563 45.51943386 -43.64038086 43.65625 C-42.89017395 36.39149127 -41.88354689 29.18561546 -40.76538086 21.96875 C-40.52368164 20.31649414 -40.52368164 20.31649414 -40.27709961 18.63085938 C-38.87206661 9.60706216 -37.03657805 4.16405642 -29.64038086 -1.34375 C-21.54376971 -5.39205557 -8.62069569 -1.62290277 0 0 Z " fill="#E54937" transform="translate(294.640380859375,163.34375)"/>
<path d="M0 0 C5.809985 0.06721954 11.57250826 0.56458062 17.35766602 1.07519531 C19.10631454 1.22532829 19.10631454 1.22532829 20.89028931 1.37849426 C24.68057676 1.70545522 28.47030015 2.03848347 32.26000977 2.37207031 C34.90103895 2.60183783 37.54207088 2.8315739 40.18310547 3.0612793 C55.53946786 4.40496763 70.88350689 5.83772108 86.21643066 7.42608643 C96.03896799 8.44300007 105.86418386 9.36877181 115.70532227 10.18847656 C116.77126114 10.27740677 117.83720001 10.36633698 118.93544006 10.45796204 C124.14214502 10.89026901 129.34938702 11.31426918 134.55761719 11.7277832 C152.65612081 13.19128255 152.65612081 13.19128255 161.19750977 15.12207031 C161.51000977 17.80957031 161.51000977 17.80957031 161.19750977 21.12207031 C158.82250977 23.87207031 158.82250977 23.87207031 156.19750977 26.12207031 C155.53750977 26.78207031 154.87750977 27.44207031 154.19750977 28.12207031 C151.85375977 28.92285156 151.85375977 28.92285156 149.19750977 29.12207031 C146.91625977 27.97753906 146.91625977 27.97753906 144.69750977 26.30957031 C140.29342813 23.01112012 140.29342813 23.01112012 135.19750977 21.12207031 C132.40465962 22.4527933 132.40465962 22.4527933 129.76000977 24.55957031 C124.98041029 28.1425702 124.98041029 28.1425702 121.06469727 28.04003906 C118.08155599 27.08494615 116.86212211 26.25120575 114.76000977 23.99707031 C112.04594891 21.52160821 111.55816045 21.14139088 107.69750977 20.93457031 C104.08872854 22.15897823 101.82519244 23.60604108 98.97094727 26.06347656 C96.50629595 27.53466711 95.0267215 27.53054313 92.19750977 27.12207031 C89.75316959 25.48134883 87.67892817 23.60558242 85.47875977 21.65332031 C82.73088447 19.80885608 81.44444403 19.58691791 78.19750977 20.12207031 C76.11523469 21.39892948 76.11523469 21.39892948 74.26000977 23.12207031 C71.77846103 25.0619377 70.33303917 26.08458346 67.26000977 26.93457031 C63.09319858 25.82908979 60.59382403 23.43634699 57.44360352 20.55566406 C55.28453647 18.87329782 55.28453647 18.87329782 52.66235352 19.24316406 C50.16714237 20.13289862 48.4404737 21.17397677 46.32250977 22.74707031 C43.3824521 24.63553432 42.31401209 25.11582912 38.69750977 25.30957031 C35.38193801 24.18464418 33.74773529 23.13624878 31.07250977 20.99707031 C28.20490933 18.61666194 28.20490933 18.61666194 24.63500977 17.93457031 C22.40463799 19.02116169 20.7243366 20.19202503 18.76000977 21.68457031 C16.46099001 23.37051813 15.13740355 24.13775019 12.32250977 24.87207031 C8.81980436 24.03142101 7.48071712 22.85674962 4.76000977 20.55957031 C1.77007094 17.92318633 1.77007094 17.92318633 -1.93530273 16.87988281 C-4.06242898 17.16572624 -4.06242898 17.16572624 -6.80249023 18.12207031 C-7.05747803 12.25735102 -6.29434543 6.80636529 -4.80249023 1.12207031 C-3.80249023 0.12207031 -3.80249023 0.12207031 0 0 Z " fill="#C7E5EA" transform="translate(323.802490234375,218.8779296875)"/>
<path d="M0 0 C6.00933697 -0.34978231 12.01259782 -0.60171295 18.02978516 -0.76904297 C20.06924736 -0.83885892 22.10802401 -0.93396555 24.14501953 -1.05615234 C41.97195911 -2.09758868 41.97195911 -2.09758868 48.27246094 2.93261719 C51.35383277 5.83836576 54.03862045 9.01645453 56.65219116 12.34368896 C58.36070944 14.44327282 60.27040236 16.15498982 62.35546875 17.875 C66.5151678 21.41102114 70.42544131 25.1679988 74.3125 29 C75.01439453 29.67289062 75.71628906 30.34578125 76.43945312 31.0390625 C81.09826011 35.64013403 84.61808534 39.6600607 85.21484375 46.44140625 C84.41092186 52.58971027 82.6363248 56.60334109 77.9375 60.875 C73.40217682 62.61193228 68.79092304 62.70211803 64 62 C50.68182214 54.96371986 39.73393215 40.82618548 29.25 30.25 C26.17486533 27.14805286 23.0962712 24.04959745 20.015625 20.953125 C19.32897766 20.25817932 18.64233032 19.56323364 17.93487549 18.847229 C13.99489084 14.88756663 9.94885847 11.11883593 5.71234131 7.47747803 C3.69775059 5.73920686 1.7690964 3.99023345 0 2 C0 1.34 0 0.68 0 0 Z " fill="#773B27" transform="translate(389,450)"/>
<path d="M0 0 C5.97282736 0.72418807 11.92622525 1.53687028 17.875 2.4375 C18.72835938 2.55931641 19.58171875 2.68113281 20.4609375 2.80664062 C21.275625 2.93103516 22.0903125 3.05542969 22.9296875 3.18359375 C24.03159424 3.34686157 24.03159424 3.34686157 25.15576172 3.51342773 C27 4 27 4 29 6 C28.86328125 8.67773438 28.86328125 8.67773438 28.3125 12.09375 C28.11140625 13.35574219 27.9103125 14.61773437 27.703125 15.91796875 C27.47098091 17.27902822 27.23657332 18.6397034 27 20 C26.88462891 20.66789551 26.76925781 21.33579102 26.65039062 22.02392578 C25.92991083 26.15474295 25.17291611 30.27798064 24.39550781 34.3984375 C23.99528055 36.52507717 23.60291824 38.65307666 23.2109375 40.78125 C22.95359337 42.15633774 22.69579765 43.53134105 22.4375 44.90625 C22.09525391 46.73639648 22.09525391 46.73639648 21.74609375 48.60351562 C21.03573302 51.83733056 20.10957241 54.88319682 19 58 C15.125 57.125 15.125 57.125 14 56 C14.06471782 54.24673544 14.20227376 52.49593546 14.375 50.75 C14.46523438 49.79609375 14.55546875 48.8421875 14.6484375 47.859375 C14.97536203 45.20038884 15.43629972 42.61786232 16 40 C14.91460937 40.28875 13.82921875 40.5775 12.7109375 40.875 C11.2657237 41.25038021 9.82040559 41.62535897 8.375 42 C7.66214844 42.19078125 6.94929688 42.3815625 6.21484375 42.578125 C2.04151456 43.65017287 -1.65178751 44.21946814 -6 44 C-7.5059574 40.9880852 -6.62067927 38.7061393 -6.07421875 35.41015625 C-5.96656693 34.75099716 -5.8589151 34.09183807 -5.7480011 33.41270447 C-5.40051271 31.29492743 -5.04402369 29.17877265 -4.6875 27.0625 C-4.45841549 25.67131752 -4.22989372 24.28004224 -4.00195312 22.88867188 C-2.74350613 15.24536223 -1.41848248 7.61538316 0 0 Z " fill="#A5593F" transform="translate(283,177)"/>
<path d="M0 0 C2.49458559 0.95516016 3.78120609 2.12530448 5.6622467 4.01786804 C6.34265015 4.69527039 7.02305359 5.37267273 7.72407532 6.07060242 C8.44713867 6.80601257 9.17020203 7.54142273 9.91517639 8.29911804 C10.66418213 9.04999695 11.41318787 9.80087585 12.18489075 10.57450867 C13.76517056 12.16150817 15.34184974 13.75210003 16.91517639 15.34599304 C19.33450251 17.79653627 21.76439571 20.23618915 24.19642639 22.67411804 C25.72830313 24.21516195 27.25957438 25.75680804 28.79017639 27.29911804 C29.52133667 28.0345282 30.25249695 28.76993835 31.0058136 29.52763367 C31.6736084 30.20503601 32.3414032 30.88243835 33.0294342 31.58036804 C33.62137573 32.17913757 34.21331726 32.7779071 34.82319641 33.39482117 C36.08705139 34.79911804 36.08705139 34.79911804 36.08705139 35.79911804 C30.00412254 36.0230084 23.92363244 36.18555934 17.83753967 36.29350281 C15.77135912 36.33853205 13.70546164 36.39977917 11.64027405 36.47807312 C-7.73705428 37.19384599 -7.73705428 37.19384599 -14.07701111 31.51396179 C-15.40197539 29.98119396 -16.68499949 28.41065412 -17.91294861 26.79911804 C-18.67268982 26.12437439 -19.43243103 25.44963074 -20.2151947 24.75444031 C-21.91294861 22.79911804 -21.91294861 22.79911804 -21.92002869 20.835495 C-19.594628 16.13339387 -15.27337964 12.6487859 -11.60044861 8.98661804 C-10.73226501 8.09007507 -9.86408142 7.1935321 -8.96958923 6.26982117 C-8.12976501 5.42741882 -7.2899408 4.58501648 -6.42466736 3.71708679 C-5.65598328 2.94131287 -4.88729919 2.16553894 -4.09532166 1.36625671 C-1.91294861 -0.20088196 -1.91294861 -0.20088196 0 0 Z " fill="#773B27" transform="translate(364.91294860839844,384.2008819580078)"/>
<path d="M0 0 C2 4 2 4 4 8 C4.68102783 7.84853516 5.36205566 7.69707031 6.0637207 7.54101562 C9.14593587 6.85742274 12.22919452 6.17865736 15.3125 5.5 C16.9202832 5.14228516 16.9202832 5.14228516 18.56054688 4.77734375 C19.58857422 4.55175781 20.61660156 4.32617188 21.67578125 4.09375 C22.62364502 3.88427734 23.57150879 3.67480469 24.5480957 3.45898438 C27 3 27 3 30 3 C29.38641858 11.80171974 27.70450615 20.35954742 26 29 C16.66487037 27.76343856 7.43178333 26.21715257 -1.80639648 24.39550781 C-3.82791026 23.99696183 -5.85037095 23.60353878 -7.87304688 23.2109375 C-14.60397172 21.89908989 -21.3149649 20.529689 -28 19 C-26.50042527 14.86727372 -24.15358749 13.63459079 -20.37109375 11.58203125 C-19.25412109 10.96779297 -18.13714844 10.35355469 -16.98632812 9.72070312 C-15.8036038 9.08422944 -14.62065835 8.4481665 -13.4375 7.8125 C-11.12195897 6.55134302 -8.80926857 5.28502897 -6.49609375 4.01953125 C-4.95199829 3.18578979 -4.95199829 3.18578979 -3.37670898 2.33520508 C-1.11577687 1.20582732 -1.11577687 1.20582732 0 0 Z " fill="#A5593E" transform="translate(225,178)"/>
<path d="M0 0 C1.68916993 2.5337549 2.47842729 4.11575417 3.34448242 6.93310547 C3.58780807 7.7175705 3.83113373 8.50203552 4.08183289 9.31027222 C4.33713272 10.15405426 4.59243256 10.9978363 4.85546875 11.8671875 C5.12136307 12.73892609 5.38725739 13.61066467 5.66120911 14.50881958 C6.22111053 16.35222476 6.7782274 18.19647767 7.33276367 20.04150391 C8.18324017 22.86087843 9.05116794 25.67449337 9.91992188 28.48828125 C10.46202047 30.28092287 11.00307109 32.07388179 11.54296875 33.8671875 C11.80434128 34.70692108 12.06571381 35.54665466 12.33500671 36.41183472 C14.6877032 44.36688178 14.6877032 44.36688178 13 48 C10.60742188 49.8527832 10.60742188 49.8527832 7.46875 51.55078125 C6.34855469 52.16630859 5.22835937 52.78183594 4.07421875 53.41601562 C2.88290797 54.04835697 1.69150051 54.68051622 0.5 55.3125 C-0.69223405 55.96267706 -1.88365156 56.61435381 -3.07421875 57.26757812 C-11.77786872 62 -11.77786872 62 -13 62 C-12.39264098 55.19757898 -10.67568371 49.01929683 -8.6875 42.5 C-8.05144533 40.3573458 -7.41733214 38.21411431 -6.78515625 36.0703125 C-6.47852051 35.03165039 -6.17188477 33.99298828 -5.85595703 32.92285156 C-2.63682928 21.93043927 -0.35937646 11.50004681 0 0 Z " fill="#F1C41C" transform="translate(211,132)"/>
<path d="M0 0 C1.32 0.66 2.64 1.32 4 2 C2.7262835 11.52290393 1.17637472 20.95940098 -0.60449219 30.3984375 C-1.00471945 32.52507717 -1.39708176 34.65307666 -1.7890625 36.78125 C-2.04640663 38.15633774 -2.30420235 39.53134105 -2.5625 40.90625 C-2.90474609 42.73639648 -2.90474609 42.73639648 -3.25390625 44.60351562 C-3.96426698 47.83733056 -4.89042759 50.88319682 -6 54 C-9.875 53.125 -9.875 53.125 -11 52 C-10.92422338 43.69882716 -9.08553347 35.47481497 -7.47094727 27.36499023 C-7.06126578 25.30629793 -6.65985604 23.24612247 -6.25976562 21.18554688 C-2.63674544 2.63674544 -2.63674544 2.63674544 0 0 Z " fill="#A7C0C3" transform="translate(308,181)"/>
<path d="M0 0 C1.98 0 3.96 0 6 0 C6.21824777 6.0018137 5.5056904 11.19233704 4 17 C2.125 17.625 2.125 17.625 0 18 C-2 16 -2 16 -2.01171875 13.57421875 C-1.90472656 12.62160156 -1.79773438 11.66898438 -1.6875 10.6875 C-1.58824219 9.74261719 -1.48898437 8.79773438 -1.38671875 7.82421875 C-1.02551961 5.18637051 -0.55480065 2.60329538 0 0 Z " fill="#C8E4E9" transform="translate(299,217)"/>
</svg>
