<?xml version="1.0" encoding="UTF-8"?>
<svg version="1.1" xmlns="http://www.w3.org/2000/svg" width="512" height="512">
<path d="M0 0 C1.78216164 -0.01902626 1.78216164 -0.01902626 3.60032654 -0.03843689 C4.88472122 -0.03550125 6.16911591 -0.03256561 7.49243164 -0.02954102 C8.8104628 -0.03478287 10.12849396 -0.04002472 11.48646545 -0.04542542 C14.27655604 -0.05435998 17.06636047 -0.05193011 19.85644531 -0.04199219 C23.42897424 -0.03050626 27.00051419 -0.05070459 30.57291317 -0.07990932 C33.98363843 -0.10268793 37.3941321 -0.09580413 40.80493164 -0.09204102 C42.72848732 -0.10889198 42.72848732 -0.10889198 44.69090271 -0.12608337 C45.88216263 -0.11670242 47.07342255 -0.10732147 48.30078125 -0.09765625 C49.34874374 -0.09749008 50.39670624 -0.09732391 51.47642517 -0.09715271 C54.94420844 0.53748983 56.09684237 1.62789726 58.21508789 4.40405273 C59.45415955 7.54806395 59.29035803 10.5631726 59.19824219 13.91259766 C59.07174764 19.45511804 58.99592558 24.99463727 58.9630003 30.53855419 C58.93930668 33.88208804 58.88427556 37.21837407 58.78662109 40.56103516 C58.02008964 59.86976088 58.02008964 59.86976088 66.92602539 76.29858398 C68.71795013 78.15446231 70.54823422 79.93577862 72.44410706 81.68504333 C75.34187674 84.49777469 77.72360024 87.68802534 80.15258789 90.90405273 C81.03253935 92.03677595 81.9140069 93.1683233 82.79711914 94.29858398 C83.59504883 95.32338867 84.39297852 96.34819336 85.21508789 97.40405273 C85.94083008 98.31541992 86.66657227 99.22678711 87.41430664 100.16577148 C88.04981445 100.9662793 88.68532227 101.76678711 89.34008789 102.59155273 C89.87891602 103.26573242 90.41774414 103.93991211 90.97290039 104.63452148 C93.57452021 108.34060255 93.33648049 111.78837727 93.32861328 116.17041016 C93.32875931 116.85359818 93.32890533 117.53678619 93.32905579 118.24067688 C93.32835958 120.4969908 93.32058085 122.75322199 93.31274414 125.00952148 C93.31087892 126.57465062 93.30945551 128.13978035 93.30845642 129.70491028 C93.30463941 133.82308567 93.29481607 137.94122576 93.28375244 142.05938721 C93.2735208 146.26216148 93.26895504 150.46494147 93.26391602 154.66772461 C93.25319308 162.91318532 93.23560287 171.15861057 93.21508789 179.40405273 C98.49508789 179.40405273 103.77508789 179.40405273 109.21508789 179.40405273 C109.17843018 178.0524707 109.14177246 176.70088867 109.10400391 175.30834961 C108.97681431 170.26929473 108.8967653 165.23038016 108.83056641 160.19018555 C108.79547439 158.01351014 108.74778684 155.83699843 108.68701172 153.66088867 C108.60159664 150.5227818 108.56228675 147.38686435 108.53149414 144.24780273 C108.49536514 143.28289917 108.45923615 142.31799561 108.42201233 141.32385254 C108.41898866 136.06047434 109.00963488 133.01846373 112.48486328 128.95922852 C113.69955795 127.7447555 114.94045174 126.55545644 116.21508789 125.40405273 C116.9870752 124.7045752 117.7590625 124.00509766 118.55444336 123.28442383 C119.22362793 122.75413574 119.8928125 122.22384766 120.58227539 121.67749023 C130.17786689 113.70370425 130.17786689 113.70370425 134.53930664 102.40795898 C134.91409803 97.05024312 134.75832891 91.744805 134.21508789 86.40405273 C132.35303711 86.45625977 132.35303711 86.45625977 130.45336914 86.50952148 C128.81145563 86.53766857 127.16952743 86.56496775 125.52758789 86.59155273 C124.7109668 86.61668945 123.8943457 86.64182617 123.05297852 86.66772461 C118.27251259 86.72578695 115.06876407 86.56509878 111.21508789 83.40405273 C107.00992002 77.09630093 108.84506394 68.38503747 110.24291992 61.22705078 C113.32665961 47.2800647 119.57064723 34.97546417 129.21508789 24.40405273 C129.99045898 23.49139648 129.99045898 23.49139648 130.78149414 22.56030273 C138.85592888 13.65616418 150.88432937 7.07382559 162.21508789 3.40405273 C162.91701263 3.15802811 163.61893738 2.91200348 164.34213257 2.65852356 C175.18893059 -0.62909117 186.33298576 -0.04942302 197.55883789 -0.02954102 C199.81897132 -0.0341076 202.07910335 -0.03941459 204.3392334 -0.04542542 C209.05279218 -0.05431985 213.76618113 -0.05197115 218.47973633 -0.04199219 C224.52366352 -0.03044354 230.56701156 -0.05082275 236.61086273 -0.07990932 C241.26737181 -0.09822543 245.92374045 -0.09798911 250.58027649 -0.0922718 C252.80984822 -0.09211837 255.03942933 -0.09818112 257.26896667 -0.11056328 C260.37573195 -0.12540292 263.48140428 -0.11485158 266.58813477 -0.09765625 C267.50867645 -0.10732422 268.42921814 -0.11699219 269.37765503 -0.12695312 C275.54459146 -0.05530087 275.54459146 -0.05530087 278.78442383 2.16429138 C280.35210527 4.61855888 280.72030936 5.85721105 280.73266602 8.74194336 C280.74527466 9.5896228 280.7578833 10.43730225 280.77087402 11.31066895 C280.75872864 12.67173767 280.75872864 12.67173767 280.74633789 14.06030273 C280.75016479 14.99958618 280.7539917 15.93886963 280.75793457 16.90661621 C280.76065365 18.8903104 280.75329273 20.87404044 280.73657227 22.85766602 C280.7151625 25.89347289 280.73637396 28.92691319 280.76196289 31.96264648 C280.75931961 33.89103712 280.75419464 35.81942629 280.74633789 37.74780273 C280.75443481 38.65518188 280.76253174 39.56256104 280.77087402 40.49743652 C280.67761441 46.76728342 280.67761441 46.76728342 278.36938477 49.94506836 C274.28400983 52.71186354 270.79874203 52.5151217 265.98461914 52.50952148 C264.52692212 52.52298562 263.06923884 52.53801024 261.61157227 52.55444336 C259.32487446 52.57719049 257.03972454 52.59161917 254.75292969 52.57910156 C243.15407907 52.39490542 243.15407907 52.39490542 233.37402344 58.12011719 C232.80035034 58.75566528 232.80035034 58.75566528 232.21508789 59.40405273 C232.79408302 62.86405095 233.66761977 65.67233791 235.25634766 68.79541016 C235.67670792 69.6294487 236.09706818 70.46348724 236.53016663 71.32279968 C236.98435471 72.20941788 237.43854279 73.09603607 237.90649414 74.00952148 C238.37119614 74.92993729 238.83589813 75.85035309 239.31468201 76.79866028 C240.79662012 79.73255011 242.28642707 82.66234092 243.77758789 85.59155273 C245.27159678 88.53182556 246.763817 91.4729524 248.25120544 94.4165802 C249.1764115 96.24715147 250.10556315 98.07573475 251.03895569 99.90214539 C251.45616379 100.72672745 251.87337189 101.55130951 252.30322266 102.40087891 C252.6732692 103.12748215 253.04331573 103.85408539 253.42457581 104.60270691 C254.21508789 106.40405273 254.21508789 106.40405273 254.21508789 108.40405273 C251.94781456 109.57812294 249.67674165 110.74345013 247.40258789 111.90405273 C246.75999023 112.23791992 246.11739258 112.57178711 245.45532227 112.91577148 C242.5196109 114.40644358 240.55382272 115.40405273 237.21508789 115.40405273 C230.28508789 101.54405273 223.35508789 87.68405273 216.21508789 73.40405273 C214.56508789 74.39405273 212.91508789 75.38405273 211.21508789 76.40405273 C209.62555298 77.34873413 209.62555298 77.34873413 208.00390625 78.3125 C204.23751637 81.5768361 204.04197524 85.58115912 203.6703949 90.34828186 C203.43663552 101.12012122 204.10313979 108.70335568 211.34506226 117.07217407 C215.76078236 121.59622662 220.40163447 125.79982792 225.15258789 129.96655273 C227.0773915 131.74700012 228.99607754 133.53408492 230.90844727 135.32788086 C235.07655008 139.22454929 239.2968732 143.05266194 243.57627869 146.82667542 C245.89345815 149.05699382 246.20080737 150.04062112 246.32861328 153.29321289 C246.32337646 154.49768066 246.31813965 155.70214844 246.31274414 156.94311523 C246.30952148 158.24506836 246.30629883 159.54702148 246.30297852 160.88842773 C246.29462255 162.26863672 246.2861576 163.64884506 246.27758789 165.02905273 C246.2725729 166.41707199 246.26800999 167.80509296 246.26391602 169.19311523 C246.25209765 172.59680405 246.23562223 176.00040712 246.21508789 179.40405273 C247.34527344 179.38310547 248.47545898 179.3621582 249.63989258 179.34057617 C253.83670358 179.26812577 258.03345941 179.22223489 262.23071289 179.18432617 C264.04656269 179.16422212 265.86234784 179.13693438 267.67797852 179.10229492 C270.28946894 179.05372234 272.90010287 179.03107247 275.51196289 179.01342773 C276.32252136 178.99278259 277.13307983 178.97213745 277.96820068 178.9508667 C281.63081563 178.94941163 283.74088464 179.04107543 286.6965332 181.3034668 C289.70384454 185.46341965 289.41005813 189.19606529 289.45336914 194.17358398 C289.46144089 195.04673752 289.46951263 195.91989105 289.47782898 196.81950378 C289.49167153 198.66968804 289.50239292 200.51989785 289.51025391 202.37011719 C289.5274571 205.19507471 289.57133955 208.01885895 289.61547852 210.84350586 C289.62560636 212.64102329 289.63412218 214.43855068 289.64086914 216.23608398 C289.65837723 217.07895462 289.67588531 217.92182526 289.69392395 218.79023743 C289.67908109 222.81857978 289.52165845 224.90221794 287.37597656 228.41455078 C284.21139803 231.32813687 281.67867266 231.52802461 277.54711914 231.50170898 C276.65444336 231.49848633 275.76176758 231.49526367 274.84204102 231.49194336 C273.44888672 231.479375 273.44888672 231.479375 272.02758789 231.46655273 C271.0872168 231.46204102 270.1468457 231.4575293 269.17797852 231.45288086 C266.85694753 231.44109898 264.53606079 231.42379159 262.21508789 231.40405273 C262.17956314 232.1242308 262.14403839 232.84440887 262.10743713 233.58641052 C261.43792222 244.76430517 259.97172888 255.81987749 258.51661491 266.91780281 C258.04657417 270.50295406 257.58148148 274.0887183 257.11756897 277.67466736 C256.13369164 285.27254406 255.14333701 292.86956957 254.15258789 300.46655273 C253.00054463 309.30625061 251.85117047 318.14628577 250.70669746 326.98696709 C250.24847637 330.51763336 249.78632786 334.04777093 249.32395935 337.57789612 C249.04392168 339.73615268 248.7640511 341.89443093 248.484375 344.05273438 C248.35503571 345.03199387 248.22569641 346.01125336 248.09243774 347.02018738 C247.97608475 347.92397125 247.85973175 348.82775513 247.73985291 349.75892639 C247.58693991 350.93044298 247.58693991 350.93044298 247.43093777 352.12562656 C247.19990502 354.56431712 247.17875041 356.9558959 247.21508789 359.40405273 C248.20508789 359.73018555 249.19508789 360.05631836 250.21508789 360.39233398 C262.24167382 364.36972604 262.24167382 364.36972604 266.84008789 366.15405273 C280.58634658 371.24525966 292.8918914 366.9461428 305.87915039 361.58764648 C314.77395989 358.43175974 323.11720301 358.06736151 332.52758789 358.09155273 C333.76959961 358.07543945 335.01161133 358.05932617 336.29125977 358.04272461 C351.73207393 358.0346277 364.98121664 361.87560036 376.44165039 372.56420898 C388.80069184 385.38603392 391.53414671 399.06326379 391.55102539 416.29467773 C391.55746541 417.84633503 391.56419463 419.39799114 391.57119751 420.949646 C391.58313009 424.1940797 391.58688257 427.43840726 391.58569336 430.68286133 C391.58549057 434.80926667 391.61276858 438.93498022 391.64723778 443.06122208 C391.66964431 446.26488272 391.67352671 449.46838059 391.67247391 452.67211151 C391.67481017 454.19173308 391.68352021 455.71136052 391.69913864 457.23090363 C391.84761006 473.16920117 387.99631435 486.2763053 376.96508789 498.15405273 C364.94506505 509.31741471 351.60797729 513.11036893 335.55249023 512.92553711 C333.3490514 512.90413978 331.14889555 512.92541591 328.94555664 512.95092773 C316.47218753 512.97490928 305.80696711 510.16439691 294.30102539 505.23608398 C283.26696325 500.83485695 270.82920111 503.06726132 260.21508789 507.40405273 C258.23869622 508.14070781 256.25958199 508.87010688 254.27758789 509.59155273 C253.42293945 509.91510742 252.56829102 510.23866211 251.68774414 510.57202148 C246.71419207 512.2455864 241.9292951 512.58567036 236.71118164 512.64233398 C235.99205093 512.65040573 235.27292023 512.65847748 234.53199768 512.66679382 C233.01159026 512.68058178 231.49115258 512.69132742 229.97070312 512.69921875 C228.4377312 512.71068173 226.90479738 512.73104263 225.37207031 512.76074219 C213.24425622 512.99520365 202.69958488 511.91990358 192.27758789 504.96655273 C191.42293945 504.4109668 190.56829102 503.85538086 189.68774414 503.28295898 C187.21508789 501.40405273 187.21508789 501.40405273 185.08285618 498.82489109 C181.38265532 495.70135137 178.48521331 495.71226755 173.85813904 495.79173279 C173.01956094 495.78619937 172.18098285 495.78066596 171.3169933 495.77496487 C168.50835475 495.76238914 165.70113618 495.78537171 162.89257812 495.80810547 C160.87864866 495.80620168 158.86472026 495.80204654 156.85079956 495.79580688 C152.51490046 495.78701247 148.17940139 495.7937787 143.84353447 495.81246758 C136.99072316 495.84152396 130.13825766 495.83377685 123.28541565 495.8205719 C109.9786552 495.7998988 96.67206165 495.81551756 83.36531067 495.83604431 C66.42345929 495.86118028 49.48170036 495.87408953 32.539846 495.84608799 C25.72421182 495.83611608 18.90899005 495.84630601 12.09340084 495.87199581 C7.85834117 495.88414238 3.62341118 495.8799759 -0.61165237 495.871418 C-2.57891963 495.87088163 -4.54620242 495.87725427 -6.51342201 495.89095879 C-9.19430738 495.90873187 -11.8740586 495.90211553 -14.5549469 495.88938904 C-15.33752934 495.90056005 -16.12011177 495.91173107 -16.92640883 495.9232406 C-20.12501193 495.88603019 -22.39580061 495.63291255 -25.17428493 493.99871922 C-27.63310688 490.03763934 -28.126409 485.97305042 -28.78491211 481.40405273 C-28.91068894 480.56480853 -29.03646576 479.72556433 -29.16605401 478.86088848 C-29.54923428 476.17666398 -29.89863488 473.48974732 -30.24026489 470.79992676 C-30.37264742 469.78007266 -30.50502994 468.76021855 -30.64142406 467.70945978 C-31.08074728 464.31836254 -31.51510882 460.92664912 -31.94946289 457.53491211 C-32.26472881 455.0933252 -32.58029864 452.65177752 -32.89614868 450.21026611 C-33.66186647 444.28500594 -34.42436593 438.35933979 -35.18536629 432.43347257 C-36.07185365 425.53160557 -36.96209549 418.6302244 -37.8524984 411.72886163 C-39.44038854 399.42043535 -41.02498292 387.11158706 -42.60766602 374.80249023 C-44.14378361 362.85557934 -45.68209256 350.9089534 -47.22290039 338.96264648 C-47.3179588 338.22562962 -47.41301721 337.48861276 -47.51095618 336.72926205 C-47.60585074 335.99352045 -47.70074529 335.25777884 -47.79851544 334.49974203 C-47.98957455 333.01841077 -48.18063299 331.53707942 -48.37169075 330.05574799 C-48.46591214 329.32522346 -48.56013353 328.59469893 -48.65721012 327.84203729 C-50.12589795 316.45422623 -51.59266961 305.06616828 -53.05921207 293.67808077 C-53.59091207 289.5494549 -54.12288157 285.42086387 -54.65504183 281.2922973 C-55.57693851 274.14000347 -56.49752626 266.98754277 -57.41665268 259.83489227 C-57.72260005 257.45553265 -58.02898073 255.0762287 -58.33581543 252.69698334 C-58.75289663 249.46224214 -59.16842389 246.22730517 -59.58352661 242.99230957 C-59.76824577 241.56384712 -59.76824577 241.56384712 -59.95669663 240.10652685 C-60.06693189 239.24482964 -60.17716715 238.38313243 -60.29074287 237.49532318 C-60.43492926 236.37454573 -60.43492926 236.37454573 -60.58202851 235.23112631 C-60.78491211 233.40405273 -60.78491211 233.40405273 -60.78491211 231.40405273 C-61.36982422 231.41452637 -61.95473633 231.425 -62.55737305 231.43579102 C-65.21650874 231.47745538 -67.87557564 231.50341175 -70.53491211 231.52905273 C-71.45530273 231.54581055 -72.37569336 231.56256836 -73.32397461 231.57983398 C-74.6581543 231.58950195 -74.6581543 231.58950195 -76.01928711 231.59936523 C-76.83623047 231.60983887 -77.65317383 231.6203125 -78.49487305 231.63110352 C-81.0728483 231.37550469 -82.61094529 230.80243278 -84.78491211 229.40405273 C-86.81264799 226.36244891 -87.04097834 225.7139551 -87.09130859 222.28735352 C-87.10729599 221.46284698 -87.12328339 220.63834045 -87.13975525 219.78884888 C-87.14511795 218.90131927 -87.15048065 218.01378967 -87.15600586 217.09936523 C-87.16503433 216.18323456 -87.17406281 215.26710388 -87.18336487 214.32321167 C-87.19787296 212.38485993 -87.20675549 210.44645916 -87.21044922 208.50805664 C-87.22234098 205.54676503 -87.27151603 202.58756043 -87.32202148 199.62670898 C-87.33148638 197.74260456 -87.3387211 195.85848735 -87.34350586 193.97436523 C-87.36303818 193.09088409 -87.3825705 192.20740295 -87.4026947 191.29714966 C-87.37185729 187.0817494 -87.13399704 184.93987635 -84.78637695 181.33642578 C-80.76799672 178.74935245 -77.88104807 178.76168958 -73.20288086 178.91577148 C-72.38870193 178.92284622 -71.57452301 178.92992096 -70.735672 178.93721008 C-68.14696568 178.96509675 -65.56045938 179.02781958 -62.97241211 179.09155273 C-61.21267783 179.11664323 -59.45290948 179.13945509 -57.69311523 179.15991211 C-53.38953914 179.21490402 -49.08759801 179.30113282 -44.78491211 179.40405273 C-44.79379456 178.54263168 -44.802677 177.68121063 -44.81182861 176.79368591 C-44.89212518 168.6578939 -44.95295291 160.52223583 -44.9921608 152.38613796 C-45.01299603 148.20370454 -45.04123855 144.02159977 -45.08666992 139.83935547 C-45.13027391 135.79984896 -45.15407977 131.76065769 -45.16442108 127.72093391 C-45.17178648 126.18319807 -45.18616944 124.64547862 -45.20783234 123.10787773 C-45.40862163 108.25960556 -45.40862163 108.25960556 -40.78491211 102.40405273 C-40.26856201 101.70014404 -39.75221191 100.99623535 -39.22021484 100.27099609 C-38.72465088 99.68455322 -38.22908691 99.09811035 -37.71850586 98.49389648 C-37.15566895 97.82068359 -36.59283203 97.1474707 -36.01293945 96.45385742 C-35.42206543 95.75679688 -34.83119141 95.05973633 -34.22241211 94.34155273 C-32.97241625 92.84654325 -31.72373686 91.35043215 -30.47631836 89.85327148 C-29.85644043 89.10996582 -29.2365625 88.36666016 -28.59790039 87.60083008 C-25.01000007 83.25341194 -21.55398833 78.80306417 -18.08959961 74.35717773 C-15.78491211 71.40405273 -15.78491211 71.40405273 -13.67300415 69.08276367 C-11.4618987 65.94578082 -11.28152513 64.38736432 -11.27075195 60.59155273 C-11.25748871 59.44686523 -11.24422546 58.30217773 -11.2305603 57.12280273 C-11.23560577 55.89561523 -11.24065125 54.66842773 -11.24584961 53.40405273 C-11.2340567 52.13561523 -11.22226379 50.86717773 -11.21011353 49.56030273 C-11.18079581 46.19515684 -11.16736565 42.83079058 -11.16326904 39.46557617 C-11.15555154 34.72618738 -11.12717113 29.98703234 -11.08828735 25.24780273 C-11.06865386 22.72702989 -11.05932283 20.2061512 -11.06137085 17.68530273 C-11.05441193 16.54061523 -11.047453 15.39592773 -11.0402832 14.21655273 C-11.03839493 12.7102832 -11.03839493 12.7102832 -11.03646851 11.17358398 C-10.69557297 7.42046598 -9.69410488 4.69018261 -7.52146912 1.61680603 C-5.0007766 -0.14356126 -3.05580954 0.01576682 0 0 Z " fill="#010101" transform="translate(103.784912109375,-0.404052734375)"/>
<path d="M0 0 C30.69 0 61.38 0 93 0 C89.56158088 27.50735294 89.56158088 27.50735294 88.0625 39.0625 C87.80722412 41.03571358 87.55194914 43.00892728 87.29672241 44.98214722 C87.03667243 46.992187 86.77640935 49.0021991 86.51611328 51.01220703 C85.84149003 56.22300782 85.16930591 61.4341229 84.49731445 66.64526367 C84.16685618 69.20668033 83.8359671 71.76804145 83.50463867 74.3293457 C82.72918007 80.32686066 81.95722599 86.32475701 81.19891357 92.32446289 C80.84455309 95.12624851 80.48802741 97.92775686 80.13134766 100.72924805 C79.88364359 102.68186383 79.63903141 104.63487107 79.39453125 106.58789062 C78.47854335 113.77339234 77.38668929 120.88980078 76 128 C75.11699219 128.03738281 74.23398437 128.07476562 73.32421875 128.11328125 C56.87293846 129.0144792 41.37699133 133.33215773 30 146 C22.36619008 156.10268099 17.90007284 166.55155392 17.85473633 179.27392578 C17.84835648 180.49604767 17.84197662 181.71816956 17.83540344 182.97732544 C17.83429062 184.28676117 17.8331778 185.5961969 17.83203125 186.9453125 C17.8288119 188.32046543 17.82544734 189.69561803 17.82194519 191.07077026 C17.81597137 193.95050854 17.81410333 196.8302169 17.81469727 199.70996094 C17.81479842 203.36764024 17.80118683 207.02512339 17.78392506 210.68275642 C17.77270256 213.52439217 17.77078122 216.36598217 17.77130699 219.20763779 C17.76958008 221.20143835 17.75880019 223.19522463 17.74775696 225.18899536 C17.75083359 226.43003021 17.75391022 227.67106506 17.75708008 228.94970703 C17.75565506 230.0241507 17.75423004 231.09859436 17.75276184 232.20559692 C18.0985308 237.51216772 19.12575516 242.75453093 20 248 C-40.39 248 -100.78 248 -163 248 C-166.43944312 228.50982231 -166.43944312 228.50982231 -167.4296875 219.88671875 C-167.54503845 218.92078293 -167.6603894 217.95484711 -167.77923584 216.9596405 C-168.02293406 214.91803933 -168.264738 212.8762112 -168.50469971 210.83416748 C-169.14238491 205.41536731 -169.79693351 199.99861748 -170.453125 194.58203125 C-170.58373322 193.5034082 -170.71434143 192.42478516 -170.84890747 191.31347656 C-172.00651869 181.81931323 -173.2832738 172.34470613 -174.625 162.875 C-175.03267453 159.99350688 -175.44033536 157.11201189 -175.84765625 154.23046875 C-175.94520706 153.54085052 -176.04275787 152.8512323 -176.14326477 152.14071655 C-177.70666415 141.03934232 -179.10101934 129.91549167 -180.51611328 118.79443359 C-181.33641613 112.36196798 -182.1688933 105.93107697 -183 99.5 C-183.33339012 96.916674 -183.66672349 94.33334067 -184 91.75 C-184.165 90.47125 -184.33 89.1925 -184.5 87.875 C-185 84 -185.5 80.125 -186 76.25 C-186.16516113 74.97044434 -186.33032227 73.69088867 -186.50048828 72.37255859 C-186.83264877 69.7974219 -187.16435684 67.22222681 -187.49560547 64.64697266 C-188.25585652 58.74063678 -189.01982953 52.83488844 -189.80126953 46.93132019 C-191.8250555 31.63963841 -193.65386119 16.36841812 -195 1 C-181.47 1 -167.94 1 -154 1 C-153.9906543 5.65762451 -153.98130859 10.31524902 -153.97167969 15.11401367 C-153.937871 30.52477742 -153.88249975 45.93540844 -153.81609726 61.34606457 C-153.77637216 70.68701128 -153.74394661 80.02787454 -153.72900391 89.36889648 C-153.71595343 97.51526313 -153.68890259 105.66144565 -153.64538693 113.80770856 C-153.62284814 118.11684157 -153.60708474 122.42574812 -153.60811615 126.7349453 C-153.60886728 130.800498 -153.59073693 134.86555157 -153.55883217 138.93097496 C-153.55039376 140.41388162 -153.54854148 141.89684467 -153.55419731 143.37976456 C-153.59627879 156.121842 -152.11984148 168.40392659 -143 178 C-137.70178991 183.01935693 -130.32790861 187.09652287 -122.92359924 187.15390015 C-122.09540176 187.16250061 -121.26720428 187.17110107 -120.41390991 187.17996216 C-119.50847443 187.18422211 -118.60303894 187.18848206 -117.67016602 187.19287109 C-116.71364639 187.20104858 -115.75712677 187.20922607 -114.7716217 187.21765137 C-111.59905621 187.24250448 -108.42653566 187.25902634 -105.25390625 187.2734375 C-103.62561543 187.28142302 -103.62561543 187.28142302 -101.96442986 187.28956985 C-96.21237774 187.31630834 -90.46034732 187.33567609 -84.70825195 187.35009766 C-79.9603333 187.36340647 -75.2128475 187.39120206 -70.46508789 187.43212891 C-64.72330033 187.48162226 -58.98190378 187.5062401 -53.23991203 187.51332474 C-51.05878369 187.52001178 -48.87766319 187.5351668 -46.69665718 187.55921555 C-32.44160338 187.70735723 -21.35389025 187.62800497 -10 178 C-0.44791022 167.08332596 -0.54198362 153.37091387 -0.48828125 139.640625 C-0.47139826 137.99866425 -0.45324327 136.35671613 -0.43388367 134.71478271 C-0.38676993 130.43404086 -0.35671253 126.15335025 -0.33044434 121.87243652 C-0.30044174 117.48777142 -0.25398014 113.10328234 -0.20898438 108.71875 C-0.12339188 100.14592063 -0.05585299 91.57307451 0 83 C3.76523645 84.22665983 7.22773061 85.51821469 10.72265625 87.3828125 C21.75519748 93.0893349 30.15761366 97.21383188 42.7265625 94.38671875 C49.57665357 92.20338156 54.10574106 87.96746154 58 82 C61.55624372 74.25289668 62.26010307 66.94094491 59.375 58.9375 C55.62296767 49.30086996 48.48044793 45.17915203 39.51171875 40.8828125 C38.41277786 40.34018768 37.31383698 39.79756287 36.18159485 39.23849487 C32.6908338 37.5186876 29.18971114 35.82134967 25.6875 34.125 C22.16999621 32.40235644 18.65470741 30.67526423 15.1398468 28.94723511 C12.95618517 27.87574928 10.77050802 26.80835978 8.58268738 25.74539185 C7.60109146 25.26754242 6.61949554 24.78969299 5.6081543 24.29736328 C4.74022751 23.87657501 3.87230072 23.45578674 2.97807312 23.02224731 C1 22 1 22 0 21 C0 14.07 0 7.14 0 0 Z " fill="#4297CF" transform="translate(256,230)"/>
<path d="M0 0 C39.6 0 79.2 0 120 0 C120.1875 31.1875 120.1875 31.1875 120.20776367 41.01635742 C120.23420776 43.58774874 120.26248445 46.15912215 120.29296875 48.73046875 C120.2906575 49.39500565 120.28834625 50.05954254 120.28596497 50.74421692 C120.28103995 52.7126126 120.31025086 54.68100169 120.34057617 56.64916992 C120.35056892 58.31129768 120.35056892 58.31129768 120.36076355 60.00700378 C121.21569038 64.00989313 122.86832788 65.43139164 126 68 C128.44379212 69.55973885 128.44379212 69.55973885 131.078125 70.78320312 C132.06264648 71.26720581 133.04716797 71.7512085 134.06152344 72.24987793 C135.1137207 72.75523071 136.16591797 73.2605835 137.25 73.78125 C138.34086914 74.31721802 139.43173828 74.85318604 140.55566406 75.40539551 C144.03245041 77.11332328 147.51533733 78.8082059 151 80.5 C155.58911353 82.72800194 160.17142087 84.9691933 164.75 87.21875 C165.80219727 87.72410278 166.85439453 88.22945557 167.93847656 88.75012207 C173.09879589 91.28699755 177.37216955 93.47664064 181 98 C181.96512904 101.45074068 181.7940712 104.51522712 181 108 C179.27213531 110.82741495 178.09198143 111.34358138 175 113 C168.55996176 113.60136324 164.63889862 112.35711447 159.02734375 109.31640625 C157.9372274 108.75396461 157.9372274 108.75396461 156.8250885 108.18016052 C154.52094307 106.98943035 152.22867569 105.77797462 149.9375 104.5625 C147.64179579 103.35274858 145.34388523 102.1481103 143.03919983 100.95555115 C141.61121857 100.21593578 140.18833773 99.46635702 138.77171326 98.70521545 C134.52454901 96.49660899 130.86430491 95.28237559 126 95 C122.78370053 96.6927892 122.16273289 97.51180132 121 101 C120.89491988 103.87390521 120.84589171 106.72455861 120.84228516 109.59887695 C120.83720444 110.4772522 120.83212372 111.35562744 120.82688904 112.26062012 C120.81618511 114.16927911 120.80756502 116.07795066 120.80076981 117.98662758 C120.78898237 121.00882654 120.76952957 124.03088251 120.74765015 127.05302429 C120.68603065 135.64622229 120.63199788 144.23940586 120.59863281 152.83276367 C120.57767727 158.0883087 120.54236607 163.34359333 120.49787521 168.59898949 C120.48372137 170.60079061 120.47499417 172.60263782 120.47182083 174.60448647 C120.46690726 177.40758088 120.44373737 180.20998543 120.41650391 183.01293945 C120.42101311 184.24988808 120.42101311 184.24988808 120.4256134 185.51182556 C120.34316679 191.23174151 119.22179438 195.37674278 115.421875 199.86328125 C114.87015625 200.34152344 114.3184375 200.81976563 113.75 201.3125 C113.20859375 201.80363281 112.6671875 202.29476562 112.109375 202.80078125 C110 204 110 204 103 205 C103 179.59 103 154.18 103 128 C97.39 128 91.78 128 86 128 C86 153.41 86 178.82 86 205 C80.39 205 74.78 205 69 205 C69 179.59 69 154.18 69 128 C63.39 128 57.78 128 52 128 C52 153.41 52 178.82 52 205 C46.39 205 40.78 205 35 205 C35 179.59 35 154.18 35 128 C29.06 128 23.12 128 17 128 C17 153.41 17 178.82 17 205 C9.04458599 203.86351228 9.04458599 203.86351228 6.25 201.375 C5.69828125 200.90835938 5.1465625 200.44171875 4.578125 199.9609375 C0.37911326 194.7433536 -0.4396592 189.43274036 -0.36076355 182.90711975 C-0.36332682 182.12118028 -0.3658901 181.3352408 -0.36853105 180.52548498 C-0.37344923 177.90748371 -0.35700887 175.29006675 -0.34057617 172.67211914 C-0.33972947 170.7893373 -0.34020588 168.90655446 -0.34190369 167.02377319 C-0.34276339 161.92302356 -0.3251415 156.82248616 -0.30418181 151.72178578 C-0.28541099 146.38732435 -0.28366425 141.0528579 -0.28010559 135.71836853 C-0.27078633 125.62146252 -0.24617411 115.52465412 -0.21605712 105.42779106 C-0.17623493 91.78058354 -0.16005728 78.13334927 -0.14255047 64.48609829 C-0.11435299 42.9906591 -0.05458257 21.49542587 0 0 Z " fill="#96D2E5" transform="translate(119,196)"/>
<path d="M0 0 C1.04479019 -0.00551376 1.04479019 -0.00551376 2.11068726 -0.01113892 C13.28337646 -0.0206432 22.04958657 1.44944199 32.125 6.5 C44.84907402 11.92761283 61.24078569 10.92996286 74.125 6.5 C75.12789063 5.99339844 76.13078125 5.48679687 77.1640625 4.96484375 C86.37112414 0.40443734 94.94190768 -0.07967943 105.0625 -0.0625 C105.74439392 -0.0649472 106.42628784 -0.06739441 107.12884521 -0.06991577 C119.05945925 -0.06507511 127.75142696 1.83071297 137.125 9.5 C143.83307867 16.41631171 147.26636993 24.67666104 147.8125 34.25 C147.48487571 44.27530321 143.13362379 53.03436417 136 60.0625 C126.30088307 67.55434281 117.39093508 68.93009687 105.4375 69 C104.38046875 69.00644531 103.3234375 69.01289063 102.234375 69.01953125 C91.70008101 68.84813473 83.07648614 65.59625573 73.3984375 61.68359375 C59.11390055 56.51865975 44.22278126 56.91104479 30.125 62.5 C28.95582031 62.9434375 27.78664063 63.386875 26.58203125 63.84375 C24.34928223 64.69620911 22.12192259 65.56303338 19.90234375 66.44921875 C13.73984298 68.78074155 8.04076384 68.7183639 1.5 68.75 C0.45714844 68.770625 -0.58570313 68.79125 -1.66015625 68.8125 C-13.48384305 68.87154463 -22.76558661 65.94694532 -31.59375 57.94140625 C-37.7902688 51.34970131 -41.14128717 43.59010627 -41.5 34.5625 C-41.13659477 25.35623412 -38.01217428 16.77668629 -31.609375 10.02734375 C-21.77975415 1.37107854 -12.80008305 0.03389386 0 0 Z " fill="#F6B14C" transform="translate(330.875,375.5)"/>
<path d="M0 0 C39.6 0 79.2 0 120 0 C120.1875 31.1875 120.1875 31.1875 120.20776367 41.01635742 C120.23420776 43.58774874 120.26248445 46.15912215 120.29296875 48.73046875 C120.2906575 49.39500565 120.28834625 50.05954254 120.28596497 50.74421692 C120.28103995 52.7126126 120.31025086 54.68100169 120.34057617 56.64916992 C120.35056892 58.31129768 120.35056892 58.31129768 120.36076355 60.00700378 C121.21569038 64.00989313 122.86832788 65.43139164 126 68 C128.44379212 69.55973885 128.44379212 69.55973885 131.078125 70.78320312 C132.06264648 71.26720581 133.04716797 71.7512085 134.06152344 72.24987793 C135.1137207 72.75523071 136.16591797 73.2605835 137.25 73.78125 C138.34086914 74.31721802 139.43173828 74.85318604 140.55566406 75.40539551 C144.03245041 77.11332328 147.51533733 78.8082059 151 80.5 C155.58911353 82.72800194 160.17142087 84.9691933 164.75 87.21875 C165.80219727 87.72410278 166.85439453 88.22945557 167.93847656 88.75012207 C173.09879589 91.28699755 177.37216955 93.47664064 181 98 C181.96512904 101.45074068 181.7940712 104.51522712 181 108 C179.27213531 110.82741495 178.09198143 111.34358138 175 113 C168.55996176 113.60136324 164.63889862 112.35711447 159.02734375 109.31640625 C157.9372274 108.75396461 157.9372274 108.75396461 156.8250885 108.18016052 C154.52094307 106.98943035 152.22867569 105.77797462 149.9375 104.5625 C147.64179579 103.35274858 145.34388523 102.1481103 143.03919983 100.95555115 C141.61121857 100.21593578 140.18833773 99.46635702 138.77171326 98.70521545 C134.52454901 96.49660899 130.86430491 95.28237559 126 95 C122.78370053 96.6927892 122.16273289 97.51180132 121 101 C120.89491988 103.87390521 120.84589171 106.72455861 120.84228516 109.59887695 C120.83720444 110.4772522 120.83212372 111.35562744 120.82688904 112.26062012 C120.81618511 114.16927911 120.80756502 116.07795066 120.80076981 117.98662758 C120.78898237 121.00882654 120.76952957 124.03088251 120.74765015 127.05302429 C120.68603065 135.64622229 120.63199788 144.23940586 120.59863281 152.83276367 C120.57767727 158.0883087 120.54236607 163.34359333 120.49787521 168.59898949 C120.48372137 170.60079061 120.47499417 172.60263782 120.47182083 174.60448647 C120.46690726 177.40758088 120.44373737 180.20998543 120.41650391 183.01293945 C120.42101311 184.24988808 120.42101311 184.24988808 120.4256134 185.51182556 C120.34316679 191.23174151 119.22179438 195.37674278 115.421875 199.86328125 C114.87015625 200.34152344 114.3184375 200.81976563 113.75 201.3125 C113.20859375 201.80363281 112.6671875 202.29476562 112.109375 202.80078125 C110 204 110 204 103 205 C103 179.59 103 154.18 103 128 C97.39 128 91.78 128 86 128 C86 153.41 86 178.82 86 205 C80.39 205 74.78 205 69 205 C69 179.59 69 154.18 69 128 C64.05 128 59.1 128 54 128 C57.40294653 122.54110661 60.80427849 117.19128312 64.6875 112.0625 C86.74929539 82.05165695 102.10802322 46.94626646 114.84008789 12.15771484 C116.2087112 8.43181001 117.60627891 4.71658958 119 1 C80.06 1 41.12 1 1 1 C1.33 61.06 1.66 121.12 2 183 C6.29 179.04 10.58 175.08 15 171 C15.66 170.67 16.32 170.34 17 170 C17 181.55 17 193.1 17 205 C9.04458599 203.86351228 9.04458599 203.86351228 6.25 201.375 C5.69828125 200.90835938 5.1465625 200.44171875 4.578125 199.9609375 C0.37911326 194.7433536 -0.4396592 189.43274036 -0.36076355 182.90711975 C-0.36332682 182.12118028 -0.3658901 181.3352408 -0.36853105 180.52548498 C-0.37344923 177.90748371 -0.35700887 175.29006675 -0.34057617 172.67211914 C-0.33972947 170.7893373 -0.34020588 168.90655446 -0.34190369 167.02377319 C-0.34276339 161.92302356 -0.3251415 156.82248616 -0.30418181 151.72178578 C-0.28541099 146.38732435 -0.28366425 141.0528579 -0.28010559 135.71836853 C-0.27078633 125.62146252 -0.24617411 115.52465412 -0.21605712 105.42779106 C-0.17623493 91.78058354 -0.16005728 78.13334927 -0.14255047 64.48609829 C-0.11435299 42.9906591 -0.05458257 21.49542587 0 0 Z " fill="#89C7DC" transform="translate(119,196)"/>
<path d="M0 0 C0.9075 0.53625 1.815 1.0725 2.75 1.625 C4.16391453 2.42157157 5.58102388 3.21248026 7 4 C7.89589844 4.5053125 8.79179687 5.010625 9.71484375 5.53125 C25.36978579 13.92443838 46.09931769 14.68424255 63.25 10.3125 C68.78034551 8.57261602 74.13274258 6.43994978 79.4140625 4.05078125 C93.34011082 -1.60799065 107.66988286 3.47653418 120.76171875 8.81640625 C129.09772567 11.86322181 136.41292519 12.33691181 145.25 12.3125 C146.40113281 12.32861328 147.55226563 12.34472656 148.73828125 12.36132812 C158.94195788 12.36707992 168.34610342 10.84201981 177.4375 6 C178.38496094 5.505 179.33242188 5.01 180.30859375 4.5 C182.90667535 3.05201258 185.46070713 1.54846172 188 0 C188.51060186 12.89269709 188.62088979 24.46335693 180 35 C168.90475685 46.24384016 158.48133724 47.35637042 143.21972656 47.46191406 C133.79401431 47.34464642 126.40631884 45.49777705 117.83789062 41.77832031 C102.15191611 35.13553514 86.86961136 35.10914314 71 41 C69.86433594 41.52851563 68.72867188 42.05703125 67.55859375 42.6015625 C58.57108833 46.71790309 50.45566903 47.58141211 40.5625 47.625 C39.36544434 47.63563477 38.16838867 47.64626953 36.93505859 47.65722656 C29.74593493 47.54268287 24.26534738 46.56974146 18 43 C16.453125 42.13375 16.453125 42.13375 14.875 41.25 C6.49268656 34.68992861 1.56741335 26.59145332 0 16 C-0.068089 13.21924515 -0.09478336 10.46635261 -0.0625 7.6875 C-0.05798828 6.94693359 -0.05347656 6.20636719 -0.04882812 5.44335938 C-0.03712175 3.62887101 -0.01918898 1.81442466 0 0 Z " fill="#F2A137" transform="translate(290,448)"/>
<path d="M0 0 C33.66 0 67.32 0 102 0 C102 19.8 102 39.6 102 60 C68.34 60 34.68 60 0 60 C0 40.2 0 20.4 0 0 Z " fill="#796F9A" transform="translate(77,119)"/>
<path d="M0 0 C8.30683399 4.60384917 15.0816464 10.94073704 21.75 17.625 C22.58280487 18.43804596 23.41560974 19.25109192 24.27365112 20.08877563 C26.68244461 22.50411337 28.96931317 24.98901866 31.234375 27.5390625 C31.92586136 28.25701492 32.61734772 28.97496735 33.32978821 29.7146759 C41.14789253 39.27635473 38 46.23748933 38 60 C4.01 60 -29.98 60 -65 60 C-65 21 -65 21 -57.25 8.0625 C-41.70643761 -4.28861355 -18.57852462 -7.51277565 0 0 Z " fill="#E8E8E8" transform="translate(295,119)"/>
<path d="M0 0 C1.13862991 0.00424484 2.27725983 0.00848969 3.45039368 0.01286316 C7.04660844 0.0295035 10.64223912 0.06712833 14.23828125 0.10546875 C16.69335122 0.1205345 19.14843007 0.13421958 21.60351562 0.14648438 C27.58613296 0.17935887 33.56841535 0.22940987 39.55078125 0.29296875 C39.75941633 3.80899081 39.88480615 7.32340813 39.99609375 10.84375 C40.05579346 11.83282349 40.11549316 12.82189697 40.17700195 13.84094238 C40.3485868 21.08513403 40.3485868 21.08513403 38.08795166 24.50761414 C35.07737221 27.60969159 31.73203175 30.24117899 28.01953125 32.4609375 C23.73748368 35.13351943 19.84661172 38.12210298 15.92578125 41.29296875 C14.83075924 42.14884254 13.73446471 43.0030915 12.63671875 43.85546875 C9.52584632 46.15314057 9.52584632 46.15314057 7.296875 48.91479492 C2.18539226 53.14303883 -5.20161406 51.89812034 -11.47265625 51.78125 C-12.94380488 51.77191522 -14.41496914 51.76480225 -15.88613892 51.7598114 C-19.74330155 51.74079331 -23.59951082 51.69173958 -27.45629883 51.6362915 C-31.39781805 51.58498551 -35.33949253 51.56227331 -39.28125 51.53710938 C-47.00433915 51.4836138 -54.72664496 51.39836652 -62.44921875 51.29296875 C-62.15268223 49.53451192 -61.84967072 47.77714622 -61.54394531 46.02026367 C-61.37590393 45.04151779 -61.20786255 44.06277191 -61.034729 43.05436707 C-58.41447874 30.69667627 -48.4496963 18.64751625 -38.44921875 11.29296875 C-36.0412305 9.75771148 -33.58018057 8.34914606 -31.07421875 6.98046875 C-30.19262085 6.49223633 -30.19262085 6.49223633 -29.29321289 5.99414062 C-19.87985718 1.09456092 -10.49753301 -0.15040987 0 0 Z " fill="#F57118" transform="translate(293.44921875,16.70703125)"/>
<path d="M0 0 C30.69 0 61.38 0 93 0 C90 24 90 24 89 26 C79.02070235 26.2707727 69.04121553 26.50756122 59.06012249 26.70202446 C54.42451139 26.79338668 49.78974881 26.89605868 45.1550293 27.02539062 C40.67491623 27.14997859 36.19508157 27.24379519 31.71384621 27.31708145 C30.01175376 27.35017455 28.3098322 27.39400366 26.60831261 27.44918442 C15.9622332 27.78597019 9.12595845 27.22208204 0 21 C0 14.07 0 7.14 0 0 Z " fill="#3789C0" transform="translate(256,230)"/>
<path d="M0 0 C39.6 0 79.2 0 120 0 C120 5.61 120 11.22 120 17 C80.4 17 40.8 17 0 17 C0 11.39 0 5.78 0 0 Z " fill="#4194CC" transform="translate(256,196)"/>
<path d="M0 0 C0.93586945 -0.04113922 1.87173889 -0.08227844 2.83596802 -0.12466431 C5.85343994 -0.23096072 8.86762869 -0.28729211 11.88671875 -0.32421875 C12.90009308 -0.33929474 13.91346741 -0.35437073 14.95755005 -0.36990356 C34.12419791 -0.47702049 34.12419791 -0.47702049 40.42578125 4.54296875 C43.52064659 7.93798349 45.70550782 11.62933295 47.55810547 15.82080078 C49.13967686 19.19446508 51.36792845 21.9959757 53.57421875 24.98828125 C53.57421875 25.31828125 53.57421875 25.64828125 53.57421875 25.98828125 C26.51421875 25.98828125 -0.54578125 25.98828125 -28.42578125 25.98828125 C-26.45361756 22.70134177 -24.77388052 20.02795481 -22.39453125 17.140625 C-21.83121094 16.45291016 -21.26789063 15.76519531 -20.6875 15.05664062 C-19.81544922 14.00186523 -19.81544922 14.00186523 -18.92578125 12.92578125 C-17.76887536 11.51876821 -16.61260486 10.11123244 -15.45703125 8.703125 C-14.94720703 8.0855835 -14.43738281 7.46804199 -13.91210938 6.83178711 C-12.34968998 5.02457332 -12.34968998 5.02457332 -11.32543945 2.81787109 C-8.13747052 -0.2525105 -4.26992129 0.15801467 0 0 Z " fill="#716790" transform="translate(115.42578125,76.01171875)"/>
<path d="M0 0 C11.22 0 22.44 0 34 0 C34 14.19 34 28.38 34 43 C22.78 43 11.56 43 0 43 C0 28.81 0 14.62 0 0 Z " fill="#E65849" transform="translate(111,17)"/>
<path d="M0 0 C22.77 0 45.54 0 69 0 C69 5.61 69 11.22 69 17 C46.23 17 23.46 17 0 17 C0 11.39 0 5.78 0 0 Z " fill="#4193CB" transform="translate(34,196)"/>
<path d="M0 0 C0.33 0 0.66 0 1 0 C1 25.41 1 50.82 1 77 C-4.61 77 -10.22 77 -16 77 C-16.24844848 69.36880928 -16.42924261 61.74000485 -16.54931641 54.10571289 C-16.59939979 51.51284751 -16.6674898 48.92026165 -16.75439453 46.32836914 C-17.54979253 21.98451151 -17.54979253 21.98451151 -11.15234375 14.984375 C-9.46758497 13.61502069 -7.75332549 12.28038787 -6 11 C-3.09886636 7.60614387 -0.92375772 4.40927654 0 0 Z " fill="#86C3D8" transform="translate(170,324)"/>
<path d="M0 0 C13.53 0 27.06 0 41 0 C41 8.25 41 16.5 41 25 C22.19 25.495 22.19 25.495 3 26 C2.505 22.266875 2.01 18.53375 1.5 14.6875 C1.34337891 13.51405029 1.18675781 12.34060059 1.02539062 11.1315918 C0.90357422 10.20515869 0.78175781 9.27872559 0.65625 8.32421875 C0.53056641 7.37635498 0.40488281 6.42849121 0.27539062 5.4519043 C0 3 0 3 0 0 Z " fill="#388BC3" transform="translate(61,231)"/>
<path d="M0 0 C39.6 0 79.2 0 120 0 C120 0.33 120 0.66 120 1 C80.73 1 41.46 1 1 1 C1.33 61.06 1.66 121.12 2 183 C6.29 179.04 10.58 175.08 15 171 C15.66 170.67 16.32 170.34 17 170 C17 181.55 17 193.1 17 205 C9.04458599 203.86351228 9.04458599 203.86351228 6.25 201.375 C5.69828125 200.90835938 5.1465625 200.44171875 4.578125 199.9609375 C0.37911326 194.7433536 -0.4396592 189.43274036 -0.36076355 182.90711975 C-0.36332682 182.12118028 -0.3658901 181.3352408 -0.36853105 180.52548498 C-0.37344923 177.90748371 -0.35700887 175.29006675 -0.34057617 172.67211914 C-0.33972947 170.7893373 -0.34020588 168.90655446 -0.34190369 167.02377319 C-0.34276339 161.92302356 -0.3251415 156.82248616 -0.30418181 151.72178578 C-0.28541099 146.38732435 -0.28366425 141.0528579 -0.28010559 135.71836853 C-0.27078633 125.62146252 -0.24617411 115.52465412 -0.21605712 105.42779106 C-0.17623493 91.78058354 -0.16005728 78.13334927 -0.14255047 64.48609829 C-0.11435299 42.9906591 -0.05458257 21.49542587 0 0 Z " fill="#74A7B7" transform="translate(119,196)"/>
<path d="M0 0 C11.22 0 22.44 0 34 0 C34 5.61 34 11.22 34 17 C22.78 17 11.56 17 0 17 C0 11.39 0 5.78 0 0 Z " fill="#CFCFCF" transform="translate(256,85)"/>
<path d="M0 0 C5.61 0 11.22 0 17 0 C17 5.61 17 11.22 17 17 C11.39 17 5.78 17 0 17 C0 11.39 0 5.78 0 0 Z " fill="#010100" transform="translate(401,401)"/>
<path d="M0 0 C5.61 0 11.22 0 17 0 C17 5.61 17 11.22 17 17 C11.39 17 5.78 17 0 17 C0 11.39 0 5.78 0 0 Z " fill="#030200" transform="translate(316,401)"/>
<path d="M0 0 C5.61 0 11.22 0 17 0 C17 5.61 17 11.22 17 17 C11.39 17 5.78 17 0 17 C0 11.39 0 5.78 0 0 Z " fill="#080502" transform="translate(435,393)"/>
<path d="M0 0 C5.61 0 11.22 0 17 0 C17 5.61 17 11.22 17 17 C11.39 17 5.78 17 0 17 C0 11.39 0 5.78 0 0 Z " fill="#060401" transform="translate(350,393)"/>
<path d="M0 0 C5.61 0 11.22 0 17 0 C17 5.61 17 11.22 17 17 C11.39 17 5.78 17 0 17 C0 11.39 0 5.78 0 0 Z " fill="#F57118" transform="translate(350,17)"/>
</svg>
