<svg xmlns="http://www.w3.org/2000/svg" width="24" height="25" viewBox="0 0 24 25" fill="none">
  <g clip-path="url(#clip0_94_3885)">
    <path d="M3.35251 4C2.72858 4 2.13021 4.24785 1.68903 4.68903C1.24785 5.13021 1 5.72858 1 6.35251V18.115C1 18.739 1.24785 19.3373 1.68903 19.7785C2.13021 20.2197 2.72858 20.4675 3.35251 20.4675H9.79366C9.97246 19.8782 10.2947 19.3407 10.7323 18.9031L12.9025 16.7318C12.8119 16.6255 12.7623 16.4903 12.7625 16.3507V8.11688C12.7625 7.9609 12.8245 7.81131 12.9348 7.70102C13.0451 7.59072 13.1947 7.52876 13.3507 7.52876C13.5066 7.52876 13.6562 7.59072 13.7665 7.70102C13.8768 7.81131 13.9388 7.9609 13.9388 8.11688V15.6967L16.4124 13.223C16.7253 12.9101 17.0841 12.6702 17.4675 12.5067V6.35251C17.4675 5.72858 17.2197 5.13021 16.7785 4.68903C16.3373 4.24785 15.739 4 15.115 4H3.35251ZM9.23377 12.2338C9.38975 12.2338 9.53934 12.2957 9.64964 12.406C9.75993 12.5163 9.82189 12.6659 9.82189 12.8219V16.3507C9.82189 16.5066 9.75993 16.6562 9.64964 16.7665C9.53934 16.8768 9.38975 16.9388 9.23377 16.9388C9.07779 16.9388 8.92819 16.8768 8.8179 16.7665C8.7076 16.6562 8.64564 16.5066 8.64564 16.3507V12.8219C8.64564 12.6659 8.7076 12.5163 8.8179 12.406C8.92819 12.2957 9.07779 12.2338 9.23377 12.2338ZM4.52876 10.4694C4.52876 10.3134 4.59072 10.1638 4.70102 10.0535C4.81131 9.94323 4.9609 9.88126 5.11688 9.88126C5.27286 9.88126 5.42246 9.94323 5.53275 10.0535C5.64305 10.1638 5.70501 10.3134 5.70501 10.4694V16.3507C5.70501 16.5066 5.64305 16.6562 5.53275 16.7665C5.42246 16.8768 5.27286 16.9388 5.11688 16.9388C4.9609 16.9388 4.81131 16.8768 4.70102 16.7665C4.59072 16.6562 4.52876 16.5066 4.52876 16.3507V10.4694ZM11.5627 19.7347L17.244 14.0534C17.6568 13.6409 18.2165 13.4091 18.8001 13.4093C19.3836 13.4094 19.9433 13.6413 20.3558 14.054C20.7684 14.4667 21.0001 15.0265 21 15.61C20.9999 16.1936 20.768 16.7532 20.3552 17.1658L14.6739 22.8459C14.343 23.177 13.9283 23.412 13.4742 23.5258L11.7121 23.9657C11.5369 24.0094 11.3534 24.007 11.1794 23.9588C11.0054 23.9105 10.8468 23.8181 10.7191 23.6905C10.5913 23.5629 10.4988 23.4044 10.4504 23.2304C10.402 23.0565 10.3995 22.873 10.443 22.6977L10.8841 20.9357C10.9969 20.4812 11.232 20.0662 11.5639 19.7359L11.5627 19.7347Z" fill="#7C7E80"/>
  </g>
  <defs>
    <clipPath id="clip0_94_3885">
      <rect width="24" height="24" fill="white" transform="translate(0 0.31488)"/>
    </clipPath>
  </defs>
</svg>