<svg xmlns="http://www.w3.org/2000/svg" width="24" height="21" viewBox="0 0 24 21" fill="none">
  <path d="M11.7456 0.613251L0 6.09454L3.13216 7.50401V10.1663C2.19251 10.4796 1.56608 11.4192 1.56608 12.3589C1.56608 13.2985 2.19251 14.2382 3.13216 14.5514V14.708L1.72269 17.9968C1.25287 19.4062 1.56608 20.9723 3.9152 20.9723C6.26433 20.9723 6.57754 19.4062 6.10772 17.9968L4.69825 14.708C5.63789 14.2382 6.26433 13.4551 6.26433 12.3589C6.26433 11.2626 5.63789 10.4796 4.69825 10.1663V8.28705L11.7456 11.5758L23.4912 6.09454L11.7456 0.613251ZM18.6364 10.7928L11.589 13.9249L7.83041 12.2023V12.3589C7.83041 13.4551 7.36058 14.3948 6.57754 15.1778L7.51719 17.3703V17.5269C7.6738 18.1534 7.83041 18.7798 7.6738 19.4062C8.77006 19.8761 10.0229 20.1893 11.589 20.1893C16.7571 20.1893 18.6364 17.0571 18.6364 15.491V10.7928Z" fill="#7C7E80"/>
</svg>