<?xml version="1.0" encoding="UTF-8" standalone="no"?>
<!-- Created with Inkscape (http://www.inkscape.org/) -->

<svg
   version="1.1"
   id="svg1278"
   xml:space="preserve"
   width="682.66669"
   height="682.66669"
   viewBox="0 0 682.66669 682.66669"
   xmlns="http://www.w3.org/2000/svg"
   xmlns:svg="http://www.w3.org/2000/svg"><defs
     id="defs1282"><clipPath
       clipPathUnits="userSpaceOnUse"
       id="clipPath1292"><path
         d="M 0,512 H 512 V 0 H 0 Z"
         id="path1290" /></clipPath></defs><g
     id="g1284"
     transform="matrix(1.3333333,0,0,-1.3333333,0,682.66667)"><g
       id="g1286"><g
         id="g1288"
         clip-path="url(#clipPath1292)"><g
           id="g1294"
           transform="translate(162.54,355.8076)"><path
             d="m 0,0 91.059,-55.391 c 1.475,-0.897 3.327,-0.897 4.802,0 L 186.92,0 c 4.135,2.516 8.863,-2.213 6.348,-6.348 l -55.391,-91.059 c -0.898,-1.474 -0.898,-3.326 0,-4.801 l 55.391,-91.06 c 2.515,-4.134 -2.213,-8.863 -6.348,-6.347 l -91.059,55.39 c -1.475,0.898 -3.327,0.898 -4.802,0 L 0,-199.616 c -4.135,-2.515 -8.863,2.214 -6.348,6.348 l 55.391,91.06 c 0.897,1.474 0.897,3.326 0,4.801 L -6.348,-6.348 C -8.863,-2.213 -4.135,2.516 0,0"
             style="fill:#01c0fa;fill-opacity:1;fill-rule:nonzero;stroke:none"
             id="path1296" /></g><g
           id="g1298"
           transform="translate(300.417,253.5991)"><path
             d="m 0,0 c -0.897,1.475 -0.897,3.327 0,4.802 l 23.305,38.312 -21.719,5.289 -5.29,21.72 -38.313,-23.305 c -1.474,-0.898 -3.326,-0.898 -4.801,0 l -38.312,23.305 -5.29,-21.72 -21.719,-5.289 23.305,-38.312 c 0.897,-1.475 0.897,-3.327 0,-4.802 l -23.305,-38.312 21.719,-5.29 5.29,-21.719 38.313,23.305 c 1.474,0.897 3.326,0.897 4.801,0 l 38.312,-23.305 5.29,21.719 21.719,5.29 z"
             style="fill:#08a9f1;fill-opacity:1;fill-rule:nonzero;stroke:none"
             id="path1300" /></g><g
           id="g1302"
           transform="translate(260.4883,409.0654)"><path
             d="m 0,0 28.435,-116.748 c 0.408,-1.677 1.717,-2.986 3.395,-3.395 l 116.747,-28.434 c 4.702,-1.145 4.702,-7.832 0,-8.977 L 31.83,-185.988 c -1.678,-0.408 -2.987,-1.718 -3.395,-3.395 L 0.001,-306.131 c -1.146,-4.702 -7.833,-4.702 -8.978,0 l -28.434,116.748 c -0.408,1.677 -1.718,2.987 -3.396,3.395 l -116.747,28.434 c -4.702,1.145 -4.702,7.832 0,8.977 l 116.747,28.434 c 1.678,0.409 2.988,1.718 3.396,3.395 L -8.978,0 C -7.832,4.702 -1.145,4.702 0,0"
             style="fill:#fd4755;fill-opacity:1;fill-rule:nonzero;stroke:none"
             id="path1304" /></g><g
           id="g1306"
           transform="translate(409.0654,260.4888)"><path
             d="m 0,0 -116.747,28.434 c -1.678,0.408 -2.987,1.718 -3.397,3.395 l -28.433,116.748 c -1.145,4.702 -7.832,4.702 -8.977,0 l -4.838,-19.864 27.248,-111.884 c 0.41,-1.677 1.719,-2.987 3.397,-3.395 L -19.864,-13.815 0,-8.978 C 4.702,-7.832 4.702,-1.145 0,0"
             style="fill:#fb2b3a;fill-opacity:1;fill-rule:nonzero;stroke:none"
             id="path1308" /></g><g
           id="g1310"
           transform="translate(277.3184,208.0776)"><path
             d="m 0,0 c -1.678,-0.409 -2.987,-1.718 -3.396,-3.396 l -23.596,-96.883 1.185,-4.864 c 1.145,-4.702 7.832,-4.702 8.977,0 L 9.332,2.272 Z"
             style="fill:#fb2b3a;fill-opacity:1;fill-rule:nonzero;stroke:none"
             id="path1312" /></g><g
           id="g1314"
           transform="translate(36.8428,317.2593)"><path
             d="M 0,0 C 22.367,80.188 87.562,142.516 169.378,160.778"
             style="fill:none;stroke:#000000;stroke-width:15;stroke-linecap:round;stroke-linejoin:round;stroke-miterlimit:10;stroke-dasharray:none;stroke-opacity:1"
             id="path1316" /></g><g
           id="g1318"
           transform="translate(215.3574,32.1201)"><path
             d="M 0,0 C -87.199,15.726 -157.125,81.146 -179.398,165.885"
             style="fill:none;stroke:#000000;stroke-width:15;stroke-linecap:round;stroke-linejoin:round;stroke-miterlimit:10;stroke-dasharray:none;stroke-opacity:1"
             id="path1320" /></g><g
           id="g1322"
           transform="translate(475.1572,194.7422)"><path
             d="M 0,0 C -22.225,-79.68 -86.735,-141.726 -167.823,-160.427"
             style="fill:none;stroke:#000000;stroke-width:15;stroke-linecap:round;stroke-linejoin:round;stroke-miterlimit:10;stroke-dasharray:none;stroke-opacity:1"
             id="path1324" /></g><g
           id="g1326"
           transform="translate(307.332,477.6851)"><path
             d="M 0,0 C 81.089,-18.701 145.601,-80.747 167.826,-160.428"
             style="fill:none;stroke:#000000;stroke-width:15;stroke-linecap:round;stroke-linejoin:round;stroke-miterlimit:10;stroke-dasharray:none;stroke-opacity:1"
             id="path1328" /></g><g
           id="g1330"
           transform="translate(315.542,228.7339)"><path
             d="m 0,0 40.266,-66.194 c 2.515,-4.135 -2.213,-8.863 -6.348,-6.348 l -66.193,40.266"
             style="fill:none;stroke:#000000;stroke-width:15;stroke-linecap:round;stroke-linejoin:round;stroke-miterlimit:10;stroke-dasharray:none;stroke-opacity:1"
             id="path1332" /></g><g
           id="g1334"
           transform="translate(283.2656,315.542)"><path
             d="m 0,0 66.194,40.266 c 4.135,2.515 8.864,-2.213 6.348,-6.348 L 32.276,-32.276"
             style="fill:none;stroke:#000000;stroke-width:15;stroke-linecap:round;stroke-linejoin:round;stroke-miterlimit:10;stroke-dasharray:none;stroke-opacity:1"
             id="path1336" /></g><g
           id="g1338"
           transform="translate(183.6787,304.2729)"><path
             d="m 0,0 -27.486,45.187 c -2.516,4.135 2.213,8.863 6.347,6.348 L 45.055,11.27"
             style="fill:none;stroke:#000000;stroke-width:15;stroke-linecap:round;stroke-linejoin:round;stroke-miterlimit:10;stroke-dasharray:none;stroke-opacity:1"
             id="path1340" /></g><g
           id="g1342"
           transform="translate(228.7334,196.4575)"><path
             d="m 0,0 -66.193,-40.266 c -4.135,-2.515 -8.864,2.214 -6.348,6.349 l 40.266,66.193"
             style="fill:none;stroke:#000000;stroke-width:15;stroke-linecap:round;stroke-linejoin:round;stroke-miterlimit:10;stroke-dasharray:none;stroke-opacity:1"
             id="path1344" /></g><g
           id="g1346"
           transform="translate(235.1309,444.937)"><path
             d="M 0,0 V 59.452 L 40.195,1.247 c 0.745,-1.077 1.543,-0.549 1.543,0.76 l -0.556,57.556"
             style="fill:none;stroke:#000000;stroke-width:15;stroke-linecap:round;stroke-linejoin:round;stroke-miterlimit:10;stroke-dasharray:none;stroke-opacity:1"
             id="path1348" /></g><g
           id="g1350"
           transform="translate(504.5,285.5098)"><path
             d="M 0,0 H -24.868 V -59.02 H 0"
             style="fill:none;stroke:#000000;stroke-width:15;stroke-linecap:round;stroke-linejoin:round;stroke-miterlimit:10;stroke-dasharray:none;stroke-opacity:1"
             id="path1352" /></g><g
           id="g1354"
           transform="translate(502.666,256)"><path
             d="M 0,0 H -23.034"
             style="fill:none;stroke:#000000;stroke-width:15;stroke-linecap:round;stroke-linejoin:round;stroke-miterlimit:10;stroke-dasharray:none;stroke-opacity:1"
             id="path1356" /></g><g
           id="g1358"
           transform="translate(273.3711,60.9399)"><path
             d="m 0,0 c 0,0 -10.688,8.984 -23.291,5.187 -11.573,-3.485 -13.191,-16.83 -4.819,-22.289 0,0 8.215,-3.665 17.328,-7.026 21.935,-8.091 12.486,-29.312 -5.172,-29.312 -8.843,0 -16.265,3.873 -20.757,8.829"
             style="fill:none;stroke:#000000;stroke-width:15;stroke-linecap:round;stroke-linejoin:round;stroke-miterlimit:10;stroke-dasharray:none;stroke-opacity:1"
             id="path1360" /></g><g
           id="g1362"
           transform="translate(7.5,285.7817)"><path
             d="m 0,0 11.605,-58.669 c 0.426,-1.201 2.129,-1.189 2.54,0.017 l 18.12,58.543"
             style="fill:none;stroke:#000000;stroke-width:15;stroke-linecap:round;stroke-linejoin:round;stroke-miterlimit:10;stroke-dasharray:none;stroke-opacity:1"
             id="path1364" /></g><g
           id="g1366"
           transform="translate(39.7646,285.7817)"><path
             d="m 0,0 18.074,-58.669 c 0.427,-1.201 2.129,-1.189 2.54,0.017 l 11.651,58.543"
             style="fill:none;stroke:#000000;stroke-width:15;stroke-linecap:round;stroke-linejoin:round;stroke-miterlimit:10;stroke-dasharray:none;stroke-opacity:1"
             id="path1368" /></g><g
           id="g1370"
           transform="translate(334.3066,233.3037)"><path
             d="m 0,0 -41.988,-10.226 c -1.678,-0.409 -2.988,-1.718 -3.396,-3.396 l -28.433,-116.747 c -1.146,-4.702 -7.833,-4.702 -8.978,0 l -28.434,116.747 c -0.409,1.678 -1.718,2.987 -3.396,3.396 l -116.747,28.434 c -4.702,1.145 -4.702,7.832 0,8.977 l 116.747,28.434 c 1.678,0.408 2.987,1.718 3.396,3.395 l 28.433,116.748 c 1.146,4.702 7.833,4.702 8.978,0 L -45.384,59.014 c 0.408,-1.677 1.718,-2.987 3.396,-3.395 L 74.759,27.185 c 4.702,-1.145 4.702,-7.832 0,-8.977 L 26.34,6.415"
             style="fill:none;stroke:#000000;stroke-width:15;stroke-linecap:round;stroke-linejoin:round;stroke-miterlimit:10;stroke-dasharray:none;stroke-opacity:1"
             id="path1372" /></g><g
           id="g1374"
           transform="translate(504.5,504.5)"><path
             d="M 0,0 -42.272,-42.272"
             style="fill:none;stroke:#000000;stroke-width:15;stroke-linecap:round;stroke-linejoin:round;stroke-miterlimit:10;stroke-dasharray:none;stroke-opacity:1"
             id="path1376" /></g><g
           id="g1378"
           transform="translate(7.5,504.5)"><path
             d="M 0,0 42.272,-42.272"
             style="fill:none;stroke:#000000;stroke-width:15;stroke-linecap:round;stroke-linejoin:round;stroke-miterlimit:10;stroke-dasharray:none;stroke-opacity:1"
             id="path1380" /></g><g
           id="g1382"
           transform="translate(504.5,7.5)"><path
             d="M 0,0 -42.272,42.272"
             style="fill:none;stroke:#000000;stroke-width:15;stroke-linecap:round;stroke-linejoin:round;stroke-miterlimit:10;stroke-dasharray:none;stroke-opacity:1"
             id="path1384" /></g><g
           id="g1386"
           transform="translate(7.5,7.5)"><path
             d="M 0,0 42.272,42.272"
             style="fill:none;stroke:#000000;stroke-width:15;stroke-linecap:round;stroke-linejoin:round;stroke-miterlimit:10;stroke-dasharray:none;stroke-opacity:1"
             id="path1388" /></g></g></g></g></svg>
