<svg clip-rule="evenodd" fill-rule="evenodd" stroke-linejoin="round" stroke-miterlimit="2" viewBox="0 0 510 510" xmlns="http://www.w3.org/2000/svg" xmlns:serif="http://www.serif.com/"><g id="Artboard421" serif:id="Artboard42"><g><g><path d="m327.745 255.376h154.505v239.624h-154.505z" fill="#d5a889"/><path d="m459.885 255.376c0 3.864-3.137 7-7 7-3.864 0-7-3.136-7-7v-67.905c0-4.416-3.585-8-8-8-4.416 0-8 3.584-8 8v11.283c0 3.863-3.137 7-7 7-3.864 0-7-3.137-7-7v-11.283c0-12.142 9.857-22 22-22 12.142 0 22 9.858 22 22z" fill="#cad0d7"/><path d="m362.81 396.619c0 3.864-3.136 7-7 7-3.863 0-7-3.136-7-7v-42.862c0-3.863 3.137-7 7-7 3.864 0 7 3.137 7 7z" fill="#937661"/></g><g><path d="m18.736 255.376h154.505v239.624h-154.505z" fill="#a4d4ff"/><path d="m18.736 255.376h154.505v75.097h-154.505z" fill="#e4e8eb"/><g fill="#f4f6f8"><path d="m93.804 285.425c4.139 0 7.5 3.36 7.5 7.5 0 4.139-3.361 7.5-7.5 7.5-4.14 0-7.5-3.361-7.5-7.5 0-4.14 3.36-7.5 7.5-7.5z"/><path d="m136.693 285.425c4.139 0 7.5 3.36 7.5 7.5 0 4.139-3.361 7.5-7.5 7.5-4.139 0-7.5-3.361-7.5-7.5 0-4.14 3.361-7.5 7.5-7.5z"/><path d="m50.914 285.425c4.14 0 7.5 3.36 7.5 7.5 0 4.139-3.36 7.5-7.5 7.5-4.139 0-7.5-3.361-7.5-7.5 0-4.14 3.361-7.5 7.5-7.5z"/></g><path d="m122.406 330.473h-57.204v.631c0 11.046 8.954 20 20 20h17.204c11.046 0 20-8.954 20-20 0-.405 0-.631 0-.631z" fill="#cad0d7"/></g><g><path d="m173.241 255.376h154.505v119.812h-154.505z" fill="#d5a889"/><path d="m173.241 255.376h154.505v239.624h-154.505z" fill="#d5a889"/><g fill="#937661"><path d="m229.062 408.428c-3.863 0-7-3.137-7-7s3.137-7 7-7h42.862c3.863 0 7 3.137 7 7s-3.137 7-7 7z"/><path d="m229.062 293.414c-3.863 0-7-3.136-7-7 0-3.863 3.137-7 7-7h42.862c3.863 0 7 3.137 7 7 0 3.864-3.137 7-7 7z"/></g></g><g><path d="m139.193 204.245c3.863 0 7 3.136 7 7 0 3.863-3.137 7-7 7h-14.074c-3.864 0-7-3.137-7-7 0-3.864 3.136-7 7-7z" fill="#e4e8eb"/><path d="m62.489 204.245c3.863 0 7 3.136 7 7 0 3.863-3.137 7-7 7h-14.075c-3.863 0-7-3.137-7-7 0-3.864 3.137-7 7-7z" fill="#e4e8eb"/><path d="m130.119 203.31h-72.63v30.852c0 10.772 8.531 19.609 19.296 19.987 10.06.354 22.372.788 32.63 1.149 5.423.191 10.691-1.83 14.595-5.599s6.109-8.963 6.109-14.389c0-14.761 0-32 0-32z" fill="#f76c82"/></g><path d="m482.25 16.21c0-.668-.542-1.21-1.21-1.21h-461.094c-.668 0-1.21.542-1.21 1.21v21.784c0 .668.542 1.21 1.21 1.21h461.094c.668 0 1.21-.542 1.21-1.21z" fill="#d5a889"/><path d="m167.087 495v-239.624h324.177v239.624s-320.9 0-324.177 0zm153.658-226.752h-140.504v100.128h140.504zm14 0v213.504h140.505v-213.504zm-14 213.504v-100.128h-140.504v100.128z" fill="#efc7a4"/></g></g></svg>