<svg width="25" height="25" viewBox="0 0 25 25" fill="none" xmlns="http://www.w3.org/2000/svg">
<path d="M21.3387 3.66133C16.4569 -1.22046 8.54204 -1.22046 3.66128 3.66143C-1.22046 8.54316 -1.22046 16.458 3.66147 21.3387C8.54204 26.2205 16.4569 26.2205 21.3387 21.3386C26.2205 16.458 26.2205 8.54316 21.3387 3.66133ZM19.8656 19.8654C15.7974 23.9337 9.20176 23.9337 5.13462 19.8656C1.06636 15.7983 1.06636 9.20269 5.13452 5.13452C9.20176 1.06631 15.7974 1.06631 19.8655 5.13452C23.9337 9.20273 23.9337 15.7983 19.8656 19.8654Z" fill="#2A3037"/>
<path d="M17.6559 7.34415C17.2491 6.93737 16.5895 6.93737 16.1827 7.34415L12.4999 11.027L8.81699 7.34415C8.41021 6.93737 7.75063 6.93737 7.34385 7.34415C6.93706 7.75094 6.93706 8.41051 7.34385 8.8173L11.0267 12.5002L7.34521 16.1817C6.93843 16.5884 6.93843 17.248 7.34521 17.6548C7.752 18.0616 8.41157 18.0616 8.81836 17.6548L12.4999 13.9733L16.1824 17.6559C16.5892 18.0627 17.2488 18.0627 17.6556 17.6559C18.0624 17.2491 18.0624 16.5895 17.6556 16.1827L13.973 12.5002L17.6559 8.8173C18.0626 8.41051 18.0626 7.75099 17.6559 7.34415Z" fill="#2A3037"/>
</svg>
