<?xml version="1.0" encoding="UTF-8"?>
<svg version="1.1" xmlns="http://www.w3.org/2000/svg" width="512" height="512">
<path d="M0 0 C3.64181649 0.02915413 7.2821868 0.02051837 10.92407227 0.00756836 C22.90147796 0.01827786 34.22140471 0.28529554 45.81665039 3.46655273 C46.60531494 3.66514893 47.39397949 3.86374512 48.20654297 4.06835938 C67.35182108 9.10635017 84.78165285 18.64776924 99.81665039 31.46655273 C100.5759082 32.09174805 101.33516602 32.71694336 102.11743164 33.36108398 C108.13809614 38.46669067 113.02291012 44.21076599 117.81665039 50.46655273 C118.4005957 51.21163086 118.98454102 51.95670898 119.58618164 52.72436523 C134.1489855 72.30059337 143.34537679 96.85707122 144.13305664 121.27514648 C144.17495117 122.51586914 144.2168457 123.7565918 144.26000977 125.03491211 C144.29932617 126.31172852 144.33864258 127.58854492 144.37915039 128.90405273 C144.42233398 130.20793945 144.46551758 131.51182617 144.51000977 132.85522461 C144.61562563 136.05890589 144.7177314 139.26265884 144.81665039 142.46655273 C145.36659668 142.65628662 145.91654297 142.84602051 146.4831543 143.04150391 C147.5647583 143.42786011 147.5647583 143.42786011 148.66821289 143.82202148 C149.38315918 144.07363037 150.09810547 144.32523926 150.8347168 144.58447266 C154.73128181 146.31867928 156.31566408 149.26605697 157.90161133 153.06640625 C159.0443054 157.31248424 159.1038249 161.18085395 159.08227539 165.55639648 C159.08418884 166.41914688 159.08610229 167.28189728 159.08807373 168.17079163 C159.08942984 169.9887013 159.08577367 171.80662085 159.07739258 173.62451172 C159.06669796 176.39174394 159.07730063 179.15832509 159.09008789 181.92553711 C159.08876594 183.69832499 159.08620281 185.47111246 159.08227539 187.24389648 C159.08632385 188.06389633 159.09037231 188.88389618 159.09454346 189.72874451 C159.04436555 195.9444324 158.59482876 201.3608152 154.44165039 206.27905273 C150.56387667 209.51053083 148.92812651 210.46655273 143.81665039 210.46655273 C143.83759766 211.71154541 143.85854492 212.95653809 143.88012695 214.23925781 C143.95309338 218.90401489 143.99865427 223.5687226 144.03637695 228.23388672 C144.05636432 230.24438998 144.08356365 232.25483607 144.1184082 234.26513672 C144.35520898 248.28861812 144.39754684 260.21028626 134.81665039 271.40795898 C128.46648574 277.94416362 122.1335819 280.91435809 113.45336914 283.27514648 C112.08276085 283.65692551 112.08276085 283.65692551 110.6844635 284.04641724 C107.73142035 284.8641667 104.77486577 285.6677266 101.81665039 286.46655273 C100.83426392 286.73208954 99.85187744 286.99762634 98.83972168 287.27120972 C92.83268352 288.88833312 86.81832992 290.476092 80.79882812 292.04614258 C77.69593182 292.85676211 74.59517415 293.67525901 71.49438477 294.49389648 C69.5068788 295.01390284 67.51925321 295.53345222 65.53149414 296.05249023 C64.61182358 296.29615326 63.69215302 296.53981628 62.74461365 296.79086304 C61.89174271 297.01174591 61.03887177 297.23262878 60.16015625 297.46020508 C59.41519394 297.65528656 58.67023163 297.85036804 57.9026947 298.05136108 C55.81665039 298.46655273 55.81665039 298.46655273 51.81665039 298.46655273 C52.10341687 307.87249315 52.80746431 314.77007761 59.00415039 322.02905273 C61.85453778 323.84830352 61.85453778 323.84830352 65.49169922 322.77001953 C72.88585757 321.82744771 79.88474414 324.80623498 86.82836914 327.04858398 C88.40228351 327.54316295 89.97666066 328.03627134 91.5514679 328.52799988 C95.70251648 329.82882851 99.84655323 331.1507571 103.98956299 332.47692871 C108.09361315 333.7860728 112.20455222 335.07318651 116.31469727 336.36303711 C125.82906762 339.35514711 135.32702519 342.39692903 144.81665039 345.46655273 C145.55748745 345.70600239 146.29832451 345.94545204 147.06161118 346.19215775 C151.28422298 347.55841224 155.50369406 348.93376507 159.7189579 350.32253075 C161.58284041 350.93579168 163.44839565 351.54396154 165.31401062 352.15193176 C190.00590443 360.35622584 209.01736786 376.60656516 221.11767578 399.66259766 C229.12394057 415.8054281 231.13557853 432.62871944 231.11743164 450.43139648 C231.12132809 452.03894662 231.12566468 453.64649574 231.13041687 455.25404358 C231.13782286 458.59810757 231.13762605 461.94206582 231.13232422 465.28613281 C231.12649269 469.56545056 231.1435757 473.84434066 231.16666889 478.12358761 C231.18140069 481.43246474 231.18227946 484.74123817 231.17915916 488.05014229 C231.1796712 489.62856465 231.18488687 491.20699299 231.19497108 492.78538322 C231.20732766 494.98660232 231.20055283 497.18697773 231.18896484 499.38818359 C231.18959427 500.63772324 231.19022369 501.88726288 231.19087219 503.17466736 C230.78582165 506.73774131 229.96382834 508.62447877 227.81665039 511.46655273 C224.88191629 512.93391978 221.92703218 512.60759674 218.71008492 512.60077381 C217.59409433 512.60430216 217.59409433 512.60430216 216.45555848 512.60790178 C213.93667672 512.61461361 211.41784628 512.61413291 208.8989563 512.61372375 C207.08516799 512.61702101 205.27138042 512.62074628 203.4575938 512.62486523 C198.45314137 512.63490887 193.44870094 512.63860581 188.44423985 512.64125454 C183.05491323 512.64515054 177.66559617 512.65472926 172.27627563 512.66346741 C159.25213733 512.68325046 146.22799823 512.69329977 133.20384866 512.7021952 C127.07675425 512.70657456 120.94966071 512.71194223 114.82256699 512.71718407 C94.46604911 512.73419719 74.10953178 512.74869307 53.75300789 512.75593281 C48.46774418 512.75784283 43.18248048 512.75976314 37.8972168 512.76171875 C35.92668141 512.76244436 35.92668141 512.76244436 33.91633724 512.76318463 C12.61839663 512.77149128 -8.67947074 512.79683853 -29.97738896 512.82929943 C-51.82287246 512.86232464 -73.66832742 512.8803774 -95.51383603 512.88357705 C-107.78771064 512.88574622 -120.06150349 512.89455433 -132.33535385 512.92003822 C-142.78462269 512.9416832 -153.23378992 512.94982629 -163.68307863 512.94007144 C-169.01821952 512.93550885 -174.35315048 512.93752614 -179.68826294 512.95683289 C-184.56746143 512.97433798 -189.44629488 512.9735707 -194.32549657 512.95793559 C-196.09535259 512.95554016 -197.86523305 512.95998217 -199.63505147 512.97176424 C-202.03218563 512.98674043 -204.42800219 512.97731146 -206.82510185 512.96153736 C-207.5199341 512.97175957 -208.21476634 512.98198178 -208.93065411 512.99251375 C-212.28330463 512.94401946 -213.92112954 512.67501891 -216.58074009 510.5606162 C-219.42752444 506.84084103 -219.31886985 504.459127 -219.34448242 499.79223633 C-219.34944733 499.10563431 -219.35441223 498.41903229 -219.35952759 497.71162415 C-219.37418013 495.42940267 -219.38096282 493.14725113 -219.38647461 490.86499023 C-219.39223164 489.26950073 -219.3979893 487.67401123 -219.40374756 486.07852173 C-219.41427182 482.72088296 -219.42010248 479.36326818 -219.42358398 476.00561523 C-219.4290159 471.74729504 -219.45292184 467.48930324 -219.48155594 463.23108482 C-219.50040173 459.92604734 -219.50539981 456.62108469 -219.50691986 453.31599808 C-219.50990718 451.74944932 -219.51779918 450.18290058 -219.53110504 448.61640549 C-219.73167353 423.14622949 -213.01467536 400.09726738 -196.18334961 380.46655273 C-195.73862305 379.87745117 -195.29389648 379.28834961 -194.83569336 378.68139648 C-182.57389833 362.81980842 -163.70168476 355.46260904 -145.32788086 349.41967773 C-143.8727054 348.9382196 -142.41754626 348.45671215 -140.96240234 347.97515869 C-126.0614573 343.05658592 -111.11597536 338.27994729 -96.13549805 333.60961914 C-93.12132999 332.66896821 -90.11066629 331.71805846 -87.10229492 330.7590332 C-83.37312655 329.57032128 -79.6389836 328.39872808 -75.90065002 327.23917389 C-74.50509231 326.80330089 -73.11132417 326.36164828 -71.71958923 325.91371918 C-63.94280194 323.41610415 -58.24220966 322.12617164 -50.18334961 323.46655273 C-46.00537394 320.9907153 -43.44123289 318.23742023 -41.70678711 313.64624023 C-40.5901434 308.99633583 -40.43889109 304.22612576 -40.18334961 299.46655273 C-41.64623413 299.15306885 -41.64623413 299.15306885 -43.13867188 298.83325195 C-56.29944955 295.9781933 -69.37495359 292.79356655 -82.43554688 289.51293945 C-84.90337613 288.89594127 -87.37280706 288.28531617 -89.84375 287.6809082 C-93.46990353 286.79344666 -97.090564 285.88604995 -100.71069336 284.97436523 C-101.8005101 284.71164825 -102.89032684 284.44893127 -104.01316833 284.17825317 C-116.61391124 280.95100869 -126.43197614 275.58290888 -133.49194336 264.39233398 C-137.54466317 256.83616408 -138.46314752 249.32658846 -138.42163086 240.89233398 C-138.43703541 239.07266494 -138.4533379 237.25300331 -138.47045898 235.43334961 C-138.48696031 232.59586059 -138.49579973 229.75892022 -138.48876953 226.92138672 C-138.48615178 224.16108301 -138.51422771 221.40241844 -138.54663086 218.64233398 C-138.53132072 217.37345085 -138.53132072 217.37345085 -138.51570129 216.07893372 C-138.58795875 211.72491849 -138.71019019 210.03203828 -141.59814453 206.58056641 C-142.45126221 205.88294189 -143.30437988 205.18531738 -144.18334961 204.46655273 C-147.71811432 199.16440567 -147.35462741 193.68466995 -147.38647461 187.50952148 C-147.39217468 186.64772781 -147.39787476 185.78593414 -147.40374756 184.89802551 C-147.41317075 183.07835101 -147.41972086 181.25865965 -147.42358398 179.43896484 C-147.43328049 176.67376522 -147.46432532 173.90931229 -147.49584961 171.14428711 C-147.50238159 169.37020295 -147.5076313 167.59611351 -147.51147461 165.82202148 C-147.52382141 165.00404587 -147.53616821 164.18607025 -147.54888916 163.3433075 C-147.52744985 157.74192766 -146.55966458 153.56409748 -144.18334961 148.46655273 C-143.30936523 147.86713867 -142.43538086 147.26772461 -141.53491211 146.65014648 C-138.71374045 144.03048709 -138.79667721 143.28964656 -138.58178711 139.56420898 C-138.55449245 137.55266024 -138.54796132 135.54075983 -138.55834961 133.52905273 C-138.51399396 131.34659033 -138.46176823 129.16427518 -138.40209961 126.98217773 C-138.37245117 125.88583008 -138.34280273 124.78948242 -138.31225586 123.65991211 C-136.99825032 91.10841133 -123.52505446 61.83499034 -101.18334961 38.46655273 C-100.58522461 37.80526367 -99.98709961 37.14397461 -99.37084961 36.46264648 C-73.43685394 8.79599163 -36.56902456 -0.31928285 0 0 Z " fill="#FDD8A7" transform="translate(250.183349609375,-0.466552734375)"/>
<path d="M0 0 C2.41796875 2.0390625 2.41796875 2.0390625 5 5 C6.30049194 6.32829343 7.60992287 7.64786499 8.92578125 8.9609375 C9.64056641 9.68023437 10.35535156 10.39953125 11.09179688 11.140625 C11.82462891 11.87796875 12.55746094 12.6153125 13.3125 13.375 C14.03373047 14.10460937 14.75496094 14.83421875 15.49804688 15.5859375 C19.5929088 19.69916204 23.78227021 23.61462211 28.18041992 27.40087891 C30.74693815 29.65643968 33.1125993 32.05507158 35.5 34.5 C39.22018007 38.2768097 43.0409949 41.85652671 47.07421875 45.296875 C50.54386825 48.36536827 53.76502448 51.68759155 57 55 C61.09893059 53.38970584 63.76203985 50.42181788 66.75 47.3125 C70.09311573 43.89660896 73.4152993 40.53346747 77.0625 37.4375 C81.32035227 33.81699775 85.19269955 29.83880166 89.09375 25.84375 C91.25418355 23.67526229 93.51572688 21.67130091 95.83984375 19.6796875 C98.7192233 17.18989106 101.40906484 14.60720349 104.03515625 11.8515625 C104.69966797 11.15675781 105.36417969 10.46195312 106.04882812 9.74609375 C107.40486163 8.31772092 108.75108296 6.87997581 110.08789062 5.43359375 C111.08272461 4.40298828 111.08272461 4.40298828 112.09765625 3.3515625 C112.68039307 2.73104004 113.26312988 2.11051758 113.86352539 1.47119141 C116.88840707 -0.61176334 119.35105113 -0.71935321 123 -1 C126.44923401 -0.31437683 126.44923401 -0.31437683 130.11157227 0.83911133 C131.1234687 1.15129608 131.1234687 1.15129608 132.1558075 1.4697876 C134.38059536 2.16004683 136.59825439 2.87076314 138.81640625 3.58203125 C140.39325925 4.07635723 141.97049239 4.56947205 143.54808044 5.06144714 C147.71475514 6.36478151 151.87559693 7.68587577 156.0355835 9.01037598 C159.33997628 10.05929581 162.64820554 11.09575532 165.95674992 12.13149166 C181.30717384 16.93701091 196.63384638 21.82149606 211.91085625 26.85597801 C213.77399783 27.46922866 215.63880779 28.07740341 217.50367737 28.68537903 C242.19194939 36.89309156 261.20174281 53.14196611 273.30102539 76.19604492 C281.30729018 92.33887537 283.31892813 109.16216671 283.30078125 126.96484375 C283.3046777 128.57239389 283.30901429 130.17994301 283.31376648 131.78749084 C283.32117247 135.13155484 283.32097566 138.47551309 283.31567383 141.81958008 C283.3098423 146.09889783 283.32692531 150.37778792 283.3500185 154.65703487 C283.36475029 157.96591201 283.36562907 161.27468544 283.36250877 164.58358955 C283.36302081 166.16201192 283.36823648 167.74044026 283.37832069 169.31883049 C283.39067727 171.52004959 283.38390244 173.72042499 283.37231445 175.92163086 C283.37294388 177.1711705 283.3735733 178.42071014 283.3742218 179.70811462 C282.96917126 183.27118858 282.14717795 185.15792604 280 188 C277.0652659 189.46736705 274.11038179 189.14104401 270.89343452 189.13422108 C269.77744394 189.13774942 269.77744394 189.13774942 268.63890809 189.14134905 C266.12002632 189.14806088 263.60119589 189.14758017 261.08230591 189.14717102 C259.2685176 189.15046828 257.45473003 189.15419355 255.64094341 189.1583125 C250.63649098 189.16835614 245.63205055 189.17205307 240.62758946 189.17470181 C235.23826284 189.1785978 229.84894578 189.18817652 224.45962524 189.19691467 C211.43548694 189.21669772 198.41134784 189.22674703 185.38719827 189.23564246 C179.26010386 189.24002182 173.13301032 189.24538949 167.0059166 189.25063133 C146.64939872 189.26764446 126.29288139 189.28214033 105.9363575 189.28938007 C100.65109379 189.29129009 95.36583009 189.29321041 90.08056641 189.29516602 C88.11003102 189.29589163 88.11003102 189.29589163 86.09968685 189.2966319 C64.80174624 189.30493855 43.50387887 189.33028579 22.20596065 189.36274669 C0.36047715 189.3957719 -21.48497781 189.41382467 -43.33048642 189.41702431 C-55.60436103 189.41919349 -67.87815389 189.42800159 -80.15200424 189.45348549 C-90.60127308 189.47513046 -101.05044031 189.48327356 -111.49972902 189.47351871 C-116.83486991 189.46895612 -122.16980087 189.4709734 -127.50491333 189.49028015 C-132.38411183 189.50778525 -137.26294527 189.50701797 -142.14214696 189.49138286 C-143.91200298 189.48898742 -145.68188344 189.49342943 -147.45170186 189.50521151 C-149.84883602 189.52018769 -152.24465258 189.51075872 -154.64175224 189.49498463 C-155.33658449 189.50520683 -156.03141673 189.51542904 -156.7473045 189.52596101 C-160.09995502 189.47746673 -161.73777993 189.20846617 -164.39739048 187.09406346 C-167.24417483 183.37428829 -167.13552024 180.99257426 -167.16113281 176.32568359 C-167.16609772 175.63908157 -167.17106262 174.95247955 -167.17617798 174.24507141 C-167.19083052 171.96284994 -167.19761321 169.6806984 -167.203125 167.3984375 C-167.20888203 165.802948 -167.21463969 164.20745849 -167.22039795 162.61196899 C-167.23092221 159.25433023 -167.23675287 155.89671545 -167.24023438 152.5390625 C-167.24566629 148.28074231 -167.26957223 144.0227505 -167.29820633 139.76453209 C-167.31705212 136.45949461 -167.3220502 133.15453196 -167.32357025 129.84944534 C-167.32655757 128.28289658 -167.33444957 126.71634785 -167.34775543 125.14985275 C-167.54832392 99.67967676 -160.83132575 76.63071465 -144 57 C-143.55527344 56.41089844 -143.11054688 55.82179688 -142.65234375 55.21484375 C-130.39289532 39.3562912 -111.52247275 31.99688728 -93.15234375 25.953125 C-91.69759321 25.47164316 -90.24285096 24.99013624 -88.78811646 24.50860596 C-73.85123776 19.57798359 -58.86262877 14.81263986 -43.84228516 10.14306641 C-40.81488216 9.20113933 -37.79046875 8.25033012 -34.76806641 7.29248047 C-31.02516391 6.10631932 -27.27809993 4.93435375 -23.52754593 3.77262115 C-22.12507834 3.33573348 -20.72410046 2.89403006 -19.32477951 2.44716644 C-17.39186385 1.8310584 -15.45261634 1.23492373 -13.51318359 0.63964844 C-12.42024994 0.29754333 -11.32731628 -0.04456177 -10.20126343 -0.39703369 C-6.47804711 -1.09831119 -3.68524309 -0.82918923 0 0 Z " fill="#FE4B4C" transform="translate(198,323)"/>
<path d="M0 0 C3.64181649 0.02915413 7.2821868 0.02051837 10.92407227 0.00756836 C22.90147796 0.01827786 34.22140471 0.28529554 45.81665039 3.46655273 C46.99964722 3.76444702 46.99964722 3.76444702 48.20654297 4.06835938 C67.35182108 9.10635017 84.78165285 18.64776924 99.81665039 31.46655273 C100.5759082 32.09174805 101.33516602 32.71694336 102.11743164 33.36108398 C108.13809614 38.46669067 113.02291012 44.21076599 117.81665039 50.46655273 C118.4005957 51.21163086 118.98454102 51.95670898 119.58618164 52.72436523 C134.61718687 72.92997882 144.07379972 98.43620954 143.91430664 123.68139648 C143.91218422 124.96500816 143.91218422 124.96500816 143.91001892 126.27455139 C143.90446029 128.98442204 143.89191564 131.69420742 143.87915039 134.40405273 C143.87413004 136.25105674 143.86956807 138.09806206 143.86547852 139.94506836 C143.85450444 144.45226224 143.83726869 148.95939307 143.81665039 153.46655273 C123.72329556 151.94609802 105.48612877 142.7957896 91.60571289 128.13061523 C87.10947805 122.80748663 78.81665039 112.74071807 78.81665039 105.46655273 C73.47772896 108.80591614 68.18108194 112.16501692 63.06665039 115.84155273 C38.47543109 133.17067759 11.23248078 145.80437204 -17.18334961 155.34155273 C-18.23119125 155.6946904 -18.23119125 155.6946904 -19.30020142 156.05496216 C-38.99467713 162.65553142 -58.06315137 165.89459116 -78.80834961 165.84155273 C-79.64717682 165.84067657 -80.48600403 165.83980042 -81.35025024 165.83889771 C-101.60772981 165.76913173 -118.39930376 162.03116848 -137.18334961 154.46655273 C-141.56128022 117.14723962 -134.78963234 80.10388791 -111.42700195 50.02124023 C-108.20027117 45.98751004 -104.75108301 42.19824447 -101.18334961 38.46655273 C-100.58522461 37.80526367 -99.98709961 37.14397461 -99.37084961 36.46264648 C-73.43685394 8.79599163 -36.56902456 -0.31928285 0 0 Z " fill="#FC9727" transform="translate(250.183349609375,-0.466552734375)"/>
<path d="M0 0 C1.65081322 0.51117119 1.65081322 0.51117119 3.3349762 1.03266907 C6.92564539 2.14626874 10.51374359 3.26787883 14.1015625 4.390625 C16.58401007 5.16481072 19.06651378 5.93881649 21.54907227 6.71264648 C25.3134683 7.88680324 29.0775044 9.06206831 32.84065247 10.24021912 C39.56843921 12.3464944 46.30063458 14.43662867 53.04223633 16.4982605 C56.73238675 17.62830837 60.41906685 18.76937817 64.1050415 19.91296387 C65.7803235 20.43024869 67.45700076 20.94304136 69.13519287 21.45080566 C84.71332227 26.17159527 98.96125134 32.30194648 111.7265625 42.640625 C112.49226562 43.24261719 113.25796875 43.84460938 114.046875 44.46484375 C132.61420079 59.89448557 142.88866967 83.03789614 145.7265625 106.640625 C146.01325378 112.29693561 146.03311572 117.94297861 146.02734375 123.60546875 C146.0312402 125.21301889 146.03557679 126.82056801 146.04032898 128.42811584 C146.04773497 131.77217984 146.04753816 135.11613809 146.04223633 138.46020508 C146.0364048 142.73952283 146.05348781 147.01841292 146.076581 151.29765987 C146.09131279 154.60653701 146.09219157 157.91531044 146.08907127 161.22421455 C146.08958331 162.80263692 146.09479898 164.38106526 146.10488319 165.95945549 C146.11723977 168.16067459 146.11046494 170.36104999 146.09887695 172.56225586 C146.09950638 173.8117955 146.1001358 175.06133514 146.1007843 176.34873962 C145.69573376 179.91181358 144.87374045 181.79855104 142.7265625 184.640625 C140.02366942 185.99207154 137.92586444 185.76037665 134.89990234 185.75415039 C133.67878754 185.75407486 132.45767273 185.75399933 131.19955444 185.75392151 C129.86220255 185.74881452 128.52485107 185.74359852 127.1875 185.73828125 C125.82272391 185.7364164 124.45794716 185.73499281 123.09317017 185.73399353 C119.49941157 185.73017363 115.90569333 185.72034783 112.31195068 185.70928955 C108.64547268 185.69906411 104.97898815 185.69449348 101.3125 185.68945312 C94.11716909 185.6787251 86.92187145 185.66165499 79.7265625 185.640625 C79.63391688 175.01831073 79.5628251 164.39609245 79.51931381 153.77345657 C79.4984314 148.84101347 79.4701018 143.90884661 79.42480469 138.9765625 C79.38137029 134.21736686 79.35743032 129.45843707 79.34705353 124.69905853 C79.33965783 122.88253341 79.32521581 121.06602297 79.30364227 119.2496109 C79.27463984 116.70677656 79.2706051 114.16504321 79.27246094 111.62207031 C79.25807983 110.86969086 79.24369873 110.1173114 79.22888184 109.34213257 C79.25630531 105.87366605 79.48449861 103.96920621 81.56744385 101.14178467 C83.7265625 99.640625 83.7265625 99.640625 86.7265625 99.640625 C81.52354339 82.5903905 75.9049728 67.04343561 63.7265625 53.640625 C62.51033203 52.28517578 62.51033203 52.28517578 61.26953125 50.90234375 C47.72442874 36.56397023 30.67910821 28.47110891 11.7265625 23.640625 C4.84719252 30.92403835 -1.86596072 38.23748193 -8.16015625 46.0390625 C-15.56940068 55.16023957 -22.24680569 63.31969605 -34.2734375 65.640625 C-40.65463984 66.14509917 -45.83386424 65.19642324 -51.80859375 63.015625 C-52.57272079 62.74927246 -53.33684784 62.48291992 -54.12413025 62.20849609 C-56.53288211 61.36554328 -58.93426646 60.50351816 -61.3359375 59.640625 C-62.98066878 59.06121814 -64.62584798 58.48308112 -66.27148438 57.90625 C-70.27745826 56.49898728 -74.27694946 55.07459351 -78.2734375 53.640625 C-76.42612724 49.62918487 -73.77881171 46.88157403 -70.6484375 43.828125 C-70.10646729 43.2926001 -69.56449707 42.7570752 -69.00610352 42.20532227 C-65.55913335 38.82392086 -62.01080673 35.60857514 -58.33203125 32.48046875 C-54.78758528 29.3126622 -51.49948992 25.88417266 -48.1796875 22.484375 C-46.02186875 20.32004872 -43.76635949 18.31276379 -41.44921875 16.3203125 C-36.28996762 11.8548959 -31.58314795 6.96729637 -26.83398438 2.07421875 C-26.15787109 1.38714844 -25.48175781 0.70007813 -24.78515625 -0.0078125 C-24.18147217 -0.62833496 -23.57778809 -1.24885742 -22.95581055 -1.88818359 C-16.88809 -7.19424716 -6.64981677 -2.0871485 0 0 Z " fill="#EF2929" transform="translate(335.2734375,326.359375)"/>
<path d="M0 0 C0.4846875 0.96679688 0.969375 1.93359375 1.46875 2.9296875 C11.87575902 23.32091259 26.9656736 37.14809909 48.91796875 44.34765625 C54.2476376 45.91454519 59.50928856 47.15083592 65 48 C65 44.37 65 40.74 65 37 C74.96815027 39.78521846 74.96815027 39.78521846 78 45 C80.12955436 50.12141473 80.29246638 54.63980894 80.265625 60.08984375 C80.26753845 60.95259415 80.2694519 61.81534454 80.27142334 62.70423889 C80.27277944 64.52214857 80.26912328 66.34006812 80.26074219 68.15795898 C80.25004757 70.9251912 80.26065024 73.69177236 80.2734375 76.45898438 C80.27211555 78.23177225 80.26955242 80.00455973 80.265625 81.77734375 C80.26967346 82.5973436 80.27372192 83.41734344 80.27789307 84.26219177 C80.22771516 90.47787966 79.77817837 95.89426246 75.625 100.8125 C71.59287074 104.17260772 69.02090995 105.26370816 63.75 105.125 C62.85796875 105.10695313 61.9659375 105.08890625 61.046875 105.0703125 C60.37140625 105.04710937 59.6959375 105.02390625 59 105 C59.05220703 106.61455078 59.05220703 106.61455078 59.10546875 108.26171875 C59.4537938 123.47949749 57.87420177 136.4691073 47.046875 148.09765625 C39.55695853 155.04204731 31.58017011 157.65853464 21.6875 159.5625 C20.11983887 159.87610474 20.11983887 159.87610474 18.52050781 160.19604492 C-5.89078342 165 -5.89078342 165 -14 165 C-14.226875 165.7425 -14.45375 166.485 -14.6875 167.25 C-16.30613985 170.64143588 -17.89896678 171.88993056 -21 174 C-24.19921875 174.9765625 -24.19921875 174.9765625 -27.6875 175.625 C-29.54761719 175.97884766 -29.54761719 175.97884766 -31.4453125 176.33984375 C-32.61835938 176.55769531 -33.79140625 176.77554688 -35 177 C-35.88429688 177.20753906 -36.76859375 177.41507813 -37.6796875 177.62890625 C-45.46462793 179.45390048 -54.08973677 180.71502773 -61.5625 177.4375 C-65.54458895 173.45541105 -67.69663077 170.1235846 -68.5 164.5 C-67.69238399 158.84668793 -65.82747423 155.43263308 -61.32421875 151.90234375 C-57.64538155 149.79706323 -54.59728553 149.00556145 -50.4375 148.25 C-49.15746094 148.00765625 -47.87742187 147.7653125 -46.55859375 147.515625 C-43.62537561 147.09061425 -40.95217135 146.88667288 -38 147 C-37.74734375 146.30519531 -37.4946875 145.61039063 -37.234375 144.89453125 C-35.83821664 141.62062826 -34.09533461 138.73087162 -32.25 135.6875 C-21.42238344 117.09138875 -17.11326035 96.61884294 -18.06612396 75.22074699 C-18.17569242 72.62438517 -18.24519452 70.02952012 -18.30401611 67.43153381 C-18.47228105 60.06443448 -18.66697038 52.70036727 -18.98730469 45.33813477 C-19.18238263 40.78926091 -19.29754929 36.24413583 -19.3622818 31.69162178 C-19.40153948 29.97767149 -19.46989304 28.26410359 -19.56941986 26.55259514 C-20.30533446 13.6378525 -20.30533446 13.6378525 -16.39161682 9.15962601 C-12.21767537 5.52525982 -5.78697922 0 0 0 Z " fill="#F3C791" transform="translate(329,105)"/>
<path d="M0 0 C7.55811976 -0.07678551 15.11613699 -0.12890497 22.67456055 -0.16479492 C25.23970295 -0.17977503 27.80482022 -0.20016617 30.36987305 -0.22631836 C57.58730999 -0.4966376 57.58730999 -0.4966376 70 3 C70.78705322 3.19891846 71.57410645 3.39783691 72.38500977 3.6027832 C91.53028039 8.6196776 108.97273737 18.18781126 124 31 C124.75925781 31.62519531 125.51851563 32.25039063 126.30078125 32.89453125 C132.32144575 38.00013793 137.20625973 43.74421325 142 50 C142.58394531 50.74507812 143.16789063 51.49015625 143.76953125 52.2578125 C158.80053648 72.46342609 168.25714933 97.9696568 168.09765625 123.21484375 C168.09553383 124.49845543 168.09553383 124.49845543 168.09336853 125.80799866 C168.0878099 128.51786931 168.07526525 131.22765468 168.0625 133.9375 C168.05747965 135.78450401 168.05291768 137.63150932 168.04882812 139.47851562 C168.03785405 143.98570951 168.0206183 148.49284034 168 153 C148.62556462 151.53394558 132.17896883 143.14858563 118 130 C116.85337891 129.03513672 116.85337891 129.03513672 115.68359375 128.05078125 C107.84936642 120.24540927 107.87265734 109.08387413 106.40917969 98.67041016 C105.60910524 93.4489219 104.09666628 88.83067146 102 84 C101.50886719 82.86232178 101.50886719 82.86232178 101.0078125 81.70166016 C93.85499323 65.35808474 85.36110744 51.92917304 73 39 C72.401875 38.33871094 71.80375 37.67742188 71.1875 36.99609375 C53.25292673 17.86330545 25.11706648 4.00514906 -1 2 C-0.67 1.34 -0.34 0.68 0 0 Z " fill="#FE6D39" transform="translate(226,0)"/>
<path d="M0 0 C11.22 0 22.44 0 34 0 C34.78375 2.908125 35.5675 5.81625 36.375 8.8125 C41.24750395 25.58481206 49.53615792 39.89846619 61 53 C61.64195312 53.7425 62.28390625 54.485 62.9453125 55.25 C72.96749723 66.00974811 85.95064633 73.54010719 99 80 C99 83.3 99 86.6 99 90 C90.40818457 88.53760218 81.98454735 86.62690798 73.53125 84.515625 C72.86001602 84.34842705 72.18878204 84.1812291 71.49720764 84.00896454 C67.94966828 83.12460102 64.40334776 82.23552359 60.85791016 81.34277344 C57.23377209 80.43132695 53.60551472 79.53755047 49.97605133 78.64758682 C47.14901779 77.95075906 44.32553624 77.240284 41.50279236 76.52629852 C40.16786975 76.19114836 38.83167793 75.86100554 37.49415588 75.53638458 C23.60853956 72.15676271 12.53277616 67.35493774 4.69140625 54.92578125 C0.60365972 47.30430511 -0.29796176 39.75757071 -0.1953125 31.25 C-0.1924826 30.35128174 -0.18965271 29.45256348 -0.18673706 28.52661133 C-0.17563125 25.68426635 -0.15054505 22.84224814 -0.125 20 C-0.11495777 18.0612025 -0.10583411 16.12240001 -0.09765625 14.18359375 C-0.07743346 9.45550504 -0.03826711 4.72811399 0 0 Z " fill="#FC9727" transform="translate(112,209)"/>
<path d="M0 0 C9.96815027 2.78521846 9.96815027 2.78521846 13 8 C15.12955436 13.12141473 15.29246638 17.63980894 15.265625 23.08984375 C15.26753845 23.95259415 15.2694519 24.81534454 15.27142334 25.70423889 C15.27277944 27.52214857 15.26912328 29.34006812 15.26074219 31.15795898 C15.25004757 33.9251912 15.26065024 36.69177236 15.2734375 39.45898438 C15.27211555 41.23177225 15.26955242 43.00455973 15.265625 44.77734375 C15.26967346 45.5973436 15.27372192 46.41734344 15.27789307 47.26219177 C15.22771516 53.47787966 14.77817837 58.89426246 10.625 63.8125 C6.59287074 67.17260772 4.02090995 68.26370816 -1.25 68.125 C-2.14203125 68.10695313 -3.0340625 68.08890625 -3.953125 68.0703125 C-4.62859375 68.04710937 -5.3040625 68.02390625 -6 68 C-5.94779297 69.61455078 -5.94779297 69.61455078 -5.89453125 71.26171875 C-5.5462062 86.47949749 -7.12579823 99.4691073 -17.953125 111.09765625 C-25.37631861 117.98018418 -33.32131902 120.65295088 -43.125 122.5625 C-44.15947266 122.77156982 -45.19394531 122.98063965 -46.25976562 123.19604492 C-56.7768044 125.26257599 -67.36322164 126.71227978 -78 128 C-78.05986084 127.31437988 -78.11972168 126.62875977 -78.18139648 125.92236328 C-78.26462158 125.02243652 -78.34784668 124.12250977 -78.43359375 123.1953125 C-78.51407959 122.30344238 -78.59456543 121.41157227 -78.67749023 120.49267578 C-79.03234406 117.750013 -79.76330169 115.47339662 -81 113 C-75.36634899 111.64280226 -69.72271333 110.60487998 -64 109.703125 C-61.76285079 109.34153665 -59.52594962 108.97844027 -57.2890625 108.61523438 C-55.76411913 108.37192003 -54.23804695 108.13557702 -52.7109375 107.90625 C-38.37142196 105.76426998 -38.37142196 105.76426998 -27.34375 96.86816406 C-24.1874697 92.1865012 -22.94970033 88.07937842 -22.68359375 82.453125 C-22.62075195 81.18662109 -22.62075195 81.18662109 -22.55664062 79.89453125 C-22.51732422 79.02183594 -22.47800781 78.14914063 -22.4375 77.25 C-22.39431641 76.36183594 -22.35113281 75.47367187 -22.30664062 74.55859375 C-22.20086385 72.37254037 -22.09877454 70.18637911 -22 68 C-23.65 68 -25.3 68 -27 68 C-26.89722496 67.1359404 -26.89722496 67.1359404 -26.79237366 66.25442505 C-26.02532032 59.30762246 -25.78898014 52.41465552 -25.68359375 45.4296875 C-25.66281265 44.26744659 -25.64203156 43.10520569 -25.62062073 41.90774536 C-25.5557403 38.23021811 -25.49652897 34.55262536 -25.4375 30.875 C-25.39425616 28.36718099 -25.35064009 25.85936837 -25.30664062 23.3515625 C-25.20012284 17.23444229 -25.09824743 11.11725834 -25 5 C-19.71540332 6.01806615 -14.63094692 7.53578067 -9.47265625 9.0625 C-6.31733927 9.91432911 -3.23097745 10.52645216 0 11 C0 7.37 0 3.74 0 0 Z " fill="#3F6686" transform="translate(394,142)"/>
<path d="M0 0 C2.41796875 2.0390625 2.41796875 2.0390625 5 5 C6.30049194 6.32829343 7.60992287 7.64786499 8.92578125 8.9609375 C9.64056641 9.68023437 10.35535156 10.39953125 11.09179688 11.140625 C11.82462891 11.87796875 12.55746094 12.6153125 13.3125 13.375 C14.03373047 14.10460937 14.75496094 14.83421875 15.49804688 15.5859375 C19.5929088 19.69916204 23.78227021 23.61462211 28.18041992 27.40087891 C30.74693815 29.65643968 33.1125993 32.05507158 35.5 34.5 C39.22132601 38.27797308 43.04828019 41.85388302 47.07421875 45.3046875 C50.53837359 48.35426802 53.97985828 51.50595307 57 55 C57 55.66 57 56.32 57 57 C56.04109863 57.32798584 55.08219727 57.65597168 54.09423828 57.99389648 C50.54166964 59.2094419 46.98973407 60.42682794 43.43798828 61.64477539 C41.89974946 62.17197208 40.36133868 62.69866731 38.82275391 63.22485352 C36.61315394 63.98061933 34.40417567 64.73817764 32.1953125 65.49609375 C31.50567413 65.73154404 30.81603577 65.96699432 30.10549927 66.20957947 C26.48838677 67.44705168 26.48838677 67.44705168 23 69 C20.79626122 69.17641478 18.58533143 69.26753608 16.375 69.3125 C14.59222656 69.36857422 14.59222656 69.36857422 12.7734375 69.42578125 C4.70969256 68.51589699 -0.23706149 64.37542878 -5.4375 58.4375 C-6.27752563 57.50659546 -6.27752563 57.50659546 -7.13452148 56.55688477 C-11.13796288 52.08468054 -14.94118013 47.46340611 -18.69140625 42.77734375 C-21.35280321 39.57556162 -24.15473612 36.53777038 -27 33.5 C-32.27235546 27.86685607 -37.19717412 22.04226482 -42 16 C-43.33303393 14.33309385 -44.66632856 12.66639612 -46 11 C-40.57975101 9.25403057 -35.15385041 7.52740893 -29.72192383 5.81811523 C-27.87651211 5.23447647 -26.03272735 4.64566639 -24.19067383 4.05151367 C-21.53621951 3.19632491 -18.87638956 2.36016038 -16.21484375 1.52734375 C-15.39789536 1.25969711 -14.58094696 0.99205048 -13.73924255 0.71629333 C-8.80473695 -0.80352255 -5.14162825 -1.31316434 0 0 Z " fill="#D41459" transform="translate(198,323)"/>
<path d="M0 0 C1.08384727 0.33081825 1.08384727 0.33081825 2.18959045 0.6683197 C4.47296703 1.36647458 6.7540601 2.07177803 9.03515625 2.77734375 C10.592953 3.25503353 12.15089445 3.73225171 13.70898438 4.20898438 C17.50690258 5.37215986 21.30279137 6.54174698 25.09765625 7.71484375 C25.09765625 8.37484375 25.09765625 9.03484375 25.09765625 9.71484375 C26.08765625 10.20984375 26.08765625 10.20984375 27.09765625 10.71484375 C26.40800781 11.45347656 25.71835937 12.19210937 25.0078125 12.953125 C20.4087196 17.90808538 15.89334815 22.87641708 11.66015625 28.15234375 C7.82038875 32.9262944 3.74097218 37.40285869 -0.4519043 41.86328125 C-3.69552117 45.33640177 -6.71091708 48.9147033 -9.65234375 52.65234375 C-15.38486705 59.73551553 -21.69290266 65.11685854 -30.90234375 66.71484375 C-37.29706975 67.16720869 -42.44708217 66.27636828 -48.4375 64.08984375 C-49.20162704 63.82349121 -49.96575409 63.55713867 -50.7530365 63.28271484 C-53.16178836 62.43976203 -55.56317271 61.57773691 -57.96484375 60.71484375 C-59.60957503 60.13543689 -61.25475423 59.55729987 -62.90039062 58.98046875 C-66.90636451 57.57320603 -70.90585571 56.14881226 -74.90234375 54.71484375 C-73.05503349 50.70340362 -70.40771796 47.95579278 -67.27734375 44.90234375 C-66.73537354 44.36681885 -66.19340332 43.83129395 -65.63500977 43.27954102 C-62.1880396 39.89813961 -58.63971298 36.68279389 -54.9609375 33.5546875 C-51.41649153 30.38688095 -48.12839617 26.95839141 -44.80859375 23.55859375 C-42.650775 21.39426747 -40.39526574 19.38698254 -38.078125 17.39453125 C-32.91887387 12.92911465 -28.2120542 8.04151512 -23.46289062 3.1484375 C-22.78677734 2.46136719 -22.11066406 1.77429688 -21.4140625 1.06640625 C-20.81037842 0.44588379 -20.20669434 -0.17463867 -19.5847168 -0.81396484 C-14.09715384 -5.6126957 -6.15880225 -1.91827987 0 0 Z " fill="#D41459" transform="translate(331.90234375,325.28515625)"/>
<path d="M0 0 C1.27141846 -0.00945648 2.54283691 -0.01891296 3.8527832 -0.02865601 C5.24170238 -0.02328631 6.63061873 -0.01713337 8.01953125 -0.01025391 C9.44295399 -0.01227479 10.86637572 -0.01518636 12.28979492 -0.01895142 C15.27239849 -0.02337412 18.25473246 -0.01694576 21.23730469 -0.00292969 C25.06088216 0.01416256 28.88382791 0.00432104 32.7073822 -0.01364708 C35.64649212 -0.02448659 38.58545222 -0.0210379 41.52456665 -0.0132637 C42.93437779 -0.01126214 44.34420253 -0.01371947 45.7539978 -0.02070236 C47.72401673 -0.02831864 49.69408334 -0.0146522 51.6640625 0 C52.78530518 0.00238678 53.90654785 0.00477356 55.06176758 0.00723267 C57.83203125 0.38818359 57.83203125 0.38818359 59.69326782 1.71627808 C61.56165386 4.45939825 61.22172554 7.09113568 61.23046875 10.35693359 C61.23333893 11.03365112 61.23620911 11.71036865 61.23916626 12.40759277 C61.24120522 13.83651569 61.23568694 15.26546662 61.22314453 16.69433594 C61.20708636 18.88068084 61.22299659 21.06517738 61.2421875 23.25146484 C61.24020504 24.64079184 61.23636129 26.03011768 61.23046875 27.41943359 C61.22708496 28.68335938 61.22370117 29.94728516 61.22021484 31.24951172 C60.83203125 34.38818359 60.83203125 34.38818359 59.69326782 36.05909729 C57.00345778 37.97985779 54.94966724 37.77640383 51.6640625 37.79223633 C49.75693481 37.81126259 49.75693481 37.81126259 47.8112793 37.83067322 C46.42236163 37.82862192 45.03344508 37.82563401 43.64453125 37.82177734 C42.22110748 37.82633779 40.79768592 37.83164296 39.37426758 37.83766174 C36.3916733 37.84659683 33.40934673 37.84416504 30.42675781 37.83422852 C26.60305074 37.82273155 22.78026615 37.84295801 18.9566803 37.87214565 C16.01755905 37.8904835 13.07865994 37.89022025 10.13949585 37.88450813 C8.72967229 37.88435465 7.31983392 37.89042107 5.9100647 37.90279961 C3.94009449 37.91766103 1.96997264 37.9044277 0 37.88989258 C-1.68186401 37.88964333 -1.68186401 37.88964333 -3.39770508 37.88938904 C-6.16796875 37.38818359 -6.16796875 37.38818359 -8.02920532 35.55435181 C-9.64086653 32.48863228 -9.55680897 29.99166186 -9.56640625 26.54052734 C-9.56927643 25.88742081 -9.57214661 25.23431427 -9.57510376 24.56141663 C-9.57713905 23.18554819 -9.57164653 21.80965046 -9.55908203 20.43383789 C-9.54299234 18.32877015 -9.55895952 16.22561449 -9.578125 14.12060547 C-9.57614298 12.78140853 -9.57230014 11.44221278 -9.56640625 10.10302734 C-9.56302246 8.88736084 -9.55963867 7.67169434 -9.55615234 6.41918945 C-9.16796875 3.38818359 -9.16796875 3.38818359 -8.02920532 1.7230072 C-5.33833219 -0.20680711 -3.29114746 0.00700584 0 0 Z " fill="#EDA457" transform="translate(133.16796875,429.61181640625)"/>
<path d="M0 0 C0 3.3 0 6.6 0 10 C0.96292969 10.15662109 0.96292969 10.15662109 1.9453125 10.31640625 C6.02883429 11.23023785 9.91919151 12.58317148 13.875 13.9375 C15.43439018 14.46893397 16.99428033 14.99890334 18.5546875 15.52734375 C19.24030762 15.76187256 19.92592773 15.99640137 20.63232422 16.23803711 C23.73353247 17.23606464 26.86451795 18.11646782 30 19 C30.02505615 19.99741211 30.0501123 20.99482422 30.07592773 22.02246094 C30.17124366 25.77988052 30.27114282 29.53716751 30.37231445 33.29443359 C30.41520031 34.90996159 30.45689992 36.52552158 30.49731445 38.14111328 C30.73127384 47.45905153 31.06895876 56.71928957 32 66 C27.85574912 66.07465394 23.71186376 66.12883721 19.56713867 66.16479492 C18.15984266 66.17979877 16.75259276 66.20020863 15.34545898 66.22631836 C13.31222093 66.26307665 11.27960568 66.27980984 9.24609375 66.29296875 C8.02591553 66.3086792 6.8057373 66.32438965 5.54858398 66.34057617 C0.09005126 65.81669223 -3.78530518 64.47042005 -7.375 60.125 C-10.27110798 54.55556158 -10.17143538 49.18756416 -10.203125 43.04296875 C-10.20882507 42.18117508 -10.21452515 41.31938141 -10.22039795 40.43147278 C-10.22982114 38.61179827 -10.23637125 36.79210691 -10.24023438 34.97241211 C-10.24993088 32.20721248 -10.28097571 29.44275955 -10.3125 26.67773438 C-10.31903198 24.90365021 -10.32428169 23.12956077 -10.328125 21.35546875 C-10.3404718 20.53749313 -10.3528186 19.71951752 -10.36553955 18.87675476 C-10.34406945 13.26733109 -9.34846886 9.11550789 -7 4 C-2.9 0 -2.9 0 0 0 Z " fill="#3E6686" transform="translate(113,144)"/>
<path d="M0 0 C1.98 0 3.96 0 6 0 C6.09964557 5.92239601 6.17183264 11.84429294 6.21972656 17.76733398 C6.23971393 19.77783724 6.26691326 21.78828333 6.30175781 23.79858398 C6.53855859 37.82206539 6.58089645 49.74373353 -3 60.94140625 C-9.35155423 67.47904117 -15.68503089 70.44795443 -24.3671875 72.80859375 C-25.28113281 73.0631131 -26.19507813 73.31763245 -27.13671875 73.5798645 C-30.08833768 74.39725847 -33.04341766 75.20075579 -36 76 C-36.98002991 76.2655368 -37.96005981 76.53107361 -38.9697876 76.80465698 C-44.96075171 78.42232187 -50.95904549 80.01044732 -56.96289062 81.57958984 C-60.05502338 82.38941047 -63.14465691 83.2083648 -66.234375 84.02734375 C-68.21860437 84.54743093 -70.20297403 85.06698321 -72.1875 85.5859375 C-73.10200928 85.82960052 -74.01651855 86.07326355 -74.95874023 86.3243103 C-75.81153564 86.54519318 -76.66433105 86.76607605 -77.54296875 86.99365234 C-78.28571045 87.18873383 -79.02845215 87.38381531 -79.79370117 87.58480835 C-82.2376504 88.04472216 -84.51874155 88.07025324 -87 88 C-87 85.03 -87 82.06 -87 79 C-85.92363281 78.46632813 -84.84726562 77.93265625 -83.73828125 77.3828125 C-68.40856499 69.74687029 -68.40856499 69.74687029 -55.72265625 58.45410156 C-53.27597989 56.38885151 -51.03176179 56.15089771 -47.8984375 55.5703125 C-46.68542969 55.33183594 -45.47242188 55.09335937 -44.22265625 54.84765625 C-41.68160618 54.37040319 -39.1399469 53.89638107 -36.59765625 53.42578125 C-25.13984582 51.16325691 -15.08736093 47.06635469 -8.08203125 37.3359375 C-0.68356785 25.52890519 -0.60222413 13.51834702 0 0 Z " fill="#FD6E3A" transform="translate(388,210)"/>
<path d="M0 0 C3.61597455 2.80720679 5.39568826 4.80684938 6.0234375 9.43359375 C6.29024481 15.17425436 5.62284813 18.64188217 1.70703125 23.1015625 C-1.59633077 26.09103039 -4.58002122 26.82244297 -8.91796875 27.6640625 C-10.79162109 28.03144531 -10.79162109 28.03144531 -12.703125 28.40625 C-14.48009766 28.75042969 -14.48009766 28.75042969 -16.29296875 29.1015625 C-17.17855469 29.31039063 -18.06414062 29.51921875 -18.9765625 29.734375 C-26.76424329 31.55022175 -35.38095118 32.81735968 -42.85546875 29.5390625 C-46.8375577 25.55697355 -48.98959952 22.2251471 -49.79296875 16.6015625 C-48.99498769 11.01569506 -47.13735836 7.60957194 -42.765625 4.03515625 C-38.36944342 1.58733861 -34.27687977 0.71557614 -29.35546875 -0.1484375 C-28.43048584 -0.31537109 -27.50550293 -0.48230469 -26.55249023 -0.65429688 C-6.91170431 -3.98468362 -6.91170431 -3.98468362 0 0 Z " fill="#D4165A" transform="translate(310.29296875,252.8984375)"/>
<path d="M0 0 C3.6875 0.3125 3.6875 0.3125 5.8895874 1.83319092 C8.35993467 5.23978277 8.21897955 8.24574354 8.14160156 12.29394531 C8.14218567 13.0943222 8.14276978 13.8946991 8.14337158 14.71932983 C8.14058875 17.36020545 8.10948834 19.99994701 8.078125 22.640625 C8.0706633 24.47336205 8.06497003 26.30610709 8.06097412 28.13885498 C8.04571221 32.95920902 8.00642562 37.77907985 7.9621582 42.59924316 C7.92121751 47.51922061 7.90296567 52.43927625 7.8828125 57.359375 C7.83993174 67.01066297 7.76957736 76.66146568 7.6875 86.3125 C2.7375 86.3125 -2.2125 86.3125 -7.3125 86.3125 C-7.38029186 75.96815695 -7.43532541 65.62396158 -7.46793652 55.2794466 C-7.48358864 50.47600866 -7.5048187 45.67273066 -7.53881836 40.86938477 C-7.57142789 36.23338945 -7.58935643 31.59754792 -7.59713173 26.96144676 C-7.60267237 25.19321459 -7.61349191 23.42499077 -7.62969017 21.65682411 C-7.65148578 19.1789904 -7.65446606 16.70179119 -7.65307617 14.22387695 C-7.663862 13.49379425 -7.67464783 12.76371155 -7.6857605 12.01150513 C-7.64991449 6.10085327 -6.41937799 0.6056017 0 0 Z " fill="#D41459" transform="translate(89.3125,425.6875)"/>
<path d="M0 0 C3.1359157 1.77984405 3.84102736 2.52308207 5 6 C5.09098225 8.57076529 5.12606038 11.11381035 5.11352539 13.68432617 C5.11367142 14.4650499 5.11381744 15.24577362 5.1139679 16.05015564 C5.11327114 18.63112159 5.10548982 21.2120154 5.09765625 23.79296875 C5.09579123 25.58230042 5.09436772 27.3716326 5.09336853 29.16096497 C5.08954999 33.87097584 5.07972533 38.58095589 5.06866455 43.29095459 C5.05843621 48.09696028 5.05386786 52.90297094 5.04882812 57.70898438 C5.03810249 67.13933864 5.02051102 76.56966193 5 86 C0.05 86 -4.9 86 -10 86 C-10.09033814 75.37762462 -10.16373725 64.75550402 -10.20724869 54.13283157 C-10.2281311 49.20038847 -10.2564607 44.26822161 -10.30175781 39.3359375 C-10.34519221 34.57674186 -10.36913218 29.81781207 -10.37950897 25.05843353 C-10.38690467 23.24190841 -10.40134669 21.42539797 -10.42292023 19.6089859 C-10.45192266 17.06615156 -10.4559574 14.52441821 -10.45410156 11.98144531 C-10.46848267 11.22906586 -10.48286377 10.4766864 -10.49768066 9.70150757 C-10.47031569 6.24043967 -10.25309979 4.33980206 -8.15911865 1.52850342 C-5.23133704 -0.54415906 -3.51579887 -0.51272067 0 0 Z " fill="#D41459" transform="translate(425,426)"/>
<path d="M0 0 C-20.88898138 20.28110097 -48.72708444 30.17234739 -77.5625 30.1875 C-79.36170898 30.20586914 -79.36170898 30.20586914 -81.19726562 30.22460938 C-89.3101817 30.23774416 -97.02304006 29.47134855 -105 28 C-105 27.34 -105 26.68 -105 26 C-103.9584375 25.67128906 -102.916875 25.34257812 -101.84375 25.00390625 C-91.05563638 21.4699783 -78.2008977 17.2008977 -70 9 C-69.21625 9.804375 -68.4325 10.60875 -67.625 11.4375 C-63.27444565 15.68446972 -60.10443333 15.32872103 -54.1953125 15.2890625 C-49.08087937 15.03976221 -44.08841978 14.12857717 -39.0625 13.1875 C-38.16297607 13.0222583 -37.26345215 12.8570166 -36.33666992 12.68676758 C-31.50886967 11.72860231 -27.15781309 10.75741703 -23 8 C-22.39414062 6.98808594 -21.78828125 5.97617187 -21.1640625 4.93359375 C-18.50288668 1.32611533 -16.96741814 1.047234 -12.703125 0.35742188 C-11.93484375 0.26009766 -11.1665625 0.16277344 -10.375 0.0625 C-9.59898437 -0.06189453 -8.82296875 -0.18628906 -8.0234375 -0.31445312 C-2.33685539 -1.1684277 -2.33685539 -1.1684277 0 0 Z " fill="#F3C591" transform="translate(334,268)"/>
<path d="M0 0 C1.98 0 3.96 0 6 0 C6.86385696 23.3721301 6.86385696 23.3721301 0.234375 31.04296875 C-4.06431555 35.14703355 -8.28821193 37.42433432 -14 39 C-14.66 38.67 -15.32 38.34 -16 38 C-15.41992188 37.05382812 -14.83984375 36.10765625 -14.2421875 35.1328125 C-7.5823294 23.96641233 -3.09229741 12.64203941 0 0 Z " fill="#FC6D3C" transform="translate(366,210)"/>
</svg>
