<svg xmlns="http://www.w3.org/2000/svg" width="71" height="70" viewBox="0 0 71 70" fill="none">
  <path d="M31.1475 13.125H39.8975C39.8975 11.9647 39.4365 10.8519 38.6161 10.0314C37.7956 9.21094 36.6828 8.75 35.5225 8.75C34.3621 8.75 33.2493 9.21094 32.4289 10.0314C31.6084 10.8519 31.1475 11.9647 31.1475 13.125ZM26.7725 13.125C26.7725 10.8044 27.6943 8.57876 29.3353 6.93782C30.9762 5.29687 33.2018 4.375 35.5225 4.375C37.8431 4.375 40.0687 5.29687 41.7096 6.93782C43.3506 8.57876 44.2725 10.8044 44.2725 13.125H61.7725C62.3526 13.125 62.909 13.3555 63.3193 13.7657C63.7295 14.1759 63.96 14.7323 63.96 15.3125C63.96 15.8927 63.7295 16.4491 63.3193 16.8593C62.909 17.2695 62.3526 17.5 61.7725 17.5H59.305L54.0331 56.1663C53.6755 58.7866 52.3807 61.1886 50.3883 62.9277C48.3959 64.6667 45.8408 65.625 43.1962 65.625H27.8487C25.2041 65.625 22.6491 64.6667 20.6567 62.9277C18.6642 61.1886 17.3694 58.7866 17.0118 56.1663L11.74 17.5H9.27246C8.6923 17.5 8.1359 17.2695 7.72566 16.8593C7.31543 16.4491 7.08496 15.8927 7.08496 15.3125C7.08496 14.7323 7.31543 14.1759 7.72566 13.7657C8.1359 13.3555 8.6923 13.125 9.27246 13.125H26.7725ZM31.1475 28.4375C31.1475 27.8573 30.917 27.3009 30.5068 26.8907C30.0965 26.4805 29.5401 26.25 28.96 26.25C28.3798 26.25 27.8234 26.4805 27.4132 26.8907C27.0029 27.3009 26.7725 27.8573 26.7725 28.4375V50.3125C26.7725 50.8927 27.0029 51.4491 27.4132 51.8593C27.8234 52.2695 28.3798 52.5 28.96 52.5C29.5401 52.5 30.0965 52.2695 30.5068 51.8593C30.917 51.4491 31.1475 50.8927 31.1475 50.3125V28.4375ZM42.085 26.25C42.6651 26.25 43.2215 26.4805 43.6318 26.8907C44.042 27.3009 44.2725 27.8573 44.2725 28.4375V50.3125C44.2725 50.8927 44.042 51.4491 43.6318 51.8593C43.2215 52.2695 42.6651 52.5 42.085 52.5C41.5048 52.5 40.9484 52.2695 40.5382 51.8593C40.1279 51.4491 39.8975 50.8927 39.8975 50.3125V28.4375C39.8975 27.8573 40.1279 27.3009 40.5382 26.8907C40.9484 26.4805 41.5048 26.25 42.085 26.25ZM21.3475 55.5756C21.5622 57.1475 22.339 58.5884 23.5343 59.6316C24.7295 60.6749 26.2622 61.2498 27.8487 61.25H43.1962C44.7834 61.2508 46.3172 60.6764 47.5134 59.6331C48.7095 58.5898 49.487 57.1483 49.7018 55.5756L54.8906 17.5H16.1543L21.3475 55.5756Z" fill="#F5374D"/>
</svg>