<svg id="Layer_1" enable-background="new 0 0 135 135" viewBox="0 0 135 135" xmlns="http://www.w3.org/2000/svg"><g><g><g><g><path d="m131.49828 67.49994v.00012c0 35.33781-28.64696 63.98476-63.98476 63.98476h-.02972c-35.33781 0-63.98476-28.64695-63.98476-63.98476v-.00012c0-35.33781 28.64695-63.98476 63.98476-63.98476h.02971c35.33781 0 63.98477 28.64695 63.98477 63.98476z" fill="#8666c6"/></g><g opacity=".25"><path d="m116.53099 101.24491c-.02002 2.69-.17993 5.34003-.47998 7.96002-10.53003 12.22998-25.58984 20.43999-42.58008 21.99999h-11.94995c-32.55005-3-58.02002-30.38-58.02002-63.7v-.01001c0-10.53998 2.55005-20.47998 7.07007-29.25 10.80005-5.95996 23.30005-9.20996 36.58008-8.82001 38.57983 1.11005 69.56982 33.22004 69.37988 71.82001z" fill="#fff"/></g><g opacity=".25"><path d="m131.50096 67.49491v.01001c0 18.10999-7.53003 34.46002-19.61987 46.10004-20.53003-12.56006-34.23999-35.20001-34.23999-61.03003 0-16.54999 5.61987-31.78003 15.07007-43.90002 22.80981 9.77001 38.78979 32.43005 38.78979 58.82z" fill="#fff"/></g></g></g><g><g><g><path d="m116.8904 87.3986v12.40081c0 3.03886-2.46304 5.50203-5.50203 5.50203h-28.51224v-46.03125h12.53943c3.34813 0 6.16312 2.42034 6.71761 5.6512.04269.22401.06403.45855.08525.6931l.71445 10.36432v.07458l10.26826 5.2887c2.2605 1.1622 3.68927 3.49742 3.68927 6.05651z" fill="#fff"/></g><g><path d="m116.89312 87.39496v12.408c0 3.03589-2.46463 5.50065-5.50065 5.50065h-28.51832v-5.54288h23.9488c3.03576 0 5.50053-2.46476 5.50053-5.50065v-12.39742c0-.33844-.02118-.67701-.07412-1.00499l.95205.48668c2.2637 1.16356 3.69171 3.49067 3.69171 6.05061z" fill="#e4e3ff"/></g><g><path d="m82.87317 51.89769v53.40357h-60.11871c-2.56679 0-4.64758-2.08079-4.64758-4.64758v-48.75599c0-2.56679 2.08079-4.64758 4.64758-4.64758h55.47112c2.56679-.00001 4.64759 2.08079 4.64759 4.64758z" fill="#f7f363"/></g><g><path d="m82.87415 51.90395v53.39966h-60.11594c-2.57349 0-4.64982-2.08609-4.64982-4.64982v-2.93417h45.4029c7.03296 0 12.73429-5.70133 12.73429-12.73428v-37.73121h1.97875c2.56802 0 4.64982 2.0818 4.64982 4.64982z" fill="#f7e839"/></g><g><path d="m116.8921 89.02839v5.11826h-5.2981c-.35622 0-.64499-.28876-.64499-.64499v-3.82828c0-.35622.28877-.64499.64499-.64499z" fill="#00d67f"/></g><g><path d="m102.93287 75.97881h-9.9822c-.93529 0-1.69349-.7582-1.69349-1.69348v-7.67046c0-.93529.7582-1.69348 1.69349-1.69348h9.1825c.01543.0144.02463.02299.04005.03738z" fill="#a2a2f9"/></g><g><path d="m102.93005 75.98135h-9.97501c-.93668 0-1.70305-.76637-1.70305-1.70305v-1.43873h5.10817c1.75077 0 3.13491-1.48357 3.01365-3.23013l-.32582-4.6928h3.08871c.01187.01109.01895.01769.03082.02877z" fill="#7979f7"/></g><g><path d="m59.10917 47.2501v11.15555c0 1.51012-1.77069 2.32543-2.91809 1.34363l-4.55135-3.89446c-.66186-.56633-1.63756-.56633-2.29942 0l-4.55135 3.89446c-1.1474.9818-2.91809.16649-2.91809-1.34363v-11.15555z" fill="#b75f25"/></g><g><path d="m59.1086 47.25413v11.15167c0 1.51099-1.7742 2.32991-2.91465 1.34535l-4.55249-3.8992c-.6628-.56546-1.6376-.56546-2.3004 0l-4.55236 3.8992c-1.15032.98456-2.91465.16564-2.91465-1.34535v-2.67095c.14624-.05843.28261-.14613.41922-.26321l4.55225-3.89921c.6628-.56534 1.6376-.56534 2.30052 0l4.55236 3.89921c1.1502.9748 2.91465.16576 2.91465-1.34511v-6.8724z" fill="#aa5821"/></g><g><path d="m73.86739 73.86414v11.58483c0 1.10286-.89404 1.9969-1.9969 1.9969h-42.76093c-1.10286 0-1.9969-.89404-1.9969-1.9969v-11.58483c0-1.10286.89404-1.9969 1.9969-1.9969h42.76093c1.10286-.00001 1.9969.89404 1.9969 1.9969z" fill="#fc6559"/></g><g><path d="m73.86699 73.86626v11.58053c0 1.10368-.89471 1.99839-1.99839 1.99839h-42.75467c-1.11141 0-1.99839-.89674-1.99839-1.99839v-2.42725h36.84458c3.16718 0 5.73469-2.56751 5.73469-5.73469v-5.41698h2.17379c1.10367 0 1.99839.89471 1.99839 1.99839z" fill="#f05543"/></g><g><path d="m82.87353 106.30152h-60.11915c-3.11426 0-5.64746-2.5332-5.64746-5.64746v-48.75684c0-3.11426 2.5332-5.64746 5.64746-5.64746h55.47168c3.11426 0 5.64746 2.5332 5.64746 5.64746v53.4043c.00001.55274-.44726 1-.99999 1zm-60.11915-58.05176c-2.01074 0-3.64746 1.63672-3.64746 3.64746v48.75684c0 2.01074 1.63672 3.64746 3.64746 3.64746h59.11914v-52.4043c0-2.01074-1.63672-3.64746-3.64746-3.64746z" fill="#1b1b1b"/></g><g><path d="m111.38818 106.30152h-28.51172c-.55273 0-1-.44727-1-1v-46.03125c0-.55273.44727-1 1-1h12.53906c3.81934 0 7.05859 2.72656 7.70313 6.48242.04395.22656.06934.48438.09277.74219l.68555 9.93066 9.76172 5.02832c2.60938 1.34082 4.23145 4.00195 4.23145 6.94434v12.40137c-.00001 3.58496-2.917 6.50195-6.50196 6.50195zm-27.51172-2h27.51172c2.48242 0 4.50195-2.01953 4.50195-4.50195v-12.40137c0-2.18945-1.20605-4.16895-3.14648-5.16602l-10.26855-5.29004c-.33301-.1709-.54199-.51465-.54199-.88867l-.71289-10.37109c-.01758-.19727-.03418-.38867-.06934-.57227-.48242-2.8125-2.89355-4.83984-5.73535-4.83984h-11.53907z" fill="#1b1b1b"/></g><g><g><path d="m58.27596 105.30161c0 5.62981-4.56686 10.19668-10.19668 10.19668-5.63884 0-10.20581-4.56686-10.20581-10.19668s4.56697-10.1968 10.20581-10.1968c5.62982 0 10.19668 4.56698 10.19668 10.1968z" fill="#474646"/></g><g><path d="m108.74988 105.30161c0 5.62981-4.56686 10.19668-10.19668 10.19668-5.63884 0-10.20581-4.56686-10.20581-10.19668s4.56697-10.1968 10.20581-10.1968c5.62982 0 10.19668 4.56698 10.19668 10.1968z" fill="#a04747"/></g><g><path d="m108.74988 105.30161c0 5.62981-4.56686 10.19668-10.19668 10.19668-5.63884 0-10.20581-4.56686-10.20581-10.19668s4.56697-10.1968 10.20581-10.1968c5.62982 0 10.19668 4.56698 10.19668 10.1968z" fill="#474646"/></g></g><g><g><path d="m58.27992 105.30361c0 5.62463-4.57176 10.19639-10.19638 10.19639-3.84066 0-7.18428-2.11524-8.91946-5.24444 1.66699 1.19899 3.71393 1.90093 5.91699 1.90093 5.63438 0 10.20626-4.57188 10.20626-10.1965 0-1.7936-.45825-3.47999-1.27693-4.94219 2.58313 1.84227 4.26952 4.86425 4.26952 8.28581z" fill="#2d2c2c"/></g><g><path d="m108.74541 105.30361c0 5.62463-4.562 10.19639-10.19638 10.19639-3.84067 0-7.1844-2.125-8.91946-5.2542 1.66699 1.20875 3.71394 1.91069 5.92675 1.91069 5.63438 0 10.19639-4.57188 10.19639-10.1965 0-1.7936-.46788-3.48975-1.27692-4.95195 2.58324 1.84227 4.26962 4.87401 4.26962 8.29557z" fill="#a04747"/></g><g><path d="m108.74541 105.30361c0 5.62463-4.562 10.19639-10.19638 10.19639-3.84067 0-7.1844-2.125-8.91946-5.2542 1.66699 1.20875 3.71394 1.91069 5.92675 1.91069 5.63438 0 10.19639-4.57188 10.19639-10.1965 0-1.7936-.46788-3.48975-1.27692-4.95195 2.58324 1.84227 4.26962 4.87401 4.26962 8.29557z" fill="#2d2c2c"/></g></g><g><g><path d="m52.28345 105.30157c0 2.3227-1.88415 4.20686-4.20685 4.20686-2.32642 0-4.21062-1.88416-4.21062-4.20686 0-2.32269 1.8842-4.20689 4.21062-4.20689 2.3227 0 4.20685 1.8842 4.20685 4.20689z" fill="#fff"/></g><g><path d="m102.75737 105.30157c0 2.3227-1.88416 4.20686-4.20686 4.20686-2.32642 0-4.21062-1.88416-4.21062-4.20686 0-2.32269 1.8842-4.20689 4.21062-4.20689 2.3227 0 4.20686 1.8842 4.20686 4.20689z" fill="#fff"/></g></g><g><g><path d="m52.28498 105.30361c0 2.31992-1.88142 4.20133-4.21121 4.20133-1.82288 0-3.38253-1.16007-3.95775-2.78792.47764.18516.99432.29249 1.54026.29249 2.32003 0 4.21121-1.88142 4.21121-4.20145 0-.49716-.08782-.98457-.25346-1.42317 1.5693.61413 2.67095 2.14452 2.67095 3.91872z" fill="#e4e3ff"/></g><g><path d="m102.76012 105.30361c0 2.31992-1.89118 4.20133-4.21109 4.20133-1.83263 0-3.3923-1.16971-3.96751-2.79768.47765.19492 1.00407.30225 1.55003.30225 2.31991 0 4.21109-1.88142 4.21109-4.20145 0-.49716-.0877-.98457-.25346-1.42317 1.55965.61413 2.67094 2.14452 2.67094 3.91872z" fill="#e4e3ff"/></g></g><g><path d="m102.9331 76.97926h-9.98242c-1.48535 0-2.69336-1.20898-2.69336-2.69434v-7.66992c0-1.48535 1.20801-2.69336 2.69336-2.69336h9.18262c.24219 0 .47656.08789.6582.24707.19922.1748.36133.45703.37988.72168l.75977 11.02051c.01855.27637-.07813.54785-.2666.75098-.18946.20214-.45411.31738-.73145.31738zm-9.98242-11.05762c-.38184 0-.69336.31152-.69336.69336v7.66992c0 .38281.31152.69434.69336.69434h8.91113l-.62402-9.05762z" fill="#1b1b1b"/></g><g><path d="m95.65868 82.11988h-2.93652c-.55273 0-1-.44727-1-1s.44727-1 1-1h2.93652c.55273 0 1 .44727 1 1s-.44726 1-1 1z" fill="#1b1b1b"/></g><g><path d="m48.07958 116.49781c-6.17871 0-11.20605-5.02246-11.20605-11.19629s5.02734-11.19629 11.20605-11.19629c6.17383 0 11.19629 5.02246 11.19629 11.19629s-5.02246 11.19629-11.19629 11.19629zm0-20.39258c-5.07617 0-9.20605 4.125-9.20605 9.19629s4.12988 9.19629 9.20605 9.19629c5.07129 0 9.19629-4.125 9.19629-9.19629s-4.125-9.19629-9.19629-9.19629z" fill="#1b1b1b"/></g><g><path d="m48.07665 110.50855c-2.87305 0-5.21094-2.33594-5.21094-5.20703s2.33789-5.20703 5.21094-5.20703c2.87109 0 5.20703 2.33594 5.20703 5.20703s-2.33594 5.20703-5.20703 5.20703zm0-8.41406c-1.77051 0-3.21094 1.43848-3.21094 3.20703s1.44043 3.20703 3.21094 3.20703c1.76855 0 3.20703-1.43848 3.20703-3.20703s-1.43848-3.20703-3.20703-3.20703z" fill="#1b1b1b"/></g><g><path d="m98.55322 116.49781c-6.17871 0-11.20605-5.02246-11.20605-11.19629s5.02734-11.19629 11.20605-11.19629c6.17383 0 11.19629 5.02246 11.19629 11.19629s-5.02247 11.19629-11.19629 11.19629zm0-20.39258c-5.07617 0-9.20605 4.125-9.20605 9.19629s4.12988 9.19629 9.20605 9.19629c5.07129 0 9.19629-4.125 9.19629-9.19629s-4.12501-9.19629-9.19629-9.19629z" fill="#1b1b1b"/></g><g><path d="m98.55029 110.50855c-2.87305 0-5.20996-2.33594-5.20996-5.20703s2.33691-5.20703 5.20996-5.20703c2.87109 0 5.20703 2.33594 5.20703 5.20703s-2.33594 5.20703-5.20703 5.20703zm0-8.41406c-1.76953 0-3.20996 1.43848-3.20996 3.20703s1.44043 3.20703 3.20996 3.20703c1.76855 0 3.20703-1.43848 3.20703-3.20703s-1.43848-3.20703-3.20703-3.20703z" fill="#1b1b1b"/></g><g><path d="m116.89208 95.14625h-5.29785c-.90723 0-1.64551-.7373-1.64551-1.64453v-3.82813c0-.90723.73828-1.64551 1.64551-1.64551h5.29785c.55273 0 1 .44727 1 1v5.11816c0 .55274-.44726 1.00001-1 1.00001zm-4.94336-2h3.94336v-3.11816h-3.94336z" fill="#1b1b1b"/></g><g><path d="m57.33251 61.17847c-.64355 0-1.27539-.22754-1.79199-.66895l-4.55079-3.89452c-.29004-.24805-.71094-.24805-.99902 0l-4.55176 3.89453c-.83203.70996-1.96387.86621-2.95801.41113-.99316-.45801-1.61035-1.4209-1.61035-2.51465v-11.15625c0-.55273.44727-1 1-1h17.23828c.55273 0 1 .44727 1 1v11.15625c0 1.09375-.61719 2.05664-1.61035 2.51465-.37695.17285-.77343.25781-1.16601.25781zm-6.8418-6.75195c.63867 0 1.27832.22266 1.7998.66895l4.55079 3.89453c.33594.28711.68652.1748.82031.11426.13477-.0625.44727-.25391.44727-.69824v-10.15626h-15.23829v10.15625c0 .44434.3125.63574.44727.69824.13281.06055.4834.17285.82031-.11426l4.55176-3.89453c.52148-.44628 1.16113-.66894 1.80078-.66894z" fill="#1b1b1b"/></g><g><path d="m71.8706 88.44605h-42.76075c-1.65234 0-2.99707-1.34473-2.99707-2.99707v-11.58496c0-1.65234 1.34473-2.99707 2.99707-2.99707h42.76075c1.65234 0 2.99707 1.34473 2.99707 2.99707v11.58496c0 1.65235-1.34473 2.99707-2.99707 2.99707zm-42.76075-15.5791c-.5498 0-.99707.44727-.99707.99707v11.58496c0 .5498.44727.99707.99707.99707h42.76075c.5498 0 .99707-.44727.99707-.99707v-11.58496c0-.5498-.44727-.99707-.99707-.99707z" fill="#1b1b1b"/></g><g><g><path d="m48.33446 78.07203h-10.72363c-.55273 0-1-.44727-1-1s.44727-1 1-1h10.72363c.55273 0 1 .44727 1 1s-.44726 1-1 1z" fill="#fff"/></g><g><path d="m33.19481 78.07203h-.85351c-.55273 0-1-.44727-1-1s.44727-1 1-1h.85352c.55273 0 1 .44727 1 1s-.44727 1-1.00001 1z" fill="#fff"/></g></g></g><g><path d="m24.19774 65.4734c-.55273 0-1-.44727-1-1v-5.81445c0-.55273.44727-1 1-1s1 .44727 1 1v5.81445c0 .55273-.44726 1-1 1z" fill="#fff"/></g><g><path d="m24.19774 55.5691c-.55273 0-1-.44727-1-1v-.96582c0-.55273.44727-1 1-1s1 .44727 1 1v.96582c0 .55273-.44726 1-1 1z" fill="#fff"/></g></g><g><g><path d="m115.37255 116.49976h-31.72266c-.55273 0-1-.44727-1-1s.44727-1 1-1h31.72266c.55273 0 1 .44727 1 1s-.44726 1-1 1z" fill="#1b1b1b"/></g><g><path d="m75.39599 116.49976h-55.76856c-.55273 0-1-.44727-1-1s.44727-1 1-1h55.76856c.55273 0 1 .44727 1 1s-.44727 1-1 1z" fill="#1b1b1b"/></g></g></g></svg>