<svg
                  xmlns="http://www.w3.org/2000/svg"
                  width="17"
                  height="30"
                  viewBox="0 0 18 25"
                  fill="none"
                >
                  <path
                    d="M14.8034 6.11311C14.9344 5.98214 15.0079 5.80452 15.0079 5.61933C15.0079 5.43414 14.9344 5.25653 14.8034 5.12555L10.8525 1.17464C10.7881 1.10794 10.711 1.05473 10.6258 1.01813C10.5406 0.981524 10.449 0.962258 10.3562 0.961452C10.2635 0.960646 10.1715 0.978317 10.0857 1.01343C9.99988 1.04855 9.9219 1.10041 9.85633 1.16599C9.79075 1.23156 9.73889 1.30954 9.70378 1.39537C9.66866 1.4812 9.65099 1.57317 9.65179 1.66591C9.6526 1.75864 9.67187 1.85029 9.70847 1.93549C9.74507 2.0207 9.79828 2.09777 9.86498 2.1622L12.6237 4.92092L3.37465 4.92092C3.18942 4.92092 3.01178 4.9945 2.8808 5.12548C2.74982 5.25646 2.67624 5.4341 2.67624 5.61933C2.67624 5.80456 2.74982 5.9822 2.8808 6.11318C3.01178 6.24416 3.18942 6.31774 3.37465 6.31774L12.6237 6.31774L9.86498 9.07647C9.73776 9.20819 9.66737 9.38461 9.66896 9.56773C9.67055 9.75085 9.744 9.92602 9.87349 10.0555C10.003 10.185 10.1782 10.2585 10.3613 10.26C10.5444 10.2616 10.7208 10.1912 10.8525 10.064L14.8034 6.11311Z"
                    fill="#405189"
                  />
                </svg>