<?xml version="1.0" encoding="UTF-8"?>
<svg version="1.1" xmlns="http://www.w3.org/2000/svg" width="512" height="512">
<path d="M0 0 C4.95 0 9.9 0 15 0 C15 7.59 15 15.18 15 23 C18.96 23 22.92 23 27 23 C27 15.41 27 7.82 27 0 C31.95 0 36.9 0 42 0 C42 7.59 42 15.18 42 23 C46.29 23 50.58 23 55 23 C55 15.41 55 7.82 55 0 C59.95 0 64.9 0 70 0 C70 7.59 70 15.18 70 23 C73.96 23 77.92 23 82 23 C82 15.41 82 7.82 82 0 C86.95 0 91.9 0 97 0 C97 7.59 97 15.18 97 23 C100.3 23 103.6 23 107 23 C112.00945457 24.58632728 116.63305982 26.86652301 120 31 C124 38.85139319 124 38.85139319 124 43 C131.59 43 139.18 43 147 43 C147 47.95 147 52.9 147 58 C139.41 58 131.82 58 124 58 C124 61.63 124 65.26 124 69 C124.80908813 68.98445572 125.61817627 68.96891144 126.45178223 68.95289612 C134.10157845 68.81224823 141.75074209 68.70586857 149.40149689 68.6373148 C153.33430939 68.60088401 157.2660478 68.55152664 161.19824219 68.47192383 C164.99792423 68.39549081 168.79657777 68.35393343 172.5969696 68.3358593 C174.04188723 68.32299096 175.4867527 68.29786065 176.93122864 68.2598896 C189.64923 67.93906976 189.64923 67.93906976 194.546875 72.14453125 C195.72675367 73.40326468 196.8795696 74.68807042 198 76 C199.09017518 77.06882368 200.18825027 78.12966271 201.29492188 79.18139648 C202.3554357 80.24206437 203.41333573 81.30535144 204.46875 82.37109375 C205.31741638 83.22188255 205.31741638 83.22188255 206.18322754 84.08985901 C207.95788577 85.87003423 209.72900099 87.65368519 211.5 89.4375 C212.71591114 90.6584369 213.93205516 91.87914192 215.1484375 93.09960938 C218.10164966 96.06374013 221.05169398 99.03098958 224 102 C224.54269531 101.59007813 225.08539063 101.18015625 225.64453125 100.7578125 C226.35996094 100.21898438 227.07539063 99.68015625 227.8125 99.125 C228.87404297 98.32449219 228.87404297 98.32449219 229.95703125 97.5078125 C234.27822373 94.31855763 236.73386477 93.35563684 242.0390625 93.39453125 C247.04808536 94.41880374 250.84084556 97.40750573 254.921875 100.34765625 C257.8399807 102.23297146 257.8399807 102.23297146 260.875 101.96875 C264.82024569 100.74572384 268.50469276 99.16953311 272.25 97.4375 C279.75733855 94 279.75733855 94 282 94 C282.03738281 93.38253906 282.07476562 92.76507813 282.11328125 92.12890625 C283.23340161 77.69912038 283.23340161 77.69912038 288.5625 72.5 C293.06632718 69.72841404 296.76055705 69.80592531 301.953125 69.76171875 C302.84610291 69.753647 303.73908081 69.74557526 304.65911865 69.73725891 C306.55218563 69.7234143 308.44527762 69.71269384 310.33837891 69.70483398 C313.2247701 69.6876502 316.11000722 69.64377158 318.99609375 69.59960938 C320.83592908 69.5894798 322.67577415 69.58096453 324.515625 69.57421875 C325.37520813 69.55671066 326.23479126 69.53920258 327.12042236 69.52116394 C332.5660958 69.54073742 335.69903266 70.3403391 340 74 C343.74806629 79.75595894 345.44245277 87.14198209 345 94 C346.2375 94.391875 347.475 94.78375 348.75 95.1875 C353.72920821 96.81834826 358.44677313 98.91994319 363.203125 101.109375 C366.42238248 102.13450168 367.83110171 102.10986771 371 101 C372.76635462 99.86855625 374.49418953 98.67559259 376.1875 97.4375 C380.71086071 94.49488362 384.07605394 92.86265188 389.52124023 93.43115234 C397.55313204 95.27438172 404.16857023 103.83416509 409.75 109.4375 C410.58660156 110.25798828 411.42320312 111.07847656 412.28515625 111.92382812 C422.99964259 122.62977022 422.99964259 122.62977022 423.5546875 130.03125 C423.3198487 134.51257748 420.90998097 137.18038218 418.125 140.5 C415.86841532 143.52418146 413.88707286 146.19358871 414.13037109 150.08544922 C415.21296115 154.37352845 417.10291728 158.23497724 419.12744141 162.14794922 C420.47719085 165.01286227 421.22098959 167.93536514 422 171 C423.08539063 171.17015625 424.17078125 171.3403125 425.2890625 171.515625 C426.73450289 171.75966039 428.17980856 172.00449462 429.625 172.25 C430.33785156 172.35957031 431.05070312 172.46914062 431.78515625 172.58203125 C436.6668317 173.4329655 440.13557385 174.71353788 444 178 C447.14265019 182.97477225 447.4426863 186.99371427 447.3984375 192.6875 C447.40130768 193.50822998 447.40417786 194.32895996 447.40713501 195.17456055 C447.40916823 196.90251357 447.40369044 198.63048999 447.39111328 200.35839844 C447.37504841 202.9920637 447.39098658 205.62419454 447.41015625 208.2578125 C447.40817369 209.9427117 447.40432974 211.62760994 447.3984375 213.3125 C447.40451019 214.09391357 447.41058289 214.87532715 447.4168396 215.68041992 C447.34042609 221.66785377 446.09844387 225.91235429 441.72265625 230.265625 C438.62004282 232.24203872 436.03102232 233.00048202 432.4375 233.75 C431.32246094 233.99234375 430.20742188 234.2346875 429.05859375 234.484375 C426 235 426 235 422 235 C421.91878906 235.64839844 421.83757812 236.29679688 421.75390625 236.96484375 C421.0924862 239.62765919 420.2984058 241.57263036 419.08984375 244.00390625 C414.61875544 252.57753394 414.61875544 252.57753394 415.28515625 261.7421875 C417.34944871 264.72030255 419.55576046 267.33231319 422 270 C423.52068677 274.5620603 423.66514907 278.3871643 421.81542969 282.87231445 C419.82903028 286.2945526 417.48716593 288.96319188 414.703125 291.73046875 C414.19126648 292.24756912 413.67940796 292.76466949 413.15203857 293.29743958 C412.07322928 294.38263788 410.99057552 295.46402659 409.90429688 296.54174805 C408.25628977 298.18124271 406.62781484 299.83853093 405 301.49804688 C403.9438403 302.55581895 402.88658359 303.61249706 401.828125 304.66796875 C401.34869446 305.15863327 400.86926392 305.64929779 400.37530518 306.15483093 C395.90545209 310.53552242 391.63034057 312.86625387 385.3125 313.1875 C381.1218734 312.53094148 378.470504 310.25591529 375.125 307.75 C371.13101764 304.82194243 371.13101764 304.82194243 366.4296875 303.96484375 C363.78814117 304.75051267 361.47117161 305.77930077 359 307 C356.83641271 307.90324518 354.66967111 308.79896802 352.5 309.6875 C351.4996875 310.12449219 350.499375 310.56148438 349.46875 311.01171875 C347 312 347 312 345 312 C344.96261719 312.61746094 344.92523438 313.23492187 344.88671875 313.87109375 C344.31822433 321.19463955 343.7579833 328.10101607 338.53588867 333.59008789 C334.41523578 336.92558775 330.33894359 336.72223862 325.21875 336.6640625 C323.82118469 336.67123795 323.82118469 336.67123795 322.39538574 336.67855835 C320.43203028 336.68194997 318.46861778 336.67279934 316.50537109 336.65185547 C313.5088041 336.62507867 310.51598245 336.65162767 307.51953125 336.68359375 C305.60676261 336.68028952 303.69399629 336.67388301 301.78125 336.6640625 C300.89046753 336.67418365 299.99968506 336.68430481 299.08190918 336.69473267 C294.7670164 336.61387622 291.88582152 336.35982224 288.46411133 333.59008789 C282.85578694 327.69504049 282.4741514 319.83167311 282 312 C281.41734375 311.84144531 280.8346875 311.68289063 280.234375 311.51953125 C274.1226818 309.78019718 268.49960708 307.5278501 262.76171875 304.79296875 C259.30589783 303.80070334 258.10985287 304.28907771 255 306 C253.53990747 306.98824934 252.10200046 308.01002891 250.6875 309.0625 C246.23518343 312.0750127 243.39546745 313.08702367 238 313 C232.5280279 311.12408828 228.95625636 308.53224065 224.91796875 304.37890625 C224.37771561 303.83773666 223.83746246 303.29656708 223.28083801 302.73899841 C222.14932651 301.60148289 221.02264062 300.45914849 219.90063477 299.31225586 C218.18542036 297.5603759 216.45458263 295.8251861 214.72070312 294.09179688 C213.61884122 292.98010791 212.51789698 291.86750847 211.41796875 290.75390625 C210.90340622 290.23711807 210.38884369 289.7203299 209.85868835 289.18788147 C205.4298508 284.64076484 203.3324446 281.22693968 203.30078125 274.71484375 C204.10058686 271.60945325 205.61537222 269.8249284 207.63208008 267.38134766 C210.03134431 264.41042221 212.11398463 261.77449351 213 258 C212.04058436 250.85085011 208.38069618 244.28153011 205 238 C204.67 237.34 204.34 236.68 204 236 C200.73581655 235.1378339 197.4768772 234.41740887 194.16601562 233.76367188 C188.86153878 232.58326659 185.81690817 230.91991319 182 227 C179.64642983 222.61731683 179.69358902 218.2687991 179.69921875 213.41015625 C179.69493362 212.58801132 179.6906485 211.76586639 179.68623352 210.91880798 C179.68050628 209.184895 179.67997809 207.450958 179.68432617 205.71704102 C179.68748552 203.07461275 179.66400991 200.43330562 179.63867188 197.79101562 C179.63639854 196.1015639 179.63569555 194.41210919 179.63671875 192.72265625 C179.627509 191.93810562 179.61829926 191.15355499 179.60881042 190.3452301 C179.64935015 185.50166639 180.33962761 182.20214768 183 178 C187.50328924 174.17022322 191.70827842 173.12101507 197.375 172.25 C198.11105469 172.12496094 198.84710938 171.99992188 199.60546875 171.87109375 C201.40152115 171.56786412 203.20050871 171.28210552 205 171 C205.07992188 170.34902344 205.15984375 169.69804687 205.2421875 169.02734375 C205.91015437 166.35891939 206.69991376 164.48215901 207.9453125 162.06640625 C212.14892601 154.33995592 212.14892601 154.33995592 212.44384766 145.92431641 C210.76964261 142.63969344 208.61033006 139.98940534 206.21484375 137.2109375 C203.28354456 132.96132915 203.44786387 131.06726808 204 126 C205.49672771 121.57350741 208.54448624 118.08528015 212 115 C206.32008352 102.94151918 196.67252968 90.10928773 184 85 C164.90753 80.63560451 143.33177301 82.74061664 124 84 C124 87.3 124 90.6 124 94 C131.59 94 139.18 94 147 94 C147 98.95 147 103.9 147 109 C139.41 109 131.82 109 124 109 C124 112.63 124 116.26 124 120 C131.59 120 139.18 120 147 120 C147 124.62 147 129.24 147 134 C139.41 134 131.82 134 124 134 C124 137.63 124 141.26 124 145 C131.59 145 139.18 145 147 145 C147 149.95 147 154.9 147 160 C139.41 160 131.82 160 124 160 C123.34 162.97 122.68 165.94 122 169 C118.73504908 174.56506146 114.26523035 178.32927191 108 180 C104.37 180 100.74 180 97 180 C97 187.59 97 195.18 97 203 C92.05 203 87.1 203 82 203 C82 195.41 82 187.82 82 180 C78.04 180 74.08 180 70 180 C70 189.57 70 199.14 70 209 C71.65 209.66 73.3 210.32 75 211 C76.71934044 211.89375257 78.42309042 212.81790133 80.11328125 213.765625 C81.10239502 214.31919678 82.09150879 214.87276855 83.1105957 215.44311523 C84.16722412 216.03938721 85.22385254 216.63565918 86.3125 217.25 C87.41102295 217.8675415 88.5095459 218.48508301 89.64135742 219.12133789 C100.21612685 225.08525731 110.72096789 231.17016424 121.17041016 237.35107422 C123.19809887 238.53269713 125.24144611 239.68760695 127.29443359 240.82470703 C128.3767627 241.43040527 129.4590918 242.03610352 130.57421875 242.66015625 C131.56381592 243.20422119 132.55341309 243.74828613 133.57299805 244.30883789 C136.1793998 246.12500779 137.06410593 247.00018286 138 250 C138.22705078 252.74902344 138.22705078 252.74902344 138.1953125 255.859375 C138.18564453 257.53193359 138.18564453 257.53193359 138.17578125 259.23828125 C138.15064453 260.97658203 138.15064453 260.97658203 138.125 262.75 C138.11597656 263.92433594 138.10695312 265.09867187 138.09765625 266.30859375 C138.07410063 269.20593536 138.04120652 272.10286441 138 275 C138.75925781 274.98259766 139.51851562 274.96519531 140.30078125 274.94726562 C141.79158203 274.92696289 141.79158203 274.92696289 143.3125 274.90625 C144.29863281 274.88884766 145.28476563 274.87144531 146.30078125 274.85351562 C149 275 149 275 152 276.5 C156.40655045 282.00818806 157.38581899 288.12117274 158 295 C158.81791016 295.27263672 158.81791016 295.27263672 159.65234375 295.55078125 C160.40644531 295.80214844 161.16054687 296.05351562 161.9375 296.3125 C162.76121094 296.57546875 163.58492187 296.8384375 164.43359375 297.109375 C167 298 167 298 169.28515625 299.078125 C171.62589348 300.11845266 173.43913833 300.80882456 176 301 C178.50673151 299.75969014 180.52802385 298.22833409 182.73828125 296.51953125 C186.2391449 294.16748296 189.82694451 293.46835419 194 294 C198.43056343 295.92694588 201.50418249 298.13618464 204.890625 301.5625 C205.76460938 302.44164062 206.63859375 303.32078125 207.5390625 304.2265625 C208.43367188 305.14179688 209.32828125 306.05703125 210.25 307 C211.16007812 307.91523438 212.07015625 308.83046875 213.0078125 309.7734375 C222.29218666 319.16801194 222.29218666 319.16801194 222.5 324.5625 C222.44427928 330.01517093 220.40197059 333.27080618 217.21484375 337.578125 C215.58177067 340.83376908 216.11233412 342.51116397 217 346 C217.21914063 347.01320313 217.43828125 348.02640625 217.6640625 349.0703125 C218.75910452 352.55129973 219.7813088 355.08244212 222 358 C225.94941356 359.66636386 229.27161521 360.39166186 233.50390625 361.05859375 C237.64192267 362.17285292 238.74824107 363.43792659 241 367 C242.26237731 369.52475462 242.09856404 371.31200466 242.0625 374.125 C242.04896484 375.49011719 242.04896484 375.49011719 242.03515625 376.8828125 C242.01775391 377.93082031 242.01775391 377.93082031 242 379 C242.68016174 378.98889694 243.36032349 378.97779388 244.06109619 378.96635437 C251.13353355 378.85582678 258.20572605 378.78035955 265.27880859 378.7253418 C267.91920942 378.70018121 270.5595405 378.66604937 273.19970703 378.62280273 C276.99268797 378.56222337 280.78474898 378.5338047 284.578125 378.51171875 C286.35174408 378.47300911 286.35174408 378.47300911 288.16119385 378.43351746 C296.16680752 378.43077104 296.16680752 378.43077104 299.75805664 380.88427734 C301.5683838 385.4259316 301.4289405 389.49828108 301.29296875 394.33984375 C301.28309475 396.39257182 301.27467597 398.44530732 301.26757812 400.49804688 C301.2343984 403.72237899 301.18732758 406.94503142 301.11352539 410.16870117 C301.05036526 413.2892881 301.04304728 416.40620501 301.04296875 419.52734375 C300.98727974 420.96665504 300.98727974 420.96665504 300.9304657 422.43504333 C300.95031207 425.22629464 301.06794757 427.36507445 302 430 C304.12387407 432.00484809 306.19509358 433.33016699 308.77192688 434.6955719 C313.09830179 437.22845332 315.43240108 441.29720325 317 446 C317.61240072 453.90097319 318.17347714 461.55837248 313 468 C308.29943056 472.93608858 303.95192196 476.50795205 297.01953125 477.37109375 C289.25234423 477.53192466 283.33002323 476.7274857 277 472 C271.49574008 466.6330605 269.11566582 460.93748457 268.9375 453.33203125 C269.26434843 445.92687152 271.28016646 440.73890961 276.5234375 435.46875 C279.20923281 433.12379166 281.79453819 431.6027309 285 430 C285.33 418.12 285.66 406.24 286 394 C271.48 394 256.96 394 242 394 C242 397.3 242 400.6 242 404 C239.24022005 408.96760391 239.24022005 408.96760391 236 411 C233.82984343 411.51670394 231.63837162 411.94818338 229.4375 412.3125 C224.63668401 413.11747064 224.63668401 413.11747064 221.1171875 416.22265625 C219.85521351 418.78816625 218.87988263 421.28186493 218 424 C217.63132812 424.88300781 217.26265625 425.76601563 216.8828125 426.67578125 C215.72630803 429.72056071 215.92458167 430.91713412 217 434 C217.84303819 435.23682577 218.69854193 436.46519568 219.5625 437.6875 C222.07455198 441.59922904 222.91234229 444.77339923 222.57324219 449.42431641 C221.91699027 452.37297813 221.04451036 453.55928324 219.00390625 455.75390625 C218.37081543 456.43984863 217.73772461 457.12579102 217.08544922 457.83251953 C213.48817995 461.57128757 209.86583774 465.27830365 206.1875 468.9375 C205.42501953 469.70384766 204.66253906 470.47019531 203.87695312 471.25976562 C203.14798828 471.98744141 202.41902344 472.71511719 201.66796875 473.46484375 C200.68219849 474.44892212 200.68219849 474.44892212 199.67651367 475.45288086 C196.5168851 478.36864703 193.72521448 478.4375 189.5703125 478.4375 C186.42707698 477.90248119 184.52640533 476.68888701 181.875 474.9375 C178.01416251 472.4118142 178.01416251 472.4118142 173.4375 471.875 C169.81657815 473.06002897 166.43309317 474.48129514 163.015625 476.16015625 C161 477 161 477 158 477 C157.92523438 477.85722656 157.85046875 478.71445312 157.7734375 479.59765625 C157.00918807 486.24362925 156.26329724 490.94278239 151.53515625 495.828125 C147.93413449 498.57699657 143.78910713 498.19341585 139.48046875 498.23828125 C138.74427811 498.246353 138.00808746 498.25442474 137.24958801 498.26274109 C135.69205058 498.27656035 134.13448313 498.28729215 132.5769043 498.29516602 C130.98924852 498.3066837 129.4016314 498.32713247 127.81420898 498.35668945 C125.51519571 498.3994896 123.21733161 498.41555128 120.91796875 498.42578125 C120.21463913 498.44328934 119.51130951 498.46079742 118.78666687 498.47883606 C113.7312058 498.45678003 110.89855528 497.15952416 107 494 C105.828125 492.140625 105.828125 492.140625 105.25 490.25 C105.04890625 489.63640625 104.8478125 489.0228125 104.640625 488.390625 C104 486 104 486 103.75756836 484.10717773 C103.25052051 480.97849931 102.84172095 478.75413401 100.42333984 476.58740234 C98.34764411 475.36796357 96.30474491 474.43846714 94.0625 473.5625 C92.91104492 473.09638306 92.91104492 473.09638306 91.73632812 472.62084961 C87.78792143 471.24876999 85.77819033 470.7309498 81.74609375 472.125 C79.92376431 473.41074026 78.14513388 474.76087777 76.41796875 476.171875 C73.28336526 478.54181754 71.11245554 479.02140632 67.24682617 478.57275391 C59.96306362 476.71599992 53.83876062 469.20403209 48.6875 464.0625 C47.98560547 463.38509766 47.28371094 462.70769531 46.56054688 462.00976562 C41.64543715 457.12276901 38.07388297 452.9157973 37.9375 445.6875 C38.97103294 442.10053272 40.15961527 440.20746891 42.25 437.1875 C44.56379811 433.56169357 44.56379811 433.56169357 44.83203125 429.3828125 C44.0575311 426.79590336 43.12940526 424.4527488 42 422 C41.62617187 420.79859375 41.25234375 419.5971875 40.8671875 418.359375 C39.26693224 414.67355372 39.26693224 414.67355372 35.34765625 413.43359375 C33.92614513 413.07326642 32.49703366 412.74187285 31.0625 412.4375 C26.61246325 411.46417963 23.76963904 410.77684315 20.49609375 407.47265625 C19.01942941 404.04509854 18.83559374 402.40961611 18.90649414 398.78295898 C18.91999405 397.88616928 18.93349396 396.98937958 18.94740295 396.06541443 C18.97343849 395.04303429 18.97343849 395.04303429 19 394 C18.33458694 394.00888245 17.66917389 394.01776489 16.9835968 394.0269165 C10.05694164 394.1154219 3.13044716 394.17574791 -3.79663086 394.21972656 C-6.38165817 394.23983972 -8.96664 394.26713386 -11.55151367 394.30175781 C-15.26752955 394.35028654 -18.98294378 394.37297235 -22.69921875 394.390625 C-23.85459641 394.41127014 -25.00997406 394.43191528 -26.20036316 394.45318604 C-27.28110611 394.45348816 -28.36184906 394.45379028 -29.4753418 394.45410156 C-30.42354294 394.46298401 -31.37174408 394.47186646 -32.34867859 394.48101807 C-35.96875953 393.82424204 -37.54277773 392.73653889 -40 390 C-40.4733739 387.30003903 -40.62386306 385.23258392 -40.54833984 382.54101562 C-40.5475795 381.79583176 -40.54681915 381.05064789 -40.54603577 380.28288269 C-40.54152015 378.66827309 -40.52570957 377.05366421 -40.49988937 375.43925476 C-40.46058541 372.8833537 -40.45402606 370.32925229 -40.45645142 367.77307129 C-40.45681492 360.50830286 -40.3928627 353.24432789 -40.31933594 345.97998047 C-40.27658349 341.53366424 -40.26762905 337.08826046 -40.2783699 332.64176941 C-40.27349532 330.12361802 -40.22837985 327.60814619 -40.18270874 325.0904541 C-40.18390974 323.54662761 -40.18718567 322.00280086 -40.19287109 320.45898438 C-40.16919968 319.75964279 -40.14552826 319.06030121 -40.12113953 318.33976746 C-40.08409105 316.11443247 -40.08409105 316.11443247 -41 313 C-43.2181206 311.14653923 -45.32816386 310.22380594 -48 309 C-54.09061738 303.8280088 -56.45007197 297.32086312 -57.4375 289.5625 C-56.49741219 281.90749925 -53.68367532 275.59614054 -47.90625 270.40625 C-41.60594035 265.75848059 -34.65784856 265.04959654 -27 266 C-19.83958309 267.8100259 -15.083274 271.92598854 -11 278 C-7.77159284 284.43521962 -7.84079636 292.59224962 -9.65234375 299.48046875 C-12.57574002 305.96714631 -17.77216316 309.88608158 -24 313 C-24.33 334.78 -24.66 356.56 -25 379 C-10.48 379 4.04 379 19 379 C19 375.37 19 371.74 19 368 C21.14452721 363.85884401 22.35228954 362.63860967 26.640625 360.9765625 C30.90339117 359.73420552 34.54180246 359 39 359 C39.18175781 358.43152344 39.36351563 357.86304688 39.55078125 357.27734375 C40.78671972 353.48079431 42.0452757 349.80120128 43.75 346.1875 C45.07483502 342.8091707 45.16671162 342.23328062 44 339 C43.20666871 337.72423752 42.37032739 336.47453039 41.5 335.25 C38.78525116 331.00425908 38 328.05824104 38 323 C39.61333636 318.66946556 42.11022198 315.55987147 45 312 C44.45098526 311.45320587 43.90197052 310.90641174 43.33631897 310.3430481 C38.16876835 305.19551495 33.00361367 300.04559527 27.84114933 294.8929615 C25.18684383 292.24387984 22.53161394 289.5957386 19.87426758 286.94970703 C17.31095579 284.39724178 14.75007768 281.84235829 12.19088554 279.28576279 C11.21292262 278.30965092 10.23407841 277.33442121 9.25435066 276.36008072 C7.88478292 274.99774673 6.51860211 273.63201037 5.15258789 272.26611328 C4.37315323 271.48889923 3.59371857 270.71168518 2.79066467 269.91091919 C-0.66867319 266.21926479 -0.1351987 262.68278855 -0.11352539 257.87841797 C-0.11367142 257.03931885 -0.11381744 256.20021973 -0.1139679 255.33569336 C-0.11326968 252.55449869 -0.10548155 249.77337051 -0.09765625 246.9921875 C-0.09579175 245.06690508 -0.094368 243.14162218 -0.09336853 241.21633911 C-0.08954591 236.1429921 -0.07971779 231.06967361 -0.06866455 225.99633789 C-0.05844495 220.82178127 -0.05386973 215.64722005 -0.04882812 210.47265625 C-0.03809531 200.31509162 -0.02102193 190.15754818 0 180 C-1.11604614 180.02719116 -1.11604614 180.02719116 -2.25463867 180.05493164 C-3.2366626 180.06903076 -4.21868652 180.08312988 -5.23046875 180.09765625 C-6.68682739 180.12484741 -6.68682739 180.12484741 -8.17260742 180.15258789 C-14.92851128 179.78798726 -19.37988051 176.11717094 -23.7734375 171.26953125 C-25 169 -25 169 -27 160 C-34.59 160 -42.18 160 -50 160 C-50 155.05 -50 150.1 -50 145 C-42.41 145 -34.82 145 -27 145 C-27 141.37 -27 137.74 -27 134 C-34.59 134 -42.18 134 -50 134 C-50 129.38 -50 124.76 -50 120 C-42.41 120 -34.82 120 -27 120 C-27 116.37 -27 112.74 -27 109 C-34.59 109 -42.18 109 -50 109 C-50 104.05 -50 99.1 -50 94 C-42.41 94 -34.82 94 -27 94 C-27 90.7 -27 87.4 -27 84 C-34.59 84 -42.18 84 -50 84 C-50 79.05 -50 74.1 -50 69 C-42.41 69 -34.82 69 -27 69 C-27 65.37 -27 61.74 -27 58 C-34.59 58 -42.18 58 -50 58 C-50 53.05 -50 48.1 -50 43 C-42.41 43 -34.82 43 -27 43 C-26.34 40.03 -25.68 37.06 -25 34 C-21.73504908 28.43493854 -17.26523035 24.67072809 -11 23 C-7.37 23 -3.74 23 0 23 C0 15.41 0 7.82 0 0 Z M15 180 C13.75536227 192.62789988 12.91425573 205.25697747 12.4375 217.9375 C12.40240326 218.86446056 12.36730652 219.79142113 12.33114624 220.74647141 C11.60272189 242.49891022 11.43990278 261.83171759 26.85093689 278.52400208 C35.66111551 287.40384904 45.51909602 295.18928239 56 302 C56.52819336 301.58210205 57.05638672 301.1642041 57.60058594 300.73364258 C58.65681152 299.91609497 58.65681152 299.91609497 59.734375 299.08203125 C60.42756836 298.5403833 61.12076172 297.99873535 61.83496094 297.44067383 C65.47241671 295.02021527 68.69115429 294.19378516 73 295 C75.04326901 296.13363187 77.04173522 297.35013981 79 298.625 C82.93044072 301.27339272 82.93044072 301.27339272 87.44921875 301.94140625 C89.77702076 301.15734728 91.82111882 300.12877057 94 299 C94.79664063 298.80535156 95.59328125 298.61070312 96.4140625 298.41015625 C99.23681603 297.63320943 100.82456037 296.98646205 103 295 C104.18067998 291.80819234 105.02183911 288.82625542 105.59692383 285.48339844 C106.22528402 282.03969172 106.8412985 280.17112162 109.24609375 277.578125 C113.76305866 274.98967986 117.84687533 275.24834336 123 275 C123 268.73 123 262.46 123 256 C121.39253906 255.10539062 119.78507812 254.21078125 118.12890625 253.2890625 C107.18515649 247.18707239 96.2657075 241.06108059 85.49609375 234.65625 C81.90150908 232.52141638 78.28357038 230.42926063 74.66015625 228.34375 C73.55937744 227.70824219 72.45859863 227.07273438 71.32446289 226.41796875 C69.13719517 225.15607735 66.94763455 223.89815054 64.75561523 222.64453125 C63.26783569 221.78408203 63.26783569 221.78408203 61.75 220.90625 C60.85796875 220.39384766 59.9659375 219.88144531 59.046875 219.35351562 C57 218 57 218 56 216 C55.84323225 213.30344554 55.74163685 210.62870023 55.68359375 207.9296875 C55.66281265 207.13345978 55.64203156 206.33723206 55.62062073 205.51687622 C55.55515851 202.96967315 55.49625585 200.42236575 55.4375 197.875 C55.3943116 196.14972873 55.35069721 194.42446807 55.30664062 192.69921875 C55.19948055 188.46625315 55.09820377 184.23318247 55 180 C50.71 180 46.42 180 42 180 C42 187.59 42 195.18 42 203 C37.05 203 32.1 203 27 203 C27 195.41 27 187.82 27 180 C23.04 180 19.08 180 15 180 Z " fill="#000101" transform="translate(61,7)"/>
<path d="M0 0 C10.23 0 20.46 0 31 0 C32.75 9.3125 32.75 9.3125 33.27246094 12.2355957 C33.5011084 13.38161255 33.5011084 13.38161255 33.734375 14.55078125 C33.95432129 15.72120972 33.95432129 15.72120972 34.17871094 16.9152832 C35.65239534 20.6560059 38.50720184 21.76090742 42.00512695 23.45800781 C45.10099442 24.78688511 48.19825221 26.11066896 51.30737305 27.40820312 C53.30259394 28.24584122 55.28665611 29.10682928 57.27148438 29.96875 C58.5514645 30.50668319 59.83204557 31.04318913 61.11328125 31.578125 C62.84251831 32.31144043 62.84251831 32.31144043 64.60668945 33.05957031 C68.52935568 34.14670682 71.05970277 33.92737121 75 33 C78.2136941 31.16310863 78.2136941 31.16310863 81.1875 28.875 C86.4611876 24.96204566 86.4611876 24.96204566 88.88891602 25.13305664 C91.75891075 26.31165631 93.37776762 28.04083047 95.546875 30.25390625 C96.39121094 31.10791016 97.23554688 31.96191406 98.10546875 32.84179688 C98.97816406 33.73962891 99.85085938 34.63746094 100.75 35.5625 C101.63816406 36.46419922 102.52632812 37.36589844 103.44140625 38.29492188 C105.63448315 40.52337098 107.82026044 42.75851593 110 45 C108.17437823 49.80537224 105.63069319 53.28103845 102.4609375 57.3046875 C100.5517755 60.82693825 100.72403232 63.01091921 101 67 C101.81887577 69.57911841 102.67135964 71.9277916 103.73828125 74.39453125 C104.01971481 75.06796066 104.30114838 75.74139008 104.59111023 76.43522644 C105.18452131 77.84697724 105.7840523 79.25616984 106.3894043 80.6628418 C107.31462031 82.81743768 108.21610951 84.98088982 109.11523438 87.14648438 C109.69653831 88.5214169 110.27917439 89.89578714 110.86328125 91.26953125 C111.26659416 92.23823906 111.26659416 92.23823906 111.67805481 93.22651672 C113.13362196 96.57319657 113.87790722 97.91860481 117 100 C119.52556511 100.58845385 122.01379204 101.10677076 124.5625 101.5625 C131.76894502 102.88447251 131.76894502 102.88447251 134 104 C134 114.23 134 124.46 134 135 C125.75 136.25 125.75 136.25 123.17089844 136.61425781 C122.4905957 136.72608398 121.81029297 136.83791016 121.109375 136.953125 C120.41811523 137.05786133 119.72685547 137.16259766 119.01464844 137.27050781 C115.07247144 138.6979466 113.32397343 141.37416996 111.44433594 145.00512695 C110.72165527 146.72928833 110.72165527 146.72928833 109.984375 148.48828125 C109.72368225 149.10970505 109.4629895 149.73112885 109.19439697 150.37138367 C108.64836331 151.68130804 108.10741004 152.99336052 107.57128906 154.30737305 C106.75402054 156.30268409 105.91340513 158.28697024 105.0703125 160.27148438 C104.54022273 161.55148631 104.01153036 162.83206802 103.484375 164.11328125 C103.00709961 165.26610596 102.52982422 166.41893066 102.03808594 167.60668945 C100.73963489 171.8510853 100.07951677 175.78501922 101.82617188 179.98803711 C102.20322266 180.4960083 102.58027344 181.00397949 102.96875 181.52734375 C103.37480469 182.09130859 103.78085937 182.65527344 104.19921875 183.23632812 C104.62847656 183.79771484 105.05773437 184.35910156 105.5 184.9375 C105.92925781 185.52595703 106.35851562 186.11441406 106.80078125 186.72070312 C107.85247464 188.15801742 108.92424684 189.58060347 110 191 C108.48623919 194.56764285 106.39486871 196.83706287 103.6484375 199.546875 C102.79765625 200.39121094 101.946875 201.23554688 101.0703125 202.10546875 C100.18085938 202.97816406 99.29140625 203.85085938 98.375 204.75 C97.4778125 205.63816406 96.580625 206.52632812 95.65625 207.44140625 C93.44192996 209.63216969 91.22307565 211.81812763 89 214 C88.26394531 213.52949219 87.52789062 213.05898438 86.76953125 212.57421875 C85.79371094 211.95160156 84.81789063 211.32898438 83.8125 210.6875 C82.84957031 210.07261719 81.88664063 209.45773437 80.89453125 208.82421875 C79.46173828 207.92123047 79.46173828 207.92123047 78 207 C76.76830078 206.11248047 76.76830078 206.11248047 75.51171875 205.20703125 C72.16718049 203.59978036 70.55064592 204.02959219 67 205 C64.70354473 205.81351575 62.42929219 206.69133487 60.17578125 207.6171875 C59.54770065 207.87501007 58.91962006 208.13283264 58.27250671 208.39846802 C56.95437637 208.94169613 55.63756053 209.48812389 54.32202148 210.03759766 C52.31188121 210.87525786 50.29604225 211.69792149 48.27929688 212.51953125 C46.99442237 213.05119172 45.70990419 213.58371433 44.42578125 214.1171875 C43.26473877 214.59784668 42.10369629 215.07850586 40.9074707 215.57373047 C38.3163108 216.84483268 36.7684285 217.76332436 35 220 C34.28327758 221.95844494 34.28327758 221.95844494 33.9375 224.125 C33.04204188 228.78138223 32.03235694 233.35439375 31 238 C20.77 238 10.54 238 0 238 C-1.8125 229.1875 -1.8125 229.1875 -2.36254883 226.42260742 C-2.51747803 225.69920166 -2.67240723 224.9757959 -2.83203125 224.23046875 C-3.05983276 223.12288208 -3.05983276 223.12288208 -3.29223633 221.99291992 C-4.60975431 218.2830547 -6.60497587 217.19805807 -10.09106445 215.45019531 C-11.34479555 214.90103872 -12.60247773 214.3608436 -13.86328125 213.828125 C-14.53288376 213.54144958 -15.20248627 213.25477417 -15.89237976 212.95941162 C-17.3070503 212.35722099 -18.72342387 211.75901753 -20.14135742 211.16455078 C-22.30137593 210.25468579 -24.45026624 209.32147258 -26.59960938 208.38671875 C-27.97854915 207.80322601 -29.35808838 207.22114746 -30.73828125 206.640625 C-31.37598953 206.36051575 -32.01369781 206.08040649 -32.67073059 205.79180908 C-36.8559432 204.0734428 -39.64795797 203.74792671 -44 205 C-45.87763438 205.8780987 -45.87763438 205.8780987 -47.4296875 207.06640625 C-47.996875 207.46923828 -48.5640625 207.87207031 -49.1484375 208.28710938 C-49.71820313 208.70798828 -50.28796875 209.12886719 -50.875 209.5625 C-51.46796875 209.98724609 -52.0609375 210.41199219 -52.671875 210.84960938 C-54.12154965 211.89010166 -55.56177551 212.9437372 -57 214 C-62.25174926 209.61557474 -67.13222473 204.99157907 -71.9375 200.125 C-72.62134766 199.43664062 -73.30519531 198.74828125 -74.00976562 198.0390625 C-75.67551464 196.36166489 -77.3388622 194.68196209 -79 193 C-77.29617684 188.16389589 -74.60817029 184.69037127 -71.4609375 180.6953125 C-69.01974973 176.19151689 -69.64133934 172.22659779 -71.05053711 167.40722656 C-71.5282377 166.14607786 -72.02120188 164.89063073 -72.52734375 163.640625 C-72.79454727 162.96956726 -73.06175079 162.29850952 -73.33705139 161.6071167 C-73.90448272 160.19933834 -74.47885477 158.79433949 -75.05981445 157.39208984 C-75.93602308 155.25360459 -76.76178265 153.09965326 -77.58789062 150.94140625 C-80.21973071 143.92899197 -80.21973071 143.92899197 -85.06298828 138.45117188 C-87.62287241 137.45846578 -87.62287241 137.45846578 -92 137 C-95.63 136.34 -99.26 135.68 -103 135 C-103 124.77 -103 114.54 -103 104 C-97.5927117 102.19757057 -92.72729972 101.30207016 -87.12109375 100.5625 C-82.19730045 98.09752213 -81.04892827 93.92583372 -79 89 C-78.39055542 87.62231445 -78.39055542 87.62231445 -77.76879883 86.21679688 C-76.53730755 83.40896734 -75.35731257 80.58402181 -74.1875 77.75 C-73.78080078 76.79609375 -73.37410156 75.8421875 -72.95507812 74.859375 C-70.06538027 68.15834364 -70.06538027 68.15834364 -70 61 C-71.41544994 58.12218034 -71.41544994 58.12218034 -73.375 55.4375 C-75.73740119 52.01056 -77.51498868 48.88240644 -79 45 C-76.24099916 42.11749017 -73.46589896 39.25160179 -70.67480469 36.40014648 C-69.72751645 35.42769895 -68.78476221 34.45081335 -67.84667969 33.46948242 C-66.49831092 32.06053683 -65.13218107 30.66865627 -63.765625 29.27734375 C-62.94868164 28.43421631 -62.13173828 27.59108887 -61.29003906 26.72241211 C-59 25 -59 25 -56.87304688 25.11499023 C-52.98903936 26.95017366 -49.67746886 29.80160078 -46.265625 32.3828125 C-42.03825366 34.47627152 -39.38177852 34.27387257 -35 33 C-30.64232193 31.45969786 -26.37424754 29.75787092 -22.11621094 27.96240234 C-20.11442385 27.12055221 -18.10488659 26.29969389 -16.09375 25.48046875 C-14.81459429 24.94914253 -13.53592953 24.41663246 -12.2578125 23.8828125 C-11.1042627 23.40215332 -9.95071289 22.92149414 -8.76220703 22.42626953 C-5.75345351 21.15539564 -5.75345351 21.15539564 -4 18 C-3.36894696 15.98072023 -3.36894696 15.98072023 -2.9296875 13.76953125 C-2.69354736 12.68442261 -2.69354736 12.68442261 -2.45263672 11.57739258 C-2.2620166 10.66497803 -2.07139648 9.75256348 -1.875 8.8125 C-1.25625 5.904375 -0.6375 2.99625 0 0 Z " fill="#FBFBFB" transform="translate(359,91)"/>
<path d="M0 0 C7.92 0 15.84 0 24 0 C25.75 7.3125 25.75 7.3125 26.27246094 9.6027832 C27.36197716 13.90268682 28.31143361 15.66008313 32 18 C35.87946819 19.92975262 39.88226836 21.56934958 43.875 23.25 C44.95136719 23.72179687 46.02773437 24.19359375 47.13671875 24.6796875 C48.18214844 25.12054688 49.22757813 25.56140625 50.3046875 26.015625 C51.25327637 26.42071289 52.20186523 26.82580078 53.17919922 27.24316406 C56.51841508 28.13909354 58.67164642 27.85069554 62 27 C64.43331475 25.54316107 66.59688916 23.89640369 68.8515625 22.1796875 C71 21 71 21 72.91845703 21.22875977 C75.39424089 22.14607166 76.61646043 23.27247322 78.453125 25.16015625 C79.071875 25.78857422 79.690625 26.41699219 80.328125 27.06445312 C80.96234375 27.72380859 81.5965625 28.38316406 82.25 29.0625 C83.22453125 30.05733398 83.22453125 30.05733398 84.21875 31.07226562 C85.8194676 32.70829317 87.41276193 34.35090912 89 36 C87.48727178 40.10496202 85.51772855 43.25218522 82.92578125 46.7421875 C80.42808354 52.83361904 84.1917034 59.41285261 86.54492188 65.04882812 C87.00447266 66.12583984 87.46402344 67.20285156 87.9375 68.3125 C88.62102539 69.95702148 88.62102539 69.95702148 89.31835938 71.63476562 C91.48553663 77.25084223 91.48553663 77.25084223 95 82 C97.33725887 82.59210558 99.69567166 83.10261779 102.0625 83.5625 C108.90277778 84.90277778 108.90277778 84.90277778 110 86 C110.08713831 87.70772358 110.10700007 89.41898649 110.09765625 91.12890625 C110.09443359 92.16337891 110.09121094 93.19785156 110.08789062 94.26367188 C110.07951172 95.35228516 110.07113281 96.44089844 110.0625 97.5625 C110.05798828 98.65498047 110.05347656 99.74746094 110.04882812 100.87304688 C110.03699826 103.58208495 110.02051543 106.29101599 110 109 C108.90300781 109.17273438 107.80601562 109.34546875 106.67578125 109.5234375 C98.71755003 110.7926599 98.71755003 110.7926599 92.0703125 114.89453125 C90.76135389 117.54404401 89.89669208 120.18231757 89 123 C88.40498101 124.41368071 87.79434696 125.82084691 87.171875 127.22265625 C82.75211332 136.2467025 82.75211332 136.2467025 82 146 C83.52210115 148.9447778 83.52210115 148.9447778 85.5625 151.6875 C87.56640625 154.51171875 87.56640625 154.51171875 89 157 C87.87799645 160.36601064 86.99584797 161.06243251 84.3125 163.25 C80.41410399 166.54432023 77.22484765 170.04956162 74 174 C69.90045914 172.59078283 66.66542516 170.5138339 63.16015625 168.0234375 C59.33672916 166.21197656 55.92341717 166.70736675 51.96386719 167.9621582 C50.91875977 168.40390381 49.87365234 168.84564941 48.796875 169.30078125 C47.07984375 170.02491211 47.07984375 170.02491211 45.328125 170.76367188 C44.14734375 171.27478516 42.9665625 171.78589844 41.75 172.3125 C40.55375 172.81201172 39.3575 173.31152344 38.125 173.82617188 C31.66581518 176.26475731 31.66581518 176.26475731 27 181 C26.39578508 183.38082853 25.8609677 185.77975094 25.375 188.1875 C25.11460937 189.45980469 24.85421875 190.73210937 24.5859375 192.04296875 C24.39257812 193.01878906 24.19921875 193.99460937 24 195 C20.18751574 195.02887236 16.3750593 195.04675492 12.5625 195.0625 C11.47388672 195.07087891 10.38527344 195.07925781 9.26367188 195.08789062 C7.71196289 195.09272461 7.71196289 195.09272461 6.12890625 195.09765625 C4.69140015 195.10551147 4.69140015 195.10551147 3.22485352 195.11352539 C1 195 1 195 0 194 C-0.37375795 192.06989058 -0.69929573 190.13033152 -1 188.1875 C-1.32184347 186.12317586 -1.65433799 184.06046964 -2 182 C-2.061875 181.25363281 -2.12375 180.50726563 -2.1875 179.73828125 C-2.88435939 177.73311204 -2.88435939 177.73311204 -5.375 177.0390625 C-6.57125 176.69617188 -7.7675 176.35328125 -9 176 C-10.73705702 175.29785891 -12.46555109 174.5743555 -14.1875 173.8359375 C-15.13367188 173.43632812 -16.07984375 173.03671875 -17.0546875 172.625 C-19.0210499 171.79046954 -20.98460562 170.94929518 -22.9453125 170.1015625 C-29.73369414 167.08465644 -29.73369414 167.08465644 -37 167 C-39.82841886 168.47544252 -39.82841886 168.47544252 -42.375 170.5 C-43.68597656 171.47453125 -43.68597656 171.47453125 -45.0234375 172.46875 C-45.67570312 172.9740625 -46.32796875 173.479375 -47 174 C-51.43626553 171.97699054 -54.38251359 169.02132242 -57.8125 165.625 C-58.42287109 165.0475 -59.03324219 164.47 -59.66210938 163.875 C-60.23380859 163.31039062 -60.80550781 162.74578125 -61.39453125 162.1640625 C-61.91893799 161.65311035 -62.44334473 161.1421582 -62.98364258 160.61572266 C-64 159 -64 159 -63.75317383 156.93212891 C-62.51016754 153.74342493 -60.29036313 151.27446773 -58.1796875 148.609375 C-56.05010648 143.89891102 -57.30419513 139.86602216 -59.03125 135.234375 C-60.32169931 132.17106542 -61.67597288 129.14598895 -63.0625 126.125 C-63.99391937 124.06647424 -64.92246063 122.00664299 -65.84765625 119.9453125 C-66.26023682 119.04312988 -66.67281738 118.14094727 -67.09790039 117.21142578 C-68 115 -68 115 -68 113 C-69.05960938 112.79503906 -70.11921875 112.59007812 -71.2109375 112.37890625 C-72.59898822 112.10692334 -73.98700744 111.83477956 -75.375 111.5625 C-76.42300781 111.36043945 -76.42300781 111.36043945 -77.4921875 111.15429688 C-82.7734375 110.11328125 -82.7734375 110.11328125 -85 109 C-85 101.08 -85 93.16 -85 85 C-77.6875 83.8125 -77.6875 83.8125 -75.3972168 83.47583008 C-72.11554619 82.87944237 -70.38004036 82.54402348 -68.43383789 79.75805664 C-66.02442617 75.12343649 -63.87663892 70.39491893 -61.75 65.625 C-61.27820313 64.60921875 -60.80640625 63.5934375 -60.3203125 62.546875 C-56.96406048 55.02589728 -56.96406048 55.02589728 -58 47 C-59.33743564 44.33837196 -59.33743564 44.33837196 -61.0625 42.0625 C-61.61035156 41.29035156 -62.15820312 40.51820313 -62.72265625 39.72265625 C-63.14417969 39.15417969 -63.56570312 38.58570313 -64 38 C-61.97699054 33.56373447 -59.02132242 30.61748641 -55.625 27.1875 C-55.0475 26.57712891 -54.47 25.96675781 -53.875 25.33789062 C-53.31039062 24.76619141 -52.74578125 24.19449219 -52.1640625 23.60546875 C-51.65311035 23.08106201 -51.1421582 22.55665527 -50.61572266 22.01635742 C-49 21 -49 21 -46.93652344 21.24682617 C-43.69947044 22.50581615 -41.15273266 24.7203428 -38.4140625 26.8203125 C-34.4971325 28.73441098 -31.0879384 27.35372737 -27.0715332 26.04785156 C-23.81151704 24.79896474 -20.55921001 23.53310869 -17.3125 22.25 C-16.17232422 21.81945312 -15.03214844 21.38890625 -13.85742188 20.9453125 C-12.76623047 20.51476562 -11.67503906 20.08421875 -10.55078125 19.640625 C-9.55731689 19.25422852 -8.56385254 18.86783203 -7.5402832 18.46972656 C-4.49951684 16.71043646 -3.49104931 15.14638734 -2 12 C-1.22187049 8.88995738 -1.22187049 8.88995738 -0.8125 5.6875 C-0.544375 3.810625 -0.27625 1.93375 0 0 Z " fill="#4CAFF9" transform="translate(179,296)"/>
<path d="M0 0 C1.075345 -0.00700928 2.15069 -0.01401855 3.25862122 -0.02124023 C6.8113491 -0.03883779 10.36327971 -0.02719051 13.91601562 -0.01367188 C16.38554029 -0.01636626 18.85506393 -0.02024824 21.32458496 -0.02526855 C26.49953311 -0.03116602 31.67420505 -0.02259222 36.84912109 -0.00390625 C43.48392473 0.01888292 50.11808114 0.00576125 56.75286102 -0.01819611 C61.85208008 -0.03264706 66.95114559 -0.0280512 72.05036926 -0.01768494 C74.49681169 -0.01501573 76.94326804 -0.01829417 79.38969421 -0.02760315 C82.80834915 -0.03775663 86.22595453 -0.02228285 89.64453125 0 C91.16268181 -0.01214539 91.16268181 -0.01214539 92.71150208 -0.02453613 C96.73227607 0.02403992 99.7194863 0.26433115 103.44918823 1.83129883 C106.52448115 6.24173896 106.0170494 10.76846147 105.96923828 16.015625 C105.97799988 17.18996597 105.98676147 18.36430695 105.99578857 19.57423401 C106.01402239 22.79145339 106.009753 26.0076439 105.99389315 29.22484779 C105.98122611 32.59291355 105.99297645 35.96091101 106.00082397 39.32897949 C106.00991831 44.98490728 105.99793873 50.64050852 105.97412109 56.29638672 C105.94690967 62.83362925 105.95572403 69.3700921 105.98325312 75.90731573 C106.00594977 81.52191764 106.00914174 87.13628495 105.99605978 92.75091791 C105.98826809 96.10347936 105.9872152 99.45567443 106.00374222 102.80821228 C106.01641261 106.54585812 105.9971235 110.28199787 105.96923828 114.01953125 C105.98442001 115.68569237 105.98442001 115.68569237 105.99990845 117.38551331 C105.89875593 124.68782197 105.89875593 124.68782197 103.45591736 128.20385742 C98.8036492 130.15422763 94.53615019 130.07472414 89.53686523 130.03515625 C87.90680794 130.04567017 87.90680794 130.04567017 86.24382019 130.05639648 C82.65382291 130.07399358 79.06461459 130.06234772 75.47460938 130.04882812 C72.98026885 130.05152233 70.48592934 130.05540415 67.99159241 130.0604248 C62.0961146 130.06707723 56.20092307 130.05308314 50.30548722 130.03182173 C44.93577221 130.01466098 39.56643744 130.02679457 34.19674677 130.04636812 C28.38159067 130.06671545 22.5666396 130.06455198 16.75146675 130.05284119 C14.27907803 130.05016997 11.80667556 130.05345745 9.3343029 130.0627594 C5.88191891 130.07289863 2.43057765 130.05745969 -1.02172852 130.03515625 C-2.0467749 130.04325317 -3.07182129 130.0513501 -4.12792969 130.05969238 C-5.0685878 130.04841309 -6.00924591 130.03713379 -6.97840881 130.0255127 C-7.79415406 130.02400459 -8.60989931 130.02249649 -9.45036411 130.02094269 C-12.57172358 129.31554504 -13.75701499 128.0407433 -15.67773438 125.51757812 C-16.18389225 123.14685822 -16.18389225 123.14685822 -16.19239807 120.46984863 C-16.20512253 119.45201797 -16.21784698 118.43418732 -16.23095703 117.38551331 C-16.22443115 116.27473923 -16.21790527 115.16396515 -16.21118164 114.01953125 C-16.21979721 112.84519028 -16.22841278 111.6708493 -16.23728943 110.46092224 C-16.25609961 107.24384298 -16.25684513 104.02741262 -16.24796796 100.81030846 C-16.24285624 98.123811 -16.25015197 95.43740586 -16.25744003 92.75091791 C-16.27443763 86.41345295 -16.27087433 80.07622879 -16.25415039 73.73876953 C-16.23722237 67.20154643 -16.25307237 60.66499074 -16.28537327 54.12784052 C-16.31206418 48.51325621 -16.31934683 42.89887972 -16.31085819 37.28423834 C-16.30592815 33.93165618 -16.308148 30.57947574 -16.32864571 27.22694397 C-16.34601398 23.4893388 -16.3316109 19.75317158 -16.30883789 16.015625 C-16.32053009 14.90485092 -16.33222229 13.79407684 -16.3442688 12.64964294 C-16.25343878 5.34366367 -16.25343878 5.34366367 -13.8056488 1.83129883 C-9.18557929 -0.10912541 -4.96615392 -0.03972982 0 0 Z " fill="#F8D734" transform="translate(64.677734375,43.482421875)"/>
<path d="M0 0 C10.23 0 20.46 0 31 0 C32.75 9.3125 32.75 9.3125 33.27246094 12.2355957 C33.5011084 13.38161255 33.5011084 13.38161255 33.734375 14.55078125 C33.95432129 15.72120972 33.95432129 15.72120972 34.17871094 16.9152832 C35.65239534 20.6560059 38.50720184 21.76090742 42.00512695 23.45800781 C45.10099442 24.78688511 48.19825221 26.11066896 51.30737305 27.40820312 C53.30259394 28.24584122 55.28665611 29.10682928 57.27148438 29.96875 C58.5514645 30.50668319 59.83204557 31.04318913 61.11328125 31.578125 C62.84251831 32.31144043 62.84251831 32.31144043 64.60668945 33.05957031 C68.52935568 34.14670682 71.05970277 33.92737121 75 33 C78.2136941 31.16310863 78.2136941 31.16310863 81.1875 28.875 C86.4611876 24.96204566 86.4611876 24.96204566 88.88891602 25.13305664 C91.75891075 26.31165631 93.37776762 28.04083047 95.546875 30.25390625 C96.39121094 31.10791016 97.23554688 31.96191406 98.10546875 32.84179688 C98.97816406 33.73962891 99.85085938 34.63746094 100.75 35.5625 C101.63816406 36.46419922 102.52632812 37.36589844 103.44140625 38.29492188 C105.63448315 40.52337098 107.82026044 42.75851593 110 45 C108.17437823 49.80537224 105.63069319 53.28103845 102.4609375 57.3046875 C100.5517755 60.82693825 100.72403232 63.01091921 101 67 C101.81887577 69.57911841 102.67135964 71.9277916 103.73828125 74.39453125 C104.01971481 75.06796066 104.30114838 75.74139008 104.59111023 76.43522644 C105.18452131 77.84697724 105.7840523 79.25616984 106.3894043 80.6628418 C107.31462031 82.81743768 108.21610951 84.98088982 109.11523438 87.14648438 C109.69653831 88.5214169 110.27917439 89.89578714 110.86328125 91.26953125 C111.26659416 92.23823906 111.26659416 92.23823906 111.67805481 93.22651672 C113.13362196 96.57319657 113.87790722 97.91860481 117 100 C119.52556511 100.58845385 122.01379204 101.10677076 124.5625 101.5625 C131.76894502 102.88447251 131.76894502 102.88447251 134 104 C134 114.23 134 124.46 134 135 C125.75 136.25 125.75 136.25 123.17089844 136.61425781 C122.4905957 136.72608398 121.81029297 136.83791016 121.109375 136.953125 C120.41811523 137.05786133 119.72685547 137.16259766 119.01464844 137.27050781 C115.07247144 138.6979466 113.32397343 141.37416996 111.44433594 145.00512695 C110.72165527 146.72928833 110.72165527 146.72928833 109.984375 148.48828125 C109.72368225 149.10970505 109.4629895 149.73112885 109.19439697 150.37138367 C108.64836331 151.68130804 108.10741004 152.99336052 107.57128906 154.30737305 C106.75402054 156.30268409 105.91340513 158.28697024 105.0703125 160.27148438 C104.54022273 161.55148631 104.01153036 162.83206802 103.484375 164.11328125 C103.00709961 165.26610596 102.52982422 166.41893066 102.03808594 167.60668945 C100.73963489 171.8510853 100.07951677 175.78501922 101.82617188 179.98803711 C102.20322266 180.4960083 102.58027344 181.00397949 102.96875 181.52734375 C103.37480469 182.09130859 103.78085937 182.65527344 104.19921875 183.23632812 C104.62847656 183.79771484 105.05773437 184.35910156 105.5 184.9375 C105.92925781 185.52595703 106.35851562 186.11441406 106.80078125 186.72070312 C107.85247464 188.15801742 108.92424684 189.58060347 110 191 C108.48623919 194.56764285 106.39486871 196.83706287 103.6484375 199.546875 C102.79765625 200.39121094 101.946875 201.23554688 101.0703125 202.10546875 C100.18085938 202.97816406 99.29140625 203.85085938 98.375 204.75 C97.4778125 205.63816406 96.580625 206.52632812 95.65625 207.44140625 C93.44192996 209.63216969 91.22307565 211.81812763 89 214 C88.26394531 213.52949219 87.52789062 213.05898438 86.76953125 212.57421875 C85.79371094 211.95160156 84.81789063 211.32898438 83.8125 210.6875 C82.84957031 210.07261719 81.88664063 209.45773437 80.89453125 208.82421875 C79.46173828 207.92123047 79.46173828 207.92123047 78 207 C76.76830078 206.11248047 76.76830078 206.11248047 75.51171875 205.20703125 C72.16718049 203.59978036 70.55064592 204.02959219 67 205 C64.70354473 205.81351575 62.42929219 206.69133487 60.17578125 207.6171875 C59.54770065 207.87501007 58.91962006 208.13283264 58.27250671 208.39846802 C56.95437637 208.94169613 55.63756053 209.48812389 54.32202148 210.03759766 C52.31188121 210.87525786 50.29604225 211.69792149 48.27929688 212.51953125 C46.99442237 213.05119172 45.70990419 213.58371433 44.42578125 214.1171875 C43.26473877 214.59784668 42.10369629 215.07850586 40.9074707 215.57373047 C38.3163108 216.84483268 36.7684285 217.76332436 35 220 C34.28327758 221.95844494 34.28327758 221.95844494 33.9375 224.125 C33.04204188 228.78138223 32.03235694 233.35439375 31 238 C20.77 238 10.54 238 0 238 C-1.8125 229.1875 -1.8125 229.1875 -2.36254883 226.42260742 C-2.51747803 225.69920166 -2.67240723 224.9757959 -2.83203125 224.23046875 C-3.05983276 223.12288208 -3.05983276 223.12288208 -3.29223633 221.99291992 C-4.60975431 218.2830547 -6.60497587 217.19805807 -10.09106445 215.45019531 C-11.34479555 214.90103872 -12.60247773 214.3608436 -13.86328125 213.828125 C-14.53288376 213.54144958 -15.20248627 213.25477417 -15.89237976 212.95941162 C-17.3070503 212.35722099 -18.72342387 211.75901753 -20.14135742 211.16455078 C-22.30137593 210.25468579 -24.45026624 209.32147258 -26.59960938 208.38671875 C-27.97854915 207.80322601 -29.35808838 207.22114746 -30.73828125 206.640625 C-31.37598953 206.36051575 -32.01369781 206.08040649 -32.67073059 205.79180908 C-36.8559432 204.0734428 -39.64795797 203.74792671 -44 205 C-45.87763438 205.8780987 -45.87763438 205.8780987 -47.4296875 207.06640625 C-47.996875 207.46923828 -48.5640625 207.87207031 -49.1484375 208.28710938 C-49.71820313 208.70798828 -50.28796875 209.12886719 -50.875 209.5625 C-51.46796875 209.98724609 -52.0609375 210.41199219 -52.671875 210.84960938 C-54.12154965 211.89010166 -55.56177551 212.9437372 -57 214 C-62.25174926 209.61557474 -67.13222473 204.99157907 -71.9375 200.125 C-72.62134766 199.43664062 -73.30519531 198.74828125 -74.00976562 198.0390625 C-75.67551464 196.36166489 -77.3388622 194.68196209 -79 193 C-77.29617684 188.16389589 -74.60817029 184.69037127 -71.4609375 180.6953125 C-69.01974973 176.19151689 -69.64133934 172.22659779 -71.05053711 167.40722656 C-71.5282377 166.14607786 -72.02120188 164.89063073 -72.52734375 163.640625 C-72.79454727 162.96956726 -73.06175079 162.29850952 -73.33705139 161.6071167 C-73.90448272 160.19933834 -74.47885477 158.79433949 -75.05981445 157.39208984 C-75.93602308 155.25360459 -76.76178265 153.09965326 -77.58789062 150.94140625 C-80.21973071 143.92899197 -80.21973071 143.92899197 -85.06298828 138.45117188 C-87.62287241 137.45846578 -87.62287241 137.45846578 -92 137 C-95.63 136.34 -99.26 135.68 -103 135 C-103 124.77 -103 114.54 -103 104 C-97.5927117 102.19757057 -92.72729972 101.30207016 -87.12109375 100.5625 C-82.19730045 98.09752213 -81.04892827 93.92583372 -79 89 C-78.39055542 87.62231445 -78.39055542 87.62231445 -77.76879883 86.21679688 C-76.53730755 83.40896734 -75.35731257 80.58402181 -74.1875 77.75 C-73.78080078 76.79609375 -73.37410156 75.8421875 -72.95507812 74.859375 C-70.06538027 68.15834364 -70.06538027 68.15834364 -70 61 C-71.41544994 58.12218034 -71.41544994 58.12218034 -73.375 55.4375 C-75.73740119 52.01056 -77.51498868 48.88240644 -79 45 C-76.24099916 42.11749017 -73.46589896 39.25160179 -70.67480469 36.40014648 C-69.72751645 35.42769895 -68.78476221 34.45081335 -67.84667969 33.46948242 C-66.49831092 32.06053683 -65.13218107 30.66865627 -63.765625 29.27734375 C-62.94868164 28.43421631 -62.13173828 27.59108887 -61.29003906 26.72241211 C-59 25 -59 25 -56.87304688 25.11499023 C-52.98903936 26.95017366 -49.67746886 29.80160078 -46.265625 32.3828125 C-42.03825366 34.47627152 -39.38177852 34.27387257 -35 33 C-30.64232193 31.45969786 -26.37424754 29.75787092 -22.11621094 27.96240234 C-20.11442385 27.12055221 -18.10488659 26.29969389 -16.09375 25.48046875 C-14.81459429 24.94914253 -13.53592953 24.41663246 -12.2578125 23.8828125 C-11.1042627 23.40215332 -9.95071289 22.92149414 -8.76220703 22.42626953 C-5.75345351 21.15539564 -5.75345351 21.15539564 -4 18 C-3.36894696 15.98072023 -3.36894696 15.98072023 -2.9296875 13.76953125 C-2.69354736 12.68442261 -2.69354736 12.68442261 -2.45263672 11.57739258 C-2.2620166 10.66497803 -2.07139648 9.75256348 -1.875 8.8125 C-1.25625 5.904375 -0.6375 2.99625 0 0 Z M-39 57 C-39.59683594 57.4434375 -40.19367188 57.886875 -40.80859375 58.34375 C-55.3059455 69.32557766 -63.89780947 89.67903289 -67 107 C-68.91480831 130.60304212 -64.07422788 153.59712035 -48.5625 172 C-34.08065682 188.38936458 -14.16456808 200.31921334 8.02099609 202.16845703 C32.03454866 203.51285597 54.05323557 195.89166695 72.125 179.875 C86.44296764 166.66495665 96.62651139 146.95648893 98.20629883 127.453125 C98.30228171 124.88167674 98.32907619 122.32315296 98.3125 119.75 C98.30758545 118.83613525 98.3026709 117.92227051 98.29760742 116.98071289 C97.92651478 95.3602849 88.95875231 76.41694833 74 61 C73.45988281 60.38640625 72.91976562 59.7728125 72.36328125 59.140625 C61.17577048 46.85408924 42.59516622 38.03096199 26.10571289 36.78051758 C1.06681563 35.84281215 -19.82760755 40.08529115 -39 57 Z " fill="#BAC4EF" transform="translate(359,91)"/>
<path d="M0 0 C11.64888009 10.5860328 20.34705046 24.66999453 21.32250977 40.67797852 C21.89101665 58.26749614 16.96263098 74.24182465 5.38110352 87.77954102 C-7.29583566 100.63043476 -22.87956504 106.82850339 -40.70874023 107.46313477 C-57.01661827 107.16047764 -71.75169057 100.03173648 -83.39233398 88.81469727 C-96.87943361 74.12827677 -100.79122255 57.84974107 -100.07543945 38.5378418 C-99.02159097 24.13141719 -90.78000844 12.0246633 -80.89624023 2.08813477 C-80.37803711 1.53512695 -79.85983398 0.98211914 -79.32592773 0.41235352 C-58.17293052 -20.13152597 -21.62538665 -18.53937115 0 0 Z " fill="#020304" transform="translate(230.896240234375,346.911865234375)"/>
<path d="M0 0 C1.1177758 -0.01051392 1.1177758 -0.01051392 2.25813293 -0.02124023 C4.71739138 -0.03882229 7.17549581 -0.02719761 9.63476562 -0.01367188 C11.34582744 -0.01636675 13.05688776 -0.02024913 14.76794434 -0.02526855 C18.35244337 -0.03116386 21.93654346 -0.02259986 25.52099609 -0.00390625 C30.11468002 0.01888362 34.70742917 0.00576066 39.3010788 -0.01819611 C42.83387286 -0.03265339 46.36644546 -0.02804848 49.89924622 -0.01768494 C51.59292207 -0.01501744 53.28661805 -0.01828823 54.98027039 -0.02760315 C57.34806539 -0.037768 59.71434879 -0.02227067 62.08203125 0 C62.78137283 -0.00809692 63.48071442 -0.01619385 64.20124817 -0.02453613 C67.33539988 0.03005095 69.30910836 0.37119968 71.97683716 2.05505371 C74.14192696 5.46360753 74.08577351 8.52430784 74.02685547 12.43554688 C74.03065216 13.2294986 74.03444885 14.02345032 74.0383606 14.84146118 C74.0457635 17.4630701 74.02438803 20.08356788 74.00195312 22.70507812 C73.99956841 24.52823761 73.99866344 26.35139958 73.99917603 28.17456055 C73.99604846 31.99446001 73.97948676 35.81398404 73.95263672 39.63378906 C73.91865698 44.52992357 73.91100819 49.42564554 73.91252708 54.32188416 C73.91198319 58.08626238 73.90101281 61.85055045 73.8865242 65.61489868 C73.88016043 67.42020994 73.87621829 69.22553141 73.87473679 71.03085327 C73.8703993 73.55394889 73.85288881 76.07660768 73.83154297 78.59960938 C73.83244934 79.34570465 73.83335571 80.09179993 73.83428955 80.86050415 C73.78882211 84.53671026 73.70307235 87.45544436 71.54101562 90.51757812 C68.57816599 91.99900294 65.55875945 91.68221253 62.30908203 91.69458008 C61.19174431 91.70443687 61.19174431 91.70443687 60.05183411 91.7144928 C57.58208114 91.7342347 55.11238896 91.74588951 52.64257812 91.75585938 C51.79989758 91.7599349 50.95721703 91.76401043 50.0890007 91.76820946 C45.62997431 91.78907269 41.17097872 91.80337404 36.71191406 91.81274414 C32.10258428 91.82381718 27.49373613 91.85822633 22.8845768 91.89791584 C19.34326265 91.92403762 15.80206411 91.93243194 12.26066208 91.93602562 C10.56137204 91.94090207 8.86208752 91.95254612 7.16289139 91.97106361 C4.78544976 91.99536464 2.40926561 91.99450735 0.03173828 91.98754883 C-0.67074539 92.00035889 -1.37322906 92.01316895 -2.09700012 92.02636719 C-5.2388743 91.99282889 -7.21590627 91.67013806 -9.89480591 89.98881531 C-12.06828326 86.55495007 -12.01877635 83.44638084 -11.9765625 79.5078125 C-11.98357178 78.70410721 -11.99058105 77.90040192 -11.99780273 77.07234192 C-12.01539361 74.41831815 -12.00375655 71.76536255 -11.99023438 69.11132812 C-11.99292899 67.26574499 -11.99681115 65.42016324 -12.00183105 63.57458496 C-12.00772757 59.7076261 -11.99915828 55.84103696 -11.98046875 51.97412109 C-11.95767903 47.01725588 -11.9708013 42.06125695 -11.99475861 37.10442352 C-12.00921248 33.2936958 -12.0046125 29.48317348 -11.99424744 25.67243958 C-11.99157901 23.84479164 -11.99485398 22.01712506 -12.00416565 20.1894989 C-12.01432464 17.6349447 -11.99884038 15.08179344 -11.9765625 12.52734375 C-11.98465942 11.77189774 -11.99275635 11.01645172 -12.00109863 10.2381134 C-11.94818832 6.96341378 -11.66169765 4.83705298 -9.89282227 2.04931641 C-6.6167898 -0.01245786 -3.7537534 -0.04346067 0 0 Z " fill="#030302" transform="translate(78.458984375,62.482421875)"/>
<path d="M0 0 C1.08522949 -0.0103125 2.17045898 -0.020625 3.28857422 -0.03125 C10.51813318 0.04818358 16.83094447 1.1723697 23.6875 3.4375 C24.36562744 3.65639893 25.04375488 3.87529785 25.74243164 4.10083008 C47.72970583 11.56386593 63.73266715 26.92739378 74.17578125 47.34765625 C83.46762313 66.83585559 84.64615279 89.01635554 77.6875 109.4375 C76.25095834 113.25176579 74.59026802 116.8350684 72.6875 120.4375 C72.20796875 121.38882813 71.7284375 122.34015625 71.234375 123.3203125 C60.59770036 143.09626584 42.32147109 156.32094735 20.96484375 162.84765625 C-1.84837794 168.75639806 -24.05952291 165.24125894 -44.3125 153.4375 C-61.78078031 142.40368547 -74.01399957 126.04873997 -80.3125 106.4375 C-80.79203125 105.00277344 -80.79203125 105.00277344 -81.28125 103.5390625 C-85.6669581 88.06725893 -84.75976773 70.47124219 -79.3125 55.4375 C-78.961875 54.40753906 -78.61125 53.37757813 -78.25 52.31640625 C-75.19279458 44.15324317 -70.52833016 37.3343904 -65.3125 30.4375 C-64.75820313 29.69628906 -64.20390625 28.95507812 -63.6328125 28.19140625 C-48.04309156 8.91754727 -24.08428624 0.19030902 0 0 Z M-26.3125 18.4375 C-27.29863281 18.83839844 -28.28476562 19.23929688 -29.30078125 19.65234375 C-45.68949739 26.98581595 -58.04768651 40.62176748 -65.09375 57.0234375 C-72.02526343 76.44056167 -70.36031217 95.58562473 -62.10546875 114.15234375 C-53.3510302 131.73690764 -37.16845306 143.29768176 -18.9140625 149.61328125 C-0.91166742 154.30279404 17.37080738 151.06075483 33.5390625 142.34765625 C50.08158287 132.31131325 60.38905234 117.77634598 66.21484375 99.52734375 C70.26665395 81.61231518 67.89271444 63.33417716 58.6640625 47.46875 C48.36304821 31.67114705 34.12673104 21.03511856 16.125 15.4375 C2.41147384 12.5632952 -13.40791129 12.75948097 -26.3125 18.4375 Z " fill="#040404" transform="translate(375.3125,127.5625)"/>
<path d="M0 0 C0.80893707 -0.00807175 1.61787415 -0.01614349 2.45132446 -0.02445984 C4.16446795 -0.03829865 5.87763898 -0.04902172 7.59082031 -0.05688477 C10.20951574 -0.07410664 12.82695144 -0.11799354 15.4453125 -0.16210938 C17.10936571 -0.17223564 18.77342966 -0.18075195 20.4375 -0.1875 C21.21991058 -0.20500809 22.00232117 -0.22251617 22.80844116 -0.24055481 C26.37682757 -0.22633218 28.44699089 -0.05656605 31.36938477 2.07324219 C32.8515625 4.23828125 32.8515625 4.23828125 32.98046875 7.3046875 C31.82927578 12.75502592 28.61286244 17.45438775 25.7890625 22.17578125 C25.22123047 23.14580078 24.65339844 24.11582031 24.06835938 25.11523438 C22.67286156 27.49578947 21.26714769 29.86963511 19.8515625 32.23828125 C20.62346924 32.2225708 21.39537598 32.20686035 22.19067383 32.19067383 C25.68172912 32.12838518 29.17266759 32.08930952 32.6640625 32.05078125 C33.87900391 32.02564453 35.09394531 32.00050781 36.34570312 31.97460938 C38.09077148 31.96010742 38.09077148 31.96010742 39.87109375 31.9453125 C40.94464111 31.92960205 42.01818848 31.9138916 43.12426758 31.89770508 C45.8515625 32.23828125 45.8515625 32.23828125 47.69970703 33.57641602 C49.52378938 36.20815161 49.26173043 38.12100499 48.8515625 41.23828125 C47.41015625 43.66796875 47.41015625 43.66796875 45.2890625 46.11328125 C44.47566406 47.05558594 43.66226563 47.99789062 42.82421875 48.96875 C38.13412843 54.17219971 33.32801861 59.26855012 28.5 64.34375 C25.42048215 67.59799809 22.46178366 70.94169181 19.52587891 74.32543945 C17.02462696 77.18302315 14.44070859 79.96052187 11.8515625 82.73828125 C8.6390956 86.2002986 5.44049585 89.66480933 2.3515625 93.23828125 C-1.24313171 97.39684906 -4.98050392 101.42057044 -8.73510742 105.43457031 C-11.61664054 108.52623886 -14.32577187 111.68094019 -16.9609375 114.98828125 C-19.36446828 117.75527278 -20.1639316 118.24353349 -23.8359375 119.48828125 C-27.1484375 119.23828125 -27.1484375 119.23828125 -29.5859375 117.73828125 C-31.73069154 114.30667478 -31.44602535 112.27356248 -31.1484375 108.23828125 C-30.33510965 105.08618419 -29.22785679 102.0697761 -28.0859375 99.0234375 C-27.77519287 98.16769638 -27.46444824 97.31195526 -27.14428711 96.43028259 C-26.15611849 93.71649382 -25.15256499 91.00870032 -24.1484375 88.30078125 C-23.47293196 86.45415117 -22.7984418 84.60714932 -22.125 82.75976562 C-20.477867 78.24821643 -18.81691892 73.74197663 -17.1484375 69.23828125 C-18.2154187 69.26970215 -18.2154187 69.26970215 -19.30395508 69.30175781 C-22.52280578 69.3848385 -25.74143116 69.43691591 -28.9609375 69.48828125 C-30.08048828 69.52179688 -31.20003906 69.5553125 -32.35351562 69.58984375 C-33.42666016 69.60273438 -34.49980469 69.615625 -35.60546875 69.62890625 C-37.0901062 69.66032715 -37.0901062 69.66032715 -38.60473633 69.69238281 C-41.1484375 69.23828125 -41.1484375 69.23828125 -42.99487305 67.58886719 C-44.48831842 64.54571543 -44.52859757 62.59828462 -44.1484375 59.23828125 C-43.10131836 56.76660156 -43.10131836 56.76660156 -41.61328125 54.31640625 C-41.05825928 53.38570312 -40.5032373 52.455 -39.93139648 51.49609375 C-39.32239502 50.50351563 -38.71339355 49.5109375 -38.0859375 48.48828125 C-36.80368259 46.34825805 -35.52247017 44.20760994 -34.2421875 42.06640625 C-33.571875 40.95330078 -32.9015625 39.84019531 -32.2109375 38.69335938 C-28.75182581 32.9240728 -25.42929612 27.07508396 -22.0859375 21.23828125 C-9.96739973 0.09362027 -9.96739973 0.09362027 0 0 Z " fill="#040402" transform="translate(372.1484375,150.76171875)"/>
<path d="M0 0 C1.56422193 1.20033185 3.10788258 2.42815829 4.625 3.6875 C5.26050781 4.19925781 5.89601563 4.71101563 6.55078125 5.23828125 C14.90613358 12.70437214 20.00527173 23.77858688 20.87109375 34.828125 C21.38726116 49.03054954 17.20497096 61.44533827 7.5234375 71.97265625 C-1.56714648 80.56534606 -13.26134351 85.64773477 -25.8125 86.0625 C-36.31696065 85.70337314 -44.74645178 82.58621991 -53.375 76.6875 C-48.39095832 70.65418638 -42.95584697 65.1690829 -37.375 59.6875 C-36.48425781 60.00976562 -35.59351563 60.33203125 -34.67578125 60.6640625 C-27.65038792 62.84235014 -21.07676586 62.38213293 -14.484375 59.0859375 C-9.76508268 55.95722148 -6.45442311 51.84634621 -3.9375 46.8125 C-2.33063284 37.88546022 -3.21088576 31.31846146 -8.375 23.6875 C-12.35987347 19.12572796 -16.91074832 16.98550014 -22.91796875 16.46875 C-29.93664932 16.23640747 -35.9969716 16.6032132 -41.3515625 21.4921875 C-46.06834504 26.63600385 -48.67492411 30.92867931 -48.5625 38.0625 C-48.55605469 38.95710938 -48.54960937 39.85171875 -48.54296875 40.7734375 C-48.47742672 43.80187984 -48.47742672 43.80187984 -47.3984375 47.04296875 C-47.37144476 51.24034007 -47.82117847 51.70319668 -50.55859375 54.65234375 C-51.95673758 55.99747739 -53.37568848 57.32125028 -54.8125 58.625 C-55.53244141 59.30884766 -56.25238281 59.99269531 -56.99414062 60.69726562 C-58.77112056 62.38010093 -60.56394389 64.04151824 -62.375 65.6875 C-65.375 64.6875 -65.375 64.6875 -66.9453125 61.88671875 C-67.45835937 60.72785156 -67.97140625 59.56898438 -68.5 58.375 C-69.01820313 57.22386719 -69.53640625 56.07273437 -70.0703125 54.88671875 C-74.46469467 44.11127265 -73.11032127 31.5185431 -69.375 20.6875 C-67.64369127 17.13758966 -65.64839905 13.91269545 -63.375 10.6875 C-62.75625 9.78 -62.1375 8.8725 -61.5 7.9375 C-45.46593424 -9.0397461 -19.69238551 -13.14799874 0 0 Z " fill="#FBFBFB" transform="translate(217.375,354.3125)"/>
<path d="M0 0 C18.81 0 37.62 0 57 0 C57 20.79 57 41.58 57 63 C38.19 63 19.38 63 0 63 C0 42.21 0 21.42 0 0 Z " fill="#FDFDFD" transform="translate(81,77)"/>
<path d="M0 0 C1.22976563 0.10441406 2.45953125 0.20882812 3.7265625 0.31640625 C5.59441406 0.43822266 5.59441406 0.43822266 7.5 0.5625 C8.44101562 0.66691406 9.38203125 0.77132812 10.3515625 0.87890625 C9.24749065 3.99699928 7.87256129 6.78796873 6.1875 9.62109375 C5.78789062 10.29527344 5.38828125 10.96945313 4.9765625 11.6640625 C4.14459407 13.05500972 3.30344105 14.44050517 2.453125 15.8203125 C-0.16207938 20.27804724 -1.52278962 23.56754336 -0.6484375 28.87890625 C0.66101022 31.00139584 0.66101022 31.00139584 3.3515625 31.87890625 C6.59903196 32.36182088 9.82229946 32.48163948 13.1015625 32.56640625 C14.43380859 32.61764648 14.43380859 32.61764648 15.79296875 32.66992188 C17.97904053 32.75219339 20.16472201 32.82140797 22.3515625 32.87890625 C20.94994207 36.02502718 19.28360053 38.22880304 16.90234375 40.70703125 C16.21849609 41.42503906 15.53464844 42.14304688 14.83007812 42.8828125 C14.11529297 43.62402344 13.40050781 44.36523438 12.6640625 45.12890625 C7.95492918 50.043164 3.31568201 54.98170228 -1.12255859 60.14355469 C-3.19632584 62.5020087 -5.39445219 64.69322352 -7.6484375 66.87890625 C-5.94885475 58.57987982 -5.94885475 58.57987982 -4.5234375 55.25390625 C-3.30839787 51.95594153 -3.26176647 49.35894549 -3.6484375 45.87890625 C-5.46021741 43.74180674 -6.9980541 42.98005359 -9.75830078 42.55078125 C-12.30707049 42.35876814 -14.8433526 42.2574535 -17.3984375 42.19140625 C-18.28660156 42.15724609 -19.17476563 42.12308594 -20.08984375 42.08789062 C-22.27591553 42.00561911 -24.46159701 41.93640453 -26.6484375 41.87890625 C-25.3354767 37.54412186 -23.6516501 33.83748008 -21.3828125 29.921875 C-20.73957031 28.80876953 -20.09632813 27.69566406 -19.43359375 26.54882812 C-19.09859863 25.97575928 -18.76360352 25.40269043 -18.41845703 24.81225586 C-17.40927238 23.08495107 -16.40965709 21.35206693 -15.41015625 19.61914062 C-14.11693887 17.39136157 -12.81011972 15.17141389 -11.48876953 12.96020508 C-10.32590359 11.01319911 -9.1878759 9.05094569 -8.08544922 7.0690918 C-4.56973877 1.10084714 -4.56973877 1.10084714 0 0 Z " fill="#F8D633" transform="translate(374.6484375,164.12109375)"/>
<path d="M0 0 C3.98416091 0.54365542 5.78363228 2.43465185 8.546875 5.25390625 C9.39121094 6.10791016 10.23554688 6.96191406 11.10546875 7.84179688 C11.97816406 8.73962891 12.85085938 9.63746094 13.75 10.5625 C14.63816406 11.46419922 15.52632813 12.36589844 16.44140625 13.29492188 C18.63448315 15.52337098 20.82026044 17.75851593 23 20 C21.17437823 24.80537224 18.63069319 28.28103845 15.4609375 32.3046875 C13.56203085 35.80801796 13.74415954 38.03757394 14 42 C14.96502958 45.32015452 14.96502958 45.32015452 16.40625 48.58984375 C17.15068359 50.38325195 17.15068359 50.38325195 17.91015625 52.21289062 C18.43983564 53.45454167 18.96978692 54.69607676 19.5 55.9375 C20.03108132 57.20590625 20.56104016 58.47478309 21.08984375 59.74414062 C22.38227656 62.83422998 23.68591145 65.91907238 25 69 C23.1875 69.625 23.1875 69.625 21 70 C16.25602549 66.83735032 15.10906634 61.81496585 13.01904297 56.64306641 C12.25543587 54.76338086 11.46676583 52.89564439 10.67578125 51.02734375 C10.18980469 49.83753906 9.70382812 48.64773437 9.203125 47.421875 C8.75614258 46.33487305 8.30916016 45.24787109 7.84863281 44.12792969 C6.6838786 39.83482528 7.06556107 36.78845234 9.12329102 32.85009766 C9.57889404 32.21120605 10.03449707 31.57231445 10.50390625 30.9140625 C10.99697266 30.21152344 11.49003906 29.50898438 11.99804688 28.78515625 C12.77245117 27.71587891 12.77245117 27.71587891 13.5625 26.625 C14.08263672 25.88894531 14.60277344 25.15289062 15.13867188 24.39453125 C16.41637875 22.58933072 17.70349908 20.79172542 19 19 C18.37996094 18.71898437 17.75992187 18.43796875 17.12109375 18.1484375 C14.30953799 16.62615869 12.966902 14.50332982 11 12 C9.34997172 10.64613064 7.6825613 9.31321858 6 8 C1.16483516 3.49450549 1.16483516 3.49450549 0 0 Z " fill="#8B97CA" transform="translate(446,116)"/>
<path d="M0 0 C1.2065625 0.0309375 1.2065625 0.0309375 2.4375 0.0625 C1.82471779 3.67142008 0.83521731 6.76635911 -0.62890625 10.1171875 C-1.2331543 11.53451172 -1.2331543 11.53451172 -1.84960938 12.98046875 C-2.69764553 14.9466659 -3.5517884 16.91024078 -4.41210938 18.87109375 C-7.5728212 26.20091431 -7.5728212 26.20091431 -7.5625 34.0625 C-6.32034617 36.59118288 -4.77038213 38.76641842 -3.0625 41 C-2.63324219 41.58845703 -2.20398438 42.17691406 -1.76171875 42.78320312 C-0.71002536 44.22051742 0.36174684 45.64310347 1.4375 47.0625 C-0.07626081 50.63014285 -2.16763129 52.89956287 -4.9140625 55.609375 C-5.76484375 56.45371094 -6.615625 57.29804688 -7.4921875 58.16796875 C-8.38164062 59.04066406 -9.27109375 59.91335938 -10.1875 60.8125 C-11.0846875 61.70066406 -11.981875 62.58882813 -12.90625 63.50390625 C-15.12057004 65.69466969 -17.33942435 67.88062763 -19.5625 70.0625 C-20.2225 69.4025 -20.8825 68.7425 -21.5625 68.0625 C-12.6525 59.1525 -12.6525 59.1525 -3.5625 50.0625 C-6.78822984 44.25618629 -9.56264157 39.49088941 -13.5234375 34.3984375 C-15.44815841 30.07143334 -14.08796267 26.51036849 -12.54833984 22.26806641 C-11.26794378 19.05215262 -9.92738342 15.86843664 -8.5625 12.6875 C-8.0984375 11.58277344 -7.634375 10.47804687 -7.15625 9.33984375 C-3.2377497 0.0789695 -3.2377497 0.0789695 0 0 Z " fill="#8C98CC" transform="translate(467.5625,234.9375)"/>
<path d="M0 0 C3.03978021 0.68164768 4.80055419 2.23591662 6.93359375 4.43359375 C8.34360039 7.25360702 8.17907826 9.3036663 7.93359375 12.43359375 C6.65670529 15.24274836 5.62259558 16.93466139 3.12109375 18.74609375 C0.16726451 19.67444008 -1.98218825 19.8112531 -5.06640625 19.43359375 C-7.76631287 17.63365601 -9.60829275 16.34982075 -11.06640625 13.43359375 C-11.75212054 6.46216518 -11.75212054 6.46216518 -9.06640625 2.43359375 C-5.71397384 0.19863881 -3.9372435 -0.24561254 0 0 Z " fill="#7DC2F7" transform="translate(356.06640625,450.56640625)"/>
<path d="M0 0 C3.03978021 0.68164768 4.80055419 2.23591662 6.93359375 4.43359375 C8.34360039 7.25360702 8.17907826 9.3036663 7.93359375 12.43359375 C6.65670529 15.24274836 5.62259558 16.93466139 3.12109375 18.74609375 C0.16726451 19.67444008 -1.98218825 19.8112531 -5.06640625 19.43359375 C-7.76631287 17.63365601 -9.60829275 16.34982075 -11.06640625 13.43359375 C-11.75212054 6.46216518 -11.75212054 6.46216518 -9.06640625 2.43359375 C-5.71397384 0.19863881 -3.9372435 -0.24561254 0 0 Z " fill="#F78245" transform="translate(193.06640625,383.56640625)"/>
<path d="M0 0 C3.15306544 2.88471945 4.74930027 4.79664128 5.625 9 C4.79902237 12.96469261 3.3604483 15.73905322 0 18 C-3.14252854 18.73810279 -5.85321863 18.70582012 -9 18 C-11.50160818 16.12379387 -12.61945652 14.76108697 -14 12 C-14.375 8.6875 -14.375 8.6875 -14 5 C-9.49518824 -0.45319318 -6.92558284 -1.7607414 0 0 Z " fill="#7DC2F7" transform="translate(33,288)"/>
<path d="M0 0 C10.23 0 20.46 0 31 0 C32.75 9.3125 32.75 9.3125 33.27246094 12.2355957 C33.42489258 12.99960693 33.57732422 13.76361816 33.734375 14.55078125 C33.88100586 15.33106689 34.02763672 16.11135254 34.17871094 16.9152832 C35.59969205 20.52222664 38.26828554 21.65343733 41.65722656 23.25854492 C42.64174805 23.66177979 43.62626953 24.06501465 44.640625 24.48046875 C45.71054687 24.92197266 46.78046875 25.36347656 47.8828125 25.81835938 C48.99398437 26.27017578 50.10515625 26.72199219 51.25 27.1875 C52.93996094 27.88262695 52.93996094 27.88262695 54.6640625 28.59179688 C57.44064301 29.73301853 60.21929594 30.86887152 63 32 C63 32.66 63 33.32 63 34 C56.61331454 35.98228186 51.18711058 32.71586588 45.3425293 30.27807617 C43.31797109 29.43976542 41.28081339 28.64017741 39.24023438 27.84179688 C37.94697559 27.31218806 36.65462305 26.78035973 35.36328125 26.24609375 C34.19063721 25.76841553 33.01799316 25.2907373 31.80981445 24.79858398 C29 23 29 23 27.6418457 19.95727539 C27.43003662 18.98137451 27.21822754 18.00547363 27 17 C26.79117187 16.154375 26.58234375 15.30875 26.3671875 14.4375 C26.12355469 13.2309375 26.12355469 13.2309375 25.875 12 C25.70742188 11.195625 25.53984375 10.39125 25.3671875 9.5625 C25 7 25 7 25 1 C16.75 1 8.5 1 0 1 C0 0.67 0 0.34 0 0 Z " fill="#8A96C7" transform="translate(359,91)"/>
<path d="M0 0 C-2.3376424 2.3376424 -4.27360398 3.0539361 -7.33984375 4.27734375 C-8.9340918 4.92413086 -8.9340918 4.92413086 -10.56054688 5.58398438 C-12.80713533 6.48443886 -15.05452959 7.38288557 -17.30273438 8.27929688 C-18.36685547 8.71177734 -19.43097656 9.14425781 -20.52734375 9.58984375 C-21.99288696 10.17560181 -21.99288696 10.17560181 -23.48803711 10.77319336 C-25.89872354 11.95053803 -27.31771437 12.93652872 -29 15 C-29.71672242 16.95844494 -29.71672242 16.95844494 -30.0625 19.125 C-30.21589844 19.91003906 -30.36929687 20.69507813 -30.52734375 21.50390625 C-30.68332031 22.32761719 -30.83929688 23.15132813 -31 24 C-31.36933426 25.68874908 -31.74407931 27.37632662 -32.125 29.0625 C-32.37636719 30.19365234 -32.37636719 30.19365234 -32.6328125 31.34765625 C-32.75398438 31.89292969 -32.87515625 32.43820312 -33 33 C-35.31 33 -37.62 33 -40 33 C-40.52681499 25.34314105 -40.33481663 17.56207903 -36 11 C-31.20692992 7.42562035 -26.11546562 5.15381643 -20.5625 3 C-19.84947723 2.71951813 -19.13645447 2.43903625 -18.40182495 2.15005493 C-5.28307992 -2.87289052 -5.28307992 -2.87289052 0 0 Z " fill="#8E99CD" transform="translate(423,296)"/>
<path d="M0 0 C1.485 0.99 1.485 0.99 3 2 C3.37752342 4.13021088 3.37752342 4.13021088 3.38095093 6.82067871 C3.3894104 7.83865036 3.39786987 8.85662201 3.40658569 9.90544128 C3.39747665 11.58710136 3.39747665 11.58710136 3.38818359 13.30273438 C3.39344055 14.47999588 3.39869751 15.65725739 3.40411377 16.87019348 C3.41507673 20.1037013 3.41247689 23.33684242 3.40297651 26.57034492 C3.39539504 29.95002148 3.4024213 33.32967309 3.40713501 36.70935059 C3.41259701 42.38554296 3.40538941 48.06161834 3.39111328 53.73779297 C3.3747858 60.30553676 3.380074 66.87300119 3.3965925 73.4407382 C3.41019482 79.07390854 3.41213321 84.70699465 3.40427649 90.34017611 C3.39959302 93.70715192 3.39899344 97.07399631 3.40888596 100.44096375 C3.41646958 104.19325898 3.40493896 107.94501105 3.38818359 111.69726562 C3.39425629 112.81837234 3.40032898 113.93947906 3.40658569 115.09455872 C3.39812622 116.11253036 3.38966675 117.13050201 3.38095093 118.17932129 C3.37981985 119.06717567 3.37868877 119.95503006 3.37752342 120.86978912 C3.25294069 121.57275871 3.12835796 122.2757283 3 123 C1.515 123.99 1.515 123.99 0 125 C0 83.75 0 42.5 0 0 Z " fill="#FBC62D" transform="translate(167,46)"/>
<path d="M0 0 C2.97 0.495 2.97 0.495 6 1 C6 11.23 6 21.46 6 32 C2.535 32.495 2.535 32.495 -1 33 C-0.67 22.11 -0.34 11.22 0 0 Z " fill="#8E9ACE" transform="translate(487,194)"/>
<path d="M0 0 C-2.63409268 1.75606179 -4.9087629 2.87181739 -7.81640625 4.05859375 C-8.74517578 4.44466797 -9.67394531 4.83074219 -10.63085938 5.22851562 C-12.58725386 6.03531655 -14.54560244 6.83739502 -16.50585938 7.63476562 C-17.43333984 8.02212891 -18.36082031 8.40949219 -19.31640625 8.80859375 C-20.16662354 9.15720459 -21.01684082 9.50581543 -21.89282227 9.86499023 C-24.30778643 10.95306441 -24.30778643 10.95306441 -26 14 C-26.60421492 16.38082853 -27.1390323 18.77975094 -27.625 21.1875 C-28.07875 23.435625 -28.5325 25.68375 -29 28 C-36.59 28 -44.18 28 -52 28 C-52 27.67 -52 27.34 -52 27 C-45.73 27 -39.46 27 -33 27 C-33 24.40125 -33 21.8025 -33 19.125 C-32.66842458 15.61339117 -31.94602769 12.96740475 -30 10 C-21.88550589 3.96157536 -10.13306375 -0.38112531 0 0 Z " fill="#156BC8" transform="translate(232,463)"/>
<path d="M0 0 C0.99 0.66 1.98 1.32 3 2 C1.58412029 6.11892279 -0.50012667 9.2762269 -3.07421875 12.7421875 C-5.68793627 19.11657031 -1.40637372 26.51476148 1.0625 32.4375 C1.43955078 33.35982422 1.81660156 34.28214844 2.20507812 35.23242188 C3.12969 37.4912838 4.06144864 39.7469027 5 42 C4.01 42.495 4.01 42.495 3 43 C-1.65055462 39.89963025 -2.70799855 35.19457459 -4.75 30.125 C-5.17410156 29.11824219 -5.59820312 28.11148437 -6.03515625 27.07421875 C-6.43089844 26.10355469 -6.82664062 25.13289063 -7.234375 24.1328125 C-7.59756836 23.24480957 -7.96076172 22.35680664 -8.33496094 21.44189453 C-9.06682438 18.75463383 -9.00066808 17.56578971 -8 15 C-6.00139168 11.85208626 -3.85979321 8.82701706 -1.71484375 5.77734375 C0.26268274 3.11857778 0.26268274 3.11857778 0 0 Z " fill="#1171DC" transform="translate(265,330)"/>
<path d="M0 0 C2.0625 0.4375 2.0625 0.4375 4 1 C3.59104492 1.90709717 3.59104492 1.90709717 3.17382812 2.83251953 C1.93767634 5.5916737 0.71874639 8.35811631 -0.5 11.125 C-0.92925781 12.07632812 -1.35851562 13.02765625 -1.80078125 14.0078125 C-4.91261706 20.7467811 -4.91261706 20.7467811 -5 28 C-3.47789885 30.9447778 -3.47789885 30.9447778 -1.4375 33.6875 C0.56640625 36.51171875 0.56640625 36.51171875 2 39 C1.67 39.99 1.34 40.98 1 42 C-1.7766173 38.60156819 -4.37670452 35.15112922 -6.8125 31.5 C-7.43769531 30.5821875 -8.06289063 29.664375 -8.70703125 28.71875 C-10.52515628 24.8957439 -9.52443528 22.50498151 -8.16796875 18.61230469 C-7.84441406 17.80696289 -7.52085937 17.00162109 -7.1875 16.171875 C-6.83429688 15.29015625 -6.48109375 14.4084375 -6.1171875 13.5 C-5.74851562 12.5925 -5.37984375 11.685 -5 10.75 C-4.63132812 9.82703125 -4.26265625 8.9040625 -3.8828125 7.953125 C-1.13585283 1.13585283 -1.13585283 1.13585283 0 0 Z " fill="#1375E2" transform="translate(266,414)"/>
<path d="M0 0 C1.32 0 2.64 0 4 0 C4.24234375 1.04800781 4.4846875 2.09601563 4.734375 3.17578125 C5.0721145 4.5548842 5.41070068 5.93377999 5.75 7.3125 C5.98589844 8.34793945 5.98589844 8.34793945 6.2265625 9.40429688 C7.31906806 13.75330938 8.24967324 15.62633368 12 18 C13.56456175 18.73440995 15.15595458 19.41354634 16.765625 20.04296875 C18.09980469 20.56987305 18.09980469 20.56987305 19.4609375 21.10742188 C20.38132813 21.46384766 21.30171875 21.82027344 22.25 22.1875 C23.65378906 22.73954102 23.65378906 22.73954102 25.0859375 23.30273438 C27.38853516 24.20732631 29.6931989 25.10619401 32 26 C32 26.33 32 26.66 32 27 C25.45087631 27.28057396 20.7110424 25.22600589 14.75 22.75 C13.74453125 22.35425781 12.7390625 21.95851563 11.703125 21.55078125 C10.7440625 21.15761719 9.785 20.76445312 8.796875 20.359375 C7.92385742 20.00327148 7.05083984 19.64716797 6.15136719 19.28027344 C3.62035491 17.77407412 2.98086686 16.7425426 2 14 C1.55916776 11.59447101 1.18939025 9.17529618 0.875 6.75 C0.70742187 5.48671875 0.53984375 4.2234375 0.3671875 2.921875 C0.24601563 1.95765625 0.12484375 0.9934375 0 0 Z " fill="#1374E1" transform="translate(199,296)"/>
<path d="M0 0 C1.98 0.495 1.98 0.495 4 1 C4 8.59 4 16.18 4 24 C2.35 24.33 0.7 24.66 -1 25 C-0.67 16.75 -0.34 8.5 0 0 Z " fill="#0F69CF" transform="translate(285,381)"/>
<path d="M0 0 C2.89993861 1.3119824 5.37717995 2.96184004 7.91894531 4.86816406 C7.91894531 5.52816406 7.91894531 6.18816406 7.91894531 6.86816406 C4.54431816 6.32092723 2.83659532 5.81326407 -0.08105469 3.86816406 C-3.83844352 4.13376603 -5.63442149 6.07047102 -8.19042969 8.68457031 C-9.32158203 9.83022461 -9.32158203 9.83022461 -10.47558594 10.99902344 C-11.25289063 11.80146484 -12.03019531 12.60390625 -12.83105469 13.43066406 C-13.62382812 14.23697266 -14.41660156 15.04328125 -15.23339844 15.87402344 C-17.18952515 17.86550184 -19.13831188 19.86364127 -21.08105469 21.86816406 C-21.08105469 17.10852656 -17.74425024 15.07303697 -14.52246094 11.80175781 C-13.63429688 10.91617188 -12.74613281 10.03058594 -11.83105469 9.11816406 C-10.95835937 8.21710938 -10.08566406 7.31605469 -9.18652344 6.38769531 C-7.92001953 5.11732422 -7.92001953 5.11732422 -6.62792969 3.82128906 C-5.85288086 3.03915039 -5.07783203 2.25701172 -4.27929688 1.45117188 C-2.08105469 -0.13183594 -2.08105469 -0.13183594 0 0 Z " fill="#A8B1D8" transform="translate(302.0810546875,116.1318359375)"/>
<path d="M0 0 C0.66 0 1.32 0 2 0 C0.06714886 5.40775838 -2.90613756 10.19014571 -5.81054688 15.1171875 C-7.89357477 18.73095112 -9.52969566 21.77551192 -10 26 C-11.125 24.3125 -11.125 24.3125 -12 22 C-10.53404477 17.27251125 -7.87470936 13.03147995 -5.4375 8.75 C-5.02564453 8.0178125 -4.61378906 7.285625 -4.18945312 6.53125 C-1.13862607 1.13862607 -1.13862607 1.13862607 0 0 Z " fill="#EAB92B" transform="translate(383,165)"/>
<path d="M0 0 C-3.94593239 2.6306216 -8.13888754 4.29112953 -12.5 6.125 C-13.36753906 6.49753906 -14.23507813 6.87007813 -15.12890625 7.25390625 C-15.96292969 7.60582031 -16.79695312 7.95773437 -17.65625 8.3203125 C-18.41744141 8.64273926 -19.17863281 8.96516602 -19.96289062 9.29736328 C-22 10 -22 10 -25 10 C-25 9.34 -25 8.68 -25 8 C-21.9659854 6.64875394 -18.92171619 5.32232844 -15.875 4 C-15.0190625 3.6184375 -14.163125 3.236875 -13.28125 2.84375 C-8.69229941 0.86697128 -5.10470965 -0.53557609 0 0 Z " fill="#1475DF" transform="translate(232,463)"/>
<path d="M0 0 C0.99 0.66 1.98 1.32 3 2 C1.63312778 5.98671063 -0.15195093 8.88494633 -3 12 C-3.66 12 -4.32 12 -5 12 C-3.97977128 9.25323037 -2.89494656 6.82625778 -1.375 4.3125 C0.17035846 2.16188894 0.17035846 2.16188894 0 0 Z M-6 12 C-6 15 -6 15 -6 15 Z " fill="#1577E3" transform="translate(265,330)"/>
<path d="M0 0 C1.32 0.66 2.64 1.32 4 2 C-0.95 4.97 -0.95 4.97 -6 8 C-6.66 7.01 -7.32 6.02 -8 5 C-6.7636832 4.10577086 -5.51028438 3.23512109 -4.25 2.375 C-3.55390625 1.88773437 -2.8578125 1.40046875 -2.140625 0.8984375 C-1.43421875 0.60195313 -0.7278125 0.30546875 0 0 Z " fill="#8A96C8" transform="translate(307,297)"/>
<path d="M0 0 C3.99881788 0.61520275 6.80358226 2.60268669 10 5 C10 5.66 10 6.32 10 7 C5.48521602 6.46884894 2.65333143 4.63379708 -1 2 C-0.67 1.34 -0.34 0.68 0 0 Z " fill="#8C97C9" transform="translate(300,116)"/>
<path d="M0 0 C-4.13378595 2.7558573 -6.05203546 3.10756445 -11 3 C-6.86621405 0.2441427 -4.94796454 -0.10756445 0 0 Z " fill="#1E7DE1" transform="translate(232,463)"/>
</svg>
