<?xml version="1.0" encoding="UTF-8"?>
<svg version="1.1" xmlns="http://www.w3.org/2000/svg" width="512" height="512">
<path d="M0 0 C142.56 0 285.12 0 432 0 C432 21.12 432 42.24 432 64 C426.72 64 421.44 64 416 64 C416 79.84 416 95.68 416 112 C422.6825 111.93039063 422.6825 111.93039063 429.5 111.859375 C433.06864475 111.83362249 436.63726298 111.81194152 440.20594788 111.79299927 C443.96415072 111.77194067 447.72198838 111.74383468 451.47998047 111.69824219 C455.10452862 111.6545475 458.72872427 111.63081364 462.35351562 111.62049103 C463.73133894 111.61314168 465.10914455 111.59879054 466.48681641 111.57707977 C475.61538399 111.43903914 482.14473865 111.74530233 489.2421875 117.96484375 C490.05042969 118.94130859 490.05042969 118.94130859 490.875 119.9375 C491.42929687 120.58589844 491.98359375 121.23429687 492.5546875 121.90234375 C495.9784189 126.87138094 496.29080788 131.46795391 496.26742554 137.36799622 C496.27195665 138.2078356 496.27648776 139.04767498 496.28115618 139.91296405 C496.29381104 142.72564207 496.29217911 145.53812674 496.29052734 148.35083008 C496.29651193 150.36812082 496.30331731 152.38540927 496.31088257 154.4026947 C496.32855726 159.8821121 496.33323858 165.36146705 496.33451414 170.8409102 C496.33641341 175.41590303 496.34377129 179.99088132 496.35085833 184.56586856 C496.36714562 195.36073302 496.37202699 206.15556412 496.37060547 216.95043945 C496.36940405 228.08342728 496.39050518 239.21622124 496.4220928 250.34916002 C496.44825091 259.90940094 496.45897295 269.46957852 496.45769465 279.02985495 C496.45718486 284.73884786 496.46287729 290.44766851 496.48405075 296.15662575 C496.50342506 301.52716146 496.50356294 306.89736046 496.48901749 312.2679081 C496.48692728 314.2367146 496.4916429 316.20554213 496.5037384 318.17431259 C496.51920695 320.86695372 496.50987228 323.55843614 496.49447632 326.25105286 C496.50476344 327.02587488 496.51505057 327.80069689 496.52564943 328.59899837 C496.44315408 335.15034526 494.36332685 340.30308228 490.03515625 345.2421875 C489.38417969 345.78101563 488.73320312 346.31984375 488.0625 346.875 C487.41410156 347.42929687 486.76570313 347.98359375 486.09765625 348.5546875 C466.83356157 361.82789985 439.39409135 352 416 352 C416 399.52 416 447.04 416 496 C284 496 152 496 16 496 C16 353.44 16 210.88 16 64 C10.72 64 5.44 64 0 64 C0 42.88 0 21.76 0 0 Z " fill="#000000" transform="translate(8,8)"/>
<path d="M0 0 C21.12 0 42.24 0 64 0 C64 137.28 64 274.56 64 416 C42.88 416 21.76 416 0 416 C0 278.72 0 141.44 0 0 Z " fill="#CCD1D9" transform="translate(40,72)"/>
<path d="M0 0 C1.77127007 0.00056648 1.77127007 0.00056648 3.57832336 0.00114441 C4.84306992 0.02695084 6.10781647 0.05275726 7.41088867 0.0793457 C9.36462654 0.08995781 9.36462654 0.08995781 11.35783386 0.1007843 C14.80899626 0.11981182 18.25909481 0.16887257 21.70983887 0.2243042 C25.23569346 0.27559046 28.76172116 0.29831813 32.2878418 0.32348633 C39.19778211 0.37699798 46.10701859 0.46225723 53.01635742 0.56762695 C53.02182587 1.68396767 53.02182587 1.68396767 53.02740479 2.82286072 C53.06542191 9.86936078 53.12242852 16.91539955 53.20026016 23.96155453 C53.23960939 27.58327364 53.27185862 31.2047542 53.28735352 34.82666016 C53.30260397 38.32829998 53.33719463 41.82928342 53.38466644 45.33062935 C53.40651559 47.30283208 53.40882392 49.27522047 53.41070557 51.24754333 C53.54583101 59.61182873 54.4854436 66.36282103 59.98120117 72.9074707 C60.63217773 73.43469727 61.2831543 73.96192383 61.95385742 74.50512695 C62.60225586 75.05040039 63.2506543 75.59567383 63.91870117 76.1574707 C70.89549221 80.84764121 75.95950554 79.92070896 85.01635742 80.56762695 C85.01635742 122.80762695 85.01635742 165.04762695 85.01635742 208.56762695 C52.34635742 208.56762695 19.67635742 208.56762695 -13.98364258 208.56762695 C-13.32364258 206.58762695 -12.66364258 204.60762695 -11.98364258 202.56762695 C-11.80387105 199.80956046 -11.71906343 197.15608495 -11.73881531 194.40086365 C-11.73655073 193.59480511 -11.73428616 192.78874658 -11.73195297 191.95826203 C-11.72666955 189.26603899 -11.73547788 186.57404743 -11.74414062 183.88183594 C-11.74302742 181.94820075 -11.74096909 180.0145659 -11.73803711 178.08093262 C-11.73331867 173.92142796 -11.73443101 169.76197978 -11.73981285 165.60247612 C-11.74742194 159.02661441 -11.7367686 152.45086155 -11.72261047 145.87501526 C-11.68486647 127.17757739 -11.66669665 108.48018911 -11.67822266 89.78271484 C-11.68443353 79.45291674 -11.67288876 69.12329441 -11.64177734 58.79353958 C-11.62309601 52.25497868 -11.62646679 45.71691463 -11.64594495 39.17836177 C-11.65281629 35.11363036 -11.63889048 31.04916973 -11.61899567 26.98448944 C-11.61393965 25.09828308 -11.61745576 23.21203154 -11.63012886 21.32586098 C-11.64619257 18.75237265 -11.63163474 16.18080772 -11.60942078 13.60740662 C-11.62145827 12.85954673 -11.63349577 12.11168684 -11.64589804 11.34116453 C-11.57669238 7.41466937 -11.0998415 5.71351438 -8.62210274 2.60272026 C-5.46192451 0.16521612 -3.95124486 -0.04230455 0 0 Z " fill="#CBD0D8" transform="translate(322.983642578125,279.432373046875)"/>
<path d="M0 0 C52.8 0 105.6 0 160 0 C160 27.06 160 54.12 160 82 C156.37 81.67 152.74 81.34 149 81 C134.44388483 80.10740803 122.94524556 83.76620637 111.8125 93.1875 C104.64515067 99.89854292 100.54604757 107.58511906 98 117 C97.81566406 117.62132812 97.63132812 118.24265625 97.44140625 118.8828125 C94.80250356 131.54020417 98.14159779 144.33371191 105 155 C105.59941406 155.93392578 105.59941406 155.93392578 106.2109375 156.88671875 C107.12088107 158.2709946 108.05706507 159.63798288 109 161 C107.783125 161.350625 106.56625 161.70125 105.3125 162.0625 C95.14027115 165.46931282 84.0912299 170.86315515 78 180 C76.53984709 179.71758359 75.08190207 179.42373386 73.625 179.125 C72.40683594 178.88136719 72.40683594 178.88136719 71.1640625 178.6328125 C69 178 69 178 67 176 C67.38671875 175.52691406 67.7734375 175.05382812 68.171875 174.56640625 C77.10492552 163.22320102 80.08150623 151.35141596 79 137 C77.02345365 124.70887141 70.89690499 113.62736799 61 106 C47.7886362 98.08528835 34.75607032 94.38579744 19.3125 98.125 C12.32166884 100.28956846 6.06234124 103.95843917 0 108 C0 72.36 0 36.72 0 0 Z " fill="#E5E8EC" transform="translate(120,72)"/>
<path d="M0 0 C0.82175217 -0.00554901 1.64350433 -0.01109802 2.49015808 -0.01681519 C5.19911515 -0.02859978 7.90639499 -0.00434938 10.61523438 0.02148438 C12.50183028 0.02319588 14.38842856 0.02312939 16.27502441 0.0213623 C20.22606199 0.02301487 24.17653173 0.04170121 28.12744141 0.07324219 C33.1883391 0.11291954 38.24849319 0.11728702 43.30951691 0.10977936 C47.20435379 0.10670774 51.09902394 0.11883701 54.99382019 0.13591003 C56.85970514 0.14293428 58.72560898 0.14606527 60.59150696 0.1452179 C63.20067401 0.14701848 65.80895517 0.16842221 68.41796875 0.1953125 C69.18694992 0.1923819 69.95593109 0.18945129 70.74821472 0.18643188 C75.22812538 0.25756011 78.15074365 0.83251037 81.70898438 3.61523438 C83.24754307 6.69235176 82.85329002 9.92417218 82.84942627 13.30097961 C82.85239739 14.10362045 82.85536851 14.90626129 82.85842967 15.73322457 C82.86714001 18.43780139 82.86862688 21.14233407 82.87011719 23.84692383 C82.87474372 25.77996923 82.87976815 27.71301372 82.88516235 29.64605713 C82.89830444 34.90850293 82.90473485 40.17093597 82.90917301 45.43339562 C82.91210088 48.71898271 82.91620514 52.00456628 82.92067719 55.2901516 C82.934357 65.56361701 82.94402123 75.83707442 82.94787908 86.11054832 C82.9523609 97.98152488 82.96991256 109.85238637 82.99887967 121.72332793 C83.02047626 130.89110117 83.03058228 140.05884199 83.03192019 149.2266404 C83.03296969 154.70584448 83.03890821 160.18494045 83.05673981 165.66411781 C83.07318547 170.81786897 83.07539305 175.97143036 83.0666008 181.12519836 C83.06582854 183.01785985 83.07019795 184.91053139 83.08005905 186.80316734 C83.09272401 189.38518523 83.08693162 191.96652545 83.07647705 194.54853821 C83.08856166 195.67442076 83.08856166 195.67442076 83.1008904 196.82304841 C83.05900402 201.24029599 82.51460251 204.14585489 79.70898438 207.61523438 C75.98138797 208.85776651 72.51219557 208.77078604 68.62915039 208.77636719 C67.80608398 208.78133209 66.98301758 208.786297 66.13500977 208.79141235 C63.41096157 208.80602344 60.68697157 208.81283351 57.96289062 208.81835938 C56.07103982 208.82411081 54.17918903 208.82986855 52.28733826 208.83563232 C48.32038094 208.8461387 44.35344388 208.85198404 40.38647461 208.85546875 C35.30084772 208.86095881 30.21548785 208.88499928 25.1299448 208.9134407 C21.22233799 208.93205228 17.31479576 208.93727185 13.40714836 208.93880463 C11.53203811 208.94183403 9.65692907 208.9498722 7.78186226 208.96298981 C5.16043802 208.98002266 2.53966984 208.97817716 -0.08178711 208.97167969 C-0.85750565 208.98089447 -1.63322418 208.99010925 -2.43244934 208.99960327 C-5.62252211 208.9748031 -7.91360191 208.82080372 -10.74159241 207.28045654 C-13.64148873 204.16383121 -13.41331441 200.99497632 -13.40454102 196.95043945 C-13.40446548 195.78946243 -13.40438995 194.62848541 -13.40431213 193.43232727 C-13.39915085 192.17913193 -13.39398956 190.92593658 -13.38867188 189.63476562 C-13.38725693 188.35163986 -13.38584198 187.0685141 -13.38438416 185.74650574 C-13.38056968 182.33853197 -13.37074853 178.93060095 -13.35968018 175.52264404 C-13.34944306 172.04374774 -13.34488161 168.56484453 -13.33984375 165.0859375 C-13.3291253 158.26235225 -13.31206171 151.43879537 -13.29101562 144.61523438 C3.18320569 142.2423516 3.18320569 142.2423516 8.52124023 145.8348999 C12.33395915 149.85324334 14.59804697 154.85040518 16.95898438 159.80273438 C17.70826195 161.23817368 18.46474648 162.6698749 19.22851562 164.09765625 C20.71816289 166.89847083 22.16655025 169.71525088 23.58984375 172.55029297 C26.17487127 177.62010056 29.19038944 182.38446602 32.26660156 187.16723633 C33.70898438 189.61523438 33.70898438 189.61523438 33.70898438 191.61523438 C34.36898437 191.61523438 35.02898437 191.61523438 35.70898438 191.61523438 C35.9705835 190.91084229 36.23218262 190.2064502 36.50170898 189.48071289 C37.79670846 186.40702051 39.33620374 183.6435753 41.02539062 180.76757812 C41.35418213 180.20621155 41.68297363 179.64484497 42.02172852 179.06646729 C43.10124968 177.22633434 44.18613554 175.38943514 45.27148438 173.55273438 C46.02472783 172.27258328 46.77790064 170.99239062 47.53100586 169.7121582 C55.45643648 156.26483156 63.57796696 142.93917047 71.70898438 129.61523438 C59.16898437 129.28523437 46.62898438 128.95523438 33.70898438 128.61523438 C33.70898438 123.99523437 33.70898438 119.37523437 33.70898438 114.61523438 C31.47662128 108.01116022 27.65134692 103.3608462 21.70898438 99.61523438 C14.77563601 96.95602015 7.61859529 97.16825624 0.27148438 96.99023438 C-1.03240234 96.9515625 -2.33628906 96.91289062 -3.6796875 96.87304688 C-6.88332562 96.77916737 -10.08696394 96.69348283 -13.29101562 96.61523438 C-13.40685493 84.83676738 -13.49570359 73.05843584 -13.55007648 61.27951527 C-13.5761726 55.81008093 -13.61157151 50.34103624 -13.66821289 44.87182617 C-13.72253126 39.59390622 -13.75243605 34.3163611 -13.76540184 29.03818321 C-13.77464197 27.02429999 -13.79268593 25.01043733 -13.81966591 22.99671364 C-13.85595375 20.17615014 -13.86096107 17.35713625 -13.85864258 14.53637695 C-13.87661896 13.70343613 -13.89459534 12.8704953 -13.91311646 12.01231384 C-13.8769795 7.95051962 -13.58455043 6.05454521 -11.27372742 2.59611511 C-7.47842157 0.07557382 -4.40875536 -0.07604139 0 0 Z " fill="#959EA9" transform="translate(405.291015625,135.384765625)"/>
<path d="M0 0 C36.96 0 73.92 0 112 0 C112 15.84 112 31.68 112 48 C107.38 48.33 102.76 48.66 98 49 C90.74099009 51.5559894 85.52053962 56.15786913 81.92959595 63.05632019 C80.64252236 67.13199687 80.69181721 70.94580165 80.68115234 75.1965332 C80.67110672 76.11409897 80.6610611 77.03166473 80.65071106 77.97703552 C80.61988802 81.00161122 80.60284626 84.02609843 80.5859375 87.05078125 C80.56722516 89.15114605 80.5476517 91.25150333 80.5272522 93.35185242 C80.47593207 98.87390718 80.4363056 104.39598631 80.39910889 109.91815186 C80.35202594 116.54707291 80.29042854 123.17587303 80.23126221 129.80469513 C80.14305141 139.86974794 80.07328577 149.93477759 80 160 C54.92 160 29.84 160 4 160 C6.64 155.38 9.28 150.76 12 146 C16.47677833 131.1706718 16.34269725 118.08473351 9.1875 104.1875 C7.42847067 100.93058575 5.73129154 98.75711818 2.93051147 96.41329956 C-0.28803921 93.21360729 -0.69998374 90.8047986 -0.74657249 86.356493 C-0.72498384 85.50682394 -0.7033952 84.65715488 -0.68115234 83.78173828 C-0.68187555 82.8591818 -0.68259876 81.93662533 -0.68334389 80.98611259 C-0.67888157 78.01328191 -0.6332752 75.04273678 -0.5859375 72.0703125 C-0.57711058 70.22974737 -0.57099272 68.3891672 -0.56762695 66.54858398 C-0.5362298 59.74049226 -0.45246176 52.93272343 -0.375 46.125 C-0.25125 30.90375 -0.1275 15.6825 0 0 Z " fill="#CBD0D8" transform="translate(296,72)"/>
<path d="M0 0 C132 0 264 0 400 0 C400 10.56 400 21.12 400 32 C268 32 136 32 0 32 C0 21.44 0 10.88 0 0 Z " fill="#FF826E" transform="translate(24,24)"/>
<path d="M0 0 C1.14170919 -0.00573832 1.14170919 -0.00573832 2.30648321 -0.01159257 C4.84668142 -0.02187833 7.38665172 -0.01793892 9.92686462 -0.01396179 C11.75212818 -0.01831062 13.57738991 -0.02349435 15.40264893 -0.02944946 C20.3529053 -0.04282989 25.30308529 -0.04341936 30.25335622 -0.04088616 C34.38629312 -0.03981616 38.51921459 -0.04470041 42.65214819 -0.04949158 C52.40030761 -0.06058271 62.1484285 -0.06102589 71.89659119 -0.05497742 C81.9554747 -0.04893223 92.01421853 -0.06126338 102.07307822 -0.08254749 C110.71015759 -0.10015161 119.34719245 -0.10616686 127.98428911 -0.10290974 C133.14261102 -0.1010954 138.3008332 -0.10374846 143.45913887 -0.11762428 C148.30763071 -0.13017923 153.15590422 -0.12828067 158.00439262 -0.11521339 C159.78417407 -0.11284325 161.56397078 -0.11559792 163.34373474 -0.12383652 C165.7722986 -0.13426848 168.20012499 -0.12623241 170.62866211 -0.11352539 C171.6862513 -0.12458682 171.6862513 -0.12458682 172.76520592 -0.13587171 C177.08526695 -0.08828031 179.81037959 0.61928819 183.25083923 3.26069641 C184.6554166 6.06985115 184.49979081 8.14880175 184.25083923 11.26069641 C182.47099519 14.39661211 181.72775716 15.10172377 178.25083923 16.26069641 C176.83473262 16.35229553 175.41473054 16.38963133 173.9956665 16.39199829 C172.6942144 16.39801056 172.6942144 16.39801056 171.36647034 16.40414429 C169.94278641 16.40335121 169.94278641 16.40335121 168.49034119 16.40254211 C167.48838211 16.40601654 166.48642303 16.40949097 165.45410156 16.41307068 C163.27533843 16.42042869 161.09656779 16.42577383 158.91779518 16.42936134 C155.46658877 16.43652443 152.01552473 16.45219072 148.56436157 16.47070312 C138.75064567 16.5231746 128.93700681 16.57113547 119.12315369 16.58662415 C113.12192661 16.59671705 107.12105632 16.62607723 101.11997032 16.66794395 C98.83512765 16.68024204 96.55023455 16.6853774 94.26535988 16.68314552 C91.06262411 16.6807873 87.86090774 16.70300061 84.65830994 16.73066711 C83.71930847 16.7240657 82.78030701 16.71746429 81.81285095 16.71066284 C74.70632771 16.81114855 69.39853001 18.50235414 64.00865173 23.22554016 C63.46982361 23.87651672 62.93099548 24.52749329 62.37583923 25.19819641 C61.82154236 25.84659485 61.26724548 26.49499329 60.69615173 27.16304016 C57.53179537 31.75563305 56.99170953 35.73019356 56.93199158 41.25410461 C56.92194595 41.93758469 56.91190033 42.62106476 56.90155029 43.32525635 C56.87081018 45.57065538 56.8537091 47.81593567 56.83677673 50.06147766 C56.81805766 51.6237591 56.7984837 53.18603052 56.77809143 54.74829102 C56.72684215 58.84992042 56.68717803 62.95158257 56.64994812 67.05335999 C56.60280913 71.98027933 56.54124226 76.90703707 56.48210144 81.83382416 C56.39397697 89.30938275 56.32415015 96.78491175 56.25083923 104.26069641 C35.13083923 104.26069641 14.01083923 104.26069641 -7.74916077 104.26069641 C-7.74916077 83.14069641 -7.74916077 62.02069641 -7.74916077 40.26069641 C-13.02916077 40.26069641 -18.30916077 40.26069641 -23.74916077 40.26069641 C-23.74916077 66.66069641 -23.74916077 93.06069641 -23.74916077 120.26069641 C-31.68188248 119.12745045 -31.68188248 119.12745045 -34.56166077 116.51069641 C-35.12498108 116.02085266 -35.68830139 115.53100891 -36.26869202 115.02632141 C-39.86086709 110.74224982 -40.01124776 106.3325952 -40.05555725 100.90693665 C-40.06388077 100.18421066 -40.07220428 99.46148468 -40.08078003 98.71685791 C-40.10481425 96.33427989 -40.11364676 93.95197646 -40.12025452 91.56929016 C-40.12923036 89.90124434 -40.13835237 88.23319929 -40.14761353 86.56515503 C-40.16409142 83.06740876 -40.17180065 79.56975801 -40.17469788 76.07197571 C-40.18006088 71.61916616 -40.2176588 67.16727277 -40.26344204 62.71472073 C-40.29339606 59.26656948 -40.30042548 55.81863319 -40.30142403 52.37036324 C-40.30559502 50.73070674 -40.31790192 49.09104772 -40.33894157 47.45152092 C-40.49865588 33.92164857 -38.1620989 22.55032976 -28.74916077 12.26069641 C-20.8754104 4.27552505 -11.25336396 -0.06051276 0 0 Z " fill="#FBD66F" transform="translate(239.74916076660156,247.7393035888672)"/>
<path d="M0 0 C9.735 -0.04125 19.47 -0.0825 29.5 -0.125 C34.08938477 -0.15231201 34.08938477 -0.15231201 38.77148438 -0.18017578 C41.2122378 -0.18602019 43.65299318 -0.19111588 46.09375 -0.1953125 C47.34833008 -0.20554443 48.60291016 -0.21577637 49.89550781 -0.22631836 C56.29467986 -0.22758904 61.88368581 0.07028952 68 2 C67.78937424 2.7384465 67.57874847 3.47689301 67.36174011 4.23771667 C64.90205783 13.67880945 64.526904 22.53572906 64.48828125 32.23828125 C64.47139291 33.85639266 64.45323726 35.47449128 64.43388367 37.09257507 C64.38682773 41.30589803 64.35673354 45.51916916 64.33044434 49.73266602 C64.29511106 54.81248537 64.2382277 59.89210572 64.18505096 64.97176361 C64.10705917 72.64781531 64.05606022 80.32361598 64 88 C42.88 88 21.76 88 0 88 C0 58.96 0 29.92 0 0 Z " fill="#B3DC7E" transform="translate(120,264)"/>
<path d="M0 0 C7.33590199 4.77843157 11.62856456 11.65837182 14 20 C15.32339593 30.72647224 12.87791124 40.16037827 6.4375 48.875 C1.39325043 54.26257545 -7.47221888 58.61745894 -14.8203125 59.23828125 C-22.21377368 59.40432825 -27.64458785 58.86641044 -34 55 C-35.04800781 54.38125 -35.04800781 54.38125 -36.1171875 53.75 C-43.49878749 48.8475034 -47.64893302 41.43178111 -50 33 C-50.88055277 24.83952844 -50.30216839 18.0496591 -46 11 C-45.57589844 10.30132812 -45.15179688 9.60265625 -44.71484375 8.8828125 C-34.17648681 -6.6752075 -15.80622083 -8.79670733 0 0 Z " fill="#EDCDB2" transform="translate(170,189)"/>
<path d="M0 0 C7.33590199 4.77843157 11.62856456 11.65837182 14 20 C15.32339593 30.72647224 12.87791124 40.16037827 6.4375 48.875 C1.39325043 54.26257545 -7.47221888 58.61745894 -14.8203125 59.23828125 C-22.21377368 59.40432825 -27.64458785 58.86641044 -34 55 C-35.04800781 54.38125 -35.04800781 54.38125 -36.1171875 53.75 C-43.49878749 48.8475034 -47.64893302 41.43178111 -50 33 C-50.88055277 24.83952844 -50.30216839 18.0496591 -46 11 C-45.57589844 10.30132812 -45.15179688 9.60265625 -44.71484375 8.8828125 C-34.17648681 -6.6752075 -15.80622083 -8.79670733 0 0 Z " fill="#EDCDB2" transform="translate(282,173)"/>
<path d="M0 0 C7.92 0 15.84 0 24 0 C24.06774329 14.38624336 24.12279753 28.77238099 24.15543652 43.15874767 C24.1711006 49.83872822 24.19235269 56.51857182 24.22631836 63.19848633 C24.25888485 69.64347271 24.27684743 76.08834872 24.28463173 82.53341103 C24.29018007 84.99382579 24.30101443 87.45423443 24.31719017 89.91460228 C24.33892792 93.35750824 24.34196839 96.79995651 24.34057617 100.24291992 C24.351362 101.26287552 24.36214783 102.28283112 24.3732605 103.33369446 C24.346142 109.52048573 23.59831194 112.96863607 19.5 117.75 C17.10492849 119.74589293 14.79495678 120.02760197 11.75 120.4375 C6.8156636 119.86182742 4.20196814 117.71753928 1 114 C0.04745299 111.14235896 -0.12360206 109.38781871 -0.12025452 106.42524719 C-0.12162918 105.4871521 -0.12300385 104.54905701 -0.12442017 103.58253479 C-0.12082489 102.55538864 -0.11722961 101.52824249 -0.11352539 100.4699707 C-0.11367142 99.38688629 -0.11381744 98.30380188 -0.1139679 97.18789673 C-0.11327007 93.60050467 -0.10548372 90.01316426 -0.09765625 86.42578125 C-0.09579161 83.9414218 -0.09436792 81.45706198 -0.09336853 78.97270203 C-0.0899378 73.09728397 -0.0820527 67.22188504 -0.07201904 61.34647483 C-0.05974734 54.00116851 -0.05437462 46.6558611 -0.04882812 39.31054688 C-0.03809721 26.20701996 -0.02050332 13.10351528 0 0 Z " fill="#CE9D75" transform="translate(272,368)"/>
<path d="M0 0 C7.92 0 15.84 0 24 0 C24.06774329 14.38624336 24.12279753 28.77238099 24.15543652 43.15874767 C24.1711006 49.83872822 24.19235269 56.51857182 24.22631836 63.19848633 C24.25888485 69.64347271 24.27684743 76.08834872 24.28463173 82.53341103 C24.29018007 84.99382579 24.30101443 87.45423443 24.31719017 89.91460228 C24.33892792 93.35750824 24.34196839 96.79995651 24.34057617 100.24291992 C24.351362 101.26287552 24.36214783 102.28283112 24.3732605 103.33369446 C24.346142 109.52048573 23.59831194 112.96863607 19.5 117.75 C17.10492849 119.74589293 14.79495678 120.02760197 11.75 120.4375 C6.8156636 119.86182742 4.20196814 117.71753928 1 114 C0.04745299 111.14235896 -0.12360206 109.38781871 -0.12025452 106.42524719 C-0.12162918 105.4871521 -0.12300385 104.54905701 -0.12442017 103.58253479 C-0.12082489 102.55538864 -0.11722961 101.52824249 -0.11352539 100.4699707 C-0.11367142 99.38688629 -0.11381744 98.30380188 -0.1139679 97.18789673 C-0.11327007 93.60050467 -0.10548372 90.01316426 -0.09765625 86.42578125 C-0.09579161 83.9414218 -0.09436792 81.45706198 -0.09336853 78.97270203 C-0.0899378 73.09728397 -0.0820527 67.22188504 -0.07201904 61.34647483 C-0.05974734 54.00116851 -0.05437462 46.6558611 -0.04882812 39.31054688 C-0.03809721 26.20701996 -0.02050332 13.10351528 0 0 Z " fill="#CE9D75" transform="translate(232,368)"/>
<path d="M0 0 C7.92 0 15.84 0 24 0 C24.06774329 14.38624336 24.12279753 28.77238099 24.15543652 43.15874767 C24.1711006 49.83872822 24.19235269 56.51857182 24.22631836 63.19848633 C24.25888485 69.64347271 24.27684743 76.08834872 24.28463173 82.53341103 C24.29018007 84.99382579 24.30101443 87.45423443 24.31719017 89.91460228 C24.33892792 93.35750824 24.34196839 96.79995651 24.34057617 100.24291992 C24.351362 101.26287552 24.36214783 102.28283112 24.3732605 103.33369446 C24.346142 109.52048573 23.59831194 112.96863607 19.5 117.75 C17.10492849 119.74589293 14.79495678 120.02760197 11.75 120.4375 C6.8156636 119.86182742 4.20196814 117.71753928 1 114 C0.04745299 111.14235896 -0.12360206 109.38781871 -0.12025452 106.42524719 C-0.12162918 105.4871521 -0.12300385 104.54905701 -0.12442017 103.58253479 C-0.12082489 102.55538864 -0.11722961 101.52824249 -0.11352539 100.4699707 C-0.11367142 99.38688629 -0.11381744 98.30380188 -0.1139679 97.18789673 C-0.11327007 93.60050467 -0.10548372 90.01316426 -0.09765625 86.42578125 C-0.09579161 83.9414218 -0.09436792 81.45706198 -0.09336853 78.97270203 C-0.0899378 73.09728397 -0.0820527 67.22188504 -0.07201904 61.34647483 C-0.05974734 54.00116851 -0.05437462 46.6558611 -0.04882812 39.31054688 C-0.03809721 26.20701996 -0.02050332 13.10351528 0 0 Z " fill="#CE9D75" transform="translate(160,368)"/>
<path d="M0 0 C7.92 0 15.84 0 24 0 C24.06774329 14.38624336 24.12279753 28.77238099 24.15543652 43.15874767 C24.1711006 49.83872822 24.19235269 56.51857182 24.22631836 63.19848633 C24.25888485 69.64347271 24.27684743 76.08834872 24.28463173 82.53341103 C24.29018007 84.99382579 24.30101443 87.45423443 24.31719017 89.91460228 C24.33892792 93.35750824 24.34196839 96.79995651 24.34057617 100.24291992 C24.351362 101.26287552 24.36214783 102.28283112 24.3732605 103.33369446 C24.346142 109.52048573 23.59831194 112.96863607 19.5 117.75 C17.10492849 119.74589293 14.79495678 120.02760197 11.75 120.4375 C6.8156636 119.86182742 4.20196814 117.71753928 1 114 C0.04745299 111.14235896 -0.12360206 109.38781871 -0.12025452 106.42524719 C-0.12162918 105.4871521 -0.12300385 104.54905701 -0.12442017 103.58253479 C-0.12082489 102.55538864 -0.11722961 101.52824249 -0.11352539 100.4699707 C-0.11367142 99.38688629 -0.11381744 98.30380188 -0.1139679 97.18789673 C-0.11327007 93.60050467 -0.10548372 90.01316426 -0.09765625 86.42578125 C-0.09579161 83.9414218 -0.09436792 81.45706198 -0.09336853 78.97270203 C-0.0899378 73.09728397 -0.0820527 67.22188504 -0.07201904 61.34647483 C-0.05974734 54.00116851 -0.05437462 46.6558611 -0.04882812 39.31054688 C-0.03809721 26.20701996 -0.02050332 13.10351528 0 0 Z " fill="#CE9D75" transform="translate(120,368)"/>
<path d="M0 0 C0.66 0 1.32 0 2 0 C3.51782227 2.21777344 3.51782227 2.21777344 5.31640625 5.359375 C5.6450618 5.9275444 5.97371735 6.49571381 6.31233215 7.08110046 C7.02695001 8.31786332 7.73826972 9.55653627 8.44671631 10.79684448 C10.33880867 14.10891174 12.25420168 17.40745592 14.16796875 20.70703125 C14.56276428 21.38899063 14.95755981 22.07095001 15.36431885 22.77357483 C19.94608179 30.66786924 24.70244173 38.45512022 29.47756958 46.23352051 C30.51541244 47.92415679 31.55072296 49.61634681 32.5859375 51.30859375 C33.1742334 52.26564209 33.7625293 53.22269043 34.36865234 54.20874023 C36.03994945 57.0683541 37.51874206 60.03748411 39 63 C13.92 63 -11.16 63 -37 63 C-30.10391836 50.35718365 -30.10391836 50.35718365 -26.6796875 44.62890625 C-26.10789513 43.66669411 -26.10789513 43.66669411 -25.52455139 42.68504333 C-24.31022009 40.64288444 -23.09291828 38.60252139 -21.875 36.5625 C-21.03062767 35.14651578 -20.18630845 33.73049989 -19.34204102 32.31445312 C-18.08030016 30.19846873 -16.81829162 28.08264724 -15.55525208 25.96743774 C-13.07357502 21.80954212 -10.6096049 17.64184669 -8.16015625 13.46484375 C-7.60666504 12.52632568 -7.05317383 11.58780762 -6.48291016 10.62084961 C-5.47568859 8.91271004 -4.47378752 7.20141854 -3.47802734 5.48657227 C-2.37393091 3.62384162 -1.19561314 1.80535415 0 0 Z " fill="#010101" transform="translate(439,153)"/>
<path d="M0 0 C7.92 1.98 7.92 1.98 16 4 C16.00808685 5.2144278 16.01617371 6.42885559 16.02450562 7.68008423 C16.10200556 19.12746945 16.18975477 30.57473638 16.28752708 42.02196693 C16.33746314 47.90703603 16.3837936 53.7920874 16.421875 59.67724609 C16.45876153 65.35722297 16.50513098 71.03705066 16.55806351 76.71689987 C16.57658949 78.88337969 16.59170407 81.04989146 16.60334396 83.21641922 C16.62023691 86.25201936 16.64927986 89.28727918 16.68115234 92.32275391 C16.68331253 93.21755463 16.68547272 94.11235535 16.68769836 95.03427124 C16.69886185 95.86710632 16.71002533 96.69994141 16.7215271 97.55801392 C16.72705786 98.27516886 16.73258862 98.9923238 16.73828697 99.73121071 C17.00042374 102.68604277 17.00042374 102.68604277 19 108 C11.74 108 4.48 108 -3 108 C-2.34 106.02 -1.68 104.04 -1 102 C-0.6991123 99.68496096 -0.6991123 99.68496096 -0.7215271 97.40615845 C-0.71036362 96.53966675 -0.69920013 95.67317505 -0.68769836 94.78042603 C-0.68553818 93.84822235 -0.68337799 92.91601868 -0.68115234 91.95556641 C-0.67110672 90.95982605 -0.6610611 89.96408569 -0.65071106 88.93817139 C-0.6199136 85.65930742 -0.6028533 82.380525 -0.5859375 79.1015625 C-0.56722311 76.82326559 -0.5476495 74.54497558 -0.5272522 72.26669312 C-0.47595376 66.27939938 -0.43631565 60.29208318 -0.39910889 54.3046875 C-0.35905501 48.19134982 -0.30796894 42.07810541 -0.2578125 35.96484375 C-0.16108023 23.97662804 -0.07666669 11.98835964 0 0 Z " fill="#E5E8EC" transform="translate(200,380)"/>
<path d="M0 0 C5.28 0 10.56 0 16 0 C16 21.12 16 42.24 16 64 C10.72 64 5.44 64 0 64 C0 42.88 0 21.76 0 0 Z " fill="#000000" transform="translate(376,376)"/>
<path d="M0 0 C5.28 0 10.56 0 16 0 C16 5.28 16 10.56 16 16 C10.72 16 5.44 16 0 16 C0 10.72 0 5.44 0 0 Z " fill="#000000" transform="translate(376,456)"/>
<path d="M0 0 C5.28 0 10.56 0 16 0 C16 5.28 16 10.56 16 16 C10.72 16 5.44 16 0 16 C0 10.72 0 5.44 0 0 Z " fill="#000000" transform="translate(56,152)"/>
<path d="M0 0 C5.28 0 10.56 0 16 0 C16 5.28 16 10.56 16 16 C10.72 16 5.44 16 0 16 C0 10.72 0 5.44 0 0 Z " fill="#000000" transform="translate(56,120)"/>
<path d="M0 0 C5.28 0 10.56 0 16 0 C16 5.28 16 10.56 16 16 C10.72 16 5.44 16 0 16 C0 10.72 0 5.44 0 0 Z " fill="#000000" transform="translate(376,88)"/>
<path d="M0 0 C5.28 0 10.56 0 16 0 C16 5.28 16 10.56 16 16 C10.72 16 5.44 16 0 16 C0 10.72 0 5.44 0 0 Z " fill="#000000" transform="translate(344,88)"/>
<path d="M0 0 C5.28 0 10.56 0 16 0 C16 5.28 16 10.56 16 16 C10.72 16 5.44 16 0 16 C0 10.72 0 5.44 0 0 Z " fill="#000000" transform="translate(312,88)"/>
<path d="M0 0 C5.28 0 10.56 0 16 0 C16 5.28 16 10.56 16 16 C10.72 16 5.44 16 0 16 C0 10.72 0 5.44 0 0 Z " fill="#000000" transform="translate(56,88)"/>
<path d="M0 0 C6.6 0 13.2 0 20 0 C16.0625 6.875 16.0625 6.875 14.82446289 9.03466797 C12.8469314 12.48199884 12.8469314 12.48199884 11 16 C10.34 16 9.68 16 9 16 C7.36485767 13.5472865 5.8518754 11.10780245 4.375 8.5625 C3.95476562 7.85544922 3.53453125 7.14839844 3.1015625 6.41992188 C0 1.15834263 0 1.15834263 0 0 Z " fill="#F67D6A" transform="translate(430,280)"/>
<path d="M0 0 C0.66 0 1.32 0 2 0 C3.63514233 2.4527135 5.1481246 4.89219755 6.625 7.4375 C7.25535156 8.49807617 7.25535156 8.49807617 7.8984375 9.58007812 C11 14.84165737 11 14.84165737 11 16 C4.4 16 -2.2 16 -9 16 C-5.0625 9.125 -5.0625 9.125 -3.82446289 6.96533203 C-1.8469314 3.51800116 -1.8469314 3.51800116 0 0 Z " fill="#F67D6A" transform="translate(439,184)"/>
</svg>
