<svg xmlns="http://www.w3.org/2000/svg" width="25" height="26" viewBox="0 0 25 26" fill="none">
  <path d="M10.3679 11.1347C13.2398 11.1347 15.5679 8.80654 15.5679 5.93466C15.5679 3.06277 13.2398 0.73465 10.3679 0.73465C7.49603 0.73465 5.16791 3.06277 5.16791 5.93466C5.16791 8.80654 7.49603 11.1347 10.3679 11.1347Z" fill="#7C7E80"/>
  <path d="M13.7006 20.6412H19.3352V21.7681H13.7006V20.6412Z" fill="#FCFCFC"/>
  <path d="M8.87074 22.2511V24.666C8.87074 24.8794 8.95555 25.0842 9.10651 25.2351C9.25746 25.3861 9.46221 25.4709 9.67569 25.4709H23.3599C23.5734 25.4709 23.7782 25.3861 23.9291 25.2351C24.0801 25.0842 24.1649 24.8794 24.1649 24.666V16.6164C24.1649 16.4029 24.0801 16.1982 23.9291 16.0472C23.7782 15.8963 23.5734 15.8115 23.3599 15.8115H17.7252V14.6282C17.7252 14.4147 17.6404 14.2099 17.4895 14.059C17.3385 13.908 17.1338 13.8232 16.9203 13.8232C16.7068 13.8232 16.5021 13.908 16.3511 14.059C16.2001 14.2099 16.1153 14.4147 16.1153 14.6282V15.8115H14.5054V12.9297C13.1376 12.7063 11.7539 12.5933 10.368 12.5916C7.31138 12.5786 4.28906 13.2353 1.51345 14.5155C1.05663 14.7311 0.671235 15.0732 0.403 15.5012C0.134765 15.9292 -0.00505182 16.4252 0.000139482 16.9303V22.2511H8.87074ZM22.555 23.861H10.4806V17.4214H16.1153V17.7594C16.1153 17.9729 16.2001 18.1777 16.3511 18.3286C16.5021 18.4796 16.7068 18.5644 16.9203 18.5644C17.1338 18.5644 17.3385 18.4796 17.4895 18.3286C17.6404 18.1777 17.7252 17.9729 17.7252 17.7594V17.4214H22.555V23.861Z" fill="#7C7E80"/>
</svg>