<svg width="18" height="19" viewBox="0 0 18 19" fill="none" xmlns="http://www.w3.org/2000/svg">
<path d="M9 0.5C7.21997 0.5 5.47991 1.02784 3.99987 2.01677C2.51983 3.00571 1.36628 4.41131 0.685088 6.05585C0.00389957 7.70038 -0.17433 9.50998 0.172936 11.2558C0.520203 13.0016 1.37737 14.6053 2.63604 15.864C3.89471 17.1226 5.49836 17.9798 7.24419 18.3271C8.99002 18.6743 10.7996 18.4961 12.4442 17.8149C14.0887 17.1337 15.4943 15.9802 16.4832 14.5001C17.4722 13.0201 18 11.28 18 9.5C17.9974 7.11384 17.0484 4.82616 15.3611 3.13889C13.6738 1.45162 11.3862 0.502581 9 0.5V0.5ZM9 17C7.51664 17 6.06659 16.5601 4.83323 15.736C3.59986 14.9119 2.63856 13.7406 2.07091 12.3701C1.50325 10.9997 1.35473 9.49168 1.64411 8.03682C1.9335 6.58196 2.64781 5.24559 3.6967 4.1967C4.7456 3.1478 6.08197 2.4335 7.53683 2.14411C8.99168 1.85472 10.4997 2.00325 11.8701 2.5709C13.2406 3.13856 14.4119 4.09985 15.236 5.33322C16.0601 6.56659 16.5 8.01664 16.5 9.5C16.4978 11.4885 15.7069 13.3948 14.3009 14.8009C12.8948 16.2069 10.9885 16.9978 9 17Z" fill="#F44336"/>
<path d="M9 4.24988C8.80109 4.24988 8.61032 4.3289 8.46967 4.46955C8.32902 4.6102 8.25 4.80097 8.25 4.99988V10.9999C8.25 11.1988 8.32902 11.3896 8.46967 11.5302C8.61032 11.6709 8.80109 11.7499 9 11.7499C9.19891 11.7499 9.38968 11.6709 9.53033 11.5302C9.67098 11.3896 9.75 11.1988 9.75 10.9999V4.99988C9.75 4.80097 9.67098 4.6102 9.53033 4.46955C9.38968 4.3289 9.19891 4.24988 9 4.24988Z" fill="#F44336"/>
<path d="M9.75 13.9999C9.75 13.5857 9.41421 13.2499 9 13.2499C8.58579 13.2499 8.25 13.5857 8.25 13.9999C8.25 14.4141 8.58579 14.7499 9 14.7499C9.41421 14.7499 9.75 14.4141 9.75 13.9999Z" fill="#F44336"/>
</svg>
