<?xml version="1.0" encoding="UTF-8"?>
<svg version="1.1" xmlns="http://www.w3.org/2000/svg" width="512" height="512">
<path d="M0 0 C1.25710602 -0.00382555 2.51421204 -0.00765109 3.80941218 -0.01159257 C7.27343732 -0.0218193 10.73735835 -0.01970444 14.20139182 -0.01541197 C17.94725049 -0.01293499 21.69308473 -0.02197096 25.43893433 -0.02944946 C32.76792435 -0.04217182 40.09687769 -0.04399321 47.42587689 -0.0416492 C53.38615278 -0.03986303 59.34641756 -0.04162209 65.30669212 -0.04587364 C66.15639509 -0.04646883 67.00609805 -0.04706402 67.88154959 -0.04767724 C69.60797575 -0.04888905 71.3344019 -0.05010319 73.06082805 -0.05131962 C89.23652962 -0.06218579 105.41221032 -0.06003711 121.58791306 -0.05393478 C136.36746729 -0.04876712 151.14695559 -0.0600187 165.92649678 -0.07903299 C181.12215912 -0.09843193 196.31779031 -0.10666375 211.51346511 -0.10290974 C220.03662549 -0.10100073 228.55972977 -0.10345592 237.08288002 -0.11762428 C244.33927384 -0.12956532 251.59557701 -0.13091258 258.85197214 -0.11883412 C262.54982264 -0.11296432 266.24750757 -0.11179295 269.94534683 -0.12383652 C273.96475233 -0.13677458 277.98376744 -0.12618582 282.00317383 -0.11352539 C283.15689777 -0.12089968 284.31062171 -0.12827396 285.49930698 -0.13587171 C303.16890611 -0.01932728 317.8595668 5.81083032 330.40299988 18.24116516 C347.72993263 36.40765032 354.60297625 60.24873566 354.56706238 84.82319641 C354.56574814 85.81189728 354.56574814 85.81189728 354.56440735 86.8205719 C354.45796321 111.16129001 347.25251096 133.96549225 330.41862488 152.13179016 C322.44724338 159.75354967 312.9312434 166.20505491 302.01847839 168.32368469 C301.11541458 168.50021576 300.21235077 168.67674683 299.28192139 168.85862732 C298.59226791 168.99131012 297.90261444 169.12399292 297.19206238 169.26069641 C297.20094482 170.27832062 297.20982727 171.29594482 297.21897888 172.34440613 C297.3002988 181.96558643 297.36013972 191.58669639 297.39931107 201.20814323 C297.42012697 206.15386732 297.44833432 211.09931249 297.49382019 216.0448761 C297.53749277 220.82355084 297.56124453 225.6019584 297.57157135 230.38081741 C297.57892446 232.19796576 297.59328287 234.01510059 297.6149826 235.83213425 C297.84890773 256.24397395 297.84890773 256.24397395 291.33268738 264.66304016 C290.70878113 265.16964172 290.08487488 265.67624329 289.44206238 266.19819641 C288.52167175 266.98516907 288.52167175 266.98516907 287.58268738 267.78804016 C281.34229088 271.63220598 275.79472807 272.67703243 268.63346863 272.52632141 C267.01432566 272.5290922 265.39518435 272.53303439 263.77604675 272.53804016 C261.26339603 272.52970145 258.75201764 272.5106554 256.2396698 272.47016907 C244.85254433 271.98738244 244.85254433 271.98738244 234.84049988 276.63179016 C234.22996765 277.24208069 233.61943542 277.85237122 232.99040222 278.4811554 C228.36468457 283.05851841 222.26805332 285.11346491 216.01408386 286.32588196 C215.11165451 286.50209579 214.20922516 286.67830963 213.27944946 286.85986328 C212.59061172 286.99213821 211.90177399 287.12441315 211.19206238 287.26069641 C211.21300964 288.56740295 211.23395691 289.8741095 211.25553894 291.22041321 C211.32801791 296.07511915 211.37389113 300.92977739 211.41178894 305.78486633 C211.43188635 307.88488308 211.45916904 309.98484399 211.49382019 312.08467102 C211.54242008 315.10572599 211.56504999 318.12604018 211.58268738 321.14741516 C211.60333252 322.08405502 211.62397766 323.02069489 211.64524841 323.98571777 C211.64669157 328.19178678 211.55736819 330.62874952 209.41764832 334.33027649 C207.19206238 336.26069641 207.19206238 336.26069641 203.19206238 337.26069641 C203.19206238 342.54069641 203.19206238 347.82069641 203.19206238 353.26069641 C204.84206238 353.59069641 206.49206238 353.92069641 208.19206238 354.26069641 C211.00984903 357.27281318 211.42457925 360.02736379 211.56706238 364.01069641 C211.26076287 372.2685311 208.82478898 378.08815038 203.59440613 384.43647766 C196.01158666 390.19448854 187.84087273 390.83985678 178.6162262 390.76190186 C177.38417721 390.76743625 176.15212823 390.77297065 174.88274443 390.77867275 C171.48858419 390.78987481 168.09532866 390.78330026 164.70123863 390.76893604 C161.03112964 390.75777942 157.36108383 390.76978417 153.690979 390.77877808 C146.51200576 390.79267994 139.33320894 390.78517742 132.15424417 390.77010249 C123.7889075 390.75320749 115.42361434 390.75645698 107.05826588 390.76019657 C92.13082393 390.76606937 77.20346645 390.75192541 62.27604675 390.72724915 C47.79977758 390.70332146 33.32362121 390.69624898 18.84733582 390.70674133 C3.07053513 390.71815586 -12.70621345 390.72007466 -28.48301351 390.70564324 C-30.16584928 390.70411744 -31.84868506 390.70259709 -33.53152084 390.70108223 C-34.77340327 390.69994551 -34.77340327 390.69994551 -36.04037423 390.69878582 C-41.86818305 390.6940478 -47.69596855 390.69589095 -53.52377701 390.70014763 C-60.62661689 390.70507897 -67.72935022 390.69906885 -74.83216573 390.67925333 C-78.4544541 390.66939601 -82.07658038 390.66425932 -85.69887733 390.67214584 C-89.62804379 390.68052538 -93.55692664 390.66559515 -97.48606873 390.64837646 C-99.19764599 390.65739153 -99.19764599 390.65739153 -100.94380057 390.66658872 C-109.55001501 390.59795181 -116.71709466 389.25805774 -123.14564896 383.11964321 C-128.56173207 377.06280689 -129.38776589 369.96132052 -129.26203918 362.15107727 C-129.26262329 361.18415955 -129.2632074 360.21724182 -129.2638092 359.22102356 C-129.26104379 356.05548493 -129.23002475 352.89091233 -129.19856262 349.72554016 C-129.19109475 347.51880406 -129.1854044 345.31206129 -129.18141174 343.10531616 C-129.16619852 337.3200473 -129.12695372 331.5351853 -129.08259583 325.75007629 C-129.04155006 319.83765668 -129.02338088 313.92517081 -129.00325012 308.01264954 C-128.96045541 296.4284872 -128.89225634 284.84462575 -128.80793762 273.26069641 C-129.42056458 272.97798889 -130.03319153 272.69528137 -130.66438293 272.40400696 C-143.47861708 265.56926225 -150.5665888 246.05587672 -154.80012512 233.08882141 C-157.39179348 223.24449975 -158.19652044 213.8749616 -158.18293762 203.69819641 C-158.18272614 203.04039185 -158.18251465 202.38258728 -158.18229675 201.70484924 C-158.13231428 186.08710451 -155.73614277 172.37969175 -148.80793762 158.26069641 C-148.35547668 157.32870422 -147.90301575 156.39671204 -147.43684387 155.43647766 C-138.62502093 138.31431763 -125.7121271 126.89853772 -107.82356262 120.13179016 C-102.14419586 118.49124769 -96.44817272 118.12113266 -90.56184387 117.94429016 C-89.90586716 117.92350906 -89.24989044 117.90272797 -88.57403564 117.88131714 C-86.50626217 117.81663703 -84.43837661 117.75732175 -82.37043762 117.69819641 C-80.9570152 117.65493334 -79.54360355 117.61131676 -78.13020325 117.56733704 C-74.68956292 117.46104125 -71.2488007 117.35955169 -67.80793762 117.26069641 C-68.09668762 116.28616516 -68.38543762 115.31163391 -68.68293762 114.30757141 C-76.1744211 86.69105735 -72.70739104 58.17926509 -59.15168762 33.20991516 C-50.48701671 18.76198512 -37.46242786 6.08199601 -20.77469617 1.7305091 C-13.80674186 0.19623613 -7.11695787 -0.023179 0 0 Z " fill="#020102" transform="translate(157.8079376220703,60.73930358886719)"/>
<path d="M0 0 C1.64087213 -0.00512655 1.64087213 -0.00512655 3.31489319 -0.01035666 C6.96320534 -0.01692059 10.6107741 0.00501701 14.25901794 0.0269165 C16.88100161 0.0280453 19.50298655 0.0274105 22.12496948 0.02514648 C27.76105947 0.02305448 33.39696346 0.03554763 39.03300667 0.05809784 C47.18163105 0.09067975 55.33016599 0.10103116 63.47884845 0.10604981 C76.70119544 0.11479278 89.92344342 0.14138119 103.14573669 0.17926025 C115.98590095 0.21600622 128.82603825 0.24430531 141.66624451 0.2612915 C142.45842082 0.2623424 143.25059713 0.26339329 144.06677879 0.26447603 C148.04110586 0.26969638 152.01543313 0.27475117 155.98976052 0.27972364 C188.9330193 0.3211546 221.87615672 0.39157575 254.81932068 0.48101807 C253.40061031 3.43952037 251.98420105 5.50223406 249.69432068 7.85601807 C231.862731 27.91655646 228.5771306 54.71851349 229.81932068 80.48101807 C230.65043966 89.83976411 232.46085351 98.80204157 236.04978943 107.51226807 C236.81932068 109.48101807 236.81932068 109.48101807 236.81932068 111.48101807 C232.40299781 110.12214949 228.31852787 108.37828239 224.16307068 106.38336182 C218.73228478 104.29250925 213.11905032 104.33414585 207.37335205 104.34057617 C206.53729752 104.33760505 205.70124298 104.33463393 204.83985347 104.33157277 C202.04629649 104.32292048 199.25278255 104.32138051 196.45921326 104.31988525 C194.45336822 104.3152549 192.44752405 104.31022994 190.44168091 104.30484009 C184.9998599 104.29174151 179.5580512 104.28527696 174.1162169 104.28082943 C170.71805738 104.2778967 167.31990122 104.27379167 163.92174339 104.26932526 C153.29376231 104.25566166 142.66578891 104.24598748 132.03779966 104.24212337 C119.7599013 104.23763482 107.48211383 104.2200453 95.2042492 104.19112277 C85.71625946 104.16954536 76.22830103 104.15942132 66.74028701 104.15808225 C61.07117712 104.15703208 55.40217165 104.15107842 49.73308754 104.13326263 C44.4069285 104.11684839 39.08095314 104.11459392 33.75477791 104.12340164 C31.79677083 104.1241754 29.83875413 104.1197851 27.88077164 104.10994339 C25.21507171 104.09732618 22.55003266 104.10304428 19.88433838 104.11352539 C19.10341617 104.10546899 18.32249396 104.09741258 17.51790744 104.08911204 C13.44458567 104.11187022 13.44458567 104.11187022 9.84260082 105.82039261 C8.19735902 108.49036568 8.38283102 110.42559046 8.81932068 113.48101807 C10.98184045 116.3503697 12.17142124 117.36867085 15.74782181 117.98882675 C16.89453228 117.99251392 18.04124275 117.9962011 19.22270203 118 C20.54080872 118.01391281 21.85891541 118.02782562 23.21696472 118.04216003 C24.6758893 118.03744704 26.13481268 118.03235308 27.59373474 118.0269165 C29.13126166 118.03565128 30.66877949 118.04613673 32.20628357 118.0582428 C36.37953947 118.08613547 40.55249925 118.08950677 44.72583485 118.08852291 C49.08744779 118.09164922 53.4489268 118.11726153 57.81047058 118.14050293 C66.06933915 118.18108813 74.32812872 118.20140954 82.58708167 118.21447682 C91.98972669 118.23033835 101.3922371 118.26875038 110.7948041 118.30907011 C130.13626708 118.39150352 149.47771739 118.4455741 168.81932068 118.48101807 C167.40061031 121.43952037 165.98420105 123.50223406 163.69432068 125.85601807 C144.13533534 147.81912869 142.5745826 176.47193558 144.02244568 204.39898682 C145.36472485 215.67704985 149.84542093 227.8350882 155.81932068 237.48101807 C155.81932068 238.14101807 155.81932068 238.80101807 155.81932068 239.48101807 C157.25587922 239.5623327 158.69376898 239.62035366 160.13182068 239.66851807 C160.93232849 239.70332275 161.7328363 239.73812744 162.55760193 239.77398682 C164.84918926 239.63909012 164.84918926 239.63909012 166.61228943 238.34429932 C168.38638492 235.60564705 168.1552481 233.68832511 167.81932068 230.48101807 C166.9069904 227.87039543 166.9069904 227.87039543 165.56932068 225.35601807 C155.40310102 204.15713958 154.67888762 178.62335293 161.85057068 156.26617432 C167.64644056 141.05201589 178.01247017 127.66081044 192.81932068 120.48101807 C197.44772288 118.60394384 201.68206395 118.12731424 206.63182068 118.16851807 C207.33959656 118.17415771 208.04737244 118.17979736 208.77659607 118.18560791 C218.61913452 118.41363782 225.0368044 121.69438696 232.81932068 127.48101807 C233.41486755 127.88707275 234.01041443 128.29312744 234.62400818 128.71148682 C248.06453597 138.77639818 254.83634424 158.16065233 257.49412537 174.06207275 C260.3235999 195.10894492 255.84909302 218.28809569 243.79978943 235.94976807 C235.65200885 246.36349946 226.83755124 253.66898991 213.81932068 256.48101807 C209.51786306 256.88813402 205.2471224 256.89511112 200.9287262 256.87542725 C199.66274751 256.88151835 198.39676882 256.88760945 197.09242713 256.89388514 C193.60363259 256.91019074 190.1150654 256.90798608 186.62624621 256.90251017 C182.85380497 256.89982833 179.08142276 256.91439323 175.30900574 256.92660522 C167.92820552 256.94761228 160.54748393 256.95220282 153.16665734 256.95041734 C147.16489135 256.94910743 141.16314979 256.9529255 135.1613884 256.96034241 C133.42968015 256.9624417 131.6979719 256.9645393 129.96626365 256.96663523 C129.10422918 256.96767875 128.24219471 256.96872228 127.35403799 256.96979743 C111.06772121 256.98868043 94.78144953 256.98765544 78.49512635 256.98082811 C63.61138767 256.97525295 48.72782112 256.99608035 33.84412266 257.02918857 C18.54336542 257.0629591 3.24269056 257.0780898 -12.05810463 257.07347155 C-20.6410785 257.0712304 -29.22389324 257.07641811 -37.80683517 257.10136414 C-45.11344551 257.12242066 -52.41980943 257.12592617 -59.72643004 257.10706455 C-63.45059124 257.09793371 -67.17429353 257.09668132 -70.89841843 257.1174202 C-74.94467221 257.13970283 -78.98985372 257.12284749 -83.03611755 257.10247803 C-84.20053623 257.11499588 -85.36495491 257.12751372 -86.564659 257.1404109 C-99.95151571 256.99642446 -109.7206615 251.55522765 -119.18067932 242.48101807 C-132.50817666 228.70427925 -138.60334472 206.93979927 -138.49317932 188.29351807 C-138.48753967 187.28611572 -138.48190002 186.27871338 -138.47608948 185.24078369 C-138.14589006 164.80111308 -131.75496229 145.92291076 -117.73146057 130.84820557 C-108.57542673 122.13775579 -99.80155892 118.33011419 -87.24098206 118.33917236 C-86.45663788 118.33569794 -85.6722937 118.33222351 -84.86418152 118.3286438 C-83.16726827 118.32131285 -81.4703456 118.31595335 -79.77342033 118.31235313 C-77.08764809 118.30516556 -74.40205619 118.28948422 -71.71633911 118.27101135 C-64.08248785 118.2186327 -56.44873988 118.1705269 -48.81471252 118.15509033 C-44.14034013 118.14501988 -39.46642866 118.11572752 -34.79223824 118.07377052 C-33.01207524 118.06145034 -31.23184722 118.05634112 -29.45164299 118.05856895 C-26.96425311 118.06091709 -24.47819247 118.03879719 -21.99098206 118.01104736 C-21.25580856 118.01764877 -20.52063507 118.02425018 -19.76318359 118.03105164 C-16.34906146 117.96843782 -14.48670233 117.71005287 -11.71987915 115.63929749 C-9.6439374 112.72839387 -9.65960877 110.97963462 -10.18067932 107.48101807 C-11.1967547 105.68842224 -11.1967547 105.68842224 -13.18067932 104.48101807 C-15.68795964 104.15031177 -17.96205319 103.99274626 -20.47364807 103.96929932 C-21.17967667 103.95134811 -21.88570526 103.93339691 -22.61312866 103.91490173 C-24.86475173 103.86078629 -27.11616275 103.82690084 -29.36817932 103.79351807 C-30.89620363 103.76034588 -32.42419996 103.7258563 -33.9521637 103.69000244 C-37.69484921 103.60505982 -41.43747173 103.53825559 -45.18067932 103.48101807 C-54.28801191 81.69667212 -55.26092713 58.06620404 -46.45021057 35.96539307 C-39.7557426 20.32270428 -29.61847972 8.26168139 -13.76698315 1.34203005 C-9.21618992 -0.17298433 -4.7559085 -0.05493072 0 0 Z " fill="#FA636F" transform="translate(153.18067932128906,76.51898193359375)"/>
<path d="M0 0 C1.64087213 -0.00512655 1.64087213 -0.00512655 3.31489319 -0.01035666 C6.96320534 -0.01692059 10.6107741 0.00501701 14.25901794 0.0269165 C16.88100161 0.0280453 19.50298655 0.0274105 22.12496948 0.02514648 C27.76105947 0.02305448 33.39696346 0.03554763 39.03300667 0.05809784 C47.18163105 0.09067975 55.33016599 0.10103116 63.47884845 0.10604981 C76.70119544 0.11479278 89.92344342 0.14138119 103.14573669 0.17926025 C115.98590095 0.21600622 128.82603825 0.24430531 141.66624451 0.2612915 C142.45842082 0.2623424 143.25059713 0.26339329 144.06677879 0.26447603 C148.04110586 0.26969638 152.01543313 0.27475117 155.98976052 0.27972364 C188.9330193 0.3211546 221.87615672 0.39157575 254.81932068 0.48101807 C253.40061031 3.43952037 251.98420105 5.50223406 249.69432068 7.85601807 C231.862731 27.91655646 228.5771306 54.71851349 229.81932068 80.48101807 C230.65043966 89.83976411 232.46085351 98.80204157 236.04978943 107.51226807 C236.81932068 109.48101807 236.81932068 109.48101807 236.81932068 111.48101807 C232.40299781 110.12214949 228.31852787 108.37828239 224.16307068 106.38336182 C218.73228478 104.29250925 213.11905032 104.33414585 207.37335205 104.34057617 C206.53729752 104.33760505 205.70124298 104.33463393 204.83985347 104.33157277 C202.04629649 104.32292048 199.25278255 104.32138051 196.45921326 104.31988525 C194.45336822 104.3152549 192.44752405 104.31022994 190.44168091 104.30484009 C184.9998599 104.29174151 179.5580512 104.28527696 174.1162169 104.28082943 C170.71805738 104.2778967 167.31990122 104.27379167 163.92174339 104.26932526 C153.29376231 104.25566166 142.66578891 104.24598748 132.03779966 104.24212337 C119.7599013 104.23763482 107.48211383 104.2200453 95.2042492 104.19112277 C85.71625946 104.16954536 76.22830103 104.15942132 66.74028701 104.15808225 C61.07117712 104.15703208 55.40217165 104.15107842 49.73308754 104.13326263 C44.4069285 104.11684839 39.08095314 104.11459392 33.75477791 104.12340164 C31.79677083 104.1241754 29.83875413 104.1197851 27.88077164 104.10994339 C25.21507171 104.09732618 22.55003266 104.10304428 19.88433838 104.11352539 C19.10341617 104.10546899 18.32249396 104.09741258 17.51790744 104.08911204 C13.45839809 104.10429048 13.45839809 104.10429048 9.87775707 105.81648636 C8.64047922 107.6138773 8.64047922 107.6138773 7.81932068 110.48101807 C2.20932068 110.48101807 -3.40067932 110.48101807 -9.18067932 110.48101807 C-9.84067932 108.83101807 -10.50067932 107.18101807 -11.18067932 105.48101807 C-14.12479959 104.00895793 -17.14353847 104.24294614 -20.37599182 104.16461182 C-21.08343536 104.14383072 -21.79087891 104.12304962 -22.51976013 104.10163879 C-24.78163357 104.03620729 -27.04362394 103.97728833 -29.30567932 103.91851807 C-30.83824354 103.87532674 -32.3707959 103.83171225 -33.90333557 103.78765869 C-37.66233005 103.68053251 -41.42144225 103.57924716 -45.18067932 103.48101807 C-54.28801191 81.69667212 -55.26092713 58.06620404 -46.45021057 35.96539307 C-39.7557426 20.32270428 -29.61847972 8.26168139 -13.76698315 1.34203005 C-9.21618992 -0.17298433 -4.7559085 -0.05493072 0 0 Z " fill="#61B3FC" transform="translate(153.18067932128906,76.51898193359375)"/>
<path d="M0 0 C1.07804638 0.31790496 1.07804638 0.31790496 2.17787147 0.64223224 C9.82532302 2.74618611 16.81084294 3.43293243 24.71832275 3.39872742 C25.9413909 3.40537424 27.16445905 3.41202107 28.42458987 3.41886932 C31.78390403 3.43418215 35.14274108 3.43635764 38.50205541 3.43273985 C42.13790587 3.43211193 45.77368414 3.44877388 49.40950012 3.46325684 C55.6969889 3.48597311 61.98442254 3.49791585 68.27194977 3.50238609 C77.36246402 3.50886498 86.45287888 3.53183281 95.54335293 3.55872939 C110.2946757 3.6019316 125.04599426 3.63193578 139.79736328 3.65356445 C154.12062646 3.67459386 168.4438553 3.70188605 182.76708984 3.73754883 C183.65107485 3.73974765 184.53505985 3.74194648 185.44583228 3.74421193 C189.88085409 3.75528208 194.31587558 3.76647479 198.75089693 3.77772844 C235.50056831 3.87082052 272.25025661 3.94246153 309 4 C309.02187378 5.96791504 309.02187378 5.96791504 309.04418945 7.97558594 C309.10216742 12.84370157 309.17940064 17.71135441 309.26245117 22.57910156 C309.29570282 24.68579598 309.323734 26.79257954 309.34643555 28.89941406 C309.37997683 31.92812075 309.43229291 34.95601038 309.48828125 37.984375 C309.49786613 39.39707672 309.49786613 39.39707672 309.50764465 40.83831787 C309.52743881 41.71892883 309.54723297 42.59953979 309.56762695 43.50683594 C309.57873001 44.27960876 309.58983307 45.05238159 309.60127258 45.84857178 C310.1147125 48.61895848 311.04827571 49.98178188 313 52 C314.32 52.33 315.64 52.66 317 53 C317 58.61 317 64.22 317 70 C315.02 70.99 313.04 71.98 311 73 C309.40873916 76.18252168 309.7679385 79.65505387 309.671875 83.17578125 C308.70010216 87.26061709 307.39860944 88.49323489 304 91 C300.03139357 91.75521636 296.10386899 91.66980073 292.07444763 91.62818909 C290.24079961 91.63883067 290.24079961 91.63883067 288.37010819 91.64968723 C284.97955757 91.66424893 281.59040265 91.65636869 278.19995415 91.6389643 C274.54276914 91.6256015 270.88569037 91.64102335 267.22851562 91.65278625 C260.06554114 91.67117491 252.90283925 91.66264273 245.73987322 91.64469803 C239.91954516 91.63067908 234.09929116 91.6267777 228.27894783 91.6301403 C227.45094716 91.63061775 226.62294649 91.63109519 225.76985489 91.6315871 C224.08786247 91.63261341 222.40587006 91.63366877 220.72387768 91.63475286 C205.84784628 91.64332226 190.97194661 91.62663659 176.09594727 91.59692383 C161.65513578 91.56808062 147.21451403 91.56100502 132.77368164 91.57641602 C117.05371047 91.59316908 101.3338294 91.59722195 85.6138559 91.57970566 C83.93831608 91.57786124 82.26277625 91.57602651 80.5872364 91.57420158 C79.76280522 91.57328949 78.93837404 91.5723774 78.08896009 91.57143768 C72.27384958 91.5658271 66.45878299 91.56914425 60.64367485 91.57574654 C53.559599 91.58347016 46.47571007 91.57676219 39.39167195 91.5515715 C35.77594752 91.53905429 32.16051442 91.53295653 28.54477882 91.54411316 C24.6291947 91.55596709 20.71411574 91.5369392 16.79856873 91.5146637 C15.65023715 91.52290446 14.50190557 91.53114523 13.31877607 91.53963572 C11.74915211 91.52306419 11.74915211 91.52306419 10.14781857 91.50615788 C9.24375678 91.50496639 8.33969499 91.50377491 7.4082374 91.50254732 C4.23444951 90.84024609 3.04322804 89.45709865 1 87 C-0.58116025 83.8376795 -0.12937122 80.44158293 -0.11352539 76.97021484 C-0.11367142 76.14086929 -0.11381744 75.31152374 -0.1139679 74.45704651 C-0.11326971 71.70831715 -0.10548171 68.95965506 -0.09765625 66.2109375 C-0.09579174 64.30807533 -0.09436799 62.40521268 -0.09336853 60.50234985 C-0.08954599 55.48818644 -0.07971793 50.47405189 -0.06866455 45.4598999 C-0.05844479 40.34566641 -0.0538697 35.23142826 -0.04882812 30.1171875 C-0.03809545 20.07811231 -0.02102216 10.03905855 0 0 Z " fill="#F94853" transform="translate(44,344)"/>
<path d="M0 0 C5.61 0 11.22 0 17 0 C17.99 1.98 18.98 3.96 20 6 C22.27406733 7.13703366 23.5482336 7.13627498 26.07485962 7.15821838 C26.92743851 7.1680072 27.7800174 7.17779602 28.65843201 7.18788147 C30.06428307 7.19651466 30.06428307 7.19651466 31.49853516 7.20532227 C32.97663918 7.22017166 32.97663918 7.22017166 34.48460388 7.23532104 C37.75273203 7.26699403 41.02087474 7.29171639 44.2890625 7.31640625 C46.55065293 7.33697077 48.81223946 7.3579671 51.07382202 7.37937927 C57.03488014 7.43465179 62.99597325 7.4840382 68.95709229 7.53222656 C75.0365308 7.58240381 81.11591834 7.63810956 87.1953125 7.69335938 C99.13016481 7.80100429 111.06506133 7.90243517 123 8 C122.697453 9.00327835 122.697453 9.00327835 122.38879395 10.02682495 C122.12191772 10.91371002 121.8550415 11.80059509 121.58007812 12.71435547 C121.31650513 13.5894577 121.05293213 14.46455994 120.78137207 15.36618042 C118.65743519 22.52546695 116.79449667 29.75199904 115 37 C114.69707031 38.21945313 114.39414062 39.43890625 114.08203125 40.6953125 C112.64635462 47.32711823 111.9194846 53.69724104 111.5859375 60.46875 C111.55149033 61.14339294 111.51704315 61.81803589 111.48155212 62.51312256 C111.31067662 65.92159566 111.17278791 69.32317448 111.08520508 72.73535156 C110.6397004 83.05545116 108.34223382 92.32891372 100.5 99.5625 C93.36336047 104.91891819 87.23921719 106.15167632 78.50860596 106.12025452 C77.64355871 106.12110894 76.77851146 106.12196337 75.88725066 106.12284368 C72.98373209 106.12449302 70.08027108 106.11898601 67.17675781 106.11352539 C65.09737652 106.11324338 63.01799513 106.11340153 60.93861389 106.1139679 C55.28819582 106.11425531 49.6377989 106.10836758 43.98738575 106.10139394 C38.08434468 106.09515113 32.18130314 106.09455586 26.27825928 106.09336853 C15.09756693 106.09025796 3.91688433 106.08204825 -7.26380372 106.07201904 C-19.99158531 106.06084941 -32.71936735 106.05534531 -45.44715261 106.05032361 C-71.63144049 106.03986542 -97.8157197 106.02227126 -124 106 C-128.11428983 96.54119344 -129.37323401 88.0921647 -129.3125 77.8125 C-129.30686035 76.80509766 -129.3012207 75.79769531 -129.29541016 74.75976562 C-128.96521074 54.32009501 -122.57428297 35.44189269 -108.55078125 20.3671875 C-99.39474741 11.65673772 -90.6208796 7.84909613 -78.06030273 7.8581543 C-77.27595856 7.85467987 -76.49161438 7.85120544 -75.6835022 7.84762573 C-73.98658895 7.84029478 -72.28966628 7.83493528 -70.59274101 7.83133507 C-67.90696877 7.8241475 -65.22137687 7.80846615 -62.53565979 7.78999329 C-54.90180853 7.73761463 -47.26806056 7.68950884 -39.6340332 7.67407227 C-34.95966081 7.66400182 -30.28574934 7.63470945 -25.61155891 7.59275246 C-23.83139592 7.58043227 -22.0511679 7.57532306 -20.27096367 7.57755089 C-17.78357379 7.57989902 -15.29751315 7.55777913 -12.81030273 7.5300293 C-12.07512924 7.53663071 -11.33995575 7.54323212 -10.58250427 7.55003357 C-7.17485615 7.48753848 -5.32070885 7.24402133 -2.57435608 5.15437317 C-0.82966583 2.99636624 -0.82966583 2.99636624 0 0 Z " fill="#F9979D" transform="translate(144,187)"/>
<path d="M0 0 C0.99 0.495 0.99 0.495 2 1 C1.67 18.82 1.34 36.64 1 55 C34.00339829 54.96065573 67.00662901 54.90707833 100.00993297 54.82207905 C103.90644257 54.81206161 107.80295258 54.80221748 111.69946289 54.79248047 C112.47518656 54.7905391 113.25091023 54.78859772 114.05014067 54.78659752 C126.60986834 54.75557804 139.16957775 54.73859702 151.72933651 54.72680578 C164.61721387 54.71439394 177.50499536 54.68689182 190.39281219 54.64538693 C198.34504749 54.62025241 206.29712377 54.60688268 214.24939936 54.60857043 C220.34766217 54.60860371 226.44566858 54.58763982 232.54387093 54.55883217 C235.04521808 54.55030568 237.54659913 54.54860177 240.04795456 54.55419731 C243.46152996 54.56081697 246.87413521 54.54296362 250.28761292 54.51898193 C251.77449792 54.53062256 251.77449792 54.53062256 253.291421 54.54249835 C259.38752553 54.466613 263.00304447 53.55385131 268 50 C272.17089943 45.05917755 272.5997013 39.12564459 272.609375 32.90625 C272.62591125 32.07411987 272.64244751 31.24198975 272.65948486 30.38464355 C272.70763046 27.75635148 272.7292603 25.12863646 272.75 22.5 C272.7781878 20.70570065 272.80811912 18.9114278 272.83984375 17.1171875 C272.91662785 12.7445348 272.95745474 8.37365226 273 4 C284.88 4 296.76 4 309 4 C309.03738281 7.12984375 309.07476562 10.2596875 309.11328125 13.484375 C309.15949396 16.51602158 309.2107286 19.54754457 309.26245117 22.57910156 C309.29570282 24.68579598 309.323734 26.79257954 309.34643555 28.89941406 C309.37997683 31.92812075 309.43229291 34.95601038 309.48828125 37.984375 C309.49786613 39.39707672 309.49786613 39.39707672 309.50764465 40.83831787 C309.52743881 41.71892883 309.54723297 42.59953979 309.56762695 43.50683594 C309.57873001 44.27960876 309.58983307 45.05238159 309.60127258 45.84857178 C310.1147125 48.61895848 311.04827571 49.98178188 313 52 C314.32 52.33 315.64 52.66 317 53 C317 58.61 317 64.22 317 70 C315.02 70.99 313.04 71.98 311 73 C309.40873916 76.18252168 309.7679385 79.65505387 309.671875 83.17578125 C308.70010216 87.26061709 307.39860944 88.49323489 304 91 C300.03139357 91.75521636 296.10386899 91.66980073 292.07444763 91.62818909 C290.24079961 91.63883067 290.24079961 91.63883067 288.37010819 91.64968723 C284.97955757 91.66424893 281.59040265 91.65636869 278.19995415 91.6389643 C274.54276914 91.6256015 270.88569037 91.64102335 267.22851562 91.65278625 C260.06554114 91.67117491 252.90283925 91.66264273 245.73987322 91.64469803 C239.91954516 91.63067908 234.09929116 91.6267777 228.27894783 91.6301403 C227.45094716 91.63061775 226.62294649 91.63109519 225.76985489 91.6315871 C224.08786247 91.63261341 222.40587006 91.63366877 220.72387768 91.63475286 C205.84784628 91.64332226 190.97194661 91.62663659 176.09594727 91.59692383 C161.65513578 91.56808062 147.21451403 91.56100502 132.77368164 91.57641602 C117.05371047 91.59316908 101.3338294 91.59722195 85.6138559 91.57970566 C83.93831608 91.57786124 82.26277625 91.57602651 80.5872364 91.57420158 C79.76280522 91.57328949 78.93837404 91.5723774 78.08896009 91.57143768 C72.27384958 91.5658271 66.45878299 91.56914425 60.64367485 91.57574654 C53.559599 91.58347016 46.47571007 91.57676219 39.39167195 91.5515715 C35.77594752 91.53905429 32.16051442 91.53295653 28.54477882 91.54411316 C24.6291947 91.55596709 20.71411574 91.5369392 16.79856873 91.5146637 C15.65023715 91.52290446 14.50190557 91.53114523 13.31877607 91.53963572 C11.74915211 91.52306419 11.74915211 91.52306419 10.14781857 91.50615788 C9.24375678 91.50496639 8.33969499 91.50377491 7.4082374 91.50254732 C4.23444951 90.84024609 3.04322804 89.45709865 1 87 C-0.58116025 83.8376795 -0.12937122 80.44158293 -0.11352539 76.97021484 C-0.11367142 76.14086929 -0.11381744 75.31152374 -0.1139679 74.45704651 C-0.11326971 71.70831715 -0.10548171 68.95965506 -0.09765625 66.2109375 C-0.09579174 64.30807533 -0.09436799 62.40521268 -0.09336853 60.50234985 C-0.08954599 55.48818644 -0.07971793 50.47405189 -0.06866455 45.4598999 C-0.05844479 40.34566641 -0.0538697 35.23142826 -0.04882812 30.1171875 C-0.03809545 20.07811231 -0.02102216 10.03905855 0 0 Z " fill="#F92A3B" transform="translate(44,344)"/>
<path d="M0 0 C15.94556573 10.31330154 24.43599276 26.67510857 28.75 44.75 C33.15847616 68.64345364 29.3396373 92.1973397 15.7421875 112.53515625 C7.9015213 123.62811672 -1.462918 130.32406519 -15 133 C-26.68831416 134.46796363 -35.90933218 131.34295685 -45.25 124.3125 C-56.81962567 114.37187762 -64.63281106 100.86779904 -68 86 C-68.20367187 85.16082031 -68.40734375 84.32164062 -68.6171875 83.45703125 C-73.37023212 60.37546526 -69.84772428 35.83915656 -57 16 C-42.87584596 -2.44417918 -21.71163575 -12.69986375 0 0 Z " fill="#010204" transform="translate(467,82)"/>
<path d="M0 0 C10.50504284 7.87479691 17.55794024 19.42589677 20.26171875 32.3046875 C21.55096824 50.82542323 20.68863584 66.05156288 9.26171875 81.3046875 C6.69921875 84.1796875 6.69921875 84.1796875 4.26171875 86.3046875 C2.90046875 87.573125 2.90046875 87.573125 1.51171875 88.8671875 C-6.7204372 95.38688996 -15.40490347 96.53523612 -25.68164062 95.61816406 C-34.75325888 94.23545302 -42.1651863 88.3022955 -47.73828125 81.3046875 C-58.33163549 66.72034863 -60.50418623 49.25630008 -58.23828125 31.7421875 C-55.54791535 19.48607616 -48.68013794 7.94075213 -38.73828125 0.3046875 C-26.10953504 -7.49755513 -12.89601067 -7.98412073 0 0 Z " fill="#040202" transform="translate(379.73828125,218.6953125)"/>
<path d="M0 0 C18.15 0 36.3 0 55 0 C53.33253205 3.33493589 52.34153355 4.83963295 49.875 7.375 C32.04341032 27.43553839 28.75780992 54.23749542 30 80 C30.83111898 89.35874604 32.64153283 98.32102351 36.23046875 107.03125 C37 109 37 109 37 111 C32.58367713 109.64113143 28.49920719 107.89726432 24.34375 105.90234375 C18.9129641 103.81149118 13.29972964 103.85312779 7.55403137 103.85955811 C6.71797684 103.85658698 5.88192231 103.85361586 5.02053279 103.8505547 C2.22697582 103.84190241 -0.56653813 103.84036245 -3.36010742 103.83886719 C-5.36595246 103.83423683 -7.37179663 103.82921188 -9.37763977 103.82382202 C-14.81946078 103.81072345 -20.26126947 103.8042589 -25.70310378 103.79981136 C-29.1012633 103.79687863 -32.49941946 103.7927736 -35.89757729 103.78830719 C-46.52555837 103.7746436 -57.15353177 103.76496941 -67.78152102 103.7611053 C-80.05941938 103.75661675 -92.33720685 103.73902723 -104.61507148 103.7101047 C-114.10306121 103.68852729 -123.59101965 103.67840325 -133.07903367 103.67706418 C-138.74814355 103.67601401 -144.41714903 103.67006036 -150.08623314 103.65224457 C-155.41239218 103.63583032 -160.73836753 103.63357585 -166.06454277 103.64238358 C-168.02254985 103.64315733 -169.98056655 103.63876704 -171.93854904 103.62892532 C-174.60424897 103.61630811 -177.26928802 103.62202621 -179.9349823 103.63250732 C-180.71590451 103.62445092 -181.49682672 103.61639452 -182.30141324 103.60809398 C-186.36092259 103.62327241 -186.36092259 103.62327241 -189.94156361 105.33546829 C-191.17884146 107.13285924 -191.17884146 107.13285924 -192 110 C-197.61 110 -203.22 110 -209 110 C-209.66 108.35 -210.32 106.7 -211 105 C-213.94412027 103.52793987 -216.96285915 103.76192808 -220.1953125 103.68359375 C-220.90275604 103.66281265 -221.61019958 103.64203156 -222.33908081 103.62062073 C-224.60095425 103.55518922 -226.86294462 103.49627026 -229.125 103.4375 C-230.65756422 103.39430867 -232.19011657 103.35069418 -233.72265625 103.30664062 C-237.48165073 103.19951445 -241.24076292 103.0982291 -245 103 C-245.66 101.35 -246.32 99.7 -247 98 C-245.38128793 97.99641747 -245.38128793 97.99641747 -243.72987461 97.99276257 C-217.46430496 97.93395147 -191.19882692 97.85805859 -164.93335819 97.76428509 C-152.23154086 97.7193317 -139.52975153 97.6799159 -126.82788086 97.65356445 C-115.75611757 97.63058076 -104.68444295 97.59717842 -93.61274999 97.55129844 C-87.75112338 97.5273714 -81.88958456 97.50863915 -76.02791023 97.50238609 C-70.50806212 97.496333 -64.98843863 97.4763246 -59.46867371 97.44572449 C-57.44548541 97.43694795 -55.42226776 97.43322088 -53.3990612 97.43499184 C-50.63000503 97.43665001 -47.86162922 97.41989894 -45.09266663 97.39872742 C-44.29789211 97.40357499 -43.50311759 97.40842257 -42.684259 97.41341704 C-34.90451752 97.31570434 -27.36640512 95.47466018 -21.63671875 89.9453125 C-14.76633104 81.77955336 -13.53249779 74.04734893 -13.31958008 63.75976562 C-12.79697048 41.54982923 -7.75873197 20.68995192 0 0 Z " fill="#27A0F7" transform="translate(353,77)"/>
<path d="M0 0 C1.06166382 0.00845947 1.06166382 0.00845947 2.14477539 0.01708984 C11.98731385 0.24511975 18.40498372 3.52586889 26.1875 9.3125 C27.08082031 9.92158203 27.08082031 9.92158203 27.9921875 10.54296875 C41.43271529 20.60788011 48.20452356 39.99213426 50.86230469 55.89355469 C53.69177923 76.94042686 49.21727234 100.11957762 37.16796875 117.78125 C29.0432266 128.16553582 20.19413084 135.56345479 7.1875 138.3125 C2.44714458 138.84499452 -2.23919352 139.07765341 -7.00683594 139.14306641 C-8.45776086 139.17263071 -9.90839618 139.22724338 -11.35742188 139.30712891 C-19.05060937 139.73008016 -25.02714508 139.70461873 -31.0909729 134.51004028 C-33.49404775 132.21521499 -35.66736059 129.85533632 -37.8125 127.3125 C-38.43044434 126.58401855 -39.04838867 125.85553711 -39.68505859 125.10498047 C-40.05711426 124.51346191 -40.42916992 123.92194336 -40.8125 123.3125 C-40 120.9375 -40 120.9375 -38.8125 118.3125 C-38.47918586 113.90063281 -39.07115234 111.11021498 -41.0625 107.1875 C-51.22871965 85.98862152 -51.95293306 60.45483487 -44.78125 38.09765625 C-38.98538012 22.88349782 -28.61935051 9.49229238 -13.8125 2.3125 C-9.1840978 0.43542577 -4.94975673 -0.04120383 0 0 Z M-28.8125 34.3125 C-34.03170466 42.59545157 -38.21311204 51.44865895 -38.8125 61.3125 C-38.89242188 62.60800781 -38.97234375 63.90351563 -39.0546875 65.23828125 C-39.69133785 81.17643058 -36.04245968 95.13843693 -25.625 107.5 C-19.13928842 114.47458431 -11.77404967 119.31708115 -2.11230469 119.70605469 C9.25321208 119.92929705 17.53983928 116.98403368 26.1875 109.3125 C39.54814648 92.68491636 41.47710527 77.16404685 40.1875 56.3125 C39.58961538 51.97467697 38.21009359 48.19538028 36.1875 44.3125 C35.49914062 42.98605469 35.49914062 42.98605469 34.796875 41.6328125 C28.96954959 31.29697743 21.76110294 23.30465232 10.25 19.4375 C-5.15636858 15.46089482 -19.12480066 22.0040611 -28.8125 34.3125 Z " fill="#F5959B" transform="translate(359.8125,194.6875)"/>
<path d="M0 0 C15.94556573 10.31330154 24.43599276 26.67510857 28.75 44.75 C33.15847616 68.64345364 29.3396373 92.1973397 15.7421875 112.53515625 C7.9015213 123.62811672 -1.462918 130.32406519 -15 133 C-26.68831416 134.46796363 -35.90933218 131.34295685 -45.25 124.3125 C-56.81962567 114.37187762 -64.63281106 100.86779904 -68 86 C-68.20367187 85.16082031 -68.40734375 84.32164062 -68.6171875 83.45703125 C-73.37023212 60.37546526 -69.84772428 35.83915656 -57 16 C-42.87584596 -2.44417918 -21.71163575 -12.69986375 0 0 Z M-50.109375 29.390625 C-59.54345882 42.41122003 -61.48585533 58.05448542 -59.6875 73.72265625 C-59.24773075 76.20028478 -58.67985981 78.57751103 -58 81 C-57.75507813 81.88171875 -57.51015625 82.7634375 -57.2578125 83.671875 C-53.49127011 95.47148566 -45.9076922 104.89733974 -35.375 111.3125 C-28.12069243 114.93965378 -19.93585867 114.83452482 -12 114 C-7.62093529 112.51708945 -3.87312714 110.50790996 0 108 C0.60328125 107.61714844 1.2065625 107.23429687 1.828125 106.83984375 C12.16968558 99.24696112 17.67408368 84.95549793 19.71484375 72.7109375 C21.47394249 55.98745083 18.20299013 41.17303829 8.1875 27.53125 C1.53843853 19.48803048 -6.97569705 13.79497738 -17.5234375 12.75 C-31.23375718 12.13553189 -41.48618166 19.27365013 -50.109375 29.390625 Z " fill="#60B0F7" transform="translate(467,82)"/>
<path d="M0 0 C8.41153949 5.33488631 11.90407653 14.15073248 14.78125 23.33203125 C16.95997479 34.84186019 14.66383735 46.62168925 8.91796875 56.75 C5.52695757 61.71014368 0.92360053 66.45645607 -4.83203125 68.375 C-11.94093598 69.29566143 -17.05486058 68.66025557 -22.828125 64.28125 C-31.95131287 55.60266193 -34.73843645 44.9734535 -35.14453125 32.75 C-35.04174857 22.01492026 -32.36575326 12.24438289 -24.83203125 4.375 C-17.12230746 -3.06755515 -9.77658932 -4.84622672 0 0 Z " fill="#60B1F9" transform="translate(456.83203125,112.625)"/>
<path d="M0 0 C7.55575759 4.11394777 11.67793313 11.19587779 14.875 19 C18.01446992 29.75481551 17.48754562 44.63975394 12.4375 54.58203125 C8.52681688 60.63381338 3.90958181 66.6551394 -3.125 69 C-9.21033035 69.71220903 -14.52271418 70.05994156 -19.625 66.3125 C-27.54545049 59.2921007 -32.2551236 50.43397746 -33.34716797 39.84594727 C-34.0007724 27.33348998 -32.85699647 16.76695525 -24.703125 6.71875 C-17.42915202 -1.20339879 -10.28772455 -4.60158764 0 0 Z " fill="#F6959B" transform="translate(369.125,230)"/>
<path d="M0 0 C0.70560059 0.00418945 1.41120117 0.00837891 2.13818359 0.01269531 C7.58177544 0.130354 12.34845549 0.76962955 17.1875 3.3125 C18.2084375 3.83585938 19.229375 4.35921875 20.28125 4.8984375 C24.17215328 8.13039748 24.65824134 10.85925649 25.5625 15.6875 C25.80806641 16.80125 25.80806641 16.80125 26.05859375 17.9375 C26.93799453 22.12019614 27.36472582 26.01818215 27.1875 30.3125 C26.64222656 29.92578125 26.09695313 29.5390625 25.53515625 29.140625 C16.01619891 22.56684933 6.96919027 18.08031749 -4.8125 19.3125 C-10.68506434 20.97438404 -15.99006778 23.56171939 -20.8125 27.3125 C-21.35261719 27.72371094 -21.89273437 28.13492188 -22.44921875 28.55859375 C-30.49488628 35.51945218 -36.34338775 47.86709915 -37.6328125 58.35546875 C-37.69210937 59.33128906 -37.75140625 60.30710938 -37.8125 61.3125 C-37.89242188 62.60800781 -37.97234375 63.90351563 -38.0546875 65.23828125 C-38.70348482 81.48052244 -34.96884858 95.56513231 -24 107.875 C-22.61255277 109.36203561 -21.21962072 110.84406683 -19.8125 112.3125 C-20.1425 112.9725 -20.4725 113.6325 -20.8125 114.3125 C-26.4225 114.3125 -32.0325 114.3125 -37.8125 114.3125 C-49.44423946 89.99159022 -53.17074755 64.2512793 -44.78125 38.09765625 C-38.98538012 22.88349782 -28.61935051 9.49229238 -13.8125 2.3125 C-9.18369335 0.43526175 -4.9499747 -0.04004262 0 0 Z " fill="#FABFC2" transform="translate(359.8125,194.6875)"/>
<path d="M0 0 C5.65587846 3.85628077 6.38446652 10.09678226 7.7578125 16.3984375 C8.38101377 19.9255836 8.5687446 23.02117112 8.3203125 26.58203125 C7.62808594 26.00195312 7.62808594 26.00195312 6.921875 25.41015625 C-2.10719466 18.20117573 -12.10459621 14.50351224 -23.6796875 15.58203125 C-34.0020137 18.23072199 -42.62017089 24.91138805 -48.6796875 33.58203125 C-56.73527583 47.71171836 -59.15752838 64.23912976 -55.359375 80.16015625 C-55.13507813 80.959375 -54.91078125 81.75859375 -54.6796875 82.58203125 C-54.43476563 83.46375 -54.18984375 84.34546875 -53.9375 85.25390625 C-50.89316195 94.79103608 -44.86321505 101.88022685 -38.6796875 109.58203125 C-40.98936163 111.89170538 -46.47352788 111.13303392 -49.66308594 111.17138672 C-52.79906227 111.08188807 -55.10630196 110.98670912 -57.7109375 109.1484375 C-59.05393962 107.00910399 -59.8708431 104.97322658 -60.6796875 102.58203125 C-61.02773438 101.86917969 -61.37578125 101.15632813 -61.734375 100.421875 C-70.8527063 81.02046204 -70.27351351 54.25529187 -63.1875 34.4296875 C-57.36170493 19.11298913 -47.19603681 5.43673472 -32.1796875 -1.85546875 C-21.65888422 -5.62460388 -10.06212254 -4.41444095 0 0 Z " fill="#86C2F7" transform="translate(464.6796875,80.41796875)"/>
<path d="M0 0 C1.25103516 0.61488281 1.25103516 0.61488281 2.52734375 1.2421875 C3.65269531 1.78101563 4.77804687 2.31984375 5.9375 2.875 C7.03964844 3.40867188 8.14179688 3.94234375 9.27734375 4.4921875 C12.0556249 5.72388362 14.76097304 6.46348246 17.73266602 7.09423828 C18.93524803 7.3522673 18.93524803 7.3522673 20.16212463 7.61550903 C20.7686235 7.74239105 21.37512238 7.86927307 22 8 C22.11586707 18.73538617 22.20470187 29.4706235 22.25906086 40.20650768 C22.28515106 45.19168883 22.32053868 50.17644208 22.37719727 55.16137695 C22.43153748 59.97246313 22.46142488 64.78313783 22.47438622 69.59450722 C22.48362249 71.42976675 22.50165908 73.26500384 22.52865028 75.10008812 C22.56496822 77.67163058 22.56994434 80.24147462 22.56762695 82.81323242 C22.58560333 83.57136734 22.60357971 84.32950226 22.62210083 85.11061096 C22.58327983 89.0939013 22.14212229 90.82180996 19.6262207 93.97619629 C16.64776968 96.27143379 15.40120132 96.59652635 11.69921875 96.48828125 C10.72275391 96.47216797 9.74628906 96.45605469 8.74023438 96.43945312 C7.73283203 96.39755859 6.72542969 96.35566406 5.6875 96.3125 C4.66076172 96.28994141 3.63402344 96.26738281 2.57617188 96.24414062 C0.0492821 96.18537575 -2.47460255 96.10327849 -5 96 C-3.61030751 91.6114974 -1.93189824 87.45495687 -0.0625 83.25 C11.87850382 55.73298907 9.70371609 27.82069321 0 0 Z " fill="#097FF6" transform="translate(417,221)"/>
<path d="M0 0 C3.5625 0.9375 3.5625 0.9375 6 2.8125 C8.3328629 7.4782258 8.21597204 11.81735435 7.5625 16.9375 C6.18997293 20.05687969 5.582957 21.4272715 2.5625 22.9375 C-0.75 23.375 -0.75 23.375 -4.4375 22.9375 C-7.76836042 20.24446391 -9.14191654 18.70255554 -9.84765625 14.48828125 C-10.0170262 9.5618248 -9.72732515 5.83655203 -6.4375 1.9375 C-3.4375 -0.0625 -3.4375 -0.0625 0 0 Z " fill="#060404" transform="translate(361.4375,252.0625)"/>
<path d="M0 0 C4.13275974 1.53065175 5.39559691 2.29119382 7.375 6.25 C8.04105205 11.29080303 8.06205157 15.68851916 6 20.375 C3.65982881 23.07519753 2.61975004 23.22280555 -1 23.625 C-4.625 23.25 -4.625 23.25 -7 20.9375 C-9.64558373 16.56211152 -10.58107851 12.29699137 -9.625 7.25 C-7.27775132 2.71478023 -5.19048829 0.35796471 0 0 Z " fill="#020406" transform="translate(447.625,133.75)"/>
<path d="M0 0 C3.82200107 6.25279375 2.68846396 14.6395516 1.27734375 21.52734375 C-1.74131451 32.00098799 -6.0702568 39.55489246 -15 46 C-18.47325181 47.1577506 -21.36067448 47.06866652 -25 47 C-24.154375 46.01 -23.30875 45.02 -22.4375 44 C-21.61185547 43.02353516 -21.61185547 43.02353516 -20.76953125 42.02734375 C-19.65959949 40.75570008 -18.51496955 39.51270834 -17.32421875 38.31640625 C-7.79887256 28.4844972 -1.44053246 13.54100509 0 0 Z " fill="#0C7EF1" transform="translate(470,134)"/>
<path d="M0 0 C0.33 0 0.66 0 1 0 C2.16621094 26.88385346 2.16621094 26.88385346 -7.5625 38.5625 C-10.68850949 41.91953097 -13.60779751 44.5359325 -18 46 C-20.33299825 46.03954234 -22.66708189 46.04401732 -25 46 C-24.125 44.97916667 -23.25 43.95833333 -22.375 42.9375 C-21.54935547 41.96683594 -21.54935547 41.96683594 -20.70703125 40.9765625 C-19.66185239 39.7663554 -18.60024067 38.5698128 -17.51171875 37.3984375 C-8.00838552 26.9985634 -2.45823996 13.7818347 0 0 Z " fill="#F6626E" transform="translate(384,253)"/>
</svg>
