<svg xmlns="http://www.w3.org/2000/svg" width="13" height="13" viewBox="0 0 13 13" fill="none">
  <path d="M6.565 10.6436L6.5 10.7086L6.4285 10.6436C3.341 7.84213 1.3 5.98963 1.3 4.11113C1.3 2.81113 2.275 1.83613 3.575 1.83613C4.576 1.83613 5.551 2.48613 5.8955 3.37013H7.1045C7.449 2.48613 8.424 1.83613 9.425 1.83613C10.725 1.83613 11.7 2.81113 11.7 4.11113C11.7 5.98963 9.659 7.84213 6.565 10.6436ZM9.425 0.536133C8.294 0.536133 7.2085 1.06263 6.5 1.88813C5.7915 1.06263 4.706 0.536133 3.575 0.536133C1.573 0.536133 0 2.10263 0 4.11113C0 6.56163 2.21 8.57013 5.5575 11.6056L6.5 12.4636L7.4425 11.6056C10.79 8.57013 13 6.56163 13 4.11113C13 2.10263 11.427 0.536133 9.425 0.536133Z" fill="black"/>
</svg>