<svg width="44" height="44" viewBox="0 0 44 44" fill="none" xmlns="http://www.w3.org/2000/svg">
<g filter="url(#filter0_d_119_20117)">
<rect y="44" width="44" height="44" rx="22" transform="rotate(-90 0 44)" fill="white"/>
<g clip-path="url(#clip0_119_20117)">
<path d="M16.5 11.9165C17.6261 11.934 18.7276 12.2484 19.6933 12.8278C20.659 13.4072 21.4547 14.2312 22 15.2165C22.5454 14.2312 23.3411 13.4072 24.3068 12.8278C25.2725 12.2484 26.374 11.934 27.5 11.9165C29.2951 11.9945 30.9863 12.7798 32.2043 14.1007C33.4222 15.4217 34.0678 17.171 34 18.9665C34 23.5135 29.214 28.4795 25.2 31.8465C24.3038 32.5996 23.1707 33.0125 22 33.0125C20.8294 33.0125 19.6963 32.5996 18.8 31.8465C14.786 28.4795 10 23.5135 10 18.9665C9.93229 17.171 10.5779 15.4217 11.7958 14.1007C13.0137 12.7798 14.705 11.9945 16.5 11.9165ZM20.085 30.3165C20.6211 30.7679 21.2993 31.0154 22 31.0154C22.7008 31.0154 23.379 30.7679 23.915 30.3165C29.053 26.0055 32 21.8695 32 18.9665C32.0684 17.7012 31.6337 16.4602 30.7907 15.5142C29.9477 14.5682 28.7648 13.9939 27.5 13.9165C26.2353 13.9939 25.0524 14.5682 24.2094 15.5142C23.3664 16.4602 22.9317 17.7012 23 18.9665C23 19.2317 22.8947 19.4861 22.7071 19.6736C22.5196 19.8611 22.2653 19.9665 22 19.9665C21.7348 19.9665 21.4805 19.8611 21.2929 19.6736C21.1054 19.4861 21 19.2317 21 18.9665C21.0684 17.7012 20.6337 16.4602 19.7907 15.5142C18.9477 14.5682 17.7648 13.9939 16.5 13.9165C15.2353 13.9939 14.0524 14.5682 13.2094 15.5142C12.3664 16.4602 11.9317 17.7012 12 18.9665C12 21.8695 14.947 26.0055 20.085 30.3125V30.3165Z" fill="#2A3037"/>
</g>
<rect x="0.5" y="43.5" width="43" height="43" rx="21.5" transform="rotate(-90 0.5 43.5)" stroke="#2A3037"/>
</g>
<defs>
<filter id="filter0_d_119_20117" x="-30" y="-28" width="104" height="104" filterUnits="userSpaceOnUse" color-interpolation-filters="sRGB">
<feFlood flood-opacity="0" result="BackgroundImageFix"/>
<feColorMatrix in="SourceAlpha" type="matrix" values="0 0 0 0 0 0 0 0 0 0 0 0 0 0 0 0 0 0 127 0" result="hardAlpha"/>
<feOffset dy="2"/>
<feGaussianBlur stdDeviation="15"/>
<feColorMatrix type="matrix" values="0 0 0 0 0.972549 0 0 0 0 0.929412 0 0 0 0 0.890196 0 0 0 0.15 0"/>
<feBlend mode="normal" in2="BackgroundImageFix" result="effect1_dropShadow_119_20117"/>
<feBlend mode="normal" in="SourceGraphic" in2="effect1_dropShadow_119_20117" result="shape"/>
</filter>
<clipPath id="clip0_119_20117">
<rect width="24" height="24" fill="white" transform="matrix(-1 0 0 1 34 10)"/>
</clipPath>
</defs>
</svg>
