<svg width="44" height="44" viewBox="0 0 44 44" fill="none" xmlns="http://www.w3.org/2000/svg">
<g filter="url(#filter0_d_119_20128)">
<rect y="44" width="44" height="44" rx="22" transform="rotate(-90 0 44)" fill="#FFE3D9"/>
<g clip-path="url(#clip0_119_20128)">
<path d="M16.5 11.9165C17.6261 11.934 18.7276 12.2484 19.6933 12.8278C20.659 13.4072 21.4547 14.2312 22 15.2165C22.5454 14.2312 23.3411 13.4072 24.3068 12.8278C25.2725 12.2484 26.374 11.934 27.5 11.9165C29.2951 11.9945 30.9863 12.7798 32.2043 14.1007C33.4222 15.4217 34.0678 17.171 34 18.9665C34 23.5135 29.214 28.4795 25.2 31.8465C24.3038 32.5996 23.1707 33.0125 22 33.0125C20.8294 33.0125 19.6963 32.5996 18.8 31.8465C14.786 28.4795 10 23.5135 10 18.9665C9.93229 17.171 10.5779 15.4217 11.7958 14.1007C13.0137 12.7798 14.705 11.9945 16.5 11.9165Z" fill="url(#paint0_linear_119_20128)"/>
</g>
</g>
<defs>
<filter id="filter0_d_119_20128" x="-30" y="-28" width="104" height="104" filterUnits="userSpaceOnUse" color-interpolation-filters="sRGB">
<feFlood flood-opacity="0" result="BackgroundImageFix"/>
<feColorMatrix in="SourceAlpha" type="matrix" values="0 0 0 0 0 0 0 0 0 0 0 0 0 0 0 0 0 0 127 0" result="hardAlpha"/>
<feOffset dy="2"/>
<feGaussianBlur stdDeviation="15"/>
<feColorMatrix type="matrix" values="0 0 0 0 0.972549 0 0 0 0 0.929412 0 0 0 0 0.890196 0 0 0 0.15 0"/>
<feBlend mode="normal" in2="BackgroundImageFix" result="effect1_dropShadow_119_20128"/>
<feBlend mode="normal" in="SourceGraphic" in2="effect1_dropShadow_119_20128" result="shape"/>
</filter>
<linearGradient id="paint0_linear_119_20128" x1="14.5314" y1="24.9392" x2="33.9714" y2="24.7236" gradientUnits="userSpaceOnUse">
<stop stop-color="#FA8820"/>
<stop offset="1" stop-color="#FF784D"/>
</linearGradient>
<clipPath id="clip0_119_20128">
<rect width="24" height="24" fill="white" transform="matrix(-1 0 0 1 34 10)"/>
</clipPath>
</defs>
</svg>
