<?xml version="1.0" encoding="UTF-8"?>
<svg version="1.1" xmlns="http://www.w3.org/2000/svg" width="512" height="512">
<path d="M0 0 C0.98774918 -0.0127597 1.97549835 -0.02551941 2.99317932 -0.03866577 C4.04851364 -0.04089142 5.10384796 -0.04311707 6.19116211 -0.04541016 C7.83102333 -0.05539536 7.83102333 -0.05539536 9.50401306 -0.06558228 C11.81125203 -0.07569231 14.11852015 -0.08039981 16.42578125 -0.08007812 C19.95938938 -0.08446135 23.49175838 -0.12082753 27.02514648 -0.15869141 C29.26798076 -0.1645578 31.51082096 -0.16852838 33.75366211 -0.17041016 C34.81102066 -0.18478119 35.86837921 -0.19915222 36.95777893 -0.21395874 C44.12691539 -0.16915507 44.12691539 -0.16915507 47.60302734 1.88183594 C48.90600586 4.29052734 48.90600586 4.29052734 48.90600586 11.29052734 C54.51600586 11.29052734 60.12600586 11.29052734 65.90600586 11.29052734 C65.90600586 8.98052734 65.90600586 6.67052734 65.90600586 4.29052734 C67.40600586 1.85302734 67.40600586 1.85302734 69.90600586 0.29052734 C73.95160943 -0.51361927 76.88474342 -0.34776168 80.40600586 1.85302734 C81.90600586 4.29052734 81.90600586 4.29052734 81.90600586 11.29052734 C87.18600586 11.29052734 92.46600586 11.29052734 97.90600586 11.29052734 C97.90600586 8.98052734 97.90600586 6.67052734 97.90600586 4.29052734 C99.90371574 1.36626301 101.06270431 0.45127815 104.54666519 -0.21283722 C105.55762127 -0.21434532 106.56857735 -0.21585342 107.61016846 -0.21740723 C108.77367325 -0.22868652 109.93717804 -0.23996582 111.13594055 -0.25158691 C113.04514534 -0.23944153 113.04514534 -0.23944153 114.99291992 -0.22705078 C116.34997814 -0.23247242 117.70703047 -0.23959532 119.06407166 -0.24829102 C122.74828546 -0.26652971 126.43205127 -0.25945308 130.11627293 -0.24677467 C133.97627017 -0.23664142 137.83622926 -0.24604202 141.69622803 -0.25231934 C148.18272779 -0.25959831 154.66904546 -0.25000524 161.15551758 -0.23095703 C168.6423216 -0.20922434 176.12868927 -0.21621215 183.61548257 -0.23826265 C190.05049237 -0.2564535 196.48537125 -0.25895594 202.92039847 -0.24850798 C206.76040267 -0.24228848 210.60020232 -0.24139385 214.44019318 -0.25465393 C218.05517386 -0.26626435 221.66959648 -0.25809322 225.28451729 -0.2350769 C227.23432282 -0.22731815 229.18417589 -0.23910399 231.13395691 -0.25158691 C239.27380814 -0.17343485 244.85343892 0.73923611 251.14819336 6.25537109 C251.68702148 6.90634766 252.22584961 7.55732422 252.78100586 8.22802734 C253.33530273 8.87642578 253.88959961 9.52482422 254.46069336 10.19287109 C258.29200811 15.75345494 258.19453508 20.85710812 258.1734314 27.39381409 C258.17796251 28.42023559 258.18249362 29.44665709 258.18716204 30.50418228 C258.19983578 33.9480649 258.19818375 37.39178998 258.1965332 40.83569336 C258.20251644 43.30281783 258.20932151 45.76994043 258.21688843 48.23706055 C258.23273572 54.24491054 258.23899751 60.25269844 258.24011318 66.26056356 C258.24106375 71.14266245 258.24517444 76.02474839 258.25151443 80.90684319 C258.26912176 94.74676599 258.2783537 108.58665779 258.27685349 122.42659188 C258.27677357 123.17244986 258.27669366 123.91830784 258.27661133 124.68676758 C258.27652957 125.43353514 258.27644781 126.18030269 258.27636357 126.94969957 C258.27555004 139.06177012 258.29470579 151.1737165 258.32288806 163.28575111 C258.35159345 175.72059405 258.36542976 188.15537637 258.36370051 200.59025329 C258.36303596 207.57230783 258.36855693 214.55423207 258.39005661 221.53625679 C258.41013435 228.09850454 258.4096189 234.66052347 258.39502335 241.22280121 C258.39292433 243.63512765 258.39770061 246.04747101 258.40974426 248.4597683 C258.42508746 251.74491589 258.41596067 255.02909873 258.40048218 258.31422424 C258.4107693 259.2757903 258.42105643 260.23735636 258.43165529 261.22806078 C258.39148099 265.0683885 258.33244765 267.55973198 256.37510109 270.91404629 C253.90600586 272.29052734 253.90600586 272.29052734 245.90600586 272.29052734 C246.23600586 277.57052734 246.56600586 282.85052734 246.90600586 288.29052734 C248.88600586 288.29052734 250.86600586 288.29052734 252.90600586 288.29052734 C255.73950195 289.55029297 255.73950195 289.55029297 257.90600586 292.29052734 C258.66223208 296.23407416 258.60606468 300.12919379 258.57006836 304.13427734 C258.57485199 305.29552124 258.57963562 306.45676514 258.58456421 307.65319824 C258.58796577 310.1076798 258.5787457 312.5622065 258.55786133 315.01660156 C258.5311028 318.77690504 258.5576041 322.53422314 258.58959961 326.29443359 C258.58629556 328.67855478 258.57988944 331.0626741 258.57006836 333.44677734 C258.58018951 334.57289429 258.59031067 335.69901123 258.60073853 336.85925293 C258.58497772 337.90713989 258.56921692 338.95502686 258.55297852 340.03466797 C258.54900055 340.95526001 258.54502258 341.87585205 258.54092407 342.82434082 C257.62234153 346.39235294 256.02008369 347.42233889 252.90600586 349.29052734 C250.06486511 349.77154541 250.06486511 349.77154541 246.92236328 349.74462891 C245.74151657 349.74432678 244.56066986 349.74402466 243.34403992 349.74371338 C242.07929337 349.72306824 240.81454681 349.7024231 239.51147461 349.68115234 C237.55773674 349.67266266 237.55773674 349.67266266 235.56452942 349.66400146 C232.11354485 349.64878023 228.66324124 349.6095305 225.21252441 349.56518555 C221.68661713 349.52415592 218.16059905 349.50597416 214.63452148 349.48583984 C207.72473779 349.4430315 200.81540458 349.37482385 193.90600586 349.29052734 C193.93218994 350.23895508 193.95837402 351.18738281 193.98535156 352.16455078 C194.0706767 355.69074725 194.13330115 359.21584399 194.18066406 362.74267578 C194.20577689 364.26759165 194.23987469 365.7923875 194.28320312 367.31689453 C194.3440063 369.51153161 194.37224473 371.70457544 194.39428711 373.89990234 C194.42047119 375.21958008 194.44665527 376.53925781 194.47363281 377.89892578 C193.90600586 381.29052734 193.90600586 381.29052734 191.82983398 383.72802734 C188.18314518 385.67682564 185.76122158 385.74904941 181.63647461 385.68115234 C180.95547195 385.67549255 180.2744693 385.66983276 179.5728302 385.66400146 C177.41231941 385.64173215 175.2535094 385.59156053 173.09350586 385.54052734 C171.62282681 385.52044981 170.15212157 385.50220123 168.68139648 385.48583984 C165.08905336 385.4419006 161.4976958 385.3729419 157.90600586 385.29052734 C157.93218994 385.84514648 157.95837402 386.39976562 157.98535156 386.97119141 C158.08954589 389.49401304 158.15439477 392.01638223 158.21850586 394.54052734 C158.28134766 395.84957031 158.28134766 395.84957031 158.34545898 397.18505859 C158.46917781 403.66792518 158.46917781 403.66792518 155.57397461 406.86865234 C152.30200092 408.61242749 150.56423183 408.90023167 146.90600586 408.29052734 C145.25600586 406.97052734 143.60600586 405.65052734 141.90600586 404.29052734 C141.90600586 398.02052734 141.90600586 391.75052734 141.90600586 385.29052734 C126.06600586 385.29052734 110.22600586 385.29052734 93.90600586 385.29052734 C93.90600586 391.56052734 93.90600586 397.83052734 93.90600586 404.29052734 C88.90600586 408.29052734 88.90600586 408.29052734 85.90600586 408.79052734 C81.9872534 408.13740193 80.58221884 407.24915476 77.90600586 404.29052734 C77.2848487 401.02207554 77.43452043 397.85231621 77.59350586 394.54052734 C77.61606445 393.65236328 77.63862305 392.76419922 77.66186523 391.84912109 C77.72068034 389.66119923 77.80279318 387.47673063 77.90600586 385.29052734 C76.99310791 385.31147461 76.08020996 385.33242188 75.13964844 385.35400391 C71.73834051 385.42235451 68.33776687 385.47241063 64.93603516 385.51025391 C63.46651665 385.53031559 61.99707745 385.55757213 60.52783203 385.59228516 C58.41020099 385.64104876 56.29362899 385.66354895 54.17553711 385.68115234 C52.90299072 385.70209961 51.63044434 385.72304688 50.31933594 385.74462891 C46.2078136 385.19764146 44.5959965 384.44867252 41.90600586 381.29052734 C41.33837891 377.89892578 41.33837891 377.89892578 41.41772461 373.89990234 C41.42833672 372.84298187 41.42833672 372.84298187 41.43916321 371.76470947 C41.46707229 369.52221843 41.52979299 367.28225863 41.59350586 365.04052734 C41.61859375 363.51712601 41.64140608 361.99368538 41.66186523 360.47021484 C41.71688373 356.74283486 41.80312782 353.01692828 41.90600586 349.29052734 C41.17795242 349.29940979 40.44989899 349.30829224 39.69978333 349.31744385 C32.82899243 349.39768686 25.95827183 349.45854102 19.08713245 349.49777603 C15.55479204 349.51862577 12.02283972 349.54689413 8.49072266 349.59228516 C4.42729019 349.64417559 0.36426358 349.66349401 -3.69946289 349.68115234 C-4.96420944 349.70179749 -6.22895599 349.72244263 -7.5320282 349.74371338 C-8.71287491 349.7440155 -9.89372162 349.74431763 -11.11035156 349.74462891 C-12.14737717 349.75351135 -13.18440277 349.7623938 -14.25285339 349.77154541 C-17.91975115 349.15072292 -19.55511728 347.98603096 -22.09399414 345.29052734 C-22.72891235 342.82434082 -22.72891235 342.82434082 -22.7409668 340.03466797 C-22.7567276 338.98678101 -22.7724884 337.93889404 -22.78872681 336.85925293 C-22.77860565 335.73313599 -22.7684845 334.60701904 -22.75805664 333.44677734 C-22.76284027 332.28553345 -22.7676239 331.12428955 -22.77255249 329.92785645 C-22.77595405 327.47337489 -22.76673398 325.01884819 -22.74584961 322.56445312 C-22.71909108 318.80414965 -22.74559238 315.04683155 -22.77758789 311.28662109 C-22.77428384 308.90249991 -22.76787772 306.51838059 -22.75805664 304.13427734 C-22.7681778 303.0081604 -22.77829895 301.88204346 -22.78872681 300.72180176 C-22.67231738 292.98209991 -22.67231738 292.98209991 -19.80249023 289.55029297 C-17.09399414 288.29052734 -17.09399414 288.29052734 -13.09399414 288.29052734 C-13.09399414 283.01052734 -13.09399414 277.73052734 -13.09399414 272.29052734 C-15.40399414 271.96052734 -17.71399414 271.63052734 -20.09399414 271.29052734 C-22.1619777 268.18855201 -22.34472896 267.53466263 -22.35126305 264.02377033 C-22.35771194 263.14839849 -22.36416083 262.27302664 -22.37080514 261.37112838 C-22.36770794 260.40869584 -22.36461074 259.4462633 -22.36141968 258.45466614 C-22.36595079 257.43277575 -22.3704819 256.41088536 -22.37515032 255.35802859 C-22.38785934 251.91726994 -22.38616975 248.47666826 -22.38452148 245.03588867 C-22.39050278 242.57554927 -22.39730739 240.11521174 -22.40487671 237.65487671 C-22.42074544 231.65476827 -22.42698702 225.65472208 -22.42810147 219.65459845 C-22.42905147 214.77629997 -22.43315942 209.89801446 -22.43950272 205.01972008 C-22.45712171 191.18824361 -22.4663409 177.3567982 -22.46484177 163.52531043 C-22.46476186 162.77937254 -22.46468194 162.03343465 -22.46459961 161.26489258 C-22.46447697 160.1446186 -22.46447697 160.1446186 -22.46435185 159.00171282 C-22.46353942 146.90515024 -22.48266452 134.80871232 -22.51087634 122.71218578 C-22.53961668 110.29094698 -22.55341591 97.86976894 -22.55168879 85.44849604 C-22.55102514 78.47522673 -22.55650594 71.502088 -22.57804489 64.52884865 C-22.59817917 57.96825666 -22.59757112 51.40789312 -22.58301163 44.84727097 C-22.5809187 42.43985148 -22.58565308 40.03241488 -22.59773254 37.6250248 C-22.6131622 34.3367941 -22.60389083 31.04951684 -22.58847046 27.76130676 C-22.59875759 26.81002783 -22.60904471 25.8587489 -22.61964357 24.87864333 C-22.54585317 17.75110641 -20.86570205 12.45347037 -16.12915039 7.04833984 C-15.47817383 6.50951172 -14.82719727 5.97068359 -14.15649414 5.41552734 C-13.5080957 4.86123047 -12.85969727 4.30693359 -12.19165039 3.73583984 C-8.27218832 1.03527938 -4.73121246 0.0416944 0 0 Z " fill="#E0EAF3" transform="translate(138.093994140625,31.70947265625)"/>
<path d="M0 0 C0.98774918 -0.0127597 1.97549835 -0.02551941 2.99317932 -0.03866577 C4.04851364 -0.04089142 5.10384796 -0.04311707 6.19116211 -0.04541016 C7.83102333 -0.05539536 7.83102333 -0.05539536 9.50401306 -0.06558228 C11.81125203 -0.07569231 14.11852015 -0.08039981 16.42578125 -0.08007812 C19.95938938 -0.08446135 23.49175838 -0.12082753 27.02514648 -0.15869141 C29.26798076 -0.1645578 31.51082096 -0.16852838 33.75366211 -0.17041016 C34.81102066 -0.18478119 35.86837921 -0.19915222 36.95777893 -0.21395874 C44.23341957 -0.16848947 44.23341957 -0.16848947 47.56396484 2.10449219 C49.60051993 5.42181331 49.57405034 7.48267382 48.90600586 11.29052734 C45.54267931 15.04130093 43.30667027 16.57259083 38.24926758 16.88647461 C36.4447703 16.90047782 34.63995481 16.88929273 32.83569336 16.85693359 C31.39771896 16.86538551 31.39771896 16.86538551 29.93069458 16.87400818 C26.88029611 16.8904222 23.83135345 16.87493592 20.78100586 16.85302734 C17.72365632 16.83643484 14.66725786 16.82732355 11.6098938 16.84275818 C9.71118882 16.85204175 7.81228266 16.84286177 5.91378784 16.81312561 C5.05254303 16.81670578 4.19129822 16.82028595 3.30395508 16.82397461 C2.54927948 16.81777603 1.79460388 16.81157745 1.01705933 16.80519104 C-2.11240787 17.52466313 -3.1442925 18.74245015 -5.09399414 21.29052734 C-5.49013664 24.15984723 -5.64145342 26.64716814 -5.61297607 29.51617432 C-5.62047379 30.35062073 -5.6279715 31.18506714 -5.63569641 32.0447998 C-5.6560624 34.85384658 -5.64782445 37.66209204 -5.63989258 40.47119141 C-5.6486882 42.51419745 -5.65923365 44.55719659 -5.67139053 46.60018539 C-5.69914239 52.07802566 -5.7029013 57.55563841 -5.70175171 63.03353882 C-5.70429091 68.17120106 -5.72838572 73.30867311 -5.75073242 78.44628906 C-5.80351782 93.47764129 -5.8216307 108.50909907 -5.84399414 123.54052734 C-5.92649414 157.11802734 -6.00899414 190.69552734 -6.09399414 225.29052734 C75.74600586 225.29052734 157.58600586 225.29052734 241.90600586 225.29052734 C241.82350586 191.71302734 241.74100586 158.13552734 241.65600586 123.54052734 C241.64021484 112.92670898 241.62442383 102.31289062 241.6081543 91.37744141 C241.57494665 81.88789852 241.57494665 81.88789852 241.53643799 72.39837646 C241.51938864 68.16184937 241.51357625 63.92546444 241.51446533 59.68890381 C241.51523418 54.29032645 241.49704056 48.8921303 241.46491671 43.49365187 C241.45637241 41.50902411 241.45457782 39.52435353 241.46018171 37.53971529 C241.46678023 34.86474346 241.44902196 32.19102028 241.42498779 29.51617432 C241.43662901 28.34335718 241.43662901 28.34335718 241.4485054 27.14684677 C241.39440189 23.74977184 241.14798025 21.6468858 239.21947765 18.80675793 C236.37521963 16.94265437 234.75981432 16.7954661 231.37147522 16.80519104 C230.24570572 16.79850403 229.11993622 16.79181702 227.96005249 16.78492737 C226.72928986 16.79781296 225.49852722 16.81069855 224.23046875 16.82397461 C222.23569128 16.82043458 220.24091381 16.81689158 218.24613655 16.81323707 C216.1038845 16.81312312 213.96187251 16.82282746 211.81965828 16.8352375 C207.35259243 16.86035327 202.88590997 16.85407286 198.41880798 16.84275818 C187.32365702 16.81955604 176.22861661 16.83798437 165.13348389 16.86425781 C156.51028167 16.88420428 147.8873856 16.89278191 139.26418298 16.86732143 C134.82455597 16.85550705 130.38580077 16.86715542 125.94626439 16.89657414 C122.53440426 16.91295247 119.12281739 16.89711582 115.7109375 16.88647461 C114.4821991 16.90138443 113.25346069 16.91629425 111.98748779 16.93165588 C102.74299521 16.85378356 102.74299521 16.85378356 99.64085388 13.97593689 C97.35786284 10.44204466 97.23014423 8.42079286 97.90600586 4.29052734 C99.98225836 1.59033796 101.16620665 0.43154845 104.54666519 -0.21283722 C105.55762127 -0.21434532 106.56857735 -0.21585342 107.61016846 -0.21740723 C108.77367325 -0.22868652 109.93717804 -0.23996582 111.13594055 -0.25158691 C113.04514534 -0.23944153 113.04514534 -0.23944153 114.99291992 -0.22705078 C116.34997814 -0.23247242 117.70703047 -0.23959532 119.06407166 -0.24829102 C122.74828546 -0.26652971 126.43205127 -0.25945308 130.11627293 -0.24677467 C133.97627017 -0.23664142 137.83622926 -0.24604202 141.69622803 -0.25231934 C148.18272779 -0.25959831 154.66904546 -0.25000524 161.15551758 -0.23095703 C168.6423216 -0.20922434 176.12868927 -0.21621215 183.61548257 -0.23826265 C190.05049237 -0.2564535 196.48537125 -0.25895594 202.92039847 -0.24850798 C206.76040267 -0.24228848 210.60020232 -0.24139385 214.44019318 -0.25465393 C218.05517386 -0.26626435 221.66959648 -0.25809322 225.28451729 -0.2350769 C227.23432282 -0.22731815 229.18417589 -0.23910399 231.13395691 -0.25158691 C239.27380814 -0.17343485 244.85343892 0.73923611 251.14819336 6.25537109 C251.68702148 6.90634766 252.22584961 7.55732422 252.78100586 8.22802734 C253.33530273 8.87642578 253.88959961 9.52482422 254.46069336 10.19287109 C258.29200811 15.75345494 258.19453508 20.85710812 258.1734314 27.39381409 C258.17796251 28.42023559 258.18249362 29.44665709 258.18716204 30.50418228 C258.19983578 33.9480649 258.19818375 37.39178998 258.1965332 40.83569336 C258.20251644 43.30281783 258.20932151 45.76994043 258.21688843 48.23706055 C258.23273572 54.24491054 258.23899751 60.25269844 258.24011318 66.26056356 C258.24106375 71.14266245 258.24517444 76.02474839 258.25151443 80.90684319 C258.26912176 94.74676599 258.2783537 108.58665779 258.27685349 122.42659188 C258.27677357 123.17244986 258.27669366 123.91830784 258.27661133 124.68676758 C258.27652957 125.43353514 258.27644781 126.18030269 258.27636357 126.94969957 C258.27555004 139.06177012 258.29470579 151.1737165 258.32288806 163.28575111 C258.35159345 175.72059405 258.36542976 188.15537637 258.36370051 200.59025329 C258.36303596 207.57230783 258.36855693 214.55423207 258.39005661 221.53625679 C258.41013435 228.09850454 258.4096189 234.66052347 258.39502335 241.22280121 C258.39292433 243.63512765 258.39770061 246.04747101 258.40974426 248.4597683 C258.42508746 251.74491589 258.41596067 255.02909873 258.40048218 258.31422424 C258.4107693 259.2757903 258.42105643 260.23735636 258.43165529 261.22806078 C258.39148099 265.0683885 258.33244765 267.55973198 256.37510109 270.91404629 C253.90600586 272.29052734 253.90600586 272.29052734 245.90600586 272.29052734 C246.23600586 277.57052734 246.56600586 282.85052734 246.90600586 288.29052734 C248.88600586 288.29052734 250.86600586 288.29052734 252.90600586 288.29052734 C255.73950195 289.55029297 255.73950195 289.55029297 257.90600586 292.29052734 C258.66223208 296.23407416 258.60606468 300.12919379 258.57006836 304.13427734 C258.57485199 305.29552124 258.57963562 306.45676514 258.58456421 307.65319824 C258.58796577 310.1076798 258.5787457 312.5622065 258.55786133 315.01660156 C258.5311028 318.77690504 258.5576041 322.53422314 258.58959961 326.29443359 C258.58629556 328.67855478 258.57988944 331.0626741 258.57006836 333.44677734 C258.58018951 334.57289429 258.59031067 335.69901123 258.60073853 336.85925293 C258.58497772 337.90713989 258.56921692 338.95502686 258.55297852 340.03466797 C258.54900055 340.95526001 258.54502258 341.87585205 258.54092407 342.82434082 C257.62234153 346.39235294 256.02008369 347.42233889 252.90600586 349.29052734 C250.06486511 349.77154541 250.06486511 349.77154541 246.92236328 349.74462891 C245.74151657 349.74432678 244.56066986 349.74402466 243.34403992 349.74371338 C242.07929337 349.72306824 240.81454681 349.7024231 239.51147461 349.68115234 C237.55773674 349.67266266 237.55773674 349.67266266 235.56452942 349.66400146 C232.11354485 349.64878023 228.66324124 349.6095305 225.21252441 349.56518555 C221.68661713 349.52415592 218.16059905 349.50597416 214.63452148 349.48583984 C207.72473779 349.4430315 200.81540458 349.37482385 193.90600586 349.29052734 C193.93218994 350.23895508 193.95837402 351.18738281 193.98535156 352.16455078 C194.0706767 355.69074725 194.13330115 359.21584399 194.18066406 362.74267578 C194.20577689 364.26759165 194.23987469 365.7923875 194.28320312 367.31689453 C194.3440063 369.51153161 194.37224473 371.70457544 194.39428711 373.89990234 C194.42047119 375.21958008 194.44665527 376.53925781 194.47363281 377.89892578 C193.90600586 381.29052734 193.90600586 381.29052734 191.82983398 383.72802734 C188.18314518 385.67682564 185.76122158 385.74904941 181.63647461 385.68115234 C180.95547195 385.67549255 180.2744693 385.66983276 179.5728302 385.66400146 C177.41231941 385.64173215 175.2535094 385.59156053 173.09350586 385.54052734 C171.62282681 385.52044981 170.15212157 385.50220123 168.68139648 385.48583984 C165.08905336 385.4419006 161.4976958 385.3729419 157.90600586 385.29052734 C157.93218994 385.84514648 157.95837402 386.39976562 157.98535156 386.97119141 C158.08954589 389.49401304 158.15439477 392.01638223 158.21850586 394.54052734 C158.28134766 395.84957031 158.28134766 395.84957031 158.34545898 397.18505859 C158.46917781 403.66792518 158.46917781 403.66792518 155.57397461 406.86865234 C152.30200092 408.61242749 150.56423183 408.90023167 146.90600586 408.29052734 C145.25600586 406.97052734 143.60600586 405.65052734 141.90600586 404.29052734 C141.90600586 398.02052734 141.90600586 391.75052734 141.90600586 385.29052734 C126.06600586 385.29052734 110.22600586 385.29052734 93.90600586 385.29052734 C93.90600586 391.56052734 93.90600586 397.83052734 93.90600586 404.29052734 C88.90600586 408.29052734 88.90600586 408.29052734 85.90600586 408.79052734 C81.9872534 408.13740193 80.58221884 407.24915476 77.90600586 404.29052734 C77.2848487 401.02207554 77.43452043 397.85231621 77.59350586 394.54052734 C77.61606445 393.65236328 77.63862305 392.76419922 77.66186523 391.84912109 C77.72068034 389.66119923 77.80279318 387.47673063 77.90600586 385.29052734 C76.99310791 385.31147461 76.08020996 385.33242188 75.13964844 385.35400391 C71.73834051 385.42235451 68.33776687 385.47241063 64.93603516 385.51025391 C63.46651665 385.53031559 61.99707745 385.55757213 60.52783203 385.59228516 C58.41020099 385.64104876 56.29362899 385.66354895 54.17553711 385.68115234 C52.90299072 385.70209961 51.63044434 385.72304688 50.31933594 385.74462891 C46.2078136 385.19764146 44.5959965 384.44867252 41.90600586 381.29052734 C41.33837891 377.89892578 41.33837891 377.89892578 41.41772461 373.89990234 C41.42833672 372.84298187 41.42833672 372.84298187 41.43916321 371.76470947 C41.46707229 369.52221843 41.52979299 367.28225863 41.59350586 365.04052734 C41.61859375 363.51712601 41.64140608 361.99368538 41.66186523 360.47021484 C41.71688373 356.74283486 41.80312782 353.01692828 41.90600586 349.29052734 C41.17795242 349.29940979 40.44989899 349.30829224 39.69978333 349.31744385 C32.82899243 349.39768686 25.95827183 349.45854102 19.08713245 349.49777603 C15.55479204 349.51862577 12.02283972 349.54689413 8.49072266 349.59228516 C4.42729019 349.64417559 0.36426358 349.66349401 -3.69946289 349.68115234 C-4.96420944 349.70179749 -6.22895599 349.72244263 -7.5320282 349.74371338 C-8.71287491 349.7440155 -9.89372162 349.74431763 -11.11035156 349.74462891 C-12.14737717 349.75351135 -13.18440277 349.7623938 -14.25285339 349.77154541 C-17.91975115 349.15072292 -19.55511728 347.98603096 -22.09399414 345.29052734 C-22.72891235 342.82434082 -22.72891235 342.82434082 -22.7409668 340.03466797 C-22.7567276 338.98678101 -22.7724884 337.93889404 -22.78872681 336.85925293 C-22.77860565 335.73313599 -22.7684845 334.60701904 -22.75805664 333.44677734 C-22.76284027 332.28553345 -22.7676239 331.12428955 -22.77255249 329.92785645 C-22.77595405 327.47337489 -22.76673398 325.01884819 -22.74584961 322.56445312 C-22.71909108 318.80414965 -22.74559238 315.04683155 -22.77758789 311.28662109 C-22.77428384 308.90249991 -22.76787772 306.51838059 -22.75805664 304.13427734 C-22.7681778 303.0081604 -22.77829895 301.88204346 -22.78872681 300.72180176 C-22.67231738 292.98209991 -22.67231738 292.98209991 -19.80249023 289.55029297 C-17.09399414 288.29052734 -17.09399414 288.29052734 -13.09399414 288.29052734 C-13.09399414 283.01052734 -13.09399414 277.73052734 -13.09399414 272.29052734 C-15.40399414 271.96052734 -17.71399414 271.63052734 -20.09399414 271.29052734 C-22.1619777 268.18855201 -22.34472896 267.53466263 -22.35126305 264.02377033 C-22.35771194 263.14839849 -22.36416083 262.27302664 -22.37080514 261.37112838 C-22.36770794 260.40869584 -22.36461074 259.4462633 -22.36141968 258.45466614 C-22.36595079 257.43277575 -22.3704819 256.41088536 -22.37515032 255.35802859 C-22.38785934 251.91726994 -22.38616975 248.47666826 -22.38452148 245.03588867 C-22.39050278 242.57554927 -22.39730739 240.11521174 -22.40487671 237.65487671 C-22.42074544 231.65476827 -22.42698702 225.65472208 -22.42810147 219.65459845 C-22.42905147 214.77629997 -22.43315942 209.89801446 -22.43950272 205.01972008 C-22.45712171 191.18824361 -22.4663409 177.3567982 -22.46484177 163.52531043 C-22.46476186 162.77937254 -22.46468194 162.03343465 -22.46459961 161.26489258 C-22.46447697 160.1446186 -22.46447697 160.1446186 -22.46435185 159.00171282 C-22.46353942 146.90515024 -22.48266452 134.80871232 -22.51087634 122.71218578 C-22.53961668 110.29094698 -22.55341591 97.86976894 -22.55168879 85.44849604 C-22.55102514 78.47522673 -22.55650594 71.502088 -22.57804489 64.52884865 C-22.59817917 57.96825666 -22.59757112 51.40789312 -22.58301163 44.84727097 C-22.5809187 42.43985148 -22.58565308 40.03241488 -22.59773254 37.6250248 C-22.6131622 34.3367941 -22.60389083 31.04951684 -22.58847046 27.76130676 C-22.59875759 26.81002783 -22.60904471 25.8587489 -22.61964357 24.87864333 C-22.54585317 17.75110641 -20.86570205 12.45347037 -16.12915039 7.04833984 C-15.47817383 6.50951172 -14.82719727 5.97068359 -14.15649414 5.41552734 C-13.5080957 4.86123047 -12.85969727 4.30693359 -12.19165039 3.73583984 C-8.27218832 1.03527938 -4.73121246 0.0416944 0 0 Z " fill="#FB775D" transform="translate(138.093994140625,31.70947265625)"/>
<path d="M0 0 C2.30478129 0.02143983 4.60644665 0.00014062 6.91113281 -0.02539062 C22.02544153 -0.06305358 22.02544153 -0.06305358 27.30957031 4.52148438 C31.91219801 11.54759811 31.85693574 17.72388904 31.76126099 25.9644928 C31.75997373 27.32759198 31.76047837 28.69069382 31.76261127 30.05379194 C31.76347699 33.78493144 31.73962631 37.51556219 31.71178532 41.24658263 C31.68621572 45.27589626 31.68405629 49.3052275 31.6794281 53.33460999 C31.66865575 60.31248829 31.64440253 67.29021289 31.61203384 74.26802254 C31.56184948 85.29721435 31.55079284 96.32628421 31.54562378 107.35557556 C31.54334516 111.13104743 31.54076345 114.90651904 31.53805351 118.68199062 C31.53738 119.6254047 31.53670649 120.56881877 31.53601257 121.54082115 C31.52769721 132.27112335 31.5100956 143.00140492 31.48925781 153.73168945 C31.48736332 154.71223214 31.48546882 155.69277483 31.48351692 156.70303094 C31.45194547 172.60552412 31.39674206 188.50787769 31.33638979 204.41028351 C31.27536344 220.74267811 31.25269179 237.07484713 31.26233375 253.40735239 C31.2668019 263.4794706 31.23934444 273.55050108 31.17091505 283.62239253 C31.1266269 290.52144833 31.11845502 297.41994552 31.13877912 304.31911141 C31.14934337 308.30035921 31.14350134 312.27983418 31.09397316 316.26082611 C31.04893181 319.90657558 31.05005095 323.54930963 31.08766268 327.19511633 C31.09569155 329.13625618 31.05436899 331.07740701 31.0112325 333.01808411 C31.06243106 339.54884384 31.06243106 339.54884384 34.52202392 344.81700599 C37.04704943 346.59486808 39.58623795 348.07307542 42.30957031 349.52148438 C52.75805379 358.15547 60.03126736 370.10780724 62.30957031 383.52148438 C63.33633485 395.15740021 63.51142798 406.82877695 58.30957031 417.52148438 C57.85066406 418.483125 57.39175781 419.44476563 56.91894531 420.43554688 C51.49461177 431.02727184 44.13080268 439.11086819 33.30957031 444.52148438 C28.78367046 444.93802737 24.6431514 445.03221756 20.37207031 443.39648438 C17.25057984 440.55876576 15.5699276 437.54491602 15.02438354 433.30508423 C14.90061663 430.67188821 14.86849516 428.05211431 14.86816406 425.41601562 C14.84835228 423.97448372 14.84835228 423.97448372 14.82814026 422.50382996 C14.78738168 419.44718466 14.76560254 416.39083935 14.74707031 413.33398438 C14.72328398 410.26650814 14.69520128 407.19931434 14.6552887 404.13200378 C14.63092783 402.22675942 14.61607241 400.32136488 14.61167908 398.41596985 C14.59639915 397.12398933 14.59639915 397.12398933 14.58081055 395.8059082 C14.57439796 394.67056389 14.57439796 394.67056389 14.56785583 393.51228333 C14.41784644 391.20394163 14.41784644 391.20394163 12.30957031 388.52148438 C9.11831627 387.45773303 6.78486061 387.38812954 3.43457031 387.39648438 C2.40589844 387.39390625 1.37722656 387.39132812 0.31738281 387.38867188 C-2.47099411 387.51179501 -4.96846537 387.94259988 -7.69042969 388.52148438 C-7.69407532 389.09698029 -7.69772095 389.6724762 -7.70147705 390.26541138 C-7.74336484 396.26816852 -7.81275422 402.27016552 -7.89794922 408.27246094 C-7.92613331 410.51099028 -7.94736054 412.74961867 -7.96142578 414.98828125 C-7.98289017 418.21080131 -8.02956029 421.43213375 -8.08105469 424.65429688 C-8.08289764 426.14994675 -8.08289764 426.14994675 -8.08477783 427.67581177 C-8.20904758 433.60312333 -8.80272593 436.97375071 -12.69042969 441.52148438 C-15.65903592 444.35761731 -17.79625668 444.99563647 -21.87792969 445.08398438 C-28.26267304 444.89719667 -31.8797304 442.50673157 -36.69042969 438.52148438 C-37.7075 437.76158203 -37.7075 437.76158203 -38.74511719 436.98632812 C-48.75275686 429.06199087 -55.54208141 417.07148802 -57.69042969 404.52148438 C-59.48398685 387.60939218 -56.81482811 372.51258109 -46.69042969 358.52148438 C-38.05015466 348.55292827 -38.05015466 348.55292827 -33.68739295 346.64595014 C-31.21462627 345.52411356 -29.57226269 344.49302234 -27.69042969 342.52148438 C-26.46722497 338.18895881 -26.63894174 333.92209359 -26.71734619 329.44596863 C-26.71259046 328.08615449 -26.70431052 326.72634889 -26.69281077 325.36657506 C-26.67134371 321.63014726 -26.69966609 317.89549386 -26.73599792 314.15924203 C-26.76642746 310.12979762 -26.75063607 306.10050796 -26.74028015 302.07099915 C-26.7284967 295.08802064 -26.74553293 288.10558978 -26.78165436 281.12270164 C-26.83353071 271.0179669 -26.83750882 260.91364945 -26.82903251 250.80880562 C-26.8162007 234.40328814 -26.83611982 217.9979892 -26.87939453 201.5925293 C-26.88197717 200.61055241 -26.88455981 199.62857553 -26.88722071 198.61684177 C-26.8898084 197.63364832 -26.8923961 196.65045487 -26.89506221 195.63746768 C-26.93165924 181.70550342 -26.96052707 167.77355201 -26.97998047 153.84155273 C-26.98135687 152.86168104 -26.98273328 151.88180934 -26.98415139 150.87224456 C-27.00644557 134.5320674 -27.01257618 118.19190694 -27.01045394 101.85171586 C-27.01018943 91.77321658 -27.02646654 81.69498342 -27.06417218 71.61655317 C-27.08935968 64.70966136 -27.10104877 57.80283574 -27.10215983 50.8958983 C-27.10338851 46.91104832 -27.11135692 42.9264969 -27.13696098 38.94172287 C-27.16035211 35.29172204 -27.16529157 31.64217223 -27.15579483 27.99211315 C-27.15558642 26.05068078 -27.17522307 24.10927735 -27.19563127 22.16795224 C-27.15630279 15.1501341 -26.56999882 10.44460916 -22.69042969 4.52148438 C-16.40762837 -0.92947975 -7.85084871 -0.08697148 0 0 Z " fill="#2D4356" transform="translate(449.6904296875,27.478515625)"/>
<path d="M0 0 C1.13147461 -0.0038269 2.26294922 -0.00765381 3.42871094 -0.01159668 C5.81576428 -0.01431298 8.20284754 -0.00697167 10.58984375 0.00976562 C14.23765606 0.03117754 17.88349875 0.00995254 21.53125 -0.015625 C23.854171 -0.01298168 26.17709078 -0.00785661 28.5 0 C30.13146973 -0.01214539 30.13146973 -0.01214539 31.79589844 -0.02453613 C37.74879119 0.04895927 41.69552419 0.29148564 46.25 4.53125 C49.56534717 8.81009803 50.74912408 11.54271068 50.73101807 16.94735718 C50.73651672 18.21772827 50.74201538 19.48809937 50.74768066 20.79696655 C50.73352684 22.1919594 50.71898764 23.58694837 50.70410156 24.98193359 C50.70297247 26.46063201 50.70360816 27.93933267 50.70587158 29.41802979 C50.70701725 33.42187665 50.68353221 37.42524227 50.65557575 41.42897749 C50.63053732 45.61698421 50.62821818 49.80500249 50.62347412 53.99307251 C50.6110515 61.91907235 50.57823962 69.84485098 50.53807616 77.7707535 C50.49333619 86.79608264 50.47136583 95.82142244 50.45129442 104.8468349 C50.4095063 123.40843192 50.33916818 141.96982316 50.25 160.53125 C51.20608154 160.83160156 52.16216309 161.13195312 53.1472168 161.44140625 C57.80511207 163.07747868 60.03646822 166.10418643 62.25 170.53125 C62.54984725 175.10878014 62.52817228 179.69506623 62.5625 184.28125 C62.60600586 186.19550781 62.60600586 186.19550781 62.65039062 188.1484375 C62.71387016 197.50434503 62.71387016 197.50434503 60.60546875 202.171875 C56.78582975 205.99784839 53.87829276 208.36677598 48.3828125 208.921875 C47.04630978 208.89566906 45.71006588 208.84852076 44.375 208.78125 C43.68664062 208.76320312 42.99828125 208.74515625 42.2890625 208.7265625 C40.6087619 208.67988748 38.92918837 208.60815939 37.25 208.53125 C37.41890407 230.17860798 37.60955872 251.82568146 37.82505417 273.47262764 C37.92465703 283.52710213 38.01754072 293.58154919 38.09375 303.63623047 C38.16030893 312.41531739 38.24034661 321.19416851 38.33558011 329.97299278 C38.38540928 334.60732851 38.42916327 339.2415151 38.45668793 343.87604141 C38.57027881 362.36012952 38.83743813 380.47953755 42.06568527 398.72813606 C44.16669412 411.33311645 41.09012187 422.35640591 37.5 434.40625 C36.89845229 436.5806011 36.30208323 438.75639163 35.7109375 440.93359375 C34.29122126 446.15640463 32.77200595 451.33321274 31.25 456.53125 C20.03 456.53125 8.81 456.53125 -2.75 456.53125 C-3.91236802 453.04414595 -5.01792941 449.71717285 -5.92675781 446.18505859 C-6.23652557 444.98252945 -6.23652557 444.98252945 -6.55255127 443.75570679 C-7.47465739 440.10452468 -8.38378697 436.45029377 -9.28320312 432.79345703 C-9.75897695 430.87707378 -10.243933 428.96294558 -10.73828125 427.05126953 C-13.7553179 415.36831945 -15.75353428 406.38318662 -12.16146278 394.60078049 C-6.62753013 376.20149127 -7.00603136 357.79394217 -7.04110122 338.78035402 C-7.04426683 334.1866185 -7.01907509 329.59303104 -6.99714661 324.99935913 C-6.95997542 316.33731789 -6.94757473 307.67543351 -6.9445222 299.01332033 C-6.93980183 289.136261 -6.90678399 279.259356 -6.87162435 269.38236547 C-6.80004119 249.09867777 -6.76322967 228.81505435 -6.75 208.53125 C-7.90757813 208.57765625 -9.06515625 208.6240625 -10.2578125 208.671875 C-11.79684906 208.70941248 -13.3359137 208.74581051 -14.875 208.78125 C-15.63554687 208.81476563 -16.39609375 208.84828125 -17.1796875 208.8828125 C-22.55417 208.97547599 -25.46404299 208.05820181 -29.75 204.53125 C-34.49136566 199.72666613 -34.26972728 194.75061214 -34.296875 188.34375 C-34.28140625 187.085625 -34.2659375 185.8275 -34.25 184.53125 C-34.26546875 183.273125 -34.2809375 182.015 -34.296875 180.71875 C-34.24830788 169.25690918 -34.24830788 169.25690918 -29.75 164.53125 C-24.48684211 160.53125 -24.48684211 160.53125 -21.75 160.53125 C-21.75368717 159.76372091 -21.75737434 158.99619183 -21.76117325 158.20540428 C-21.84952378 139.52678001 -21.91570936 120.84819746 -21.95724869 102.1694088 C-21.97787092 93.13646311 -22.00598502 84.10365693 -22.05175781 75.07080078 C-22.09163598 67.19744098 -22.11743528 59.32418223 -22.12635398 51.45072424 C-22.13156709 47.28202851 -22.14381257 43.11362183 -22.17292023 38.94501877 C-22.20010495 35.01994257 -22.20843892 31.09527401 -22.20243073 27.17011261 C-22.20352961 25.73098408 -22.21146563 24.29184167 -22.2268219 22.85279465 C-22.24679338 20.88441631 -22.23953833 18.91581839 -22.23101807 16.94735718 C-22.23470524 15.84673635 -22.23839241 14.74611553 -22.24219131 13.61214256 C-21.44958521 8.65079079 -18.84411404 5.54976144 -15.234375 2.18945312 C-10.16268036 -0.22415043 -5.55045898 -0.04132008 0 0 Z " fill="#2D4356" transform="translate(33.75,27.46875)"/>
<path d="M0 0 C0.98774918 -0.0127597 1.97549835 -0.02551941 2.99317932 -0.03866577 C4.04851364 -0.04089142 5.10384796 -0.04311707 6.19116211 -0.04541016 C7.83102333 -0.05539536 7.83102333 -0.05539536 9.50401306 -0.06558228 C11.81125203 -0.07569231 14.11852015 -0.08039981 16.42578125 -0.08007812 C19.95938938 -0.08446135 23.49175838 -0.12082753 27.02514648 -0.15869141 C29.26798076 -0.1645578 31.51082096 -0.16852838 33.75366211 -0.17041016 C34.81102066 -0.18478119 35.86837921 -0.19915222 36.95777893 -0.21395874 C44.23341957 -0.16848947 44.23341957 -0.16848947 47.56396484 2.10449219 C49.60051993 5.42181331 49.57405034 7.48267382 48.90600586 11.29052734 C45.54267931 15.04130093 43.30667027 16.57259083 38.24926758 16.88647461 C36.4447703 16.90047782 34.63995481 16.88929273 32.83569336 16.85693359 C31.39771896 16.86538551 31.39771896 16.86538551 29.93069458 16.87400818 C26.88029611 16.8904222 23.83135345 16.87493592 20.78100586 16.85302734 C17.72365632 16.83643484 14.66725786 16.82732355 11.6098938 16.84275818 C9.71118882 16.85204175 7.81228266 16.84286177 5.91378784 16.81312561 C5.05254303 16.81670578 4.19129822 16.82028595 3.30395508 16.82397461 C2.54927948 16.81777603 1.79460388 16.81157745 1.01705933 16.80519104 C-2.11240787 17.52466313 -3.1442925 18.74245015 -5.09399414 21.29052734 C-5.49013664 24.15984723 -5.64145342 26.64716814 -5.61297607 29.51617432 C-5.62047379 30.35062073 -5.6279715 31.18506714 -5.63569641 32.0447998 C-5.6560624 34.85384658 -5.64782445 37.66209204 -5.63989258 40.47119141 C-5.6486882 42.51419745 -5.65923365 44.55719659 -5.67139053 46.60018539 C-5.69914239 52.07802566 -5.7029013 57.55563841 -5.70175171 63.03353882 C-5.70429091 68.17120106 -5.72838572 73.30867311 -5.75073242 78.44628906 C-5.80351782 93.47764129 -5.8216307 108.50909907 -5.84399414 123.54052734 C-5.92649414 157.11802734 -6.00899414 190.69552734 -6.09399414 225.29052734 C75.74600586 225.29052734 157.58600586 225.29052734 241.90600586 225.29052734 C241.82350586 191.71302734 241.74100586 158.13552734 241.65600586 123.54052734 C241.64021484 112.92670898 241.62442383 102.31289062 241.6081543 91.37744141 C241.57494665 81.88789852 241.57494665 81.88789852 241.53643799 72.39837646 C241.51938864 68.16184937 241.51357625 63.92546444 241.51446533 59.68890381 C241.51523418 54.29032645 241.49704056 48.8921303 241.46491671 43.49365187 C241.45637241 41.50902411 241.45457782 39.52435353 241.46018171 37.53971529 C241.46678023 34.86474346 241.44902196 32.19102028 241.42498779 29.51617432 C241.43662901 28.34335718 241.43662901 28.34335718 241.4485054 27.14684677 C241.39440189 23.74977184 241.14798025 21.6468858 239.21947765 18.80675793 C236.37521963 16.94265437 234.75981432 16.7954661 231.37147522 16.80519104 C230.24570572 16.79850403 229.11993622 16.79181702 227.96005249 16.78492737 C226.72928986 16.79781296 225.49852722 16.81069855 224.23046875 16.82397461 C222.23569128 16.82043458 220.24091381 16.81689158 218.24613655 16.81323707 C216.1038845 16.81312312 213.96187251 16.82282746 211.81965828 16.8352375 C207.35259243 16.86035327 202.88590997 16.85407286 198.41880798 16.84275818 C187.32365702 16.81955604 176.22861661 16.83798437 165.13348389 16.86425781 C156.51028167 16.88420428 147.8873856 16.89278191 139.26418298 16.86732143 C134.82455597 16.85550705 130.38580077 16.86715542 125.94626439 16.89657414 C122.53440426 16.91295247 119.12281739 16.89711582 115.7109375 16.88647461 C114.4821991 16.90138443 113.25346069 16.91629425 111.98748779 16.93165588 C102.74299521 16.85378356 102.74299521 16.85378356 99.64085388 13.97593689 C97.35786284 10.44204466 97.23014423 8.42079286 97.90600586 4.29052734 C99.98225836 1.59033796 101.16620665 0.43154845 104.54666519 -0.21283722 C105.55762127 -0.21434532 106.56857735 -0.21585342 107.61016846 -0.21740723 C108.77367325 -0.22868652 109.93717804 -0.23996582 111.13594055 -0.25158691 C113.04514534 -0.23944153 113.04514534 -0.23944153 114.99291992 -0.22705078 C116.34997814 -0.23247242 117.70703047 -0.23959532 119.06407166 -0.24829102 C122.74828546 -0.26652971 126.43205127 -0.25945308 130.11627293 -0.24677467 C133.97627017 -0.23664142 137.83622926 -0.24604202 141.69622803 -0.25231934 C148.18272779 -0.25959831 154.66904546 -0.25000524 161.15551758 -0.23095703 C168.6423216 -0.20922434 176.12868927 -0.21621215 183.61548257 -0.23826265 C190.05049237 -0.2564535 196.48537125 -0.25895594 202.92039847 -0.24850798 C206.76040267 -0.24228848 210.60020232 -0.24139385 214.44019318 -0.25465393 C218.05517386 -0.26626435 221.66959648 -0.25809322 225.28451729 -0.2350769 C227.23432282 -0.22731815 229.18417589 -0.23910399 231.13395691 -0.25158691 C239.27380814 -0.17343485 244.85343892 0.73923611 251.14819336 6.25537109 C251.68702148 6.90634766 252.22584961 7.55732422 252.78100586 8.22802734 C253.33530273 8.87642578 253.88959961 9.52482422 254.46069336 10.19287109 C258.29200811 15.75345494 258.19453508 20.85710812 258.1734314 27.39381409 C258.17796251 28.42023559 258.18249362 29.44665709 258.18716204 30.50418228 C258.19983578 33.9480649 258.19818375 37.39178998 258.1965332 40.83569336 C258.20251644 43.30281783 258.20932151 45.76994043 258.21688843 48.23706055 C258.23273572 54.24491054 258.23899751 60.25269844 258.24011318 66.26056356 C258.24106375 71.14266245 258.24517444 76.02474839 258.25151443 80.90684319 C258.26912176 94.74676599 258.2783537 108.58665779 258.27685349 122.42659188 C258.27677357 123.17244986 258.27669366 123.91830784 258.27661133 124.68676758 C258.27652957 125.43353514 258.27644781 126.18030269 258.27636357 126.94969957 C258.27555004 139.06177012 258.29470579 151.1737165 258.32288806 163.28575111 C258.35159345 175.72059405 258.36542976 188.15537637 258.36370051 200.59025329 C258.36303596 207.57230783 258.36855693 214.55423207 258.39005661 221.53625679 C258.41013435 228.09850454 258.4096189 234.66052347 258.39502335 241.22280121 C258.39292433 243.63512765 258.39770061 246.04747101 258.40974426 248.4597683 C258.42508746 251.74491589 258.41596067 255.02909873 258.40048218 258.31422424 C258.4107693 259.2757903 258.42105643 260.23735636 258.43165529 261.22806078 C258.36430268 267.66640809 258.36430268 267.66640809 256.00229836 270.88304043 C252.43688397 273.2769211 250.13320542 272.76021618 245.90600586 272.29052734 C243.23169097 270.47889467 242.94680227 269.41291658 241.90600586 266.29052734 C241.90600586 257.71052734 241.90600586 249.13052734 241.90600586 240.29052734 C160.06600586 240.29052734 78.22600586 240.29052734 -6.09399414 240.29052734 C-6.09399414 248.87052734 -6.09399414 257.45052734 -6.09399414 266.29052734 C-9.09399414 271.29052734 -9.09399414 271.29052734 -11.21508789 272.13818359 C-11.97950195 272.20908203 -12.74391602 272.27998047 -13.53149414 272.35302734 C-14.67424805 272.49417969 -14.67424805 272.49417969 -15.84008789 272.63818359 C-18.09399414 272.29052734 -18.09399414 272.29052734 -20.20311737 270.89105606 C-23.10312211 266.90267051 -22.6466999 263.14886636 -22.60192871 258.33441162 C-22.60816867 257.31166681 -22.61440864 256.28892199 -22.62083769 255.23518491 C-22.63683224 251.79734535 -22.62413759 248.36020849 -22.61157227 244.92236328 C-22.61699062 242.46187424 -22.62411166 240.00138844 -22.6328125 237.54090881 C-22.64918704 231.54419932 -22.64675027 225.547767 -22.63516194 219.55106822 C-22.62613054 214.67564304 -22.62490234 209.80027397 -22.6292572 204.92484283 C-22.62987013 204.23107891 -22.63048307 203.53731498 -22.63111457 202.8225279 C-22.63239348 201.41313287 -22.63369033 200.00373786 -22.63500494 198.59434286 C-22.64641612 185.37218123 -22.6332904 172.15013045 -22.61180347 158.92798701 C-22.59394775 147.58963102 -22.59702289 136.25143893 -22.61547852 124.91308594 C-22.63690301 111.74463841 -22.64530081 98.57628823 -22.63302946 85.40782571 C-22.63175529 84.00237546 -22.6304978 82.59692519 -22.6292572 81.19147491 C-22.62833155 80.15424587 -22.62833155 80.15424587 -22.6273872 79.0960627 C-22.62393784 74.23011245 -22.62975401 69.36422406 -22.63917542 64.49828339 C-22.65159095 57.9417567 -22.64270207 51.38549096 -22.61959839 44.82897758 C-22.61431211 42.42317912 -22.61582364 40.01735463 -22.62464905 37.61156654 C-22.63559122 34.32555322 -22.62185535 31.04052812 -22.60192871 27.75457764 C-22.6108516 26.80398082 -22.61977448 25.85338401 -22.62896776 24.87398124 C-22.54528708 17.75181895 -20.86244996 12.44975923 -16.12915039 7.04833984 C-15.47817383 6.50951172 -14.82719727 5.97068359 -14.15649414 5.41552734 C-13.5080957 4.86123047 -12.85969727 4.30693359 -12.19165039 3.73583984 C-8.27218832 1.03527938 -4.73121246 0.0416944 0 0 Z " fill="#2D4356" transform="translate(138.093994140625,31.70947265625)"/>
<path d="M0 0 C8.58 0 17.16 0 26 0 C26 111.21 26 222.42 26 337 C27.98 337.66 29.96 338.32 32 339 C43.06287114 344.20605701 50.41834895 352.34370619 55.125 363.5546875 C58.88134087 374.05231867 58.10454308 385.8528775 53.70703125 396.00390625 C50.86845884 400.98602305 47.22177877 405.13585125 43 409 C42.67 409 42.34 409 42 409 C42.00112793 407.87094238 42.00225586 406.74188477 42.00341797 405.57861328 C41.99971779 401.34748395 41.9566616 397.1174758 41.90234375 392.88671875 C41.88429258 391.06355055 41.8765953 389.24024678 41.87988281 387.41699219 C42.18832756 372.5476933 42.18832756 372.5476933 35 360 C28.16192215 355.29209646 21.40004407 354.77637411 13.3125 354.6875 C12.02182617 354.64399414 12.02182617 354.64399414 10.70507812 354.59960938 C3.93396761 354.53327596 -2.29221821 355.80445841 -7.55688477 360.34179688 C-13.09413346 366.52004954 -14.44595086 372.81922181 -14.51171875 380.77734375 C-14.52966995 381.58869278 -14.54762115 382.40004181 -14.56611633 383.23597717 C-14.61988463 385.80310008 -14.65400616 388.3700407 -14.6875 390.9375 C-14.72070276 392.68817623 -14.75519513 394.4388285 -14.79101562 396.18945312 C-14.87559126 400.45950314 -14.94256074 404.72950225 -15 409 C-24.82749592 400.91822225 -30.04319725 392.6861513 -31.31640625 379.796875 C-31.77429109 367.33059102 -27.43460746 356.94987877 -19 347.83984375 C-13.18607545 342.2854694 -9.04472858 340.65669481 -1 337 C-0.67 225.79 -0.34 114.58 0 0 Z " fill="#E0EAF3" transform="translate(439,44)"/>
<path d="M0 0 C2.19042969 1.49121094 2.19042969 1.49121094 4 4 C4.55086042 7.0517159 4.46535094 10.04842923 4.390625 13.140625 C4.38496521 14.02280701 4.37930542 14.90498901 4.37347412 15.81390381 C4.35111591 18.62649213 4.30092132 21.43779795 4.25 24.25 C4.22993425 26.15883574 4.21168361 28.06769149 4.1953125 29.9765625 C4.151253 34.65153445 4.08222984 39.32554992 4 44 C4.72805344 43.98889694 5.45610687 43.97779388 6.20622253 43.96635437 C13.07696127 43.86605137 19.94759018 43.78998393 26.81887341 43.74093914 C30.35132845 43.71487612 33.88317713 43.67954134 37.4152832 43.62280273 C41.47873661 43.55793936 45.54155598 43.53379268 49.60546875 43.51171875 C50.8702153 43.48591232 52.13496185 43.4601059 53.43803406 43.43351746 C54.61888077 43.4331398 55.79972748 43.43276215 57.01635742 43.43237305 C58.57189583 43.41571846 58.57189583 43.41571846 60.15885925 43.39872742 C63 44 63 44 68 49 C68 59.23 68 69.46 68 80 C107.6 80 147.2 80 188 80 C188 69.77 188 59.54 188 49 C193 44 193 44 195.84114075 43.39872742 C196.87816635 43.40983047 197.91519196 43.42093353 198.98364258 43.43237305 C200.75491264 43.43293953 200.75491264 43.43293953 202.56196594 43.43351746 C204.45908577 43.4722271 204.45908577 43.4722271 206.39453125 43.51171875 C208.34826912 43.52233086 208.34826912 43.52233086 210.34147644 43.53315735 C213.79263884 43.55218487 217.24273739 43.60124561 220.69348145 43.65667725 C224.21933604 43.70796351 227.74536373 43.73069117 231.27148438 43.75585938 C238.18142469 43.80937102 245.09066117 43.89463028 252 44 C251.97381592 42.81446533 251.94763184 41.62893066 251.9206543 40.4074707 C251.83000979 36.00011134 251.77269912 31.592834 251.7253418 27.18481445 C251.70023001 25.27874893 251.66613355 23.37277941 251.62280273 21.46704102 C251.56200256 18.72388002 251.53375755 15.98199414 251.51171875 13.23828125 C251.48591232 12.38913651 251.4601059 11.53999176 251.43351746 10.66511536 C251.43144994 6.28295632 251.58256658 4.54200665 254.34301758 0.95776367 C257 -1 257 -1 260 -1.5625 C263.97690491 -0.81683033 265.31589665 -0.08440833 268 3 C268.77521979 6.93807219 268.70003727 10.84106513 268.6640625 14.84375 C268.66884613 16.0049939 268.67362976 17.16623779 268.67855835 18.3626709 C268.68195991 20.81715245 268.67273984 23.27167916 268.65185547 25.72607422 C268.62509694 29.4863777 268.65159824 33.24369579 268.68359375 37.00390625 C268.6802897 39.38802743 268.67388358 41.77214676 268.6640625 44.15625 C268.67418365 45.28236694 268.68430481 46.40848389 268.69473267 47.56872559 C268.67897186 48.61661255 268.66321106 49.66449951 268.64697266 50.74414062 C268.64299469 51.66473267 268.63901672 52.58532471 268.63491821 53.53381348 C267.71633567 57.1018256 266.11407783 58.13181155 263 60 C260.15885925 60.48101807 260.15885925 60.48101807 257.01635742 60.45410156 C255.83551071 60.45379944 254.654664 60.45349731 253.43803406 60.45318604 C252.17328751 60.43254089 250.90854095 60.41189575 249.60546875 60.390625 C248.30297684 60.38496521 247.00048492 60.37930542 245.65852356 60.37347412 C242.20753899 60.35825289 238.75723538 60.31900316 235.30651855 60.2746582 C231.78061127 60.23362858 228.25459319 60.21544682 224.72851562 60.1953125 C217.81873193 60.15250415 210.90939872 60.08429651 204 60 C204.02618408 60.94842773 204.05236816 61.89685547 204.0793457 62.87402344 C204.16467084 66.4002199 204.22729529 69.92531665 204.2746582 73.45214844 C204.29977103 74.9770643 204.33386883 76.50186015 204.37719727 78.02636719 C204.43800044 80.22100426 204.46623887 82.4140481 204.48828125 84.609375 C204.51446533 85.92905273 204.54064941 87.24873047 204.56762695 88.60839844 C204 92 204 92 201.92382812 94.4375 C198.27713932 96.38629829 195.85521572 96.45852207 191.73046875 96.390625 C191.04946609 96.38496521 190.36846344 96.37930542 189.66682434 96.37347412 C187.50631355 96.35120481 185.34750354 96.30103318 183.1875 96.25 C181.71682095 96.22992247 180.24611571 96.21167389 178.77539062 96.1953125 C175.1830475 96.15137326 171.59168994 96.08241456 168 96 C168.02618408 96.55461914 168.05236816 97.10923828 168.0793457 97.68066406 C168.18354003 100.20348569 168.24838891 102.72585489 168.3125 105.25 C168.3753418 106.55904297 168.3753418 106.55904297 168.43945312 107.89453125 C168.56317195 114.37739784 168.56317195 114.37739784 165.66796875 117.578125 C162.39599506 119.32190014 160.65822597 119.60970433 157 119 C155.35 117.68 153.7 116.36 152 115 C152 108.73 152 102.46 152 96 C136.16 96 120.32 96 104 96 C104 102.27 104 108.54 104 115 C99 119 99 119 96 119.5 C92.08124754 118.84687459 90.67621298 117.95862741 88 115 C87.37884284 111.7315482 87.52851457 108.56178887 87.6875 105.25 C87.71005859 104.36183594 87.73261719 103.47367187 87.75585938 102.55859375 C87.81467448 100.37067188 87.89678732 98.18620329 88 96 C87.08710205 96.02094727 86.1742041 96.04189453 85.23364258 96.06347656 C81.83233465 96.13182717 78.43176101 96.18188329 75.0300293 96.21972656 C73.56051079 96.23978825 72.09107159 96.26704478 70.62182617 96.30175781 C68.50419513 96.35052141 66.38762313 96.37302161 64.26953125 96.390625 C62.99698486 96.41157227 61.72443848 96.43251953 60.41333008 96.45410156 C56.30180774 95.90711411 54.68999064 95.15814517 52 92 C51.43237305 88.60839844 51.43237305 88.60839844 51.51171875 84.609375 C51.51879349 83.90476135 51.52586823 83.20014771 51.53315735 82.47418213 C51.56106643 80.23169109 51.62378713 77.99173129 51.6875 75.75 C51.71258789 74.22659866 51.73540022 72.70315803 51.75585938 71.1796875 C51.81087787 67.45230751 51.89712196 63.72640094 52 60 C51.27194656 60.00888245 50.54389313 60.01776489 49.79377747 60.0269165 C42.92298657 60.10715951 36.05226597 60.16801368 29.18112659 60.20724869 C25.64878618 60.22809843 22.11683387 60.25636679 18.5847168 60.30175781 C14.52128433 60.35364825 10.45825772 60.37296666 6.39453125 60.390625 C5.1297847 60.41127014 3.86503815 60.43191528 2.56196594 60.45318604 C1.38111923 60.45348816 0.20027252 60.45379028 -1.01635742 60.45410156 C-2.57189583 60.46742523 -2.57189583 60.46742523 -4.15885925 60.48101807 C-7.82575701 59.86019558 -9.46112314 58.69550361 -12 56 C-12.63491821 53.53381348 -12.63491821 53.53381348 -12.64697266 50.74414062 C-12.66273346 49.69625366 -12.67849426 48.6483667 -12.69473267 47.56872559 C-12.68461151 46.44260864 -12.67449036 45.3164917 -12.6640625 44.15625 C-12.66884613 42.9950061 -12.67362976 41.83376221 -12.67855835 40.6373291 C-12.68195991 38.18284755 -12.67273984 35.72832084 -12.65185547 33.27392578 C-12.62509694 29.5136223 -12.65159824 25.75630421 -12.68359375 21.99609375 C-12.6802897 19.61197257 -12.67388358 17.22785324 -12.6640625 14.84375 C-12.67418365 13.71763306 -12.68430481 12.59151611 -12.69473267 11.43127441 C-12.57819837 3.68327 -12.57819837 3.68327 -9.68115234 0.25976562 C-5.97814611 -1.48012803 -3.89400389 -1.13280113 0 0 Z " fill="#2D4355" transform="translate(128,321)"/>
<path d="M0 0 C13.2 0 26.4 0 40 0 C40 47.52 40 95.04 40 144 C26.8 144 13.6 144 0 144 C0 96.48 0 48.96 0 0 Z " fill="#FC785E" transform="translate(28,44)"/>
<path d="M0 0 C81.84 0 163.68 0 248 0 C248 5.61 248 11.22 248 17 C166.16 17 84.32 17 0 17 C0 11.39 0 5.78 0 0 Z " fill="#F5917F" transform="translate(132,272)"/>
<path d="M0 0 C81.84 0 163.68 0 248 0 C248 5.28 248 10.56 248 16 C166.16 16 84.32 16 0 16 C0 10.72 0 5.44 0 0 Z " fill="#BDC5CC" transform="translate(132,241)"/>
<path d="M0 0 C3.96 0 7.92 0 12 0 C12.00146656 0.84093862 12.00293312 1.68187723 12.00444412 2.54829884 C12.04171252 23.13713413 12.10098844 43.72580742 12.18390274 64.3145113 C12.22348673 74.2716068 12.2559829 84.22862563 12.27099609 94.18579102 C12.28412083 102.87797411 12.31135581 111.56998703 12.35461307 120.26207417 C12.37698816 124.85222346 12.39292539 129.44216478 12.39188385 134.03237343 C12.39186955 151.77521185 12.45494027 169.10538399 15.69601822 186.61614704 C17.30480327 195.37360948 16.57175273 202.40133023 14.37109375 211.00390625 C14.05849609 212.23818359 13.74589844 213.47246094 13.42382812 214.74414062 C13.09833984 216.00419922 12.77285156 217.26425781 12.4375 218.5625 C12.10426583 219.87030221 11.77157937 221.17824411 11.43945312 222.48632812 C10.6316604 225.65896331 9.81838245 228.8300831 9 232 C6.36 232 3.72 232 1 232 C0.75765625 231.030625 0.5153125 230.06125 0.265625 229.0625 C0.10529785 228.42280273 -0.0550293 227.78310547 -0.22021484 227.12402344 C-0.57776253 225.69053731 -0.93218268 224.25626796 -1.28369141 222.82128906 C-2.19431318 219.12244165 -3.14518497 215.44975793 -4.2265625 211.796875 C-6.93963387 202.422606 -6.95344864 195.59173195 -4.51175642 186.10252786 C-1.6090189 174.70894538 -0.41265301 164.08513911 -0.45410156 152.35107422 C-0.44533617 150.67355404 -0.43484027 148.99604217 -0.42277527 147.31854248 C-0.39525702 142.82794767 -0.3915029 138.33763021 -0.39249516 133.84696341 C-0.38933621 129.13042805 -0.36365693 124.41401229 -0.34051514 119.69754028 C-0.30017762 110.79456701 -0.27966716 101.89166657 -0.26654124 92.98861611 C-0.25059522 82.84080579 -0.21214819 72.69311809 -0.17194796 62.5453794 C-0.08985399 41.69696021 -0.03557202 20.84854714 0 0 Z " fill="#DBE6EF" transform="translate(43,236)"/>
<path d="M0 0 C2.046875 1.39453125 2.046875 1.39453125 3.9375 2.9375 C4.90429688 3.71673828 4.90429688 3.71673828 5.890625 4.51171875 C11.12995647 9.23372127 14.30563195 14.5469942 15.31640625 21.5703125 C15.67462104 29.68214428 13.61370922 37.70933921 8.75 44.3125 C0.96791788 51.57577665 -6.88831277 53.40882728 -17.31640625 53.22265625 C-22.09956596 52.85855754 -25.20862272 51.70537196 -29.0625 48.9375 C-30.3928125 48.07125 -30.3928125 48.07125 -31.75 47.1875 C-38.02531232 41.08179072 -41.07887701 33.87593224 -41.5 25.1875 C-41.33809942 17.02163962 -38.24659213 11.00033232 -32.75 5.0625 C-23.97992162 -2.83057054 -10.95135024 -5.6826594 0 0 Z " fill="#304456" transform="translate(269.0625,303.0625)"/>
<path d="M0 0 C1.94951569 -0.0131424 1.94951569 -0.0131424 3.93841553 -0.02655029 C7.49643086 -0.0493129 11.05371998 -0.04052065 14.61174774 -0.02465487 C18.33835277 -0.01197976 22.06489639 -0.02374043 25.79150391 -0.03158569 C32.049267 -0.04067763 38.30673487 -0.02870657 44.56445312 -0.00488281 C51.79524456 0.02232795 59.02533107 0.01351344 66.25610542 -0.01401484 C72.46860849 -0.03671816 78.68089956 -0.03990013 84.89343071 -0.02682149 C88.60202461 -0.01903356 92.31028735 -0.01796685 96.01885986 -0.03450394 C100.15362165 -0.05165418 104.28717175 -0.02787354 108.421875 0 C110.26262604 -0.01518173 110.26262604 -0.01518173 112.14056396 -0.03067017 C121.36854774 0.08476002 121.36854774 0.08476002 124.47477722 3.06013489 C126.17149624 5.58820611 126.82034429 6.65556563 126.69921875 9.63525391 C126.68310547 10.34101562 126.66699219 11.04677734 126.65039062 11.77392578 C126.60849609 12.49515625 126.56660156 13.21638672 126.5234375 13.95947266 C126.48959961 15.07032227 126.48959961 15.07032227 126.45507812 16.20361328 C126.396519 18.01894623 126.30684636 19.83322946 126.2109375 21.64697266 C125.7778125 21.17259766 125.3446875 20.69822266 124.8984375 20.20947266 C121.83962631 17.37724007 118.79529532 17.51936596 114.82789612 17.50894165 C113.71047028 17.50348831 112.59304443 17.49803497 111.4417572 17.49241638 C109.60188988 17.49085289 109.60188988 17.49085289 107.72485352 17.48925781 C105.74280936 17.48145893 103.76076522 17.47365599 101.77872169 17.46569991 C99.64746601 17.45798584 97.51621462 17.45260352 95.38495064 17.44774246 C90.94351882 17.43706116 86.50216312 17.41681678 82.06077576 17.3946228 C69.43109619 17.3327003 56.80142142 17.27866229 44.17163086 17.24560547 C37.19656783 17.22726902 30.22163261 17.19834769 23.24666351 17.15760076 C19.55548299 17.13651841 15.86446359 17.12107174 12.17321968 17.11879349 C8.05743884 17.11625013 3.94210691 17.09080444 -0.17358398 17.06347656 C-2.01041496 17.06798576 -2.01041496 17.06798576 -3.88435364 17.07258606 C-5.56472214 17.05594658 -5.56472214 17.05594658 -7.27903748 17.03897095 C-8.73884364 17.03400573 -8.73884364 17.03400573 -10.22814083 17.0289402 C-13.22415691 16.58207729 -14.593237 15.69789111 -16.7890625 13.64697266 C-17.57421875 11.77978516 -17.57421875 11.77978516 -17.8515625 9.77197266 C-17.96628906 9.11455078 -18.08101562 8.45712891 -18.19921875 7.77978516 C-17.69062351 5.13508991 -16.61158286 3.57715853 -14.6714325 1.72816849 C-10.33003879 -0.76544158 -4.85696128 -0.04005815 0 0 Z " fill="#EFF4F9" transform="translate(253.7890625,47.35302734375)"/>
<path d="M0 0 C39.6 0 79.2 0 120 0 C120 5.28 120 10.56 120 16 C80.4 16 40.8 16 0 16 C0 10.72 0 5.44 0 0 Z " fill="#CD614F" transform="translate(196,385)"/>
<path d="M0 0 C1.05701111 0.01110306 2.11402222 0.02220612 3.20306396 0.03364563 C4.40400696 0.03402328 5.60494995 0.03440094 6.84228516 0.03479004 C8.13406677 0.06059647 9.42584839 0.08640289 10.7567749 0.11299133 C12.09625935 0.12232166 13.43576091 0.12943674 14.77526855 0.13442993 C18.29383801 0.15348336 21.81136865 0.20256695 25.32952881 0.25794983 C28.92232206 0.3091798 32.51528386 0.33195179 36.1083374 0.35713196 C43.15307279 0.41068974 50.19693408 0.49861024 57.2411499 0.60127258 C57.2411499 5.88127258 57.2411499 11.16127258 57.2411499 16.60127258 C55.48004883 16.61061829 53.71894775 16.61996399 51.90447998 16.6295929 C46.07687856 16.66515608 40.24959842 16.71897687 34.4222765 16.78517532 C30.89012138 16.82463542 27.35821498 16.85683063 23.8258667 16.87226868 C19.76206642 16.89035099 15.69919519 16.94030778 11.63568115 16.99189758 C10.3709346 16.99312622 9.10618805 16.99435486 7.80311584 16.99562073 C6.62226913 17.01533936 5.44142242 17.03505798 4.22479248 17.05537415 C2.66925407 17.06869781 2.66925407 17.06869781 1.08229065 17.08229065 C-2.43944411 17.72559448 -4.16211728 19.20013666 -6.7588501 21.60127258 C-6.86730041 19.03762776 -6.94634754 16.47860979 -7.0088501 13.91377258 C-7.04236572 13.19254211 -7.07588135 12.47131165 -7.1104126 11.72822571 C-7.12330322 11.02246399 -7.13619385 10.31670227 -7.1494751 9.58955383 C-7.17042236 8.94542542 -7.19136963 8.301297 -7.21295166 7.63764954 C-6.30203627 3.55273271 -4.09251207 0.89193512 0 0 Z " fill="#CE614F" transform="translate(322.75885009765625,348.3987274169922)"/>
<path d="M0 0 C7.7538968 -0.11300522 15.50734297 -0.20471725 23.26183701 -0.25906086 C26.86269496 -0.28514472 30.46295992 -0.32051793 34.06347656 -0.37719727 C37.53890041 -0.43156439 41.01375432 -0.46142966 44.48957062 -0.47438622 C46.45952674 -0.48810817 48.42925382 -0.52713486 50.39886475 -0.56648254 C52.20027924 -0.56704903 52.20027924 -0.56704903 54.03808594 -0.56762695 C55.09509705 -0.57873001 56.15210815 -0.58983307 57.2411499 -0.60127258 C60 0 60 0 62.34423828 2.40820312 C63.98026366 4.96910631 64.48688961 6.02814434 64.390625 8.98828125 C64.37773437 9.69404297 64.36484375 10.39980469 64.3515625 11.12695312 C64.31804687 11.84818359 64.28453125 12.56941406 64.25 13.3125 C64.23195313 14.05306641 64.21390625 14.79363281 64.1953125 15.55664062 C64.14847337 17.3716571 64.07673789 19.18600166 64 21 C63.29841263 20.35125916 62.59682526 19.70251831 61.87397766 19.03411865 C58.56537404 16.69238426 57.01546107 16.48835513 53.01635742 16.45410156 C51.83551071 16.43438293 50.654664 16.41466431 49.43803406 16.39434814 C47.54091423 16.39250519 47.54091423 16.39250519 45.60546875 16.390625 C44.30297684 16.37408875 43.00048492 16.35755249 41.65852356 16.34051514 C38.20784617 16.2969265 34.75742258 16.27686188 31.30651855 16.26177979 C27.78036545 16.24217763 24.25448521 16.20021131 20.72851562 16.16015625 C13.81908642 16.08494652 6.90974017 16.03666819 0 16 C0 10.72 0 5.44 0 0 Z " fill="#CE614F" transform="translate(132,349)"/>
<path d="M0 0 C21.12 0 42.24 0 64 0 C64 5.28 64 10.56 64 16 C42.88 16 21.76 16 0 16 C0 10.72 0 5.44 0 0 Z " fill="#AE6E43" transform="translate(16,204)"/>
<path d="M0 0 C1.47339088 -0.00361794 1.47339088 -0.00361794 2.97654724 -0.00730896 C5.04845222 -0.00633138 7.12038359 0.0070409 9.19213867 0.03198242 C12.36401963 0.06632965 15.53312006 0.05262679 18.70507812 0.03320312 C20.72006394 0.04010064 22.73504258 0.04977217 24.75 0.0625 C26.17198448 0.0550602 26.17198448 0.0550602 27.62269592 0.04747009 C34.1675802 0.16465242 34.1675802 0.16465242 37.37084961 2.48461914 C39.31174319 5.37931575 39.87870867 7.12316012 39.80859375 10.62890625 C36.48410634 16.19633291 36.48410634 16.19633291 32.68136597 17.17810059 C30.04975711 17.38725444 27.47551939 17.40717863 24.8359375 17.36328125 C23.39584068 17.37672577 23.39584068 17.37672577 21.926651 17.39044189 C18.86583554 17.41451868 15.80691361 17.3986333 12.74609375 17.37890625 C9.68220225 17.38034865 6.61865115 17.39022027 3.55482483 17.41021729 C1.65058455 17.42041466 -0.25376535 17.41869788 -2.15797424 17.40374756 C-3.02244675 17.4042511 -3.88691925 17.40475464 -4.77758789 17.40527344 C-5.9141256 17.3981131 -5.9141256 17.3981131 -7.07362366 17.39080811 C-9.5487289 17.66907934 -11.0914196 18.29618542 -13.19140625 19.62890625 C-13.85140625 20.61890625 -14.51140625 21.60890625 -15.19140625 22.62890625 C-15.3268944 19.89806723 -15.4257048 17.17398818 -15.50390625 14.44140625 C-15.54580078 13.67248047 -15.58769531 12.90355469 -15.63085938 12.11132812 C-15.64697266 11.36044922 -15.66308594 10.60957031 -15.6796875 9.8359375 C-15.70587158 9.14991455 -15.73205566 8.4638916 -15.7590332 7.75708008 C-13.61335885 -0.28758372 -6.88466399 -0.09649223 0 0 Z " fill="#EFF4F9" transform="translate(147.19140625,47.37109375)"/>
<path d="M0 0 C0.87269531 -0.0038269 1.74539062 -0.00765381 2.64453125 -0.01159668 C4.48699092 -0.0143149 6.32948924 -0.00695994 8.171875 0.00976562 C10.99045934 0.03117752 13.80649485 0.00996199 16.625 -0.015625 C18.41667229 -0.01298171 20.20834299 -0.00785669 22 0 C22.84175781 -0.00809692 23.68351562 -0.01619385 24.55078125 -0.02453613 C28.38720133 0.03687955 30.36799669 0.06943894 33.53125 2.38085938 C35.55742792 5.34737784 35.57565077 7.00538903 35 10.53125 C33.20006226 13.23115662 31.916227 15.0731365 29 16.53125 C26.3598066 16.66661102 23.74723936 16.74390301 21.10546875 16.76953125 C20.3210994 16.777603 19.53673004 16.78567474 18.72859192 16.79399109 C17.06672373 16.80783062 15.40482713 16.81855337 13.74291992 16.82641602 C11.20761865 16.84361353 8.67362686 16.88749655 6.13867188 16.93164062 C4.52344708 16.94176915 2.90821121 16.95028476 1.29296875 16.95703125 C0.15990547 16.98329338 0.15990547 16.98329338 -0.99604797 17.01008606 C-4.71566541 16.99484334 -6.79702979 16.66183024 -9.95581055 14.62963867 C-12.41771164 12.10246324 -12.93110952 11.16504241 -13.3125 7.65625 C-13 4.53125 -13 4.53125 -11.54296875 2.36914062 C-7.79791559 -0.33753758 -4.51493635 -0.04342947 0 0 Z " fill="#31475A" transform="translate(245,112.46875)"/>
<path d="M0 0 C13.2 0 26.4 0 40 0 C40 5.28 40 10.56 40 16 C26.8 16 13.6 16 0 16 C0 10.72 0 5.44 0 0 Z " fill="#FB9582" transform="translate(28,44)"/>
<path d="M0 0 C21.12 0 42.24 0 64 0 C64 2.64 64 5.28 64 8 C42.88 8 21.76 8 0 8 C0 5.36 0 2.72 0 0 Z " fill="#D68751" transform="translate(16,204)"/>
<path d="M0 0 C3.39488422 2.05107588 4.80323081 3.70484621 7 7 C7.42763893 12.30272272 7.53414849 15.75902182 4 20 C0.97073401 22.49072981 -1.11904534 23.85317422 -5 24.5 C-9.61939985 23.73010003 -12.45791001 21.38788099 -15.875 18.3125 C-17.68584708 14.59020323 -17.76965412 11.04418256 -17 7 C-12.97208974 -0.19056573 -7.65413193 -0.89197758 0 0 Z " fill="#DFE8F1" transform="translate(261,317)"/>
<path d="M0 0 C0 4.95 0 9.9 0 15 C-7.92 15 -15.84 15 -24 15 C-24 10.05 -24 5.1 -24 0 C-15.96992764 -1.50563857 -8.08567124 -0.63782601 0 0 Z " fill="#EFF4F9" transform="translate(464,45)"/>
<path d="M0 0 C0.33 0 0.66 0 1 0 C2.81950825 10.37231637 0.78048714 18.8238262 -1.9375 28.75 C-2.32924287 30.23651413 -2.71922937 31.72349227 -3.10742188 33.2109375 C-4.05146389 36.81285714 -5.01898589 40.40794963 -6 44 C-8.64 44 -11.28 44 -14 44 C-14.24234375 43.030625 -14.4846875 42.06125 -14.734375 41.0625 C-14.89462158 40.42248047 -15.05486816 39.78246094 -15.2199707 39.12304688 C-15.57711045 37.69251385 -15.93237852 36.26151241 -16.28588867 34.83007812 C-17.21170919 31.09252153 -18.16473548 27.3674747 -19.19140625 23.65625 C-19.37928711 22.95886719 -19.56716797 22.26148438 -19.76074219 21.54296875 C-20.28574595 19.59906103 -20.82415872 17.65878945 -21.36328125 15.71875 C-22.10135362 11.40804513 -21.73497697 8.28657538 -21 4 C-19 5 -19 5 -18.31396484 6.90185547 C-18.11496582 7.71541504 -17.9159668 8.52897461 -17.7109375 9.3671875 C-17.49179687 10.25277344 -17.27265625 11.13835937 -17.046875 12.05078125 C-16.82515625 12.98277344 -16.6034375 13.91476562 -16.375 14.875 C-16.14554688 15.79925781 -15.91609375 16.72351563 -15.6796875 17.67578125 C-14 24.56449963 -14 24.56449963 -14 28 C-11.36 28 -8.72 28 -6 28 C-5.83177734 26.34484375 -5.83177734 26.34484375 -5.66015625 24.65625 C-5.0147243 19.49279439 -3.74258395 14.53023952 -2.4375 9.5 C-2.20353516 8.5821875 -1.96957031 7.664375 -1.72851562 6.71875 C-1.15666285 4.47802077 -0.58041707 2.23852312 0 0 Z " fill="#BCC4CC" transform="translate(58,424)"/>
<path d="M0 0 C0.81984375 0.81130371 1.6396875 1.62260742 2.484375 2.45849609 C6.1454281 5.49264737 9.61906089 5.72760135 14.25 5.6640625 C15.02633789 5.66884613 15.80267578 5.67362976 16.60253906 5.67855835 C18.23634886 5.6819457 19.87022751 5.67282488 21.50390625 5.65185547 C23.993736 5.62506739 26.47905916 5.65163682 28.96875 5.68359375 C30.56250987 5.68028944 32.15626696 5.67388275 33.75 5.6640625 C34.85649902 5.67924423 34.85649902 5.67924423 35.98535156 5.69473267 C41.73302181 5.56549267 44.07697891 3.88215629 48 0 C48.48404503 7.13966413 48.48404503 7.13966413 46.53808594 10.59838867 C42.871058 14.06823802 39.88308791 13.72277593 35 13.6640625 C34.12730469 13.66884613 33.25460937 13.67362976 32.35546875 13.67855835 C30.51300247 13.68195614 28.6704758 13.67276203 26.828125 13.65185547 C24.00904837 13.62508592 21.19395291 13.65160493 18.375 13.68359375 C16.58332455 13.68028963 14.79165158 13.67388334 13 13.6640625 C12.15824219 13.67418365 11.31648437 13.68430481 10.44921875 13.69473267 C4.61074031 13.57790039 4.61074031 13.57790039 1.46191406 10.59838867 C-0.70673268 6.74386173 -0.29484719 4.3489961 0 0 Z " fill="#BFC7CE" transform="translate(232,123)"/>
<path d="M0 0 C0.33 0 0.66 0 1 0 C1.77980551 13.49929982 0.58606004 24.19589584 -8.75 34.8125 C-10.12749191 36.2470073 -11.53294732 37.65722244 -13 39 C-13.33 39 -13.66 39 -14 39 C-14 27.45 -14 15.9 -14 4 C-13.67 4 -13.34 4 -13 4 C-12.67 9.61 -12.34 15.22 -12 21 C-5.90973695 14.90973695 -3.08204538 7.87998128 0 0 Z " fill="#BAC2CA" transform="translate(495,414)"/>
<path d="M0 0 C2.92096779 1.4604839 2.98184656 3.3969518 4.0625 6.4375 C5.97245949 11.33320942 7.96558279 14.19946477 11.8125 17.75 C15.60415601 21.57932147 16.51907585 24.18038671 16.62182617 29.39941406 C16.53596561 32.62042189 16.32224946 35.79341893 16 39 C7.11638989 32.07078411 1.72321094 24.29660503 0 13 C-0.21291078 8.65188866 -0.18665346 4.34833421 0 0 Z " fill="#BFC7CE" transform="translate(408,414)"/>
<path d="M0 0 C2.5 1.5625 2.5 1.5625 4 4 C4.5625 7.4375 4.5625 7.4375 4 11 C1.55401113 14.38121991 0.10703441 15.76936783 -4 16.625 C-8.10703441 15.76936783 -9.55401113 14.38121991 -12 11 C-12.62491523 7.04220351 -12.61006839 4.99136114 -10.5 1.5625 C-6.97873756 -0.63828902 -4.04560357 -0.80414661 0 0 Z " fill="#2F4658" transform="translate(216,32)"/>
<path d="M0 0 C0.598125 0.78375 1.19625 1.5675 1.8125 2.375 C4.10213718 5.12256462 5.70353606 6.79124733 9.3046875 7.37109375 C15.10046086 7.55615029 15.10046086 7.55615029 20 4.625 C20.66 3.75875 21.32 2.8925 22 2 C22.66 1.34 23.32 0.68 24 0 C24.45047923 8.85942492 24.45047923 8.85942492 21 13 C17.97073401 15.49072981 15.88095466 16.85317422 12 17.5 C7.38060015 16.73010003 4.54208999 14.38788099 1.125 11.3125 C-0.64909569 7.66574774 -0.22982999 3.98371984 0 0 Z " fill="#BEC4CA" transform="translate(244,324)"/>
</svg>
