<svg id="Layer_1" enable-background="new 0 0 64 64" height="64" viewBox="0 0 64 64" width="64" xmlns="http://www.w3.org/2000/svg"><g><g fill="#2b2f64"><path d="m28.053 16.261c-2.143 0-3.879 1.746-3.879 3.879 0 2.144 1.736 3.889 3.879 3.889s3.878-1.745 3.878-3.889c0-2.133-1.735-3.879-3.878-3.879zm0 5.828c-1.067 0-1.939-.873-1.939-1.949 0-1.066.873-1.939 1.939-1.939s1.939.873 1.939 1.939c0 1.076-.873 1.949-1.939 1.949z"/><path d="m52.644 37.924c-3.142-3.142-8.252-3.142-11.394 0-1.522 1.522-2.366 3.549-2.366 5.702 0 2.152.844 4.17 2.366 5.691 1.571 1.571 3.626 2.356 5.692 2.356 2.065 0 4.131-.785 5.702-2.356 1.522-1.521 2.366-3.539 2.366-5.691 0-2.153-.843-4.18-2.366-5.702zm-1.367 10.026c-2.386 2.386-6.274 2.386-8.66 0-1.154-1.153-1.794-2.695-1.794-4.324 0-1.639.64-3.181 1.794-4.335 1.193-1.192 2.764-1.784 4.325-1.784 1.571 0 3.142.592 4.334 1.784 1.154 1.154 1.794 2.696 1.794 4.335.001 1.629-.639 3.171-1.793 4.324z"/><path d="m62.535 54.486-5.692-5.11c2.55-4.383 1.958-10.104-1.794-13.856-1.872-1.872-4.228-2.948-6.671-3.249v-3.19l1.9 1.668c.65.563 1.464.873 2.318.873.077 0 .155 0 .232-.01.94-.058 1.794-.485 2.415-1.192.611-.708.921-1.61.854-2.541-.058-.94-.485-1.794-1.183-2.414l-6.536-5.722v-11.908c0-1.862-1.522-3.385-3.384-3.385s-3.384 1.522-3.384 3.385v5.992l-10.823-9.473c-1.561-1.367-3.908-1.367-5.469 0l-24.116 21.11c-.708.62-1.134 1.474-1.192 2.414-.068.931.242 1.843.863 2.541 1.271 1.454 3.491 1.609 4.955.329l1.9-1.668v28.054c0 .533.437.97.97.97h14.138.02s.01 0 .02 0h10.354.02s.01 0 .02 0h14.138c.533 0 .97-.437.97-.97v-2.162c1.503-.185 2.977-.67 4.325-1.455l5.11 5.683c.814.921 1.833 1.444 2.851 1.474h.097c.844 0 1.62-.339 2.259-.979.669-.659.999-1.474.979-2.356-.029-1.02-.553-2.038-1.464-2.853zm-18.987-46.651c0-.796.649-1.445 1.445-1.445.795 0 1.445.649 1.445 1.445v10.21l-2.89-2.521zm-39.001 21.459c-.66.563-1.648.504-2.221-.155-.271-.311-.417-.718-.388-1.135s.223-.805.533-1.076l24.126-21.12c.834-.728 2.085-.728 2.909 0l24.126 21.12c.31.271.504.659.533 1.076s-.107.824-.388 1.135c-.271.32-.659.514-1.076.533-.417.039-.824-.106-1.144-.378l-20.353-17.823c-.902-.785-2.027-1.183-3.151-1.183-1.125 0-2.25.397-3.152 1.183zm40.281-3.316h-33.551l14.904-13.052c1.066-.932 2.676-.932 3.743 0zm-12.548 30.186h-8.456v-14.759h8.456zm14.158 0h-12.218v-15.728c0-.543-.437-.97-.97-.97h-10.395c-.533 0-.97.427-.97.97v15.729h-12.218v-28.248h36.771v4.276c-2.764.116-5.488 1.222-7.593 3.326-4.47 4.47-4.47 11.733 0 16.203 2.104 2.104 4.829 3.21 7.593 3.326zm-6.226-5.809c-3.714-3.714-3.714-9.755 0-13.469 1.852-1.853 4.296-2.783 6.73-2.783 2.443 0 4.877.931 6.739 2.783 3.704 3.714 3.704 9.755 0 13.469-3.713 3.705-9.755 3.714-13.469 0zm21.44 7.971c-.291.281-.591.437-.931.407-.476-.02-1.009-.311-1.464-.824l-4.955-5.508c.252-.213.504-.437.747-.679.242-.232.456-.484.669-.737l5.518 4.946c.514.455.805.988.824 1.464.009.34-.126.64-.408.931z"/></g><path d="m46.438 7.835v10.21l-2.89-2.521v-7.689c0-.796.649-1.445 1.445-1.445.795 0 1.445.649 1.445 1.445z" fill="#ededed"/><path d="m62.06 57.396c.01.34-.126.64-.407.931-.291.281-.591.437-.931.407-.476-.02-1.009-.311-1.464-.824l-4.955-5.508c.252-.213.504-.437.747-.679.242-.232.456-.484.669-.737l5.518 4.946c.513.455.803.988.823 1.464z" fill="#4fbee6"/><path d="m53.682 36.887c-1.862-1.853-4.296-2.783-6.739-2.783-2.434 0-4.878.931-6.73 2.783-3.714 3.714-3.714 9.755 0 13.469s9.755 3.704 13.469 0c3.704-3.714 3.704-9.755 0-13.469zm-1.038 12.43c-1.571 1.571-3.636 2.356-5.702 2.356s-4.122-.785-5.692-2.356c-1.522-1.521-2.366-3.539-2.366-5.691 0-2.153.844-4.18 2.366-5.702 3.142-3.142 8.252-3.142 11.394 0 1.522 1.522 2.366 3.549 2.366 5.702 0 2.152-.843 4.17-2.366 5.691z" fill="#a0c3d8"/><path d="m54.167 28.004c.029.417-.107.824-.388 1.135-.271.32-.659.514-1.076.533-.417.039-.824-.106-1.144-.378l-20.355-17.823c-.902-.785-2.027-1.183-3.151-1.183-1.125 0-2.25.397-3.152 1.183l-20.354 17.823c-.66.563-1.648.504-2.221-.155-.271-.311-.417-.718-.388-1.135s.223-.805.533-1.076l24.126-21.12c.834-.728 2.085-.728 2.909 0l24.126 21.12c.311.271.505.659.535 1.076z" fill="#f26e62"/><path d="m23.825 41.405h8.456v14.759h-8.456z" fill="#f26e62"/><path d="m53.071 43.626c0 1.629-.64 3.171-1.794 4.324-2.386 2.386-6.274 2.386-8.66 0-1.154-1.153-1.794-2.695-1.794-4.324 0-1.639.64-3.181 1.794-4.335 1.193-1.192 2.764-1.784 4.325-1.784 1.571 0 3.142.592 4.334 1.784 1.155 1.154 1.795 2.696 1.795 4.335z" fill="#ededed"/><path d="m29.924 12.926c-1.066-.932-2.676-.932-3.743 0l-14.904 13.052h33.551zm-1.871 11.102c-2.143 0-3.879-1.745-3.879-3.889 0-2.133 1.736-3.879 3.879-3.879s3.878 1.746 3.878 3.879c0 2.144-1.735 3.889-3.878 3.889z" fill="#a0c3d8"/><path d="m29.992 20.14c0 1.076-.873 1.949-1.939 1.949-1.067 0-1.939-.873-1.939-1.949 0-1.066.873-1.939 1.939-1.939 1.066-.001 1.939.872 1.939 1.939z" fill="#ededed"/><path d="m38.845 35.52c-4.47 4.47-4.47 11.733 0 16.203 2.104 2.104 4.829 3.21 7.593 3.326v1.115h-12.218v-15.728c0-.543-.437-.97-.97-.97h-10.395c-.533 0-.97.427-.97.97v15.729h-12.218v-28.248h36.771v4.276c-2.764.117-5.488 1.222-7.593 3.327z" fill="#fedc7d"/></g></svg>