<?xml version="1.0" standalone="no"?>
<!DOCTYPE svg PUBLIC "-//W3C//DTD SVG 20010904//EN"
 "http://www.w3.org/TR/2001/REC-SVG-20010904/DTD/svg10.dtd">
<svg version="1.0" xmlns="http://www.w3.org/2000/svg"
 width="100.000000pt" height="100.000000pt" viewBox="0 0 100.000000 100.000000"
 preserveAspectRatio="xMidYMid meet">

<g transform="translate(0.000000,100.000000) scale(0.100000,-0.100000)"
fill="#000000" stroke="none">
<path d="M488 683 c6 -2 18 -2 25 0 6 3 1 5 -13 5 -14 0 -19 -2 -12 -5z"/>
<path d="M461 649 c-7 -12 -10 -23 -8 -26 3 -3 11 5 17 17 15 28 8 35 -9 9z"/>
<path d="M520 664 c0 -6 7 -19 15 -30 8 -10 14 -14 14 -9 0 6 -6 19 -14 29 -8
11 -15 15 -15 10z"/>
<path d="M473 613 c-21 -4 -23 -10 -23 -69 l0 -64 -100 0 c-80 0 -102 3 -106
15 -8 20 -60 19 -68 -1 -3 -9 -6 -45 -6 -80 l0 -64 330 0 330 0 0 64 c0 35 -3
71 -6 80 -8 20 -60 21 -68 1 -4 -12 -26 -15 -106 -15 l-100 0 0 65 c0 49 -3
65 -14 65 -8 0 -20 2 -28 4 -7 2 -23 1 -35 -1z m41 -21 c2 -4 -4 -8 -14 -8
-10 0 -16 4 -14 8 3 4 9 8 14 8 5 0 11 -4 14 -8z m-4 -36 c-7 -7 -13 -7 -20 0
-6 6 -3 10 10 10 13 0 16 -4 10 -10z m14 -34 c3 -5 -8 -8 -25 -8 -16 0 -29 3
-29 8 0 10 47 10 54 0z m-286 -48 c2 -17 -2 -21 -28 -21 -21 0 -30 5 -30 17 0
23 10 31 35 28 11 -2 21 -12 23 -24z m580 0 c2 -17 -2 -21 -28 -21 -21 0 -30
5 -30 17 0 23 10 31 35 28 11 -2 21 -12 23 -24z m-288 -4 c0 -5 -13 -10 -30
-10 -16 0 -30 5 -30 10 0 6 14 10 30 10 17 0 30 -4 30 -10z m-80 -10 c0 -6
-40 -10 -100 -10 -60 0 -100 4 -100 10 0 6 40 10 100 10 60 0 100 -4 100 -10z
m300 0 c0 -6 -40 -10 -100 -10 -60 0 -100 4 -100 10 0 6 40 10 100 10 60 0
100 -4 100 -10z m-222 -30 c3 -7 0 -10 -6 -6 -6 3 -13 0 -16 -6 -5 -11 -7 -11
-12 0 -3 6 -10 10 -15 6 -9 -5 -13 9 -4 18 10 10 49 1 53 -12z m-300 -21 c3
-11 2 -11 -7 1 -10 13 -12 13 -21 0 -5 -8 -10 -10 -10 -4 0 27 31 30 38 3z
m580 0 c3 -11 2 -11 -7 1 -10 13 -12 13 -21 0 -5 -8 -10 -10 -10 -4 0 27 31
30 38 3z m-470 -16 c-15 -2 -42 -2 -60 0 -18 2 -6 4 27 4 33 0 48 -2 33 -4z
m75 0 c-7 -2 -21 -2 -30 0 -10 3 -4 5 12 5 17 0 24 -2 18 -5z m210 0 c-7 -2
-21 -2 -30 0 -10 3 -4 5 12 5 17 0 24 -2 18 -5z m105 0 c-15 -2 -42 -2 -60 0
-18 2 -6 4 27 4 33 0 48 -2 33 -4z m-330 -20 c-26 -2 -71 -2 -100 0 -29 2 -8
3 47 3 55 0 79 -1 53 -3z m120 0 c-10 -2 -26 -2 -35 0 -10 3 -2 5 17 5 19 0
27 -2 18 -5z m190 0 c-26 -2 -71 -2 -100 0 -29 2 -8 3 47 3 55 0 79 -1 53 -3z"/>
</g>
</svg>
