<?xml version="1.0" standalone="no"?>
<!DOCTYPE svg PUBLIC "-//W3C//DTD SVG 20010904//EN"
 "http://www.w3.org/TR/2001/REC-SVG-20010904/DTD/svg10.dtd">
<svg version="1.0" xmlns="http://www.w3.org/2000/svg"
 width="100.000000pt" height="100.000000pt" viewBox="0 0 100.000000 100.000000"
 preserveAspectRatio="xMidYMid meet">

<g transform="translate(0.000000,100.000000) scale(0.100000,-0.100000)"
fill="#000000" stroke="none">
<path d="M854 769 c-10 -17 13 -36 27 -22 12 12 4 33 -11 33 -5 0 -12 -5 -16
-11z"/>
<path d="M114 719 c-10 -17 13 -36 27 -22 12 12 4 33 -11 33 -5 0 -12 -5 -16
-11z"/>
<path d="M412 668 c-7 -7 -12 -38 -12 -70 l0 -57 -67 -3 c-68 -3 -68 -3 -65
-30 1 -16 -1 -28 -5 -28 -4 0 -6 -42 -5 -94 4 -85 2 -95 -15 -99 -10 -3 106
-5 257 -6 156 0 269 3 261 8 -10 6 -12 31 -10 100 2 50 0 91 -4 91 -4 0 -6 12
-5 28 3 27 3 27 -64 30 l-68 3 0 58 c0 36 -5 63 -13 70 -18 14 -37 -5 -37 -36
0 -21 -4 -23 -55 -23 -51 0 -55 2 -55 24 0 31 -22 50 -38 34z m188 -24 c0 -8
-7 -14 -15 -14 -15 0 -21 21 -9 33 10 9 24 -2 24 -19z m-160 6 c0 -5 -7 -10
-15 -10 -8 0 -15 5 -15 10 0 6 7 10 15 10 8 0 15 -4 15 -10z m0 -50 c0 -11 -7
-20 -15 -20 -8 0 -15 9 -15 20 0 11 7 20 15 20 8 0 15 -9 15 -20z m160 0 c0
-11 -7 -20 -15 -20 -8 0 -15 9 -15 20 0 11 7 20 15 20 8 0 15 -9 15 -20z m0
-40 c0 -6 -38 -10 -95 -10 -57 0 -95 4 -95 10 0 6 38 10 95 10 57 0 95 -4 95
-10z m-183 -52 c-3 -7 -5 -2 -5 12 0 14 2 19 5 13 2 -7 2 -19 0 -25z m20 0
c-3 -7 -5 -2 -5 12 0 14 2 19 5 13 2 -7 2 -19 0 -25z m20 0 c-3 -7 -5 -2 -5
12 0 14 2 19 5 13 2 -7 2 -19 0 -25z m20 0 c-3 -7 -5 -2 -5 12 0 14 2 19 5 13
2 -7 2 -19 0 -25z m20 0 c-3 -7 -5 -2 -5 12 0 14 2 19 5 13 2 -7 2 -19 0 -25z
m20 0 c-3 -7 -5 -2 -5 12 0 14 2 19 5 13 2 -7 2 -19 0 -25z m20 0 c-3 -7 -5
-2 -5 12 0 14 2 19 5 13 2 -7 2 -19 0 -25z m20 0 c-3 -7 -5 -2 -5 12 0 14 2
19 5 13 2 -7 2 -19 0 -25z m20 0 c-3 -7 -5 -2 -5 12 0 14 2 19 5 13 2 -7 2
-19 0 -25z m20 0 c-3 -7 -5 -2 -5 12 0 14 2 19 5 13 2 -7 2 -19 0 -25z m-224
15 c-18 -2 -48 -2 -65 0 -18 2 -4 4 32 4 36 0 50 -2 33 -4z m330 0 c-18 -2
-48 -2 -65 0 -18 2 -4 4 32 4 36 0 50 -2 33 -4z m-118 -43 c-19 -7 -19 -8 -2
-15 16 -7 18 -19 16 -91 -3 -82 -3 -84 -27 -84 -24 0 -24 2 -20 62 3 35 3 57
0 50 -3 -10 -8 -7 -19 7 -32 46 -73 6 -73 -71 0 -44 -2 -48 -23 -48 -22 0 -23
4 -26 84 -2 72 0 84 16 91 17 7 17 8 -2 15 -12 5 18 9 80 9 62 0 92 -4 80 -9z
m-295 -20 c0 -15 97 -13 103 3 3 6 6 -30 6 -80 1 -76 -2 -93 -14 -93 -8 0 -15
8 -16 18 0 14 -2 14 -9 -3 -7 -18 -8 -16 -11 10 -3 18 -10 30 -19 30 -8 0 -18
-13 -21 -30 l-7 -30 -2 35 -3 35 -4 -32 c-8 -64 -22 -32 -25 57 -2 67 0 90 10
90 6 0 12 -4 12 -10z m381 -10 c27 0 49 5 49 10 0 6 6 10 13 10 9 0 11 -23 9
-90 -2 -49 -8 -90 -13 -90 -5 0 -9 8 -10 18 0 14 -2 14 -9 -3 -7 -18 -8 -16
-11 10 -3 18 -10 30 -19 30 -8 0 -18 -13 -21 -30 l-7 -30 -2 35 -3 35 -4 -32
c-3 -20 -10 -33 -19 -33 -11 0 -14 18 -13 93 0 50 3 86 6 80 3 -8 24 -13 54
-13z m-141 -49 c5 -11 10 -40 10 -65 0 -46 0 -46 -35 -46 -35 0 -35 0 -35 46
0 51 14 84 35 84 8 0 19 -9 25 -19z m-190 -91 c0 -11 -4 -20 -10 -20 -5 0 -10
9 -10 20 0 11 5 20 10 20 6 0 10 -9 10 -20z m350 0 c0 -11 -4 -20 -10 -20 -5
0 -10 9 -10 20 0 11 5 20 10 20 6 0 10 -9 10 -20z"/>
<path d="M498 443 c7 -3 16 -2 19 1 4 3 -2 6 -13 5 -11 0 -14 -3 -6 -6z"/>
<path d="M234 139 c-10 -17 13 -36 27 -22 12 12 4 33 -11 33 -5 0 -12 -5 -16
-11z"/>
</g>
</svg>
