<?xml version="1.0" standalone="no"?>
<!DOCTYPE svg PUBLIC "-//W3C//DTD SVG 20010904//EN"
 "http://www.w3.org/TR/2001/REC-SVG-20010904/DTD/svg10.dtd">
<svg version="1.0" xmlns="http://www.w3.org/2000/svg"
 width="100.000000pt" height="100.000000pt" viewBox="0 0 100.000000 100.000000"
 preserveAspectRatio="xMidYMid meet">

<g transform="translate(0.000000,100.000000) scale(0.100000,-0.100000)"
fill="#000000" stroke="none">
<path d="M124 749 c-10 -17 13 -36 27 -22 12 12 4 33 -11 33 -5 0 -12 -5 -16
-11z"/>
<path d="M488 623 c6 -2 18 -2 25 0 6 3 1 5 -13 5 -14 0 -19 -2 -12 -5z"/>
<path d="M446 604 c-9 -8 -16 -30 -16 -47 0 -22 -3 -28 -9 -18 -6 10 -12 5
-22 -18 -16 -36 -53 -42 -75 -13 -13 16 -15 16 -28 0 -21 -28 -43 -22 -50 13
-3 17 -14 41 -24 53 l-17 23 -20 -26 c-15 -20 -21 -48 -25 -118 l-5 -93 345 0
345 0 -5 93 c-4 73 -10 99 -25 119 l-20 25 -18 -23 c-10 -13 -20 -37 -23 -54
-7 -34 -29 -39 -50 -12 -13 16 -15 16 -28 0 -22 -29 -59 -23 -75 13 -10 23
-16 28 -22 18 -6 -10 -9 -4 -9 17 0 20 -8 38 -22 50 -23 19 -23 19 -5 -2 9
-11 17 -24 17 -27 0 -4 -27 -7 -60 -7 -33 0 -60 3 -60 7 0 3 7 15 17 25 20 22
11 24 -11 2z m-229 -40 c-3 -3 -12 -4 -19 -1 -8 3 -5 6 6 6 11 1 17 -2 13 -5z
m590 0 c-3 -3 -12 -4 -19 -1 -8 3 -5 6 6 6 11 1 17 -2 13 -5z m-347 -24 c0
-11 5 -20 10 -20 6 0 10 8 10 18 0 11 7 18 20 18 13 0 20 -7 20 -18 0 -10 5
-18 10 -18 6 0 10 9 10 20 0 11 5 20 10 20 6 0 10 -38 10 -95 0 -97 -16 -133
-22 -49 -3 54 -26 77 -55 58 -12 -7 -19 -27 -21 -58 -6 -84 -22 -48 -22 49 0
57 4 95 10 95 6 0 10 -9 10 -20z m-230 0 c0 -5 -11 -10 -25 -10 -14 0 -25 5
-25 10 0 6 11 10 25 10 14 0 25 -4 25 -10z m590 0 c0 -5 -11 -10 -25 -10 -14
0 -25 5 -25 10 0 6 11 10 25 10 14 0 25 -4 25 -10z m-580 -95 l0 -75 -35 0
-35 0 0 75 0 75 35 0 35 0 0 -75z m190 0 c0 -60 -3 -75 -15 -75 -12 0 -15 15
-15 75 0 60 3 75 15 75 12 0 15 -15 15 -75z m170 0 c0 -60 -3 -75 -15 -75 -12
0 -15 15 -15 75 0 60 3 75 15 75 12 0 15 -15 15 -75z m230 0 l0 -75 -35 0 -35
0 0 75 0 75 35 0 35 0 0 -75z m-510 55 c0 -5 -4 -10 -10 -10 -5 0 -10 5 -10
10 0 6 5 10 10 10 6 0 10 -4 10 -10z m380 0 c0 -5 -4 -10 -10 -10 -5 0 -10 5
-10 10 0 6 5 10 10 10 6 0 10 -4 10 -10z m-310 -75 l0 -55 -70 0 -70 0 0 55 0
55 70 0 70 0 0 -55z m360 0 l0 -55 -70 0 -70 0 0 55 0 55 70 0 70 0 0 -55z"/>
<path d="M411 454 c0 -11 3 -14 6 -6 3 7 2 16 -1 19 -3 4 -6 -2 -5 -13z"/>
<path d="M411 404 c0 -11 3 -14 6 -6 3 7 2 16 -1 19 -3 4 -6 -2 -5 -13z"/>
<path d="M581 454 c0 -11 3 -14 6 -6 3 7 2 16 -1 19 -3 4 -6 -2 -5 -13z"/>
<path d="M581 404 c0 -11 3 -14 6 -6 3 7 2 16 -1 19 -3 4 -6 -2 -5 -13z"/>
<path d="M271 454 c0 -11 3 -14 6 -6 3 7 2 16 -1 19 -3 4 -6 -2 -5 -13z"/>
<path d="M301 454 c0 -11 3 -14 6 -6 3 7 2 16 -1 19 -3 4 -6 -2 -5 -13z"/>
<path d="M331 454 c0 -11 3 -14 6 -6 3 7 2 16 -1 19 -3 4 -6 -2 -5 -13z"/>
<path d="M361 454 c0 -11 3 -14 6 -6 3 7 2 16 -1 19 -3 4 -6 -2 -5 -13z"/>
<path d="M631 454 c0 -11 3 -14 6 -6 3 7 2 16 -1 19 -3 4 -6 -2 -5 -13z"/>
<path d="M661 454 c0 -11 3 -14 6 -6 3 7 2 16 -1 19 -3 4 -6 -2 -5 -13z"/>
<path d="M691 454 c0 -11 3 -14 6 -6 3 7 2 16 -1 19 -3 4 -6 -2 -5 -13z"/>
<path d="M721 454 c0 -11 3 -14 6 -6 3 7 2 16 -1 19 -3 4 -6 -2 -5 -13z"/>
<path d="M224 179 c-10 -17 13 -36 27 -22 12 12 4 33 -11 33 -5 0 -12 -5 -16
-11z"/>
</g>
</svg>
