<?xml version="1.0" standalone="no"?>
<!DOCTYPE svg PUBLIC "-//W3C//DTD SVG 20010904//EN"
 "http://www.w3.org/TR/2001/REC-SVG-20010904/DTD/svg10.dtd">
<svg version="1.0" xmlns="http://www.w3.org/2000/svg"
 width="58.000000pt" height="58.000000pt" viewBox="0 0 58.000000 58.000000"
 preserveAspectRatio="xMidYMid meet">

<g transform="translate(0.000000,58.000000) scale(0.100000,-0.100000)"
fill="#000000" stroke="none">
<path d="M81 569 c0 -9 -10 -28 -21 -42 -11 -14 -20 -39 -20 -55 0 -17 -4 -34
-10 -37 -5 -3 -10 -15 -10 -26 0 -10 -4 -19 -10 -19 -17 0 -12 -110 5 -116 12
-5 15 -30 15 -134 0 -114 -2 -129 -17 -133 -10 -3 115 -5 277 -5 162 0 287 2
278 5 -16 4 -18 19 -18 133 0 104 3 129 15 134 17 6 22 116 5 116 -5 0 -10 9
-10 19 0 11 -4 23 -10 26 -5 3 -10 21 -10 40 0 19 -5 37 -11 41 -6 3 -17 20
-25 38 -10 23 -13 26 -14 11 0 -11 -9 -31 -20 -45 -12 -16 -17 -34 -13 -52 3
-17 1 -28 -6 -28 -6 0 -11 -11 -11 -25 l0 -25 -150 0 -150 0 0 25 c0 14 -5 25
-11 25 -7 0 -9 11 -6 27 3 18 -1 37 -13 53 -10 14 -20 34 -23 45 -3 14 -5 15
-6 4z m17 -51 c21 -21 13 -38 -18 -38 -34 0 -35 2 -18 30 15 23 20 24 36 8z
m418 -5 c20 -27 17 -33 -16 -33 -31 0 -39 17 -18 38 16 16 18 15 34 -5z m-406
-61 c0 -5 -14 -9 -30 -10 -17 0 -28 4 -25 9 8 11 55 12 55 1z m415 -1 c3 -5
-8 -9 -25 -9 -16 1 -30 5 -30 10 0 11 47 10 55 -1z m-397 -43 c3 -15 -4 -18
-47 -18 -36 0 -51 4 -51 13 0 23 12 28 55 25 29 -2 41 -8 43 -20z m420 0 c3
-15 -4 -18 -47 -18 -36 0 -51 4 -51 13 0 23 12 28 55 25 29 -2 41 -8 43 -20z
m-398 -78 l0 -40 -70 0 -70 0 0 40 0 40 70 0 70 0 0 -40z m270 0 l0 -40 -130
0 c-109 0 -130 2 -130 15 0 12 17 15 95 15 57 0 95 4 95 10 0 6 -38 10 -95 10
-78 0 -95 3 -95 15 0 13 21 15 130 15 l130 0 0 -40z m150 0 l0 -40 -70 0 -70
0 0 40 0 40 70 0 70 0 0 -40z m-450 -191 l0 -130 -37 3 -38 3 -3 128 -3 127
41 0 40 0 0 -131z m80 1 l0 -130 -35 0 -35 0 0 130 0 130 35 0 35 0 0 -130z
m170 0 c0 -109 -2 -130 -15 -130 -11 0 -15 12 -15 49 0 53 -17 81 -50 81 -33
0 -50 -28 -50 -81 0 -37 -4 -49 -15 -49 -13 0 -15 21 -15 130 l0 130 80 0 80
0 0 -130z m80 0 l0 -130 -35 0 -35 0 0 130 0 130 35 0 35 0 0 -130z m88 3 l-3
-128 -37 -3 -38 -3 0 130 0 131 40 0 41 0 -3 -127z m-218 -33 c6 -12 10 -38 8
-58 -3 -35 -5 -37 -38 -37 -33 0 -35 2 -38 37 -4 45 12 78 38 78 11 0 24 -9
30 -20z"/>
<path d="M42 330 c0 -14 2 -19 5 -12 2 6 2 18 0 25 -3 6 -5 1 -5 -13z"/>
<path d="M82 330 c0 -14 2 -19 5 -12 2 6 2 18 0 25 -3 6 -5 1 -5 -13z"/>
<path d="M110 330 c0 -19 3 -21 12 -12 9 9 9 15 0 24 -9 9 -12 7 -12 -12z"/>
<path d="M454 339 c-3 -6 -1 -16 5 -22 8 -8 11 -5 11 11 0 24 -5 28 -16 11z"/>
<path d="M490 330 c0 -19 3 -21 12 -12 9 9 9 15 0 24 -9 9 -12 7 -12 -12z"/>
<path d="M532 330 c0 -14 2 -19 5 -12 2 6 2 18 0 25 -3 6 -5 1 -5 -13z"/>
<path d="M161 214 c0 -11 3 -14 6 -6 3 7 2 16 -1 19 -3 4 -6 -2 -5 -13z"/>
<path d="M161 144 c0 -11 3 -14 6 -6 3 7 2 16 -1 19 -3 4 -6 -2 -5 -13z"/>
<path d="M161 64 c0 -11 3 -14 6 -6 3 7 2 16 -1 19 -3 4 -6 -2 -5 -13z"/>
<path d="M411 214 c0 -11 3 -14 6 -6 3 7 2 16 -1 19 -3 4 -6 -2 -5 -13z"/>
<path d="M411 144 c0 -11 3 -14 6 -6 3 7 2 16 -1 19 -3 4 -6 -2 -5 -13z"/>
<path d="M411 64 c0 -11 3 -14 6 -6 3 7 2 16 -1 19 -3 4 -6 -2 -5 -13z"/>
</g>
</svg>
