<?xml version="1.0" standalone="no"?>
<!DOCTYPE svg PUBLIC "-//W3C//DTD SVG 20010904//EN"
 "http://www.w3.org/TR/2001/REC-SVG-20010904/DTD/svg10.dtd">
<svg version="1.0" xmlns="http://www.w3.org/2000/svg"
 width="100.000000pt" height="100.000000pt" viewBox="0 0 100.000000 100.000000"
 preserveAspectRatio="xMidYMid meet">

<g transform="translate(0.000000,100.000000) scale(0.100000,-0.100000)"
fill="#000000" stroke="none">
<path d="M480 701 c-8 -5 -34 -12 -57 -16 -37 -6 -43 -10 -43 -31 0 -15 -6
-24 -15 -24 -8 0 -15 -9 -15 -20 0 -15 -7 -20 -25 -20 -22 0 -24 -3 -16 -18 5
-10 10 -77 10 -150 l1 -131 -48 -4 c-26 -2 77 -3 228 -3 151 0 254 1 228 3
l-48 4 1 131 c0 73 5 140 10 150 9 17 1 18 -161 18 -144 0 -170 2 -170 15 0
13 24 15 148 16 81 1 139 3 130 6 -11 3 -18 14 -18 27 0 20 -8 25 -47 33 -27
6 -55 13 -63 16 -8 4 -22 3 -30 -2z m35 -11 c3 -5 -3 -10 -15 -10 -12 0 -18 5
-15 10 3 6 10 10 15 10 5 0 12 -4 15 -10z m95 -40 c0 -19 -7 -20 -110 -20
-103 0 -110 1 -110 20 0 19 7 20 110 20 103 0 110 -1 110 -20z m60 -140 l0
-40 -52 -2 -53 -2 53 -3 52 -4 0 -85 0 -84 -55 0 -55 0 0 95 c0 91 -1 97 -26
120 -15 14 -30 25 -34 25 -4 0 -19 -11 -34 -25 -25 -23 -26 -29 -26 -120 l0
-95 -55 0 -55 0 0 85 0 85 53 2 52 2 -52 3 -53 4 0 40 0 39 170 0 170 0 0 -40z
m-129 -22 c5 -7 9 -55 9 -105 l0 -93 -50 0 -50 0 0 94 c0 69 4 98 14 109 17
17 65 14 77 -5z"/>
<path d="M420 650 c0 -5 5 -10 10 -10 6 0 10 5 10 10 0 6 -4 10 -10 10 -5 0
-10 -4 -10 -10z"/>
<path d="M560 650 c0 -5 5 -10 10 -10 6 0 10 5 10 10 0 6 -4 10 -10 10 -5 0
-10 -4 -10 -10z"/>
<path d="M374 529 c-10 -17 13 -36 27 -22 12 12 4 33 -11 33 -5 0 -12 -5 -16
-11z m26 -9 c0 -5 -4 -10 -10 -10 -5 0 -10 5 -10 10 0 6 5 10 10 10 6 0 10 -4
10 -10z"/>
<path d="M594 529 c-10 -17 13 -36 27 -22 12 12 4 33 -11 33 -5 0 -12 -5 -16
-11z m26 -9 c0 -5 -4 -10 -10 -10 -5 0 -10 5 -10 10 0 6 5 10 10 10 6 0 10 -4
10 -10z"/>
</g>
</svg>
