<svg version="1.2" xmlns="http://www.w3.org/2000/svg" viewBox="0 0 66 61" width="66" height="61">
	<title>kolkata-svg</title>
	<style>
		.s0 { fill: #594454 } 
	</style>
	<path id="Layer" fill-rule="evenodd" class="s0" d="m64.8 59c0 0.3-0.2 0.5-0.5 0.5h-63c-0.3 0-0.5-0.2-0.5-0.5 0-0.3 0.2-0.5 0.5-0.5h1.5v-9h-0.5c-0.3 0-0.5-0.2-0.5-0.5 0-0.3 0.2-0.5 0.5-0.5h0.5v-8h-0.5c-0.3 0-0.5-0.2-0.5-0.5 0-0.3 0.2-0.5 0.5-0.5h0.5v-3h-0.5c-0.3 0-0.5-0.2-0.5-0.5 0-0.3 0.2-0.5 0.5-0.5h0.5v-3.5c0-0.3 0.2-0.5 0.5-0.5 0.3 0 0.5 0.2 0.5 0.5v0.5h1v-3h-0.5c-0.3 0-0.5-0.2-0.5-0.5 0-0.3 0.2-0.5 0.5-0.5h0.5c0-0.9 0.6-1.7 1.5-1.9v-1.6c0-0.3 0.2-0.5 0.5-0.5 0.3 0 0.5 0.2 0.5 0.5v1.6c0.9 0.2 1.5 1 1.5 1.9h0.5c0.3 0 0.5 0.2 0.5 0.5 0 0.3-0.2 0.5-0.5 0.5h-0.5v3h1v-0.5c0-0.3 0.2-0.5 0.5-0.5 0.3 0 0.5 0.2 0.5 0.5v3.5h0.5c0.3 0 0.5 0.2 0.5 0.5 0 0.3-0.2 0.5-0.5 0.5h-0.5v1h8v-1h-0.5c-0.3 0-0.5-0.2-0.5-0.5 0-0.3 0.2-0.5 0.5-0.5h0.5v-5h-0.5c-0.3 0-0.5-0.2-0.5-0.5 0-0.3 0.2-0.5 0.5-0.5h0.5c0.2-1 1-1.8 2-2v-1.5c0-0.3 0.2-0.5 0.5-0.5 0.3 0 0.5 0.2 0.5 0.5v1.5h0.5c1.2 0 2.2-0.9 2.4-2h-1.4c-0.3 0-0.5-0.2-0.5-0.5v-2c0-0.3 0.2-0.5 0.5-0.5h1.5v-2h-0.5c-0.3 0-0.5-0.2-0.5-0.5 0-0.3 0.2-0.5 0.5-0.5h0.6c0.4-3.1 2.5-5.6 5.4-6.6v-3.4h-0.5c-0.3 0-0.5-0.2-0.5-0.5 0-0.3 0.2-0.5 0.5-0.5h0.5c0.2-1 1-1.8 2-2v-3.5c0-0.3 0.2-0.5 0.5-0.5 0.3 0 0.5 0.2 0.5 0.5v3.5c1 0.2 1.8 1 2 2h0.5c0.3 0 0.5 0.2 0.5 0.5 0 0.3-0.2 0.5-0.5 0.5h-0.5v3.4c2.9 1 5 3.5 5.4 6.6h0.5c0.3 0 0.5 0.2 0.5 0.5 0 0.3-0.2 0.5-0.5 0.5h-0.5v2h1.5c0.3 0 0.5 0.2 0.5 0.5v2c0 0.3-0.2 0.5-0.5 0.5h-1.4c0.2 1.1 1.2 2 2.4 2h0.5v-1.5c0-0.3 0.2-0.5 0.5-0.5 0.3 0 0.5 0.2 0.5 0.5v1.5c1 0.2 1.8 1 2 2h0.5c0.3 0 0.5 0.2 0.5 0.5 0 0.3-0.2 0.5-0.5 0.5h-0.5v5h0.5c0.3 0 0.5 0.2 0.5 0.5 0 0.3-0.2 0.5-0.5 0.5h-0.5v1h8v-1h-0.5c-0.3 0-0.5-0.2-0.5-0.5 0-0.3 0.2-0.5 0.5-0.5h0.5v-3.5c0-0.3 0.2-0.5 0.5-0.5 0.3 0 0.5 0.2 0.5 0.5v0.5h1v-3h-0.5c-0.3 0-0.5-0.2-0.5-0.5 0-0.3 0.2-0.5 0.5-0.5h0.5c0-0.9 0.6-1.7 1.5-1.9v-1.6c0-0.3 0.2-0.5 0.5-0.5 0.3 0 0.5 0.2 0.5 0.5v1.6c0.9 0.2 1.5 1 1.5 1.9h0.5c0.3 0 0.5 0.2 0.5 0.5 0 0.3-0.2 0.5-0.5 0.5h-0.5v3h1v-0.5c0-0.3 0.2-0.5 0.5-0.5 0.3 0 0.5 0.2 0.5 0.5v3.5h0.5c0.3 0 0.5 0.2 0.5 0.5 0 0.3-0.2 0.5-0.5 0.5h-0.5v3h0.5c0.3 0 0.5 0.2 0.5 0.5 0 0.3-0.2 0.5-0.5 0.5h-0.5v8h0.5c0.3 0 0.5 0.2 0.5 0.5 0 0.3-0.2 0.5-0.5 0.5h-0.5v9h1.5c0.3 0 0.6 0.2 0.6 0.5zm-3.1-18.5h-6v8h6zm-4-12h2c0-0.6-0.4-1-1-1-0.5 0-1 0.4-1 1zm0 4h2v-3h-2zm-2.1 1.1v1.9h6v-2h-4.4l-1.5 0.1zm0.1 2.9v3h6v-3zm-9 2v1h0.5c0.3 0 0.5 0.2 0.5 0.5 0 0.3-0.2 0.5-0.5 0.5h-0.5v1h8v-1h-0.5c-0.3 0-0.5-0.2-0.5-0.5 0-0.3 0.2-0.5 0.5-0.5h0.5v-1zm-18 20h8v-12c0-2.2-1.8-4-4-4-2.2 0-4 1.8-4 4zm8-15v-3h-8v3c0.9-1.2 2.4-2 4-2 1.7 0 3.1 0.8 4 2zm0-4v-2h-8v2zm-13.5-11.1c0.3 0.3 0.5 0.7 0.6 1.1h0.5c0.3 0 0.5 0.2 0.5 0.5 0 0.3-0.2 0.5-0.5 0.5h-0.5v4h1v-2.5c0-0.3 0.2-0.5 0.5-0.5h4.5v-1h-3.5c-0.3 0-0.5-0.2-0.5-0.5 0-0.3 0.2-0.5 0.5-0.5h0.5v-4h-1.1c-0.2 1.4-1.3 2.5-2.5 2.9zm5.5 4.1v2h8v-2zm-1-3h1v-4h-1zm2 0h1v-1.1c0-1.1 0.9-2 2-2 1.1 0 2 0.9 2 2v1.1h1v-4h-6zm10.1-4h-1.1v4h0.5c0.3 0 0.5 0.2 0.5 0.5 0 0.3-0.2 0.5-0.5 0.5h-3.5v1h4.5c0.3 0 0.5 0.2 0.5 0.5v2.5h1v-4h-0.5c-0.3 0-0.5-0.2-0.5-0.5 0-0.3 0.2-0.5 0.5-0.5h0.5c0.1-0.4 0.3-0.8 0.6-1.1-1.3-0.4-2.3-1.5-2.5-2.9zm-6.1 2.9c0-0.6-0.4-1-1-1-0.6 0-1 0.4-1 1v1.1h2zm-3 3.1h4v-1h-4zm9 1h-2v2h2zm-16 3v1h18v-1zm-4 4h5v-2h-1.5c-0.3 0-0.5-0.2-0.5-0.5v-0.5h-3zm3 1v2.3c0.3-0.2 0.6-0.3 1-0.3 0.4 0 0.7 0.1 1 0.3v-2.3zm2 11c0-0.6-0.4-1-1-1-0.6 0-1 0.4-1 1v2h2zm0-1.7v-2.3h-2v2.3c0.3-0.2 0.6-0.3 1-0.3 0.4 0 0.7 0.1 1 0.3zm0-5.3c0-0.6-0.4-1-1-1-0.6 0-1 0.4-1 1v2h2zm-2 14h2v-4h-2zm3-19h2v-2h-2zm12 0h2v-2h-2zm5 12c0-0.6-0.4-1-1-1-0.6 0-1 0.4-1 1v2h2zm0-1.7v-2.3h-2v2.3c0.3-0.2 0.6-0.3 1-0.3 0.4 0 0.7 0.1 1 0.3zm0-5.3c0-0.6-0.4-1-1-1-0.6 0-1 0.4-1 1v2h2zm-2 14h2v-4h-2zm2-18h-2v2.3c0.3-0.2 0.6-0.3 1-0.3 0.4 0 0.7 0.1 1 0.3zm3-1v-3h-3v0.5c0 0.3-0.2 0.5-0.5 0.5h-1.5v2zm0-9h-3v5h1v-2.5c0-0.3 0.2-0.5 0.5-0.5 0.3 0 0.5 0.2 0.5 0.5v2.5h1zm-1.5-2c-0.6 0-1.2 0.4-1.4 1h2.8c-0.2-0.6-0.8-1-1.4-1zm-6.5-3h-1v4h1zm2-5h-1v2h1zm-12 2h2v-2h-2zm3 0h4v-2h-4zm5 0h2v-2h-2zm-4.4-14h2.8c-0.2-0.6-0.7-1-1.4-1-0.7 0-1.2 0.4-1.4 1zm-0.1 4.1c0.3 0 0.7-0.1 1-0.1v-1.5c0-0.3 0.2-0.5 0.5-0.5 0.3 0 0.5 0.2 0.5 0.5v1.5c0.3 0 0.7 0 1 0.1v-3.1h-3zm-5.4 6.9h13.8c-0.5-3.4-3.4-6-6.9-6-3.5 0-6.4 2.6-6.9 6zm-0.1 3h1v-2h-1zm-2 2h18v-1h-18zm2 10h2v-2h-2zm-5.9-5h2.8c-0.2-0.6-0.7-1-1.4-1-0.6 0-1.2 0.4-1.4 1zm-0.1 1v5h1v-2.5c0-0.3 0.2-0.5 0.5-0.5 0.3 0 0.5 0.2 0.5 0.5v2.5h1v-5zm-9 8v1h0.5c0.3 0 0.5 0.2 0.5 0.5 0 0.3-0.2 0.5-0.5 0.5h-0.5v1h8v-1h-0.5c-0.3 0-0.5-0.2-0.5-0.5 0-0.3 0.2-0.5 0.5-0.5h0.5v-1zm-5-10h2c0-0.6-0.4-1-1-1-0.6 0-1 0.4-1 1zm0 4h2v-3h-2zm-2.1 1.1v1.9h6v-2h-4.5l-1.4 0.1zm0.1 5.9h6v-3h-6zm0 9h6v-8h-6zm0 10h6v-9h-6zm7 0h8v-16h-8v6h0.5c0.3 0 0.5 0.2 0.5 0.5 0 0.3-0.2 0.5-0.5 0.5h-0.5zm11 0v-18h-2v18zm6 0v-18h-2v18zm12 0v-18h-2v18zm4 0h2v-18h-2zm3 0h8v-9h-0.5c-0.3 0-0.5-0.2-0.5-0.5 0-0.3 0.2-0.5 0.5-0.5h0.5v-6h-8zm15 0v-9h-6v9zm-45-7.5v4c0 0.3-0.2 0.5-0.5 0.5h-3c-0.3 0-0.5-0.2-0.5-0.5v-4c0-0.3 0.2-0.5 0.5-0.5h3c0.3 0 0.5 0.2 0.5 0.5zm-3 0.5v1h2v-1zm2 2h-2v1h2zm1-9.5v4c0 0.3-0.2 0.5-0.5 0.5h-3c-0.3 0-0.5-0.2-0.5-0.5v-4c0-0.3 0.2-0.5 0.5-0.5h3c0.3 0 0.5 0.2 0.5 0.5zm-3 0.5v1h2v-1zm2 2h-2v1h2zm-7 4.5v4c0 0.3-0.2 0.5-0.5 0.5h-3c-0.3 0-0.5-0.2-0.5-0.5v-4c0-0.3 0.2-0.5 0.5-0.5h3c0.3 0 0.5 0.2 0.5 0.5zm-1 0.5h-2v3h2zm25-29.5c-0.3 0-0.5-0.2-0.5-0.5 0-0.3 0.2-0.5 0.5-0.5 0.3 0 0.5 0.2 0.5 0.5 0 0.3-0.2 0.5-0.5 0.5zm-26 16.5c-0.3 0-0.5-0.2-0.5-0.5 0-0.3 0.2-0.5 0.5-0.5 0.3 0 0.5 0.2 0.5 0.5 0 0.3-0.2 0.5-0.5 0.5zm50 7.5v-4c0-0.3 0.2-0.5 0.5-0.5h3c0.3 0 0.5 0.2 0.5 0.5v4c0 0.3-0.2 0.5-0.5 0.5h-3c-0.3 0-0.5-0.2-0.5-0.5zm3-0.5v-1h-2v1zm-2-3v1h2v-1zm-5 8.5v4c0 0.3-0.2 0.5-0.5 0.5h-3c-0.3 0-0.5-0.2-0.5-0.5v-4c0-0.3 0.2-0.5 0.5-0.5h3c0.3 0 0.5 0.2 0.5 0.5zm-3 1.5h2v-1h-2zm2 2v-1h-2v1zm1-10.5v4c0 0.3-0.2 0.5-0.5 0.5h-3c-0.3 0-0.5-0.2-0.5-0.5v-4c0-0.3 0.2-0.5 0.5-0.5h3c0.3 0 0.5 0.2 0.5 0.5zm-3 1.5h2v-1h-2zm2 2v-1h-2v1zm9 3.5v4c0 0.3-0.2 0.5-0.5 0.5h-3c-0.3 0-0.5-0.2-0.5-0.5v-4c0-0.3 0.2-0.5 0.5-0.5h3c0.3 0 0.5 0.2 0.5 0.5zm-1 0.5h-2v3h2zm-1-13c-0.3 0-0.5-0.2-0.5-0.5 0-0.3 0.2-0.5 0.5-0.5 0.3 0 0.5 0.2 0.5 0.5 0 0.3-0.2 0.5-0.5 0.5z"/>
</svg>