<svg id="Capa_1" enable-background="new 0 0 512 512" viewBox="0 0 512 512" xmlns="http://www.w3.org/2000/svg"><g><g fill="#b2caec"><path d="m206.788 447.984h-23.931c-4.143 0-7.5 3.358-7.5 7.5s3.357 7.5 7.5 7.5h23.931z"/><path d="m326.688 447.984h-23.932v15h23.932c4.143 0 7.5-3.358 7.5-7.5s-3.357-7.5-7.5-7.5z"/></g><g><g><g><g><path d="m170.701 41.548-21.029 47.79h16.388l15.581-35.408 15.581 35.408h16.388l-20.914-47.529h-20.186c-.629 0-1.234-.095-1.809-.261z" fill="#e1d3ce"/></g><g><path d="m141.851 88.338c-2.144 0-3.888 1.819-3.696 3.954 1.998 22.261 20.704 39.708 43.485 39.708s41.487-17.447 43.486-39.708c.192-2.136-1.552-3.954-3.696-3.954z" fill="#d8aa5e"/></g><g><path d="m221.43 88.338h-38.337c2.144 0 3.888 1.819 3.696 3.954-1.395 15.539-10.936 28.724-24.317 35.275 5.788 2.833 12.29 4.433 19.168 4.433 22.781 0 41.487-17.447 43.486-39.708.192-2.136-1.552-3.954-3.696-3.954z" fill="#c99c56"/></g></g><g><g><path d="m314.779 89.338 15.581-35.408 15.581 35.408h16.388l-21.029-47.79c-.575.167-1.18.261-1.808.261h-20.186l-20.914 47.529z" fill="#e1d3ce"/></g><g><path d="m290.57 88.338c-2.144 0-3.888 1.819-3.696 3.954 1.998 22.261 20.704 39.708 43.486 39.708 22.781 0 41.487-17.447 43.486-39.708.192-2.136-1.552-3.954-3.696-3.954z" fill="#d8aa5e"/></g><g><path d="m370.149 88.338h-38.784c2.144 0 3.888 1.819 3.696 3.954-1.387 15.453-10.83 28.58-24.093 35.167 5.843 2.902 12.425 4.541 19.392 4.541 22.781 0 41.487-17.447 43.486-39.708.191-2.136-1.553-3.954-3.697-3.954z" fill="#c99c56"/></g></g></g><g><path d="m263.5 164.747v-139.895c0-4.142-3.357-7.5-7.5-7.5s-7.5 3.358-7.5 7.5v139.895z" fill="#d8aa5e"/></g><g><path d="m300.151 178.747h-88.303c-4.143 0-7.5-3.358-7.5-7.5s3.357-7.5 7.5-7.5h88.303c4.143 0 7.5 3.358 7.5 7.5s-3.357 7.5-7.5 7.5z" fill="#e9b665"/></g></g><g><g><path d="m302.658 369.373c-3.344 3.469-5.087 8.04-4.907 12.87.204 5.529-2.169 9.197-4.196 11.301-2.987 3.1-7.19 4.878-11.531 4.878-4.778 0-9.078-2.147-12.112-6.046-3.363-4.324-8.434-6.803-13.911-6.803s-10.548 2.479-13.911 6.803c-3.032 3.898-7.334 6.045-12.112 6.046h-.002c-4.341 0-8.542-1.777-11.528-4.876-2.028-2.104-4.401-5.773-4.197-11.303.179-4.829-1.563-9.4-4.907-12.87-1.061-1.101-2.265-2.033-3.554-2.816v122.529c0 4.525 5.121 7.15 8.795 4.509l36.947-26.566c1.937-1.393 4.547-1.393 6.484 0l36.948 26.566c3.674 2.641 8.795.016 8.795-4.509v-120.744c-.379.33-.751.668-1.101 1.031z" fill="#0067c5"/></g><g><g><path d="m302.658 369.373c-3.344 3.469-5.087 8.04-4.907 12.87.204 5.529-2.169 9.197-4.196 11.301-2.987 3.1-7.19 4.878-11.531 4.878-3.976 0-7.609-1.506-10.469-4.252v82.594l23.408 16.831c3.674 2.641 8.795.016 8.795-4.509v-120.744c-.378.33-.75.668-1.1 1.031z" fill="#0055a3"/></g></g><g><path d="m271.793 229.155c3.322 10.298 15.453 14.714 24.617 8.96 13.645-8.567 30.264 5.378 24.197 20.303-4.075 10.024 2.38 21.204 13.098 22.687 15.959 2.208 19.727 23.573 5.485 31.106-9.565 5.06-11.807 17.773-4.549 25.799 10.806 11.95-.041 30.738-15.793 27.355-10.579-2.272-20.469 6.026-20.068 16.839.597 16.1-19.789 23.52-29.681 10.803-6.644-8.541-19.553-8.541-26.197 0-9.892 12.717-30.278 5.297-29.681-10.803.401-10.813-9.488-19.111-20.068-16.839-15.752 3.383-26.599-15.404-15.793-27.355 7.258-8.026 5.016-20.739-4.549-25.799-14.242-7.534-10.475-28.898 5.485-31.106 10.719-1.483 17.173-12.663 13.098-22.687-6.067-14.925 10.551-28.87 24.197-20.303 9.164 5.754 21.295 1.338 24.617-8.96 4.945-15.334 26.639-15.334 31.585 0z" fill="#e9b665"/></g><g><path d="m333.705 281.105c-10.719-1.483-17.173-12.663-13.098-22.687 6.067-14.925-10.551-28.87-24.197-20.303-9.164 5.754-21.295 1.338-24.617-8.96-4.946-15.333-26.64-15.333-31.587 0-.209.648-.453 1.273-.73 1.874 23.109 9.21 41.139 28.438 48.703 52.324 5.446 6.945 8.703 15.69 8.703 25.2 0 9.532-3.271 18.294-8.739 25.247-10.019 31.572-38.301 55.006-72.453 57.878 5.645 8.95 19.561 11.164 27.21 1.33 6.644-8.541 19.553-8.541 26.197 0 9.892 12.717 30.278 5.297 29.682-10.803-.401-10.813 9.488-19.111 20.068-16.839 15.752 3.383 26.599-15.404 15.793-27.355-7.258-8.026-5.016-20.739 4.549-25.799 14.243-7.534 10.475-28.899-5.484-31.107z" fill="#d8aa5e"/></g><g><circle cx="256" cy="308.553" fill="#d8aa5e" r="40.883"/></g><g><path d="m256 267.67c-5.729 0-11.18 1.183-16.13 3.311 14.557 6.258 24.753 20.722 24.753 37.572s-10.196 31.315-24.753 37.573c4.949 2.128 10.401 3.311 16.13 3.311 22.579 0 40.883-18.304 40.883-40.883 0-22.58-18.304-40.884-40.883-40.884z" fill="#c99c56"/></g></g><g><g><g><path d="m122.571 383.01h-117.42c-2.845 0-5.151-2.306-5.151-5.151v-219.067c0-2.845 2.306-5.151 5.151-5.151h117.421c2.845 0 5.151 2.306 5.151 5.151v219.067c-.001 2.845-2.307 5.151-5.152 5.151z" fill="#cdbfba"/></g><g><path d="m122.571 153.641h-32.43c2.845 0 5.151 2.306 5.151 5.151v219.067c0 2.845-2.306 5.151-5.151 5.151h32.431c2.845 0 5.151-2.306 5.151-5.151v-219.067c-.001-2.845-2.307-5.151-5.152-5.151z" fill="#b9acac"/></g><g><path d="m87.513 383.01h-47.304v-33.56c0-1.707 1.384-3.091 3.091-3.091h41.123c1.707 0 3.091 1.384 3.091 3.091v33.56z" fill="#efe2dd"/></g><g><path d="m84.423 346.359h-21.151c1.707 0 3.091 1.384 3.091 3.091v33.56h21.151v-33.56c-.001-1.707-1.384-3.091-3.091-3.091z" fill="#e1d3ce"/></g><g fill="#efe2dd"><path d="m31.931 181.167c-4.143 0-7.5 3.358-7.5 7.5v9.397c0 4.142 3.357 7.5 7.5 7.5s7.5-3.358 7.5-7.5v-9.397c0-4.142-3.358-7.5-7.5-7.5z"/><path d="m63.861 181.167c-4.143 0-7.5 3.358-7.5 7.5v9.397c0 4.142 3.357 7.5 7.5 7.5s7.5-3.358 7.5-7.5v-9.397c0-4.142-3.357-7.5-7.5-7.5z"/><path d="m95.792 181.167c-4.143 0-7.5 3.358-7.5 7.5v9.397c0 4.142 3.357 7.5 7.5 7.5s7.5-3.358 7.5-7.5v-9.397c0-4.142-3.357-7.5-7.5-7.5z"/><path d="m31.931 218.758c-4.143 0-7.5 3.358-7.5 7.5v9.398c0 4.142 3.357 7.5 7.5 7.5s7.5-3.358 7.5-7.5v-9.398c0-4.142-3.358-7.5-7.5-7.5z"/><path d="m63.861 218.758c-4.143 0-7.5 3.358-7.5 7.5v9.398c0 4.142 3.357 7.5 7.5 7.5s7.5-3.358 7.5-7.5v-9.398c0-4.142-3.357-7.5-7.5-7.5z"/><path d="m95.792 218.758c-4.143 0-7.5 3.358-7.5 7.5v9.398c0 4.142 3.357 7.5 7.5 7.5s7.5-3.358 7.5-7.5v-9.398c0-4.142-3.357-7.5-7.5-7.5z"/><path d="m31.931 256.349c-4.143 0-7.5 3.358-7.5 7.5v9.397c0 4.142 3.357 7.5 7.5 7.5s7.5-3.358 7.5-7.5v-9.397c0-4.143-3.358-7.5-7.5-7.5z"/><path d="m63.861 256.349c-4.143 0-7.5 3.358-7.5 7.5v9.397c0 4.142 3.357 7.5 7.5 7.5s7.5-3.358 7.5-7.5v-9.397c0-4.143-3.357-7.5-7.5-7.5z"/><path d="m95.792 256.349c-4.143 0-7.5 3.358-7.5 7.5v9.397c0 4.142 3.357 7.5 7.5 7.5s7.5-3.358 7.5-7.5v-9.397c0-4.143-3.357-7.5-7.5-7.5z"/><path d="m31.931 293.939c-4.143 0-7.5 3.358-7.5 7.5v9.398c0 4.142 3.357 7.5 7.5 7.5s7.5-3.358 7.5-7.5v-9.398c0-4.142-3.358-7.5-7.5-7.5z"/><path d="m63.861 293.939c-4.143 0-7.5 3.358-7.5 7.5v9.398c0 4.142 3.357 7.5 7.5 7.5s7.5-3.358 7.5-7.5v-9.398c0-4.142-3.357-7.5-7.5-7.5z"/><path d="m95.792 293.939c-4.143 0-7.5 3.358-7.5 7.5v9.398c0 4.142 3.357 7.5 7.5 7.5s7.5-3.358 7.5-7.5v-9.398c0-4.142-3.357-7.5-7.5-7.5z"/></g></g><g><g><path d="m398.16 285.7v92.159c0 2.845 2.306 5.151 5.151 5.151h89.655c2.845 0 5.151-2.306 5.151-5.151v-92.159z" fill="#a44f3e"/></g><g><path d="m428.703 317.241v65.768h38.872v-65.768c0-1.707-1.384-3.091-3.091-3.091h-32.691c-1.706.001-3.09 1.384-3.09 3.091z" fill="#883f2e"/></g><g><g><g><path d="m498.117 252.986v-37.475c0-8.593-5.333-16.283-13.38-19.296l-19.772-7.402c-4.831 3.194-10.614 5.06-16.827 5.06s-11.995-1.866-16.827-5.06l-19.772 7.402c-8.047 3.013-13.38 10.703-13.38 19.296v37.475z" fill="#0067c5"/></g><g><path d="m484.737 196.215-19.772-7.402c-2.837 1.876-6.009 3.277-9.396 4.128 6.464 3.594 10.588 10.448 10.588 18.002v42.043h31.96v-37.475c0-8.593-5.333-16.284-13.38-19.296z" fill="#0055a3"/></g><g><circle cx="448.139" cy="163.273" fill="#ffcebf" r="31.266"/></g><g><path d="m448.139 132.008c-4.624 0-9.01 1.012-12.96 2.814 10.797 4.926 18.306 15.809 18.306 28.452s-7.509 23.525-18.306 28.452c3.949 1.802 8.335 2.814 12.96 2.814 17.268 0 31.266-13.998 31.266-31.266s-13.999-31.266-31.266-31.266z" fill="#ffb09e"/></g></g></g><g><path d="m506.849 286.73h-117.42c-2.845 0-5.151-2.306-5.151-5.151v-24.473c0-2.845 2.306-5.151 5.151-5.151h117.421c2.845 0 5.151 2.306 5.151 5.151v24.473c-.001 2.845-2.307 5.151-5.152 5.151z" fill="#c96e59"/></g><g><path d="m506.849 251.955h-32.451c2.845 0 5.151 2.306 5.151 5.151v24.473c0 2.845-2.306 5.151-5.151 5.151h32.451c2.845 0 5.151-2.306 5.151-5.151v-24.473c0-2.844-2.306-5.151-5.151-5.151z" fill="#bb5d4c"/></g></g></g><g><g><path d="m154.012 462.984h-74.699c-12.656 0-22.952-10.296-22.952-22.953v-31.936c0-4.142 3.357-7.5 7.5-7.5s7.5 3.358 7.5 7.5v31.936c0 4.385 3.567 7.953 7.952 7.953h74.698c4.143 0 7.5 3.358 7.5 7.5s-3.357 7.5-7.499 7.5z" fill="#b2caec"/></g><g><path d="m432.687 462.984h-76.759c-4.143 0-7.5-3.358-7.5-7.5s3.357-7.5 7.5-7.5h76.759c4.385 0 7.952-3.567 7.952-7.953v-31.936c0-4.142 3.357-7.5 7.5-7.5s7.5 3.358 7.5 7.5v31.936c0 12.657-10.296 22.953-22.952 22.953z" fill="#b2caec"/></g></g><g><path d="m339.491 42.809h-166.982c-4.143 0-7.5-3.358-7.5-7.5s3.357-7.5 7.5-7.5h166.982c4.143 0 7.5 3.358 7.5 7.5s-3.357 7.5-7.5 7.5z" fill="#e9b665"/></g></g><g/><g/><g/><g/><g/><g/><g/><g/><g/><g/><g/><g/><g/><g/><g/></svg>