<svg id="Flat" height="512" viewBox="0 0 512 512" width="512" xmlns="http://www.w3.org/2000/svg"><g><g><g><rect fill="#c85aed" height="464" rx="10" width="288" x="200" y="24"/><path d="m408 360h80a0 0 0 0 1 0 0v118a10 10 0 0 1 -10 10h-70a0 0 0 0 1 0 0v-128a0 0 0 0 1 0 0z" fill="#8d5aed"/><path d="m24 456v-156a20 20 0 0 1 20-20h344a20 20 0 0 1 20 20v156z" fill="#fa5d3f"/><path d="m64 488h-40v-144h10a30 30 0 0 1 30 30z" fill="#fed672"/><path d="m246 384a30 30 0 0 0 -30 30 30 30 0 0 0 -30-30h-122v48h304v-48z" fill="#fdbf44"/><rect fill="#fffefa" height="64" rx="20" width="64" x="104" y="320"/><rect fill="#fffefa" height="64" rx="20" width="64" x="264" y="320"/><path d="m408 488h-40v-114a30 30 0 0 1 30-30h10z" fill="#fed672"/></g><path d="m52.844 178 10.198 18.646 18.647 10.198-18.647 10.198-10.198 18.647-10.198-18.647-18.646-10.198 18.646-10.198z" fill="#fed672"/><path d="m139.156 64 10.198 18.646 18.646 10.198-18.646 10.198-10.198 18.647-10.198-18.647-18.647-10.198 18.647-10.198z" fill="#fed672"/><g><path d="m210 24h86a0 0 0 0 1 0 0v112a0 0 0 0 1 0 0h-96a0 0 0 0 1 0 0v-102a10 10 0 0 1 10-10z" fill="#8d5aed"/><path d="m448 232v-96h-48v96h-200v48h288v-48z" fill="#8d5aed"/><g fill="#f6fdfc"><path d="m232 168h16v32h-16z"/><path d="m264 72h16v16h-16z"/><path d="m328 72h16v16h-16z"/><path d="m432 96h32v16h-32z"/></g></g><path d="m440 408h16v32h-16z" fill="#f6fdfc"/></g><path d="m416 128v-104h-16v104h-200v16h288v-16z" fill="#dea3f7"/></g></svg>