<svg xmlns="http://www.w3.org/2000/svg" width="10" height="16" viewBox="0 0 10 16" fill="none">
  <path d="M4.91433 1.53394C2.20131 1.53394 0 3.52251 0 5.97286C0 9.91858 4.91433 15.3439 4.91433 15.3439C4.91433 15.3439 9.82866 9.91858 9.82866 5.97286C9.82866 3.52251 7.62735 1.53394 4.91433 1.53394ZM4.91433 8.43894C4.52555 8.43894 4.14549 8.32323 3.82223 8.10645C3.49897 7.88967 3.24701 7.58155 3.09823 7.22106C2.94945 6.86057 2.91052 6.46389 2.98637 6.08119C3.06222 5.6985 3.24944 5.34697 3.52435 5.07106C3.79926 4.79515 4.14952 4.60725 4.53084 4.53113C4.91215 4.45501 5.30739 4.49408 5.66658 4.6434C6.02577 4.79272 6.33278 5.04558 6.54878 5.37002C6.76477 5.69445 6.88006 6.07588 6.88006 6.46608C6.87949 6.98914 6.67221 7.49061 6.30368 7.86047C5.93516 8.23033 5.4355 8.43836 4.91433 8.43894Z" fill="#717D82"/>
</svg>