<svg xmlns="http://www.w3.org/2000/svg" width="240" height="220" viewBox="0 0 240 220" fill="none">
  <g clip-path="url(#clip0_793_8680)">
    <path d="M214.008 138.985C212.406 140.05 211.987 141.942 211.113 143.456C207.664 149.26 203.844 154.835 199.677 160.147C197.553 163.015 195.1 165.626 192.368 167.924C189.741 170.044 189.791 172.467 190.216 175.333C190.602 177.681 190.712 180.066 190.544 182.439C190.317 184.963 188.488 186.805 186.649 188.471C182.447 192.276 177.294 193.937 171.884 195.062C169.273 195.602 166.641 196.071 164.05 196.728C161.458 197.384 158.928 197.737 156.361 198.242C156.407 196.864 157.604 196.728 158.473 196.576C162.039 195.93 165.504 194.86 169.081 194.275C171.97 193.805 174.769 192.932 177.613 192.256C179.384 191.793 180.961 190.776 182.113 189.354C183.214 188.344 184.538 187.582 185.599 186.482C188.589 183.383 189.897 179.81 188.928 175.525C188.718 174.739 188.601 173.931 188.579 173.118C188.771 169.267 187.65 165.633 186.897 161.923C185.664 155.867 184.25 149.841 182.997 143.789C181.987 138.818 180.84 133.872 179.729 128.921C176.698 115.294 173.511 101.733 170.662 88.0805C168.768 78.9958 166.621 69.9718 164.444 60.9629C162.928 54.5431 161.377 48.1233 160.089 41.6429C160.062 40.3023 159.87 38.97 159.519 37.676C158.079 31.4328 156.634 25.1896 155.361 18.9112C154.87 16.0968 153.841 13.4032 152.33 10.9773C151.856 9.96785 151.012 9.10986 151.421 7.86829C152.972 8.68086 153.442 10.2404 153.947 11.7141C154.563 13.4604 155.498 14.3285 157.549 14.2376C165.418 13.7968 173.31 14.511 180.972 16.3574C185.039 17.4007 189.016 18.7713 192.863 20.4555C201.423 23.9564 209.102 29.3082 215.346 36.1265C219.062 40.2461 222.098 44.9314 224.338 50.0058C226.351 54.6483 227.863 59.4923 228.848 64.4554C229.438 67.0618 229.776 69.7185 229.859 72.3893C229.899 74.5999 230.293 76.8206 230.157 79.016C229.626 87.4193 228.944 95.7923 226.651 103.984C225.54 107.946 224.737 112.024 223.408 115.905C221.676 120.952 220.039 126.059 217.544 130.814C216.639 131 216.372 130.238 215.957 129.718C215.543 129.198 215.215 128.512 214.624 128.103C214.369 127.9 214.055 127.786 213.729 127.778C213.403 127.771 213.084 127.871 212.82 128.063C212.576 128.183 212.387 128.393 212.293 128.648C212.199 128.904 212.207 129.186 212.315 129.436C213.518 131.606 212.058 132.646 210.593 133.705C210.355 133.877 210.088 134.034 209.881 134.21C209.502 134.528 209.168 134.897 209.487 135.406C209.805 135.916 210.386 135.871 210.881 135.603C211.747 135.114 212.566 134.544 213.326 133.902C213.917 133.423 214.528 133.135 215.169 133.842C215.675 134.957 214.881 135.482 214.199 136.113C213.694 136.618 212.654 136.87 213.22 137.95C213.472 138.273 213.997 138.445 214.008 138.985Z" fill="#F79612" fill-opacity="0.2"/>
    <path d="M90.972 192.574C84.8112 190.605 78.8139 188.158 73.0346 185.256C65.4172 181.329 58.6332 176.338 52.2382 170.66C44.848 164.099 39.1046 156.326 34.4776 147.721C30.6766 140.562 28.0372 132.844 26.6581 124.858C26.5621 124.328 26.6227 123.778 25.9004 123.682C25.9863 122.92 26.648 122.87 27.1683 122.673C27.83 122.446 28.517 122.299 29.1888 122.072C31.275 121.35 31.7448 120.719 31.169 118.539C29.8455 113.533 28.3806 108.561 26.8702 103.605C26.6732 102.964 26.1782 102.353 26.5823 101.617C27.4027 100.635 27.9281 99.4418 28.0977 98.1745C28.5422 95.6005 29.6586 93.2234 30.6234 90.8059C33.0935 84.5728 36.8164 79.0716 40.9635 73.9085C44.641 69.2272 48.8273 64.9684 53.4454 61.2102C55.466 59.585 57.2744 57.647 59.4768 56.2086C60.1587 55.7594 59.9819 55.0982 60.0678 54.4775C61.4216 55.5676 61.4821 57.0716 61.1134 58.5151C60.8827 59.3533 60.8602 60.2351 61.0477 61.084C61.6438 63.8296 62.3308 66.5499 62.9117 69.2955C63.0817 70.0969 63.4499 70.843 63.9826 71.4657C64.4853 72.043 64.8399 72.7338 65.0159 73.4785C65.1919 74.2232 65.184 74.9995 64.9929 75.7405C64.7579 76.7022 64.7579 77.7062 64.9929 78.6678C65.5435 81.2418 66.1547 83.8006 66.6952 86.3796C66.8156 87.2551 67.2139 88.0689 67.8317 88.7013C68.5238 89.3321 68.6904 90.2154 68.8824 91.0633C75.6108 121.386 82.5211 151.668 89.2192 181.995C89.8405 184.791 90.4972 187.582 91.1185 190.378C91.265 191.14 91.5883 191.892 90.972 192.574Z" fill="#F79612" fill-opacity="0.2"/>
    <path d="M90.9727 192.574C89.9625 188.032 89.0179 183.444 87.9975 178.886C82.771 155.455 77.5361 132.021 72.2928 108.586C70.9458 102.601 69.5987 96.615 68.2517 90.6292C68.085 89.9025 68.0143 89.1656 67.0748 88.8577C66.4737 88.6609 66.504 87.8887 66.3777 87.3436C65.6604 84.2111 64.9582 81.0752 64.2712 77.936C64.0947 77.1688 64.1709 76.3651 64.4885 75.6446C64.736 74.9968 64.7831 74.2896 64.6236 73.6147C64.4642 72.9398 64.1057 72.3283 63.5944 71.8594C63.0239 71.3822 62.6366 70.7223 62.4982 69.992C61.8567 67.1455 61.2101 64.299 60.609 61.4373C60.3817 60.3572 59.9928 59.4185 60.7151 58.1416C61.2202 57.223 60.5181 55.6938 60.0382 54.5027C59.8715 53.2662 59.1845 52.3022 58.6238 51.2322C57.6136 49.274 56.5174 46.9069 57.6136 44.4844C57.8762 43.8939 57.6388 43.475 57.5378 42.9703C56.871 39.826 56.1335 36.7019 55.4516 33.5576C53.724 25.5581 58.1137 18.1541 66.0594 16.2161C76.0611 13.7884 86.1335 11.6737 96.1706 9.41773C108.895 6.56112 121.609 3.67423 134.339 0.837806C141.734 -0.792379 147.007 1.41316 151.382 7.80773L152.518 10.5785C153.47 12.5816 154.19 14.6863 154.665 16.852C156.312 24.3821 157.979 31.9055 159.666 39.4222C159.852 40.157 160.157 40.8562 160.57 41.4915C161.121 44.0907 161.651 46.695 162.222 49.2891C163.071 53.14 163.945 56.9808 164.808 60.8316C165.869 68.6495 168.046 76.2351 169.678 83.9369C172.598 97.7001 175.709 111.428 178.801 125.156C181.326 136.486 183.817 147.842 186.347 159.183C187.476 163.822 188.372 168.515 189.03 173.244C189.319 174.661 189.53 176.093 189.661 177.534C189.828 182.147 187.762 185.675 184.105 188.344C183.539 188.753 182.948 189.127 182.372 189.515C180.858 190.725 179.073 191.548 177.169 191.913C164.172 194.941 151.15 197.833 138.127 200.735C128.989 202.754 119.861 204.868 110.718 206.887C108.606 207.298 106.437 207.329 104.313 206.978C98.8478 206.029 94.6501 203.349 92.5033 198.07C91.8012 196.334 91.4728 194.416 90.9727 192.574Z" fill="#003362"/>
    <path d="M26.5732 101.632C28.3816 106.134 29.3515 110.888 30.8214 115.491C31.1902 116.657 31.5185 117.838 31.8014 119.024C32.2105 120.75 31.564 121.754 29.8616 122.36C28.5483 122.829 27.1238 122.95 25.9014 123.682C21.9411 124.469 18.1475 125.873 14.258 126.917C12.5052 127.387 10.7877 127.977 9.03995 128.431C7.19115 128.926 5.99566 128.243 5.45348 126.382C3.91282 121.169 2.42266 115.95 0.866838 110.737C0.386959 109.106 0.957774 107.92 2.47318 107.34C3.60974 106.911 3.87746 106.33 3.48345 105.24C3.0945 104.231 2.94801 103.08 2.54895 102.046C1.16488 98.4369 3.64004 93.9703 6.71126 92.5976C9.07025 91.5276 11.5202 90.7049 14.1671 90.9522C17.3444 91.2449 19.6529 92.8398 20.9106 95.8074C21.2759 96.6682 21.5501 97.5647 21.729 98.4824C22.0725 100.279 22.5877 101.738 24.9265 101.147C25.4872 101.021 26.0428 101.374 26.5732 101.632Z" fill="#F79612"/>
    <path d="M227.364 144.122C228.631 143.915 229.907 143.772 231.188 143.693C235.482 143.628 239.301 146.979 239.659 151.027C240.084 155.872 237.204 159.758 232.587 160.576C228.364 161.323 223.864 158.486 222.914 154.297C222.354 152.115 222.675 149.8 223.808 147.852C224.176 147.398 224.407 146.848 224.475 146.267C225.44 145.556 226.243 144.622 227.364 144.122Z" fill="#F79612"/>
    <path d="M104.322 206.998C109.96 207.094 115.274 205.338 120.684 204.147C133.181 201.391 145.663 198.595 158.15 195.769C164.479 194.345 170.778 192.897 177.128 191.474C178.966 191.055 180.663 190.212 182.381 189.536C180.608 191.953 177.976 192.609 175.238 193.331C171.132 194.406 166.893 194.845 162.852 196.177C161.367 196.682 159.726 196.415 158.24 197.045C157.548 197.338 156.755 197.419 156.361 198.191C154.156 198.391 151.983 198.866 149.896 199.604C145.627 201.083 141.106 201.366 136.802 202.567C131.438 204.081 125.993 205.242 120.552 206.352C116.986 207.084 113.48 208.305 109.717 208.068C107.848 207.952 106.126 207.331 104.322 206.998Z" fill="#DCE0E2"/>
    <path d="M227.365 144.123C226.566 145.056 225.93 146.222 224.465 146.267C222.445 143.648 220.328 141.094 218.403 138.389C217.489 137.092 216.737 136.814 215.534 137.884C215.04 138.28 214.524 138.647 213.989 138.985C213.752 138.956 213.527 138.866 213.337 138.723C213.146 138.581 212.996 138.391 212.903 138.172C212.286 136.87 213.458 136.507 214.12 135.881C214.681 135.351 215.842 135.104 215.009 133.938C214.398 133.393 213.999 133.832 213.494 134.195C212.716 134.801 211.877 135.336 211.119 135.967C210.362 136.597 209.639 136.613 209.028 135.805C208.351 134.917 208.851 134.291 209.594 133.786C210.023 133.488 210.463 133.201 210.877 132.878C211.988 132.025 213.241 131.308 211.842 129.587C211.15 128.739 212.003 127.876 212.731 127.432C213.098 127.185 213.546 127.087 213.983 127.159C214.419 127.232 214.812 127.468 215.08 127.821C215.938 128.764 216.423 130.011 217.509 130.758C219.692 133.705 221.881 136.655 224.076 139.605C225.182 141.104 226.268 142.613 227.365 144.123Z" fill="#F79612"/>
    <path d="M229.949 208.805C227.282 208.805 225.479 206.938 225.504 204.263C225.529 201.674 227.343 199.897 229.959 199.902C232.576 199.907 234.647 201.85 234.612 204.197C234.629 204.811 234.52 205.422 234.291 205.992C234.062 206.562 233.718 207.079 233.281 207.511C232.844 207.943 232.323 208.281 231.749 208.504C231.176 208.726 230.564 208.829 229.949 208.805Z" fill="#F79612"/>
    <path d="M226.404 13.9903C226.438 14.8681 226.295 15.7437 225.982 16.5648C225.67 17.3858 225.194 18.1354 224.585 18.7687C223.976 19.402 223.245 19.9059 222.436 20.2504C221.627 20.5949 220.757 20.7728 219.878 20.7735C218.103 20.8064 216.387 20.1414 215.098 18.9217C213.809 17.702 213.051 16.0253 212.988 14.2528C212.967 13.3285 213.134 12.4095 213.478 11.5513C213.822 10.6931 214.337 9.91327 214.99 9.25882C215.644 8.60437 216.423 8.0888 217.281 7.74315C218.14 7.3975 219.059 7.2289 219.984 7.24751C222.863 7.31817 226.682 9.83158 226.404 13.9903Z" fill="#F79612"/>
    <path d="M15.8023 69.6841C12.2916 69.6841 9.70022 67.0243 9.70022 63.4157C9.68547 62.5974 9.8339 61.7843 10.1369 61.0238C10.4398 60.2633 10.8913 59.5707 11.4649 58.9863C12.0385 58.4019 12.7227 57.9375 13.4778 57.62C14.2329 57.3026 15.0437 57.1384 15.8629 57.1372C17.5215 57.1426 19.1102 57.805 20.2807 58.9792C21.4511 60.1533 22.1077 61.7434 22.1064 63.4006C22.1339 64.2345 21.9895 65.0651 21.6823 65.8409C21.375 66.6167 20.9114 67.3211 20.3202 67.9103C19.729 68.4996 19.0229 68.9611 18.2457 69.2663C17.4685 69.5714 16.6368 69.7136 15.8023 69.6841Z" fill="#F79612"/>
    <path d="M26.5666 41.6126C26.5666 39.7351 27.7688 38.5844 29.6731 38.645C30.0839 38.6298 30.4933 38.7012 30.8746 38.8544C31.256 39.0077 31.6008 39.2394 31.8866 39.5346C32.1725 39.8297 32.393 40.1816 32.5338 40.5675C32.6746 40.9533 32.7326 41.3644 32.7039 41.7741C32.7075 42.1837 32.6266 42.5897 32.4663 42.9667C32.3059 43.3437 32.0696 43.6837 31.772 43.9654C31.4744 44.2472 31.1218 44.4646 30.7364 44.6043C30.351 44.7439 29.9409 44.8028 29.5317 44.7771C27.7233 44.7468 26.5514 43.4901 26.5666 41.6126Z" fill="#F79612"/>
    <path d="M40.5145 198.772C40.9812 198.761 41.4449 198.848 41.8759 199.027C42.3069 199.206 42.6958 199.473 43.0177 199.811C43.3396 200.149 43.5874 200.55 43.7452 200.989C43.903 201.428 43.9675 201.895 43.9343 202.36C43.9343 202.827 43.8417 203.289 43.6618 203.72C43.4819 204.151 43.2183 204.542 42.8862 204.871C42.5541 205.199 42.1601 205.459 41.727 205.634C41.2939 205.81 40.8303 205.898 40.363 205.893C39.8818 205.88 39.408 205.772 38.969 205.574C38.53 205.377 38.1346 205.095 37.8057 204.743C37.4768 204.392 37.2209 203.979 37.0529 203.529C36.8849 203.078 36.8081 202.598 36.827 202.118C36.9078 200.064 38.3323 198.746 40.5145 198.772Z" fill="#F79612"/>
    <path d="M219.924 177.271C219.805 177.529 219.657 177.773 219.484 177.998C218.02 179.664 216.541 181.317 215.049 182.959C214.701 183.348 214.246 183.787 213.716 183.282C213.185 182.778 213.499 182.308 213.872 181.889C215.425 180.143 216.979 178.402 218.535 176.666C218.813 176.353 219.126 176.05 219.585 176.333C219.843 176.504 219.974 176.762 219.924 177.271Z" fill="#003362"/>
    <path d="M202.966 193.27C202.821 193.289 202.673 193.257 202.548 193.18C202.423 193.103 202.328 192.985 202.279 192.846C202.194 192.69 202.164 192.51 202.196 192.334C202.227 192.159 202.317 192 202.451 191.882C204.396 190.293 206.356 188.728 208.321 187.169C208.388 187.111 208.468 187.068 208.554 187.045C208.64 187.021 208.73 187.016 208.817 187.031C208.905 187.046 208.988 187.08 209.062 187.131C209.135 187.182 209.196 187.248 209.24 187.325C209.36 187.459 209.426 187.632 209.426 187.812C209.426 187.992 209.36 188.165 209.24 188.299C207.357 190.129 205.308 191.78 203.118 193.23C203.07 193.252 203.019 193.266 202.966 193.27Z" fill="#003362"/>
    <path d="M197.536 196.541C197.568 196.76 197.527 196.983 197.419 197.176C197.311 197.37 197.143 197.522 196.94 197.611L191.293 201.063C190.863 201.32 190.409 201.492 190.085 200.947C189.762 200.402 190 199.937 190.5 199.625C192.429 198.44 194.362 197.263 196.299 196.092C196.945 195.683 197.395 195.854 197.536 196.541Z" fill="#003362"/>
    <path d="M43.3841 178.255C43.3876 178.406 43.3517 178.555 43.28 178.688C43.2082 178.821 43.1031 178.933 42.9749 179.012C42.8998 179.06 42.8156 179.091 42.7276 179.104C42.6397 179.117 42.55 179.112 42.4643 179.088C42.3786 179.064 42.2989 179.023 42.2303 178.966C42.1616 178.91 42.1056 178.84 42.0657 178.76C40.6176 176.714 39.1847 174.659 37.767 172.593C37.6934 172.499 37.6413 172.391 37.6145 172.275C37.5877 172.159 37.5868 172.039 37.6119 171.923C37.637 171.807 37.6875 171.697 37.7597 171.603C37.8319 171.509 37.9241 171.431 38.0297 171.376C38.1032 171.326 38.1864 171.292 38.2739 171.277C38.3615 171.261 38.4514 171.264 38.5377 171.285C38.624 171.307 38.7049 171.346 38.7749 171.401C38.8449 171.456 38.9025 171.525 38.944 171.603C40.3836 173.658 41.803 175.722 43.2225 177.791C43.2986 177.937 43.3531 178.094 43.3841 178.255Z" fill="#003362"/>
    <path d="M101.079 217.092C99.4624 216.699 97.4217 216.209 95.386 215.709C94.8101 215.568 94.3757 215.23 94.5575 214.594C94.7394 213.958 95.2597 213.918 95.8204 214.054L101.776 215.457C102.321 215.588 102.786 215.805 102.7 216.502C102.614 217.198 102.074 217.234 101.079 217.092Z" fill="#003362"/>
    <path d="M30.6796 157.911C30.8608 157.921 31.0353 157.983 31.1823 158.089C31.3292 158.196 31.4423 158.343 31.508 158.512C32.6294 160.621 33.7457 162.734 34.857 164.851C35.1147 165.355 35.246 165.89 34.6297 166.213C34.0135 166.536 33.766 166.092 33.5336 165.658C32.4324 163.604 31.3262 161.55 30.2553 159.476C29.9471 158.87 29.8613 158.234 30.6796 157.911Z" fill="#003362"/>
    <path d="M22.6216 136.734C22.662 137.238 22.5105 137.546 22.1569 137.693C21.6517 137.905 21.3638 137.571 21.2375 137.163C20.463 134.659 19.7086 132.151 18.9745 129.638C18.9423 129.539 18.931 129.434 18.9411 129.33C18.9512 129.227 18.9826 129.126 19.0333 129.035C19.0841 128.944 19.153 128.865 19.2359 128.802C19.3188 128.739 19.4138 128.693 19.515 128.669C19.5992 128.64 19.6886 128.631 19.7769 128.64C19.8653 128.649 19.9506 128.677 20.0272 128.722C20.1038 128.767 20.1699 128.828 20.2209 128.9C20.272 128.973 20.3069 129.056 20.3232 129.143C21.1062 131.707 21.879 134.271 22.6216 136.734Z" fill="#003362"/>
    <path d="M47.5662 183.393C47.8131 183.585 48.0492 183.791 48.2734 184.009C49.6979 185.523 51.1072 187.108 52.5317 188.647C52.961 189.107 53.3399 189.626 52.8701 190.161C52.2892 190.848 51.8245 190.222 51.4457 189.818C49.9656 188.249 48.5108 186.654 47.056 185.059C46.8745 184.908 46.7464 184.703 46.6909 184.474C46.6354 184.245 46.6554 184.004 46.7479 183.787C46.8843 183.504 47.1369 183.383 47.5662 183.393Z" fill="#003362"/>
    <path d="M24.4764 143.658C25.0522 143.688 25.2038 144.062 25.3604 144.451C26.2292 146.616 27.1132 148.776 27.9719 150.951C28.1942 151.501 28.3811 152.183 27.6082 152.42C26.9414 152.622 26.7596 151.986 26.5626 151.496C25.719 149.387 24.8653 147.277 24.0369 145.162C23.7742 144.531 23.6328 143.906 24.4764 143.658Z" fill="#003362"/>
    <path d="M223.753 171.528C222.874 171.351 222.904 170.695 223.187 170.19C224.455 168.027 225.6 165.795 226.617 163.503C226.642 163.418 226.683 163.339 226.739 163.27C226.795 163.201 226.863 163.144 226.941 163.101C227.019 163.059 227.105 163.033 227.193 163.024C227.281 163.015 227.37 163.023 227.455 163.049C227.543 163.062 227.628 163.094 227.703 163.142C227.778 163.19 227.843 163.253 227.893 163.327C227.943 163.4 227.977 163.484 227.993 163.572C228.009 163.659 228.006 163.749 227.986 163.836C227.072 166.484 225.795 168.993 224.192 171.291C224.106 171.417 223.899 171.457 223.753 171.528Z" fill="#003362"/>
    <path d="M69.5888 202.597C69.7808 202.693 70.0485 202.819 70.301 202.966C72.0236 203.975 73.741 204.954 75.4686 205.938C76.0293 206.256 76.4788 206.66 76.1404 207.331C75.802 208.003 75.2615 207.765 74.7866 207.488C72.9581 206.438 71.1446 205.373 69.3261 204.308C69.0852 204.198 68.8972 203.998 68.8027 203.75C68.7083 203.503 68.7148 203.228 68.821 202.986C68.9271 202.683 69.1847 202.562 69.5888 202.597Z" fill="#003362"/>
    <path d="M183.872 203.173C184.458 203.112 184.705 203.233 184.816 203.551C184.917 203.735 184.942 203.951 184.885 204.153C184.828 204.355 184.695 204.526 184.513 204.631C182.358 205.674 180.191 206.697 178.012 207.7C177.931 207.736 177.843 207.756 177.754 207.757C177.665 207.758 177.577 207.741 177.495 207.706C177.413 207.672 177.339 207.62 177.277 207.556C177.216 207.491 177.169 207.415 177.138 207.331C176.982 206.978 177.002 206.534 177.32 206.372C179.563 205.242 181.831 204.162 183.872 203.173Z" fill="#003362"/>
    <path d="M89.2284 212.55C89.1526 213.262 88.8293 213.66 88.1878 213.418C86.0208 212.585 83.8739 211.712 81.7322 210.824C81.6382 210.786 81.5531 210.729 81.4821 210.656C81.411 210.584 81.3556 210.498 81.3191 210.403C81.2827 210.309 81.266 210.208 81.2702 210.106C81.2743 210.005 81.2992 209.906 81.3432 209.814C81.3677 209.714 81.4145 209.621 81.4803 209.542C81.546 209.462 81.6289 209.399 81.7228 209.356C81.8166 209.313 81.919 209.292 82.0221 209.295C82.1252 209.297 82.2264 209.323 82.3181 209.37C84.4296 210.183 86.536 211.011 88.6374 211.838C88.7855 211.901 88.9164 211.999 89.0192 212.123C89.122 212.246 89.1937 212.393 89.2284 212.55Z" fill="#003362"/>
    <path d="M151.315 216.436C150.522 216.502 150.138 216.365 150.032 215.891C150.001 215.776 149.994 215.656 150.012 215.538C150.03 215.421 150.072 215.308 150.137 215.208C150.201 215.107 150.285 215.021 150.385 214.956C150.484 214.89 150.596 214.846 150.714 214.826C152.866 214.291 155.028 213.817 157.19 213.312C157.619 213.211 158.038 213.272 158.2 213.776C158.247 213.886 158.269 214.004 158.265 214.123C158.261 214.241 158.232 214.358 158.178 214.464C158.125 214.57 158.049 214.663 157.956 214.737C157.863 214.811 157.755 214.864 157.639 214.892C155.412 215.447 153.199 215.977 151.315 216.436Z" fill="#003362"/>
    <path d="M57.9864 193.952C58.2164 194.071 58.436 194.21 58.6431 194.366C60.2747 195.673 61.8962 196.995 63.5177 198.312C63.9976 198.701 64.432 199.145 63.9168 199.766C63.4015 200.387 62.962 199.963 62.5478 199.64C60.9112 198.338 59.2847 197.024 57.6682 195.698C57.4385 195.562 57.2627 195.352 57.1706 195.102C57.0786 194.851 57.0759 194.577 57.1631 194.325C57.3096 194.007 57.5823 193.937 57.9864 193.952Z" fill="#003362"/>
    <path d="M171.81 209.608C171.801 209.847 171.712 210.077 171.557 210.26C171.403 210.443 171.191 210.568 170.956 210.617C168.979 211.29 167.007 211.98 165.041 212.686C164.505 212.873 163.975 212.979 163.748 212.303C163.52 211.626 163.909 211.323 164.47 211.127L170.713 208.941C171.38 208.699 171.688 209.022 171.81 209.608Z" fill="#003362"/>
    <path d="M137.874 218.647C137.02 218.591 136.323 218.849 136.207 217.97C136.081 216.996 136.864 217.017 137.465 216.931C139.359 216.658 141.253 216.426 143.153 216.179C143.658 216.108 144.274 216.068 144.42 216.744C144.567 217.42 144.087 217.784 143.41 217.875L137.874 218.647Z" fill="#003362"/>
    <path d="M113.854 218.96C112.622 218.828 111.005 218.672 109.389 218.485C108.803 218.415 108.151 218.293 108.273 217.476C108.394 216.658 109.03 216.729 109.626 216.794C111.531 217.001 113.43 217.229 115.334 217.42C115.935 217.476 116.597 217.481 116.562 218.283C116.526 219.086 115.91 219.111 115.279 219.03C114.935 218.99 114.607 218.995 113.854 218.96Z" fill="#003362"/>
    <path d="M126.458 217.567H129.418C129.983 217.567 130.524 217.683 130.569 218.344C130.615 219.005 130.145 219.262 129.559 219.273C127.414 219.303 125.265 219.326 123.114 219.343C122.608 219.343 122.199 219.141 122.219 218.531C122.24 217.92 122.644 217.758 123.159 217.753C124.26 217.753 125.361 217.753 126.468 217.753L126.458 217.567Z" fill="#003362"/>
    <path d="M189.044 173.264C187.994 170.594 187.736 167.712 187.1 164.967C185.514 158.088 184.028 151.188 182.498 144.299C180.312 134.447 178.123 124.597 175.931 114.749C172.264 98.2418 168.595 81.7347 164.924 65.2276C164.606 63.7791 164.874 62.3104 164.823 60.8518C165.965 63.4914 166.172 66.3632 166.844 69.1138C170.021 81.9332 172.542 94.899 175.396 107.789C176.451 112.558 177.532 117.323 178.765 122.052C179.715 125.706 180.078 129.511 181.053 133.155C182.74 139.454 183.842 145.874 185.337 152.208C186.66 157.8 187.832 163.427 188.948 169.065C189.231 170.417 189.029 171.861 189.044 173.264Z" fill="#BAC7D4"/>
    <path d="M160.575 41.5117C159.348 40.9161 159.277 39.7806 159.06 38.6097C158.196 34.456 157.135 30.3426 156.262 26.194C155.16 20.9602 153.887 15.7719 152.549 10.5987C154.569 13.1222 155.322 16.1504 155.969 19.2241C156.827 23.2617 157.828 27.2539 158.631 31.2763C159.292 34.6831 160.535 37.9889 160.575 41.5117Z" fill="#B7C4CE"/>
    <path d="M215.028 133.938C216.579 134.876 215.129 135.391 214.649 135.785C213.841 136.451 212.901 136.936 212.921 138.172C211.709 137.319 212.765 136.855 213.24 136.279C213.861 135.517 215.255 135.346 215.028 133.938Z" fill="#E4CE57"/>
    <path d="M106.358 201.477C104.183 201.526 102.06 200.808 100.362 199.448C98.6638 198.088 97.4997 196.175 97.0738 194.043C95.3412 186.285 93.649 178.518 91.9063 170.761C88.0235 153.48 84.1289 136.2 80.2225 118.923C75.7133 98.7886 71.2193 78.651 66.7404 58.51C64.7906 49.7854 62.8307 41.0608 60.8606 32.3362C59.5473 26.4766 62.073 22.3936 68.0083 21.0561C79.8184 18.361 91.6436 15.7416 103.464 13.097C114.536 10.624 125.604 8.1055 136.702 5.72331C141.788 4.62811 146.299 7.62099 147.411 12.6276C152.27 34.3096 157.118 55.9916 161.953 77.6735C168.554 107.155 175.166 136.641 181.79 166.133C182.467 169.161 183.245 172.159 183.77 175.217C184.239 177.575 183.753 180.023 182.419 182.024C181.085 184.025 179.012 185.415 176.653 185.892C162.105 189.202 147.537 192.453 132.979 195.693C124.816 197.523 116.651 199.352 108.485 201.179C107.631 201.361 106.747 201.421 106.358 201.477Z" fill="#FEFEFE"/>
    <path d="M6.21555 99.5877C6.15834 98.8197 6.39078 98.0582 6.86716 97.4528C8.55432 95.111 11.0851 94.5861 13.6815 94.7173C16.0505 94.8334 17.0507 96.6099 17.5912 98.7852C18.5257 102.545 18.6015 102.54 14.9392 103.661C13.045 104.246 11.1305 104.761 9.24637 105.361C8.19063 105.7 7.56426 105.447 7.3622 104.312C7.07428 102.717 6.25091 101.243 6.21555 99.5877Z" fill="#FEFEFC"/>
    <path d="M15.8087 111.019C17.4504 111.019 18.6223 112.225 18.3343 113.729C18.0856 114.628 18.198 115.588 18.6475 116.404C19.2032 117.348 18.8243 118.024 17.7585 118.125C16.8947 118.211 15.6369 119.422 15.2985 117.515C15.1992 116.477 14.7294 115.509 13.975 114.789C13.6409 114.493 13.4267 114.084 13.3728 113.641C13.3188 113.198 13.4288 112.75 13.6821 112.382C14.1922 111.494 14.8489 110.933 15.8087 111.019Z" fill="#FDFCF3"/>
    <path d="M228.395 152.122C228.381 151.758 228.441 151.395 228.572 151.055C228.703 150.715 228.901 150.405 229.155 150.143C229.409 149.882 229.713 149.675 230.05 149.534C230.386 149.394 230.748 149.323 231.112 149.326C231.507 149.309 231.901 149.375 232.269 149.52C232.637 149.665 232.97 149.885 233.247 150.167C233.524 150.448 233.739 150.785 233.878 151.155C234.016 151.525 234.076 151.92 234.052 152.314C234.042 152.679 233.96 153.038 233.811 153.371C233.661 153.705 233.447 154.005 233.181 154.255C232.915 154.505 232.601 154.7 232.259 154.829C231.917 154.957 231.553 155.017 231.188 155.004C230.809 155.021 230.43 154.957 230.078 154.817C229.725 154.677 229.406 154.463 229.142 154.191C228.878 153.919 228.675 153.593 228.546 153.237C228.417 152.88 228.366 152.5 228.395 152.122Z" fill="#FCFCF8"/>
    <path d="M214.326 13.9903C214.32 12.5731 214.872 11.2104 215.862 10.1956C216.852 9.18087 218.202 8.59521 219.62 8.56479C220.353 8.5532 221.08 8.68888 221.76 8.96378C222.439 9.23868 223.056 9.64718 223.574 10.165C224.093 10.6829 224.502 11.2995 224.777 11.9783C225.052 12.6571 225.188 13.3842 225.176 14.1165C225.19 14.8428 225.059 15.5646 224.789 16.2391C224.519 16.9137 224.117 17.5273 223.605 18.0436C223.094 18.5599 222.484 18.9685 221.812 19.2451C221.139 19.5217 220.418 19.6608 219.691 19.654C218.964 19.6473 218.246 19.4949 217.579 19.2058C216.912 18.9167 216.31 18.4969 215.808 17.9711C215.306 17.4454 214.915 16.8244 214.658 16.145C214.401 15.4656 214.283 14.7415 214.311 14.0156L214.326 13.9903Z" fill="#FEFDFD"/>
    <path d="M15.8789 58.4495C16.5427 58.4576 17.1983 58.5976 17.8075 58.8614C18.4167 59.1251 18.9673 59.5072 19.4272 59.9856C19.8872 60.4639 20.2473 61.0289 20.4866 61.6476C20.726 62.2663 20.8397 62.9264 20.8213 63.5895C20.8029 64.2526 20.6526 64.9053 20.3793 65.5098C20.106 66.1143 19.715 66.6585 19.2292 67.1106C18.7434 67.5627 18.1725 67.9137 17.5496 68.1433C16.9267 68.3728 16.2644 68.4762 15.6011 68.4476C13.0754 68.4173 10.8528 65.9746 10.8831 63.3148C10.9161 62.013 11.4569 60.7755 12.3903 59.8665C13.3236 58.9576 14.5755 58.449 15.8789 58.4495Z" fill="#FDFDFC"/>
    <path d="M42.8482 202.244C42.838 202.727 42.6865 203.196 42.4124 203.594C42.1383 203.992 41.7536 204.301 41.3057 204.483C40.8579 204.665 40.3666 204.712 39.8924 204.618C39.4182 204.524 38.9819 204.293 38.6373 203.954C38.2928 203.615 38.0551 203.183 37.9536 202.711C37.8521 202.239 37.8912 201.747 38.0662 201.297C38.2411 200.847 38.5442 200.457 38.938 200.177C39.3317 199.897 39.799 199.738 40.2821 199.72C40.6172 199.715 40.95 199.776 41.2611 199.901C41.5722 200.025 41.8554 200.21 42.0942 200.445C42.3331 200.68 42.5227 200.96 42.6522 201.269C42.7816 201.578 42.8483 201.909 42.8482 202.244Z" fill="#FDFCF1"/>
    <path d="M152.2 119.417C152.213 122.933 151.532 126.416 150.196 129.668C148.86 132.92 146.896 135.878 144.416 138.371C141.936 140.864 138.988 142.844 135.741 144.198C132.494 145.552 129.012 146.254 125.494 146.262C110.34 146.288 98.3628 134.498 98.3224 119.513C98.2769 104.372 110.173 92.4865 125.302 92.3856C139.824 92.3048 152.417 104.332 152.2 119.417Z" fill="#83AFDF"/>
    <path d="M154.251 64.8642C154.262 67.1821 153.487 69.4353 152.051 71.2558C150.615 73.0764 148.604 74.3567 146.346 74.8876C140.385 76.1645 134.389 77.3152 128.489 78.8394C124.539 79.8488 120.533 80.5756 116.578 81.5345C110.011 83.1193 103.379 84.265 96.8374 85.8699C93.4984 86.6875 90.1544 87.384 86.77 87.9442C83.4715 88.4943 80.6579 87.2881 78.4454 84.9917C73.7526 80.1062 75.1519 73.5451 79.2485 69.9314C81.2691 68.1498 83.9109 67.9126 86.3507 67.2767C90.2302 66.2673 94.1753 65.5456 98.0952 64.7027C104.733 63.2795 111.38 61.9016 118.008 60.4279C121.185 59.7213 124.297 58.6968 127.489 58.076C132.449 57.1171 137.349 55.825 142.325 54.9923C148.629 53.9374 154.261 58.4798 154.251 64.8642Z" fill="#E1EBF5"/>
    <path d="M140.304 106.855C140.213 107.002 140.117 107.148 140.026 107.3C135.103 115.496 130.188 123.701 125.281 131.914C124.776 132.787 124.408 132.671 123.675 132.227C118.841 129.284 113.997 126.362 109.112 123.511C108.198 122.976 108.233 122.541 108.642 121.719C110.562 117.853 110.532 117.858 114.168 120.109C116.452 121.522 118.841 122.774 121.059 124.288C122.367 125.186 123.008 125.181 123.862 123.717C127.474 117.515 131.242 111.408 134.874 105.215C135.596 103.979 136.172 103.64 137.339 104.609C138.091 105.163 138.877 105.669 139.693 106.124C139.971 106.27 140.37 106.351 140.304 106.855Z" fill="#E0EBF5"/>
    <path d="M139.865 63.2038C141.814 61.1244 142.729 60.7711 143.638 61.6897C144.547 62.6082 144.219 63.446 142.042 65.4446C143.38 65.9796 145.775 65.7878 144.926 68.0842C144.148 70.1838 142.511 68.6999 141.087 68.2306C141.087 69.7699 142.875 71.925 140.107 72.3136C137.92 72.6215 138.592 70.2948 137.92 69.0734C136.798 69.8658 136.031 72.1016 134.167 70.3049C133.303 69.4721 133.919 68.2861 135.935 66.772C134.465 66.2673 132.045 66.2976 133.02 63.9759C133.818 62.0732 135.475 63.2845 136.874 64.0315C136.874 62.4467 135.02 60.2563 137.854 59.8929C140.011 59.6153 139.44 61.8007 139.865 63.2038Z" fill="#83AFDF"/>
    <path d="M120.855 67.4887C120.658 65.8332 119.163 63.9558 121.592 63.4511C123.815 63.0221 123.552 65.162 123.754 66.666C125.073 66.0604 125.952 63.6126 127.558 65.4648C128.786 66.878 127.306 67.9631 126.002 68.9977C127.593 69.4368 129.675 69.5478 128.851 71.6827C127.962 73.9892 126.326 72.0461 125.012 71.8796C125.735 74.6908 125.548 75.8061 124.224 75.9172C121.744 76.109 122.512 73.969 122.057 72.5508C120.779 73.2372 119.92 76.003 118.097 73.7066C116.799 72.0764 118.814 71.4909 119.612 70.4109C118.506 69.6993 115.975 69.9314 116.92 67.6552C117.693 65.7071 119.355 66.9133 120.855 67.4887Z" fill="#83AFDF"/>
    <path d="M107.732 70.4159C109.959 68.0741 110.651 67.7915 111.535 68.9523C113.121 71.0317 110.525 71.4152 109.904 72.6063C112.389 73.0252 113.399 73.7974 113.035 74.9885C112.672 76.1796 111.656 76.3613 108.939 75.4932C108.969 76.9013 110.914 78.9757 108.131 79.3996C106.034 79.7226 106.272 77.6533 105.984 76.1695C104.726 76.7802 103.989 79.3693 102.12 77.3758C101.256 76.4522 101.867 75.2762 103.751 73.9943C102.463 73.3634 100.038 73.535 100.973 71.2234C101.771 69.24 103.433 70.7188 104.797 70.961C104.706 69.4822 103.165 67.4735 105.62 67.0092C107.939 66.5499 107.262 68.9371 107.732 70.4159Z" fill="#83AFDF"/>
    <path d="M87.5578 77.507C86.3455 76.8559 84.0219 76.8711 84.8756 74.7412C85.5929 72.889 87.2446 74.0599 88.654 74.5444C88.755 73.0606 87.1386 70.9105 89.6289 70.5068C91.6494 70.1838 91.4373 72.2934 91.7959 73.752C93.0083 72.8738 94.16 70.8802 95.5945 72.5912C96.8624 74.1053 95.0894 75.1147 93.8468 76.0888C95.15 76.4623 96.5492 76.3815 96.9129 77.8653C97.0022 78.1485 97.0016 78.4524 96.9112 78.7352C96.8207 79.0181 96.6449 79.266 96.4078 79.445C95.1147 80.3989 94.1246 79.3189 92.9173 78.8242C92.8769 80.3384 94.7762 82.4884 91.998 82.9073C89.6693 83.2555 90.4826 80.9642 90.0482 79.6015C88.75 80.2727 87.967 82.8972 86.0071 80.9036C85.1736 80.0608 85.6383 79.1523 87.5578 77.507Z" fill="#83AFDF"/>
  </g>
  <defs>
    <clipPath id="clip0_793_8680">
      <rect width="239" height="219" fill="white" transform="translate(0.699219 0.343201)"/>
    </clipPath>
  </defs>
</svg>