<?xml version="1.0" encoding="UTF-8"?>
<svg version="1.1" xmlns="http://www.w3.org/2000/svg" width="512" height="512">
<path d="M0 0 C19.63434971 -0.549059 36.02016755 7.90090456 51 20 C51.63615234 19.43732422 51.63615234 19.43732422 52.28515625 18.86328125 C54.17081371 17.21799331 56.07874664 15.60356579 58 14 C58.55171875 13.5359375 59.1034375 13.071875 59.671875 12.59375 C67.37795403 6.57566923 76.40728653 5.01049374 86 6 C96.54138849 7.89934928 104.3069786 13.14589646 110.5625 21.76171875 C116.53518308 31.06157583 117.13115823 40.96920883 115 51.625 C114.676436 53.08553194 114.34677029 54.54480325 114 56 C114.556875 55.72285156 115.11375 55.44570313 115.6875 55.16015625 C116.8321875 54.61681641 116.8321875 54.61681641 118 54.0625 C119.11375 53.52302734 119.11375 53.52302734 120.25 52.97265625 C128.21162885 50.15668241 137.01076737 50.85417931 145.3359375 50.8671875 C146.80610688 50.86595283 148.276276 50.86438075 149.7464447 50.86250305 C154.62264833 50.85856422 159.49880518 50.86620599 164.375 50.875 C166.07498168 50.87757696 167.77496337 50.88015058 169.47494507 50.88272095 C179.79960423 50.89991168 190.12417759 50.93212005 200.44878101 50.96955395 C208.28209247 50.99688654 216.11538128 51.01079866 223.94873047 51.02197266 C234.82143906 51.03836943 245.69389007 51.07624875 256.56645203 51.1353035 C262.52561094 51.16729989 268.48453733 51.19115805 274.44378662 51.19500732 C280.10601808 51.19922162 285.7676472 51.22742397 291.42968941 51.27330589 C293.52556422 51.28625067 295.62151079 51.29076639 297.71742058 51.28618813 C319.84128332 51.24861419 319.84128332 51.24861419 327.87934875 58.75505066 C334.82518436 65.9763662 335.45597686 73.45144131 335.51171875 83.05859375 C335.53864555 84.77502831 335.53864555 84.77502831 335.56611633 86.52613831 C335.62008453 90.16322195 335.65407269 93.80017534 335.6875 97.4375 C335.72068487 99.91082536 335.75517561 102.38413357 335.79101562 104.85742188 C335.87580339 110.9048311 335.94421034 116.95225746 336 123 C336.38744385 122.51716553 336.7748877 122.03433105 337.17407227 121.53686523 C337.69541748 120.90466064 338.2167627 120.27245605 338.75390625 119.62109375 C339.2651001 118.99388428 339.77629395 118.3666748 340.30297852 117.72045898 C343.99197643 113.98051246 348.49531752 113.15838763 353.5625 112.625 C359.68222186 113.29260602 364.59679391 115.71910519 369 120 C372.0775978 125.27588194 373.12596009 129.48230753 373.12025452 135.5302124 C373.12231651 137.21708412 373.12231651 137.21708412 373.12442017 138.93803406 C373.12082489 140.16730118 373.11722961 141.3965683 373.11352539 142.66308594 C373.11367142 143.96089493 373.11381744 145.25870392 373.1139679 146.59584045 C373.11425478 150.15128918 373.10837566 153.70670416 373.10139394 157.26214504 C373.09514225 160.97906257 373.09455516 164.69598086 373.09336853 168.41290283 C373.09026057 175.44992978 373.08205439 182.4869412 373.07201904 189.52396131 C373.06084129 197.53599138 373.05534326 205.54802219 373.05032361 213.56005812 C373.03987134 230.04004927 373.0215325 246.52001903 373 263 C360.13 263 347.26 263 334 263 C334 248.15 334 233.3 334 218 C224.11 218 114.22 218 1 218 C1 232.85 1 247.7 1 263 C-11.54 263 -24.08 263 -37 263 C-37.11288795 237.84370136 -37.2049848 212.68760794 -37.25906086 187.5311203 C-37.2848372 175.8504072 -37.31997707 164.1698627 -37.37719727 152.48925781 C-37.42704939 142.30787114 -37.45929516 132.12660659 -37.47044247 121.94510126 C-37.4769581 116.55453022 -37.49226022 111.16430852 -37.52865028 105.77384949 C-37.56263809 100.69801695 -37.57304722 95.62267701 -37.56553841 90.54674149 C-37.5669117 88.68595832 -37.57682751 86.82515834 -37.59602737 84.96447372 C-37.76664559 67.57367222 -37.76664559 67.57367222 -32 61 C-27.90730012 56.90730012 -23.60543463 55.05662986 -17.76171875 54.96484375 C-12.39716561 55.33450203 -9.43907465 56.82832256 -5 60 C-5.2165625 59.04222656 -5.433125 58.08445312 -5.65625 57.09765625 C-9.93687266 37.10872254 -8.83361954 18.74961933 0 0 Z M94.625 72.9375 C88.8188385 75.33975688 83.23191408 75.78584488 77 76 C76.97421875 77.12535156 76.9484375 78.25070312 76.921875 79.41015625 C76.57498802 89.86370407 75.10362916 99.00982764 72 109 C71.34 111.31 70.68 113.62 70 116 C83.2 116 96.4 116 110 116 C107.08585519 108.60976312 107.08585519 108.60976312 104.16625977 101.22167969 C103.62183228 99.83577637 103.62183228 99.83577637 103.06640625 98.421875 C102.69459229 97.47924805 102.32277832 96.53662109 101.93969727 95.56542969 C99.01790727 87.58876841 99.52940783 79.27208095 101 71 C98.45457588 71 96.94412598 71.88301068 94.625 72.9375 Z M1 74 C1 87.86 1 101.72 1 116 C18.82 116 36.64 116 55 116 C51.66486504 114.33243252 48.49607499 113.06783085 45 111.8125 C26.82719729 104.80734141 13.19148401 92.87420725 3.31640625 76.1484375 C2.88199219 75.43945312 2.44757813 74.73046875 2 74 C1.67 74 1.34 74 1 74 Z " fill="#F6C5B8" transform="translate(89,238)"/>
<path d="M0 0 C4.22220728 3.742411 6.96790954 8.09122863 8.75 13.4375 C8.84133385 16.19120229 8.87600326 18.91908822 8.86352539 21.67260742 C8.86367142 22.51185257 8.86381744 23.35109772 8.8639679 24.21577454 C8.86327087 26.99153217 8.85548829 29.76722282 8.84765625 32.54296875 C8.84579132 34.46682193 8.84436777 36.39067559 8.84336853 38.31452942 C8.83954924 43.37964182 8.82972394 48.44472558 8.81866455 53.50982666 C8.80663996 59.58629515 8.80204539 65.66277321 8.79621124 71.73925018 C8.7865119 80.97202005 8.76735121 90.20472705 8.75 99.4375 C32.18 99.4375 55.61 99.4375 79.75 99.4375 C79.09 101.0875 78.43 102.7375 77.75 104.4375 C77.13337017 110.70656995 78.00491417 115.27225929 81.75 120.4375 C86.98815851 124.60664657 91.07325422 125.98477424 97.75 125.4375 C104.16536404 122.63420524 109.49913603 118.90203205 115.0625 114.6875 C117.46114448 112.89100073 119.85896464 111.09859637 122.28833008 109.34375 C124.79614545 107.49168278 124.79614545 107.49168278 126.9206543 105.21875 C136.38153762 96.38898363 148.82449857 98.57114629 160.9375 98.9375 C163.24798516 98.97767953 165.55853754 99.01417239 167.86914062 99.046875 C173.49912126 99.12767845 179.11967837 99.28423605 184.75 99.4375 C184.75 107.0275 184.75 114.6175 184.75 122.4375 C236.89 122.4375 289.03 122.4375 342.75 122.4375 C342.75 104.2875 342.75 86.1375 342.75 67.4375 C347.11061174 60.89658238 350.06777638 57.28123367 357.75 55.4375 C364.41048931 54.83200097 368.97215842 56.60664987 374.5 60.25 C378.67535175 64.30936975 380.5977356 69.25814152 380.87304783 75.00680161 C380.87212604 75.98390217 380.87120424 76.96100273 380.87025452 77.9677124 C380.87231651 79.65458412 380.87231651 79.65458412 380.87442017 81.37553406 C380.87082489 82.60480118 380.86722961 83.8340683 380.86352539 85.10058594 C380.86367142 86.39839493 380.86381744 87.69620392 380.8639679 89.03334045 C380.86425478 92.58878918 380.85837566 96.14420416 380.85139394 99.69964504 C380.84514225 103.41656257 380.84455516 107.13348086 380.84336853 110.85040283 C380.84026057 117.88742978 380.83205439 124.9244412 380.82201904 131.96146131 C380.81084129 139.97349138 380.80534326 147.98552219 380.80032361 155.99755812 C380.78987134 172.47754927 380.7715325 188.95751903 380.75 205.4375 C367.88 205.4375 355.01 205.4375 341.75 205.4375 C341.75 190.5875 341.75 175.7375 341.75 160.4375 C231.86 160.4375 121.97 160.4375 8.75 160.4375 C8.75 175.2875 8.75 190.1375 8.75 205.4375 C-3.79 205.4375 -16.33 205.4375 -29.25 205.4375 C-29.36288795 180.28120136 -29.4549848 155.12510794 -29.50906086 129.9686203 C-29.5348372 118.2879072 -29.56997707 106.6073627 -29.62719727 94.92675781 C-29.67704939 84.74537114 -29.70929516 74.56410659 -29.72044247 64.38260126 C-29.7269581 58.99203022 -29.74226022 53.60180852 -29.77865028 48.21134949 C-29.81263809 43.13551695 -29.82304722 38.06017701 -29.81553841 32.98424149 C-29.8169117 31.12345832 -29.82682751 29.26265834 -29.84602737 27.40197372 C-30.01664559 10.01117222 -30.01664559 10.01117222 -24.25 3.4375 C-17.43154261 -3.38095739 -8.43031425 -4.0530357 0 0 Z " fill="#DB8300" transform="translate(81.25,295.5625)"/>
<path d="M0 0 C23.11911306 -0.06805821 46.23787373 -0.06700868 69.35702991 -0.01897717 C74.86487062 -0.00754902 80.37270518 0.00211748 85.8805542 0.00854492 C99.11364465 0.02476443 112.34638748 0.05955208 125.5792923 0.13369846 C131.53344136 0.16670244 137.487344 0.19131391 143.44158936 0.19528198 C149.10438404 0.1995106 154.76657924 0.22761981 160.42918587 0.27336884 C162.52527451 0.28627145 164.62143458 0.29076108 166.71755791 0.28617096 C188.84128002 0.24861111 188.84128002 0.24861111 196.87934875 7.75505066 C203.49367304 14.63170676 204.43992648 21.6337383 204.34057617 30.80053711 C204.34093778 31.88180909 204.34129938 32.96308107 204.34167194 34.07711887 C204.33944124 37.56071862 204.31663386 41.04383068 204.29296875 44.52734375 C204.2885553 46.68460865 204.28549636 48.84187675 204.28381348 50.99914551 C204.26811499 58.97864615 204.22623118 66.95807792 204.1875 74.9375 C204.125625 92.778125 204.06375 110.61875 204 129 C151.86 129 99.72 129 46 129 C46 86.76 46 44.52 46 1 C30.82 1 15.64 1 0 1 C0 0.67 0 0.34 0 0 Z " fill="#8399FD" transform="translate(220,289)"/>
<path d="M0 0 C2.82553316 2.82553316 3.02762006 6.08781135 3.8125 9.875 C6.63864619 22.59399475 11.75985847 34.13978771 19 45 C19.76637417 52.12727976 16.95147407 56.11742445 13.3359375 62.01171875 C11.73298901 64.79318352 11.73298901 64.79318352 12.4765625 67.08203125 C14.47041286 69.59223772 16.67459835 71.79698791 19 74 C19.556875 72.88882813 20.11375 71.77765625 20.6875 70.6328125 C35.10555599 42.32846186 35.10555599 42.32846186 47.125 38.28515625 C49.0625 38 49.0625 38 52 38 C54.49681978 41.74522967 54.29186999 43.55245722 54 48 C50.62325092 62.93235775 42.7528921 76.18850903 32 87 C32.66 88.32 33.32 89.64 34 91 C34.94101563 90.48308594 35.88203125 89.96617188 36.8515625 89.43359375 C38.10892505 88.76737927 39.36676313 88.10206173 40.625 87.4375 C41.24246094 87.09525391 41.85992187 86.75300781 42.49609375 86.40039062 C45.46760284 84.85207799 47.68613162 83.9975918 51.0546875 84.0234375 C54.62808753 85.20825183 57.45491232 87.03797505 60.5 89.1875 C66.38150969 93.16495798 72.25980489 96.08043606 78.84375 98.7109375 C87.07112971 102.07112971 87.07112971 102.07112971 89 104 C88.28 110.72 88.28 110.72 87 112 C74.06800129 112.90637288 61.72851874 104.43097189 51 98 C50.34 97.67 49.68 97.34 49 97 C46.98074133 97.76600582 46.98074133 97.76600582 44.875 98.9375 C44.15054688 99.31777344 43.42609375 99.69804688 42.6796875 100.08984375 C42.12539062 100.39019531 41.57109375 100.69054687 41 101 C41.928125 101.515625 42.85625 102.03125 43.8125 102.5625 C47.4955381 105.02656568 48.68482222 107.76220493 50 112 C49.77376953 113.33417969 49.77376953 113.33417969 49.54296875 114.6953125 C50.29892134 120.16143126 54.48604201 122.90546828 58.4375 126.5 C66.65784562 134.01385809 66.65784562 134.01385809 68.16015625 138.34375 C68 141 68 141 66 144 C62.89453125 144.71484375 62.89453125 144.71484375 59 144 C55.04836005 140.86354839 51.87402927 136.93157223 48.58007812 133.13085938 C44.79899723 129.02400249 42.3927488 126.56596578 36.67578125 126.11328125 C35.86665283 126.12528564 35.05752441 126.13729004 34.22387695 126.1496582 C30.31893377 125.88687083 28.63002913 123.76153058 26 121 C25.34 120.01 24.68 119.02 24 118 C21.63144023 121.89639793 21.63144023 121.89639793 21.17578125 126.30078125 C22.22373216 129.73269632 23.88141906 132.43721319 25.75 135.5 C36.5414122 153.78814415 36.5414122 153.78814415 35 164 C32 166 32 166 28.96484375 165.94921875 C26 165 26 165 24.56640625 162.76953125 C24.23511719 161.79371094 23.90382813 160.81789062 23.5625 159.8125 C20.02991644 150.30951164 15.81241639 141.42624057 9.875 133.1875 C6.97145034 128.75098006 6.97145034 128.75098006 7.08984375 125.63671875 C7.8503564 123.25651969 8.82588863 121.20437466 10 119 C10.73561 117.31529878 11.4649505 115.6278439 12.1875 113.9375 C12.78742568 112.62305609 13.38999919 111.3097987 14 110 C12.20697143 109.18314804 12.20697143 109.18314804 10 109 C8.01480734 110.37841013 8.01480734 110.37841013 6.125 112.4375 C-4.184369 122.12051982 -20.5629064 131.3835281 -35 131 C-35.99 130.67 -36.98 130.34 -38 130 C-39.27082349 126.50523539 -39.06570356 125.15140387 -37.5625 121.6875 C-29.87464788 109.71715307 -16.07272057 101.04561145 -3 96 C-4.06716072 94.79794536 -5.15438337 93.61367667 -6.25 92.4375 C-6.85328125 91.77621094 -7.4565625 91.11492187 -8.078125 90.43359375 C-9.8548037 88.79087634 -9.8548037 88.79087634 -11.8984375 89.09375 C-15.49985449 90.6467774 -18.78832222 92.71131964 -22.1484375 94.72265625 C-25.52619486 96.23570646 -27.33202208 96.52334103 -31 96 C-33.66431437 94.82975228 -36.09021818 93.34061192 -38.5625 91.8125 C-49.00400301 85.67622714 -59.11751424 81.84708181 -71.1015625 79.7734375 C-74.06150449 78.98358775 -75.31508314 78.53643399 -77 76 C-76.8125 72.375 -76.8125 72.375 -76 69 C-68.90344217 65.45172108 -59.11603828 69.71672973 -52 72 C-45.67298308 74.27104209 -39.90680404 77.01672915 -34.125 80.4375 C-30.12482391 82.7382238 -30.12482391 82.7382238 -25.5625 82.5625 C-23.25461786 81.15525479 -21.14703733 79.63648917 -19 78 C-19.45890625 77.38253906 -19.9178125 76.76507813 -20.390625 76.12890625 C-25.7584599 68.71994085 -30.63812135 61.40884482 -31 52 C-30.0625 49.0625 -30.0625 49.0625 -29 47 C-20.68114489 45.15136553 -15.20483867 47.46716411 -8.0234375 51.79296875 C-6.11821095 53.01201212 -4.2250434 54.25022264 -2.34765625 55.51171875 C0.00563421 57.13569043 0.00563421 57.13569043 3 58 C5.75311138 51.46921066 5.75311138 51.46921066 4.99609375 44.88671875 C4.48175781 44.16097656 3.96742187 43.43523438 3.4375 42.6875 C-3.1650439 32.36910581 -10.16711267 16.11711198 -8.8125 3.75 C-8.544375 2.8425 -8.27625 1.935 -8 1 C-5.23749964 -0.38125018 -3.05268901 -0.19079306 0 0 Z " fill="#B9D6FF" transform="translate(79,6)"/>
<path d="M0 0 C3.0625 0.3125 3.0625 0.3125 4.75390625 1.5390625 C7.00103329 4.58442273 6.14234341 7.36125273 5.69140625 10.96875 C3.5231113 22.49707595 -0.79687498 32.67365441 -6.265625 42.984375 C-8.09976756 46.51564623 -8.09976756 46.51564623 -8.9375 50.3125 C-8.00303465 52.34394641 -7.00525224 54.34783587 -5.9375 56.3125 C-5.9375 56.9725 -5.9375 57.6325 -5.9375 58.3125 C-5.41542969 58.02117188 -4.89335937 57.72984375 -4.35546875 57.4296875 C-2.78517766 56.55516462 -1.21198424 55.68584299 0.36328125 54.8203125 C2.18864397 53.80064534 3.99849261 52.7527791 5.79296875 51.6796875 C11.45832609 48.37156629 16.37986552 45.99229043 23.0625 46.3125 C24.5475 46.8075 24.5475 46.8075 26.0625 47.3125 C28.55077465 52.62835948 28.06164822 56.20338356 26.1875 61.68359375 C23.60595624 67.71615954 20.04552621 73.12034083 16.0625 78.3125 C17.27565279 79.20957079 18.50889907 80.07951156 19.75 80.9375 C20.43449219 81.42476563 21.11898437 81.91203125 21.82421875 82.4140625 C24.03773859 83.56263344 24.03773859 83.56263344 26.33203125 82.703125 C27.23308594 82.24421875 28.13414062 81.7853125 29.0625 81.3125 C30.31161456 80.70910108 31.56170118 80.10771229 32.8125 79.5078125 C33.49731445 79.17338135 34.18212891 78.8389502 34.88769531 78.49438477 C46.06997716 73.06015732 58.34696126 67.37060824 71.0625 68.3125 C73 69.5 73 69.5 74.0625 71.3125 C74.4658495 74.00149667 74.56603409 75.55815616 73.03515625 77.8515625 C70.05414064 80.05928495 66.6919669 80.4797839 63.125 81.1875 C52.05737384 83.6098924 42.51944341 87.66362787 32.95629883 93.72167969 C29.14081141 96.04818278 26.50754619 96.99095442 22.0625 96.3125 C18.9921875 94.74609375 18.9921875 94.74609375 15.9375 92.75 C12.21183213 90.09939216 12.21183213 90.09939216 7.8984375 89.40625 C5.76499019 90.45935591 4.43649241 91.64028083 2.8125 93.375 C2.29171875 93.92285156 1.7709375 94.47070312 1.234375 95.03515625 C0.65429688 95.66744141 0.65429688 95.66744141 0.0625 96.3125 C0.93390625 96.71339844 1.8053125 97.11429687 2.703125 97.52734375 C14.96735416 103.38072585 27.5689464 110.7288225 35.0625 122.4375 C36.16054443 125.59437773 36.07975637 127.16825303 35.0625 130.3125 C22.86372358 133.18280034 11.06008989 126.48976699 0.78125 120.40332031 C-2.6737784 118.21055513 -5.79973537 115.65301441 -8.88671875 112.9765625 C-10.8335647 111.39683607 -12.6567879 110.33187019 -14.9375 109.3125 C-15.5975 109.9725 -16.2575 110.6325 -16.9375 111.3125 C-16.40898437 112.32570313 -15.88046875 113.33890625 -15.3359375 114.3828125 C-14.66041647 115.73385457 -13.98599473 117.08544668 -13.3125 118.4375 C-12.961875 119.10265625 -12.61125 119.7678125 -12.25 120.453125 C-10.56174193 123.89717147 -9.80886456 125.61320667 -10.51953125 129.4765625 C-11.9419507 132.32140139 -13.47036213 134.92658403 -15.25 137.5625 C-19.20910533 143.63640694 -22.62098084 149.75917644 -25.14453125 156.5703125 C-25.75361328 158.20613281 -25.75361328 158.20613281 -26.375 159.875 C-26.72433594 160.88691406 -27.07367188 161.89882812 -27.43359375 162.94140625 C-28.9375 165.3125 -28.9375 165.3125 -31.91015625 166.27734375 C-34.9375 166.3125 -34.9375 166.3125 -37.9375 164.3125 C-38.58814899 158.12127304 -37.33783519 153.63405955 -34.875 148 C-34.56498047 147.26160889 -34.25496094 146.52321777 -33.93554688 145.76245117 C-31.57280052 140.31256515 -28.6954577 135.4702065 -25.125 130.70703125 C-23.52744263 127.4856409 -23.99561566 125.73135901 -24.9375 122.3125 C-25.91098627 120.02769747 -25.91098627 120.02769747 -26.9375 118.3125 C-27.34742188 118.80621094 -27.75734375 119.29992187 -28.1796875 119.80859375 C-28.71851563 120.44925781 -29.25734375 121.08992188 -29.8125 121.75 C-30.34617187 122.38808594 -30.87984375 123.02617187 -31.4296875 123.68359375 C-32.9375 125.3125 -32.9375 125.3125 -34.9375 126.3125 C-36.46482908 126.32380823 -37.99217773 126.33254866 -39.51953125 126.33984375 C-46.30618232 126.96302052 -49.34788686 130.93986946 -53.625 135.875 C-60.84856034 144.11262442 -60.84856034 144.11262442 -65.83203125 145.02734375 C-68.9375 144.3125 -68.9375 144.3125 -70.9375 141.3125 C-71.13714905 137.89850133 -70.51925403 135.9807678 -68.26953125 133.39648438 C-65.25818825 130.49368331 -62.16363004 127.69947675 -59.01953125 124.94140625 C-54.92668367 121.12651097 -52.50668692 118.67637287 -52.0546875 112.953125 C-52.06612793 112.13875977 -52.07756836 111.32439453 -52.08935547 110.48535156 C-51.9375 108.3125 -51.9375 108.3125 -49.5625 105.3125 C-47.73241873 103.91815237 -45.85183107 102.58872072 -43.9375 101.3125 C-46.82357474 99.10506299 -49.31370715 97.80573847 -52.9375 97.3125 C-56.4105399 98.82291058 -59.36842821 100.85014744 -62.46484375 102.99609375 C-70.17444994 108.32205358 -79.47839172 112.46756735 -88.9375 112.3125 C-91.2452269 110.49476991 -91.86084384 109.75053522 -92.375 106.8125 C-91.9375 104.3125 -91.9375 104.3125 -90.3359375 102.8203125 C-87.38181856 100.96316281 -84.40427107 99.8818671 -81.125 98.6875 C-71.67525766 95.10343808 -63.32461946 89.90391297 -54.9375 84.3125 C-50.24176352 84.6216031 -46.69938737 86.21462549 -42.5625 88.375 C-41.50289063 88.92285156 -40.44328125 89.47070312 -39.3515625 90.03515625 C-38.55492187 90.45667969 -37.75828125 90.87820312 -36.9375 91.3125 C-36.2775 89.9925 -35.6175 88.6725 -34.9375 87.3125 C-35.41058594 86.83683594 -35.88367188 86.36117187 -36.37109375 85.87109375 C-46.7486426 74.8866707 -56.17038635 60.0018509 -57.18359375 44.5625 C-56.9375 41.3125 -56.9375 41.3125 -54.9375 38.3125 C-49.65541771 38.19767212 -47.05322751 39.6705265 -43.0625 43.125 C-33.59720434 52.23121768 -27.37105649 62.50193991 -21.9375 74.3125 C-19.6275 72.0025 -17.3175 69.6925 -14.9375 67.3125 C-16.26638393 62.60100243 -18.30568435 58.84740144 -20.9140625 54.75390625 C-22.33184524 51.37179094 -22.31753496 48.95613414 -21.9375 45.3125 C-20.36328125 41.98828125 -20.36328125 41.98828125 -18.25 38.625 C-17.50684749 37.39094124 -16.76861005 36.15391015 -16.03515625 34.9140625 C-15.67437988 34.3046582 -15.31360352 33.69525391 -14.94189453 33.06738281 C-10.41339723 25.15517119 -8.11605259 16.77423071 -6.28027344 7.92260742 C-4.7095481 0.50101576 -4.7095481 0.50101576 0 0 Z " fill="#B9D6FF" transform="translate(435.9375,5.6875)"/>
<path d="M0 0 C19.63434971 -0.549059 36.02016755 7.90090456 51 20 C50.48864452 23.53480683 49.90703217 26.20824795 48.4375 29.5 C45.15406584 38.00116865 46.06682614 48.11029167 49.55078125 56.3984375 C55.13617757 66.42505192 62.98703467 71.92635111 73.8046875 75.125 C74.85914063 75.41375 75.91359375 75.7025 77 76 C77.60933837 90.77645556 76.52438546 103.83232544 69 117 C46.66188043 116.6213878 28.35161667 107.07439293 12.87890625 91.1328125 C7.52993099 85.06100275 3.28365056 78.37824316 0 71 C-0.41121094 70.12988281 -0.82242188 69.25976562 -1.24609375 68.36328125 C-9.74101787 49.48287125 -10.79901103 27.9127624 -3.6875 8.3984375 C-2.51957617 5.56489502 -1.30605631 2.77214324 0 0 Z " fill="#8399FD" transform="translate(89,238)"/>
<path d="M0 0 C36.3 0 72.6 0 110 0 C113 6 113 6 112.94116211 8.16040039 C111.67880708 10.6278051 110.16265631 11.77748735 107.94140625 13.43359375 C107.08836914 14.0766748 106.23533203 14.71975586 105.35644531 15.38232422 C104.43444336 16.06053223 103.51244141 16.73874023 102.5625 17.4375 C101.62631836 18.13891113 100.69013672 18.84032227 99.72558594 19.56298828 C92.69616924 24.80954752 85.59510876 29.96201324 78.42407227 35.01342773 C77.72209717 35.51173096 77.02012207 36.01003418 76.296875 36.5234375 C75.37406738 37.1719165 75.37406738 37.1719165 74.43261719 37.83349609 C72.84870844 38.95990826 72.84870844 38.95990826 72 41 C48.24 41 24.48 41 0 41 C0 27.47 0 13.94 0 0 Z " fill="#E5F2FE" transform="translate(90,354)"/>
<path d="M0 0 C7.63061614 5.44272266 12.35658657 12.79601845 15 21.6875 C15.91206169 29.53123051 15.13718704 36.71783119 13.3125 44.375 C13.9725 44.705 14.6325 45.035 15.3125 45.375 C11.64583333 49.04166667 7.97916667 52.70833333 4.3125 56.375 C3.82652344 56.93316406 3.34054688 57.49132812 2.83984375 58.06640625 C-2.98189418 63.05434028 -13.0716975 65.60785727 -20.6875 65.375 C-31.13438583 64.4145605 -39.84791941 60.14504494 -47 52.48828125 C-54.03391084 43.6796105 -55.82513209 33.40658391 -54.6875 22.375 C-51.49989473 10.58975025 -46.18756502 3.51140163 -35.6875 -2.625 C-23.84946838 -7.92145057 -10.98088022 -6.68886105 0 0 Z " fill="#F6C4B8" transform="translate(189.6875,249.625)"/>
<path d="M0 0 C10.23 0 20.46 0 31 0 C31 13.2 31 26.4 31 40 C14.83 40 -1.34 40 -18 40 C-14.10562369 36.10562369 -10.16162323 33.21057209 -5.65625 30.09765625 C-1.97320841 27.18913664 0.50827673 24.4751698 2 20 C2.12020578 18.29475527 2.17532455 16.58443288 2.1875 14.875 C2.20876953 13.54082031 2.20876953 13.54082031 2.23046875 12.1796875 C1.93209018 8.06307467 0.8953614 4.02912632 0 0 Z " fill="#E5F2FE" transform="translate(235,355)"/>
<path d="M0 0 C2.70214019 2.85177655 3.37261766 4.78905746 3.34057617 8.67675781 C3.34034958 9.59741028 3.34012299 10.51806274 3.33988953 11.46661377 C3.32440567 12.45216248 3.30892181 13.43771118 3.29296875 14.453125 C3.28872391 15.46848328 3.28447906 16.48384155 3.28010559 17.52996826 C3.26332424 20.77024954 3.22567241 24.00990697 3.1875 27.25 C3.17245249 29.44790768 3.1587642 31.64582512 3.14648438 33.84375 C3.11342238 39.22940673 3.06164319 44.61459762 3 50 C-1.95 50 -6.9 50 -12 50 C-12.07414761 43.52216092 -12.12860137 37.04456879 -12.16479492 30.56640625 C-12.17988291 28.36258644 -12.20035576 26.15879665 -12.22631836 23.95507812 C-12.26270058 20.78768503 -12.27972632 17.62068889 -12.29296875 14.453125 C-12.30845261 13.46757629 -12.32393646 12.48202759 -12.33988953 11.46661377 C-12.34011612 10.5459613 -12.34034271 9.62530884 -12.34057617 8.67675781 C-12.34723801 7.8684552 -12.35389984 7.06015259 -12.36076355 6.22735596 C-11.90510862 3.41414013 -10.94107467 2.06221741 -9 0 C-5.4314543 -1.18951523 -3.60804584 -0.97717908 0 0 Z " fill="#8398FE" transform="translate(509,451)"/>
<path d="M0 0 C2.375 1.5625 2.375 1.5625 4 4 C4.5625 7.4375 4.5625 7.4375 4 11 C2.38412929 12.76478429 0.74153987 14.36592734 -1 16 C-2.38323586 17.38631847 -3.76174438 18.77736225 -5.13671875 20.171875 C-6.6535904 21.69797176 -8.1705188 23.22401213 -9.6875 24.75 C-10.45900391 25.52988281 -11.23050781 26.30976563 -12.02539062 27.11328125 C-13.13237305 28.22509766 -13.13237305 28.22509766 -14.26171875 29.359375 C-15.26658325 30.37209473 -15.26658325 30.37209473 -16.29174805 31.40527344 C-18.83510483 33.77960623 -19.86516535 33.99019384 -23.4375 34.25 C-27 34 -27 34 -28.875 32.875 C-30.52239677 30.12933872 -30.93697973 28.21403361 -31 25 C-28.11216929 19.92833711 -24.32164445 16.01858591 -20.1875 11.9375 C-19.59646484 11.33873047 -19.00542969 10.73996094 -18.39648438 10.12304688 C-6.85256863 -1.37051373 -6.85256863 -1.37051373 0 0 Z " fill="#8399FE" transform="translate(81,207)"/>
<path d="M0 0 C4.11411396 2.3856686 7.65426996 5.45696884 11.26855469 8.53271484 C12.99333216 9.99434945 14.74821835 11.41263843 16.5078125 12.83203125 C17.61179093 13.76015471 18.713441 14.69105629 19.8125 15.625 C20.80894531 16.46289062 21.80539062 17.30078125 22.83203125 18.1640625 C25.83471737 22.09190056 25.5057284 24.14801168 25 29 C23.43097818 31.70220425 22.15940242 31.94686586 19.1875 32.9375 C13.11261754 33.05661534 8.90691193 28.15687271 4.6875 24.1875 C0.51470417 20.32295448 -3.7503363 16.75775818 -8.3203125 13.375 C-10.74536674 11.38983932 -10.97205059 10.25713458 -11.3125 7.125 C-11 4 -11 4 -9.4375 1.625 C-6.06090082 -0.62606612 -4.01110256 -0.39859283 0 0 Z " fill="#8499FE" transform="translate(426,198)"/>
<path d="M0 0 C1.875 1.125 1.875 1.125 3 3 C3.88777184 9.81211062 1.26333995 13.86034018 -2.1875 19.4375 C-2.67025391 20.24509766 -3.15300781 21.05269531 -3.65039062 21.88476562 C-4.61309906 23.4884182 -5.58547968 25.08630762 -6.56787109 26.67797852 C-7.51698911 28.21685704 -8.45245248 29.76424741 -9.37353516 31.32006836 C-9.80327637 32.03686768 -10.23301758 32.75366699 -10.67578125 33.4921875 C-11.05259033 34.12882324 -11.42939941 34.76545898 -11.81762695 35.42138672 C-13 37 -13 37 -16 38.6875 C-19.76050912 39.0792197 -21.08835242 38.34549389 -24 36 C-26 33 -26 33 -25.8828125 30.328125 C-24.76274152 26.10555653 -22.96066839 22.57101968 -20.875 18.75 C-20.47265137 18.00363281 -20.07030273 17.25726563 -19.65576172 16.48828125 C-9.34974215 -2.33743554 -9.34974215 -2.33743554 0 0 Z " fill="#8399FE" transform="translate(45,249)"/>
<path d="M0 0 C5.7935071 5.11608131 9.97310989 12.2599691 14 18.8125 C14.38583252 19.43398926 14.77166504 20.05547852 15.16918945 20.69580078 C17.38914412 24.44169222 18.74393005 27.63431964 19 32 C17.5625 34.875 17.5625 34.875 15 37 C12.18490842 37.71384735 9.768538 37.91924113 7 37 C4.12269291 33.88062501 1.91595704 30.41313345 -0.3125 26.8125 C-2.69087106 22.99580519 -5.19236998 19.35805475 -7.875 15.75 C-10.73822711 11.68731289 -12.20027541 9.00688514 -12 4 C-9.20732096 -1.30609017 -5.45886817 -1.50828043 0 0 Z " fill="#8399FE" transform="translate(467,237)"/>
<path d="M0 0 C2.09477283 2.44390164 2.00458025 3.78014777 1.9375 7 C-0.24839014 13.99484844 -9.29538613 17.04939723 -15.375 20.25 C-16.39078125 20.80429688 -17.4065625 21.35859375 -18.453125 21.9296875 C-27.97337392 26.94945511 -27.97337392 26.94945511 -34 26 C-36.4375 24.375 -36.4375 24.375 -38 22 C-38.5625 19.0625 -38.5625 19.0625 -38 16 C-34.32245654 11.69321906 -30.21201793 9.10349079 -25.3125 6.4375 C-24.60424072 6.04908936 -23.89598145 5.66067871 -23.16625977 5.26049805 C-6.98361817 -3.49180908 -6.98361817 -3.49180908 0 0 Z " fill="#8499FE" transform="translate(131,179)"/>
<path d="M0 0 C2.59905797 2.45804159 2.99063297 3.91858889 3.40405273 7.51171875 C3.43049902 8.90342941 3.43934488 10.29554997 3.43359375 11.6875 C3.4388356 12.42701904 3.44407745 13.16653809 3.44947815 13.9284668 C3.45588747 15.48843126 3.45457542 17.04844413 3.44604492 18.60839844 C3.43752711 20.99241231 3.46631892 23.37403477 3.49804688 25.7578125 C3.4996589 27.27604095 3.49908133 28.79427363 3.49609375 30.3125 C3.51294472 31.37827271 3.51294472 31.37827271 3.53013611 32.46557617 C3.4826397 35.84513832 3.22078114 37.70161977 1.18774414 40.44921875 C-2.01514508 42.71958504 -4.17260092 42.5467713 -8 42 C-10.18774414 40.44921875 -10.18774414 40.44921875 -12 38 C-12.38618041 35.29692508 -12.5387449 33.01005632 -12.49609375 30.3125 C-12.49754898 29.57298096 -12.49900421 28.83346191 -12.50050354 28.0715332 C-12.49884714 26.51151582 -12.48731465 24.95148166 -12.46655273 23.39160156 C-12.43759421 21.00775535 -12.44594794 18.62613403 -12.45898438 16.2421875 C-12.45274649 14.72394756 -12.44435514 13.20571462 -12.43359375 11.6875 C-12.43652939 10.97698486 -12.43946503 10.26646973 -12.44248962 9.53442383 C-12.38402903 6.45799025 -12.16357651 4.29525456 -10.66040039 1.58203125 C-7.28960715 -1.62966412 -4.23267614 -1.14634979 0 0 Z " fill="#8399FE" transform="translate(12,410)"/>
<path d="M0 0 C4.9264684 3.40690938 5.99263296 9.05722438 7.6875 14.5 C8.14866211 15.92505859 8.14866211 15.92505859 8.61914062 17.37890625 C12.9576235 30.87851818 12.9576235 30.87851818 12 38 C9.81580958 40.77224169 8.47816341 40.94022957 5 41.375 C1.58277486 40.94784686 0.48795383 40.32036819 -2 38 C-3.06494141 35.62744141 -3.06494141 35.62744141 -3.8515625 32.8515625 C-4.14546875 31.84609375 -4.439375 30.840625 -4.7421875 29.8046875 C-5.17917969 28.23074219 -5.17917969 28.23074219 -5.625 26.625 C-6.2195917 24.55418063 -6.81588863 22.48384997 -7.4140625 20.4140625 C-7.6713916 19.4957666 -7.9287207 18.5774707 -8.19384766 17.63134766 C-8.966807 14.9696194 -8.966807 14.9696194 -10.07568359 12.35302734 C-11.26068643 9.33637196 -11.41033635 7.21430142 -11 4 C-8.05899778 -0.47032338 -5.13105401 -0.73300772 0 0 Z " fill="#8399FE" transform="translate(494,285)"/>
<path d="M0 0 C0.76313004 -0.00524185 1.52626007 -0.0104837 2.31251526 -0.0158844 C3.92553491 -0.02230379 5.53860139 -0.02096861 7.15161133 -0.01245117 C9.61689885 -0.00394767 12.07986374 -0.03268882 14.54492188 -0.06445312 C16.11328056 -0.06606546 17.68164333 -0.06548699 19.25 -0.0625 C19.98552597 -0.07373398 20.72105194 -0.08496796 21.47886658 -0.09654236 C24.91285621 -0.04990537 26.85443194 0.18546754 29.65258789 2.24584961 C31.92537465 5.47707952 31.80978808 7.58588456 31.19140625 11.43359375 C28.40401468 14.38151745 26.71184724 15.35466791 22.67382812 15.96704102 C21.33629652 15.99992308 19.99805643 16.00975362 18.66015625 16 C17.94661987 16.00619858 17.2330835 16.01239716 16.4979248 16.01878357 C14.99521239 16.02586079 13.49242122 16.0227443 11.98974609 16.01000977 C9.69741981 15.99613016 7.40917015 16.03024982 5.1171875 16.06835938 C3.65234276 16.0693106 2.18749293 16.06745157 0.72265625 16.0625 C0.04231323 16.07575821 -0.63802979 16.08901642 -1.33898926 16.10267639 C-5.13151703 16.028888 -6.7521158 15.47756282 -9.77929688 13.12084961 C-11.80859375 10.43359375 -11.80859375 10.43359375 -11.80859375 6.80859375 C-9.81093387 0.06649165 -6.551288 -0.0260758 0 0 Z " fill="#8399FE" transform="translate(210.80859375,160.56640625)"/>
<path d="M0 0 C3.13017159 1.03527465 6.08010393 2.35015232 9.0625 3.75 C9.81337891 4.08515625 10.56425781 4.4203125 11.33789062 4.765625 C23.16124304 10.16124304 23.16124304 10.16124304 27 14 C27.3557894 17.77136766 27.47414817 20.17539449 25.5625 23.5 C21.67244896 25.77710305 18.30651553 24.90215373 14 24 C11.04399999 22.95125685 8.29075408 21.61309949 5.5 20.1875 C4.02123897 19.45881166 2.54207565 18.73093911 1.0625 18.00390625 C0.01449219 17.48207764 0.01449219 17.48207764 -1.0546875 16.94970703 C-3.50127164 15.75527778 -5.99152078 14.68225967 -8.5 13.625 C-12 12 -12 12 -13 10 C-13.35065643 6.21291051 -13.48039914 3.83547676 -11.5625 0.5 C-7.66797668 -1.77972097 -4.31431644 -0.88315896 0 0 Z " fill="#8399FE" transform="translate(379,173)"/>
<path d="M0 0 C2.59335905 2.59335905 2.27726563 4.48747032 2.36328125 8.02734375 C1.88197751 10.64087479 1.06437817 11.34045623 -1 13 C-3.49267578 13.78369141 -3.49267578 13.78369141 -6.4453125 14.3515625 C-7.52296875 14.56296875 -8.600625 14.774375 -9.7109375 14.9921875 C-11.40089844 15.30542969 -11.40089844 15.30542969 -13.125 15.625 C-14.2284375 15.8415625 -15.331875 16.058125 -16.46875 16.28125 C-33.75893999 19.60786613 -33.75893999 19.60786613 -38.0625 17.5 C-40 15 -40 15 -40.625 11.5 C-40 8 -40 8 -37.92578125 5.9140625 C-34.58425157 3.72801504 -31.40669397 2.73505065 -27.5625 1.875 C-26.86600342 1.71177246 -26.16950684 1.54854492 -25.4519043 1.38037109 C-5.87835156 -3.06786124 -5.87835156 -3.06786124 0 0 Z " fill="#8499FE" transform="translate(184,164)"/>
<path d="M0 0 C0.7734375 -0.0103125 1.546875 -0.020625 2.34375 -0.03125 C4.5 0.5 4.5 0.5 6.10766602 2.05273438 C8.0052395 5.38804502 7.9490326 8.45082259 7.93359375 12.1875 C7.9388356 12.92701904 7.94407745 13.66653809 7.94947815 14.4284668 C7.95588747 15.98843126 7.95457542 17.54844413 7.94604492 19.10839844 C7.93752711 21.49241231 7.96631892 23.87403477 7.99804688 26.2578125 C7.9996589 27.77604095 7.99908133 29.29427363 7.99609375 30.8125 C8.01294472 31.87827271 8.01294472 31.87827271 8.03013611 32.96557617 C7.9826397 36.34513832 7.72078114 38.20161977 5.68774414 40.94921875 C2.48485492 43.21958504 0.32739908 43.0467713 -3.5 42.5 C-5.68774414 40.94921875 -5.68774414 40.94921875 -7.5 38.5 C-7.88618041 35.79692508 -8.0387449 33.51005632 -7.99609375 30.8125 C-7.99754898 30.07298096 -7.99900421 29.33346191 -8.00050354 28.5715332 C-7.99884714 27.01151582 -7.98731465 25.45148166 -7.96655273 23.89160156 C-7.93759421 21.50775535 -7.94594794 19.12613403 -7.95898438 16.7421875 C-7.95274649 15.22394756 -7.94435514 13.70571462 -7.93359375 12.1875 C-7.93652939 11.47698486 -7.93946503 10.76646973 -7.94248962 10.03442383 C-7.82865112 4.04378004 -6.53614374 -0.08714858 0 0 Z " fill="#8399FE" transform="translate(7.5,353.5)"/>
<path d="M0 0 C2.375 1.5 2.375 1.5 4 4 C5.24032034 11.04501951 5.2181358 18.11242031 5.25 25.25 C5.270625 26.42046875 5.29125 27.5909375 5.3125 28.796875 C5.31765625 29.9209375 5.3228125 31.045 5.328125 32.203125 C5.34214355 33.72921387 5.34214355 33.72921387 5.35644531 35.28613281 C4.9464573 38.40765798 4.16526696 39.74900561 2 42 C-1.01890228 43.11222716 -2.58251335 43.1165079 -5.6875 42.25 C-8 41 -8 41 -10 38 C-10.26389852 35.5111576 -10.42028536 33.12342337 -10.484375 30.62890625 C-10.5084845 29.9101683 -10.53259399 29.19143036 -10.55743408 28.45091248 C-10.60568279 26.93218027 -10.6490849 25.41328743 -10.68798828 23.89428711 C-10.7496949 21.57397252 -10.83279767 19.25510487 -10.91796875 16.93554688 C-10.96223244 15.45837157 -11.00524277 13.98115806 -11.046875 12.50390625 C-11.07279724 11.81212784 -11.09871948 11.12034943 -11.12542725 10.40760803 C-11.20217588 6.76669674 -11.13474893 4.03165932 -9 1 C-5.90826248 -0.54586876 -3.40570448 -0.29359521 0 0 Z " fill="#8399FE" transform="translate(507,339)"/>
<path d="M0 0 C0.76313004 -0.00524185 1.52626007 -0.0104837 2.31251526 -0.0158844 C3.92553491 -0.02230379 5.53860139 -0.02096861 7.15161133 -0.01245117 C9.61689885 -0.00394767 12.07986374 -0.03268882 14.54492188 -0.06445312 C16.11328056 -0.06606546 17.68164333 -0.06548699 19.25 -0.0625 C19.98552597 -0.07373398 20.72105194 -0.08496796 21.47886658 -0.09654236 C24.93703621 -0.04957698 26.85229598 0.17905081 29.65258789 2.28100586 C31.19140625 4.43359375 31.19140625 4.43359375 31.75390625 7.37109375 C30.98978027 11.53133521 29.47007533 12.80880428 26.19140625 15.43359375 C23.46655245 15.93476411 21.37514184 16.13804586 18.66015625 16.09765625 C17.94661987 16.10243988 17.2330835 16.10722351 16.4979248 16.1121521 C14.99517603 16.11554185 13.49235259 16.10640383 11.98974609 16.08544922 C9.6972115 16.05866158 7.40957091 16.08521906 5.1171875 16.1171875 C3.65233301 16.11388323 2.18748155 16.10747661 0.72265625 16.09765625 C-0.29785828 16.11283798 -0.29785828 16.11283798 -1.33898926 16.12832642 C-5.12618462 16.03566553 -6.75764936 15.47329253 -9.77929688 13.11865234 C-11.80859375 10.43359375 -11.80859375 10.43359375 -11.80859375 6.80859375 C-9.81093387 0.06649165 -6.551288 -0.0260758 0 0 Z " fill="#8399FE" transform="translate(266.80859375,160.56640625)"/>
<path d="M0 0 C3.5 0.5 3.5 0.5 6 1.875 C9.87836875 8.66214532 5.49915117 19.72821569 3.75 26.875 C3.39035156 28.47408203 3.39035156 28.47408203 3.0234375 30.10546875 C1.14681306 37.79575961 1.14681306 37.79575961 -2.0078125 41.23046875 C-4.5 42.5 -4.5 42.5 -7.625 42.4375 C-10.59917396 41.46766066 -11.61418671 40.91178376 -13.5 38.5 C-14.91611783 31.06626868 -12.59141178 23.28702946 -10.75 16.125 C-10.37101563 14.52591797 -10.37101563 14.52591797 -9.984375 12.89453125 C-9.7265625 11.86972656 -9.46875 10.84492188 -9.203125 9.7890625 C-8.97270508 8.86818848 -8.74228516 7.94731445 -8.50488281 6.99853516 C-6.71771053 2.55491971 -4.7408206 0.67726009 0 0 Z " fill="#8399FE" transform="translate(16.5,298.5)"/>
<path d="M0 0 C2.18554688 1.55078125 2.18554688 1.55078125 4 4 C4.3982295 6.70194958 4.56200004 8.98914572 4.53125 11.6875 C4.5350769 12.42701904 4.53890381 13.16653809 4.54284668 13.9284668 C4.54556271 15.4884579 4.53822292 17.04849478 4.52148438 18.60839844 C4.50006673 20.99257186 4.52129263 23.37373249 4.546875 25.7578125 C4.54423166 27.2760483 4.53910656 28.79428223 4.53125 30.3125 C4.53934692 31.02301514 4.54744385 31.73353027 4.55578613 32.46557617 C4.49201807 35.84141257 4.21766407 37.70618866 2.18554688 40.44921875 C-1.01568092 42.72068869 -3.17358544 42.54663065 -7 42 C-9.18554688 40.44921875 -9.18554688 40.44921875 -11 38 C-11.3982295 35.29805042 -11.56200004 33.01085428 -11.53125 30.3125 C-11.5350769 29.57298096 -11.53890381 28.83346191 -11.54284668 28.0715332 C-11.54556271 26.5115421 -11.53822292 24.95150522 -11.52148438 23.39160156 C-11.50006673 21.00742814 -11.52129263 18.62626751 -11.546875 16.2421875 C-11.54423166 14.7239517 -11.53910656 13.20571777 -11.53125 11.6875 C-11.53934692 10.97698486 -11.54744385 10.26646973 -11.55578613 9.53442383 C-11.49201807 6.15858743 -11.21766407 4.29381134 -9.18554688 1.55078125 C-5.98431908 -0.72068869 -3.82641456 -0.54663065 0 0 Z " fill="#8398FE" transform="translate(508,395)"/>
<path d="M0 0 C1.17574585 0.09595459 1.17574585 0.09595459 2.37524414 0.19384766 C23.19606881 2.08113374 23.19606881 2.08113374 27.57421875 5.453125 C29.17625623 7.67911392 29.55700039 9.25950817 29.6875 12 C28.40591769 15.06155774 27.45079033 16.58587531 24.51586914 18.17822266 C20.93144444 19.21967052 18.26062906 18.91391604 14.55859375 18.4609375 C13.55131981 18.33774643 13.55131981 18.33774643 12.5236969 18.21206665 C11.11009781 18.03512152 9.69731895 17.85151036 8.28540039 17.66162109 C6.13057818 17.37574006 3.9735622 17.12227297 1.81445312 16.87109375 C0.43724899 16.69465671 -0.93971519 16.51633428 -2.31640625 16.3359375 C-4.18534546 16.09689697 -4.18534546 16.09689697 -6.09204102 15.85302734 C-9.68786661 14.90057381 -11.07959367 13.93467688 -13.3125 11 C-13.875 8.0625 -13.875 8.0625 -13.3125 5 C-9.40617577 -0.2160027 -6.15326962 -0.63815584 0 0 Z " fill="#8399FE" transform="translate(324.3125,161)"/>
<path d="M0 0 C3.78879736 1.19276954 4.51058792 1.66582321 6.375 5.0625 C6.71557617 8.36230469 6.71557617 8.36230469 6.66796875 12.234375 C6.66372391 12.9167926 6.65947906 13.59921021 6.65510559 14.30230713 C6.63836972 16.47278004 6.60072959 18.64230979 6.5625 20.8125 C6.54744646 22.28774697 6.53375922 23.76300855 6.52148438 25.23828125 C6.49103956 28.84700607 6.43231619 32.45370275 6.375 36.0625 C1.425 36.0625 -3.525 36.0625 -8.625 36.0625 C-8.74009468 31.73749784 -8.83951085 27.41784564 -8.8996582 23.0925293 C-8.92473644 21.62294475 -8.95880856 20.15348413 -9.00219727 18.68432617 C-9.06315499 16.56658319 -9.09127316 14.45049424 -9.11328125 12.33203125 C-9.13946533 11.05948486 -9.16564941 9.78693848 -9.19262695 8.47583008 C-8.27146497 2.936576 -5.65901858 0.09756929 0 0 Z " fill="#8398FE" transform="translate(8.625,464.9375)"/>
<path d="M0 0 C0.66 0.33 1.32 0.66 2 1 C-1.3 4.3 -4.6 7.6 -8 11 C-8 6.67750434 -5.85084926 5.11604454 -3 2 C-2.01 1.34 -1.02 0.68 0 0 Z " fill="#E9C9C8" transform="translate(203,294)"/>
</svg>
