<svg xmlns="http://www.w3.org/2000/svg" data-name="Layer 2 copy 2" viewBox="0 0 64 80" x="0px" y="0px"><title>India, Mysore Palace </title><path d="M60,30H52V21a2,2,0,0,0-2-2H48V13H44v6H42V16a10.016,10.016,0,0,0-8-9.8V0H30V6.2A10.016,10.016,0,0,0,22,16v3H20V13H16v6H14a2,2,0,0,0-2,2v9H4V21H0V62a2,2,0,0,0,2,2H62a2,2,0,0,0,2-2V21H60Zm0,10H58V36H54v4H52V36H48v4H46V36H42v4H39V35c0-.338-.012-.671-.034-1H60ZM18,36v4H16V36H12v4H10V36H6v4H4V34H25.034c-.022.329-.034.662-.034,1v5H22V36ZM38,21v8.8a7.838,7.838,0,0,0-4-4.394V23H30v2.405A7.838,7.838,0,0,0,26,29.8V18H38ZM29,35c0-3.434,1.584-6,3-6s3,2.566,3,6v5H29ZM48,23v7H42V23ZM32,10a6,6,0,0,1,5.65,4H26.35A6,6,0,0,1,32,10ZM16,23h6v7H16Zm0,37H10V56c0-3.434,1.584-6,3-6s3,2.566,3,6Zm14-4v4H26V56a6,6,0,0,1,12,0v4H34V56Zm24,4H48V56c0-3.434,1.584-6,3-6s3,2.566,3,6Zm4,0V56c0-5.607-3.075-10-7-10s-7,4.393-7,10v4H42V56a10,10,0,0,0-20,0v4H20V56c0-5.607-3.075-10-7-10S6,50.393,6,56v4H4V44H60V60Z"/><text x="0" y="79" fill="#000000" font-size="5px" font-weight="bold" font-family="'Helvetica Neue', Helvetica, Arial-Unicode, Arial, Sans-serif">Created by Foxyard Studio</text><text x="0" y="84" fill="#000000" font-size="5px" font-weight="bold" font-family="'Helvetica Neue', Helvetica, Arial-Unicode, Arial, Sans-serif">from the Noun Project</text></svg>