<svg xmlns="http://www.w3.org/2000/svg" data-name="Layer 1" viewBox="0 0 100 125" x="0px" y="0px"><title>cities icon 2 copy 2</title><path d="M87.6,71.25H83.93V52.82h.14a.6.6,0,0,0,.6-.6.59.59,0,0,0-.57-.59,3,3,0,0,0,0-1,2.51,2.51,0,0,0-1-1.66L81.06,47.4v-.77a.6.6,0,1,0-1.2,0v.78l-1.94,1.53a2.46,2.46,0,0,0-1,1.66,2.69,2.69,0,0,0,0,1h-.14a.6.6,0,1,0,0,1.2h.32v3.1H68.51v-3.1h.15a.6.6,0,0,0,.6-.6.6.6,0,0,0-.58-.59,3,3,0,0,0,0-1,2.54,2.54,0,0,0-1-1.66L65.64,47.4v-.77a.6.6,0,0,0-1.2,0v.78L62.5,48.94a2.46,2.46,0,0,0-1,1.66,2.69,2.69,0,0,0,0,1h-.15a.6.6,0,1,0,0,1.2h.32v.93h-.21l-2.62-1.82s0,0,0-.07V50.37a2,2,0,0,0-1.68-2,.45.45,0,0,0,0-.2V45.26a.58.58,0,0,0,.4-.19,4.92,4.92,0,0,0,1.18-4,5,5,0,0,0-.64-1.79s0-.06,0-.09v-2a.59.59,0,0,0-.6-.6.6.6,0,0,0-.6.6v.77a5.4,5.4,0,0,0-.46-.33L52,34.74v-2.5a1.89,1.89,0,0,0-1.89-1.88h-.2A1.89,1.89,0,0,0,48,32.24v2.5l-4.6,2.84c-.16.11-.32.22-.47.34v-.78a.6.6,0,0,0-1.2,0v2a.29.29,0,0,0,0,.09,4.86,4.86,0,0,0-.64,1.79,4.92,4.92,0,0,0,1.18,4,.58.58,0,0,0,.4.19v2.93a.45.45,0,0,0,0,.2,2,2,0,0,0-1.67,2v1.49s0,0,0,.07l-2.62,1.82h-.21v-.93h.15a.6.6,0,0,0,.6-.6.6.6,0,0,0-.58-.59,2.75,2.75,0,0,0,0-1,2.54,2.54,0,0,0-1-1.66L35.38,47.4v-.77a.6.6,0,0,0-.6-.6.6.6,0,0,0-.6.6v.78l-1.94,1.53a2.5,2.5,0,0,0-1,1.66,2.69,2.69,0,0,0,0,1h-.15a.6.6,0,0,0,0,1.2h.32v3.1H22.83v-3.1h.23a.6.6,0,1,0,0-1.2H23a2.69,2.69,0,0,0,0-1,2.5,2.5,0,0,0-1-1.66L20,47.4v-.77a.6.6,0,1,0-1.2,0v.78l-1.95,1.53a2.54,2.54,0,0,0-1,1.66,2.91,2.91,0,0,0,0,1h-.06a.6.6,0,1,0,0,1.2h.23V71.25H12.4a.6.6,0,1,0,0,1.19H87.6a.6.6,0,1,0,0-1.19ZM27.74,69V67.5a.6.6,0,0,0-1.2,0V69H22.83v-4h8.66v4Zm-7.69,0V67.5a.6.6,0,1,0-1.2,0V69H17.27v-4h4.36v4ZM38.65,55h9.49a1.84,1.84,0,0,0,0,.41v.56H37.35V55Zm24,0v1H51.92v-.56a1.84,1.84,0,0,0-.06-.41h10.8Zm17.89,12a.6.6,0,0,0-.6.6V69H78.37v-4h4.36v4H81.15V67.5A.6.6,0,0,0,80.55,66.9ZM73.46,69V67.5a.6.6,0,0,0-1.2,0V69H68.51v-4h8.66v4ZM65,69H63v-4h4.36v4ZM44.55,57.12v1.69H40.46V57.12Zm2.21,0V59.4h0v3h0V66.8h-1V57.12Zm1.93,0h3.36v1.69H48V57.12Zm5.57,0V66.8h-1V57.12Zm5.29,0v1.69H55.46V57.12Zm2.2,0V66.8h-1V57.12ZM38.25,68h23.5v1H38.25Zm6.3-6.19H40.46V60h4.09ZM40.46,63h4.09V66.8H40.46Zm11.59-1.2H48V60h4.09ZM48,63h4.09V66.8H48Zm11.59-1.2H55.46V60h4.09ZM55.46,63h4.09V66.8H55.46ZM39.26,66.8h-1V57.12h1ZM78.37,52.85h4.36v6H78.37ZM82.73,60v3.87H78.37V60Zm-5.56,3.87H68.51V60h8.66Zm-9.86,0H63V60h4.36ZM50.72,55.36v.56H49.29v-.56a2.28,2.28,0,0,1,.7-1.25A2.31,2.31,0,0,1,50.72,55.36ZM37.05,63.88H32.69V60h4.36Zm-5.56,0H22.83V60h8.66ZM17.27,60h4.36v3.87H17.27Zm0-7.16h4.36v6H17.27ZM32.69,65.08h4.36v4H32.69Zm33,5.14h17v1h-17ZM78.14,50.78a1.33,1.33,0,0,1,.5-.88l1.84-1.44,2,1.45a1.31,1.31,0,0,1,.49.87,1.58,1.58,0,0,1-.11.84H78.25A1.58,1.58,0,0,1,78.14,50.78Zm-1,6.34v1.69H68.51V57.12ZM62.72,50.78a1.34,1.34,0,0,1,.51-.88l1.83-1.44,2,1.45a1.3,1.3,0,0,1,.48.87,1.58,1.58,0,0,1-.1.84h-4.6A1.58,1.58,0,0,1,62.72,50.78ZM63,52.85h4.36v6H63V57.12h.31a.6.6,0,0,0,.6-.6V54.35a.6.6,0,0,0-.6-.6H63Zm-9.44-6.47a.6.6,0,0,0-.6.6v1.38H50.6V47a.6.6,0,1,0-1.2,0v1.38H47.09V47a.6.6,0,1,0-1.2,0v1.38h-2a1,1,0,0,0,0-.17V45.27H56.1v2.92a1,1,0,0,0,0,.17h-2V47A.6.6,0,0,0,53.51,46.38ZM51.32,35.74,56,38.6a3.77,3.77,0,0,1,1.74,2.64A3.72,3.72,0,0,1,57,44.07h-5V42.82a2.22,2.22,0,0,0-.16-.79,3.12,3.12,0,0,0-1.5-1.62.7.7,0,0,0-.52,0A3.19,3.19,0,0,0,48.26,42a2.35,2.35,0,0,0-.18.86v1.25H43a3.72,3.72,0,0,1-.73-2.83,3.77,3.77,0,0,1,1.74-2.64l4.63-2.86Zm-2,7.08a1.09,1.09,0,0,1,.07-.4,1.69,1.69,0,0,1,.64-.76,1.83,1.83,0,0,1,.64.76,1.29,1.29,0,0,1,.07.4v1.25H49.29Zm.81-11.26a.67.67,0,0,1,.68.68v2.3H49.22v-2.3a.67.67,0,0,1,.68-.68ZM42.27,50.37a.81.81,0,0,1,.81-.81H56.92a.82.82,0,0,1,.82.81v.89H42.27Zm.15,2.09H57.58l1.85,1.29H51.26a6.84,6.84,0,0,0-.89-.93.6.6,0,0,0-.76,0,6.41,6.41,0,0,0-.88.93H40.57Zm-5.67,1.29a.6.6,0,0,0-.6.6v2.17a.6.6,0,0,0,.6.6h.3v1.69H32.69v-6h4.36v.9Zm-4.28-3a1.29,1.29,0,0,1,.5-.88l1.83-1.44,2,1.45a1.3,1.3,0,0,1,.48.87,1.49,1.49,0,0,1-.1.84h-4.6A1.49,1.49,0,0,1,32.47,50.78Zm-1,6.34v1.69H22.83V57.12ZM17.05,50.78a1.29,1.29,0,0,1,.5-.88l1.83-1.44,2,1.45a1.3,1.3,0,0,1,.48.87,1.49,1.49,0,0,1-.1.84h-4.6A1.49,1.49,0,0,1,17.05,50.78Zm.23,19.44h16.9v1H17.28Zm18.1,1v-.94H64.53v.94Z"/><path d="M19.45,61.43a.62.62,0,0,0-.6.62.6.6,0,0,0,1.2,0v0A.59.59,0,0,0,19.45,61.43Z"/><path d="M27.14,62.65a.6.6,0,0,0,.6-.6v0a.59.59,0,0,0-.6-.59.62.62,0,0,0-.6.62A.6.6,0,0,0,27.14,62.65Z"/><path d="M34.78,62.65a.6.6,0,0,0,.6-.6v0a.59.59,0,0,0-.6-.59.62.62,0,0,0-.6.62A.6.6,0,0,0,34.78,62.65Z"/><path d="M80.55,62.65a.6.6,0,0,0,.6-.6v0a.59.59,0,0,0-.6-.59.61.61,0,0,0-.6.62A.6.6,0,0,0,80.55,62.65Z"/><path d="M72.86,62.65a.6.6,0,0,0,.6-.6v0a.59.59,0,0,0-.6-.59.62.62,0,0,0-.6.62A.6.6,0,0,0,72.86,62.65Z"/><path d="M65.13,62.65a.6.6,0,0,0,.6-.6v0a.59.59,0,0,0-.6-.59.62.62,0,0,0-.6.62A.6.6,0,0,0,65.13,62.65Z"/><path d="M35.38,67.09v0a.59.59,0,0,0-.6-.59.62.62,0,0,0-.6.62.6.6,0,0,0,.6.6A.6.6,0,0,0,35.38,67.09Z"/><path d="M65.13,66.47a.62.62,0,0,0-.6.62.6.6,0,0,0,1.2,0v0A.59.59,0,0,0,65.13,66.47Z"/><path d="M19.45,54.52a.59.59,0,0,0-.6.59v1.44a.6.6,0,0,0,1.2,0V55.11A.59.59,0,0,0,19.45,54.52Z"/><path d="M34.87,54.52a.59.59,0,0,0-.6.59v1.44a.6.6,0,1,0,1.2,0V55.11A.59.59,0,0,0,34.87,54.52Z"/><path d="M65.13,57.15a.6.6,0,0,0,.6-.6V55.11a.6.6,0,0,0-1.2,0v1.44A.6.6,0,0,0,65.13,57.15Z"/><path d="M80.55,54.52a.59.59,0,0,0-.6.59v1.44a.6.6,0,0,0,1.2,0V55.11A.59.59,0,0,0,80.55,54.52Z"/><text x="0" y="115" fill="#000000" font-size="5px" font-weight="bold" font-family="'Helvetica Neue', Helvetica, Arial-Unicode, Arial, Sans-serif">Created by PRAMOD KV</text><text x="0" y="120" fill="#000000" font-size="5px" font-weight="bold" font-family="'Helvetica Neue', Helvetica, Arial-Unicode, Arial, Sans-serif">from the Noun Project</text></svg>