<svg xmlns="http://www.w3.org/2000/svg" xmlns:xlink="http://www.w3.org/1999/xlink" version="1.1" x="0px" y="0px" viewBox="0 0 96 120" enable-background="new 0 0 96 96" xml:space="preserve"><g><path d="M6.0919,85.0601v7.9816H1.9792V95c20.7413,0,72.8801,0,92.0417,0v-1.9583h-5.1454v-7.9816h-7.7343l-6.8639-5.4752   l9.3744-7.2922h-9.052V65.364l-7.5294-5.3372L64.6516,38.588c-0.2032-2.2586-0.9089-4.4072-2.097-6.3866   c-1.501-2.4982-3.7535-4.6593-6.8006-6.1975v-6.6522h-3.378L50.5593,3.6984C50.3815,2.1599,49.0786,1,47.5295,1   s-2.8519,1.1599-3.0298,2.6984l-1.8167,15.6533h-3.4736v6.7312c-5.4743,2.8201-8.4627,7.6723-8.9057,12.5805l-2.4104,21.3632   l-7.5294,5.3372v6.9288h-9.0482l9.3744,7.2922l-6.8639,5.4752H6.0919z M22.3222,68.5702h50.319v3.7206h-50.319V68.5702z    M46.4447,3.9241c0.0641-0.5508,0.5302-0.9658,1.0848-0.9658s1.0208,0.415,1.0848,0.9658l1.7906,15.4276h-5.7508L46.4447,3.9241z    M41.1678,21.3101c-0.4094,0.0007,5.8936,0.0023,12.6278,0v3.852c-1.9429-0.7021-4.1338-1.0904-6.2412-1.0904   c-2.1041,0-4.358,0.3873-6.3866,1.1404V21.3101z M35.8779,30.986h1.5139v-1.401c3.1028-2.4869,6.8614-3.6455,10.294-3.5503   c3.659,0.0282,7.1527,1.2227,9.9831,3.5296v1.4217h1.5282c0.6392,0.6921,1.2038,1.4328,1.679,2.2232   c0.181,0.3017,0.3326,0.6133,0.4878,0.9237H60.907v1.9583h1.2543c0.2711,0.872,0.4586,1.7694,0.5419,2.6946l0.05,0.4427h-0.8637   v1.9583h1.0846l0.355,3.1469h-0.8659v1.9583h1.0868l0.355,3.1469H63.037v1.9583h1.0889l0.354,3.1374h-0.8692v1.9583h1.0901   l0.3385,3.0006H29.9241l0.3386-3.0006h1.09v-1.9583h-0.8691l0.354-3.1374h1.0888v-1.9583h-0.8679l0.3551-3.1469h1.0866v-1.9583   h-0.8656l0.3551-3.1469h1.0842v-1.9583h-0.8633l0.0414-0.3672c0.085-0.9429,0.2806-1.8705,0.5724-2.7702h1.2511v-1.9583h-0.4193   C34.2383,33.0005,34.9827,31.9415,35.8779,30.986z M29.2687,61.4521h36.4261l6.9464,4.9236v0.2362h-50.319v-0.2362L29.2687,61.4521   z M86.9171,87.0185v6.0232H8.0502v-6.0232C66.299,87.0185,49.7693,87.0185,86.9171,87.0185z M77.9449,74.251l-5.5862,4.3451   H22.6086l-5.5862-4.3451H77.9449z M22.6153,80.5544H72.352l5.6484,4.5057H16.9669L22.6153,80.5544z"/><rect x="49.8699" y="29.0277" width="3.1197" height="1.9583"/><rect x="42.071" y="29.0277" width="3.1197" height="1.9583"/><rect x="53.361" y="34.133" width="3.3539" height="1.9583"/><rect x="45.8145" y="34.133" width="3.3539" height="1.9583"/><rect x="38.2681" y="34.133" width="3.3539" height="1.9583"/><rect x="50.8065" y="39.2286" width="4.433" height="1.9583"/><rect x="39.7235" y="39.2286" width="4.4335" height="1.9583"/><rect x="37.1823" y="44.3339" width="3.7455" height="1.9583"/><rect x="54.0361" y="44.3339" width="3.7455" height="1.9583"/><rect x="45.6095" y="44.3339" width="3.745" height="1.9583"/><rect x="45.7534" y="49.4391" width="3.4567" height="1.9583"/><rect x="37.1115" y="49.4391" width="3.4567" height="1.9583"/><rect x="54.3952" y="49.4391" width="3.4567" height="1.9583"/><rect x="45.466" y="54.5348" width="4.0319" height="1.9583"/><rect x="54.5381" y="54.5348" width="4.0324" height="1.9583"/><rect x="36.3934" y="54.5348" width="4.0324" height="1.9583"/><rect x="67.559" y="37.9071" width="3.4299" height="1.9583"/><path d="M69.6363,25.6924c-2.6937,0-5.2052,1.07-7.0712,3.014l1.4123,1.3559c1.4936-1.5548,3.5031-2.4116,5.6589-2.4116   c4.0539,0,7.4102,3.0408,7.808,7.0731l0.1578,1.6026l1.3502-0.8769c2.4346-1.5852,5.5725-0.1436,6.1963,2.4575H73.5229v1.9583   h13.6988v-0.9792c0-4.3031-4.2511-7.0397-8.0566-5.7086C78.1189,28.8269,74.2367,25.6924,69.6363,25.6924z"/><rect x="19.7715" y="16.9975" width="2.9939" height="1.9583"/><path d="M24.9776,18.9559h12.0828v-0.9792c0-3.8207-3.7342-6.2253-7.0693-5.1435c-0.972-3.7847-4.378-6.4985-8.4061-6.4985   c-3.9114,0-7.3261,2.6545-8.3578,6.3311c-3.3198-0.618-6.3971,1.9213-6.3971,5.3108v0.9792h10.386v-1.9583H8.9256   c0.5363-1.8528,2.631-3.0322,4.6659-2.1936l1.1647,0.481l0.1783-1.2469c0.4695-3.275,3.3281-5.745,6.6505-5.745   c3.4744,0,6.3517,2.6066,6.6921,6.0624l0.1578,1.6036l1.3502-0.8778c2.0004-1.3013,4.5715-0.1804,5.1798,1.9163h-9.9872V18.9559z"/><path d="M64.9939,15.5718c-0.8338-1.3387-2.2696-2.4948-4.5851-2.4948v1.9583c3.1914,0,3.5763,3.2387,3.6092,3.604l1.9512,0.0038   c0.0335-0.3691,0.4183-3.6078,3.6097-3.6078V13.077C67.2635,13.077,65.8277,14.2331,64.9939,15.5718z"/><path d="M84.6518,14.1365h1.9516c0.0153-0.1855,0.4188-4.5306,4.5526-4.5306V7.6476c-2.8682,0-4.5827,1.5194-5.5284,3.2033   c-0.9457-1.6839-2.6602-3.2033-5.5284-3.2033V9.606C84.2024,9.606,84.6356,13.9539,84.6518,14.1365z"/></g><text x="0" y="111" fill="#000000" font-size="5px" font-weight="bold" font-family="'Helvetica Neue', Helvetica, Arial-Unicode, Arial, Sans-serif">Created by ProSymbols</text><text x="0" y="116" fill="#000000" font-size="5px" font-weight="bold" font-family="'Helvetica Neue', Helvetica, Arial-Unicode, Arial, Sans-serif">from the Noun Project</text></svg>