<svg xmlns="http://www.w3.org/2000/svg" xmlns:xlink="http://www.w3.org/1999/xlink" version="1.1" x="0px" y="0px" viewBox="0 0 512 640" enable-background="new 0 0 512 512" xml:space="preserve"><g><path d="M469,108.5H313.4v16.4H469c13.6,0,24.6,11,24.6,24.6v295c0,13.6-11,24.6-24.6,24.6H43c-13.6,0-24.6-11-24.6-24.6v-295   c0-13.6,11-24.6,24.6-24.6h155.7v-16.4H43c-22.6,0-41,18.4-41,41v295c0,22.6,18.4,41,41,41H469c22.6,0,41-18.4,41-41v-295   C510,126.9,491.6,108.5,469,108.5z"/><path d="M256,174.1c27.1,0,49.2-22.1,49.2-49.2V26.6h-98.3v98.3C206.8,152,228.9,174.1,256,174.1z M223.2,43h65.5v81.9   c0,18.1-14.7,32.8-32.8,32.8c-18.1,0-32.8-14.7-32.8-32.8V43z"/><path d="M256,141.3c13.6,0,24.6-11,24.6-24.6s-11-24.6-24.6-24.6c-13.6,0-24.6,11-24.6,24.6S242.4,141.3,256,141.3z M256,108.5   c4.5,0,8.2,3.7,8.2,8.2c0,4.5-3.7,8.2-8.2,8.2c-4.5,0-8.2-3.7-8.2-8.2C247.8,112.2,251.5,108.5,256,108.5z"/><path d="M51.2,428.1h213V206.8h-213V428.1z M92.1,411.7c0-36.1,29.4-65.5,65.5-65.6c0,0,0,0,0,0c0,0,0,0,0,0   c36.1,0,65.5,29.4,65.5,65.6H92.1z M129,301.1c0-15.8,12.9-28.7,28.7-28.7c15.8,0,28.7,12.9,28.7,28.7c0,15.8-12.9,28.7-28.7,28.7   c0,0,0,0,0,0c0,0,0,0,0,0C141.9,329.7,129,316.9,129,301.1z M67.5,223.2h180.3v188.5h-8.2c0-34.9-21.9-64.6-52.6-76.4   c9.6-8.3,15.8-20.5,15.8-34.2c0-24.9-20.2-45.1-45.1-45.1c-24.8,0-45.1,20.2-45.1,45.1c0,13.7,6.1,25.9,15.8,34.2   c-30.7,11.8-52.6,41.6-52.6,76.4h-8.2V223.2z"/><rect x="297" y="223.2" width="163.9" height="16.4"/><rect x="297" y="280.6" width="163.9" height="16.4"/><rect x="297" y="337.9" width="163.9" height="16.4"/><rect x="378.9" y="395.3" width="16.4" height="16.4"/><rect x="346.1" y="395.3" width="16.4" height="16.4"/><rect x="411.7" y="395.3" width="16.4" height="16.4"/></g><text x="0" y="527" fill="#000000" font-size="5px" font-weight="bold" font-family="'Helvetica Neue', Helvetica, Arial-Unicode, Arial, Sans-serif">Created by Icon Fair</text><text x="0" y="532" fill="#000000" font-size="5px" font-weight="bold" font-family="'Helvetica Neue', Helvetica, Arial-Unicode, Arial, Sans-serif">from the Noun Project</text></svg>