<svg xmlns="http://www.w3.org/2000/svg" xmlns:xlink="http://www.w3.org/1999/xlink" version="1.1" x="0px" y="0px" viewBox="0 0 100 125" enable-background="new 0 0 100 100" xml:space="preserve"><path d="M61.646,69.59h30.217l-1.644-23.31c0.169-0.82,0.331-1.641,0.499-2.46c-0.409-1.774-0.813-3.549-1.224-5.323  c-1.671-4.992-29.041-4.482-27.941,3.963l-0.164,0.02L61.646,69.59z M65.808,50.827l-0.039-4.098l0.394,0.002l0.038,4.098  L65.808,50.827z M71.365,50.012l-0.039-4.099l0.388,0.003l0.038,4.099L71.365,50.012z M77.505,49.313l-0.039-4.092l0.393-0.004  l0.039,4.098L77.505,49.313z M83.176,49.937l-0.039-4.098l0.387,0.002l0.039,4.092L83.176,49.937z M86.888,50.63l-0.038-4.098  l0.393,0.002l0.039,4.098L86.888,50.63z M88.923,42.577c-0.01,0.222-0.02,0.438-0.034,0.652  c-10.544-2.455-18.952-1.721-25.934,1.142c-0.056-0.308-0.111-0.608-0.167-0.915C71.705,40.635,80.422,40.279,88.923,42.577z   M8.137,69.59h30.08l-0.257-27.257l-0.094-0.006c-0.956-8.021-21.633-8.622-28.796-3.955c-0.291,1.548-0.581,3.096-0.871,4.643  c0.224,0.725,0.447,1.455,0.671,2.185L8.137,69.59z M10.517,50.641l-0.039-4.099l0.386,0.002l0.039,4.1L10.517,50.641z   M14.216,49.943l-0.039-4.099l0.393,0.002l0.039,4.099L14.216,49.943z M19.869,49.323l-0.039-4.098l0.393,0.002l0.039,4.098  L19.869,49.323z M26.028,50.021l-0.039-4.098l0.392,0.001l0.039,4.093L26.028,50.021z M31.601,50.831l-0.039-4.099l0.388,0.003  l0.039,4.098L31.601,50.831z M35.929,43.462c-0.05,0.302-0.1,0.61-0.15,0.912c-7.035-2.861-15.457-3.591-25.96-1.136  c-0.014-0.216-0.028-0.431-0.042-0.646C18.23,40.288,26.959,40.639,35.929,43.462z M40.47,42.46l-1.531-0.076l0.257,27.206h5.265  c-0.351-17.846,2.382-13.992,5.612-16.338c1.476,1.899,6.441-1.736,5.979,16.338h4.614L60.41,42.589l-1.329,0.143  c0.024-2.32,0.044-4.641,0.063-6.961c0.732-0.685,1.463-1.665,2.195-2.35c-7.9-0.089-15.792,0.117-23.686,0.028  c0.958,0.821,1.921,1.641,2.885,2.456C40.517,38.09,40.491,40.275,40.47,42.46z M55.794,52.379  c-0.504-0.001-0.913-0.434-0.918-0.956c-0.005-0.529,0.396-0.958,0.899-0.957c0.505,0,0.92,0.428,0.925,0.956  C56.705,51.951,56.298,52.374,55.794,52.379z M56.006,36.93c-0.303-0.969,0.417-1.137,1.158-1.501  c0.555,0.314,1.319,0.559,1.123,1.533c0.882-0.446,0.344,2.212,0.223,3.075c-0.897-0.009-1.801-0.024-2.697-0.033  C55.646,39.272,54.989,36.719,56.006,36.93z M52.364,36.931c-0.303-0.969,0.417-1.137,1.158-1.501  c0.555,0.314,1.319,0.559,1.117,1.533c0.888-0.447,0.344,2.212,0.229,3.074c-0.903-0.015-1.801-0.024-2.704-0.033  C52.005,39.273,51.348,36.721,52.364,36.931z M48.787,36.932c-0.308-0.969,0.417-1.137,1.159-1.501  c0.555,0.314,1.319,0.558,1.117,1.533c0.887-0.446,0.344,2.212,0.223,3.075c-0.897-0.016-1.795-0.024-2.698-0.034  C48.428,39.274,47.764,36.721,48.787,36.932z M45.139,36.934c-0.303-0.969,0.417-1.137,1.159-1.508  c0.555,0.32,1.319,0.564,1.123,1.539c0.881-0.452,0.344,2.212,0.223,3.075c-0.898-0.016-1.801-0.024-2.698-0.034  C44.78,39.276,44.123,36.723,45.139,36.934z M44.725,51.425c0.005,0.523-0.401,0.952-0.9,0.951  c-0.504-0.001-0.919-0.428-0.924-0.957c-0.005-0.522,0.402-0.951,0.906-0.951C44.305,50.464,44.72,50.896,44.725,51.425z   M41.497,36.929c-0.302-0.969,0.417-1.13,1.159-1.501c0.555,0.32,1.319,0.564,1.117,1.539c0.887-0.453,0.343,2.212,0.229,3.069  c-0.903-0.009-1.801-0.019-2.704-0.033C41.138,39.277,40.48,36.724,41.497,36.929z"/><text x="0" y="115" fill="#000000" font-size="5px" font-weight="bold" font-family="'Helvetica Neue', Helvetica, Arial-Unicode, Arial, Sans-serif">Created by Yashodhan Mandke</text><text x="0" y="120" fill="#000000" font-size="5px" font-weight="bold" font-family="'Helvetica Neue', Helvetica, Arial-Unicode, Arial, Sans-serif">from the Noun Project</text></svg>