<?xml version="1.0" encoding="iso-8859-1"?>
<!-- Uploaded to: SVG Repo, www.svgrepo.com, Generator: SVG Repo Mixer Tools -->
<svg fill="#757575" height="800px" width="800px" version="1.1" id="Layer_1" xmlns="http://www.w3.org/2000/svg" xmlns:xlink="http://www.w3.org/1999/xlink" 
	 viewBox="0 0 512 512" xml:space="preserve">
<g>
	<g>
		<path d="M480.875,389.781c-30.549-16.064-73.451-35.541-115.371-44.544c9.899-12.629,18.411-26.624,24.939-41.643
			C354.24,312.107,295.979,320,256,320c-11.797,0-21.333-9.557-21.333-21.333s9.536-21.333,21.333-21.333
			c47.168,0,121.792-12.565,141.952-20.011c1.899-0.704,3.819-0.747,5.739-0.896c0.235-1.792,0.213-3.648,0.405-5.461
			c13.355-7.061,22.571-20.928,22.571-37.056v-65.152c0-18.027-11.413-33.301-27.371-39.296C380.885,47.872,321.857,0,256,0
			S131.115,47.872,112.704,109.461c-15.936,5.995-27.371,21.269-27.371,39.296v65.152c0,15.957,9.024,29.717,22.144,36.843
			c3.477,34.731,17.963,67.84,38.933,94.507c-41.899,9.003-84.757,28.48-115.285,44.523C11.925,399.893,0,419.648,0,441.344v49.323
			C0,502.443,9.536,512,21.333,512h469.333c11.797,0,21.333-9.557,21.333-21.333v-49.323
			C512,419.648,500.076,399.893,480.875,389.781z M469.333,469.333H42.667v-27.989c0-5.803,3.179-11.093,8.341-13.803
			c46.229-24.32,88.021-39.36,120.981-43.541h16.363c15.019,9.685,31.275,16.299,48.043,19.328c0.341,0.085,0.683,0.192,1.045,0.256
			c0.256,0.043,0.448,0.064,0.704,0.107c2.005,0.32,4.011,0.64,6.037,0.853c9.941,1.28,18.091,1.088,30.4-1.003
			c2.24-0.384,4.459-0.96,6.677-1.493c3.947-0.917,7.872-2.027,11.776-3.349c2.005-0.683,4.011-1.28,5.995-2.069
			c5.013-2.005,9.963-4.373,14.848-7.04c2.005-1.088,3.968-2.261,5.931-3.456c1.216-0.747,2.453-1.365,3.648-2.133h16.555
			c32.96,4.181,74.752,19.221,120.981,43.541c5.163,2.709,8.341,8,8.341,13.803V469.333z"/>
	</g>
</g>
</svg>