<?xml version="1.0" encoding="UTF-8"?>
<!DOCTYPE svg PUBLIC "-//W3C//DTD SVG 1.1//EN" "http://www.w3.org/Graphics/SVG/1.1/DTD/svg11.dtd">
<svg xmlns="http://www.w3.org/2000/svg" version="1.1" width="407px" height="306px" style="shape-rendering:geometricPrecision; text-rendering:geometricPrecision; image-rendering:optimizeQuality; fill-rule:evenodd; clip-rule:evenodd" xmlns:xlink="http://www.w3.org/1999/xlink">
<g><path style="opacity:1" fill="#8586a9" d="M 199.5,47.5 C 204.179,47.3342 208.845,47.5008 213.5,48C 210.5,48.3333 207.5,48.6667 204.5,49C 200.806,51.0789 196.806,52.4122 192.5,53C 184.671,57.4743 180.504,64.3076 180,73.5C 179.5,82.1603 179.334,90.8269 179.5,99.5C 178.5,99.5 177.5,99.5 176.5,99.5C 177.306,90.5773 177.806,81.5773 178,72.5C 178.763,58.5601 185.93,50.2268 199.5,47.5 Z"/></g>
<g><path style="opacity:1" fill="#a0a1d1" d="M 220.5,56.5 C 223.543,58.5433 225.876,61.2099 227.5,64.5C 226.215,76.1777 226.215,87.8444 227.5,99.5C 229.806,99.9926 232.139,100.326 234.5,100.5C 234.5,100.833 234.5,101.167 234.5,101.5C 230.988,102.055 227.988,101.388 225.5,99.5C 225.419,87.4553 225.585,75.4553 226,63.5C 225.167,62.6667 224.333,61.8333 223.5,61C 219.347,60.6156 215.347,59.6156 211.5,58C 207.5,57.3333 203.5,57.3333 199.5,58C 200.737,58.2321 201.737,58.7321 202.5,59.5C 199.255,61.1366 196.255,63.1366 193.5,65.5C 191.386,66.3602 190.22,68.0268 190,70.5C 189.689,68.444 189.189,66.444 188.5,64.5C 192.203,56.5742 198.536,52.9075 207.5,53.5C 212.092,53.4772 216.425,54.4772 220.5,56.5 Z"/></g>
<g><path style="opacity:1" fill="#babbdb" d="M 199.5,47.5 C 212.196,44.3876 223.029,47.721 232,57.5C 234.133,61.2316 235.466,65.2316 236,69.5C 236.191,79.5766 236.691,89.5766 237.5,99.5C 236.209,99.2627 235.209,99.596 234.5,100.5C 232.139,100.326 229.806,99.9926 227.5,99.5C 226.215,87.8444 226.215,76.1777 227.5,64.5C 228.222,64.9175 228.722,65.5842 229,66.5C 230.264,76.4733 231.264,86.4733 232,96.5C 232.667,85.8333 232.667,75.1667 232,64.5C 230.348,59.506 227.181,55.6726 222.5,53C 221.167,52.3333 219.833,52.3333 218.5,53C 219.305,54.1127 219.972,55.2794 220.5,56.5C 216.425,54.4772 212.092,53.4772 207.5,53.5C 198.536,52.9075 192.203,56.5742 188.5,64.5C 189.189,66.444 189.689,68.444 190,70.5C 190.22,68.0268 191.386,66.3602 193.5,65.5C 193.108,67.1789 192.608,68.8455 192,70.5C 191.5,80.1609 191.334,89.8276 191.5,99.5C 190.508,99.3284 189.842,99.6618 189.5,100.5C 187.712,100.971 185.878,101.304 184,101.5C 181.992,101.693 180.492,101.026 179.5,99.5C 179.334,90.8269 179.5,82.1603 180,73.5C 180.504,64.3076 184.671,57.4743 192.5,53C 196.806,52.4122 200.806,51.0789 204.5,49C 207.5,48.6667 210.5,48.3333 213.5,48C 208.845,47.5008 204.179,47.3342 199.5,47.5 Z"/></g>
<g><path style="opacity:1" fill="#f1f3f9" d="M 227.5,64.5 C 225.876,61.2099 223.543,58.5433 220.5,56.5C 219.972,55.2794 219.305,54.1127 218.5,53C 219.833,52.3333 221.167,52.3333 222.5,53C 227.181,55.6726 230.348,59.506 232,64.5C 232.667,75.1667 232.667,85.8333 232,96.5C 231.264,86.4733 230.264,76.4733 229,66.5C 228.722,65.5842 228.222,64.9175 227.5,64.5 Z"/></g>
<g><path style="opacity:1" fill="#7a7bae" d="M 225.5,99.5 C 224.5,99.5 223.5,99.5 222.5,99.5C 222.879,88.4451 222.379,77.4451 221,66.5C 216.189,60.7277 210.022,58.3943 202.5,59.5C 201.737,58.7321 200.737,58.2321 199.5,58C 203.5,57.3333 207.5,57.3333 211.5,58C 215.347,59.6156 219.347,60.6156 223.5,61C 224.333,61.8333 225.167,62.6667 226,63.5C 225.585,75.4553 225.419,87.4553 225.5,99.5 Z"/></g>
<g><path style="opacity:0.765" fill="#655ec4" d="M 175.5,99.5 C 175.375,105.203 175.708,110.87 176.5,116.5C 175.833,115.833 175.167,115.167 174.5,114.5C 174.002,111.533 173.669,108.533 173.5,105.5C 173.539,103.048 174.206,101.048 175.5,99.5 Z"/></g>
<g><path style="opacity:1" fill="#524de9" d="M 222.5,99.5 C 223.5,99.5 224.5,99.5 225.5,99.5C 227.988,101.388 230.988,102.055 234.5,101.5C 235.15,101.196 235.817,100.863 236.5,100.5C 237.66,102.146 238.327,103.979 238.5,106C 237.317,111.779 236.65,117.613 236.5,123.5C 236.187,138.14 228.854,146.474 214.5,148.5C 206.772,148.811 199.105,148.311 191.5,147C 188.039,145.695 185.372,143.529 183.5,140.5C 184.583,140.539 185.583,140.873 186.5,141.5C 187.696,141.154 187.696,140.654 186.5,140C 190.768,139.283 191.434,140.45 188.5,143.5C 197.307,146.976 206.307,147.476 215.5,145C 219.259,140.956 223.926,139.456 229.5,140.5C 230.071,137.523 231.071,134.69 232.5,132C 231.833,131.333 231.167,130.667 230.5,130C 231.515,127.735 232.682,125.901 234,124.5C 234.99,120.556 234.49,116.889 232.5,113.5C 235.094,111.239 235.094,109.072 232.5,107C 232.833,106.667 233.167,106.333 233.5,106C 230.949,105.977 228.449,106.477 226,107.5C 225.311,106.643 224.478,105.977 223.5,105.5C 222.253,107.006 222.253,108.506 223.5,110C 221.729,112.113 220.229,111.947 219,109.5C 218.667,112.167 218.333,114.833 218,117.5C 217.578,119.426 216.411,120.426 214.5,120.5C 215.812,117.119 216.812,113.619 217.5,110C 217.167,109.5 216.833,109 216.5,108.5C 213.916,109.393 211.249,109.726 208.5,109.5C 207.021,115.286 205.687,121.286 204.5,127.5C 205.783,130.558 204.783,131.225 201.5,129.5C 199.672,131.807 198.006,131.474 196.5,128.5C 196.311,125.322 195.978,121.988 195.5,118.5C 196.74,121.024 197.907,123.691 199,126.5C 200.11,128.037 201.61,128.703 203.5,128.5C 203.43,123.395 204.096,118.395 205.5,113.5C 205.489,111.955 205.156,110.622 204.5,109.5C 206.631,108.686 208.964,108.186 211.5,108C 212.942,107.623 213.942,106.79 214.5,105.5C 216.515,104.475 217.848,102.808 218.5,100.5C 219.736,99.7542 221.07,99.4208 222.5,99.5 Z"/></g>
<g><path style="opacity:1" fill="#7d78eb" d="M 189.5,100.5 C 189.842,99.6618 190.508,99.3284 191.5,99.5C 192.833,99.5 194.167,99.5 195.5,99.5C 196.441,104.262 199.441,106.762 204.5,107C 207.962,107.46 211.296,106.96 214.5,105.5C 213.942,106.79 212.942,107.623 211.5,108C 208.964,108.186 206.631,108.686 204.5,109.5C 205.156,110.622 205.489,111.955 205.5,113.5C 204.096,118.395 203.43,123.395 203.5,128.5C 201.61,128.703 200.11,128.037 199,126.5C 197.907,123.691 196.74,121.024 195.5,118.5C 194.963,112.484 194.297,106.484 193.5,100.5C 192.167,100.5 190.833,100.5 189.5,100.5 Z"/></g>
<g><path style="opacity:1" fill="#4945ec" d="M 175.5,99.5 C 175.833,99.5 176.167,99.5 176.5,99.5C 177.5,99.5 178.5,99.5 179.5,99.5C 180.492,101.026 181.992,101.693 184,101.5C 185.878,101.304 187.712,100.971 189.5,100.5C 190.833,100.5 192.167,100.5 193.5,100.5C 194.297,106.484 194.963,112.484 195.5,118.5C 195.978,121.988 196.311,125.322 196.5,128.5C 198.006,131.474 199.672,131.807 201.5,129.5C 204.783,131.225 205.783,130.558 204.5,127.5C 205.687,121.286 207.021,115.286 208.5,109.5C 208.032,113.131 208.699,116.465 210.5,119.5C 211.689,120.429 213.022,120.762 214.5,120.5C 216.411,120.426 217.578,119.426 218,117.5C 218.333,114.833 218.667,112.167 219,109.5C 220.229,111.947 221.729,112.113 223.5,110C 222.253,108.506 222.253,107.006 223.5,105.5C 224.478,105.977 225.311,106.643 226,107.5C 228.449,106.477 230.949,105.977 233.5,106C 233.167,106.333 232.833,106.667 232.5,107C 235.094,109.072 235.094,111.239 232.5,113.5C 234.49,116.889 234.99,120.556 234,124.5C 232.682,125.901 231.515,127.735 230.5,130C 231.167,130.667 231.833,131.333 232.5,132C 231.071,134.69 230.071,137.523 229.5,140.5C 223.926,139.456 219.259,140.956 215.5,145C 206.307,147.476 197.307,146.976 188.5,143.5C 191.434,140.45 190.768,139.283 186.5,140C 187.696,140.654 187.696,141.154 186.5,141.5C 185.583,140.873 184.583,140.539 183.5,140.5C 180.676,138.2 178.843,135.2 178,131.5C 177.088,126.536 176.588,121.536 176.5,116.5C 175.708,110.87 175.375,105.203 175.5,99.5 Z"/></g>
<g><path style="opacity:1" fill="#6b69ec" d="M 214.5,120.5 C 213.022,120.762 211.689,120.429 210.5,119.5C 208.699,116.465 208.032,113.131 208.5,109.5C 211.249,109.726 213.916,109.393 216.5,108.5C 216.833,109 217.167,109.5 217.5,110C 216.812,113.619 215.812,117.119 214.5,120.5 Z"/></g>
<g><path style="opacity:1" fill="#aeadfc" d="M 204.5,109.5 C 204.699,112.941 204.199,116.274 203,119.5C 201.989,120.337 200.822,120.67 199.5,120.5C 199.392,118.217 198.559,116.217 197,114.5C 196.333,112.5 196.333,110.5 197,108.5C 199.381,109.435 201.881,109.768 204.5,109.5 Z"/></g>
<g><path style="opacity:0.624" fill="#8580e5" d="M 237.5,99.5 C 238.5,99.5 239.5,99.5 240.5,99.5C 240.167,104.833 239.833,110.167 239.5,115.5C 238.883,115.611 238.383,115.944 238,116.5C 237.814,119.036 237.314,121.369 236.5,123.5C 236.65,117.613 237.317,111.779 238.5,106C 238.327,103.979 237.66,102.146 236.5,100.5C 235.817,100.863 235.15,101.196 234.5,101.5C 234.5,101.167 234.5,100.833 234.5,100.5C 235.209,99.596 236.209,99.2627 237.5,99.5 Z"/></g>
<g><path style="opacity:1" fill="#d7d5e3" d="M 174.5,115.5 C 172.393,116.468 170.059,116.802 167.5,116.5C 166.294,145.268 179.96,156.768 208.5,151C 210.518,150.495 212.518,149.995 214.5,149.5C 214.38,150.586 213.713,151.253 212.5,151.5C 209.525,152.139 206.525,152.639 203.5,153C 201.779,154.527 199.779,155.527 197.5,156C 198.471,157.204 199.471,157.704 200.5,157.5C 199.5,158.167 198.5,158.833 197.5,159.5C 200.107,160.318 202.774,160.818 205.5,161C 189.17,161.5 172.837,161.667 156.5,161.5C 154.533,161.261 152.699,161.594 151,162.5C 150.506,160.866 150.34,159.199 150.5,157.5C 148.396,157.799 146.396,157.466 144.5,156.5C 142.595,152.753 141.929,148.919 142.5,145C 141.913,141.614 141.246,138.28 140.5,135C 142.599,130.414 143.932,125.581 144.5,120.5C 147.855,119.558 148.188,118.225 145.5,116.5C 155.148,115.755 164.815,115.422 174.5,115.5 Z"/></g>
<g><path style="opacity:1" fill="#abacd4" d="M 332.5,117.5 C 332.5,116.5 332.5,115.5 332.5,114.5C 329.924,115.107 327.591,116.274 325.5,118C 323.963,119.11 323.297,120.61 323.5,122.5C 322.127,122.657 320.793,122.49 319.5,122C 318.359,121.259 318.359,120.425 319.5,119.5C 317.234,118.686 314.9,118.186 312.5,118C 310.667,116.167 308.833,114.333 307,112.5C 306.126,109.621 306.46,106.955 308,104.5C 308.253,107.79 309.253,110.79 311,113.5C 310.527,110.028 311.027,106.695 312.5,103.5C 311.502,109.129 313.502,113.129 318.5,115.5C 324.297,110.937 324.964,105.604 320.5,99.5C 321.773,98.9232 321.773,98.2565 320.5,97.5C 318.56,96.9049 316.56,96.5716 314.5,96.5C 311.259,96.4481 308.259,97.1148 305.5,98.5C 305.5,99.8333 305.5,101.167 305.5,102.5C 304.5,102.5 303.5,102.5 302.5,102.5C 302.5,104.167 302.5,105.833 302.5,107.5C 300.559,105.989 300.059,103.989 301,101.5C 302.833,100.333 304.333,98.8333 305.5,97C 304.14,95.0624 304.473,93.3957 306.5,92C 309.651,92.0123 312.318,91.0123 314.5,89C 319.085,87.4823 322.585,88.649 325,92.5C 327.54,91.1235 329.54,91.7902 331,94.5C 330.684,98.1371 332.018,100.804 335,102.5C 334.276,107.517 333.442,112.517 332.5,117.5 Z M 320.5,99.5 C 324.964,105.604 324.297,110.937 318.5,115.5C 313.502,113.129 311.502,109.129 312.5,103.5C 313.596,101.897 314.93,100.397 316.5,99C 317.819,98.805 319.153,98.9717 320.5,99.5 Z"/></g>
<g><path style="opacity:0.997" fill="#f1eef4" d="M 239.5,115.5 C 256.24,115.044 272.907,115.877 289.5,118C 291.049,119.214 292.215,120.714 293,122.5C 294.644,154.439 294.978,186.439 294,218.5C 293.685,224.384 292.851,230.051 291.5,235.5C 290.426,234.115 289.093,232.949 287.5,232C 288.578,231.326 289.245,230.326 289.5,229C 289.235,224.346 288.735,219.513 288,214.5C 287.044,213.421 286.211,212.255 285.5,211C 282.854,210.503 280.187,210.336 277.5,210.5C 277.5,209.167 277.5,207.833 277.5,206.5C 275.5,206.5 273.5,206.5 271.5,206.5C 271.5,210.5 271.5,214.5 271.5,218.5C 267.818,218.335 264.152,218.501 260.5,219C 260.167,219.333 259.833,219.667 259.5,220C 260.308,220.308 260.975,220.808 261.5,221.5C 259.955,222.452 258.288,222.785 256.5,222.5C 256.33,221.178 256.663,220.011 257.5,219C 256.906,218.536 256.239,218.369 255.5,218.5C 255.5,217.833 255.5,217.167 255.5,216.5C 258.127,216.21 259.794,214.876 260.5,212.5C 260.666,207.821 260.499,203.155 260,198.5C 259.292,197.619 258.458,196.953 257.5,196.5C 256.833,196.5 256.167,196.5 255.5,196.5C 227.672,195.502 199.672,195.169 171.5,195.5C 171.611,194.883 171.944,194.383 172.5,194C 176.833,193.667 181.167,193.333 185.5,193C 186.67,191.245 188.337,190.245 190.5,190C 185.502,189.572 185.335,188.739 190,187.5C 204.941,187.535 220.274,187.868 236,188.5C 240.443,187.745 244.943,187.078 249.5,186.5C 251.786,185.421 253.786,184.087 255.5,182.5C 256.167,182.5 256.5,182.167 256.5,181.5C 258.017,181.489 259.184,180.823 260,179.5C 260.667,174.833 260.667,170.167 260,165.5C 259.167,164.667 258.333,163.833 257.5,163C 223.835,162.5 190.168,162.333 156.5,162.5C 156.5,162.167 156.5,161.833 156.5,161.5C 172.837,161.667 189.17,161.5 205.5,161C 202.774,160.818 200.107,160.318 197.5,159.5C 198.5,158.833 199.5,158.167 200.5,157.5C 199.471,157.704 198.471,157.204 197.5,156C 199.779,155.527 201.779,154.527 203.5,153C 206.525,152.639 209.525,152.139 212.5,151.5C 213.713,151.253 214.38,150.586 214.5,149.5C 214.5,149.167 214.5,148.833 214.5,148.5C 228.854,146.474 236.187,138.14 236.5,123.5C 237.314,121.369 237.814,119.036 238,116.5C 238.383,115.944 238.883,115.611 239.5,115.5 Z"/></g>
<g><path style="opacity:1" fill="#a5a3c8" d="M 174.5,114.5 C 175.167,115.167 175.833,115.833 176.5,116.5C 176.588,121.536 177.088,126.536 178,131.5C 178.843,135.2 180.676,138.2 183.5,140.5C 185.372,143.529 188.039,145.695 191.5,147C 199.105,148.311 206.772,148.811 214.5,148.5C 214.5,148.833 214.5,149.167 214.5,149.5C 212.518,149.995 210.518,150.495 208.5,151C 179.96,156.768 166.294,145.268 167.5,116.5C 170.059,116.802 172.393,116.468 174.5,115.5C 174.5,115.167 174.5,114.833 174.5,114.5 Z"/></g>
<g><path style="opacity:1" fill="#8a8ab7" d="M 320.5,99.5 C 319.153,98.9717 317.819,98.805 316.5,99C 314.93,100.397 313.596,101.897 312.5,103.5C 311.027,106.695 310.527,110.028 311,113.5C 309.253,110.79 308.253,107.79 308,104.5C 306.46,106.955 306.126,109.621 307,112.5C 308.833,114.333 310.667,116.167 312.5,118C 314.9,118.186 317.234,118.686 319.5,119.5C 318.359,120.425 318.359,121.259 319.5,122C 320.793,122.49 322.127,122.657 323.5,122.5C 323.297,120.61 323.963,119.11 325.5,118C 327.591,116.274 329.924,115.107 332.5,114.5C 332.5,115.5 332.5,116.5 332.5,117.5C 330.432,118.375 328.432,119.541 326.5,121C 327.641,121.741 327.641,122.575 326.5,123.5C 320.851,123.377 315.184,123.544 309.5,124C 308.671,122.184 307.837,120.351 307,118.5C 305.004,118.004 303.337,117.004 302,115.5C 301.825,112.843 301.992,110.176 302.5,107.5C 302.5,105.833 302.5,104.167 302.5,102.5C 303.5,102.5 304.5,102.5 305.5,102.5C 305.5,101.167 305.5,99.8333 305.5,98.5C 308.259,97.1148 311.259,96.4481 314.5,96.5C 316.56,96.5716 318.56,96.9049 320.5,97.5C 321.773,98.2565 321.773,98.9232 320.5,99.5 Z"/></g>
<g><path style="opacity:1" fill="#f0edf1" d="M 99.5,117.5 C 98.5,117.5 97.5,117.5 96.5,117.5C 96.7128,120.451 96.0461,123.118 94.5,125.5C 93.0665,126.833 91.7332,128.333 90.5,130C 87.1752,129.775 84.8419,131.108 83.5,134C 78.7801,134.66 74.4468,133.827 70.5,131.5C 70.7148,129.821 70.0481,128.821 68.5,128.5C 67.0039,122.847 65.0039,117.347 62.5,112C 63.1258,111.25 63.6258,110.416 64,109.5C 71.5938,105.287 79.4272,101.454 87.5,98C 89.1124,97.2797 90.6124,97.4464 92,98.5C 93.446,105.318 95.946,111.651 99.5,117.5 Z"/></g>
<g><path style="opacity:1" fill="#f0dea9" d="M 84.5,111.5 C 86.1667,111.5 87.8333,111.5 89.5,111.5C 90.2186,114.073 91.2186,116.573 92.5,119C 89.4575,121.875 85.7908,123.208 81.5,123C 79.1667,124.167 76.8333,125.333 74.5,126.5C 73.5742,123.956 72.5742,121.456 71.5,119C 75.7492,116.228 80.0825,113.728 84.5,111.5 Z"/></g>
<g><path style="opacity:1" fill="#726cd2" d="M 85.5,104.5 C 87.337,104.639 87.6704,105.306 86.5,106.5C 81.1667,109.167 75.8333,111.833 70.5,114.5C 70.1667,114.167 69.8333,113.833 69.5,113.5C 74.8287,110.502 80.162,107.502 85.5,104.5 Z"/></g>
<g><path style="opacity:1" fill="#e5e2e9" d="M 145.5,116.5 C 148.188,118.225 147.855,119.558 144.5,120.5C 143.932,125.581 142.599,130.414 140.5,135C 141.246,138.28 141.913,141.614 142.5,145C 141.929,148.919 142.595,152.753 144.5,156.5C 146.396,157.466 148.396,157.799 150.5,157.5C 150.34,159.199 150.506,160.866 151,162.5C 152.699,161.594 154.533,161.261 156.5,161.5C 156.5,161.833 156.5,162.167 156.5,162.5C 154.901,162.232 153.568,162.566 152.5,163.5C 150.983,163.511 149.816,164.177 149,165.5C 148.333,169.833 148.333,174.167 149,178.5C 150.167,179.667 151.333,180.833 152.5,182C 186.832,182.5 221.165,182.667 255.5,182.5C 253.786,184.087 251.786,185.421 249.5,186.5C 244.943,187.078 240.443,187.745 236,188.5C 220.274,187.868 204.941,187.535 190,187.5C 185.335,188.739 185.502,189.572 190.5,190C 188.337,190.245 186.67,191.245 185.5,193C 181.167,193.333 176.833,193.667 172.5,194C 171.944,194.383 171.611,194.883 171.5,195.5C 164.825,195.334 158.158,195.5 151.5,196C 150.944,196.383 150.611,196.883 150.5,197.5C 149.21,198.058 148.377,199.058 148,200.5C 147.568,205.846 147.734,211.18 148.5,216.5C 184.167,216.5 219.833,216.5 255.5,216.5C 255.5,217.167 255.5,217.833 255.5,218.5C 228.325,221.961 201.492,222.294 175,219.5C 165.686,221.5 156.186,222 146.5,221C 145.695,219.028 144.361,217.528 142.5,216.5C 142.6,214.007 142.933,211.507 143.5,209C 142.692,208.692 142.025,208.192 141.5,207.5C 142.438,203.272 144.604,199.939 148,197.5C 148.667,195.833 148.667,194.167 148,192.5C 147.667,192.833 147.333,193.167 147,193.5C 146.71,191.956 146.044,190.623 145,189.5C 144.097,190.701 142.931,191.535 141.5,192C 137.944,192.222 134.611,193.056 131.5,194.5C 131.414,193.504 131.748,192.671 132.5,192C 134.833,191.667 137.167,191.333 139.5,191C 141.605,188.979 143.605,186.979 145.5,185C 144.978,184.05 144.311,183.216 143.5,182.5C 138.869,181.338 134.202,181.172 129.5,182C 125.535,183.066 121.535,183.899 117.5,184.5C 116.833,184.167 116.167,183.833 115.5,183.5C 117.304,164.064 118.137,144.398 118,124.5C 118.896,121.86 120.396,119.693 122.5,118C 130.119,116.795 137.786,116.295 145.5,116.5 Z"/></g>
<g><path style="opacity:0.922" fill="#b6b8d4" d="M 347.5,139.5 C 347.671,136.203 347.005,135.869 345.5,138.5C 345.167,138.167 344.833,137.833 344.5,137.5C 346.483,133.605 347.149,129.605 346.5,125.5C 345.24,124.618 344.074,123.618 343,122.5C 341.951,124.107 340.451,124.773 338.5,124.5C 338.5,125.5 338.5,126.5 338.5,127.5C 339.791,127.263 340.791,127.596 341.5,128.5C 338.941,131.243 338.941,133.91 341.5,136.5C 340.811,137.774 339.977,137.774 339,136.5C 338.506,134.866 338.34,133.199 338.5,131.5C 337.022,131.762 335.689,131.429 334.5,130.5C 336.104,128.821 336.771,126.821 336.5,124.5C 335.167,124.5 333.833,124.5 332.5,124.5C 336.868,120.115 341.868,119.448 347.5,122.5C 348.616,125.124 349.616,127.79 350.5,130.5C 349.602,132.734 349.602,134.901 350.5,137C 350.252,138.749 349.252,139.582 347.5,139.5 Z M 341.5,128.5 C 342.714,131.129 342.714,133.796 341.5,136.5C 338.941,133.91 338.941,131.243 341.5,128.5 Z"/></g>
<g><path style="opacity:1" fill="#f3cd58" d="M 99.5,117.5 C 102.901,124.878 106.234,132.378 109.5,140C 104.557,143.637 99.2234,146.471 93.5,148.5C 96.0727,145.534 99.406,143.534 103.5,142.5C 104.386,141.675 104.719,140.675 104.5,139.5C 102.202,138.69 99.8684,137.856 97.5,137C 98.8333,136.667 100.167,136.333 101.5,136C 101.043,135.586 100.709,135.086 100.5,134.5C 101.737,133.719 102.737,132.719 103.5,131.5C 102.152,127.774 100.652,124.108 99,120.5C 97.9509,122.618 96.4509,124.284 94.5,125.5C 96.0461,123.118 96.7128,120.451 96.5,117.5C 97.5,117.5 98.5,117.5 99.5,117.5 Z"/></g>
<g><path style="opacity:1" fill="#9b9cc1" d="M 347.5,139.5 C 347.249,141.17 346.582,142.67 345.5,144C 342.167,144.667 338.833,144.667 335.5,144C 330.754,138.026 329.754,131.526 332.5,124.5C 333.833,124.5 335.167,124.5 336.5,124.5C 336.771,126.821 336.104,128.821 334.5,130.5C 335.689,131.429 337.022,131.762 338.5,131.5C 338.34,133.199 338.506,134.866 339,136.5C 339.977,137.774 340.811,137.774 341.5,136.5C 342.714,133.796 342.714,131.129 341.5,128.5C 340.791,127.596 339.791,127.263 338.5,127.5C 338.5,126.5 338.5,125.5 338.5,124.5C 340.451,124.773 341.951,124.107 343,122.5C 344.074,123.618 345.24,124.618 346.5,125.5C 347.149,129.605 346.483,133.605 344.5,137.5C 344.833,137.833 345.167,138.167 345.5,138.5C 347.005,135.869 347.671,136.203 347.5,139.5 Z M 341.5,128.5 C 342.714,131.129 342.714,133.796 341.5,136.5C 338.941,133.91 338.941,131.243 341.5,128.5 Z"/></g>
<g><path style="opacity:1" fill="#e4b74c" d="M 68.5,128.5 C 70.0481,128.821 70.7148,129.821 70.5,131.5C 69.8761,131.917 69.5427,132.584 69.5,133.5C 70.3017,137.79 72.135,141.456 75,144.5C 75.147,148.498 76.9804,151.165 80.5,152.5C 84.111,151.296 87.7777,150.296 91.5,149.5C 86.5451,152.6 81.2117,154.933 75.5,156.5C 73.0032,149.186 70.5032,141.853 68,134.5C 67.2109,132.288 67.3775,130.288 68.5,128.5 Z"/></g>
<g><path style="opacity:1" fill="#f5c018" d="M 93.5,148.5 C 93.1583,149.338 92.4916,149.672 91.5,149.5C 87.7777,150.296 84.111,151.296 80.5,152.5C 76.9804,151.165 75.147,148.498 75,144.5C 72.135,141.456 70.3017,137.79 69.5,133.5C 69.5427,132.584 69.8761,131.917 70.5,131.5C 74.4468,133.827 78.7801,134.66 83.5,134C 84.8419,131.108 87.1752,129.775 90.5,130C 91.7332,128.333 93.0665,126.833 94.5,125.5C 96.4509,124.284 97.9509,122.618 99,120.5C 100.652,124.108 102.152,127.774 103.5,131.5C 102.737,132.719 101.737,133.719 100.5,134.5C 100.709,135.086 101.043,135.586 101.5,136C 100.167,136.333 98.8333,136.667 97.5,137C 99.8684,137.856 102.202,138.69 104.5,139.5C 104.719,140.675 104.386,141.675 103.5,142.5C 99.406,143.534 96.0727,145.534 93.5,148.5 Z"/></g>
<g><path style="opacity:1" fill="#e6dfe9" d="M 154.5,165.5 C 188.168,165.333 221.835,165.5 255.5,166C 257.362,169.149 258.029,172.649 257.5,176.5C 257.672,177.492 257.338,178.158 256.5,178.5C 222.167,178.5 187.833,178.5 153.5,178.5C 153.5,174.5 153.5,170.5 153.5,166.5C 153.5,165.833 153.833,165.5 154.5,165.5 Z"/></g>
<g><path style="opacity:1" fill="#acaccc" d="M 115.5,183.5 C 116.167,183.833 116.833,184.167 117.5,184.5C 113.618,185.063 109.618,185.396 105.5,185.5C 103,183.167 100.5,180.833 98,178.5C 95.8683,179.78 93.7016,179.78 91.5,178.5C 89.4648,179.041 87.4648,179.708 85.5,180.5C 84.4195,183.332 83.4195,186.165 82.5,189C 80.5048,189.613 78.8381,189.113 77.5,187.5C 77.7373,186.209 77.404,185.209 76.5,184.5C 76.2317,181.881 76.565,179.381 77.5,177C 82.0555,175.891 86.7222,175.391 91.5,175.5C 95.5,175.667 99.5,175.833 103.5,176C 104.24,177.785 104.907,179.618 105.5,181.5C 108.788,182.445 112.121,183.112 115.5,183.5 Z"/></g>
<g><path style="opacity:1" fill="#f5e1b2" d="M 153.5,166.5 C 153.5,170.5 153.5,174.5 153.5,178.5C 187.833,178.5 222.167,178.5 256.5,178.5C 222.337,179.498 188.004,179.832 153.5,179.5C 152.517,175.702 152.183,171.702 152.5,167.5C 152.5,166.833 152.833,166.5 153.5,166.5 Z"/></g>
<g><path style="opacity:1" fill="#edbb38" d="M 156.5,162.5 C 190.168,162.333 223.835,162.5 257.5,163C 258.333,163.833 259.167,164.667 260,165.5C 260.667,170.167 260.667,174.833 260,179.5C 259.184,180.823 258.017,181.489 256.5,181.5C 221.817,182.16 187.484,181.493 153.5,179.5C 188.004,179.832 222.337,179.498 256.5,178.5C 257.338,178.158 257.672,177.492 257.5,176.5C 258.161,174.866 258.494,173.033 258.5,171C 258.4,168.698 257.733,166.698 256.5,165C 222.331,164.169 188.331,164.336 154.5,165.5C 153.833,165.5 153.5,165.833 153.5,166.5C 152.833,166.5 152.5,166.833 152.5,167.5C 151.679,170.641 151.179,173.975 151,177.5C 149.966,172.543 150.466,167.876 152.5,163.5C 153.568,162.566 154.901,162.232 156.5,162.5 Z"/></g>
<g><path style="opacity:1" fill="#534bdf" d="M 158.5,170.5 C 188.835,170.333 219.168,170.5 249.5,171C 250.833,172.333 250.833,173.667 249.5,175C 219.168,175.5 188.835,175.667 158.5,175.5C 158.5,173.833 158.5,172.167 158.5,170.5 Z"/></g>
<g><path style="opacity:1" fill="#cf9a31" d="M 154.5,165.5 C 188.331,164.336 222.331,164.169 256.5,165C 257.733,166.698 258.4,168.698 258.5,171C 258.494,173.033 258.161,174.866 257.5,176.5C 258.029,172.649 257.362,169.149 255.5,166C 221.835,165.5 188.168,165.333 154.5,165.5 Z"/></g>
<g><path style="opacity:1" fill="#9a9bc5" d="M 117.5,184.5 C 121.535,183.899 125.535,183.066 129.5,182C 134.202,181.172 138.869,181.338 143.5,182.5C 144.311,183.216 144.978,184.05 145.5,185C 143.605,186.979 141.605,188.979 139.5,191C 137.167,191.333 134.833,191.667 132.5,192C 131.748,192.671 131.414,193.504 131.5,194.5C 129.738,194.643 128.071,194.309 126.5,193.5C 125.614,194.325 125.281,195.325 125.5,196.5C 123.533,196.739 121.699,196.406 120,195.5C 119.691,196.766 119.191,197.933 118.5,199C 116.618,199.198 114.952,199.698 113.5,200.5C 111.485,201.924 109.152,202.59 106.5,202.5C 106.585,205.747 105.585,208.581 103.5,211C 98.1667,212.667 92.8333,214.333 87.5,216C 84.9615,216.796 82.6282,216.629 80.5,215.5C 81.9778,215.762 83.3112,215.429 84.5,214.5C 83.0084,207.906 81.8417,201.24 81,194.5C 79.2736,192.409 78.1069,190.076 77.5,187.5C 78.8381,189.113 80.5048,189.613 82.5,189C 83.4195,186.165 84.4195,183.332 85.5,180.5C 87.4648,179.708 89.4648,179.041 91.5,178.5C 93.7016,179.78 95.8683,179.78 98,178.5C 100.5,180.833 103,183.167 105.5,185.5C 109.618,185.396 113.618,185.063 117.5,184.5 Z"/></g>
<g><path style="opacity:1" fill="#dbab3e" d="M 152.5,163.5 C 150.466,167.876 149.966,172.543 151,177.5C 151.179,173.975 151.679,170.641 152.5,167.5C 152.183,171.702 152.517,175.702 153.5,179.5C 187.484,181.493 221.817,182.16 256.5,181.5C 256.5,182.167 256.167,182.5 255.5,182.5C 221.165,182.667 186.832,182.5 152.5,182C 151.333,180.833 150.167,179.667 149,178.5C 148.333,174.167 148.333,169.833 149,165.5C 149.816,164.177 150.983,163.511 152.5,163.5 Z"/></g>
<g><path style="opacity:1" fill="#e9e8f0" d="M 255.5,218.5 C 256.239,218.369 256.906,218.536 257.5,219C 256.663,220.011 256.33,221.178 256.5,222.5C 258.288,222.785 259.955,222.452 261.5,221.5C 260.975,220.808 260.308,220.308 259.5,220C 259.833,219.667 260.167,219.333 260.5,219C 264.152,218.501 267.818,218.335 271.5,218.5C 271.5,214.5 271.5,210.5 271.5,206.5C 273.5,206.5 275.5,206.5 277.5,206.5C 277.5,207.833 277.5,209.167 277.5,210.5C 280.187,210.336 282.854,210.503 285.5,211C 286.211,212.255 287.044,213.421 288,214.5C 288.735,219.513 289.235,224.346 289.5,229C 289.245,230.326 288.578,231.326 287.5,232C 289.093,232.949 290.426,234.115 291.5,235.5C 290.317,236.504 288.984,237.338 287.5,238C 233.166,239.994 178.833,239.994 124.5,238C 121.127,236.694 119.294,234.194 119,230.5C 117.835,220.533 117.335,210.533 117.5,200.5C 116.167,200.5 114.833,200.5 113.5,200.5C 114.952,199.698 116.618,199.198 118.5,199C 119.191,197.933 119.691,196.766 120,195.5C 121.699,196.406 123.533,196.739 125.5,196.5C 125.281,195.325 125.614,194.325 126.5,193.5C 128.071,194.309 129.738,194.643 131.5,194.5C 134.611,193.056 137.944,192.222 141.5,192C 142.931,191.535 144.097,190.701 145,189.5C 146.044,190.623 146.71,191.956 147,193.5C 147.333,193.167 147.667,192.833 148,192.5C 148.667,194.167 148.667,195.833 148,197.5C 144.604,199.939 142.438,203.272 141.5,207.5C 142.025,208.192 142.692,208.692 143.5,209C 142.933,211.507 142.6,214.007 142.5,216.5C 144.361,217.528 145.695,219.028 146.5,221C 156.186,222 165.686,221.5 175,219.5C 201.492,222.294 228.325,221.961 255.5,218.5 Z"/></g>
<g><path style="opacity:1" fill="#f2cc61" d="M 171.5,195.5 C 199.672,195.169 227.672,195.502 255.5,196.5C 220.457,196.18 185.457,196.513 150.5,197.5C 150.611,196.883 150.944,196.383 151.5,196C 158.158,195.5 164.825,195.334 171.5,195.5 Z"/></g>
<g><path style="opacity:1" fill="#e2aa28" d="M 255.5,196.5 C 256.167,196.5 256.833,196.5 257.5,196.5C 258.751,201.631 258.751,206.631 257.5,211.5C 257.665,207.818 257.499,204.152 257,200.5C 256.5,200 256,199.5 255.5,199C 221.331,198.169 187.331,198.336 153.5,199.5C 152.833,199.5 152.5,199.833 152.5,200.5C 151.515,204.634 151.182,208.968 151.5,213.5C 150.883,213.389 150.383,213.056 150,212.5C 149.274,207.448 149.441,202.448 150.5,197.5C 185.457,196.513 220.457,196.18 255.5,196.5 Z"/></g>
<g><path style="opacity:0.999" fill="#6e7098" d="M 76.5,184.5 C 77.404,185.209 77.7373,186.209 77.5,187.5C 78.1069,190.076 79.2736,192.409 81,194.5C 81.8417,201.24 83.0084,207.906 84.5,214.5C 83.3112,215.429 81.9778,215.762 80.5,215.5C 78.5905,214.025 77.4238,212.025 77,209.5C 75.453,201.127 75.2864,192.794 76.5,184.5 Z"/></g>
<g><path style="opacity:1" fill="#f0e0c9" d="M 257.5,211.5 C 222.543,212.487 187.543,212.82 152.5,212.5C 152.5,208.5 152.5,204.5 152.5,200.5C 152.5,199.833 152.833,199.5 153.5,199.5C 187.331,198.336 221.331,198.169 255.5,199C 256,199.5 256.5,200 257,200.5C 257.499,204.152 257.665,207.818 257.5,211.5 Z"/></g>
<g><path style="opacity:1" fill="#dedcf2" d="M 153.5,199.5 C 186.835,199.333 220.168,199.5 253.5,200C 253.279,201.799 252.946,203.632 252.5,205.5C 256.5,206.833 256.5,208.167 252.5,209.5C 234.846,210.5 217.179,210.833 199.5,210.5C 199.649,209.448 199.483,208.448 199,207.5C 197.75,208.573 196.416,208.573 195,207.5C 193.989,208.056 193.156,208.722 192.5,209.5C 180.66,210.825 168.66,210.825 156.5,209.5C 154.02,206.639 153.02,203.306 153.5,199.5 Z"/></g>
<g><path style="opacity:1" fill="#ebbd3d" d="M 257.5,196.5 C 258.458,196.953 259.292,197.619 260,198.5C 260.499,203.155 260.666,207.821 260.5,212.5C 259.118,213.801 257.452,214.634 255.5,215C 221.167,215.667 186.833,215.667 152.5,215C 151.944,214.617 151.611,214.117 151.5,213.5C 151.182,208.968 151.515,204.634 152.5,200.5C 152.5,204.5 152.5,208.5 152.5,212.5C 187.543,212.82 222.543,212.487 257.5,211.5C 258.751,206.631 258.751,201.631 257.5,196.5 Z"/></g>
<g><path style="opacity:1" fill="#8a85db" d="M 244.5,202.5 C 245.583,202.461 246.583,202.127 247.5,201.5C 248.354,202.948 249.354,204.281 250.5,205.5C 249.147,206.524 248.48,207.857 248.5,209.5C 246.5,209.5 244.5,209.5 242.5,209.5C 240.927,206.627 241.26,203.961 243.5,201.5C 244.107,201.624 244.44,201.957 244.5,202.5 Z"/></g>
<g><path style="opacity:1" fill="#6d66db" d="M 214.5,201.5 C 216.205,202.535 217.872,202.535 219.5,201.5C 220.354,202.948 221.354,204.281 222.5,205.5C 221.147,206.524 220.48,207.857 220.5,209.5C 218.833,209.5 217.167,209.5 215.5,209.5C 215.52,207.857 214.853,206.524 213.5,205.5C 214.246,204.264 214.579,202.93 214.5,201.5 Z"/></g>
<g><path style="opacity:1" fill="#635bdc" d="M 173.5,202.5 C 176.37,202.248 178.703,203.248 180.5,205.5C 179.147,206.524 178.48,207.857 178.5,209.5C 176.833,209.5 175.167,209.5 173.5,209.5C 172.454,207.118 172.454,204.785 173.5,202.5 Z"/></g>
<g><path style="opacity:1" fill="#5954e2" d="M 244.5,202.5 C 245.209,203.404 246.209,203.737 247.5,203.5C 247.5,205.167 247.5,206.833 247.5,208.5C 246.167,208.5 244.833,208.5 243.5,208.5C 243.205,206.265 243.539,204.265 244.5,202.5 Z"/></g>
<g><path style="opacity:1" fill="#645cdc" d="M 159.5,201.5 C 161.086,202.413 162.586,202.413 164,201.5C 164.44,203.076 165.273,204.41 166.5,205.5C 165.273,206.59 164.44,207.924 164,209.5C 159.519,208.244 158.019,205.578 159.5,201.5 Z"/></g>
<g><path style="opacity:1" fill="#6a62da" d="M 204.5,201.5 C 206.057,202.466 207.39,203.8 208.5,205.5C 207.147,206.524 206.48,207.857 206.5,209.5C 204.833,209.5 203.167,209.5 201.5,209.5C 201.52,207.857 200.853,206.524 199.5,205.5C 201.015,203.832 202.682,202.499 204.5,201.5 Z"/></g>
<g><path style="opacity:1" fill="#726adf" d="M 228.5,201.5 C 230.205,202.535 231.872,202.535 233.5,201.5C 234.354,202.948 235.354,204.281 236.5,205.5C 235.147,206.524 234.48,207.857 234.5,209.5C 232.833,209.5 231.167,209.5 229.5,209.5C 229.52,207.857 228.853,206.524 227.5,205.5C 228.246,204.264 228.579,202.93 228.5,201.5 Z"/></g>
<g><path style="opacity:1" fill="#6862dc" d="M 192.5,209.5 C 190.833,209.5 189.167,209.5 187.5,209.5C 187.52,207.857 186.853,206.524 185.5,205.5C 188.368,201.645 191.035,201.645 193.5,205.5C 192.754,206.736 192.421,208.07 192.5,209.5 Z"/></g>
<g><path style="opacity:1" fill="#eebe33" d="M 340.5,221.5 C 340.316,219.075 339.649,219.075 338.5,221.5C 325.711,218.094 312.877,214.761 300,211.5C 299.536,212.094 299.369,212.761 299.5,213.5C 297.086,212.594 296.253,210.928 297,208.5C 307.113,199.207 317.28,190.04 327.5,181C 329.833,180.333 332.167,180.333 334.5,181C 335.667,182.833 336.833,184.667 338,186.5C 339.439,196.969 340.606,207.469 341.5,218C 341.486,219.385 341.152,220.551 340.5,221.5 Z"/></g>
<g><path style="opacity:1" fill="#f0e5da" d="M 313.5,200.5 C 311.621,205.418 312.954,209.251 317.5,212C 320.863,212.626 324.196,212.959 327.5,213C 325.963,211.89 325.297,210.39 325.5,208.5C 326.822,208.33 327.989,208.663 329,209.5C 329.495,211.473 329.662,213.473 329.5,215.5C 320.615,214.445 311.948,212.445 303.5,209.5C 306.251,205.743 309.585,202.743 313.5,200.5 Z"/></g>
<g><path style="opacity:1" fill="#e3deed" d="M 330.5,186.5 C 331.497,196.142 332.164,205.809 332.5,215.5C 331.5,215.5 330.5,215.5 329.5,215.5C 329.662,213.473 329.495,211.473 329,209.5C 327.989,208.663 326.822,208.33 325.5,208.5C 325.297,210.39 325.963,211.89 327.5,213C 324.196,212.959 320.863,212.626 317.5,212C 312.954,209.251 311.621,205.418 313.5,200.5C 317.997,194.329 323.664,189.662 330.5,186.5 Z"/></g>
<g><path style="opacity:1" fill="#5f59e2" d="M 327.5,198.5 C 328.5,198.5 329.5,198.5 330.5,198.5C 330.607,200.903 329.607,202.736 327.5,204C 324.344,205.672 321.344,207.505 318.5,209.5C 317.558,209.392 316.725,209.059 316,208.5C 315.149,206.408 314.482,204.408 314,202.5C 314.414,202.043 314.914,201.709 315.5,201.5C 316.665,202.491 317.832,203.491 319,204.5C 322.281,203.04 325.114,201.04 327.5,198.5 Z"/></g>
<g><path style="opacity:1" fill="#d1b79a" d="M 330.5,186.5 C 332.027,194.03 333.36,201.697 334.5,209.5C 334.461,211.952 333.794,213.952 332.5,215.5C 332.164,205.809 331.497,196.142 330.5,186.5 Z"/></g>
<g><path style="opacity:1" fill="#e4caa7" d="M 150.5,197.5 C 149.441,202.448 149.274,207.448 150,212.5C 150.383,213.056 150.883,213.389 151.5,213.5C 151.611,214.117 151.944,214.617 152.5,215C 186.833,215.667 221.167,215.667 255.5,215C 257.452,214.634 259.118,213.801 260.5,212.5C 259.794,214.876 258.127,216.21 255.5,216.5C 219.833,216.5 184.167,216.5 148.5,216.5C 147.734,211.18 147.568,205.846 148,200.5C 148.377,199.058 149.21,198.058 150.5,197.5 Z"/></g>
<g><path style="opacity:1" fill="#c7842e" d="M 340.5,221.5 C 339.866,222.947 338.699,223.613 337,223.5C 325.088,221.266 313.255,218.766 301.5,216C 300.619,215.292 299.953,214.458 299.5,213.5C 299.369,212.761 299.536,212.094 300,211.5C 312.877,214.761 325.711,218.094 338.5,221.5C 339.649,219.075 340.316,219.075 340.5,221.5 Z"/></g>
</svg>
