<svg enable-background="new 0 0 520 520" height="512" viewBox="0 0 520 520" width="512" xmlns="http://www.w3.org/2000/svg"><g id="_x33_54_x2C__Wall_Paint_x2C__Paint_x2C__Roller_x2C__Tool"><g><g><path d="m109.5 165c-19.05 0-34.5-15.45-34.5-34.5v-55.5h-40v410h295c0-7.19 0-313.273 0-320-71.006 0-152.017 0-220.5 0z" fill="#ecebed"/><path d="m445 410c13.81 0 25 11.19 25 25s-11.19 25-25 25-25-11.19-25-25 11.19-25 25-25z" fill="#07cc66"/><path d="m385 280c11.051 0 20 8.95 20 20s-8.949 20-20 20c-11.039 0-20-8.95-20-20s8.961-20 20-20z" fill="#07cc66"/><path d="m220 164v62.5c0 9.67-7.83 17.5-17.5 17.5-9.66 0-17.5-7.83-17.5-17.5v-17.5c0 8.28-6.71 15-15 15-8.28 0-15-6.72-15-15v32.5c0 12.43-10.07 22.5-22.5 22.5s-22.5-10.07-22.5-22.5v-77.5h45 30z" fill="#163eb1"/><circle cx="467.5" cy="272.5" fill="#f88f19" r="7.5"/><circle cx="412.5" cy="352.5" fill="#f88f19" r="7.5"/><circle cx="372.5" cy="452.5" fill="#f88f19" r="7.5"/><path d="m240 280c-2.761 0-5-2.238-5-5v-40c0-2.761 2.239-5 5-5h211.5c12.958 0 23.5-10.542 23.5-23.5v-83c0-12.958-10.542-23.5-23.5-23.5h-21.5c-2.762 0-5-2.239-5-5s2.238-5 5-5h21.5c18.473 0 33.5 15.028 33.5 33.5v83c0 18.472-15.027 33.5-33.5 33.5h-206.5v35c0 2.762-2.239 5-5 5z" fill="#c7c5cb"/><g fill="#163eb1"><path d="m125 385c-2.761 0-5-2.238-5-5v-75c0-2.762 2.239-5 5-5s5 2.238 5 5v75c0 2.762-2.239 5-5 5z"/><path d="m145 420c-2.761 0-5-2.238-5-5v-60c0-2.762 2.239-5 5-5s5 2.238 5 5v60c0 2.762-2.239 5-5 5z"/><path d="m90 345c-2.761 0-5-2.238-5-5v-45c0-2.762 2.239-5 5-5s5 2.238 5 5v45c0 2.762-2.239 5-5 5z"/></g><path d="m200 275v140c0 22.09 17.91 40 40 40s40-17.91 40-40c0-16.542 0-123.551 0-140-9.679 0-70.257 0-80 0zm40 160c-11.04 0-20-8.95-20-20s8.96-20 20-20c11.05 0 20 8.95 20 20s-8.95 20-20 20z" fill="#57606f"/><path d="m200 305h80v20h-80z" fill="#414a56"/><path d="m430 95v35.5c0 19.05-15.449 34.5-34.5 34.5h-65.5-110-35-30-45-.5c-19.05 0-34.5-15.45-34.5-34.5v-55.5-5.5c0-19.05 15.45-34.5 34.5-34.5h286c19.051 0 34.5 15.45 34.5 34.5z" fill="#3256c1"/><path d="m370 75h-225c-2.761 0-5-2.239-5-5s2.239-5 5-5h225c2.762 0 5 2.239 5 5s-2.238 5-5 5z" fill="#5cbeff"/><path d="m400 100h-140c-2.762 0-5-2.239-5-5s2.238-5 5-5h140c2.762 0 5 2.239 5 5s-2.238 5-5 5z" fill="#5cbeff"/></g><g><path d="m109.5 165c-19.05 0-34.5-15.45-34.5-34.5v-55.5h-40v410h295c0-7.19 0-313.273 0-320-71.006 0-152.017 0-220.5 0z" fill="#ecebed"/><path d="m445 410c13.81 0 25 11.19 25 25s-11.19 25-25 25-25-11.19-25-25 11.19-25 25-25z" fill="#07cc66"/><path d="m385 280c11.051 0 20 8.95 20 20s-8.949 20-20 20c-11.039 0-20-8.95-20-20s8.961-20 20-20z" fill="#07cc66"/><path d="m220 164v62.5c0 9.67-7.83 17.5-17.5 17.5-9.66 0-17.5-7.83-17.5-17.5v-17.5c0 8.28-6.71 15-15 15-8.28 0-15-6.72-15-15v32.5c0 12.43-10.07 22.5-22.5 22.5s-22.5-10.07-22.5-22.5v-77.5h45 30z" fill="#163eb1"/><circle cx="467.5" cy="272.5" fill="#f88f19" r="7.5"/><circle cx="412.5" cy="352.5" fill="#f88f19" r="7.5"/><circle cx="372.5" cy="452.5" fill="#f88f19" r="7.5"/><path d="m240 280c-2.761 0-5-2.238-5-5v-40c0-2.761 2.239-5 5-5h211.5c12.958 0 23.5-10.542 23.5-23.5v-83c0-12.958-10.542-23.5-23.5-23.5h-21.5c-2.762 0-5-2.239-5-5s2.238-5 5-5h21.5c18.473 0 33.5 15.028 33.5 33.5v83c0 18.472-15.027 33.5-33.5 33.5h-206.5v35c0 2.762-2.239 5-5 5z" fill="#c7c5cb"/><g fill="#163eb1"><path d="m125 385c-2.761 0-5-2.238-5-5v-75c0-2.762 2.239-5 5-5s5 2.238 5 5v75c0 2.762-2.239 5-5 5z"/><path d="m145 420c-2.761 0-5-2.238-5-5v-60c0-2.762 2.239-5 5-5s5 2.238 5 5v60c0 2.762-2.239 5-5 5z"/><path d="m90 345c-2.761 0-5-2.238-5-5v-45c0-2.762 2.239-5 5-5s5 2.238 5 5v45c0 2.762-2.239 5-5 5z"/></g><path d="m200 275v140c0 22.09 17.91 40 40 40s40-17.91 40-40c0-16.542 0-123.551 0-140-9.679 0-70.257 0-80 0zm40 160c-11.04 0-20-8.95-20-20s8.96-20 20-20c11.05 0 20 8.95 20 20s-8.95 20-20 20z" fill="#57606f"/><path d="m200 305h80v20h-80z" fill="#414a56"/><path d="m430 95v35.5c0 19.05-15.449 34.5-34.5 34.5h-65.5-110-35-30-45-.5c-19.05 0-34.5-15.45-34.5-34.5v-55.5-5.5c0-19.05 15.45-34.5 34.5-34.5h286c19.051 0 34.5 15.45 34.5 34.5z" fill="#3256c1"/><path d="m370 75h-225c-2.761 0-5-2.239-5-5s2.239-5 5-5h225c2.762 0 5 2.239 5 5s-2.238 5-5 5z" fill="#5cbeff"/><path d="m400 100h-140c-2.762 0-5-2.239-5-5s2.238-5 5-5h140c2.762 0 5 2.239 5 5s-2.238 5-5 5z" fill="#5cbeff"/></g></g></g></svg>