<svg id="Layer_1" viewBox="0 0 512 512" xmlns="http://www.w3.org/2000/svg" data-name="Layer 1"><path d="m304.172 115.62v181.924h-243.004v-181.924h-41.45c-3.953 0-7.292-2.592-8.271-6.421-.981-3.829.702-7.706 4.169-9.605l156.325-85.651c6.883-3.772 14.576-3.772 21.459 0l156.325 85.65c3.466 1.899 5.149 5.776 4.169 9.605s-4.319 6.421-8.271 6.421h-41.45z" fill="#aeaed6" fill-rule="evenodd"/><path d="m285.627 297.543h-224.459v-181.923h-41.45c-3.952 0-7.291-2.592-8.271-6.421-.981-3.829.703-7.707 4.169-9.605l153.532-84.12 153.532 84.12c3.466 1.899 5.149 5.776 4.168 9.605-.98 3.829-4.319 6.421-8.271 6.421h-32.95v181.924z" fill="#d1d1f0" fill-rule="evenodd"/><path d="m92.861 159.166h60.627v105.036h-60.627z" fill="#f3f3ff"/><path d="m196.227 115.62h76.252v34.089h-76.252z" fill="#f3f3ff"/><circle cx="174.267" cy="69.97" fill="#aeaed6" r="22.553" transform="matrix(.383 -.924 .924 .383 42.935 204.195)"/><circle cx="182.67" cy="69.97" fill="#f3f3ff" r="22.067" transform="matrix(.973 -.23 .23 .973 -11.189 43.841)"/><path d="m30.58 264.202h304.18c4.867 0 8.819 3.951 8.819 8.819v15.704c0 4.867-3.951 8.818-8.818 8.818h-304.18c-4.867 0-8.818-3.951-8.818-8.818v-15.705c0-4.867 3.951-8.818 8.818-8.818z" fill="#909cd1"/><path d="m322.136 286.301v-22.099h12.625c4.85 0 8.818 3.969 8.818 8.818v15.705c0 4.85-3.968 8.818-8.818 8.818h-304.181c-4.85 0-8.818-3.968-8.818-8.818v-2.424z" fill="#7986bf" fill-rule="evenodd"/><path d="m188.272 115.62h7.955v34.089h-7.955z" fill="#aeaed6"/><path d="m80.651 159.166h12.211v105.036h-12.211z" fill="#aeaed6"/><g fill-rule="evenodd"><path d="m184.854 486.718 13.856 7.88c17.885 10.326 28.695-11.63 14.723-19.766l7.779 4.492c6.214 3.587 14.233 1.439 17.821-4.775 3.575-6.192 1.44-14.202-4.734-17.797l4.162 2.403c6.616 3.82 15.156 1.532 18.975-5.084 3.804-6.589 1.536-15.113-5.029-18.943l.013.008 4.135 2.387c6.616 3.82 15.156 1.532 18.975-5.084 1.899-3.29 2.273-7.105 1.366-10.534-1.081-2.799-2.03-5.26-6.45-8.441l-41.74-24.098c-22.088-17.723-34.04-27.915-50.54-44.673-28.668-20.605-49.302 5.027-87.229-16.304l-26.978-15.173c-24.075 19.615-37.735 44.165-29.269 84.198l48.179 24.836 12.421 13.366 89.566 51.104z" fill="#e6b17c"/><g fill="#d19458"><path d="m273.175 435.456c.902-.872 1.698-1.881 2.354-3.018 1.899-3.29 2.273-7.105 1.366-10.535-1.081-2.799-2.03-5.26-6.45-8.441l-41.74-24.098c-22.088-17.723-34.04-27.915-50.54-44.673-3.58-2.573-7.034-4.425-10.412-5.737l-36.468 22.737c-13.063 8.145-12.741 24.923-1.403 34.312 6.6 5.465 14.266 8.631 22.914 8.294 17.277-.672 30.9-15.016 46.57-15.109 8.941-.053 16.681 4.85 24.15 9.163l41.261 23.822c3.53 2.255 10.554 6.264 8.399 13.283z"/><path d="m219.421 488.326c1.232-4.737-.381-10.229-5.989-13.495l7.779 4.492.014.008-12.404-7.161c-2.071-1.196-4.741-.48-5.937 1.591-1.194 2.068-.478 4.743 1.591 5.937l14.945 8.628z"/><path d="m240.556 470.401c.957-5.259-1.399-10.821-6.257-13.649l4.162 2.403h.002s-18.945-10.936-18.945-10.936c-2.072-1.196-4.741-.481-5.937 1.591-1.194 2.069-.478 4.743 1.591 5.937l25.384 14.655z"/><path d="m259.152 449.058c.742-5.412-1.761-11.018-6.736-13.926l-17.995-10.389c-2.072-1.196-4.741-.48-5.937 1.591-1.194 2.068-.478 4.743 1.591 5.937z"/></g><path d="m92.96 439.647c-3.777 6.542-1.515 14.986 5.028 18.763 6.533 3.772 14.991 1.506 18.763-5.028l9.871-17.098c3.777-6.542 1.515-14.985-5.028-18.763-6.534-3.772-14.991-1.506-18.763 5.028z" fill="#fdd7ad"/><path d="m100.54 459.553c6.041 1.988 12.913-.462 16.21-6.17l9.872-17.099c3.301-5.717 1.989-12.886-2.76-17.124l-23.321 40.393z" fill="#f2c496"/><path d="m164.332 480.853c-3.777 6.542-1.514 14.986 5.028 18.763 6.533 3.772 14.991 1.506 18.763-5.028l9.871-17.098c3.777-6.542 1.515-14.985-5.028-18.763-6.534-3.772-14.991-1.506-18.763 5.028z" fill="#fdd7ad"/><path d="m171.912 500.76c6.041 1.989 12.914-.462 16.21-6.171l9.871-17.098c3.301-5.717 1.989-12.886-2.761-17.124l-23.321 40.393z" fill="#f2c496"/><path d="m137.208 472.89c-3.777 6.542-1.515 14.986 5.028 18.763 6.533 3.772 14.991 1.506 18.763-5.028l13.204-22.871c3.777-6.542 1.515-14.985-5.028-18.763-6.534-3.772-14.991-1.506-18.763 5.028l-13.204 22.87z" fill="#fdd7ad"/><path d="m144.789 492.796c6.041 1.989 12.914-.462 16.21-6.171l13.204-22.871c3.301-5.717 1.989-12.886-2.761-17.124l-26.653 46.165z" fill="#f2c496"/><path d="m110.619 464.002c-3.777 6.542-1.515 14.986 5.028 18.763 6.533 3.772 14.991 1.506 18.763-5.028l16.002-27.718c3.777-6.542 1.515-14.985-5.027-18.763-6.534-3.772-14.991-1.506-18.763 5.028l-16.002 27.718z" fill="#fdd7ad"/><path d="m118.199 483.908c6.03 1.985 12.889-.452 16.192-6.139l16.021-27.749c3.301-5.717 1.989-12.886-2.761-17.124l-29.452 51.013z" fill="#f2c496"/><path d="m329.828 397.412-52.933 24.49c-1.081-2.799-2.03-5.26-6.45-8.441l-41.74-24.098c-9.12-5.266-17.915-10.621-29.4-10.553-24.982.148-41.764 26.622-62.804 9.199-5.297-4.387-7.282-12.802.275-17.514l44.632-27.827c14.889-9.283 30.916-13.708 47.185-8.346 13.952 4.599 27.741 3.488 40.579-3.653l31.388-17.457c27.053 18.696 38.891 52.753 29.269 84.199z" fill="#fdd7ad"/><path d="m338.618 401.485-13.262 5.632c-1.675.711-3.442.554-4.964-.443-1.523-.997-2.374-2.553-2.393-4.373-.319-31.496-13.209-57.321-36.075-76.572-1.372-1.155-2.032-2.769-1.859-4.555.172-1.785 1.126-3.243 2.694-4.114l16.914-9.407c2.858-1.589 6.203-1.321 8.771.704 26.748 21.097 40.877 57.908 34.847 87.413-.539 2.637-2.195 4.662-4.673 5.714z" fill="#2a92fa"/><path d="m338.618 401.485-9.136 3.88c-.054-.033-.107-.066-.16-.101-1.615-1.057-2.517-2.707-2.537-4.636-.338-33.394-14.004-60.774-38.248-81.186-1.366-1.15-2.066-2.729-1.995-4.486l13.13-7.303c2.858-1.589 6.203-1.321 8.77.704 26.749 21.097 40.877 57.908 34.848 87.413-.539 2.637-2.195 4.662-4.673 5.714z" fill="#5caeff"/><path d="m26.723 401.485 13.262 5.632c1.675.711 3.442.554 4.965-.443s2.374-2.553 2.392-4.373c.319-31.496 13.209-57.321 36.075-76.572 1.372-1.155 2.031-2.769 1.859-4.555-.172-1.785-1.127-3.243-2.694-4.114l-16.913-9.407c-2.858-1.589-6.203-1.321-8.771.704-26.748 21.097-40.877 57.908-34.847 87.413.539 2.637 2.195 4.662 4.673 5.714z" fill="#29b933"/><path d="m26.723 401.485 9.136 3.88c.054-.033.107-.066.16-.101 1.614-1.057 2.517-2.707 2.537-4.636.338-33.394 14.004-60.774 38.248-81.186 1.366-1.15 2.066-2.729 1.994-4.486l-13.13-7.303c-2.858-1.589-6.203-1.321-8.771.704-26.748 21.097-40.877 57.908-34.847 87.413.539 2.637 2.195 4.662 4.673 5.714z" fill="#2dd62d"/><path d="m225.85 179.305 251.511-44.697 10.791 60.723h-259.454z" fill="#009914"/><path d="m225.85 179.305 263.884-23.809 3.594 39.835h-266.032z" fill="#29b933"/></g><path d="m225.85 179.305h275.167v136.525h-275.167z" fill="#2dd62d"/><path d="m469.892 193.598c-1.407 10.222 5.297 17.066 12.191 17.066v22.712h-237.298v-22.712c6.894 0 13.598-6.844 12.191-17.066z" fill="#29b933" fill-rule="evenodd"/><path d="m261.851 198.239h203.166c0 9.426 7.641 17.066 17.066 17.066v64.524c-9.425 0-17.066 7.641-17.066 17.066h-203.166c0-9.425-7.641-17.066-17.066-17.066v-64.524c9.426 0 17.066-7.641 17.066-17.066z" fill="#96ff96" fill-rule="evenodd"/><circle cx="363.434" cy="247.567" fill="#29b933" r="49.163" transform="matrix(.615 -.788 .788 .615 -55.361 381.673)"/><g fill-rule="evenodd"><path d="m363.434 198.404c26.145 0 47.519 20.409 49.069 46.163-1.551 25.755-22.925 46.163-49.069 46.163s-47.518-20.408-49.069-46.163c1.551-25.754 22.925-46.163 49.069-46.163z" fill="#2dd62d"/><path d="m354.323 238.345c-.93-.728-2.062-1.899-2.168-3.387-.082-1.07.39-2.197 1.339-3.18.901-.94 2.279-1.682 3.927-2.207v10.375c-1.229-.458-2.308-.988-3.099-1.6zm20.841 21.342c.27.492.52 1.238.091 2.722-.4 1.378-2.621 2.78-5.831 3.508v-10.11c4.057 1.581 5.349 3.18 5.739 3.879zm-23.968.231c-.752-3.229-3.985-5.243-7.204-4.491-3.228.761-5.238 3.98-4.481 7.209 1.792 7.681 8.572 13.251 17.911 15.121v3.431c0 3.311 2.679 5.999 5.999 5.999s6.004-2.689 6.004-5.999v-3.098c7.816-1.142 15.218-5.04 17.347-12.312 1.243-4.241.853-8.351-1.108-11.892-2.641-4.785-8.042-8.38-16.051-10.649-.072-.019-.13-.039-.188-.048v-13.69c1.798.53 5.469 1.952 6.12 4.79.728 3.233 3.946 5.252 7.18 4.52 3.228-.737 5.248-3.951 4.52-7.18-1.494-6.539-6.91-11.56-14.871-13.772-.949-.255-1.942-.467-2.949-.646v-3.262c0-3.311-2.689-5.999-6.004-5.999s-5.999 2.689-5.999 5.999v3.31c-4.828.892-9.377 2.872-12.586 6.211-3.33 3.47-4.982 7.859-4.655 12.36.333 4.597 2.742 8.857 6.78 11.999 3.012 2.332 6.741 3.691 10.461 4.708v12.803c-3.089-1.041-5.619-2.834-6.226-5.421zm-82.843-12.35c0-3.311 2.679-5.999 5.999-5.999h10.331c3.311 0 5.999 2.689 5.999 5.999s-2.689 5.999-5.999 5.999h-10.331c-3.32 0-5.999-2.689-5.999-5.999zm190.16 0c0 3.31-2.699 5.999-6.023 5.999h-10.327c-3.31 0-5.999-2.689-5.999-5.999s2.689-5.999 5.999-5.999h10.327c3.325 0 6.023 2.689 6.023 5.999zm36.477 62.257v-124.519h-263.158v124.519h52.23l12.471-6.929h-34.7c-3.31 0-5.999-2.689-5.999-5.999 0-6.101-4.963-11.069-11.064-11.069-3.32 0-5.994-2.679-5.994-5.999v-64.522c0-3.311 2.674-5.999 5.994-5.999 6.1 0 11.064-4.968 11.064-11.069 0-3.31 2.689-5.999 5.999-5.999h203.185c3.277 0 5.975 2.689 5.975 5.999 0 6.1 4.963 11.069 11.083 11.069 3.325 0 5.975 2.689 5.975 5.999v64.522c0 3.32-2.65 5.999-5.975 5.999-6.12 0-11.083 4.968-11.083 11.069 0 3.31-2.698 5.999-5.975 5.999h-154.824c.622.352 1.209.752 1.788 1.2 2.284 1.802 4.462 3.72 6.573 5.729h176.436zm-186.738-62.257c0-17.56 8.259-33.22 21.091-43.33h-62.301c-2.13 7.907-8.37 14.147-16.268 16.277v54.099c7.898 2.135 14.138 8.37 16.268 16.283h62.301c-12.832-10.11-21.091-25.77-21.091-43.329zm110.333 0c0 17.559-8.264 33.22-21.082 43.329h62.311c2.12-7.912 8.336-14.143 16.239-16.283v-54.099c-7.903-2.13-14.119-8.37-16.239-16.277h-62.311c12.818 10.109 21.082 25.77 21.082 43.33zm-55.164-43.161c-23.799 0-43.166 19.361-43.166 43.161s19.366 43.161 43.166 43.161 43.166-19.361 43.166-43.161-19.362-43.161-43.166-43.161zm-26.228 190.502c-.149.699-.477 1.108-1.142 1.388l-12.259 5.204c-.598-31.442-13.488-58.812-37.359-79.253l15.993-8.9c.737-.41 1.455-.347 2.125.178 24.58 19.39 38.313 53.622 32.642 81.383zm-63.77 13.328c.169.101.342.202.501.318 2.631 1.904 4.38 3.71 5.609 5.421l32.169-14.89c-1.137-26.748-11.95-49.247-32.179-66.951l-7.45 4.139c-14.017 7.801-29.64 9.213-45.18 4.091-13.011-4.289-26.72-1.769-41.908 7.7l-44.423 27.693c-2.009 1.258-2.086 2.491-2.12 2.887-.096 1.561.901 3.513 2.501 4.833 9.213 7.618 16.441 4.65 29.49-1.72 8.389-4.101 17.901-8.751 29.153-8.808h.26c12.495 0 21.896 5.44 30.999 10.707zm-3.137 21.082c-1.041 1.788-2.723 3.079-4.752 3.628-2.038.54-4.139.27-5.941-.771l-4.178-2.409v-.01l-17.882-10.322c-2.872-1.648-6.539-.665-8.192 2.202-1.657 2.872-.679 6.539 2.193 8.201l17.877 10.317c3.744 2.164 5.021 6.953 2.872 10.693-2.159 3.73-6.958 5.016-10.688 2.858l-4.192-2.419-16.759-9.671c-2.872-1.658-6.539-.679-8.201 2.192-1.648 2.867-.67 6.539 2.202 8.201l16.759 9.676c1.6.92 2.751 2.433 3.238 4.241.482 1.822.241 3.701-.679 5.301-.93 1.6-2.429 2.752-4.241 3.233-1.807.487-3.691.251-5.301-.684l-7.787-4.496-6.573-3.792c-1.479-.848-3.175-1.002-4.698-.549-1.402-4.958-4.602-9.088-9.049-11.651-4.602-2.66-9.83-3.238-14.61-2.038-1.412-4.954-4.621-9.073-9.069-11.632-4.443-2.568-9.613-3.276-14.6-2.029-1.349-4.742-4.472-8.992-9.069-11.642-4.602-2.66-9.844-3.238-14.62-2.038-1.412-4.949-4.621-9.069-9.064-11.628-4.529-2.621-9.83-3.31-14.919-1.951-5.089 1.368-9.329 4.611-11.95 9.15l-3.44 5.961-6.838-7.353c-.472-.511-1.022-.93-1.643-1.248l-32.916-16.971c.959-27.047 11.748-49.782 32.121-67.64l3.137 1.759c20.792 11.704 36.819 10.312 50.962 9.083 9.907-.862 18.205-1.561 27.076 2.149l-32.656 20.359c-4.655 2.91-7.411 7.262-7.743 12.268-.361 5.392 2.25 11.093 6.823 14.87 15.598 12.924 29.837 5.961 42.399-.178 7.599-3.711 15.448-7.541 23.958-7.589h.193c9.266 0 16.557 4.211 24.999 9.088l42.308 24.431c2.597 1.913 3.123 3.022 3.951 5.171.439 1.951.149 3.999-.819 5.681zm-59.183 60.778c-2.298 1.33-5.527.93-9.131-1.147l-2.665-1.503 4.207-7.3c.68-1.166 1.219-2.39 1.629-3.638l5.493 3.161c2.809 1.628 3.397 3.758 3.397 5.257 0 2.11-1.152 4.139-2.93 5.17zm-32.468 4.621c1.99-.53 3.648-1.792 4.66-3.551l9.83-17.019c1.017-1.759 1.277-3.817.752-5.811-.535-1.99-1.802-3.648-3.561-4.655-3.662-2.125-8.36-.863-10.481 2.795l-9.82 17.019-.01.024c-2.101 3.657-.843 8.351 2.819 10.457 1.749 1.012 3.821 1.272 5.811.742zm-26.989-7.917c1.99-.544 3.648-1.802 4.66-3.551l2.058-3.58 11.083-19.193c1.017-1.759 1.277-3.821.747-5.806-.53-1.99-1.788-3.653-3.561-4.665-3.648-2.106-8.336-.858-10.456 2.795l-13.15 22.768v.01l-.01.01-.01.01c-2.091 3.662-.834 8.341 2.819 10.452 1.759 1.016 3.831 1.277 5.821.751zm-32.28-9.594c3.657 2.111 8.37.848 10.48-2.809l2.12-3.672 13.801-23.91.01-.01c2.105-3.658.848-8.356-2.814-10.466-3.657-2.111-8.346-.863-10.466 2.79l-.01.01v.01l-9.825 17.01-6.096 10.568c-2.12 3.662-.863 8.36 2.8 10.481zm-17.569-24.238c3.648 2.111 8.346.858 10.466-2.8l9.83-17.029c1.022-1.764 1.282-3.821.752-5.811s-1.802-3.643-3.561-4.66c-1.759-1.022-3.821-1.282-5.811-.752-2 .54-3.648 1.802-4.669 3.561l-9.82 17.01c-1.017 1.759-1.277 3.831-.747 5.821s1.797 3.638 3.561 4.66zm-60.272-51.468c.598-31.452 13.488-58.812 37.35-79.253l-15.979-8.9c-.752-.41-1.46-.347-2.13.178-24.59 19.39-38.313 53.622-32.642 81.383.149.708.472 1.108 1.142 1.388zm178.311-97.834v12.162c0 3.32 2.689 5.999 5.999 5.999h47.531l-7.132 3.956c-11.17 6.226-23.139 7.291-35.591 3.185-16.35-5.392-33.827-2.4-51.95 8.876-14.461-8.939-27.399-7.816-39.927-6.727-13.03 1.118-26.488 2.289-44.052-7.58l-3.33-1.884c-.01-.198 0-.41-.019-.617-.357-3.749-2.457-6.949-5.749-8.78l-15.444-8.591h149.662zm-192.232-14.822v-15.718c0-1.528 1.301-2.829 2.834-2.829h189.396v21.371h-189.398c-1.532 0-2.834-1.291-2.834-2.824zm119.85-123.676v93.131h-48.688v-93.131zm-86.41-55.579h-41.479c-1.219 0-2.173-.733-2.472-1.923-.299-1.181.169-2.27 1.243-2.858l156.467-85.733c5.06-2.771 10.64-2.771 15.709 0l156.472 85.734c1.06.588 1.537 1.677 1.238 2.858-.299 1.19-1.248 1.923-2.467 1.923h-41.484c-3.32 0-5.999 2.689-5.999 5.999v44.746l-73.49 13.063v.01c-2.809.487-4.949 2.94-4.949 5.898v78.993h-60.378v-93.131h2.805c3.315 0 6.004-2.679 6.004-5.999s-2.689-6.004-6.004-6.004h-78.308c-3.305 0-5.999 2.693-5.999 6.004s2.694 5.999 5.999 5.999h2.809v93.131h-19.718v-142.711c0-3.311-2.679-5.999-5.999-5.999zm413.081 41.286-109.779 9.912 108.141-19.222zm10.168 11.131 1.012 11.3h-126.201zm16.721 11.3h-3.662l-1.638-18.35c-.337-3.301-3.229-5.729-6.553-5.44l-3.036.279-2.891-16.239c-.241-1.561-1.157-2.964-2.458-3.869-1.301-.911-2.891-1.272-4.481-.992l-166.023 29.514v-36.622h35.485c6.65 0 12.437-4.501 14.09-10.939 1.648-6.443-1.272-13.174-7.103-16.364l-156.459-85.728c-8.659-4.737-18.591-4.737-27.255 0l-156.457 85.729c-5.831 3.19-8.751 9.922-7.108 16.364 1.648 6.438 7.45 10.939 14.1 10.939h35.48v136.711h-24.609c-8.182 0-14.832 6.659-14.832 14.827v15.718c0 8.173 6.65 14.822 14.832 14.822h23.486c-.198.14-.4.28-.588.429-27.948 22.05-43.498 61.25-36.969 93.213.94 4.558 3.918 8.211 8.206 10.028l13.242 5.633c1.451.607 2.949.92 4.438.92 2.14 0 4.26-.631 6.153-1.875.366-.236.708-.496 1.041-.766l30.618 15.781 8.63 9.286-.101.173c-2.621 4.539-3.31 9.84-1.952 14.918 1.364 5.088 4.611 9.329 9.151 11.95 2.573 1.489 5.402 2.352 8.293 2.568-2 8.259 1.556 17.212 9.281 21.669 5.951 3.431 12.957 3.402 18.667.53 1.657 3.373 4.303 6.303 7.792 8.322 4.539 2.612 9.84 3.301 14.918 1.942 1.61-.434 3.127-1.051 4.539-1.841 1.672 3.156 4.221 5.908 7.541 7.821 3.007 1.739 6.361 2.626 9.758 2.626 1.72 0 3.45-.227 5.161-.689 4.833-1.291 8.89-4.298 11.531-8.49l2.761 1.561c4.009 2.308 8.139 3.479 12.047 3.479 3.214 0 6.274-.79 9.02-2.366 5.021-2.901 8.303-8.124 8.842-13.882.641.058 1.267.101 1.918.101 1.653 0 3.32-.212 4.964-.66 4.91-1.311 8.996-4.453 11.526-8.823 1.875-3.238 2.713-6.871 2.501-10.529 6.361-.439 12.403-3.932 15.82-9.85 2.12-3.691 2.91-7.773 2.554-11.719 1.137-.101 2.279-.289 3.407-.593 5.132-1.378 9.401-4.65 12.042-9.218 1.73-2.993 2.597-6.409 2.607-9.859l31.962-14.793c.511.492 1.06.954 1.672 1.349 1.889 1.243 4 1.875 6.149 1.875 1.489 0 2.988-.313 4.438-.92l13.242-5.633c4.279-1.817 7.266-5.469 8.196-10.028 5.035-24.58-3.016-53.43-19.709-75.48h171.781c3.277 0 5.975-2.679 5.975-5.999v-136.522c0-3.31-2.699-5.999-5.975-5.999zm-298.792-51.718v22.118h26.16v-22.118zm64.319 22.118v-22.118h-26.156v22.118zm-76.318-28.117v34.116c0 3.315 2.689 6.004 6 6.004h76.323c3.315 0 5.999-2.689 5.999-6.004v-34.116c0-3.311-2.684-5.999-5.999-5.999h-76.323c-3.311 0-6 2.689-6 5.999zm-7.57-61.781c-8.871 0-16.08 7.218-16.08 16.09s7.209 16.09 16.08 16.09 16.089-7.219 16.089-16.09-7.218-16.09-16.089-16.09zm0 44.178c15.492 0 28.088-12.601 28.088-28.088s-12.596-28.093-28.088-28.093-28.079 12.601-28.079 28.093 12.601 28.088 28.079 28.088z"/></g></svg>