<?xml version="1.0" encoding="UTF-8"?>
<!DOCTYPE svg PUBLIC "-//W3C//DTD SVG 1.1//EN" "http://www.w3.org/Graphics/SVG/1.1/DTD/svg11.dtd">
<svg xmlns="http://www.w3.org/2000/svg" version="1.1" width="294px" height="306px" style="shape-rendering:geometricPrecision; text-rendering:geometricPrecision; image-rendering:optimizeQuality; fill-rule:evenodd; clip-rule:evenodd" xmlns:xlink="http://www.w3.org/1999/xlink">
<g><path style="opacity:1" fill="#de6d6d" d="M 74.5,15.5 C 73.5151,19.6344 73.1818,23.9677 73.5,28.5C 72.209,28.7373 71.209,28.404 70.5,27.5C 72.217,22.8896 73.217,17.8896 73.5,12.5C 61.8247,11.3479 50.158,11.5146 38.5,13C 39.5634,14.1882 40.8967,14.6882 42.5,14.5C 45.4534,21.2999 50.1201,26.7999 56.5,31C 57.5,31.6667 58.5,31.6667 59.5,31C 60.8334,28.8094 62.5,26.976 64.5,25.5C 64.5,26.5 64.5,27.5 64.5,28.5C 62.998,30.175 61.6647,32.0083 60.5,34C 59.1667,34.6667 57.8333,34.6667 56.5,34C 49.6097,26.774 42.4431,19.9407 35,13.5C 34.5172,12.552 34.3505,11.552 34.5,10.5C 47.5119,10.1134 60.5119,9.44675 73.5,8.5C 75.5,8.83333 77.5,9.16667 79.5,9.5C 77.8149,11.5707 76.1482,13.5707 74.5,15.5 Z"/></g>
<g><path style="opacity:1" fill="#ea4646" d="M 70.5,27.5 C 68.9148,25.0183 66.9148,24.3516 64.5,25.5C 62.5,26.976 60.8334,28.8094 59.5,31C 58.5,31.6667 57.5,31.6667 56.5,31C 50.1201,26.7999 45.4534,21.2999 42.5,14.5C 40.8967,14.6882 39.5634,14.1882 38.5,13C 50.158,11.5146 61.8247,11.3479 73.5,12.5C 73.217,17.8896 72.217,22.8896 70.5,27.5 Z"/></g>
<g><path style="opacity:1" fill="#d5e3f6" d="M 168.5,34.5 C 176.326,38.4819 183.492,43.4819 190,49.5C 205.995,40.0536 220.328,42.0536 233,55.5C 240.502,67.4501 240.168,79.1167 232,90.5C 229.486,93.2991 226.986,95.9658 224.5,98.5C 223.833,88.8333 223.167,79.1667 222.5,69.5C 222.672,68.5084 222.338,67.8417 221.5,67.5C 221.262,65.5956 220.262,64.2623 218.5,63.5C 217.158,62.207 215.491,61.3736 213.5,61C 201.833,60.3333 190.167,60.3333 178.5,61C 177.944,61.3826 177.611,61.8826 177.5,62.5C 163.076,64.4575 148.41,65.1242 133.5,64.5C 133.106,62.2901 131.773,60.9568 129.5,60.5C 121.343,59.6706 113.01,59.1706 104.5,59C 106.868,57.2646 106.368,56.0979 103,55.5C 101.174,56.0104 101.007,56.8438 102.5,58C 100.975,59.0086 99.3084,59.5086 97.5,59.5C 94.5933,59.4248 91.9266,58.5914 89.5,57C 86.6448,54.6639 86.9782,52.8306 90.5,51.5C 92.5266,53.6744 94.8599,54.0078 97.5,52.5C 97.5,51.5 97.5,50.5 97.5,49.5C 95.1806,48.833 92.8473,48.6664 90.5,49C 91.6956,49.6543 91.6956,50.1543 90.5,50.5C 90.1667,50 89.8333,49.5 89.5,49C 91.6036,46.2272 94.2703,44.2272 97.5,43C 94.4178,37.5324 91.5845,38.0324 89,44.5C 85.2192,41.6275 82.7192,42.6275 81.5,47.5C 81.7093,48.086 82.0426,48.586 82.5,49C 79.9865,50.2525 77.3198,50.7525 74.5,50.5C 74.7076,48.0799 74.3742,45.7466 73.5,43.5C 74.8848,42.4495 75.8848,41.1161 76.5,39.5C 77.325,38.6143 78.325,38.281 79.5,38.5C 79.5,37.5 79.5,36.5 79.5,35.5C 77.9397,35.4809 76.4397,35.1476 75,34.5C 73.7425,34.1501 73.4092,33.4835 74,32.5C 82.512,28.6995 90.6787,26.1995 98.5,25C 99.1667,24.3333 99.8333,23.6667 100.5,23C 114.352,21.7667 128.019,22.7667 141.5,26C 145.867,27.6452 150.367,28.8119 155,29.5C 158.668,33.2247 163.168,34.8914 168.5,34.5 Z"/></g>
<g><path style="opacity:0.965" fill="#773b4d" d="M 70.5,27.5 C 71.209,28.404 72.209,28.7373 73.5,28.5C 73.1788,30.0481 72.1788,30.7148 70.5,30.5C 68.5,29.8333 66.5,29.1667 64.5,28.5C 64.5,27.5 64.5,26.5 64.5,25.5C 66.9148,24.3516 68.9148,25.0183 70.5,27.5 Z"/></g>
<g><path style="opacity:1" fill="#d5e1f3" d="M 74.5,15.5 C 74.3342,20.1785 74.5008,24.8452 75,29.5C 84.8123,24.4204 95.3123,21.5871 106.5,21C 128.901,18.6954 149.568,23.1954 168.5,34.5C 163.168,34.8914 158.668,33.2247 155,29.5C 150.367,28.8119 145.867,27.6452 141.5,26C 128.019,22.7667 114.352,21.7667 100.5,23C 99.8333,23.6667 99.1667,24.3333 98.5,25C 90.6787,26.1995 82.512,28.6995 74,32.5C 73.4092,33.4835 73.7425,34.1501 75,34.5C 76.4397,35.1476 77.9397,35.4809 79.5,35.5C 79.5,36.5 79.5,37.5 79.5,38.5C 78.325,38.281 77.325,38.6143 76.5,39.5C 75.8848,41.1161 74.8848,42.4495 73.5,43.5C 74.3742,45.7466 74.7076,48.0799 74.5,50.5C 77.3198,50.7525 79.9865,50.2525 82.5,49C 82.0426,48.586 81.7093,48.086 81.5,47.5C 82.7192,42.6275 85.2192,41.6275 89,44.5C 91.5845,38.0324 94.4178,37.5324 97.5,43C 94.2703,44.2272 91.6036,46.2272 89.5,49C 89.8333,49.5 90.1667,50 90.5,50.5C 91.6956,50.1543 91.6956,49.6543 90.5,49C 92.8473,48.6664 95.1806,48.833 97.5,49.5C 97.5,50.5 97.5,51.5 97.5,52.5C 94.8599,54.0078 92.5266,53.6744 90.5,51.5C 86.9782,52.8306 86.6448,54.6639 89.5,57C 91.9266,58.5914 94.5933,59.4248 97.5,59.5C 97.5,59.8333 97.5,60.1667 97.5,60.5C 92.6612,61.1715 89.4945,63.8382 88,68.5C 87.5,120.166 87.3333,171.832 87.5,223.5C 84.5482,222.346 81.5482,221.346 78.5,220.5C 77.9858,200.574 77.9858,180.574 78.5,160.5C 79.1964,153.078 80.1964,145.744 81.5,138.5C 81.1288,129.532 80.9621,120.532 81,111.5C 79.2663,107.403 78.2663,103.069 78,98.5C 76.2745,97.536 74.4412,96.8693 72.5,96.5C 70.9382,96.2671 69.6049,95.6005 68.5,94.5C 64.8719,93.056 61.0385,92.056 57,91.5C 56.7882,88.7478 55.9548,86.2478 54.5,84C 56.5401,81.6881 56.8734,79.1881 55.5,76.5C 55.7367,72.7267 55.2367,69.0601 54,65.5C 52.8873,64.695 51.7206,64.0283 50.5,63.5C 49.8478,62.2749 48.6811,61.6083 47,61.5C 43.5,62 40,62.5 36.5,63C 34.145,65.649 32.145,68.4824 30.5,71.5C 31.1359,74.7939 33.1359,76.1272 36.5,75.5C 37.2515,78.7473 37.7515,82.0806 38,85.5C 39.689,88.5698 41.5223,91.5698 43.5,94.5C 42.7573,95.1818 42.0906,95.8485 41.5,96.5C 38.8045,96.933 36.6379,98.2663 35,100.5C 33.0455,105.318 31.8788,110.318 31.5,115.5C 28.4281,115.183 25.4281,115.516 22.5,116.5C 23.1925,117.518 23.8592,118.518 24.5,119.5C 23.4611,125.797 23.2944,132.13 24,138.5C 25.619,145.167 29.7857,147.333 36.5,145C 37,144.5 37.5,144 38,143.5C 38.4996,150.492 38.6663,157.492 38.5,164.5C 38.0019,169.152 37.6686,173.819 37.5,178.5C 36.9028,182.267 35.9028,185.934 34.5,189.5C 34.4312,186.916 33.2645,184.916 31,183.5C 9.53358,149.671 6.86692,114.337 23,77.5C 34.0752,56.9243 49.9085,41.2576 70.5,30.5C 72.1788,30.7148 73.1788,30.0481 73.5,28.5C 73.1818,23.9677 73.5151,19.6344 74.5,15.5 Z"/></g>
<g><path style="opacity:1" fill="#a9afce" d="M 129.5,60.5 C 118.833,60.5 108.167,60.5 97.5,60.5C 97.5,60.1667 97.5,59.8333 97.5,59.5C 99.3084,59.5086 100.975,59.0086 102.5,58C 101.007,56.8438 101.174,56.0104 103,55.5C 106.368,56.0979 106.868,57.2646 104.5,59C 113.01,59.1706 121.343,59.6706 129.5,60.5 Z"/></g>
<g><path style="opacity:1" fill="#9293b1" d="M 177.5,62.5 C 177.5,63.5 177.5,64.5 177.5,65.5C 162.657,65.8293 147.99,65.496 133.5,64.5C 148.41,65.1242 163.076,64.4575 177.5,62.5 Z"/></g>
<g><path style="opacity:1" fill="#19044a" d="M 50.5,63.5 C 51.7206,64.0283 52.8873,64.695 54,65.5C 55.2367,69.0601 55.7367,72.7267 55.5,76.5C 53.395,79.4017 52.0617,79.0684 51.5,75.5C 45.6807,74.6724 39.6807,74.1724 33.5,74C 33.3349,72.8831 33.0016,71.7164 32.5,70.5C 35.3319,69.5872 36.9986,67.2539 37.5,63.5C 41.8333,63.5 46.1667,63.5 50.5,63.5 Z"/></g>
<g><path style="opacity:1" fill="#1f1649" d="M 97.5,60.5 C 108.167,60.5 118.833,60.5 129.5,60.5C 131.773,60.9568 133.106,62.2901 133.5,64.5C 147.99,65.496 162.657,65.8293 177.5,65.5C 162.672,66.6611 147.672,66.8277 132.5,66C 131.934,65.0053 131.267,64.172 130.5,63.5C 119.162,63.3335 107.828,63.5001 96.5,64C 94.3395,64.9959 92.6728,66.4959 91.5,68.5C 90.1668,103.494 89.5001,138.827 89.5,174.5C 89.3393,210.583 89.8393,246.583 91,282.5C 92.5,284 94,285.5 95.5,287C 134.165,287.5 172.832,287.667 211.5,287.5C 204.833,288.167 198.167,288.833 191.5,289.5C 159.498,289.667 127.498,289.5 95.5,289C 92.4384,287.939 89.9384,286.106 88,283.5C 87.5,263.503 87.3334,243.503 87.5,223.5C 87.3333,171.832 87.5,120.166 88,68.5C 89.4945,63.8382 92.6612,61.1715 97.5,60.5 Z"/></g>
<g><path style="opacity:1" fill="#382757" d="M 50.5,63.5 C 46.1667,63.5 41.8333,63.5 37.5,63.5C 36.9986,67.2539 35.3319,69.5872 32.5,70.5C 33.0016,71.7164 33.3349,72.8831 33.5,74C 39.6807,74.1724 45.6807,74.6724 51.5,75.5C 48.2346,75.2082 45.2346,75.8749 42.5,77.5C 40.6663,76.2455 38.6663,75.5789 36.5,75.5C 33.1359,76.1272 31.1359,74.7939 30.5,71.5C 32.145,68.4824 34.145,65.649 36.5,63C 40,62.5 43.5,62 47,61.5C 48.6811,61.6083 49.8478,62.2749 50.5,63.5 Z"/></g>
<g><path style="opacity:1" fill="#f4babf" d="M 36.5,75.5 C 38.6663,75.5789 40.6663,76.2455 42.5,77.5C 45.2346,75.8749 48.2346,75.2082 51.5,75.5C 52.0617,79.0684 53.395,79.4017 55.5,76.5C 56.8734,79.1881 56.5401,81.6881 54.5,84C 55.9548,86.2478 56.7882,88.7478 57,91.5C 61.0385,92.056 64.8719,93.056 68.5,94.5C 64.1924,93.6324 59.859,93.4657 55.5,94C 53.1728,98.1715 49.8395,101.005 45.5,102.5C 46.4015,98.7593 45.0681,96.7593 41.5,96.5C 42.0906,95.8485 42.7573,95.1818 43.5,94.5C 41.5223,91.5698 39.689,88.5698 38,85.5C 37.7515,82.0806 37.2515,78.7473 36.5,75.5 Z"/></g>
<g><path style="opacity:0.947" fill="#4a4a4f" d="M 229.5,99.5 C 231.833,99.5 234.167,99.5 236.5,99.5C 236.5,100.5 236.5,101.5 236.5,102.5C 234.167,102.5 231.833,102.5 229.5,102.5C 229.5,101.5 229.5,100.5 229.5,99.5 Z"/></g>
<g><path style="opacity:1" fill="#f75455" d="M 68.5,94.5 C 69.6049,95.6005 70.9382,96.2671 72.5,96.5C 73.7927,98.2959 75.2927,99.9625 77,101.5C 78.6639,109.465 79.6639,117.465 80,125.5C 76.5894,126.293 73.0894,126.793 69.5,127C 67.8934,128.049 67.2267,129.549 67.5,131.5C 61.8806,130.177 56.2139,128.677 50.5,127C 46.8816,124.026 42.8816,121.859 38.5,120.5C 36.6614,119.492 35.3281,117.992 34.5,116C 33.552,115.517 32.552,115.351 31.5,115.5C 31.8788,110.318 33.0455,105.318 35,100.5C 36.6379,98.2663 38.8045,96.933 41.5,96.5C 45.0681,96.7593 46.4015,98.7593 45.5,102.5C 49.8395,101.005 53.1728,98.1715 55.5,94C 59.859,93.4657 64.1924,93.6324 68.5,94.5 Z"/></g>
<g><path style="opacity:0.263" fill="#747375" d="M 241.5,101.5 C 243.5,101.833 245.5,102.167 247.5,102.5C 247.5,103.5 247.5,104.5 247.5,105.5C 245.409,105.682 243.409,105.348 241.5,104.5C 240.438,103.575 240.438,102.575 241.5,101.5 Z"/></g>
<g><path style="opacity:0.6" fill="#595860" d="M 251.5,106.5 C 253.5,106.5 255.5,106.5 257.5,106.5C 257.5,107.833 257.5,109.167 257.5,110.5C 254.392,110.625 252.392,109.292 251.5,106.5 Z"/></g>
<g><path style="opacity:0.469" fill="#514f56" d="M 261.5,112.5 C 264.46,112.662 266.293,113.995 267,116.5C 266.282,117.451 265.449,117.617 264.5,117C 262.561,116.092 261.561,114.592 261.5,112.5 Z"/></g>
<g><path style="opacity:1" fill="#381c4e" d="M 31.5,115.5 C 32.552,115.351 33.552,115.517 34.5,116C 35.3281,117.992 36.6614,119.492 38.5,120.5C 39.5624,121.575 39.5624,122.575 38.5,123.5C 35.865,122.527 33.865,120.86 32.5,118.5C 30.8333,119.833 29.1667,121.167 27.5,122.5C 27.1667,122.333 26.8333,122.167 26.5,122C 29.3478,117.685 28.6811,116.852 24.5,119.5C 23.8592,118.518 23.1925,117.518 22.5,116.5C 25.4281,115.516 28.4281,115.183 31.5,115.5 Z"/></g>
<g><path style="opacity:0.467" fill="#56555d" d="M 269.5,120.5 C 272.47,120.746 273.803,122.412 273.5,125.5C 269.464,125.718 268.13,124.051 269.5,120.5 Z"/></g>
<g><path style="opacity:1" fill="#f6bbc0" d="M 72.5,96.5 C 74.4412,96.8693 76.2745,97.536 78,98.5C 78.2663,103.069 79.2663,107.403 81,111.5C 80.9621,120.532 81.1288,129.532 81.5,138.5C 80.1964,145.744 79.1964,153.078 78.5,160.5C 78.1667,160.5 77.8333,160.5 77.5,160.5C 76.8333,160.5 76.1667,160.5 75.5,160.5C 77.3342,156.486 78.0008,152.153 77.5,147.5C 73.6528,147.106 69.9861,146.106 66.5,144.5C 58.9543,141.498 51.9543,137.331 45.5,132C 43.1902,131.503 40.8568,131.337 38.5,131.5C 39.2324,140.815 39.5657,150.148 39.5,159.5C 39.7845,161.415 39.4511,163.081 38.5,164.5C 38.6663,157.492 38.4996,150.492 38,143.5C 37.5,144 37,144.5 36.5,145C 29.7857,147.333 25.619,145.167 24,138.5C 23.2944,132.13 23.4611,125.797 24.5,119.5C 28.6811,116.852 29.3478,117.685 26.5,122C 26.8333,122.167 27.1667,122.333 27.5,122.5C 29.1667,121.167 30.8333,119.833 32.5,118.5C 33.865,120.86 35.865,122.527 38.5,123.5C 39.5624,122.575 39.5624,121.575 38.5,120.5C 42.8816,121.859 46.8816,124.026 50.5,127C 56.2139,128.677 61.8806,130.177 67.5,131.5C 67.2267,129.549 67.8934,128.049 69.5,127C 73.0894,126.793 76.5894,126.293 80,125.5C 79.6639,117.465 78.6639,109.465 77,101.5C 75.2927,99.9625 73.7927,98.2959 72.5,96.5 Z"/></g>
<g><path style="opacity:0.345" fill="#86869c" d="M 222.5,69.5 C 223.167,79.1667 223.833,88.8333 224.5,98.5C 225.043,98.56 225.376,98.8933 225.5,99.5C 223.512,146.35 222.845,193.35 223.5,240.5C 223.672,241.492 223.338,242.158 222.5,242.5C 222.5,184.833 222.5,127.167 222.5,69.5 Z"/></g>
<g><path style="opacity:1" fill="#ec5a61" d="M 66.5,144.5 C 62.0632,143.76 57.7299,142.593 53.5,141C 51.4371,138.129 48.7704,135.963 45.5,134.5C 43.9291,133.691 42.2624,133.357 40.5,133.5C 40.3775,140.755 40.7109,148.089 41.5,155.5C 43.0175,154.089 44.3508,154.256 45.5,156C 44.6919,156.308 44.0253,156.808 43.5,157.5C 51.9349,160.136 60.6016,161.136 69.5,160.5C 69.0825,161.222 68.4158,161.722 67.5,162C 61.8431,162.499 56.1764,162.666 50.5,162.5C 46.67,161.872 43.0033,160.872 39.5,159.5C 39.5657,150.148 39.2324,140.815 38.5,131.5C 40.8568,131.337 43.1902,131.503 45.5,132C 51.9543,137.331 58.9543,141.498 66.5,144.5 Z"/></g>
<g><path style="opacity:0.424" fill="#636267" d="M 274.5,130.5 C 277.541,130.406 279.207,131.906 279.5,135C 275.159,137.178 273.492,135.678 274.5,130.5 Z"/></g>
<g><path style="opacity:0.997" fill="#dbe5f2" d="M 236.5,137.5 C 244.861,137.213 248.361,141.213 247,149.5C 245.334,152.666 242.668,154 239,153.5C 232.235,153.007 229.569,149.34 231,142.5C 232.422,140.258 234.255,138.591 236.5,137.5 Z"/></g>
<g><path style="opacity:0.655" fill="#625f6a" d="M 276.5,141.5 C 277.833,141.5 279.167,141.5 280.5,141.5C 280.5,143.5 280.5,145.5 280.5,147.5C 276.932,147.241 275.599,145.241 276.5,141.5 Z"/></g>
<g><path style="opacity:1" fill="#f95253" d="M 66.5,144.5 C 69.9861,146.106 73.6528,147.106 77.5,147.5C 78.0008,152.153 77.3342,156.486 75.5,160.5C 73.5,160.5 71.5,160.5 69.5,160.5C 60.6016,161.136 51.9349,160.136 43.5,157.5C 44.0253,156.808 44.6919,156.308 45.5,156C 44.3508,154.256 43.0175,154.089 41.5,155.5C 40.7109,148.089 40.3775,140.755 40.5,133.5C 42.2624,133.357 43.9291,133.691 45.5,134.5C 48.7704,135.963 51.4371,138.129 53.5,141C 57.7299,142.593 62.0632,143.76 66.5,144.5 Z"/></g>
<g><path style="opacity:0.314" fill="#595762" d="M 278.5,152.5 C 279.947,153.134 280.613,154.301 280.5,156C 279.167,160.667 277.833,160.667 276.5,156C 276.862,154.566 277.528,153.399 278.5,152.5 Z"/></g>
<g><path style="opacity:1" fill="#446ad9" d="M 130.5,63.5 C 130.5,65.1667 130.5,66.8333 130.5,68.5C 129.078,68.2504 128.078,67.417 127.5,66C 117.5,65.3333 107.5,65.3333 97.5,66C 96.6667,67.5 95.5,68.6667 94,69.5C 92.8687,90.2982 92.3687,111.132 92.5,132C 92.8333,150.833 93.1667,169.667 93.5,188.5C 95.1585,186.018 97.4919,184.518 100.5,184C 99.5419,182.853 99.8753,181.853 101.5,181C 103.197,180.616 104.863,180.782 106.5,181.5C 102.058,193.609 106.224,200.942 119,203.5C 131.071,200.356 134.904,193.023 130.5,181.5C 128.957,179.072 127.957,176.406 127.5,173.5C 126.5,173.5 125.5,173.5 124.5,173.5C 124.5,172.5 124.5,171.5 124.5,170.5C 123.127,170.343 121.793,170.51 120.5,171C 118.093,174.178 115.093,175.012 111.5,173.5C 112.689,172.571 114.022,172.238 115.5,172.5C 115.5,171.5 115.5,170.5 115.5,169.5C 119.897,169.575 124.23,169.075 128.5,168C 129.56,166.702 130.726,165.535 132,164.5C 132.772,164.645 133.439,164.978 134,165.5C 133.846,163.439 133.346,161.439 132.5,159.5C 133.291,145.468 126.624,139.635 112.5,142C 110.34,143.332 108.34,144.832 106.5,146.5C 106.326,144.139 105.993,141.806 105.5,139.5C 103.088,139.756 101.421,138.756 100.5,136.5C 102.339,134.162 104.339,131.996 106.5,130C 104.9,128.877 103.9,127.377 103.5,125.5C 105.5,126.833 107.5,128.167 109.5,129.5C 109.842,130.338 110.508,130.672 111.5,130.5C 111.389,131.117 111.056,131.617 110.5,132C 113.474,133.506 113.807,135.172 111.5,137C 112.025,137.692 112.692,138.192 113.5,138.5C 139.321,137.829 165.154,137.162 191,136.5C 194.776,137.394 198.61,137.728 202.5,137.5C 202.5,136.167 202.5,134.833 202.5,133.5C 205.114,133.277 206.781,134.444 207.5,137C 206.175,136.852 205.008,137.018 204,137.5C 203.833,137.833 203.667,138.167 203.5,138.5C 204.376,139.251 205.376,139.751 206.5,140C 206.167,140.333 205.833,140.667 205.5,141C 203.5,141 201.5,141 199.5,141C 201.464,142.451 202.797,144.284 203.5,146.5C 198.435,141.824 192.435,140.324 185.5,142C 175.162,149.764 174.829,158.098 184.5,167C 199.042,170.951 206.042,165.451 205.5,150.5C 206.117,150.611 206.617,150.944 207,151.5C 207.231,155.584 207.898,159.584 209,163.5C 209.414,163.957 209.914,164.291 210.5,164.5C 213.142,161.937 215.642,159.271 218,156.5C 218.5,127.169 218.667,97.8352 218.5,68.5C 219.833,138.833 219.833,209.167 218.5,279.5C 218.667,239.832 218.5,200.165 218,160.5C 214.128,165.927 209.795,170.927 205,175.5C 203.493,174.465 201.993,174.632 200.5,176C 201.252,176.671 201.586,177.504 201.5,178.5C 192.745,173.412 185.245,174.745 179,182.5C 176.397,190.19 178.23,196.69 184.5,202C 187.768,203.213 191.101,203.546 194.5,203C 198.555,201.436 202.221,199.269 205.5,196.5C 206.668,199.504 206.668,202.504 205.5,205.5C 207.139,207.806 209.139,209.806 211.5,211.5C 213.739,214.474 213.905,217.474 212,220.5C 211.667,218.5 211.333,216.5 211,214.5C 210.075,215.047 209.242,215.713 208.5,216.5C 207.896,220.303 207.23,223.969 206.5,227.5C 207.147,216.794 202.147,210.794 191.5,209.5C 187.728,209.866 184.394,211.199 181.5,213.5C 181.38,212.414 180.713,211.747 179.5,211.5C 177.541,211.875 175.707,212.541 174,213.5C 172.318,212.135 172.151,210.635 173.5,209C 170.054,205.369 167.721,206.035 166.5,211C 168.013,212.879 168.679,215.046 168.5,217.5C 160.684,207.891 152.184,207.224 143,215.5C 141.775,220.085 141.275,224.752 141.5,229.5C 140.129,226.254 138.462,223.087 136.5,220C 137.783,217.995 138.783,215.828 139.5,213.5C 141.942,211.956 143.942,209.956 145.5,207.5C 146.548,208.383 147.715,209.05 149,209.5C 154.449,208.487 159.616,208.487 164.5,209.5C 160.519,207.295 156.519,205.295 152.5,203.5C 164.974,203.194 170.474,196.86 169,184.5C 163.865,176.233 156.699,173.733 147.5,177C 141.154,182.934 139.987,189.768 144,197.5C 146.134,200.153 148.634,202.153 151.5,203.5C 148.513,203.998 145.513,204.498 142.5,205C 143.711,205.893 143.711,206.726 142.5,207.5C 141.15,208.95 139.484,209.617 137.5,209.5C 139.673,205.942 141.006,201.942 141.5,197.5C 140.18,195.73 138.68,195.397 137,196.5C 136.349,198.235 136.515,199.902 137.5,201.5C 137.081,202.672 136.415,203.672 135.5,204.5C 133.167,205.167 130.833,205.833 128.5,206.5C 126.568,205.48 124.568,205.313 122.5,206C 124.679,207.257 126.679,208.757 128.5,210.5C 132.272,208.184 135.272,209.184 137.5,213.5C 134.374,218.333 132.708,223.666 132.5,229.5C 132.253,230.713 131.586,231.38 130.5,231.5C 134.789,215.945 128.789,209.111 112.5,211C 104.543,215.429 102.376,221.929 106,230.5C 112.284,238.257 119.784,239.591 128.5,234.5C 128.119,235.931 127.119,236.764 125.5,237C 126.993,238.156 126.826,238.99 125,239.5C 119.689,239.066 114.523,238.066 109.5,236.5C 108.833,237.5 108.167,238.5 107.5,239.5C 106.5,238.833 105.5,238.167 104.5,237.5C 102.878,239.439 101.044,239.772 99,238.5C 97.8293,240.616 96.3293,241.282 94.5,240.5C 93.3341,252.82 93.1674,265.153 94,277.5C 93.9147,282.367 95.5814,283.367 99,280.5C 100.333,281.167 101.333,282.167 102,283.5C 111.713,283.019 121.38,282.019 131,280.5C 133.681,281.172 136.181,281.505 138.5,281.5C 139.629,278.814 139.796,275.814 139,272.5C 139.925,271.953 140.758,271.287 141.5,270.5C 139.713,263.975 138.713,257.309 138.5,250.5C 140.5,250.833 142.5,251.167 144.5,251.5C 140.819,257.342 140.653,263.342 144,269.5C 145.543,271.378 147.376,272.878 149.5,274C 153.887,274.706 158.22,274.54 162.5,273.5C 162.389,274.117 162.056,274.617 161.5,275C 159.2,275.658 156.867,276.158 154.5,276.5C 151.846,275.732 149.179,275.566 146.5,276C 151.777,277.57 151.777,279.237 146.5,281C 150.469,281.853 154.469,282.519 158.5,283C 158.167,283.333 157.833,283.667 157.5,284C 175.833,284.667 194.167,284.667 212.5,284C 213.563,282.812 214.897,282.312 216.5,282.5C 215.942,283.79 214.942,284.623 213.5,285C 174.167,285.667 134.833,285.667 95.5,285C 94.3333,283.833 93.1667,282.667 92,281.5C 90.8394,245.917 90.3394,210.25 90.5,174.5C 90.5032,139.096 90.8365,103.763 91.5,68.5C 92.6728,66.4959 94.3395,64.9959 96.5,64C 107.828,63.5001 119.162,63.3335 130.5,63.5 Z"/></g>
<g><path style="opacity:1" fill="#426ddf" d="M 130.5,68.5 C 147.167,68.5 163.833,68.5 180.5,68.5C 180.196,69.1499 179.863,69.8165 179.5,70.5C 189.165,71.8784 199.165,72.7117 209.5,73C 185.658,74.5029 161.658,74.5029 137.5,73C 147.517,72.8322 157.517,72.3322 167.5,71.5C 160.035,71.0533 152.368,70.7199 144.5,70.5C 139.833,70.8333 135.167,71.1667 130.5,71.5C 132.328,72.7952 134.328,73.7952 136.5,74.5C 135.833,75.1667 135.167,75.8333 134.5,76.5C 137.545,78.5977 140.878,80.0977 144.5,81C 142.899,81.2734 141.399,81.7734 140,82.5C 137.493,80.8447 134.659,80.0114 131.5,80C 130.788,78.575 130.621,77.075 131,75.5C 127.242,73.5265 125.075,74.5265 124.5,78.5C 122.738,78.3573 121.071,78.6906 119.5,79.5C 118.723,81.7812 117.723,83.9479 116.5,86C 119.227,86.8184 121.894,86.6517 124.5,85.5C 123.147,84.4763 122.48,83.143 122.5,81.5C 123.5,81.5 124.5,81.5 125.5,81.5C 125.5,82.5 125.5,83.5 125.5,84.5C 130.343,84.1703 134.843,85.1703 139,87.5C 141.653,86.2843 144.153,86.2843 146.5,87.5C 144.712,87.2148 143.045,87.5481 141.5,88.5C 142.309,90.0709 142.643,91.7376 142.5,93.5C 141.665,96.9434 140.665,100.443 139.5,104C 159.671,104.168 179.671,104.668 199.5,105.5C 169.662,105.169 139.995,105.502 110.5,106.5C 101.403,110.24 99.0697,116.574 103.5,125.5C 103.9,127.377 104.9,128.877 106.5,130C 104.339,131.996 102.339,134.162 100.5,136.5C 101.421,138.756 103.088,139.756 105.5,139.5C 105.993,141.806 106.326,144.139 106.5,146.5C 102.414,155.815 104.747,162.981 113.5,168C 118.561,169.089 123.228,168.256 127.5,165.5C 129.185,163.429 130.852,161.429 132.5,159.5C 133.346,161.439 133.846,163.439 134,165.5C 133.439,164.978 132.772,164.645 132,164.5C 130.726,165.535 129.56,166.702 128.5,168C 124.23,169.075 119.897,169.575 115.5,169.5C 115.5,170.5 115.5,171.5 115.5,172.5C 114.022,172.238 112.689,172.571 111.5,173.5C 115.093,175.012 118.093,174.178 120.5,171C 121.793,170.51 123.127,170.343 124.5,170.5C 124.5,171.5 124.5,172.5 124.5,173.5C 125.5,173.5 126.5,173.5 127.5,173.5C 127.957,176.406 128.957,179.072 130.5,181.5C 122.409,173.515 114.409,173.515 106.5,181.5C 104.863,180.782 103.197,180.616 101.5,181C 99.8753,181.853 99.5419,182.853 100.5,184C 97.4919,184.518 95.1585,186.018 93.5,188.5C 93.1667,169.667 92.8333,150.833 92.5,132C 92.3687,111.132 92.8687,90.2982 94,69.5C 95.5,68.6667 96.6667,67.5 97.5,66C 107.5,65.3333 117.5,65.3333 127.5,66C 128.078,67.417 129.078,68.2504 130.5,68.5 Z"/></g>
<g><path style="opacity:1" fill="#18024b" d="M 39.5,159.5 C 43.0033,160.872 46.67,161.872 50.5,162.5C 56.3188,163.653 62.3188,163.819 68.5,163C 71.0037,162.302 73.337,161.469 75.5,160.5C 76.1667,160.5 76.8333,160.5 77.5,160.5C 75.6956,175.51 75.0289,190.51 75.5,205.5C 76.9524,226.477 77.9524,247.477 78.5,268.5C 74.0029,269.055 69.8362,268.389 66,266.5C 64.0694,251.225 62.736,235.892 62,220.5C 61.5391,217.423 60.3724,214.756 58.5,212.5C 58.5,211.833 58.5,211.167 58.5,210.5C 58.5543,203.431 57.8876,196.431 56.5,189.5C 54.9922,193.372 53.9922,197.372 53.5,201.5C 52.7168,203.076 51.5501,204.409 50,205.5C 47.4628,226.428 45.9628,247.428 45.5,268.5C 44.5,268.5 43.5,268.5 42.5,268.5C 40.0521,267.527 37.3854,267.194 34.5,267.5C 34.3334,251.497 34.5001,235.497 35,219.5C 36.4129,205.865 37.2462,192.198 37.5,178.5C 37.6686,173.819 38.0019,169.152 38.5,164.5C 39.4511,163.081 39.7845,161.415 39.5,159.5 Z"/></g>
<g><path style="opacity:1" fill="#74244c" d="M 69.5,160.5 C 71.5,160.5 73.5,160.5 75.5,160.5C 73.337,161.469 71.0037,162.302 68.5,163C 62.3188,163.819 56.3188,163.653 50.5,162.5C 56.1764,162.666 61.8431,162.499 67.5,162C 68.4158,161.722 69.0825,161.222 69.5,160.5 Z"/></g>
<g><path style="opacity:0.651" fill="#4d4b53" d="M 273.5,164.5 C 274.833,164.5 276.167,164.5 277.5,164.5C 278.101,168.909 276.434,170.242 272.5,168.5C 273.246,167.264 273.579,165.93 273.5,164.5 Z"/></g>
<g><path style="opacity:1" fill="#110743" d="M 218.5,63.5 C 220.262,64.2623 221.262,65.5956 221.5,67.5C 221.833,139.335 221.499,211.002 220.5,282.5C 220.667,210.499 220.5,138.499 220,66.5C 218.961,65.7562 218.461,64.7562 218.5,63.5 Z"/></g>
<g><path style="opacity:0.831" fill="#5c5b62" d="M 268.5,174.5 C 273.062,174.279 273.728,175.779 270.5,179C 269.207,179.49 267.873,179.657 266.5,179.5C 266.392,177.486 267.058,175.82 268.5,174.5 Z"/></g>
<g><path style="opacity:0.816" fill="#59585f" d="M 260.5,182.5 C 262.346,182.222 263.68,182.889 264.5,184.5C 262.929,186.415 260.929,187.415 258.5,187.5C 258.365,185.446 259.032,183.779 260.5,182.5 Z"/></g>
<g><path style="opacity:0.122" fill="#6a6971" d="M 250.5,188.5 C 251.833,188.5 253.167,188.5 254.5,188.5C 253.969,191.779 251.969,193.113 248.5,192.5C 248.527,190.801 249.194,189.467 250.5,188.5 Z"/></g>
<g><path style="opacity:0.953" fill="#48464e" d="M 237.5,192.5 C 245.297,193.051 245.297,194.051 237.5,195.5C 237.5,194.5 237.5,193.5 237.5,192.5 Z"/></g>
<g><path style="opacity:1" fill="#140f5b" d="M 218.5,63.5 C 218.461,64.7562 218.961,65.7562 220,66.5C 220.5,138.499 220.667,210.499 220.5,282.5C 218.522,283.144 217.189,284.478 216.5,286.5C 214.955,287.452 213.288,287.785 211.5,287.5C 172.832,287.667 134.165,287.5 95.5,287C 94,285.5 92.5,284 91,282.5C 89.8393,246.583 89.3393,210.583 89.5,174.5C 89.5001,138.827 90.1668,103.494 91.5,68.5C 90.8365,103.763 90.5032,139.096 90.5,174.5C 90.3394,210.25 90.8394,245.917 92,281.5C 93.1667,282.667 94.3333,283.833 95.5,285C 134.833,285.667 174.167,285.667 213.5,285C 214.942,284.623 215.942,283.79 216.5,282.5C 217.906,282.027 218.573,281.027 218.5,279.5C 219.833,209.167 219.833,138.833 218.5,68.5C 217.327,66.4959 215.66,64.9959 213.5,64C 202.505,63.5002 191.505,63.3335 180.5,63.5C 180.5,65.1667 180.5,66.8333 180.5,68.5C 163.833,68.5 147.167,68.5 130.5,68.5C 130.5,66.8333 130.5,65.1667 130.5,63.5C 131.267,64.172 131.934,65.0053 132.5,66C 147.672,66.8277 162.672,66.6611 177.5,65.5C 177.5,64.5 177.5,63.5 177.5,62.5C 177.611,61.8826 177.944,61.3826 178.5,61C 190.167,60.3333 201.833,60.3333 213.5,61C 215.491,61.3736 217.158,62.207 218.5,63.5 Z"/></g>
<g><path style="opacity:1" fill="#dfeafa" d="M 130.5,181.5 C 134.904,193.023 131.071,200.356 119,203.5C 106.224,200.942 102.058,193.609 106.5,181.5C 114.409,173.515 122.409,173.515 130.5,181.5 Z"/></g>
<g><path style="opacity:1" fill="#6784c7" d="M 118.5,185.5 C 120.216,186.574 121.216,188.241 121.5,190.5C 114.724,192.246 113.724,190.579 118.5,185.5 Z"/></g>
<g><path style="opacity:1" fill="#dce8f9" d="M 201.5,178.5 C 206.557,183.541 207.891,189.541 205.5,196.5C 202.221,199.269 198.555,201.436 194.5,203C 191.101,203.546 187.768,203.213 184.5,202C 178.23,196.69 176.397,190.19 179,182.5C 185.245,174.745 192.745,173.412 201.5,178.5 Z"/></g>
<g><path style="opacity:1" fill="#7e9cd0" d="M 189.5,185.5 C 191.167,185.5 192.833,185.5 194.5,185.5C 194.5,187.833 194.5,190.167 194.5,192.5C 192.856,192.714 191.356,192.38 190,191.5C 189.505,189.527 189.338,187.527 189.5,185.5 Z"/></g>
<g><path style="opacity:1" fill="#dfebfa" d="M 152.5,203.5 C 152.167,203.5 151.833,203.5 151.5,203.5C 148.634,202.153 146.134,200.153 144,197.5C 139.987,189.768 141.154,182.934 147.5,177C 156.699,173.733 163.865,176.233 169,184.5C 170.474,196.86 164.974,203.194 152.5,203.5 Z"/></g>
<g><path style="opacity:1" fill="#6a89c5" d="M 153.5,185.5 C 154.873,185.343 156.207,185.51 157.5,186C 155.099,186.805 155.266,187.638 158,188.5C 158.49,189.793 158.657,191.127 158.5,192.5C 156.712,192.785 155.045,192.452 153.5,191.5C 157.311,190.262 157.311,189.596 153.5,189.5C 153.5,188.167 153.5,186.833 153.5,185.5 Z"/></g>
<g><path style="opacity:1" fill="#416ce0" d="M 218.5,279.5 C 218.573,281.027 217.906,282.027 216.5,282.5C 214.897,282.312 213.563,282.812 212.5,284C 194.167,284.667 175.833,284.667 157.5,284C 157.833,283.667 158.167,283.333 158.5,283C 154.469,282.519 150.469,281.853 146.5,281C 151.777,279.237 151.777,277.57 146.5,276C 149.179,275.566 151.846,275.732 154.5,276.5C 156.867,276.158 159.2,275.658 161.5,275C 162.056,274.617 162.389,274.117 162.5,273.5C 165.147,270.883 167.314,267.883 169,264.5C 170.498,256.157 167.331,250.49 159.5,247.5C 162.073,247.852 164.406,247.352 166.5,246C 163.832,245.433 161.166,244.933 158.5,244.5C 158.5,243.5 158.5,242.5 158.5,241.5C 155.402,241.587 155.068,241.087 157.5,240C 154.515,239.132 151.515,238.799 148.5,239C 149.167,240 149.833,241 150.5,242C 148.579,242.36 146.912,243.194 145.5,244.5C 145.167,244.167 144.833,243.833 144.5,243.5C 145.167,242.833 145.833,242.167 146.5,241.5C 145.135,240.059 143.635,238.726 142,237.5C 141.25,238.126 140.416,238.626 139.5,239C 139.833,239.333 140.167,239.667 140.5,240C 138.681,240.783 137.348,240.283 136.5,238.5C 139.923,236.425 141.59,233.425 141.5,229.5C 147.053,237.781 154.386,239.615 163.5,235C 169.223,230.297 170.889,224.464 168.5,217.5C 168.679,215.046 168.013,212.879 166.5,211C 167.721,206.035 170.054,205.369 173.5,209C 172.151,210.635 172.318,212.135 174,213.5C 175.707,212.541 177.541,211.875 179.5,211.5C 180.713,211.747 181.38,212.414 181.5,213.5C 175.004,222.999 176.67,230.832 186.5,237C 195.707,238.888 202.374,235.721 206.5,227.5C 207.23,223.969 207.896,220.303 208.5,216.5C 209.242,215.713 210.075,215.047 211,214.5C 211.333,216.5 211.667,218.5 212,220.5C 213.905,217.474 213.739,214.474 211.5,211.5C 209.139,209.806 207.139,207.806 205.5,205.5C 206.668,202.504 206.668,199.504 205.5,196.5C 207.891,189.541 206.557,183.541 201.5,178.5C 201.586,177.504 201.252,176.671 200.5,176C 201.993,174.632 203.493,174.465 205,175.5C 209.795,170.927 214.128,165.927 218,160.5C 218.5,200.165 218.667,239.832 218.5,279.5 Z"/></g>
<g><path style="opacity:1" fill="#dfebfb" d="M 151.5,140.5 C 158.099,140.215 163.599,142.549 168,147.5C 171.167,161.996 165.333,168.829 150.5,168C 142.087,163.436 139.587,156.603 143,147.5C 145.257,144.312 148.09,141.978 151.5,140.5 Z"/></g>
<g><path style="opacity:1" fill="#7b99cd" d="M 153.5,150.5 C 155.144,150.286 156.644,150.62 158,151.5C 158.758,153.769 158.591,155.936 157.5,158C 155.888,158.72 154.388,158.554 153,157.5C 152.297,155.071 152.463,152.738 153.5,150.5 Z"/></g>
<g><path style="opacity:1" fill="#dde9f9" d="M 132.5,159.5 C 130.852,161.429 129.185,163.429 127.5,165.5C 123.228,168.256 118.561,169.089 113.5,168C 104.747,162.981 102.414,155.815 106.5,146.5C 108.34,144.832 110.34,143.332 112.5,142C 126.624,139.635 133.291,145.468 132.5,159.5 Z"/></g>
<g><path style="opacity:1" fill="#e0ebfb" d="M 203.5,146.5 C 204.6,147.605 205.267,148.938 205.5,150.5C 206.042,165.451 199.042,170.951 184.5,167C 174.829,158.098 175.162,149.764 185.5,142C 192.435,140.324 198.435,141.824 203.5,146.5 Z"/></g>
<g><path style="opacity:1" fill="#7995cb" d="M 190.5,150.5 C 191.822,150.33 192.989,150.663 194,151.5C 194.667,153.5 194.667,155.5 194,157.5C 192.667,158.833 191.333,158.833 190,157.5C 189.297,155.071 189.463,152.738 190.5,150.5 Z"/></g>
<g><path style="opacity:1" fill="#3e61b8" d="M 207.5,124.5 C 207.108,128.698 204.775,130.532 200.5,130C 170.835,130.5 141.169,130.667 111.5,130.5C 110.508,130.672 109.842,130.338 109.5,129.5C 139.502,129.667 169.502,129.5 199.5,129C 202.648,128.262 205.315,126.762 207.5,124.5 Z"/></g>
<g><path style="opacity:1" fill="#f6f8fa" d="M 110.5,106.5 C 140.835,106.333 171.168,106.5 201.5,107C 202.244,108.039 203.244,108.539 204.5,108.5C 209.799,112.954 210.799,118.287 207.5,124.5C 205.315,126.762 202.648,128.262 199.5,129C 169.502,129.5 139.502,129.667 109.5,129.5C 107.5,128.167 105.5,126.833 103.5,125.5C 99.0697,116.574 101.403,110.24 110.5,106.5 Z"/></g>
<g><path style="opacity:1" fill="#635f78" d="M 114.5,115.5 C 115.209,114.596 116.209,114.263 117.5,114.5C 117.302,123.208 116.302,123.542 114.5,115.5 Z"/></g>
<g><path style="opacity:1" fill="#2b2643" d="M 110.5,115.5 C 113.81,116.871 113.977,118.204 111,119.5C 110.25,118.874 109.416,118.374 108.5,118C 109.381,117.292 110.047,116.458 110.5,115.5 Z"/></g>
<g><path style="opacity:1" fill="#5a74c3" d="M 110.5,106.5 C 139.995,105.502 169.662,105.169 199.5,105.5C 201.933,105.273 203.599,106.273 204.5,108.5C 203.244,108.539 202.244,108.039 201.5,107C 171.168,106.5 140.835,106.333 110.5,106.5 Z"/></g>
<g><path style="opacity:1" fill="#99b2de" d="M 118.5,87.5 C 122.216,88.3194 125.882,88.3194 129.5,87.5C 132.83,88.0938 136.164,88.7604 139.5,89.5C 138.754,90.7362 138.421,92.0695 138.5,93.5C 132.158,93.6662 125.825,93.4995 119.5,93C 118.594,91.3005 118.261,89.4672 118.5,87.5 Z"/></g>
<g><path style="opacity:1" fill="#98b0dc" d="M 146.5,87.5 C 150.634,88.4849 154.968,88.8182 159.5,88.5C 159.714,90.1439 159.38,91.6439 158.5,93C 153.177,93.4994 147.844,93.666 142.5,93.5C 142.643,91.7376 142.309,90.0709 141.5,88.5C 143.045,87.5481 144.712,87.2148 146.5,87.5 Z"/></g>
<g><path style="opacity:1" fill="#416ce0" d="M 218.5,68.5 C 218.667,97.8352 218.5,127.169 218,156.5C 215.642,159.271 213.142,161.937 210.5,164.5C 209.914,164.291 209.414,163.957 209,163.5C 207.898,159.584 207.231,155.584 207,151.5C 206.617,150.944 206.117,150.611 205.5,150.5C 205.267,148.938 204.6,147.605 203.5,146.5C 202.797,144.284 201.464,142.451 199.5,141C 201.5,141 203.5,141 205.5,141C 205.833,140.667 206.167,140.333 206.5,140C 205.376,139.751 204.376,139.251 203.5,138.5C 203.667,138.167 203.833,137.833 204,137.5C 205.008,137.018 206.175,136.852 207.5,137C 206.781,134.444 205.114,133.277 202.5,133.5C 202.5,134.833 202.5,136.167 202.5,137.5C 198.61,137.728 194.776,137.394 191,136.5C 165.154,137.162 139.321,137.829 113.5,138.5C 112.692,138.192 112.025,137.692 111.5,137C 113.807,135.172 113.474,133.506 110.5,132C 111.056,131.617 111.389,131.117 111.5,130.5C 141.169,130.667 170.835,130.5 200.5,130C 204.775,130.532 207.108,128.698 207.5,124.5C 210.799,118.287 209.799,112.954 204.5,108.5C 203.599,106.273 201.933,105.273 199.5,105.5C 179.671,104.668 159.671,104.168 139.5,104C 140.665,100.443 141.665,96.9434 142.5,93.5C 147.844,93.666 153.177,93.4994 158.5,93C 159.38,91.6439 159.714,90.1439 159.5,88.5C 154.968,88.8182 150.634,88.4849 146.5,87.5C 144.153,86.2843 141.653,86.2843 139,87.5C 134.843,85.1703 130.343,84.1703 125.5,84.5C 125.5,83.5 125.5,82.5 125.5,81.5C 124.5,81.5 123.5,81.5 122.5,81.5C 122.48,83.143 123.147,84.4763 124.5,85.5C 121.894,86.6517 119.227,86.8184 116.5,86C 117.723,83.9479 118.723,81.7812 119.5,79.5C 121.071,78.6906 122.738,78.3573 124.5,78.5C 125.075,74.5265 127.242,73.5265 131,75.5C 130.621,77.075 130.788,78.575 131.5,80C 134.659,80.0114 137.493,80.8447 140,82.5C 141.399,81.7734 142.899,81.2734 144.5,81C 140.878,80.0977 137.545,78.5977 134.5,76.5C 135.167,75.8333 135.833,75.1667 136.5,74.5C 134.328,73.7952 132.328,72.7952 130.5,71.5C 135.167,71.1667 139.833,70.8333 144.5,70.5C 152.368,70.7199 160.035,71.0533 167.5,71.5C 157.517,72.3322 147.517,72.8322 137.5,73C 161.658,74.5029 185.658,74.5029 209.5,73C 199.165,72.7117 189.165,71.8784 179.5,70.5C 179.863,69.8165 180.196,69.1499 180.5,68.5C 180.5,66.8333 180.5,65.1667 180.5,63.5C 191.505,63.3335 202.505,63.5002 213.5,64C 215.66,64.9959 217.327,66.4959 218.5,68.5 Z"/></g>
<g><path style="opacity:1" fill="#7591d5" d="M 162.5,87.5 C 162.34,89.1992 162.506,90.8659 163,92.5C 165.19,91.9495 167.523,91.9495 170,92.5C 172.05,92.309 173.883,91.6424 175.5,90.5C 176.192,91.0253 176.692,91.6919 177,92.5C 177.308,91.6919 177.808,91.0253 178.5,90.5C 183.261,92.37 188.261,93.0367 193.5,92.5C 183.013,93.4944 172.346,93.8278 161.5,93.5C 161.205,91.2646 161.539,89.2646 162.5,87.5 Z"/></g>
<g><path style="opacity:1" fill="#aac0e1" d="M 162.5,87.5 C 171.366,88.3122 180.199,88.6455 189,88.5C 190.833,88.8333 192.667,89.1667 194.5,89.5C 193.873,90.4168 193.539,91.4168 193.5,92.5C 188.261,93.0367 183.261,92.37 178.5,90.5C 177.808,91.0253 177.308,91.6919 177,92.5C 176.692,91.6919 176.192,91.0253 175.5,90.5C 173.883,91.6424 172.05,92.309 170,92.5C 167.523,91.9495 165.19,91.9495 163,92.5C 162.506,90.8659 162.34,89.1992 162.5,87.5 Z"/></g>
<g><path style="opacity:1" fill="#c1c6df" d="M 58.5,210.5 C 57.8894,207.889 56.2228,206.222 53.5,205.5C 53.5,204.167 53.5,202.833 53.5,201.5C 53.9922,197.372 54.9922,193.372 56.5,189.5C 57.8876,196.431 58.5543,203.431 58.5,210.5 Z"/></g>
<g><path style="opacity:1" fill="#dfeafa" d="M 168.5,217.5 C 170.889,224.464 169.223,230.297 163.5,235C 154.386,239.615 147.053,237.781 141.5,229.5C 141.275,224.752 141.775,220.085 143,215.5C 152.184,207.224 160.684,207.891 168.5,217.5 Z"/></g>
<g><path style="opacity:1" fill="#ddeafa" d="M 206.5,227.5 C 202.374,235.721 195.707,238.888 186.5,237C 176.67,230.832 175.004,222.999 181.5,213.5C 184.394,211.199 187.728,209.866 191.5,209.5C 202.147,210.794 207.147,216.794 206.5,227.5 Z"/></g>
<g><path style="opacity:1" fill="#e0ebfb" d="M 130.5,231.5 C 129.094,231.973 128.427,232.973 128.5,234.5C 119.784,239.591 112.284,238.257 106,230.5C 102.376,221.929 104.543,215.429 112.5,211C 128.789,209.111 134.789,215.945 130.5,231.5 Z"/></g>
<g><path style="opacity:0.815" fill="#2f254f" d="M 221.5,67.5 C 222.338,67.8417 222.672,68.5084 222.5,69.5C 222.5,127.167 222.5,184.833 222.5,242.5C 223.159,245.455 223.492,248.455 223.5,251.5C 223.666,260.839 223.5,270.173 223,279.5C 222.624,284.876 219.79,288.042 214.5,289C 206.841,289.5 199.174,289.666 191.5,289.5C 198.167,288.833 204.833,288.167 211.5,287.5C 213.288,287.785 214.955,287.452 216.5,286.5C 217.189,284.478 218.522,283.144 220.5,282.5C 221.499,211.002 221.833,139.335 221.5,67.5 Z"/></g>
<g><path style="opacity:1" fill="#7691c9" d="M 153.5,219.5 C 154.833,219.5 156.167,219.5 157.5,219.5C 157.162,222.011 157.162,224.345 157.5,226.5C 155.833,227.833 154.167,227.833 152.5,226.5C 153.5,225.167 154.5,223.833 155.5,222.5C 154.388,221.735 153.721,220.735 153.5,219.5 Z"/></g>
<g><path style="opacity:1" fill="#7d93cc" d="M 190.5,219.5 C 191.822,219.33 192.989,219.663 194,220.5C 194.667,222.5 194.667,224.5 194,226.5C 192.12,227.93 190.62,227.596 189.5,225.5C 192.827,223.253 192.827,221.753 189.5,221C 190.056,220.617 190.389,220.117 190.5,219.5 Z"/></g>
<g><path style="opacity:0.231" fill="#dc7876" d="M 257.5,236.5 C 257.942,232.846 258.276,229.179 258.5,225.5C 256.801,225.34 255.134,225.506 253.5,226C 252.055,229.243 250.389,232.41 248.5,235.5C 248.043,236.298 247.376,236.631 246.5,236.5C 247.404,230.001 250.737,225.334 256.5,222.5C 258.918,223.729 259.918,225.729 259.5,228.5C 259.432,231.438 258.766,234.105 257.5,236.5 Z"/></g>
<g><path style="opacity:1" fill="#291b48" d="M 53.5,201.5 C 53.5,202.833 53.5,204.167 53.5,205.5C 51.2611,222.073 49.9278,238.739 49.5,255.5C 48.2521,256.334 47.5854,257.667 47.5,259.5C 46.9469,262.817 46.6135,266.15 46.5,269.5C 44.901,269.768 43.5676,269.434 42.5,268.5C 43.5,268.5 44.5,268.5 45.5,268.5C 45.9628,247.428 47.4628,226.428 50,205.5C 51.5501,204.409 52.7168,203.076 53.5,201.5 Z"/></g>
<g><path style="opacity:1" fill="#416ce1" d="M 151.5,203.5 C 151.833,203.5 152.167,203.5 152.5,203.5C 156.519,205.295 160.519,207.295 164.5,209.5C 159.616,208.487 154.449,208.487 149,209.5C 147.715,209.05 146.548,208.383 145.5,207.5C 143.942,209.956 141.942,211.956 139.5,213.5C 138.783,215.828 137.783,217.995 136.5,220C 138.462,223.087 140.129,226.254 141.5,229.5C 141.59,233.425 139.923,236.425 136.5,238.5C 137.348,240.283 138.681,240.783 140.5,240C 140.167,239.667 139.833,239.333 139.5,239C 140.416,238.626 141.25,238.126 142,237.5C 143.635,238.726 145.135,240.059 146.5,241.5C 145.833,242.167 145.167,242.833 144.5,243.5C 144.833,243.833 145.167,244.167 145.5,244.5C 146.912,243.194 148.579,242.36 150.5,242C 149.833,241 149.167,240 148.5,239C 151.515,238.799 154.515,239.132 157.5,240C 155.068,241.087 155.402,241.587 158.5,241.5C 158.5,242.5 158.5,243.5 158.5,244.5C 161.166,244.933 163.832,245.433 166.5,246C 164.406,247.352 162.073,247.852 159.5,247.5C 153.764,246.555 148.764,247.889 144.5,251.5C 142.5,251.167 140.5,250.833 138.5,250.5C 138.713,257.309 139.713,263.975 141.5,270.5C 140.758,271.287 139.925,271.953 139,272.5C 139.796,275.814 139.629,278.814 138.5,281.5C 136.181,281.505 133.681,281.172 131,280.5C 121.38,282.019 111.713,283.019 102,283.5C 101.333,282.167 100.333,281.167 99,280.5C 95.5814,283.367 93.9147,282.367 94,277.5C 93.1674,265.153 93.3341,252.82 94.5,240.5C 96.3293,241.282 97.8293,240.616 99,238.5C 101.044,239.772 102.878,239.439 104.5,237.5C 105.5,238.167 106.5,238.833 107.5,239.5C 108.167,238.5 108.833,237.5 109.5,236.5C 114.523,238.066 119.689,239.066 125,239.5C 126.826,238.99 126.993,238.156 125.5,237C 127.119,236.764 128.119,235.931 128.5,234.5C 128.427,232.973 129.094,231.973 130.5,231.5C 131.586,231.38 132.253,230.713 132.5,229.5C 132.708,223.666 134.374,218.333 137.5,213.5C 135.272,209.184 132.272,208.184 128.5,210.5C 126.679,208.757 124.679,207.257 122.5,206C 124.568,205.313 126.568,205.48 128.5,206.5C 130.833,205.833 133.167,205.167 135.5,204.5C 136.415,203.672 137.081,202.672 137.5,201.5C 136.515,199.902 136.349,198.235 137,196.5C 138.68,195.397 140.18,195.73 141.5,197.5C 141.006,201.942 139.673,205.942 137.5,209.5C 139.484,209.617 141.15,208.95 142.5,207.5C 143.711,206.726 143.711,205.893 142.5,205C 145.513,204.498 148.513,203.998 151.5,203.5 Z"/></g>
<g><path style="opacity:1" fill="#f25656" d="M 257.5,236.5 C 256.978,241.067 255.645,245.4 253.5,249.5C 256.36,250.18 258.86,251.513 261,253.5C 261.789,255.712 261.622,257.712 260.5,259.5C 260.719,252.623 257.719,250.79 251.5,254C 249.066,257.845 246.733,261.679 244.5,265.5C 243.506,260.544 243.173,255.544 243.5,250.5C 247.166,247.306 247.499,243.639 244.5,239.5C 245.167,238.5 245.833,237.5 246.5,236.5C 247.376,236.631 248.043,236.298 248.5,235.5C 250.389,232.41 252.055,229.243 253.5,226C 255.134,225.506 256.801,225.34 258.5,225.5C 258.276,229.179 257.942,232.846 257.5,236.5 Z"/></g>
<g><path style="opacity:0.451" fill="#5b566f" d="M 60.5,236.5 C 62.3904,239.637 62.7237,242.97 61.5,246.5C 60.5206,243.375 60.1872,240.042 60.5,236.5 Z"/></g>
<g><path style="opacity:0.604" fill="#4b405e" d="M 33.5,221.5 C 33.5,237.167 33.5,252.833 33.5,268.5C 36.5,268.5 39.5,268.5 42.5,268.5C 43.5676,269.434 44.901,269.768 46.5,269.5C 46.6135,266.15 46.9469,262.817 47.5,259.5C 47.5854,257.667 48.2521,256.334 49.5,255.5C 49.2593,260.694 48.5926,265.694 47.5,270.5C 42.8333,270.167 38.1667,269.833 33.5,269.5C 32.1667,253.5 32.1667,237.5 33.5,221.5 Z"/></g>
<g><path style="opacity:0.867" fill="#cc5454" d="M 244.5,239.5 C 247.499,243.639 247.166,247.306 243.5,250.5C 242.758,244.882 242.258,239.215 242,233.5C 240.586,229.52 237.753,227.854 233.5,228.5C 233.821,234.026 233.488,239.36 232.5,244.5C 232.167,244.5 231.833,244.5 231.5,244.5C 231.589,241.291 231.256,238.125 230.5,235C 230.689,226.619 234.355,224.453 241.5,228.5C 243.882,231.793 244.882,235.46 244.5,239.5 Z"/></g>
<g><path style="opacity:1" fill="#deebfb" d="M 159.5,247.5 C 167.331,250.49 170.498,256.157 169,264.5C 167.314,267.883 165.147,270.883 162.5,273.5C 158.22,274.54 153.887,274.706 149.5,274C 147.376,272.878 145.543,271.378 144,269.5C 140.653,263.342 140.819,257.342 144.5,251.5C 148.764,247.889 153.764,246.555 159.5,247.5 Z"/></g>
<g><path style="opacity:0.598" fill="#2b1d4c" d="M 77.5,160.5 C 77.8333,160.5 78.1667,160.5 78.5,160.5C 77.9858,180.574 77.9858,200.574 78.5,220.5C 80.2647,237.302 80.9314,253.968 80.5,270.5C 75.3054,270.179 70.3054,270.513 65.5,271.5C 64.2749,270.848 63.6083,269.681 63.5,268C 62.2972,260.878 61.6305,253.712 61.5,246.5C 62.7237,242.97 62.3904,239.637 60.5,236.5C 60.3276,228.455 59.6609,220.455 58.5,212.5C 60.3724,214.756 61.5391,217.423 62,220.5C 62.736,235.892 64.0694,251.225 66,266.5C 69.8362,268.389 74.0029,269.055 78.5,268.5C 77.9524,247.477 76.9524,226.477 75.5,205.5C 75.0289,190.51 75.6956,175.51 77.5,160.5 Z"/></g>
<g><path style="opacity:1" fill="#7a95cb" d="M 154.5,256.5 C 155.822,256.33 156.989,256.663 158,257.5C 158.667,259.5 158.667,261.5 158,263.5C 155.173,264.999 153.34,264.165 152.5,261C 152.519,259.167 153.185,257.667 154.5,256.5 Z"/></g>
<g><path style="opacity:0.973" fill="#1d113f" d="M 37.5,178.5 C 37.2462,192.198 36.4129,205.865 35,219.5C 34.5001,235.497 34.3334,251.497 34.5,267.5C 37.3854,267.194 40.0521,267.527 42.5,268.5C 39.5,268.5 36.5,268.5 33.5,268.5C 33.5,252.833 33.5,237.167 33.5,221.5C 33.5165,210.821 33.8498,200.154 34.5,189.5C 35.9028,185.934 36.9028,182.267 37.5,178.5 Z"/></g>
<g><path style="opacity:1" fill="#e84445" d="M 243.5,250.5 C 243.173,255.544 243.506,260.544 244.5,265.5C 246.733,261.679 249.066,257.845 251.5,254C 257.719,250.79 260.719,252.623 260.5,259.5C 260.649,260.552 260.483,261.552 260,262.5C 258.23,264.742 256.063,266.408 253.5,267.5C 248.204,268.509 242.871,268.676 237.5,268C 232.908,261.748 228.741,255.248 225,248.5C 224.506,246.866 224.34,245.199 224.5,243.5C 226.621,243.325 228.621,243.659 230.5,244.5C 230.833,244.5 231.167,244.5 231.5,244.5C 231.833,245.833 232.167,245.833 232.5,244.5C 233.488,239.36 233.821,234.026 233.5,228.5C 237.753,227.854 240.586,229.52 242,233.5C 242.258,239.215 242.758,244.882 243.5,250.5 Z"/></g>
<g><path style="opacity:0.329" fill="#d8686f" d="M 223.5,240.5 C 227.002,240.076 229.335,241.41 230.5,244.5C 228.621,243.659 226.621,243.325 224.5,243.5C 224.34,245.199 224.506,246.866 225,248.5C 228.741,255.248 232.908,261.748 237.5,268C 242.871,268.676 248.204,268.509 253.5,267.5C 253.167,268.167 252.833,268.833 252.5,269.5C 251.209,269.263 250.209,269.596 249.5,270.5C 245.069,270.769 240.735,270.436 236.5,269.5C 231.654,263.781 227.32,257.781 223.5,251.5C 223.492,248.455 223.159,245.455 222.5,242.5C 223.338,242.158 223.672,241.492 223.5,240.5 Z"/></g>
<g><path style="opacity:0.382" fill="#7f7784" d="M 249.5,270.5 C 250.209,269.596 251.209,269.263 252.5,269.5C 254.167,269.5 255.833,269.5 257.5,269.5C 257.5,272.833 257.5,276.167 257.5,279.5C 256.523,276.713 256.19,273.713 256.5,270.5C 254.167,270.5 251.833,270.5 249.5,270.5 Z"/></g>
<g><path style="opacity:1" fill="#ebc2a7" d="M 33.5,269.5 C 38.1667,269.833 42.8333,270.167 47.5,270.5C 46.6314,272.717 46.298,275.05 46.5,277.5C 43.5176,277.963 40.5176,278.296 37.5,278.5C 36.8333,278.5 36.1667,278.5 35.5,278.5C 35.1667,277.5 34.5,276.833 33.5,276.5C 33.5,274.167 33.5,271.833 33.5,269.5 Z"/></g>
<g><path style="opacity:1" fill="#efc5a9" d="M 80.5,270.5 C 80.5,272.833 80.5,275.167 80.5,277.5C 76.1667,277.5 71.8333,277.5 67.5,277.5C 66.8333,275.5 66.1667,273.5 65.5,271.5C 70.3054,270.513 75.3054,270.179 80.5,270.5 Z"/></g>
<g><path style="opacity:0.769" fill="#838095" d="M 67.5,277.5 C 68.3351,278.943 69.6684,279.943 71.5,280.5C 70.0491,284.535 67.3824,285.535 63.5,283.5C 64.2378,281.06 65.5712,279.06 67.5,277.5 Z"/></g>
<g><path style="opacity:1" fill="#3a244e" d="M 33.5,276.5 C 34.5,276.833 35.1667,277.5 35.5,278.5C 31.1289,281.216 26.4623,283.383 21.5,285C 29.2449,285.733 36.9116,285.233 44.5,283.5C 43.7542,282.264 43.4208,280.93 43.5,279.5C 41.2646,279.795 39.2646,279.461 37.5,278.5C 40.5176,278.296 43.5176,277.963 46.5,277.5C 47.2653,280.096 47.5987,282.763 47.5,285.5C 38.177,286.068 28.8436,286.401 19.5,286.5C 19.5,285.5 19.5,284.5 19.5,283.5C 24.4499,281.692 29.1165,279.358 33.5,276.5 Z"/></g>
<g><path style="opacity:1" fill="#160346" d="M 35.5,278.5 C 36.1667,278.5 36.8333,278.5 37.5,278.5C 39.2646,279.461 41.2646,279.795 43.5,279.5C 43.4208,280.93 43.7542,282.264 44.5,283.5C 36.9116,285.233 29.2449,285.733 21.5,285C 26.4623,283.383 31.1289,281.216 35.5,278.5 Z"/></g>
<g><path style="opacity:1" fill="#220f45" d="M 67.5,277.5 C 71.8333,277.5 76.1667,277.5 80.5,277.5C 81.8333,279.833 81.8333,282.167 80.5,284.5C 74.8707,287.143 68.8707,288.143 62.5,287.5C 61.5573,285.999 61.8906,284.665 63.5,283.5C 67.3824,285.535 70.0491,284.535 71.5,280.5C 69.6684,279.943 68.3351,278.943 67.5,277.5 Z"/></g>
<g><path style="opacity:0.638" fill="#dee8f7" d="M 270.5,284.5 C 274.582,284.344 278.582,284.844 282.5,286C 283.337,287.011 283.67,288.178 283.5,289.5C 279.253,289.822 275.253,288.989 271.5,287C 270.748,286.329 270.414,285.496 270.5,284.5 Z"/></g>
<g><path style="opacity:0.81" fill="#ca7887" d="M 19.5,283.5 C 19.5,284.5 19.5,285.5 19.5,286.5C 28.8436,286.401 38.177,286.068 47.5,285.5C 47.9382,285.435 48.2716,285.601 48.5,286C 47.8333,287 47.1667,288 46.5,289C 38.1667,289.667 29.8333,289.667 21.5,289C 18.5897,287.827 17.9231,285.994 19.5,283.5 Z"/></g>
<g><path style="opacity:0.459" fill="#c68399" d="M 80.5,284.5 C 80.1261,287.888 78.1261,289.722 74.5,290C 70.8333,290.667 67.1667,290.667 63.5,290C 62.7476,289.329 62.4142,288.496 62.5,287.5C 68.8707,288.143 74.8707,287.143 80.5,284.5 Z"/></g>
<g><path style="opacity:0.997" fill="#231645" d="M 236.5,269.5 C 240.735,270.436 245.069,270.769 249.5,270.5C 251.833,270.5 254.167,270.5 256.5,270.5C 256.19,273.713 256.523,276.713 257.5,279.5C 256.651,283.101 255.984,286.768 255.5,290.5C 247.493,290.666 239.493,290.5 231.5,290C 230.809,288.933 230.309,287.766 230,286.5C 229.501,280.843 229.334,275.176 229.5,269.5C 231.833,269.5 234.167,269.5 236.5,269.5 Z"/></g>
<g><path style="opacity:1" fill="#18014a" d="M 232.5,271.5 C 239.5,271.5 246.5,271.5 253.5,271.5C 254.363,277.455 254.697,283.455 254.5,289.5C 247.825,289.666 241.158,289.5 234.5,289C 233.874,288.25 233.374,287.416 233,286.5C 232.501,281.511 232.334,276.511 232.5,271.5 Z"/></g>
</svg>
