<?xml version="1.0" encoding="UTF-8"?>
<svg version="1.1" xmlns="http://www.w3.org/2000/svg" width="512" height="512">
<path d="M0 0 C1.11797614 -0.00507454 2.23595227 -0.01014909 3.38780648 -0.0153774 C5.2379585 -0.01612404 5.2379585 -0.01612404 7.12548733 -0.01688576 C8.43181525 -0.02126801 9.73814318 -0.02565027 11.08405679 -0.03016531 C14.71787693 -0.04213587 18.35168378 -0.04778039 21.98551977 -0.05234647 C25.90185917 -0.05830083 29.81818269 -0.06991118 33.73451138 -0.08063698 C43.19723409 -0.1051662 52.65996207 -0.11978962 62.1227068 -0.13269705 C64.79548634 -0.13640883 67.46826536 -0.14038208 70.14104438 -0.14444971 C86.73852252 -0.16968789 103.33600147 -0.19174112 119.93349457 -0.20417786 C123.77853365 -0.20710756 127.6235727 -0.21006922 131.46861172 -0.21308327 C132.42427945 -0.21382932 133.37994718 -0.21457537 134.36457454 -0.21534403 C149.841782 -0.22799446 165.31887448 -0.26121286 180.7960282 -0.3028851 C196.68640661 -0.34531911 212.5767262 -0.36887465 228.46716112 -0.37409842 C237.38889176 -0.37751105 246.3104428 -0.38924862 255.23211765 -0.42220116 C262.83134885 -0.45022311 270.43036363 -0.46119166 278.02964247 -0.4500057 C281.90541014 -0.44482433 285.78072478 -0.44767118 289.65642643 -0.47247124 C293.86354894 -0.4991666 298.06967753 -0.48688564 302.27685452 -0.47098732 C303.49467414 -0.48486941 304.71249377 -0.49875149 305.96721703 -0.51305425 C313.50889867 -0.44288343 319.40111417 0.71921094 325.64561367 5.13701439 C331.54788681 11.28007892 333.89956576 17.36953552 333.8861227 25.93276024 C333.88868598 26.92050263 333.88868598 26.92050263 333.89130104 27.92819941 C333.89457876 30.12080146 333.88362095 32.31309317 333.87266445 34.50566673 C333.87209996 36.0828863 333.87241763 37.6601064 333.87354946 39.23732567 C333.87412251 43.50960764 333.86237588 47.78177697 333.84840155 52.0540328 C333.83588629 56.52233081 333.83472306 60.99063149 333.83235073 65.45894432 C333.8261383 73.91610236 333.80973068 82.3732086 333.78965175 90.83034384 C333.76728538 100.46028039 333.75629746 110.09021944 333.74626088 119.7201755 C333.72536426 139.52581736 333.69019288 159.33141261 333.64561367 179.13701439 C334.44661495 179.12591133 335.24761623 179.11480827 336.07289028 179.10336876 C343.63506521 179.00303156 351.19691574 178.92698167 358.75958347 178.87795353 C362.64733899 178.85189969 366.53454282 178.81658073 370.42198086 178.75981712 C374.17621535 178.70534387 377.92992047 178.67556217 381.68451977 178.66262817 C383.11426403 178.65341546 384.5439805 178.6354245 385.97349834 178.60836411 C398.58370538 178.37922897 398.58370538 178.37922897 402.48545742 181.52617455 C406.89390247 186.8543743 406.91549396 191.301738 406.77061367 197.94951439 C406.76159023 198.73777611 406.7525668 199.52603783 406.74326992 200.33818626 C406.71983871 202.27126105 406.68397205 204.20417819 406.64561367 206.13701439 C407.37953335 206.13035255 408.11345303 206.12369072 408.86961269 206.11682701 C415.81309057 206.05651694 422.75652889 206.0109393 429.70020199 205.98157787 C433.26935988 205.96597492 436.83829989 205.94483621 440.40733242 205.91069603 C443.8568016 205.87790905 447.30606224 205.86012106 450.75567532 205.85238266 C452.70095103 205.84420708 454.64614379 205.82081894 456.59129238 205.79712486 C464.02121516 205.79572264 470.65614479 205.88690653 476.66905117 210.78545189 C477.1150668 211.35521751 477.56108242 211.92498314 478.02061367 212.51201439 C478.71284023 213.35892845 478.71284023 213.35892845 479.41905117 214.22295189 C481.87954668 218.06257864 482.89521987 221.51314557 482.90288258 226.05591869 C482.90933147 227.02584092 482.91578036 227.99576315 482.92242467 228.99507695 C482.91777887 230.58173422 482.91777887 230.58173422 482.91303921 232.20044518 C482.91757032 233.33021678 482.92210143 234.45998838 482.92676985 235.62399548 C482.93945192 239.41784584 482.937791 243.21155335 482.93614101 247.00542259 C482.94103629 249.72221481 482.94887209 252.43899695 482.95649624 255.1557827 C482.97310433 261.77457269 482.9786057 268.39332706 482.97972099 275.01213614 C482.98067158 280.39286535 482.98478241 285.77358282 482.99112225 291.15430832 C483.00873432 306.4127436 483.0179612 321.67115076 483.0164613 336.92959628 C483.01638139 337.75206525 483.01630147 338.57453423 483.01621914 339.4219265 C483.01613738 340.2454008 483.01605562 341.0688751 483.01597138 341.91730317 C483.01515854 355.26177315 483.03429571 368.60613025 483.06249587 381.95056758 C483.09122923 395.65556295 483.10503591 409.36050327 483.10330832 423.06552953 C483.10264456 430.75864472 483.10813054 438.45164157 483.12966442 446.14472961 C483.14788222 452.69507279 483.15221874 459.24524398 483.13864557 465.79560152 C483.13211862 469.13648743 483.1341645 472.4767744 483.14935207 475.81767273 C483.16476516 479.44295455 483.15552104 483.0673698 483.14008999 486.69263268 C483.15037712 487.74371202 483.16066424 488.79479137 483.1712631 489.87772161 C483.10618702 496.79560208 482.0743623 502.53730986 477.16292608 507.69362813 C473.45485652 510.93478656 470.46840684 512.25903141 465.61032391 512.27123547 C464.7865863 512.27569331 463.96284869 512.28015115 463.11414933 512.28474408 C462.2093989 512.28455972 461.30464846 512.28437536 460.37248135 512.28418541 C458.93046734 512.28970044 458.93046734 512.28970044 457.45932174 512.29532689 C454.22356214 512.30637943 450.98783464 512.31021022 447.75205898 512.31401634 C445.43787947 512.32027976 443.12370097 512.32692645 440.80952358 512.33392906 C434.5119149 512.351349 428.21431382 512.36189336 421.91668701 512.37013459 C417.98398932 512.37528222 414.051294 512.38135803 410.11859798 512.38764572 C399.22912388 512.40451584 388.3396527 512.41915106 377.45016766 512.42639446 C374.62469131 512.42830434 371.79921498 512.43022467 368.97373867 512.4321804 C368.27148626 512.43266414 367.56923385 512.43314789 366.84570107 512.43364628 C355.46948384 512.44194674 344.09337175 512.46728437 332.71720043 512.49976108 C321.03612944 512.53283623 309.35511732 512.55051086 297.67399955 512.5540387 C291.11601822 512.55639194 284.5582031 512.56538829 278.00026608 512.59049988 C271.83117213 512.61374071 265.6623543 512.61802972 259.49322796 512.60773849 C257.2289008 512.60724207 254.96456023 512.61359373 252.70027447 512.62729454 C249.60874416 512.64495433 246.51821114 512.63793586 243.42668056 512.62476158 C242.08293924 512.64121545 242.08293924 512.64121545 240.71205163 512.65800172 C234.85314228 512.59773252 231.46934857 511.50520514 226.64561367 508.13701439 C221.76956299 503.12917855 220.41752737 498.04328384 220.41902065 491.12093163 C220.42934322 490.38631706 220.43966579 489.6517025 220.45030117 488.89482689 C220.45313107 488.126455 220.45596096 487.35808311 220.45887661 486.56642723 C220.47000056 484.13145918 220.49509007 481.69686977 220.52061367 479.26201439 C220.53065356 477.60316556 220.53977764 475.94431093 220.54795742 474.28545189 C220.5699143 470.2358286 220.60438961 466.18648552 220.64561367 462.13701439 C219.5200887 462.13885798 218.39456373 462.14070156 217.23493195 462.14260101 C189.84283221 462.18700887 162.45073714 462.2198701 135.05860901 462.24063873 C121.81196278 462.25094935 108.56534034 462.26500564 95.31870937 462.2878933 C83.77235951 462.30783367 72.22602687 462.32073239 60.67966026 462.32519138 C54.56651421 462.32779764 48.45341745 462.33391916 42.34028721 462.3484745 C36.58413994 462.36206858 30.82806217 462.3662333 25.07190037 462.36322975 C22.96161426 462.36377909 20.85132578 462.36774561 18.74105358 462.37542534 C15.85393606 462.3854151 12.96707899 462.38296854 10.0799551 462.37752342 C8.83526552 462.38626195 8.83526552 462.38626195 7.5654307 462.39517701 C-1.90680029 462.34708195 -10.2010377 460.69425063 -17.35438633 454.13701439 C-22.09008889 447.63106111 -23.47740367 442.06548588 -23.48860741 434.09784317 C-23.49095964 433.38541844 -23.49331187 432.6729937 -23.49573538 431.93898034 C-23.50241954 429.53947149 -23.50196733 427.14001687 -23.50155735 424.7404995 C-23.50485634 423.00763241 -23.50858198 421.27476609 -23.51269883 419.54190075 C-23.52272296 414.77018055 -23.52643629 409.99847294 -23.52908814 405.2267437 C-23.53298995 400.08410164 -23.54256835 394.94146955 -23.551301 389.79883385 C-23.57106859 377.3746886 -23.58113186 364.95054253 -23.59002879 352.52638549 C-23.59441109 346.6770117 -23.59977804 340.82763883 -23.60501766 334.97826576 C-23.62203001 315.53613218 -23.63652459 296.09399917 -23.6437664 276.65185928 C-23.64567633 271.60589535 -23.64759665 266.55993143 -23.64955235 261.51396751 C-23.65003609 260.25980381 -23.65051983 259.0056401 -23.65101822 257.71347143 C-23.65932006 237.39292729 -23.68465956 217.07244199 -23.71713302 196.75192355 C-23.75019386 175.89397855 -23.76821427 155.03606346 -23.77141064 134.17809212 C-23.77357661 122.46520345 -23.782338 110.75240058 -23.80787182 99.03953743 C-23.82956543 89.0651608 -23.83763579 79.09089082 -23.82790504 69.11649327 C-23.82335653 64.02767363 -23.82527874 58.93907411 -23.84466648 53.85028458 C-23.86227132 49.18919665 -23.86132212 44.52848986 -23.84576919 39.86739804 C-23.84338906 38.18363153 -23.84773767 36.49983881 -23.85959784 34.81611238 C-23.92686496 24.63360803 -23.76363746 15.47452892 -16.97938633 7.26201439 C-11.38146618 2.73036474 -7.26431617 0.01748007 0 0 Z " fill="#E4E0E4" transform="translate(26.35438632965088,-0.13701438903808594)"/>
<path d="M0 0 C4.37409304 -0.12489723 8.7472039 -0.21493781 13.12255859 -0.2746582 C14.60646679 -0.29958838 16.09025495 -0.33354625 17.57373047 -0.37719727 C26.5246551 -0.63371399 34.51359355 -0.64816756 42 5 C47.88716804 11.17130929 50.25398633 17.21070678 50.24050903 25.79574585 C50.24307231 26.78348824 50.24307231 26.78348824 50.24568737 27.79118502 C50.24896509 29.98378707 50.23800728 32.17607878 50.22705078 34.36865234 C50.22648629 35.94587192 50.22680396 37.52309201 50.22793579 39.10031128 C50.22850884 43.37259326 50.21676221 47.64476258 50.20278788 51.91701841 C50.19027262 56.38531642 50.18910939 60.8536171 50.18673706 65.32192993 C50.18052463 73.77908797 50.16411701 82.23619421 50.14403808 90.69332945 C50.12167171 100.323266 50.11068379 109.95320505 50.10064721 119.58316112 C50.07975059 139.38880297 50.04457921 159.19439822 50 179 C50.80100128 178.98889694 51.60200256 178.97779388 52.42727661 178.96635437 C59.98945154 178.86601717 67.55130207 178.78996728 75.1139698 178.74093914 C79.00172532 178.7148853 82.88892915 178.67956635 86.77636719 178.62280273 C90.53060168 178.56832948 94.2843068 178.53854778 98.0389061 178.52561378 C99.46865036 178.51640108 100.89836683 178.49841012 102.32788467 178.47134972 C114.93809171 178.24221458 114.93809171 178.24221458 118.83984375 181.38916016 C123.2482888 186.71735991 123.26988029 191.16472361 123.125 197.8125 C123.11597656 198.60076172 123.10695313 199.38902344 123.09765625 200.20117188 C123.07422504 202.13424666 123.03835838 204.0671638 123 206 C123.73391968 205.99333817 124.46783936 205.98667633 125.22399902 205.97981262 C132.1674769 205.91950255 139.11091522 205.87392491 146.05458832 205.84456348 C149.62374621 205.82896053 153.19268622 205.80782182 156.76171875 205.77368164 C160.21118793 205.74089466 163.66044857 205.72310668 167.11006165 205.71536827 C169.05533736 205.70719269 171.00053012 205.68380455 172.94567871 205.66011047 C180.37560149 205.65870825 187.01053112 205.74989214 193.0234375 210.6484375 C193.46945312 211.21820313 193.91546875 211.78796875 194.375 212.375 C195.06722656 213.22191406 195.06722656 213.22191406 195.7734375 214.0859375 C198.23393301 217.92556425 199.2496062 221.37613118 199.25726891 225.9189043 C199.2637178 226.88882653 199.27016669 227.85874876 199.276811 228.85806257 C199.2721652 230.44471983 199.2721652 230.44471983 199.26742554 232.06343079 C199.27195665 233.19320239 199.27648776 234.32297399 199.28115618 235.48698109 C199.29383825 239.28083145 199.29217733 243.07453896 199.29052734 246.8684082 C199.29542262 249.58520043 199.30325842 252.30198256 199.31088257 255.01876831 C199.32749066 261.6375583 199.33299203 268.25631267 199.33410732 274.87512175 C199.33505791 280.25585096 199.33916874 285.63656843 199.34550858 291.01729393 C199.36312065 306.27572921 199.37234753 321.53413637 199.37084763 336.79258189 C199.37076772 337.61505086 199.3706878 338.43751984 199.37060547 339.28491211 C199.37052371 340.10838641 199.37044195 340.93186071 199.37035771 341.78028878 C199.36954487 355.12475876 199.38868204 368.46911586 199.4168822 381.81355319 C199.44561556 395.51854856 199.45942224 409.22348888 199.45769465 422.92851514 C199.45703089 430.62163033 199.46251687 438.31462718 199.48405075 446.00771523 C199.50226855 452.5580584 199.50660507 459.10822959 199.4930319 465.65858714 C199.48650495 468.99947304 199.48855083 472.33976001 199.5037384 475.68065834 C199.51915149 479.30594016 199.50990737 482.93035541 199.49447632 486.55561829 C199.50476344 487.60669763 199.51505057 488.65777698 199.52564943 489.74070722 C199.46057335 496.65858769 198.42874863 502.40029547 193.51731241 507.55661374 C189.80924284 510.79777217 186.82279317 512.12201702 181.96471024 512.13422108 C181.14097263 512.13867892 180.31723502 512.14313676 179.46853566 512.14772969 C178.56378523 512.14754533 177.65903479 512.14736097 176.72686768 512.14717102 C175.28485367 512.15268605 175.28485367 512.15268605 173.81370807 512.1583125 C170.57794847 512.16936504 167.34222097 512.17319583 164.10644531 512.17700195 C161.7922658 512.18326537 159.4780873 512.18991206 157.16390991 512.19691467 C150.86630123 512.21433461 144.56870015 512.22487897 138.27107334 512.2331202 C134.33837565 512.23826783 130.40568033 512.24434365 126.47298431 512.25063133 C115.58351021 512.26750146 104.69403903 512.28213667 93.80455399 512.28938007 C90.97907764 512.29128995 88.15360131 512.29321028 85.328125 512.29516602 C84.62587259 512.29564976 83.92362018 512.2961335 83.2000874 512.2966319 C71.82387017 512.30493235 60.44775808 512.33026998 49.07158676 512.36274669 C37.39051577 512.39582184 25.70950365 512.41349647 14.02838588 512.41702431 C7.47040455 512.41937755 0.91258943 512.4283739 -5.6453476 512.45348549 C-11.81444154 512.47672632 -17.98325937 512.48101533 -24.15238571 512.47072411 C-26.41671287 512.47022768 -28.68105344 512.47657934 -30.9453392 512.49028015 C-34.03686951 512.50793994 -37.12740253 512.50092147 -40.21893311 512.48774719 C-41.56267443 512.50420106 -41.56267443 512.50420106 -42.93356204 512.52098733 C-48.79247139 512.46071813 -52.1762651 511.36819075 -57 508 C-62.33056868 502.5253619 -63.25395474 496.94715594 -63.23046875 489.48828125 C-63.23001053 488.7617485 -63.22955231 488.03521576 -63.2290802 487.28666687 C-63.22606584 485.74098079 -63.21820399 484.19529753 -63.20581055 482.6496582 C-63.18812259 480.39196756 -63.18529759 478.13470415 -63.18554688 475.87695312 C-63.15111333 461.90765769 -62.57069976 447.95591799 -62 434 C-63.09421768 434.00888245 -64.18843536 434.01776489 -65.31581116 434.0269165 C-75.68596177 434.1084097 -86.05604643 434.16815948 -96.42644596 434.20724869 C-101.75652088 434.22802122 -107.08633493 434.25614759 -112.41625977 434.30175781 C-117.57101908 434.34558724 -122.72552929 434.36921456 -127.88046074 434.37950897 C-129.83581901 434.38683435 -131.79116544 434.40113668 -133.74641609 434.42292023 C-155.18040078 434.65196973 -174.01752915 430.39759236 -189.98925781 415.20874023 C-197.39597827 407.80838294 -202.05328053 399.62290029 -206 390 C-206.33386719 389.27425781 -206.66773438 388.54851562 -207.01171875 387.80078125 C-209.61760537 380.41571916 -210.29340123 373.01473259 -210.22705078 365.23583984 C-210.22734283 364.31754395 -210.22763489 363.39924805 -210.22793579 362.453125 C-210.22655638 359.45562879 -210.21106136 356.45838961 -210.1953125 353.4609375 C-210.19157742 351.36772802 -210.18873279 349.27451679 -210.18673706 347.18130493 C-210.17913956 341.7003284 -210.15952479 336.21945965 -210.1373291 330.73852539 C-210.11678662 325.13429217 -210.10771745 319.53004135 -210.09765625 313.92578125 C-210.07627492 302.95046612 -210.0411248 291.97525893 -210 281 C-204.72 282.98 -199.44 284.96 -194 287 C-193.98018066 289.62388672 -193.96036133 292.24777344 -193.93994141 294.95117188 C-193.87292831 303.63647575 -193.7952904 312.32166148 -193.71247292 321.00682831 C-193.6626027 326.27080162 -193.61627193 331.53475577 -193.578125 336.79882812 C-193.54115494 341.8823089 -193.49476341 346.96562561 -193.44193649 352.04896545 C-193.42345472 353.98492037 -193.408324 355.92091037 -193.39665604 357.85691833 C-193.37968685 360.57600579 -193.35062671 363.29472257 -193.31884766 366.01367188 C-193.31668747 366.80777466 -193.31452728 367.60187744 -193.31230164 368.42004395 C-193.11939861 381.40484532 -187.81784676 393.59931544 -179.03515625 403.1328125 C-164.58284561 416.87949496 -148.53737096 417.30033988 -129.7734375 417.4140625 C-127.81474004 417.43279705 -125.85605046 417.45237213 -123.89736938 417.4727478 C-118.77159289 417.52383353 -113.64579029 417.56358462 -108.51989746 417.60089111 C-103.27752349 417.64107932 -98.03525587 417.69210371 -92.79296875 417.7421875 C-82.52871352 417.83866752 -72.26441351 417.92215779 -62 418 C-62 409.09 -62 400.18 -62 391 C-64.4013623 391.02618408 -66.80272461 391.05236816 -69.27685547 391.0793457 C-77.23950506 391.1624514 -85.20217454 391.21752575 -93.16514397 391.25906086 C-97.98988798 391.28507776 -102.81418503 391.32033011 -107.63867188 391.37719727 C-112.30065384 391.43180072 -116.96220778 391.46147992 -121.62448502 391.47438622 C-123.39700171 391.48357551 -125.16949681 391.50151964 -126.94182968 391.52865028 C-138.19622985 391.69397109 -146.59282704 391.31862197 -155.62109375 383.82421875 C-156.22050781 383.11910156 -156.81992188 382.41398437 -157.4375 381.6875 C-158.05496094 380.99011719 -158.67242187 380.29273438 -159.30859375 379.57421875 C-163.2972234 373.50376392 -164.44691973 367.8400006 -164.34057617 360.74804688 C-164.34123329 359.57586609 -164.34123329 359.57586609 -164.34190369 358.38000488 C-164.33983246 355.82598897 -164.31658147 353.27264962 -164.29296875 350.71875 C-164.28736685 348.93656777 -164.28309956 347.1543809 -164.28010559 345.37219238 C-164.26870359 340.70323722 -164.23927685 336.03456627 -164.20599365 331.36572266 C-164.17519216 326.59281254 -164.16157879 321.81985607 -164.14648438 317.046875 C-164.11440233 307.69779245 -164.06326272 298.34891995 -164 289 C-162.0636296 288.49564306 -160.12585854 287.99666126 -158.1875 287.5 C-156.56908203 287.08234375 -156.56908203 287.08234375 -154.91796875 286.65625 C-152 286 -152 286 -149 286 C-148.99453156 287.48338364 -148.99453156 287.48338364 -148.98895264 288.99673462 C-148.95198077 298.32509695 -148.89418417 307.65312982 -148.81609726 316.98124123 C-148.77662016 321.77673316 -148.74443282 326.5720414 -148.72900391 331.36767578 C-148.71383885 335.99741917 -148.67939604 340.62665756 -148.63169098 345.25617599 C-148.61687562 347.02072124 -148.60895889 348.78533859 -148.60811615 350.54994583 C-148.60574515 353.02554145 -148.57865659 355.49974299 -148.54589844 357.97509766 C-148.5509288 358.70158508 -148.55595917 359.42807251 -148.56114197 360.17657471 C-148.45775147 365.24012696 -147.26447617 368.1515666 -144 372 C-139.90799469 375.10110632 -136.34226121 375.44254957 -131.36401367 375.43237305 C-130.61225861 375.4425647 -129.86050354 375.45275635 -129.08596802 375.46325684 C-126.61322526 375.49333357 -124.14087023 375.5026444 -121.66796875 375.51171875 C-119.94874286 375.52856942 -118.22952926 375.54672019 -116.5103302 375.56611633 C-111.99439332 375.61358042 -107.47850628 375.64341295 -102.96240234 375.66955566 C-98.35048582 375.69937934 -93.73874096 375.74590346 -89.12695312 375.79101562 C-80.08472528 375.87700785 -71.04246206 375.94437127 -62 376 C-62.00368717 375.19639479 -62.00737434 374.39278957 -62.01117325 373.56483269 C-62.09951653 354.00996044 -62.16570585 334.45512803 -62.20724869 314.9000988 C-62.22787257 305.44341744 -62.25598985 295.98686929 -62.30175781 286.53027344 C-62.3416309 278.2877497 -62.36743408 270.04532244 -62.37635398 261.80270493 C-62.38156794 257.4383952 -62.39381893 253.07436148 -62.42292023 248.71014023 C-62.45009685 244.60121504 -62.45844051 240.49267924 -62.45243073 236.38367271 C-62.45352996 234.87681779 -62.46147073 233.36994966 -62.4768219 231.86317253 C-62.49678642 229.80225776 -62.49191752 227.74280431 -62.48101807 225.68185425 C-62.48470524 224.52961302 -62.48839241 223.37737179 -62.49219131 222.19021416 C-61.68091995 216.93183332 -58.88825283 213.84963315 -55.125 210.25 C-49.22210492 205.99991554 -43.89605785 205.71662781 -36.8828125 205.8046875 C-35.5970784 205.80893234 -35.5970784 205.80893234 -34.28536987 205.81326294 C-31.56510068 205.82440001 -28.84516859 205.8494924 -26.125 205.875 C-24.27344228 205.88503818 -22.42187936 205.89416256 -20.5703125 205.90234375 C-16.0467464 205.92431812 -11.52343023 205.958803 -7 206 C-7.03480469 204.92621094 -7.06960938 203.85242188 -7.10546875 202.74609375 C-7.13362918 201.30991161 -7.16092691 199.87371238 -7.1875 198.4375 C-7.21263672 197.73302734 -7.23777344 197.02855469 -7.26367188 196.30273438 C-7.34433686 190.46796746 -6.39832505 185.48084807 -2.18359375 181.12109375 C0.54449641 179.72044639 2.8948351 179.40398446 5.9375 179.0625 C10.68507524 178.37352262 13.6635969 177.68154825 17 174 C18.36056667 171.27886666 18.13220048 169.13508049 18.14044189 166.08750916 C18.14615204 164.827229 18.15186218 163.56694885 18.15774536 162.26847839 C18.15899081 160.86380015 18.16011589 159.45912179 18.16113281 158.05444336 C18.1657602 156.58108394 18.17078475 155.10772572 18.17617798 153.6343689 C18.18931693 149.62368082 18.19575055 145.61300951 18.20018864 141.60230327 C18.20311866 139.09526961 18.20722347 136.58824054 18.21169281 134.08120918 C18.22537543 126.23394063 18.23503675 118.38668256 18.2388947 110.5394029 C18.24336902 101.48819595 18.26088452 92.43714049 18.2898953 83.38597959 C18.3115467 76.38712727 18.32160093 69.38831745 18.32293582 62.38943201 C18.32398193 58.21123692 18.32984763 54.03318409 18.34775543 49.85502434 C18.36429464 45.91927441 18.36636343 41.98377274 18.35761642 38.04800034 C18.356849 36.60853343 18.36114961 35.16905287 18.37107468 33.72961998 C18.43257148 24.24945083 18.39732119 14.78276539 11.671875 7.3515625 C8.19303852 4.53923208 4.07335858 2.78753211 0 1 C0 0.67 0 0.34 0 0 Z " fill="#FEEFAC" transform="translate(310,0)"/>
<path d="M0 0 C2.83392926 -0.08174796 5.66544819 -0.14084985 8.5 -0.1875 C9.29148437 -0.21263672 10.08296875 -0.23777344 10.8984375 -0.26367188 C17.23195162 -0.34154295 22.9439787 0.51034558 28.0234375 4.6484375 C28.46945312 5.21820313 28.91546875 5.78796875 29.375 6.375 C30.06722656 7.22191406 30.06722656 7.22191406 30.7734375 8.0859375 C33.23393301 11.92556425 34.2496062 15.37613118 34.25726891 19.9189043 C34.2637178 20.88882653 34.27016669 21.85874876 34.276811 22.85806257 C34.2721652 24.44471983 34.2721652 24.44471983 34.26742554 26.06343079 C34.27195665 27.19320239 34.27648776 28.32297399 34.28115618 29.48698109 C34.29383825 33.28083145 34.29217733 37.07453896 34.29052734 40.8684082 C34.29542262 43.58520043 34.30325842 46.30198256 34.31088257 49.01876831 C34.32749066 55.6375583 34.33299203 62.25631267 34.33410732 68.87512175 C34.33505791 74.25585096 34.33916874 79.63656843 34.34550858 85.01729393 C34.36312065 100.27572921 34.37234753 115.53413637 34.37084763 130.79258189 C34.37076772 131.61505086 34.3706878 132.43751984 34.37060547 133.28491211 C34.37052371 134.10838641 34.37044195 134.93186071 34.37035771 135.78028878 C34.36954487 149.12475876 34.38868204 162.46911586 34.4168822 175.81355319 C34.44561556 189.51854856 34.45942224 203.22348888 34.45769465 216.92851514 C34.45703089 224.62163033 34.46251687 232.31462718 34.48405075 240.00771523 C34.50226855 246.5580584 34.50660507 253.10822959 34.4930319 259.65858714 C34.48650495 262.99947304 34.48855083 266.33976001 34.5037384 269.68065834 C34.51915149 273.30594016 34.50990737 276.93035541 34.49447632 280.55561829 C34.50476344 281.60669763 34.51505057 282.65777698 34.52564943 283.74070722 C34.46057335 290.65858769 33.42874863 296.40029547 28.51731241 301.55661374 C24.80924284 304.79777217 21.82279317 306.12201702 16.96471024 306.13422108 C15.72910382 306.14090784 15.72910382 306.14090784 14.46853566 306.14772969 C13.56378523 306.14754533 12.65903479 306.14736097 11.72686768 306.14717102 C10.28485367 306.15268605 10.28485367 306.15268605 8.81370807 306.1583125 C5.57794847 306.16936504 2.34222097 306.17319583 -0.89355469 306.17700195 C-3.2077342 306.18326537 -5.5219127 306.18991206 -7.83609009 306.19691467 C-14.13369877 306.21433461 -20.43129985 306.22487897 -26.72892666 306.2331202 C-30.66162435 306.23826783 -34.59431967 306.24434365 -38.52701569 306.25063133 C-49.41648979 306.26750146 -60.30596097 306.28213667 -71.19544601 306.28938007 C-74.02092236 306.29128995 -76.84639869 306.29321028 -79.671875 306.29516602 C-80.37412741 306.29564976 -81.07637982 306.2961335 -81.7999126 306.2966319 C-93.17612983 306.30493235 -104.55224192 306.33026998 -115.92841324 306.36274669 C-127.60948423 306.39582184 -139.29049635 306.41349647 -150.97161412 306.41702431 C-157.52959545 306.41937755 -164.08741057 306.4283739 -170.6453476 306.45348549 C-176.81444154 306.47672632 -182.98325937 306.48101533 -189.15238571 306.47072411 C-191.41671287 306.47022768 -193.68105344 306.47657934 -195.9453392 306.49028015 C-199.03686951 306.50793994 -202.12740253 306.50092147 -205.21893311 306.48774719 C-206.56267443 306.50420106 -206.56267443 306.50420106 -207.93356204 306.52098733 C-213.79247139 306.46071813 -217.1762651 305.36819075 -222 302 C-227.33056868 296.5253619 -228.25395474 290.94715594 -228.23046875 283.48828125 C-228.23001053 282.7617485 -228.22955231 282.03521576 -228.2290802 281.28666687 C-228.22606584 279.74098079 -228.21820399 278.19529753 -228.20581055 276.6496582 C-228.18812259 274.39196756 -228.18529759 272.13470415 -228.18554688 269.87695312 C-228.15111333 255.90765769 -227.57069976 241.95591799 -227 228 C-228.09421768 228.00888245 -229.18843536 228.01776489 -230.31581116 228.0269165 C-240.68596177 228.1084097 -251.05604643 228.16815948 -261.42644596 228.20724869 C-266.75652088 228.22802122 -272.08633493 228.25614759 -277.41625977 228.30175781 C-282.57101908 228.34558724 -287.72552929 228.36921456 -292.88046074 228.37950897 C-294.83581901 228.38683435 -296.79116544 228.40113668 -298.74641609 228.42292023 C-320.18040078 228.65196973 -339.01752915 224.39759236 -354.98925781 209.20874023 C-362.39597827 201.80838294 -367.05328053 193.62290029 -371 184 C-371.50080078 182.91138672 -371.50080078 182.91138672 -372.01171875 181.80078125 C-374.61760537 174.41571916 -375.29340123 167.01473259 -375.22705078 159.23583984 C-375.22734283 158.31754395 -375.22763489 157.39924805 -375.22793579 156.453125 C-375.22655638 153.45562879 -375.21106136 150.45838961 -375.1953125 147.4609375 C-375.19157742 145.36772802 -375.18873279 143.27451679 -375.18673706 141.18130493 C-375.17913956 135.7003284 -375.15952479 130.21945965 -375.1373291 124.73852539 C-375.11678662 119.13429217 -375.10771745 113.53004135 -375.09765625 107.92578125 C-375.07627492 96.95046612 -375.0411248 85.97525893 -375 75 C-369.72 76.98 -364.44 78.96 -359 81 C-358.98018066 83.62388672 -358.96036133 86.24777344 -358.93994141 88.95117188 C-358.87292831 97.63647575 -358.7952904 106.32166148 -358.71247292 115.00682831 C-358.6626027 120.27080162 -358.61627193 125.53475577 -358.578125 130.79882812 C-358.54115494 135.8823089 -358.49476341 140.96562561 -358.44193649 146.04896545 C-358.42345472 147.98492037 -358.408324 149.92091037 -358.39665604 151.85691833 C-358.37968685 154.57600579 -358.35062671 157.29472257 -358.31884766 160.01367188 C-358.31668747 160.80777466 -358.31452728 161.60187744 -358.31230164 162.42004395 C-358.11939861 175.40484532 -352.81784676 187.59931544 -344.03515625 197.1328125 C-329.58284561 210.87949496 -313.53737096 211.30033988 -294.7734375 211.4140625 C-292.81474004 211.43279705 -290.85605046 211.45237213 -288.89736938 211.4727478 C-283.77159289 211.52383353 -278.64579029 211.56358462 -273.51989746 211.60089111 C-268.27752349 211.64107932 -263.03525587 211.69210371 -257.79296875 211.7421875 C-247.52871352 211.83866752 -237.26441351 211.92215779 -227 212 C-227 203.09 -227 194.18 -227 185 C-229.4013623 185.02618408 -231.80272461 185.05236816 -234.27685547 185.0793457 C-242.23950506 185.1624514 -250.20217454 185.21752575 -258.16514397 185.25906086 C-262.98988798 185.28507776 -267.81418503 185.32033011 -272.63867188 185.37719727 C-277.30065384 185.43180072 -281.96220778 185.46147992 -286.62448502 185.47438622 C-288.39700171 185.48357551 -290.16949681 185.50151964 -291.94182968 185.52865028 C-303.19622985 185.69397109 -311.59282704 185.31862197 -320.62109375 177.82421875 C-321.22050781 177.11910156 -321.81992187 176.41398438 -322.4375 175.6875 C-323.05496094 174.99011719 -323.67242187 174.29273438 -324.30859375 173.57421875 C-328.2972234 167.50376392 -329.44691973 161.8400006 -329.34057617 154.74804688 C-329.34123329 153.57586609 -329.34123329 153.57586609 -329.34190369 152.38000488 C-329.33983246 149.82598897 -329.31658147 147.27264962 -329.29296875 144.71875 C-329.28736685 142.93656777 -329.28309956 141.1543809 -329.28010559 139.37219238 C-329.26870359 134.70323722 -329.23927685 130.03456627 -329.20599365 125.36572266 C-329.17519216 120.59281254 -329.16157879 115.81985607 -329.14648438 111.046875 C-329.11440233 101.69779245 -329.06326272 92.34891995 -329 83 C-327.0636296 82.49564306 -325.12585854 81.99666126 -323.1875 81.5 C-322.10855469 81.2215625 -321.02960938 80.943125 -319.91796875 80.65625 C-317 80 -317 80 -314 80 C-313.99453156 81.48338364 -313.99453156 81.48338364 -313.98895264 82.99673462 C-313.95198077 92.32509695 -313.89418417 101.65312982 -313.81609726 110.98124123 C-313.77662016 115.77673316 -313.74443282 120.5720414 -313.72900391 125.36767578 C-313.71383885 129.99741917 -313.67939604 134.62665756 -313.63169098 139.25617599 C-313.61687562 141.02072124 -313.60895889 142.78533859 -313.60811615 144.54994583 C-313.60574515 147.02554145 -313.57865659 149.49974299 -313.54589844 151.97509766 C-313.5509288 152.70158508 -313.55595917 153.42807251 -313.56114197 154.17657471 C-313.45775147 159.24012696 -312.26447617 162.1515666 -309 166 C-304.90799469 169.10110632 -301.34226121 169.44254957 -296.36401367 169.43237305 C-295.23638107 169.44766052 -295.23638107 169.44766052 -294.08596802 169.46325684 C-291.61322526 169.49333357 -289.14087023 169.5026444 -286.66796875 169.51171875 C-284.94874286 169.52856942 -283.22952926 169.54672019 -281.5103302 169.56611633 C-276.99439332 169.61358042 -272.47850628 169.64341295 -267.96240234 169.66955566 C-263.35048582 169.69937934 -258.73874096 169.74590346 -254.12695312 169.79101562 C-245.08472528 169.87700785 -236.04246206 169.94437127 -227 170 C-227.00368717 169.19639479 -227.00737434 168.39278957 -227.01117325 167.56483269 C-227.09951653 148.00996044 -227.16570585 128.45512803 -227.20724869 108.9000988 C-227.22787257 99.44341744 -227.25598985 89.98686929 -227.30175781 80.53027344 C-227.3416309 72.2877497 -227.36743408 64.04532244 -227.37635398 55.80270493 C-227.38156794 51.4383952 -227.39381893 47.07436148 -227.42292023 42.71014023 C-227.45009685 38.60121504 -227.45844051 34.49267924 -227.45243073 30.38367271 C-227.45352996 28.87681779 -227.46147073 27.36994966 -227.4768219 25.86317253 C-227.49678642 23.80225776 -227.49191752 21.74280431 -227.48101807 19.68185425 C-227.48470524 18.52961302 -227.48839241 17.37737179 -227.49219131 16.19021416 C-226.47096659 9.5709881 -222.05026777 5.84259505 -217 2 C-214.54724859 0.7736243 -212.9494219 0.88584686 -210.2109375 0.90234375 C-209.26992188 0.90556641 -208.32890625 0.90878906 -207.359375 0.91210938 C-205.88210938 0.92467773 -205.88210938 0.92467773 -204.375 0.9375 C-203.38242187 0.94201172 -202.38984375 0.94652344 -201.3671875 0.95117188 C-198.9113984 0.96297855 -196.45572896 0.979446 -194 1 C-193.99940291 1.56344502 -193.99880582 2.12689003 -193.99819064 2.70740914 C-193.96231487 36.08447237 -193.90570399 69.46142816 -193.82207905 102.83840485 C-193.81206131 106.84392969 -193.80221723 110.84945494 -193.79248047 114.85498047 C-193.7905391 115.65242537 -193.78859772 116.44987027 -193.78659752 117.27148017 C-193.75555666 130.19212687 -193.73859106 143.11275579 -193.72680578 156.03343275 C-193.714405 169.2862883 -193.68692796 182.53905041 -193.64538693 195.79184699 C-193.62022066 203.97287549 -193.60688499 212.15374908 -193.60857043 220.33481684 C-193.60860363 226.60277292 -193.58768492 232.87049791 -193.55883217 239.13838387 C-193.55028708 241.71355656 -193.5486142 244.28876228 -193.55419731 246.8639431 C-193.56078925 250.37052221 -193.54303092 253.87614651 -193.51898193 257.38262939 C-193.52674235 258.40986122 -193.53450277 259.43709305 -193.54249835 260.49545312 C-193.49532625 265.82619087 -193.49532625 265.82619087 -191.43015671 270.63268089 C-188.14980217 272.47836081 -185.26461284 272.54853339 -181.59851074 272.49447632 C-180.85062522 272.49930515 -180.10273971 272.50413398 -179.33219099 272.50910914 C-176.82462159 272.52038637 -174.31807058 272.503057 -171.81054688 272.48583984 C-170.01351139 272.48798556 -168.21647726 272.49186304 -166.41944885 272.49734497 C-161.53720501 272.50704694 -156.65532629 272.49172433 -151.7731266 272.47143888 C-146.66739943 272.45388466 -141.56168382 272.45739265 -136.45593262 272.4581604 C-127.88120405 272.45628672 -119.30661695 272.43891389 -110.73193359 272.41162109 C-100.81396342 272.3801696 -90.89614821 272.36962487 -80.97813177 272.3710922 C-71.44308665 272.37231243 -61.90809207 272.36210455 -52.37306213 272.34550858 C-48.31254177 272.33844212 -44.25203928 272.33478196 -40.19151306 272.33372116 C-35.41119136 272.33171372 -30.63100004 272.31951578 -25.85072136 272.29938889 C-24.09471879 272.29354171 -22.33870121 272.29108758 -20.58268929 272.29224396 C-18.18881684 272.29322392 -15.79531072 272.28192866 -13.40148926 272.26742554 C-12.70382556 272.27052274 -12.00616187 272.27361995 -11.28735685 272.276811 C-7.71489554 272.24097913 -4.98320792 272.06652477 -2 270 C-0.81686182 267.63372364 -0.86996193 266.20835027 -0.8613348 263.56844902 C-0.85586036 262.63091691 -0.85038591 261.6933848 -0.84474558 260.72744262 C-0.84376747 259.69049416 -0.84278936 258.6535457 -0.84178162 257.58517456 C-0.83437465 255.94102324 -0.83437465 255.94102324 -0.82681805 254.26365674 C-0.81137817 250.566235 -0.80306491 246.8688307 -0.79467773 243.17138672 C-0.7851043 240.53072858 -0.77513833 237.89007466 -0.76467896 235.24942017 C-0.74289735 229.55163172 -0.72475904 223.85384093 -0.70907402 218.15603256 C-0.68639071 209.91789257 -0.65824577 201.67977841 -0.62875474 193.4416603 C-0.58105994 180.07684092 -0.53780088 166.71201099 -0.49731445 153.34716797 C-0.45796913 140.36213357 -0.41654522 127.37710856 -0.37231445 114.39208984 C-0.36822804 113.19210579 -0.36822804 113.19210579 -0.36405908 111.96787964 C-0.35037976 107.95468969 -0.33665946 103.94149989 -0.32291877 99.92831016 C-0.20892433 66.6188928 -0.10212155 33.30945587 0 0 Z " fill="#FD4755" transform="translate(475,206)"/>
<path d="M0 0 C14.49833242 11.37294339 26.30628736 26.49715176 29.125 45.1875 C31.26074381 67.26185739 27.48063594 86.20639497 13.99609375 103.99609375 C4.32048012 115.3679688 -10.06063283 125.09439037 -24.875 128.1875 C-26.8749211 128.20526461 -28.87509425 128.20691656 -30.875 128.1875 C-30.83686286 138.46298393 -30.77738467 148.73810577 -30.69109726 159.01330471 C-30.6516861 163.78516905 -30.61946651 168.55685062 -30.60400391 173.32885742 C-30.58879529 177.93916211 -30.55427558 182.54896409 -30.50669098 187.15904427 C-30.49192041 188.9127368 -30.48396148 190.66650113 -30.48311615 192.42025566 C-30.67201694 205.38027204 -30.67201694 205.38027204 -25.875 217.1875 C-25.26395416 218.12601051 -25.26395416 218.12601051 -24.64056396 219.08348083 C-20.51986586 224.57754904 -14.82802164 228.4435425 -7.94277191 229.47772598 C-2.36545109 229.96497576 3.22642788 229.90898708 8.8203125 229.89453125 C10.62207701 229.90766497 12.42382686 229.9229743 14.22555542 229.94035339 C18.93717294 229.98002069 23.64840369 229.99038199 28.36016846 229.99438477 C33.18033444 230.00375083 38.00027643 230.04118595 42.8203125 230.07617188 C52.25525111 230.14056178 61.68985537 230.17135586 71.125 230.1875 C71.125 239.0975 71.125 248.0075 71.125 257.1875 C59.8239352 257.23279066 48.52293127 257.26943909 37.22179604 257.29112434 C31.97351315 257.30153525 26.7252959 257.31564504 21.47705078 257.33837891 C16.40662369 257.36020359 11.3362595 257.37208886 6.26578903 257.37725449 C4.33702988 257.38093302 2.40827395 257.38811603 0.47954178 257.39896011 C-18.68402483 257.50236239 -32.97519783 255.70930597 -47.46484375 241.76171875 C-57.2669465 231.29237399 -61.05192301 219.55790068 -60.98852539 205.42822266 C-60.98867142 204.56903229 -60.98881744 203.70984192 -60.9889679 202.82461548 C-60.98827429 200.00023831 -60.9805078 197.17592807 -60.97265625 194.3515625 C-60.97079011 192.38715654 -60.96936713 190.4227501 -60.96836853 188.45834351 C-60.96455879 183.29956772 -60.95474171 178.14082029 -60.94366455 172.98205566 C-60.93341721 167.71330143 -60.9288638 162.44454259 -60.92382812 157.17578125 C-60.91311803 146.84634174 -60.89606018 136.51692323 -60.875 126.1875 C-61.79772705 126.04957031 -62.7204541 125.91164063 -63.67114258 125.76953125 C-77.91171488 123.18250661 -91.58802419 111.54812872 -99.875 100.1875 C-110.99055439 82.82981525 -115.91941071 63.41828448 -111.84106445 42.99951172 C-107.40758861 23.9789946 -95.42757472 7.49083504 -78.875 -2.8125 C-53.60676947 -16.9963727 -24.06456499 -16.7805241 0 0 Z " fill="#FED05B" transform="translate(176.875,160.8125)"/>
<path d="M0 0 C4.37409304 -0.12489723 8.7472039 -0.21493781 13.12255859 -0.2746582 C14.60646679 -0.29958838 16.09025495 -0.33354625 17.57373047 -0.37719727 C26.5246551 -0.63371399 34.51359355 -0.64816756 42 5 C47.88716804 11.17130929 50.25398633 17.21070678 50.24050903 25.79574585 C50.24221788 26.45424078 50.24392673 27.1127357 50.24568737 27.79118502 C50.24896509 29.98378707 50.23800728 32.17607878 50.22705078 34.36865234 C50.22648629 35.94587192 50.22680396 37.52309201 50.22793579 39.10031128 C50.22850884 43.37259326 50.21676221 47.64476258 50.20278788 51.91701841 C50.19027262 56.38531642 50.18910939 60.8536171 50.18673706 65.32192993 C50.18052463 73.77908797 50.16411701 82.23619421 50.14403808 90.69332945 C50.12167171 100.323266 50.11068379 109.95320505 50.10064721 119.58316112 C50.07975059 139.38880297 50.04457921 159.19439822 50 179 C51.20150192 178.98334541 51.20150192 178.98334541 52.42727661 178.96635437 C59.98945154 178.86601717 67.55130207 178.78996728 75.1139698 178.74093914 C79.00172532 178.7148853 82.88892915 178.67956635 86.77636719 178.62280273 C90.53060168 178.56832948 94.2843068 178.53854778 98.0389061 178.52561378 C99.46865036 178.51640108 100.89836683 178.49841012 102.32788467 178.47134972 C114.93793528 178.24221742 114.93793528 178.24221742 118.84008789 181.38623047 C123.00816616 186.43013755 123.30382617 190.67026976 123.1875 197.0625 C123.17887939 197.81184814 123.17025879 198.56119629 123.16137695 199.33325195 C122.85026786 218.86630952 122.85026786 218.86630952 119 224 C113.5940545 227.74047744 109.73077922 228.58440056 103.23828125 228.51757812 C102.3901889 228.5245874 101.54209656 228.53159668 100.66830444 228.53881836 C97.88269691 228.55633176 95.09811672 228.5447995 92.3125 228.53125 C90.36629035 228.53394683 88.42008201 228.53783084 86.47387695 228.54284668 C82.40205004 228.54873271 78.33057496 228.5402076 74.25878906 228.52148438 C69.05009452 228.49869545 63.84222451 228.51182332 58.63356018 228.53577423 C54.61683994 228.55025638 50.60031387 228.54561513 46.58358765 228.53526306 C44.66352235 228.53260246 42.7434392 228.535842 40.82339478 228.54518127 C38.13569717 228.55538675 35.44931859 228.53979049 32.76171875 228.51757812 C31.97501801 228.52567505 31.18831726 228.53377197 30.3777771 228.54211426 C24.82858395 228.45752635 21.57782925 227.16928039 17 224 C12.70012157 218.31306401 14 214.90873134 14 207 C-5.8 207 -25.6 207 -46 207 C-46 206.67 -46 206.34 -46 206 C-33.13 206 -20.26 206 -7 206 C-7 200.72 -7 195.44 -7 190 C-3.48001311 181.78669725 -3.48001311 181.78669725 0 180 C2.83984375 179.41015625 2.83984375 179.41015625 5.9375 179.0625 C10.68507524 178.37352262 13.6635969 177.68154825 17 174 C18.36056667 171.27886666 18.13220048 169.13508049 18.14044189 166.08750916 C18.14615204 164.827229 18.15186218 163.56694885 18.15774536 162.26847839 C18.15899081 160.86380015 18.16011589 159.45912179 18.16113281 158.05444336 C18.1657602 156.58108394 18.17078475 155.10772572 18.17617798 153.6343689 C18.18931693 149.62368082 18.19575055 145.61300951 18.20018864 141.60230327 C18.20311866 139.09526961 18.20722347 136.58824054 18.21169281 134.08120918 C18.22537543 126.23394063 18.23503675 118.38668256 18.2388947 110.5394029 C18.24336902 101.48819595 18.26088452 92.43714049 18.2898953 83.38597959 C18.3115467 76.38712727 18.32160093 69.38831745 18.32293582 62.38943201 C18.32398193 58.21123692 18.32984763 54.03318409 18.34775543 49.85502434 C18.36429464 45.91927441 18.36636343 41.98377274 18.35761642 38.04800034 C18.356849 36.60853343 18.36114961 35.16905287 18.37107468 33.72961998 C18.43257148 24.24945083 18.39732119 14.78276539 11.671875 7.3515625 C8.19303852 4.53923208 4.07335858 2.78753211 0 1 C0 0.67 0 0.34 0 0 Z " fill="#D7D0D5" transform="translate(310,0)"/>
<path d="M0 0 C0.87406779 -0.00623996 1.74813559 -0.01247993 2.64869028 -0.01890898 C5.57137258 -0.03483683 8.49322064 -0.02223544 11.41590881 -0.00964355 C13.51378872 -0.0150648 15.61166481 -0.02218747 17.70953369 -0.03088379 C23.40377661 -0.0491208 29.09772965 -0.04204761 34.79197764 -0.02936745 C40.75179879 -0.01924049 46.71159512 -0.02863241 52.67141724 -0.03491211 C62.68101964 -0.04218994 72.69050401 -0.03259776 82.7000885 -0.0135498 C94.26995304 0.00821317 105.83953556 0.00117216 117.40939325 -0.02085543 C127.34417316 -0.03901256 137.27886821 -0.041566 147.21365935 -0.03110075 C153.14670754 -0.02486682 159.07962322 -0.02402743 165.01266289 -0.0372467 C170.59171166 -0.04880881 176.17039724 -0.04077248 181.74940681 -0.01766968 C183.79602582 -0.01238432 185.84267543 -0.01389338 187.88928223 -0.02272034 C190.68514454 -0.03366621 193.47984622 -0.01992355 196.27563477 0 C197.08381509 -0.00892289 197.89199542 -0.01784577 198.72466606 -0.02703905 C204.32468759 0.05026016 207.59031755 1.29016075 212.2013092 4.50793457 C216.81137838 10.33236343 216.84308246 15.69426284 216.7638092 22.94543457 C216.78765686 23.94381348 216.81150452 24.94219238 216.83607483 25.9708252 C216.82451465 31.83183432 216.05232117 35.92667477 212.86122131 40.87145996 C208.75964074 44.91512735 204.382387 45.85191652 198.85374737 45.91382688 C197.63710762 45.90481181 197.63710762 45.90481181 196.39588928 45.89561462 C195.52111592 45.90100016 194.64634256 45.9063857 193.74506092 45.91193444 C190.82017677 45.9262173 187.89574497 45.91910947 184.97084045 45.9119873 C182.87133928 45.91769064 180.7718412 45.92465476 178.67234802 45.93278503 C172.9740904 45.95073418 167.27598661 45.94954488 161.5777092 45.94384265 C156.82104411 45.94075376 152.06440871 45.94683982 147.30774784 45.9528814 C136.0876729 45.9669304 124.8676741 45.9653618 113.64759827 45.95397949 C102.06977026 45.94249386 90.49217376 45.95658069 78.91437626 45.98337597 C68.97452442 46.00551969 59.03474533 46.01217345 49.09487057 46.00629956 C43.15793247 46.0029261 37.22114284 46.00537112 31.28422546 46.02255058 C25.70273251 46.03799669 20.12158317 46.0340899 14.54010391 46.01524544 C12.49144685 46.01155331 10.44276446 46.01468611 8.39413071 46.02513123 C5.5979322 46.03829979 2.80287819 46.02683031 0.00672913 46.00914001 C-1.20991063 46.02354752 -1.20991063 46.02354752 -2.45112896 46.0382461 C-7.68393712 45.97010653 -10.6444059 44.96131467 -14.7986908 41.50793457 C-19.3737305 35.59088322 -19.41104411 30.32026291 -19.2986908 23.00793457 C-19.31415955 22.00117676 -19.3296283 20.99441895 -19.3455658 19.95715332 C-19.31226361 13.60476123 -18.72183541 9.58186827 -14.7986908 4.50793457 C-9.81609909 0.36747627 -6.19590309 -0.06821889 0 0 Z " fill="#0ED1B3" transform="translate(82.79869079589844,60.4920654296875)"/>
<path d="M0 0 C2.83392926 -0.08174796 5.66544819 -0.14084985 8.5 -0.1875 C9.29148437 -0.21263672 10.08296875 -0.23777344 10.8984375 -0.26367188 C17.23195162 -0.34154295 22.9439787 0.51034558 28.0234375 4.6484375 C28.69246094 5.50308594 28.69246094 5.50308594 29.375 6.375 C29.83648437 6.93960938 30.29796875 7.50421875 30.7734375 8.0859375 C33.23393301 11.92556425 34.2496062 15.37613118 34.25726891 19.9189043 C34.2637178 20.88882653 34.27016669 21.85874876 34.276811 22.85806257 C34.2737138 23.91583408 34.2706166 24.97360559 34.26742554 26.06343079 C34.27195665 27.19320239 34.27648776 28.32297399 34.28115618 29.48698109 C34.29383825 33.28083145 34.29217733 37.07453896 34.29052734 40.8684082 C34.29542262 43.58520043 34.30325842 46.30198256 34.31088257 49.01876831 C34.32749066 55.6375583 34.33299203 62.25631267 34.33410732 68.87512175 C34.33505791 74.25585096 34.33916874 79.63656843 34.34550858 85.01729393 C34.36312065 100.27572921 34.37234753 115.53413637 34.37084763 130.79258189 C34.37076772 131.61505086 34.3706878 132.43751984 34.37060547 133.28491211 C34.37052371 134.10838641 34.37044195 134.93186071 34.37035771 135.78028878 C34.36954487 149.12475876 34.38868204 162.46911586 34.4168822 175.81355319 C34.44561556 189.51854856 34.45942224 203.22348888 34.45769465 216.92851514 C34.45703089 224.62163033 34.46251687 232.31462718 34.48405075 240.00771523 C34.50226855 246.5580584 34.50660507 253.10822959 34.4930319 259.65858714 C34.48650495 262.99947304 34.48855083 266.33976001 34.5037384 269.68065834 C34.51915149 273.30594016 34.50990737 276.93035541 34.49447632 280.55561829 C34.50476344 281.60669763 34.51505057 282.65777698 34.52564943 283.74070722 C34.46057335 290.65858769 33.42874863 296.40029547 28.51731241 301.55661374 C23.58175511 305.87069762 19.54633687 306.14214305 13.26953125 306.09765625 C12.51911057 306.0962413 11.76868988 306.09482635 10.99552917 306.09336853 C8.6011454 306.0877756 6.20685547 306.07522444 3.8125 306.0625 C2.18815239 306.05748408 0.56380332 306.05292134 -1.06054688 306.04882812 C-5.04040069 306.03780848 -9.02018444 306.02054873 -13 306 C-12.40445312 305.55398438 -11.80890625 305.10796875 -11.1953125 304.6484375 C-4.65512275 299.92854558 -4.65512275 299.92854558 -1 293 C-0.70077589 290.47280238 -0.70077589 290.47280238 -0.73828697 287.80887127 C-0.72708873 286.26298605 -0.72708873 286.26298605 -0.71566427 284.68587083 C-0.717599 283.56038718 -0.71953374 282.43490354 -0.7215271 281.27531433 C-0.7157347 280.07456137 -0.7099423 278.8738084 -0.70397437 277.63666898 C-0.68990982 274.30724276 -0.68474398 270.97801733 -0.68332577 267.6485759 C-0.67963086 264.05692209 -0.66447492 260.46531453 -0.65071106 256.87368774 C-0.62843727 250.65211153 -0.6134247 244.43055177 -0.60334396 238.20894432 C-0.58875842 229.21355066 -0.56322194 220.21821432 -0.53501268 211.22285429 C-0.48954243 196.62848379 -0.45292858 182.03410504 -0.421875 167.43969727 C-0.39169042 153.26259919 -0.35734056 139.08552131 -0.31738281 124.90844727 C-0.31492126 124.03457118 -0.31245972 123.16069509 -0.30992357 122.26033791 C-0.29754899 117.87635801 -0.28509245 113.49237835 -0.27259517 109.1083988 C-0.16902388 72.73896038 -0.07982177 36.36949791 0 0 Z " fill="#FB2D3B" transform="translate(475,206)"/>
<path d="M0 0 C0.8792942 0.10277504 0.8792942 0.10277504 1.77635193 0.20762634 C6.0084151 0.69202745 10.21506836 1.12896527 14.47265625 1.31640625 C15.8503418 1.37924805 15.8503418 1.37924805 17.25585938 1.44335938 C18.18205078 1.48267578 19.10824219 1.52199219 20.0625 1.5625 C21.02349609 1.60568359 21.98449219 1.64886719 22.97460938 1.69335938 C25.31630277 1.79821132 27.65807929 1.90037788 30 2 C30.00364563 2.96973251 30.00729126 3.93946503 30.01104736 4.93858337 C30.04808462 14.10413578 30.10595223 23.26935492 30.18390274 32.43465328 C30.22331139 37.14598362 30.25553218 41.85712891 30.27099609 46.56860352 C30.28620639 51.12055654 30.32072899 55.67200059 30.36830902 60.22372627 C30.38307788 61.95508955 30.39103842 63.68652552 30.39188385 65.41795158 C30.22533231 78.27915814 30.22533231 78.27915814 35 90 C35.40736389 90.62595566 35.81472778 91.25191132 36.23443604 91.89683533 C40.3563301 97.38996521 46.04675184 101.25600848 52.93222809 102.29022598 C58.50954891 102.77747576 64.10142788 102.72148708 69.6953125 102.70703125 C71.49707701 102.72016497 73.29882686 102.7354743 75.10055542 102.75285339 C79.81217294 102.79252069 84.52340369 102.80288199 89.23516846 102.80688477 C94.05533444 102.81625083 98.87527643 102.85368595 103.6953125 102.88867188 C113.13025111 102.95306178 122.56485537 102.98385586 132 103 C132 111.91 132 120.82 132 130 C120.6989352 130.04529066 109.39793127 130.08193909 98.09679604 130.10362434 C92.84851315 130.11403525 87.6002959 130.12814504 82.35205078 130.15087891 C77.28162369 130.17270359 72.2112595 130.18458886 67.14078903 130.18975449 C65.21202988 130.19343302 63.28327395 130.20061603 61.35454178 130.21146011 C42.19097517 130.31486239 27.89980217 128.52180597 13.41015625 114.57421875 C3.64012447 104.13912808 -0.17749176 92.4225911 -0.11352539 78.33251953 C-0.11374443 77.05836433 -0.11374443 77.05836433 -0.1139679 75.75846863 C-0.11327437 72.96655677 -0.10550826 70.17471263 -0.09765625 67.3828125 C-0.09579008 65.44082679 -0.09436712 63.4988406 -0.09336853 61.55685425 C-0.08955902 56.45726206 -0.07974214 51.35769856 -0.06866455 46.25811768 C-0.05841673 41.04968656 -0.05386369 35.8412508 -0.04882812 30.6328125 C-0.03811843 20.42186243 -0.02106086 10.2109336 0 0 Z " fill="#E4E0E4" transform="translate(116,288)"/>
<path d="M0 0 C6.6 0 13.2 0 20 0 C20.06840312 34.07351759 20.12151109 68.14701615 20.15319599 102.22058712 C20.15694821 106.24113371 20.16083117 110.26168017 20.16479492 114.28222656 C20.16558185 115.08266208 20.16636878 115.8830976 20.16717956 116.70778874 C20.18024186 129.67695969 20.20390023 142.64609084 20.23145839 155.61523816 C20.25948969 168.91776097 20.27617143 182.2202629 20.28226548 195.52281404 C20.28638666 203.73456248 20.29941399 211.94619845 20.3237494 220.15791228 C20.33957852 225.78512027 20.34440679 231.4122699 20.34050413 237.03949854 C20.33857815 240.28860982 20.34320677 243.53748204 20.35761642 246.78656769 C20.37246483 250.30609271 20.36898131 253.82513004 20.36076355 257.34466553 C20.36950207 258.3757883 20.3782406 259.40691108 20.38724393 260.46928 C20.38127078 261.41079421 20.37529764 262.35230842 20.36914349 263.32235336 C20.37085223 264.54125562 20.37085223 264.54125562 20.37259549 265.78478217 C19.90192086 268.58311674 18.93204956 269.94523356 17 272 C13.94080612 273.01973129 11.87581975 273.11533602 8.67578125 273.09765625 C7.64775391 273.09443359 6.61972656 273.09121094 5.56054688 273.08789062 C4.48869141 273.07951172 3.41683594 273.07113281 2.3125 273.0625 C1.22904297 273.05798828 0.14558594 273.05347656 -0.97070312 273.04882812 C-3.64719085 273.03703743 -6.32356777 273.02058063 -9 273 C-8.06220703 272.55140625 -8.06220703 272.55140625 -7.10546875 272.09375 C-4.18831876 270.57834741 -2.46853636 268.93707273 -1 266 C-0.90212665 264.53576724 -0.86616662 263.06717599 -0.8613348 261.59968376 C-0.85586036 260.66911844 -0.85038591 259.73855312 -0.84474558 258.77978885 C-0.84376747 257.75062229 -0.84278936 256.72145572 -0.84178162 255.66110229 C-0.83684364 254.57316852 -0.83190566 253.48523474 -0.82681805 252.36433327 C-0.81137847 248.69455062 -0.80306499 245.02478554 -0.79467773 241.35498047 C-0.78510428 238.73402754 -0.77509453 236.11307618 -0.76467896 233.49212646 C-0.74289754 227.83689992 -0.72475915 222.18167102 -0.70907402 216.52642441 C-0.68639054 208.34982247 -0.65824562 200.17324657 -0.62875474 191.99666668 C-0.58106015 178.73167599 -0.53780103 165.46667467 -0.49731445 152.20166016 C-0.45796902 139.3136309 -0.41654509 126.42561111 -0.37231445 113.53759766 C-0.36959018 112.74358228 -0.36686591 111.9495669 -0.36405908 111.13149045 C-0.35037976 107.14826865 -0.33665946 103.16504699 -0.32291877 99.1818254 C-0.20892466 66.12123638 -0.10219543 33.06062762 0 0 Z " fill="#FEE077" transform="translate(455,206)"/>
<path d="M0 0 C1.33241226 -0.01248528 1.33241226 -0.01248528 2.69174194 -0.02522278 C5.62803531 -0.04931723 8.56410654 -0.05809402 11.50048828 -0.06469727 C13.54306098 -0.07366366 15.585633 -0.08278551 17.62820435 -0.09205627 C21.91035559 -0.10854706 26.19242864 -0.11624662 30.47460938 -0.11914062 C35.95816417 -0.12452602 41.44098288 -0.1622125 46.92432976 -0.20788479 C51.14342933 -0.23764519 55.36235137 -0.24486396 59.58154678 -0.24586678 C61.60295103 -0.25007069 63.62435573 -0.26251184 65.64565659 -0.28338432 C68.47525747 -0.31027873 71.30314852 -0.30547921 74.1328125 -0.29296875 C74.96522461 -0.30780304 75.79763672 -0.32263733 76.65527344 -0.33792114 C80.79352853 -0.28589175 83.40054313 0.05429847 86.67703247 2.6995697 C90.83106284 6.99882882 91.43211318 10.2423868 91.4230957 16.18212891 C91.40996338 16.90376221 91.39683105 17.62539551 91.38330078 18.36889648 C91.37468018 19.11824463 91.36605957 19.86759277 91.35717773 20.63964844 C91.04606864 40.17270601 91.04606864 40.17270601 87.19580078 45.30639648 C81.78985528 49.04687392 77.92658 49.89079705 71.43408203 49.82397461 C70.58598969 49.83098389 69.73789734 49.83799316 68.86410522 49.84521484 C66.07849769 49.86272825 63.2939175 49.85119598 60.50830078 49.83764648 C58.56209113 49.84034332 56.61588279 49.84422733 54.66967773 49.84924316 C50.59785082 49.8551292 46.52637575 49.84660408 42.45458984 49.82788086 C37.2458953 49.80509193 32.03802529 49.81821981 26.82936096 49.84217072 C22.81264072 49.85665286 18.79611465 49.85201161 14.77938843 49.84165955 C12.85932313 49.83899894 10.93923998 49.84223848 9.01919556 49.85157776 C6.33149795 49.86178324 3.64511937 49.84618697 0.95751953 49.82397461 C0.17081879 49.83207153 -0.61588196 49.84016846 -1.42642212 49.84851074 C-6.97336689 49.76395711 -10.23717902 48.49240263 -14.80419922 45.30639648 C-18.86709654 39.33888609 -18.32759966 32.8725037 -18.30517578 25.9387207 C-18.30420142 23.81121217 -18.34591654 21.68729342 -18.39013672 19.56030273 C-18.49168862 8.21455027 -18.49168862 8.21455027 -15.52294922 4.46264648 C-10.3700076 0.37583071 -6.51448002 0.00517657 0 0 Z " fill="#848483" transform="translate(341.80419921875,178.693603515625)"/>
<path d="M0 0 C5.28 1.98 10.56 3.96 16 6 C16.01981934 8.62388672 16.03963867 11.24777344 16.06005859 13.95117188 C16.12707169 22.63647575 16.2047096 31.32166148 16.28752708 40.00682831 C16.3373973 45.27080162 16.38372807 50.53475577 16.421875 55.79882812 C16.45884506 60.8823089 16.50523659 65.96562561 16.55806351 71.04896545 C16.57654528 72.98492037 16.591676 74.92091037 16.60334396 76.85691833 C16.62031315 79.57600579 16.64937329 82.29472257 16.68115234 85.01367188 C16.68331253 85.80777466 16.68547272 86.60187744 16.68769836 87.42004395 C16.88060139 100.40484532 22.18215324 112.59931544 30.96484375 122.1328125 C45.41715439 135.87949496 61.46262904 136.30033988 80.2265625 136.4140625 C82.18525996 136.43279705 84.14394954 136.45237213 86.10263062 136.4727478 C91.22840711 136.52383353 96.35420971 136.56358462 101.48010254 136.60089111 C106.72247651 136.64107932 111.96474413 136.69210371 117.20703125 136.7421875 C127.47128648 136.83866752 137.73558649 136.92215779 148 137 C148 142.28 148 147.56 148 153 C136.52458837 153.09315306 125.04926841 153.16399321 113.57355404 153.20724869 C108.24347912 153.22802122 102.91366507 153.25614759 97.58374023 153.30175781 C92.42898092 153.34558724 87.27447071 153.36921456 82.11953926 153.37950897 C80.16418099 153.38683435 78.20883456 153.40113668 76.25358391 153.42292023 C54.81959922 153.65196973 35.98247085 149.39759236 20.01074219 134.20874023 C12.60402173 126.80838294 7.94671947 118.62290029 4 109 C3.49919922 107.91138672 3.49919922 107.91138672 2.98828125 106.80078125 C0.38239463 99.41571916 -0.29340123 92.01473259 -0.22705078 84.23583984 C-0.22734283 83.31754395 -0.22763489 82.39924805 -0.22793579 81.453125 C-0.22655638 78.45562879 -0.21106136 75.45838961 -0.1953125 72.4609375 C-0.19157742 70.36772802 -0.18873279 68.27451679 -0.18673706 66.18130493 C-0.17913956 60.7003284 -0.15952479 55.21945965 -0.1373291 49.73852539 C-0.11678662 44.13429217 -0.10771745 38.53004135 -0.09765625 32.92578125 C-0.07627492 21.95046612 -0.0411248 10.97525893 0 0 Z " fill="#858585" transform="translate(100,281)"/>
<path d="M0 0 C0.88945312 0.00644531 1.77890625 0.01289063 2.6953125 0.01953125 C3.61570312 0.03628906 4.53609375 0.05304688 5.484375 0.0703125 C6.42023438 0.07933594 7.35609375 0.08835938 8.3203125 0.09765625 C10.62526157 0.12117614 12.9296866 0.15404397 15.234375 0.1953125 C14.08195312 1.08863281 14.08195312 1.08863281 12.90625 2 C9.383527 4.89440106 6.29560394 8.07285462 4.234375 12.1953125 C4.1282496 14.26020526 4.08769816 16.32856277 4.07615662 18.39614868 C4.07121864 19.03897525 4.06628066 19.68180182 4.06119305 20.34410799 C4.04578128 22.5075602 4.03744753 24.67098266 4.02905273 26.83447266 C4.01947709 28.3815487 4.0094672 29.92862211 3.99905396 31.47569275 C3.97196476 35.68410097 3.95097697 39.89252046 3.93105197 44.10096788 C3.90921713 48.49591161 3.88181623 52.89082047 3.85499573 57.28573608 C3.80503493 65.61194433 3.76010869 73.9381719 3.71697336 82.26441801 C3.65840915 93.51298768 3.59210413 104.76151152 3.52622318 116.01004028 C3.42259553 133.7384335 3.3293416 151.46686588 3.234375 169.1953125 C-22.175625 169.1953125 -47.585625 169.1953125 -73.765625 169.1953125 C-73.765625 168.8653125 -73.765625 168.5353125 -73.765625 168.1953125 C-55.285625 168.1953125 -36.805625 168.1953125 -17.765625 168.1953125 C-17.78133545 163.60238281 -17.7970459 159.00945312 -17.81323242 154.27734375 C-17.86293096 139.10613072 -17.89622795 123.9349145 -17.92106152 108.76364136 C-17.93651954 99.5648788 -17.95758869 90.36619346 -17.99194336 81.16748047 C-18.02187832 73.14834064 -18.04120774 65.12925675 -18.04789048 57.1100626 C-18.0517958 52.86534767 -18.06095162 48.62079272 -18.08281517 44.37612915 C-18.10324511 40.37722504 -18.10944571 36.37854615 -18.10494804 32.3795948 C-18.10577034 30.91551551 -18.11169723 29.45142834 -18.12324142 27.98739433 C-18.2505783 10.99885156 -18.2505783 10.99885156 -13.38438702 5.68780518 C-9.16300457 1.9784622 -5.61261307 -0.07195658 0 0 Z " fill="#D7CED4" transform="translate(244.765625,206.8046875)"/>
<path d="M0 0 C14.49833242 11.37294339 26.30628736 26.49715176 29.125 45.1875 C31.26074381 67.26185739 27.48063594 86.20639497 13.99609375 103.99609375 C2.84067365 117.10720467 -13.65831552 126.96468862 -30.875 129.1875 C-34.00155549 129.29989252 -37.12197313 129.28242771 -40.25 129.25 C-41.08144531 129.24548828 -41.91289062 129.24097656 -42.76953125 129.23632812 C-44.80471897 129.22463164 -46.83986923 129.20669935 -48.875 129.1875 C-46.3477738 126.6602738 -44.37831564 126.37032517 -40.9375 125.4375 C-23.83641197 120.31470711 -9.25242954 108.80217195 -0.32421875 93.26953125 C8.75221927 73.96680997 10.65602483 54.28707861 4.05859375 33.890625 C1.26839944 26.78161506 -2.47777794 20.41689792 -6.875 14.1875 C-7.32359375 13.55199219 -7.7721875 12.91648438 -8.234375 12.26171875 C-17.69144787 0.16222846 -33.83549156 -8.43784077 -48.875 -10.8125 C-48.875 -11.1425 -48.875 -11.4725 -48.875 -11.8125 C-32.10856801 -16.28354853 -13.72264435 -9.56897265 0 0 Z " fill="#FEC345" transform="translate(176.875,160.8125)"/>
<path d="M0 0 C0.00364563 0.98892242 0.00729126 1.97784485 0.01104736 2.99673462 C0.04801923 12.32509695 0.10581583 21.65312982 0.18390274 30.98124123 C0.22337984 35.77673316 0.25556718 40.5720414 0.27099609 45.36767578 C0.28616115 49.99741917 0.32060396 54.62665756 0.36830902 59.25617599 C0.38312438 61.02072124 0.39104111 62.78533859 0.39188385 64.54994583 C0.39425485 67.02554145 0.42134341 69.49974299 0.45410156 71.97509766 C0.4490712 72.70158508 0.44404083 73.42807251 0.43885803 74.17657471 C0.54224853 79.24012696 1.73552383 82.1515666 5 86 C8.97973345 89.23592646 12.68178147 89.44250042 17.63598633 89.43237305 C18.76361893 89.44766052 18.76361893 89.44766052 19.91403198 89.46325684 C22.38677474 89.49333357 24.85912977 89.5026444 27.33203125 89.51171875 C29.05125714 89.52856942 30.77047074 89.54672019 32.4896698 89.56611633 C37.00560668 89.61358042 41.52149372 89.64341295 46.03759766 89.66955566 C50.64951418 89.69937934 55.26125904 89.74590346 59.87304688 89.79101562 C68.91529445 89.87700804 77.95752423 89.94282712 87 90 C87 94.95 87 99.9 87 105 C76.61164026 105.11327306 66.22369532 105.20487233 55.83485603 105.25906086 C51.01011202 105.28507776 46.18581497 105.32033011 41.36132812 105.37719727 C36.69934616 105.43180072 32.03779222 105.46147992 27.37551498 105.47438622 C25.60299829 105.48357551 23.83050319 105.50151964 22.05817032 105.52865028 C10.80377015 105.69397109 2.40717296 105.31862197 -6.62109375 97.82421875 C-7.22050781 97.11910156 -7.81992188 96.41398437 -8.4375 95.6875 C-9.05496094 94.99011719 -9.67242187 94.29273438 -10.30859375 93.57421875 C-14.2972234 87.50376392 -15.44691973 81.8400006 -15.34057617 74.74804688 C-15.34123329 73.57586609 -15.34123329 73.57586609 -15.34190369 72.38000488 C-15.33983246 69.82598897 -15.31658147 67.27264962 -15.29296875 64.71875 C-15.28736685 62.93656777 -15.28309956 61.1543809 -15.28010559 59.37219238 C-15.26870359 54.70323722 -15.23927685 50.03456627 -15.20599365 45.36572266 C-15.17519216 40.59281254 -15.16157879 35.81985607 -15.14648438 31.046875 C-15.11440233 21.69779245 -15.06326272 12.34891995 -15 3 C-13.0636296 2.49564306 -11.12585854 1.99666126 -9.1875 1.5 C-8.10855469 1.2215625 -7.02960938 0.943125 -5.91796875 0.65625 C-3 0 -3 0 0 0 Z " fill="#838383" transform="translate(161,286)"/>
<path d="M0 0 C2.4375 1.625 2.4375 1.625 4 4 C4.35228502 8.44331173 3.63038904 11.70482832 2.03125 15.8359375 C1.62519531 16.89941406 1.21914062 17.96289062 0.80078125 19.05859375 C0.37152344 20.15300781 -0.05773437 21.24742187 -0.5 22.375 C-0.92925781 23.49261719 -1.35851562 24.61023438 -1.80078125 25.76171875 C-2.85834082 28.51137363 -3.9249667 31.25714022 -5 34 C-3.68644531 33.95359375 -2.37289062 33.9071875 -1.01953125 33.859375 C0.71612304 33.82184734 2.45180199 33.78544825 4.1875 33.75 C5.05181641 33.71648437 5.91613281 33.68296875 6.80664062 33.6484375 C10.8354842 33.58669277 13.44500629 33.72981486 17.11328125 35.515625 C19.69807027 38.91919812 19.45096521 41.91386206 19 46 C18.25856054 48.94989101 17.20341909 51.72780264 16.078125 54.55078125 C15.77686707 55.33140427 15.47560913 56.11202728 15.16522217 56.91630554 C14.52950486 58.55330734 13.88708335 60.18772003 13.23828125 61.81958008 C12.24864586 64.31591579 11.28718557 66.82186017 10.328125 69.33007812 C9.70477617 70.92512543 9.07983105 72.51955003 8.453125 74.11328125 C8.16753723 74.86015701 7.88194946 75.60703278 7.58770752 76.37654114 C6.02822136 80.24589207 4.82844189 83.0862448 1 85 C-2.71636626 84.93480059 -5.04746391 84.79890124 -7.9375 82.375 C-10.34531112 76.99283396 -9.0163025 72.5809356 -7.03125 67.28515625 C-6.19960871 65.20605302 -5.35550532 63.13189801 -4.5 61.0625 C-4.07074219 59.99708984 -3.64148438 58.93167969 -3.19921875 57.83398438 C-2.14348164 55.21810242 -1.07687973 52.60723275 0 50 C-0.57967529 50.02618408 -1.15935059 50.05236816 -1.7565918 50.0793457 C-4.39994875 50.18370612 -7.04287199 50.24844327 -9.6875 50.3125 C-11.05551758 50.3753418 -11.05551758 50.3753418 -12.45117188 50.43945312 C-16.99789321 50.52212079 -19.30316481 50.47523295 -23.14453125 47.85546875 C-25.38847113 44.40216338 -25.35362917 43.06252554 -25 39 C-24.17189341 36.3755744 -23.29547225 33.90965218 -22.26171875 31.37109375 C-21.98028519 30.65897232 -21.69885162 29.94685089 -21.40888977 29.21315002 C-20.81428572 27.71447589 -20.21475811 26.21774685 -19.6105957 24.72290039 C-18.69063835 22.44526992 -17.78648757 20.16185607 -16.88476562 17.87695312 C-16.30300189 16.41630048 -15.72034904 14.95600158 -15.13671875 13.49609375 C-14.86784348 12.81888779 -14.5989682 12.14168182 -14.32194519 11.44395447 C-9.35180515 -0.8061901 -9.35180515 -0.8061901 0 0 Z " fill="#FD4A55" transform="translate(138,177)"/>
<path d="M0 0 C0.69275528 -0.0038269 1.38551056 -0.00765381 2.09925842 -0.01159668 C3.56089739 -0.01431212 5.02258526 -0.00697639 6.48413086 0.00976562 C8.71253779 0.03115289 10.93770961 0.00997357 13.16601562 -0.015625 C14.58985082 -0.01298102 16.01368401 -0.00785457 17.4375 0 C18.72648193 0.00451172 20.01546387 0.00902344 21.34350586 0.01367188 C25.31876015 0.61149688 26.9641716 1.72565552 29.78515625 4.53125 C31.9258366 8.8126107 31.0532235 14.47261464 31.08032227 19.22485352 C31.09750859 21.32570052 31.14139224 23.42496201 31.18554688 25.52539062 C31.19567677 26.86717595 31.20419195 28.20897464 31.2109375 29.55078125 C31.22552002 30.76870361 31.24010254 31.98662598 31.25512695 33.24145508 C30.69828517 37.13934753 29.5221076 38.75799702 26.78515625 41.53125 C22.39693212 43.72536207 16.53815747 42.84076422 11.66430664 42.88134766 C10.20841467 42.89789004 8.75260335 42.92515836 7.29711914 42.96337891 C5.19244502 43.01833123 3.08967118 43.04004616 0.984375 43.0546875 C-0.27544189 43.07450684 -1.53525879 43.09432617 -2.83325195 43.11474609 C-7.22974886 42.35612739 -8.6431314 41.15021843 -11.21484375 37.53125 C-11.70380489 34.79363505 -11.89661574 32.69014983 -11.84375 29.96484375 C-11.84616196 29.2489357 -11.84857391 28.53302765 -11.85105896 27.79542542 C-11.85008321 26.28844641 -11.83675417 24.78143036 -11.81176758 23.2746582 C-11.77738599 20.97157943 -11.79113455 18.67232664 -11.81054688 16.36914062 C-11.80364952 14.90102539 -11.79397812 13.43292001 -11.78125 11.96484375 C-11.78620987 11.27933945 -11.79116974 10.59383514 -11.79627991 9.88755798 C-11.71862575 6.72847823 -11.36699324 4.76472562 -9.63037109 2.09985352 C-6.31494936 -0.05312654 -3.93842044 0.01379741 0 0 Z " fill="#6E80D7" transform="translate(334.21484375,332.46875)"/>
<path d="M0 0 C0.66914429 -0.00241196 1.33828857 -0.00482391 2.02770996 -0.00730896 C3.43633985 -0.00633354 4.84500951 0.00698777 6.25341797 0.03198242 C8.40074807 0.06631827 10.54396249 0.05262699 12.69140625 0.03320312 C14.06512155 0.04010214 15.43882631 0.04977506 16.8125 0.0625 C18.05322266 0.07337646 19.29394531 0.08425293 20.57226562 0.09545898 C24.46524219 0.71834664 26.12658929 1.88799427 28.90625 4.62890625 C31.04693035 8.91026695 30.17431725 14.57027089 30.20141602 19.32250977 C30.21860234 21.42335677 30.26248599 23.52261826 30.30664062 25.62304688 C30.31677052 26.9648322 30.3252857 28.30663089 30.33203125 29.6484375 C30.34661377 30.86635986 30.36119629 32.08428223 30.3762207 33.33911133 C29.81937892 37.23700378 28.64320135 38.85565327 25.90625 41.62890625 C21.41275112 43.87565569 15.3007642 42.89747227 10.30322266 42.92407227 C8.04658309 42.94128927 5.79140763 42.98517747 3.53515625 43.02929688 C2.0989691 43.03942385 0.6627695 43.04793994 -0.7734375 43.0546875 C-2.08038574 43.06927002 -3.38733398 43.08385254 -4.73388672 43.09887695 C-8.09375 42.62890625 -8.09375 42.62890625 -10.51586914 41.06689453 C-12.62388735 37.8097895 -12.68737293 34.95693372 -12.66015625 31.1953125 C-12.66635483 30.48036118 -12.67255341 29.76540985 -12.67893982 29.02879333 C-12.68602779 27.52010455 -12.68288163 26.01133739 -12.67016602 24.50268555 C-12.6563107 22.20148794 -12.69036089 19.9043691 -12.72851562 17.60351562 C-12.72946704 16.13411359 -12.72760677 14.6647065 -12.72265625 13.1953125 C-12.73591446 12.51183243 -12.74917267 11.82835236 -12.76283264 11.12416077 C-12.6923097 7.48130671 -12.13084766 5.68083001 -9.99780273 2.6953125 C-6.40032937 0.13549623 -4.38823358 -0.00256455 0 0 Z " fill="#6E80D7" transform="translate(335.09375,260.37109375)"/>
<path d="M0 0 C0.717323 -0.0038269 1.434646 -0.00765381 2.17370605 -0.01159668 C3.68661914 -0.01431227 5.19957945 -0.00697555 6.71240234 0.00976562 C9.02417976 0.03118449 11.33285013 0.00995649 13.64453125 -0.015625 C15.11719434 -0.01298166 16.5898555 -0.00785653 18.0625 0 C18.75114136 -0.00809692 19.43978271 -0.01619385 20.14929199 -0.02453613 C23.5347973 0.04139202 25.24957215 0.30769252 27.93554688 2.43945312 C31.69782047 7.37139318 30.75413018 12.79667268 30.77148438 18.79760742 C30.78116423 20.82577939 30.81217532 22.85292642 30.84375 24.88085938 C30.85148437 26.80575195 30.85148437 26.80575195 30.859375 28.76953125 C30.87339355 30.533573 30.87339355 30.533573 30.88769531 32.33325195 C30.49562422 35.85088159 29.64051601 37.71814644 27.53125 40.53125 C24.56173861 42.0160057 21.51633941 41.73509382 18.2578125 41.76953125 C17.53765961 41.777603 16.81750671 41.78567474 16.07553101 41.79399109 C14.55070398 41.80782614 13.02584606 41.8185509 11.50097656 41.82641602 C9.17192799 41.8436341 6.8442975 41.88752204 4.515625 41.93164062 C3.0338646 41.94176744 1.55209214 41.95028358 0.0703125 41.95703125 C-0.62460297 41.97453934 -1.31951843 41.99204742 -2.03549194 42.01008606 C-5.22350995 41.99582337 -7.201711 41.70210041 -9.90673828 39.97143555 C-12.00172304 36.69863582 -12.04429364 33.829663 -12 30.0625 C-12.0038269 29.345177 -12.00765381 28.627854 -12.01159668 27.88879395 C-12.01431227 26.37588086 -12.00697555 24.86292055 -11.99023438 23.35009766 C-11.96881551 21.03832024 -11.99004351 18.72964987 -12.015625 16.41796875 C-12.01298166 14.94530566 -12.00785653 13.4726445 -12 12 C-12.00809692 11.31135864 -12.01619385 10.62271729 -12.02453613 9.91320801 C-11.96298376 6.75240501 -11.62466387 4.77348028 -9.90234375 2.09765625 C-6.63425172 -0.00588292 -3.7668433 -0.04428988 0 0 Z " fill="#6D80D7" transform="translate(334.46875,404.46875)"/>
<path d="M0 0 C4.28663998 -0.0995024 8.57265331 -0.1717631 12.86010742 -0.21972656 C14.31595584 -0.23973822 15.77172494 -0.26695677 17.22729492 -0.30175781 C32.69865783 -0.66217326 32.69865783 -0.66217326 38 4 C42.61006918 9.82442886 42.64177326 15.18632827 42.5625 22.4375 C42.59827148 23.93506836 42.59827148 23.93506836 42.63476562 25.46289062 C42.62320545 31.32389975 41.85101196 35.4187402 38.65991211 40.36352539 C35.42700881 43.55078098 32.14159472 44.88370639 27.65673828 45.34057617 C26.47321777 45.32486572 25.28969727 45.30915527 24.0703125 45.29296875 C22.78125 45.28330078 21.4921875 45.27363281 20.1640625 45.26367188 C18.81770214 45.23861188 17.47134797 45.21321712 16.125 45.1875 C14.75522295 45.17243504 13.38542998 45.15874982 12.015625 45.14648438 C8.67667642 45.11121379 5.33854325 45.06191896 2 45 C2.40992188 44.55269531 2.81984375 44.10539062 3.2421875 43.64453125 C9.4319651 36.69954155 10.3443628 31.80148626 10.3125 22.625 C10.32861328 21.70460938 10.34472656 20.78421875 10.36132812 19.8359375 C10.36541778 14.11042029 9.74954283 10.05086335 7 5 C5.0995533 3.15684329 5.0995533 3.15684329 3 2 C2.01 1.34 1.02 0.68 0 0 Z " fill="#0AB69F" transform="translate(257,61)"/>
<path d="M0 0 C3.70791544 -0.14592789 7.41508726 -0.23427895 11.125 -0.3125 C12.69507813 -0.3753418 12.69507813 -0.3753418 14.296875 -0.43945312 C23.03142326 -0.577658 23.03142326 -0.577658 26.6171875 2.20703125 C30.97640308 7.31660361 31.30688543 11.50216078 31.1875 18.0625 C31.17887939 18.81184814 31.17025879 19.56119629 31.16137695 20.33325195 C30.85400094 39.63192726 30.85400094 39.63192726 27 45 C22.31495308 48.91196761 17.46971982 48.3468686 11.6875 48.1875 C10.29047852 48.16719727 10.29047852 48.16719727 8.86523438 48.14648438 C6.57622354 48.11126882 4.28841542 48.06202099 2 48 C2.42152344 47.51789063 2.84304688 47.03578125 3.27734375 46.5390625 C3.82519531 45.90742188 4.37304688 45.27578125 4.9375 44.625 C5.48277344 43.99851563 6.02804687 43.37203125 6.58984375 42.7265625 C10.31566333 38.1647557 9.26180382 32.42201916 9.29516602 26.78857422 C9.31232051 24.77110916 9.35619871 22.75530907 9.40039062 20.73828125 C9.40876953 19.45824219 9.41714844 18.17820313 9.42578125 16.859375 C9.44036377 15.68858398 9.45494629 14.51779297 9.4699707 13.31152344 C8.72672704 8.07445484 6.18021135 5.01927344 2.25 1.625 C1.5075 1.08875 0.765 0.5525 0 0 Z " fill="#696969" transform="translate(402,179)"/>
<path d="M0 0 C1.83704312 -0.01653825 3.67402246 -0.04380029 5.51074219 -0.08203125 C8.16391264 -0.13695737 10.81557491 -0.15869864 13.46923828 -0.17333984 C14.69299164 -0.2073439 14.69299164 -0.2073439 15.94146729 -0.24203491 C20.07229076 -0.22682237 22.74005472 0.09381781 26.04638672 2.69140625 C28.51611328 5.35009766 28.51611328 5.35009766 29.07861328 8.41259766 C28.46898194 11.59622802 27.79520149 13.07100944 25.51611328 15.35009766 C21.55814451 16.66942058 17.74260652 16.55236668 13.61376953 16.58837891 C12.73965927 16.59645065 11.86554901 16.6045224 10.96495056 16.61283875 C9.11654638 16.62666289 7.26811685 16.63739251 5.41967773 16.64526367 C2.59260977 16.66251226 -0.23329921 16.70641634 -3.06005859 16.75048828 C-4.85627396 16.76061252 -6.65249925 16.76912946 -8.44873047 16.77587891 C-9.29362534 16.79338699 -10.1385202 16.81089508 -11.00901794 16.82893372 C-16.86319056 16.80727741 -16.86319056 16.80727741 -19.98608398 14.50708008 C-21.96095307 11.66307545 -22.48388672 9.81880722 -22.48388672 6.35009766 C-17.17287711 -1.89112415 -8.82245831 0.05821847 0 0 Z " fill="#E5E1E2" transform="translate(411.48388671875,273.64990234375)"/>
<path d="M0 0 C0.89110474 -0.00336868 1.78220947 -0.00673737 2.70031738 -0.01020813 C4.57973009 -0.00990983 6.45919204 0.0052879 8.33837891 0.03442383 C11.21017369 0.07410026 14.07734801 0.05512748 16.94921875 0.02929688 C18.77866369 0.03685648 20.60809841 0.04781045 22.4375 0.0625 C23.29283325 0.0555159 24.1481665 0.0485318 25.02941895 0.04133606 C29.38104405 0.14406793 31.21443999 0.38072104 34.79101562 3.08276367 C36.71875 5.76171875 36.71875 5.76171875 36.84375 9.32421875 C35.47633354 13.50243572 34.44724887 14.48848205 30.71875 16.76171875 C27.76547775 17.33264221 24.87598763 17.32290862 21.875 17.29296875 C20.60493103 17.29870911 20.60493103 17.29870911 19.3092041 17.30456543 C17.52399502 17.30728014 15.73874587 17.29994981 13.95361328 17.28320312 C11.22728461 17.2617858 8.50359085 17.28301828 5.77734375 17.30859375 C4.03905671 17.30595039 2.3007713 17.30082525 0.5625 17.29296875 C-0.65487854 17.30511414 -0.65487854 17.30511414 -1.89685059 17.31750488 C-5.83888444 17.25247265 -7.83823123 17.03704607 -11.26367188 14.90820312 C-13.28125 12.76171875 -13.28125 12.76171875 -14.40625 9.88671875 C-14.26427269 6.33728603 -13.29672025 4.68232081 -10.96264648 2.03866577 C-7.68345538 -0.45173632 -3.96727059 -0.07088416 0 0 Z " fill="#E5E1E2" transform="translate(403.28125,345.23828125)"/>
<path d="M0 0 C1.33877953 -0.01142029 1.33877953 -0.01142029 2.7046051 -0.02307129 C4.58990688 -0.0338638 6.47526841 -0.03672884 8.3605957 -0.03222656 C11.24076315 -0.03125444 14.11826415 -0.07287936 16.99804688 -0.1171875 C18.83202571 -0.12239491 20.66601378 -0.12508269 22.5 -0.125 C23.35847031 -0.14139526 24.21694061 -0.15779053 25.10142517 -0.17468262 C29.47189662 -0.12432233 31.29369094 0.07641296 34.89477539 2.77929688 C36.81640625 5.46875 36.81640625 5.46875 36.87890625 9.09375 C35.66926399 12.93614306 35.30705468 13.6335342 31.81640625 15.46875 C28.75660488 15.93206747 25.72330483 15.93677661 22.6328125 15.9375 C21.74029282 15.94511353 20.84777313 15.95272705 19.9282074 15.96057129 C18.04290562 15.9713638 16.15754409 15.97422884 14.2722168 15.96972656 C11.39204935 15.96875444 8.51454835 16.01037936 5.63476562 16.0546875 C3.80078679 16.05989491 1.96679872 16.06258269 0.1328125 16.0625 C-0.72565781 16.07889526 -1.58412811 16.09529053 -2.46861267 16.11218262 C-6.83908412 16.06182233 -8.66087844 15.86108704 -12.26196289 13.15820312 C-14.18359375 10.46875 -14.18359375 10.46875 -14.24609375 6.84375 C-11.93518864 -0.4967721 -6.72414418 0.00157392 0 0 Z " fill="#E5E1E4" transform="translate(403.18359375,417.53125)"/>
<path d="M0 0 C2.24566003 -0.0171905 4.48983863 -0.06107399 6.73510742 -0.10522461 C8.16803932 -0.11535399 9.60098372 -0.12386933 11.03393555 -0.13061523 C12.98650269 -0.15248901 12.98650269 -0.15248901 14.97851562 -0.17480469 C19.01698617 0.37162504 20.63307701 1.40368348 23.4519043 4.29516602 C24.5144043 7.23266602 24.5144043 7.23266602 24.4519043 10.29516602 C22.6815098 13.04232988 21.38898586 14.82662523 18.4519043 16.29516602 C13.93897114 16.53086562 9.42216974 16.52358897 4.90380859 16.53540039 C2.65839284 16.54508412 0.41390117 16.57609559 -1.83129883 16.60766602 C-3.26423611 16.61419854 -4.69717993 16.61944803 -6.13012695 16.62329102 C-8.08269409 16.63730957 -8.08269409 16.63730957 -10.07470703 16.65161133 C-13.75716584 16.27371087 -15.6305412 15.52549848 -18.5480957 13.29516602 C-19.96851391 10.4543296 -19.86261843 8.44039324 -19.5480957 5.29516602 C-14.26631553 -1.21902953 -7.723377 0.04122051 0 0 Z " fill="#D7D0D6" transform="translate(233.548095703125,154.704833984375)"/>
<path d="M0 0 C25.41 0 50.82 0 77 0 C77 8.91 77 17.82 77 27 C70.07 27 63.14 27 56 27 C56 18.42 56 9.84 56 1 C37.52 1 19.04 1 0 1 C0 0.67 0 0.34 0 0 Z " fill="#D4CBD1" transform="translate(171,391)"/>
<path d="M0 0 C6.93 0 13.86 0 21 0 C21.02682159 4.47920597 21.04675177 8.95825351 21.0625 13.4375 C21.07087891 14.71689453 21.07925781 15.99628906 21.08789062 17.31445312 C21.09272461 19.13686523 21.09272461 19.13686523 21.09765625 20.99609375 C21.10551147 22.68496704 21.10551147 22.68496704 21.11352539 24.40795898 C21 27 21 27 20 28 C18.5112814 28.08669432 17.018555 28.10703494 15.52734375 28.09765625 C14.71773193 28.09515869 13.90812012 28.09266113 13.07397461 28.09008789 C12.03893799 28.08098389 11.00390137 28.07187988 9.9375 28.0625 C6.658125 28.041875 3.37875 28.02125 0 28 C0 18.76 0 9.52 0 0 Z " fill="#D7CED4" transform="translate(227,434)"/>
<path d="M0 0 C6.93 0 13.86 0 21 0 C21.12375 1.69125 21.2475 3.3825 21.375 5.125 C21.94839667 11.24379006 21.94839667 11.24379006 24 17 C26.00136244 18.42055068 26.00136244 18.42055068 28 19 C28 19.33 28 19.66 28 20 C24.79215279 20.14622024 21.58517039 20.23436651 18.375 20.3125 C17.47136719 20.35439453 16.56773437 20.39628906 15.63671875 20.43945312 C11.15462425 20.52124317 8.00535759 20.52780816 4.4375 17.6171875 C-1.07303981 11.700422 0 8.82168368 0 0 Z " fill="#FDE077" transform="translate(303,207)"/>
<path d="M0 0 C6.93 0 13.86 0 21 0 C21 5.28 21 10.56 21 16 C14.07 16 7.14 16 0 16 C0 10.72 0 5.44 0 0 Z " fill="#6C6A6A" transform="translate(227,418)"/>
<path d="M0 0 C6.93 0 13.86 0 21 0 C21 4.95 21 9.9 21 15 C14.07 15 7.14 15 0 15 C0 10.05 0 5.1 0 0 Z " fill="#6B6868" transform="translate(227,376)"/>
<path d="M0 0 C2.4375 1.5625 2.4375 1.5625 4 4 C4.5625 7.5 4.5625 7.5 4 11 C1.9375 13.5 1.9375 13.5 -1 15 C-4.8137751 15 -7.02424548 14.84985071 -9.9375 12.3125 C-11.33817538 9.26397123 -11.4842732 7.32073048 -11 4 C-8.05899778 -0.47032338 -5.13105401 -0.73300772 0 0 Z " fill="#D7D0D6" transform="translate(284,156)"/>
</svg>
