<svg id="Layer_5" enable-background="new 0 0 64 64" height="512" viewBox="0 0 64 64" width="512" xmlns="http://www.w3.org/2000/svg"><g><g><path d="m52 50c3.31 0 6-2.69 6-6s-2.69-6-6-6c-2.66 0-4.92 1.74-5.71 4.14l-6.24-3.84c-.32-.2-.68-.3-1.05-.3s-.73.1-1.05.3l-4.72 2.9-9.23-5.97v-9.23-16-8h28v4h-24v12h30v-6h4v42h-12v-4.87l.01-.01.94.58c.32.2.68.3 1.05.3z" fill="#f0d0b4"/><path d="m62 12h-4-6v-6-4z" fill="#b4dd7f"/><path d="m58 12v6h-30v-12h24v6z" fill="#e6e9ed"/><path d="m28 22h4v4h-4z" fill="#b4dd7f"/><path d="m28 30h4v4h-4z" fill="#b4dd7f"/><path d="m58 44c0 3.31-2.69 6-6 6 .7 0 1.34-.36 1.7-.95.28-.46.37-.99.25-1.51-.13-.52-.45-.96-.9-1.24l-6.76-4.16c.79-2.4 3.05-4.14 5.71-4.14 3.31 0 6 2.69 6 6z" fill="#ff826e"/><path d="m28 49.12v12.88h-24v-18h15 9.68l-3.73 2.3c-.45.28-.77.72-.9 1.24-.12.52-.03 1.05.25 1.51.36.59 1 .95 1.7.95.37 0 .73-.1 1.05-.3z" fill="#ccd1d9"/><path d="m8 50h6v6h-6z" fill="#69d6f4"/><path d="m18 50h6v6h-6z" fill="#69d6f4"/><path d="m39 42.35-11 6.77v12.88h22v-8-4.87l.01-.01z" fill="#ffeaa7"/><path d="m24 35.23-5-3.23-17 11v1h2 15 9.68l4.55-2.8z" fill="#fcd770"/><path d="m34 54h10v8h-10z" fill="#aab2bd"/><circle cx="39" cy="48" fill="#69d6f4" r="2"/><path d="m53.7 49.05c-.36.59-1 .95-1.7.95-.37 0-.73-.1-1.05-.3l-.94-.58-11.01-6.77-11 6.77-.95.58c-.32.2-.68.3-1.05.3-.7 0-1.34-.36-1.7-.95-.28-.46-.37-.99-.25-1.51.13-.52.45-.96.9-1.24l3.73-2.3 4.55-2.8 4.72-2.9c.32-.2.68-.3 1.05-.3s.73.1 1.05.3l6.24 3.84 6.76 4.16c.45.28.77.72.9 1.24.12.52.03 1.05-.25 1.51z" fill="#fcd770"/><g fill="#ff826e"><circle cx="8" cy="10" r="6"/><circle cx="8" cy="26" r="6"/></g></g><g><path d="m39 45c-1.654 0-3 1.346-3 3s1.346 3 3 3 3-1.346 3-3-1.346-3-3-3zm0 4c-.552 0-1-.448-1-1s.448-1 1-1 1 .448 1 1-.448 1-1 1z"/><path d="m7.001 57h8v-8h-8zm2-6h4v4h-4z"/><path d="m63 11.586-10.586-10.586h-29.414v8h-10v1c0 2.757-2.243 5-5 5s-5-2.243-5-5 2.243-5 5-5c1.779 0 3.439.958 4.332 2.501l1.73-1.002c-1.248-2.158-3.571-3.499-6.062-3.499-3.859 0-7 3.141-7 7s3.141 7 7 7c3.521 0 6.442-2.612 6.929-6h8.071v14h-10v1c0 2.757-2.243 5-5 5s-5-2.243-5-5 2.243-5 5-5c1.779 0 3.439.958 4.332 2.501l1.73-1.002c-1.248-2.158-3.571-3.499-6.062-3.499-3.859 0-7 3.141-7 7s3.141 7 7 7c3.521 0 6.442-2.612 6.929-6h8.071v6.396l-3.999-2.588-18 11.647v2.545h2v18h47.999v-8h12zm-6 1.414v4h-28v-10h22v6zm-4-2v-6.586l6.586 6.586zm1.919 36.306c-.186-.78-.664-1.44-1.347-1.861l-6.03-3.71c.842-1.662 2.548-2.735 4.458-2.735 2.757 0 5 2.243 5 5 0 1.63-.796 3.066-2.006 3.98-.002-.225-.022-.45-.075-.674zm-2.396-.159c.231.143.387.357.45.62.062.264.02.526-.122.757-.283.458-.916.608-1.375.327l-12.476-7.677-12.476 7.678c-.46.282-1.093.131-1.376-.326-.142-.231-.184-.493-.121-.757s.218-.479.449-.62l13.001-8.001c.314-.193.731-.193 1.044 0zm-24.122-4.147h-8.4v-9.162l11.352 7.345zm-10.4-9.162v9.162h-14.159zm-13 11.162h20.15l-.722.444c-.683.419-1.161 1.08-1.347 1.86-.136.571-.099 1.154.093 1.695h-6.174v8h8v-6.192c.318.112.649.192 1 .192.343 0 .679-.065.999-.179v10.18h-21.999zm18 6v4h-4v-4zm19.999 10h-8v-6h8zm2 0v-8h-12v8h-4v-11.323l10-6.155 10 6.154v11.324zm6-8v-2.179c.32.113.656.179.999.179h.001c3.859 0 7-3.141 7-7s-3.141-7-7-7c-2.618 0-4.957 1.444-6.16 3.687l-5.271-3.243c-.943-.582-2.194-.582-3.14 0l-4.19 2.578-8.239-5.331v-31.691h26v2h-24v14h32v-6h2v40z"/><path d="m7 26.586-1.293-1.293-1.414 1.414 2.707 2.707 4.707-4.707-1.414-1.414z"/><path d="m7 10.586-1.293-1.293-1.414 1.414 2.707 2.707 4.707-4.707-1.414-1.414z"/><path d="m27 27h6v-6h-6zm2-4h2v2h-2z"/><path d="m35 21h2v2h-2z"/><path d="m39 21h20v2h-20z"/><path d="m35 25h24v2h-24z"/><path d="m27 35h6v-6h-6zm2-4h2v2h-2z"/><path d="m57 33h2v2h-2z"/><path d="m35 33h20v2h-20z"/><path d="m35 29h24v2h-24z"/></g></g></svg>