<?xml version="1.0" encoding="iso-8859-1"?>
<!-- Generator: Adobe Illustrator 19.0.0, SVG Export Plug-In . SVG Version: 6.00 Build 0)  -->
<svg version="1.1" id="Capa_1" xmlns="http://www.w3.org/2000/svg" xmlns:xlink="http://www.w3.org/1999/xlink" x="0px" y="0px"
	 viewBox="0 0 430 430" style="enable-background:new 0 0 430 430;" xml:space="preserve">
<path style="fill:#FF6565;" d="M85,360h20v30h25v-52.93l-35-35l-35,35V390h25V360z M90,325h10v10H90V325z"/>
<path style="fill:#FFA447;" d="M310,220h-5v170h35v-20h10v20h35V220h-5H310z M330,380h-10v-10h10V380z M330,360h-10v-10h10V360z
	 M330,340h-10v-10h10V340z M330,320h-10v-10h10V320z M330,300h-10v-10h10V300z M330,280h-10v-10h10V280z M330,260h-10v-10h10V260z
	 M330,240h-10v-10h10V240z M350,360h-10v-10h10V360z M350,340h-10v-10h10V340z M350,320h-10v-10h10V320z M350,300h-10v-10h10V300z
	 M350,280h-10v-10h10V280z M350,260h-10v-10h10V260z M350,240h-10v-10h10V240z M370,380h-10v-10h10V380z M370,360h-10v-10h10V360z
	 M370,340h-10v-10h10V340z M370,320h-10v-10h10V320z M370,300h-10v-10h10V300z M370,280h-10v-10h10V280z M370,260h-10v-10h10V260z
	 M370,240h-10v-10h10V240z"/>
<path d="M390,210h-5v-35c0-2.766-2.234-5-5-5h-15v-20c0-2.766-2.234-5-5-5h-10v-35h-10v35h-10c-2.766,0-5,2.234-5,5v20h-15
	c-2.766,0-5,2.234-5,5v35h-5c-2.766,0-5,2.234-5,5v175h-10v10h10v-5c0,2.766,2.234,5,5,5h90h15v-10h-10V215
	C395,212.234,392.766,210,390,210z M335,155h20v15h-20V155z M315,180h15h30h15v30h-60V180z M385,390h-35h-10h-35V220h5h70h5V390z"/>
<g>
	<path style="fill:#FFA447;" d="M375,180h-15h-30h-15v30h60V180z M340,200h-10v-10h10V200z M360,200h-10v-10h10V200z"/>
	<rect x="335" y="155" style="fill:#FFA447;" width="20" height="15"/>
</g>
<g>
	<rect x="330" y="190" style="fill:#FFFFFF;" width="10" height="10"/>
	<rect x="350" y="190" style="fill:#FFFFFF;" width="10" height="10"/>
	<rect x="320" y="270" style="fill:#FFFFFF;" width="10" height="10"/>
	<rect x="340" y="270" style="fill:#FFFFFF;" width="10" height="10"/>
	<rect x="360" y="270" style="fill:#FFFFFF;" width="10" height="10"/>
	<rect x="320" y="250" style="fill:#FFFFFF;" width="10" height="10"/>
	<rect x="340" y="250" style="fill:#FFFFFF;" width="10" height="10"/>
	<rect x="360" y="250" style="fill:#FFFFFF;" width="10" height="10"/>
	<rect x="320" y="230" style="fill:#FFFFFF;" width="10" height="10"/>
	<rect x="340" y="230" style="fill:#FFFFFF;" width="10" height="10"/>
	<rect x="360" y="230" style="fill:#FFFFFF;" width="10" height="10"/>
	<rect x="320" y="290" style="fill:#FFFFFF;" width="10" height="10"/>
	<rect x="340" y="290" style="fill:#FFFFFF;" width="10" height="10"/>
	<rect x="360" y="290" style="fill:#FFFFFF;" width="10" height="10"/>
	<rect x="320" y="310" style="fill:#FFFFFF;" width="10" height="10"/>
	<rect x="340" y="310" style="fill:#FFFFFF;" width="10" height="10"/>
	<rect x="360" y="310" style="fill:#FFFFFF;" width="10" height="10"/>
	<rect x="320" y="330" style="fill:#FFFFFF;" width="10" height="10"/>
	<rect x="340" y="330" style="fill:#FFFFFF;" width="10" height="10"/>
	<rect x="360" y="330" style="fill:#FFFFFF;" width="10" height="10"/>
	<rect x="320" y="350" style="fill:#FFFFFF;" width="10" height="10"/>
	<rect x="340" y="350" style="fill:#FFFFFF;" width="10" height="10"/>
	<rect x="360" y="350" style="fill:#FFFFFF;" width="10" height="10"/>
	<rect x="320" y="370" style="fill:#FFFFFF;" width="10" height="10"/>
	<rect x="340" y="370" style="fill:#FFFFFF;" width="10" height="20"/>
	<rect x="360" y="370" style="fill:#FFFFFF;" width="10" height="10"/>
</g>
<path d="M183.957,201.5l-28.348-28.18c-2.84-2.844-6.594-4.398-10.66-4.34c-3.98,0.043-7.73,1.621-10.555,4.449L31.465,276.305
	l7.07,7.07l102.934-102.367c0.961-0.969,2.234-1.008,3.582-1.008c0.02,0,0.035,0,0.055,0c1.305,0,2.52-0.008,3.441,0.906
	l28.359,27.684c5.844,5.809,15.344,5.805,21.18-0.027L380,26.844V80h10V15c0-2.766-2.234-5-5-5h-65v10h52.703L191.02,201.488
	C189.074,203.43,185.906,203.438,183.957,201.5z"/>
<path style="fill:#FFA447;" d="M185,75c0-35.84-29.156-65-65-65S55,39.16,55,75s29.156,65,65,65S185,110.84,185,75z M100,115
	c-8.273,0-15-6.727-15-15v-5h10v5c0,2.758,2.242,5,5,5h40c2.758,0,5-2.242,5-5V85c0-2.758-2.242-5-5-5h-40c-8.273,0-15-6.727-15-15
	V50c0-8.273,6.727-15,15-15h15V25h10v10h15c8.273,0,15,6.727,15,15v10h-10V50c0-2.758-2.242-5-5-5h-40c-2.758,0-5,2.242-5,5v15
	c0,2.758,2.242,5,5,5h40c8.273,0,15,6.727,15,15v15c0,8.273-6.727,15-15,15h-15v10h-10v-10H100z"/>
<path d="M195,75c0-41.359-33.645-75-75-75S45,33.641,45,75s33.645,75,75,75S195,116.359,195,75z M55,75c0-35.84,29.156-65,65-65
	s65,29.16,65,65s-29.156,65-65,65S55,110.84,55,75z"/>
<path style="fill:#FFFFFF;" d="M125,125v-10h15c8.273,0,15-6.727,15-15V85c0-8.273-6.727-15-15-15h-40c-2.758,0-5-2.242-5-5V50
	c0-2.758,2.242-5,5-5h40c2.758,0,5,2.242,5,5v10h10V50c0-8.273-6.727-15-15-15h-15V25h-10v10h-15c-8.273,0-15,6.727-15,15v15
	c0,8.273,6.727,15,15,15h40c2.758,0,5,2.242,5,5v15c0,2.758-2.242,5-5,5h-40c-2.758,0-5-2.242-5-5v-5H85v5c0,8.273,6.727,15,15,15
	h15v10H125z"/>
<path d="M55,400h80c2.762,0,5-2.234,5-5v-47.93l8.965,8.965l7.07-7.07L140,332.93V305h5v-10h-20v10h5v17.93l-31.465-31.465
	c-1.953-1.953-5.117-1.953-7.07,0l-60,60l7.07,7.07L50,347.07V395C50,397.766,52.238,400,55,400z M60,337.07l35-35l35,35V390h-25H85
	H60V337.07z"/>
<g>
	<rect x="90" y="325" style="fill:#FFFFFF;" width="10" height="10"/>
	<rect x="85" y="360" style="fill:#FFFFFF;" width="20" height="30"/>
</g>
<path style="fill:#37B8D1;" d="M190,260v130h15v-35h20v35h15V260h-30H190z M230,340h-30v-10h30V340z M230,320h-30v-10h30V320z
	 M230,300h-30v-10h30V300z M230,280h-30v-10h30V280z"/>
<g>
	<rect x="200" y="290" style="fill:#FFFFFF;" width="30" height="10"/>
	<rect x="200" y="270" style="fill:#FFFFFF;" width="30" height="10"/>
	<rect x="200" y="310" style="fill:#FFFFFF;" width="30" height="10"/>
	<rect x="200" y="330" style="fill:#FFFFFF;" width="30" height="10"/>
</g>
<rect x="215" y="235" style="fill:#37B8D1;" width="25" height="15"/>
<path d="M210,225c-2.766,0-5,2.234-5,5v20h-20c-2.762,0-5,2.234-5,5v140c0,2.766,2.238,5,5,5h60c2.766,0,5-2.234,5-5V255v-25
	c0-2.766-2.234-5-5-5H210z M240,390h-15v-35h-20v35h-15V260h20h30V390z M240,250h-25v-15h25V250z"/>
<rect x="200" y="70" width="10" height="10"/>
<rect x="220" y="70" width="10" height="10"/>
<rect x="240" y="70" width="10" height="10"/>
<path d="M253.535,51.465l-7.07,7.07L265.43,77.5l-18.965,18.965l7.07,7.07l22.5-22.5c1.953-1.953,1.953-5.117,0-7.07L253.535,51.465
	z"/>
<path d="M395,410h-10v10H270v-10h-10v10H140v-10h-10v10H10V300h10v-10H10V170h10v-10H10V40h10V30H10V0H0v425c0,2.766,2.238,5,5,5
	h425v-10h-35V410z"/>
<g>
</g>
<g>
</g>
<g>
</g>
<g>
</g>
<g>
</g>
<g>
</g>
<g>
</g>
<g>
</g>
<g>
</g>
<g>
</g>
<g>
</g>
<g>
</g>
<g>
</g>
<g>
</g>
<g>
</g>
</svg>
