<?xml version="1.0" encoding="UTF-8"?>
<svg version="1.1" xmlns="http://www.w3.org/2000/svg" width="512" height="512">
<path d="M0 0 C4.14120925 0.91021437 6.05986149 3.21792148 8.6640625 6.35546875 C9.128125 6.88591797 9.5921875 7.41636719 10.0703125 7.96289062 C11.41680924 9.51288334 12.72918759 11.08700668 14.0390625 12.66796875 C14.80347656 13.55613281 15.56789062 14.44429687 16.35546875 15.359375 C18.49933385 18.2991065 18.44344142 20.10943421 18.0390625 23.66796875 C17.0390625 24.66796875 17.0390625 24.66796875 14.71484375 24.98046875 C11.19781928 24.56972137 10.39883139 23.39395324 8.2265625 20.66796875 C7.62199219 19.92546875 7.01742187 19.18296875 6.39453125 18.41796875 C5.94722656 17.84046875 5.49992188 17.26296875 5.0390625 16.66796875 C10.00725675 39.448957 21.89209729 58.80697253 41.6015625 71.63671875 C62.49839081 83.98484457 85.49200327 88.35528925 109.41796875 82.7734375 C132.76787636 75.64504068 150.74376863 61.77110293 162.78515625 40.59765625 C165.93965 34.5718652 168.28004021 28.46630708 170.27734375 21.96875 C171.0390625 19.66796875 171.0390625 19.66796875 172.0390625 18.66796875 C175.0390625 18.54296875 175.0390625 18.54296875 178.0390625 18.66796875 C178.3690625 18.99796875 178.6990625 19.32796875 179.0390625 19.66796875 C178.86114357 29.98726682 174.37706606 39.97023951 169.0390625 48.66796875 C170.10315338 48.6590863 171.16724426 48.65020386 172.26358032 48.64105225 C182.29806195 48.55991927 192.33247692 48.49998067 202.3672123 48.46072006 C207.52603464 48.43985709 212.68459192 48.41156278 217.84326172 48.36621094 C222.82291642 48.32270751 227.80231636 48.29882194 232.78214645 48.28845978 C234.68074936 48.28107651 236.57933852 48.26665861 238.47783279 48.24504852 C241.13998653 48.21595467 243.80109143 48.21201523 246.46337891 48.21386719 C247.24597076 48.19948608 248.02856262 48.18510498 248.83486938 48.17028809 C254.01288435 48.2091916 256.92346597 49.26273972 261.0390625 52.66796875 C264.0390625 56.86796875 264.0390625 56.86796875 264.0390625 59.66796875 C265.01488281 59.64476562 265.99070312 59.6215625 266.99609375 59.59765625 C268.26839844 59.57960937 269.54070312 59.5615625 270.8515625 59.54296875 C272.11613281 59.51976562 273.38070313 59.4965625 274.68359375 59.47265625 C278.0390625 59.66796875 278.0390625 59.66796875 281.0390625 61.66796875 C281.33203125 63.83203125 281.33203125 63.83203125 281.2265625 66.29296875 C281.19949219 67.11023438 281.17242187 67.9275 281.14453125 68.76953125 C281.09232422 69.70925781 281.09232422 69.70925781 281.0390625 70.66796875 C282.8487854 70.66011353 282.8487854 70.66011353 284.69506836 70.65209961 C289.15469628 70.63405264 293.61432096 70.62253786 298.07397461 70.61303711 C300.00724835 70.60799619 301.94051826 70.60116356 303.8737793 70.5925293 C306.64633122 70.5804531 309.41883291 70.57473818 312.19140625 70.5703125 C313.49609108 70.56257057 313.49609108 70.56257057 314.82713318 70.55467224 C316.89812064 70.5544769 318.96900574 70.60588707 321.0390625 70.66796875 C322.0390625 71.66796875 322.0390625 71.66796875 322.2265625 74.10546875 C322.0390625 76.66796875 322.0390625 76.66796875 320.0390625 78.66796875 C317.09809513 78.84336311 314.25252901 78.8992925 311.3125 78.86328125 C310.44968414 78.86045135 309.58686829 78.85762146 308.69790649 78.85470581 C305.9364853 78.84349208 303.175386 78.81838559 300.4140625 78.79296875 C298.54427551 78.78294048 296.67448345 78.77381437 294.8046875 78.765625 C290.21602141 78.74354887 285.62759657 78.70901109 281.0390625 78.66796875 C281.0390625 83.61796875 281.0390625 88.56796875 281.0390625 93.66796875 C282.21001465 93.65749512 283.3809668 93.64702148 284.58740234 93.63623047 C288.92216955 93.60009378 293.25692339 93.57709142 297.59179688 93.55810547 C299.46974932 93.54803341 301.34768603 93.53437513 303.22558594 93.51708984 C305.9212634 93.49289422 308.61673396 93.48149792 311.3125 93.47265625 C312.15525482 93.46233368 312.99800964 93.45201111 313.86630249 93.44137573 C315.92527497 93.44097731 317.98374185 93.54539287 320.0390625 93.66796875 C322.0390625 95.66796875 322.0390625 95.66796875 322.3515625 98.16796875 C322.2484375 98.99296875 322.1453125 99.81796875 322.0390625 100.66796875 C318.15413088 103.25792316 314.93339014 102.92022417 310.43359375 102.86328125 C309.59438889 102.86045135 308.75518402 102.85762146 307.89054871 102.85470581 C305.21074147 102.8435126 302.53126869 102.81840976 299.8515625 102.79296875 C298.03451004 102.78293783 296.21745233 102.77381218 294.40039062 102.765625 C289.94648575 102.74357609 285.49283083 102.70905226 281.0390625 102.66796875 C281.1009375 104.58609375 281.1009375 104.58609375 281.1640625 106.54296875 C281.234375 108.72265625 281.234375 108.72265625 281.0390625 110.66796875 C279.0390625 112.66796875 279.0390625 112.66796875 275.5625 112.86328125 C274.17955282 112.84998368 272.79667596 112.82613107 271.4140625 112.79296875 C270.35445313 112.77943359 270.35445313 112.77943359 269.2734375 112.765625 C267.52850152 112.74204478 265.78373955 112.70617336 264.0390625 112.66796875 C263.760625 113.61027344 263.4821875 114.55257812 263.1953125 115.5234375 C261.62014376 119.8072579 259.05194298 121.66152851 255.0390625 123.66796875 C252.55806516 123.75446326 250.10561322 123.78361929 247.625 123.765625 C246.89536041 123.76421005 246.16572083 123.7627951 245.41397095 123.76133728 C243.08062665 123.75573406 240.74737786 123.7431811 238.4140625 123.73046875 C236.83333472 123.72545416 235.25260543 123.72089118 233.671875 123.71679688 C229.79423396 123.70576359 225.91666443 123.68849686 222.0390625 123.66796875 C222.0390625 127.29796875 222.0390625 130.92796875 222.0390625 134.66796875 C223.5859375 134.58546875 225.1328125 134.50296875 226.7265625 134.41796875 C230.49679289 134.40728821 231.79451415 134.51824527 235.1015625 136.54296875 C238.39666172 140.15694854 238.14878634 142.4761371 238.1015625 147.29296875 C238.09253906 148.48148438 238.08351563 149.67 238.07421875 150.89453125 C238.05681641 152.26738281 238.05681641 152.26738281 238.0390625 153.66796875 C239.06386719 153.60996094 240.08867187 153.55195313 241.14453125 153.4921875 C242.50516261 153.44526918 243.86584346 153.39977123 245.2265625 153.35546875 C246.23686523 153.29262695 246.23686523 153.29262695 247.26757812 153.22851562 C250.99982875 153.13748512 252.89019048 153.56602593 255.98828125 155.6875 C258.53630651 159.39063005 258.78437389 162.32071704 258.6640625 166.66796875 C258.69306641 167.71597656 258.69306641 167.71597656 258.72265625 168.78515625 C258.6866127 172.60577248 258.12025715 174.5554101 255.875 177.66796875 C252.54546231 180.01607246 251.0028966 179.8434992 247.0390625 179.66796875 C247.0169316 180.24949707 246.9948007 180.83102539 246.97199917 181.43017578 C246.41144348 195.86811384 245.5756197 210.26143116 244.48046875 224.66796875 C244.32947589 226.68747971 244.17876131 228.70701149 244.02830505 230.7265625 C243.7153072 234.91813601 243.40000458 239.10952678 243.08276367 243.30078125 C242.68162143 248.60106643 242.28481244 253.90166429 241.8895731 259.20239258 C241.57930775 263.36044248 241.26748544 267.51837446 240.95515251 271.67626953 C240.808592 273.62774547 240.66230455 275.57924195 240.51632881 277.53076172 C240.17607641 282.07079644 239.82890519 286.61006936 239.46707153 291.1484375 C239.1556333 295.06602907 238.88485131 298.98463003 238.62936401 302.90625 C238.48111557 304.97268664 238.33245474 307.03909375 238.18334961 309.10546875 C238.12802598 310.0588916 238.07270235 311.01231445 238.01570225 311.99462891 C237.49819733 318.79240263 236.1843719 323.88411556 230.88061523 328.57836914 C226.7651595 330.15644964 222.94797839 330.11625214 218.57421875 330.1015625 C217.66328964 330.10680435 216.75236053 330.1120462 215.81382751 330.1174469 C213.89160174 330.12385641 211.96933668 330.12254398 210.04711914 330.11401367 C207.11468267 330.10550681 204.18419718 330.13427446 201.25195312 330.16601562 C199.38020891 330.16762795 197.50846127 330.16704952 195.63671875 330.1640625 C194.764673 330.17529648 193.89262726 330.18653046 192.99415588 330.19810486 C187.55929132 330.13625185 184.22840027 329.4628392 180.0390625 325.66796875 C177.52226962 321.39851844 176.58893009 317.94130903 176.21118164 313.02246094 C176.15857367 312.38211033 176.10596569 311.74175972 176.05176353 311.08200455 C175.88056682 308.96037346 175.72731714 306.83785145 175.57421875 304.71484375 C175.45579381 303.19889331 175.33630794 301.68302543 175.21583557 300.16723633 C174.89555871 296.0955357 174.59114353 292.0227934 174.29010773 287.94963074 C174.03848091 284.57095045 173.77776321 281.19299833 173.51688766 277.81502151 C172.66395206 266.76797074 171.84508418 255.71853118 171.0390625 244.66796875 C170.98241676 243.8923761 170.92577103 243.11678345 170.86740875 242.31768799 C170.11581801 232.01896624 169.38058575 221.71919612 168.6640625 211.41796875 C168.53609787 209.58051086 168.53609787 209.58051086 168.4055481 207.70593262 C168.16805177 204.27162106 167.93457941 200.83706727 167.703125 197.40234375 C167.63468887 196.40783203 167.56625275 195.41332031 167.4957428 194.38867188 C167.1702357 189.46839205 166.96672308 184.59896417 167.0390625 179.66796875 C166.1521875 179.77109375 165.2653125 179.87421875 164.3515625 179.98046875 C161.0390625 179.66796875 161.0390625 179.66796875 158.37109375 177.6484375 C155.48682067 173.96217225 155.28961711 171.16459537 155.4140625 166.66796875 C155.38505859 165.61996094 155.38505859 165.61996094 155.35546875 164.55078125 C155.39074373 160.81163288 155.96402559 158.7770224 158.08984375 155.6875 C161.75668792 153.17656168 164.57583499 153.08951441 168.8515625 153.35546875 C169.89086914 153.38930664 169.89086914 153.38930664 170.95117188 153.42382812 C172.64807823 153.48234214 174.34386111 153.57201395 176.0390625 153.66796875 C175.99265625 152.78753906 175.94625 151.90710938 175.8984375 151 C175.86234375 149.83855469 175.82625 148.67710937 175.7890625 147.48046875 C175.74265625 146.33191406 175.69625 145.18335938 175.6484375 144 C176.1140682 140.02817013 177.26276637 138.4802539 180.0390625 135.66796875 C182.56381712 134.40559144 184.35106716 134.56940471 187.1640625 134.60546875 C188.7728125 134.62609375 190.3815625 134.64671875 192.0390625 134.66796875 C192.0390625 131.03796875 192.0390625 127.40796875 192.0390625 123.66796875 C162.6690625 123.66796875 133.2990625 123.66796875 103.0390625 123.66796875 C103.0390625 127.29796875 103.0390625 130.92796875 103.0390625 134.66796875 C104.5859375 134.58546875 106.1328125 134.50296875 107.7265625 134.41796875 C111.49679289 134.40728821 112.79451415 134.51824527 116.1015625 136.54296875 C119.39666172 140.15694854 119.14878634 142.4761371 119.1015625 147.29296875 C119.09253906 148.48148438 119.08351563 149.67 119.07421875 150.89453125 C119.05681641 152.26738281 119.05681641 152.26738281 119.0390625 153.66796875 C120.06386719 153.60996094 121.08867187 153.55195313 122.14453125 153.4921875 C123.50516261 153.44526918 124.86584346 153.39977123 126.2265625 153.35546875 C127.23686523 153.29262695 127.23686523 153.29262695 128.26757812 153.22851562 C131.99982875 153.13748512 133.89019048 153.56602593 136.98828125 155.6875 C139.53630651 159.39063005 139.78437389 162.32071704 139.6640625 166.66796875 C139.69306641 167.71597656 139.69306641 167.71597656 139.72265625 168.78515625 C139.6866127 172.60577248 139.12025715 174.5554101 136.875 177.66796875 C133.54546231 180.01607246 132.0028966 179.8434992 128.0390625 179.66796875 C128.0169316 180.24949707 127.9948007 180.83102539 127.97199917 181.43017578 C127.41144348 195.86811384 126.5756197 210.26143116 125.48046875 224.66796875 C125.32947589 226.68747971 125.17876131 228.70701149 125.02830505 230.7265625 C124.7153072 234.91813601 124.40000458 239.10952678 124.08276367 243.30078125 C123.68162143 248.60106643 123.28481244 253.90166429 122.8895731 259.20239258 C122.57930775 263.36044248 122.26748544 267.51837446 121.95515251 271.67626953 C121.808592 273.62774547 121.66230455 275.57924195 121.51632881 277.53076172 C121.10860558 282.97106902 120.68789886 288.41015694 120.25645828 293.84863281 C120.02281186 296.87871807 119.80867259 299.90990681 119.59420776 302.94140625 C119.43694744 305.01696698 119.27917455 307.09248895 119.12084961 309.16796875 C119.05714707 310.12977051 118.99344454 311.09157227 118.92781162 312.08251953 C118.41074987 318.59304858 117.49608999 323.44626742 112.44921875 328.00976562 C107.98006086 330.18291284 104.38191699 330.24492929 99.4765625 330.19921875 C98.56704834 330.20304565 97.65753418 330.20687256 96.72045898 330.21081543 C94.80418791 330.2135283 92.88787941 330.20621101 90.97167969 330.18945312 C88.04798379 330.16803411 85.12674498 330.1892756 82.203125 330.21484375 C80.33593211 330.21220036 78.46874074 330.20707516 76.6015625 330.19921875 C75.73265381 330.20731567 74.86374512 330.2154126 73.96850586 330.22375488 C68.54913176 330.14053125 65.21788928 329.44656099 61.0390625 325.66796875 C58.52202668 321.39868519 57.58892511 317.94124415 57.21118164 313.02246094 C57.15857367 312.38211033 57.10596569 311.74175972 57.05176353 311.08200455 C56.88056682 308.96037346 56.72731714 306.83785145 56.57421875 304.71484375 C56.45579381 303.19889331 56.33630794 301.68302543 56.21583557 300.16723633 C55.89555871 296.0955357 55.59114353 292.0227934 55.29010773 287.94963074 C55.03848091 284.57095045 54.77776321 281.19299833 54.51688766 277.81502151 C53.66395206 266.76797074 52.84508418 255.71853118 52.0390625 244.66796875 C51.98241676 243.8923761 51.92577103 243.11678345 51.86740875 242.31768799 C51.11581801 232.01896624 50.38058575 221.71919612 49.6640625 211.41796875 C49.57875275 210.19299683 49.49344299 208.9680249 49.4055481 207.70593262 C49.16805177 204.27162106 48.93457941 200.83706727 48.703125 197.40234375 C48.63468887 196.40783203 48.56625275 195.41332031 48.4957428 194.38867188 C48.1702357 189.46839205 47.96672308 184.59896417 48.0390625 179.66796875 C47.1521875 179.77109375 46.2653125 179.87421875 45.3515625 179.98046875 C42.0390625 179.66796875 42.0390625 179.66796875 39.37109375 177.6484375 C36.48682067 173.96217225 36.28961711 171.16459537 36.4140625 166.66796875 C36.39472656 165.96929687 36.37539062 165.270625 36.35546875 164.55078125 C36.39074373 160.81163288 36.96402559 158.7770224 39.08984375 155.6875 C42.75668792 153.17656168 45.57583499 153.08951441 49.8515625 153.35546875 C50.89086914 153.38930664 50.89086914 153.38930664 51.95117188 153.42382812 C53.64807823 153.48234214 55.34386111 153.57201395 57.0390625 153.66796875 C56.99265625 152.78753906 56.94625 151.90710938 56.8984375 151 C56.86234375 149.83855469 56.82625 148.67710937 56.7890625 147.48046875 C56.74265625 146.33191406 56.69625 145.18335938 56.6484375 144 C57.1140682 140.02817013 58.26276637 138.4802539 61.0390625 135.66796875 C63.56381712 134.40559144 65.35106716 134.56940471 68.1640625 134.60546875 C69.7728125 134.62609375 71.3815625 134.64671875 73.0390625 134.66796875 C73.0390625 131.03796875 73.0390625 127.40796875 73.0390625 123.66796875 C43.6690625 123.66796875 14.2990625 123.66796875 -15.9609375 123.66796875 C-15.9609375 127.29796875 -15.9609375 130.92796875 -15.9609375 134.66796875 C-14.4140625 134.58546875 -12.8671875 134.50296875 -11.2734375 134.41796875 C-7.50320711 134.40728821 -6.20548585 134.51824527 -2.8984375 136.54296875 C0.39666172 140.15694854 0.14878634 142.4761371 0.1015625 147.29296875 C0.09253906 148.48148438 0.08351562 149.67 0.07421875 150.89453125 C0.05681641 152.26738281 0.05681641 152.26738281 0.0390625 153.66796875 C1.57626953 153.58095703 1.57626953 153.58095703 3.14453125 153.4921875 C4.50516261 153.44526918 5.86584346 153.39977123 7.2265625 153.35546875 C7.90009766 153.31357422 8.57363281 153.27167969 9.26757812 153.22851562 C12.99982875 153.13748512 14.89019048 153.56602593 17.98828125 155.6875 C20.53630651 159.39063005 20.78437389 162.32071704 20.6640625 166.66796875 C20.68339844 167.36664063 20.70273438 168.0653125 20.72265625 168.78515625 C20.6866127 172.60577248 20.12025715 174.5554101 17.875 177.66796875 C14.54546231 180.01607246 13.0028966 179.8434992 9.0390625 179.66796875 C9.0169316 180.24949707 8.9948007 180.83102539 8.97199917 181.43017578 C8.41144348 195.86811384 7.5756197 210.26143116 6.48046875 224.66796875 C6.32947589 226.68747971 6.17876131 228.70701149 6.02830505 230.7265625 C5.7153072 234.91813601 5.40000458 239.10952678 5.08276367 243.30078125 C4.68162143 248.60106643 4.28481244 253.90166429 3.8895731 259.20239258 C3.57930775 263.36044248 3.26748544 267.51837446 2.95515251 271.67626953 C2.808592 273.62774547 2.66230455 275.57924195 2.51632881 277.53076172 C2.10860558 282.97106902 1.68789886 288.41015694 1.25645828 293.84863281 C1.02281186 296.87871807 0.80867259 299.90990681 0.59420776 302.94140625 C0.43694744 305.01696698 0.27917455 307.09248895 0.12084961 309.16796875 C0.05714707 310.12977051 -0.00655546 311.09157227 -0.07218838 312.08251953 C-0.58925013 318.59304858 -1.50391001 323.44626742 -6.55078125 328.00976562 C-11.01993914 330.18291284 -14.61808301 330.24492929 -19.5234375 330.19921875 C-20.43295166 330.20304565 -21.34246582 330.20687256 -22.27954102 330.21081543 C-24.19581209 330.2135283 -26.11212059 330.20621101 -28.02832031 330.18945312 C-30.95201621 330.16803411 -33.87325502 330.1892756 -36.796875 330.21484375 C-38.66406789 330.21220036 -40.53125926 330.20707516 -42.3984375 330.19921875 C-43.26734619 330.20731567 -44.13625488 330.2154126 -45.03149414 330.22375488 C-50.45086824 330.14053125 -53.78211072 329.44656099 -57.9609375 325.66796875 C-60.47797332 321.39868519 -61.41107489 317.94124415 -61.78881836 313.02246094 C-61.84142633 312.38211033 -61.89403431 311.74175972 -61.94823647 311.08200455 C-62.11943318 308.96037346 -62.27268286 306.83785145 -62.42578125 304.71484375 C-62.54420619 303.19889331 -62.66369206 301.68302543 -62.78416443 300.16723633 C-63.10444129 296.0955357 -63.40885647 292.0227934 -63.70989227 287.94963074 C-63.96151909 284.57095045 -64.22223679 281.19299833 -64.48311234 277.81502151 C-65.33604794 266.76797074 -66.15491582 255.71853118 -66.9609375 244.66796875 C-67.04590611 243.50457977 -67.04590611 243.50457977 -67.13259125 242.31768799 C-67.88418199 232.01896624 -68.61941425 221.71919612 -69.3359375 211.41796875 C-69.42124725 210.19299683 -69.50655701 208.9680249 -69.5944519 207.70593262 C-69.83194823 204.27162106 -70.06542059 200.83706727 -70.296875 197.40234375 C-70.36531113 196.40783203 -70.43374725 195.41332031 -70.5042572 194.38867188 C-70.8297643 189.46839205 -71.03327692 184.59896417 -70.9609375 179.66796875 C-71.8478125 179.77109375 -72.7346875 179.87421875 -73.6484375 179.98046875 C-76.9609375 179.66796875 -76.9609375 179.66796875 -79.62890625 177.6484375 C-82.51317933 173.96217225 -82.71038289 171.16459537 -82.5859375 166.66796875 C-82.60527344 165.96929687 -82.62460938 165.270625 -82.64453125 164.55078125 C-82.60925627 160.81163288 -82.03597441 158.7770224 -79.91015625 155.6875 C-76.24331208 153.17656168 -73.42416501 153.08951441 -69.1484375 153.35546875 C-68.10913086 153.38930664 -68.10913086 153.38930664 -67.04882812 153.42382812 C-65.35192177 153.48234214 -63.65613889 153.57201395 -61.9609375 153.66796875 C-62.00734375 152.78753906 -62.05375 151.90710938 -62.1015625 151 C-62.13765625 149.83855469 -62.17375 148.67710937 -62.2109375 147.48046875 C-62.25734375 146.33191406 -62.30375 145.18335938 -62.3515625 144 C-61.8859318 140.02817013 -60.73723363 138.4802539 -57.9609375 135.66796875 C-55.43618288 134.40559144 -53.64893284 134.56940471 -50.8359375 134.60546875 C-49.2271875 134.62609375 -47.6184375 134.64671875 -45.9609375 134.66796875 C-45.9609375 131.03796875 -45.9609375 127.40796875 -45.9609375 123.66796875 C-46.92918457 123.68891602 -47.89743164 123.70986328 -48.89501953 123.73144531 C-52.50668395 123.80415387 -56.11828441 123.84987931 -59.73046875 123.88769531 C-61.29014994 123.90774097 -62.84975663 123.93498532 -64.40917969 123.96972656 C-66.65839064 124.01856001 -68.9066034 124.0410069 -71.15625 124.05859375 C-72.19255051 124.08956146 -72.19255051 124.08956146 -73.24978638 124.12115479 C-78.28850121 124.12346052 -81.0845979 122.82230861 -84.9609375 119.66796875 C-87.9609375 115.46796875 -87.9609375 115.46796875 -87.9609375 112.66796875 C-89.02054688 112.69117188 -90.08015625 112.714375 -91.171875 112.73828125 C-92.5598888 112.75703819 -93.9479102 112.77523847 -95.3359375 112.79296875 C-96.03460938 112.80972656 -96.73328125 112.82648438 -97.453125 112.84375 C-99.28991236 112.86141142 -101.12695713 112.77100136 -102.9609375 112.66796875 C-104.9609375 110.66796875 -104.9609375 110.66796875 -105.15625 108.72265625 C-105.09114583 106.70442708 -105.02604167 104.68619792 -104.9609375 102.66796875 C-106.66407104 102.6836792 -106.66407104 102.6836792 -108.40161133 102.69970703 C-112.61154023 102.7358893 -116.82145537 102.75886277 -121.03149414 102.77783203 C-122.85410879 102.78789366 -124.67670729 102.80154435 -126.49926758 102.81884766 C-129.11804185 102.84308896 -131.73660281 102.85445013 -134.35546875 102.86328125 C-135.57904839 102.87876511 -135.57904839 102.87876511 -136.8273468 102.89456177 C-140.73224506 102.89533735 -142.63617758 102.88447536 -145.9609375 100.66796875 C-146.2734375 98.16796875 -146.2734375 98.16796875 -145.9609375 95.66796875 C-143.9609375 93.66796875 -143.9609375 93.66796875 -140.15380859 93.44091797 C-138.5139633 93.44123529 -136.87409733 93.45257194 -135.234375 93.47265625 C-133.94015121 93.47690109 -133.94015121 93.47690109 -132.61978149 93.48123169 C-129.8583603 93.49244542 -127.097261 93.51755191 -124.3359375 93.54296875 C-122.46615051 93.55299702 -120.59635845 93.56212313 -118.7265625 93.5703125 C-114.13789641 93.59238863 -109.54947157 93.62692641 -104.9609375 93.66796875 C-104.9609375 88.71796875 -104.9609375 83.76796875 -104.9609375 78.66796875 C-106.71736572 78.67582397 -106.71736572 78.67582397 -108.50927734 78.68383789 C-112.84406778 78.70190633 -117.17885487 78.71340754 -121.51367188 78.72290039 C-123.39160725 78.72793638 -125.2695387 78.73476546 -127.14746094 78.7434082 C-129.84310882 78.75550588 -132.53870497 78.76120432 -135.234375 78.765625 C-136.07712982 78.77078629 -136.91988464 78.77594757 -137.78817749 78.78126526 C-143.73319409 78.78184046 -143.73319409 78.78184046 -145.9609375 77.66796875 C-146.00348106 75.66842129 -146.00174533 73.66755239 -145.9609375 71.66796875 C-144.9609375 70.66796875 -144.9609375 70.66796875 -141.17553711 70.55444336 C-139.48811021 70.55460253 -137.80067845 70.56029958 -136.11328125 70.5703125 C-134.78364098 70.57243492 -134.78364098 70.57243492 -133.42713928 70.57460022 C-130.58420496 70.5802166 -127.74134819 70.59277184 -124.8984375 70.60546875 C-122.97591259 70.61048164 -121.05338646 70.61504491 -119.13085938 70.61914062 C-114.40752201 70.63019134 -109.68424292 70.64746692 -104.9609375 70.66796875 C-104.99574219 70.04148437 -105.03054687 69.415 -105.06640625 68.76953125 C-105.09347656 67.95226562 -105.12054688 67.135 -105.1484375 66.29296875 C-105.20064453 65.07480469 -105.20064453 65.07480469 -105.25390625 63.83203125 C-105.15722656 63.11789063 -105.06054688 62.40375 -104.9609375 61.66796875 C-101.2241532 59.17677922 -99.21641931 59.46144615 -94.7734375 59.54296875 C-93.50113281 59.56101563 -92.22882813 59.5790625 -90.91796875 59.59765625 C-89.94214844 59.62085938 -88.96632812 59.6440625 -87.9609375 59.66796875 C-87.6825 58.72566406 -87.4040625 57.78335938 -87.1171875 56.8125 C-85.54201876 52.5286796 -82.97381798 50.67440899 -78.9609375 48.66796875 C-76.27667763 48.54548659 -73.61665965 48.48227053 -70.93115234 48.46264648 C-70.10180679 48.45274689 -69.27246124 48.44284729 -68.41798401 48.43264771 C-65.66931031 48.40099211 -62.92061932 48.37625926 -60.171875 48.3515625 C-58.26900781 48.33099648 -56.36614523 48.3100001 -54.46328735 48.28858948 C-49.44917525 48.23333248 -44.43502168 48.18393922 -39.4208374 48.13574219 C-34.30656228 48.08555363 -29.19234756 48.02985377 -24.078125 47.97460938 C-14.03911407 47.86698344 -4.00005075 47.76554833 6.0390625 47.66796875 C5.55183212 46.6427562 5.06460175 45.61754364 4.56260681 44.56126404 C3.92039569 43.20034534 3.27836092 41.83934341 2.63647461 40.47827148 C2.15526279 39.46752689 2.15526279 39.46752689 1.66432953 38.43636322 C-0.59709799 33.62855128 -2.31770819 28.9443287 -3.3984375 23.73046875 C-3.55763672 23.03501953 -3.71683594 22.33957031 -3.88085938 21.62304688 C-4.25599575 19.97472037 -4.61103906 18.32183653 -4.9609375 16.66796875 C-7.51628515 17.84735997 -8.96888593 18.67668639 -10.8984375 20.79296875 C-12.9609375 22.66796875 -12.9609375 22.66796875 -15.5859375 23.04296875 C-17.9609375 22.66796875 -17.9609375 22.66796875 -19.9609375 20.66796875 C-19.89615976 16.74351736 -19.4031118 15.11978779 -16.6328125 12.2890625 C-15.66859375 11.56847656 -14.704375 10.84789062 -13.7109375 10.10546875 C-10.68245997 7.80955538 -8.01574659 5.72924118 -5.4765625 2.890625 C-2.9609375 0.66796875 -2.9609375 0.66796875 0 0 Z M-78.46461487 58.38330078 C-80.22866419 61.07674863 -80.46700217 62.53818199 -80.47851562 65.74023438 C-80.49112427 66.74807983 -80.50373291 67.75592529 -80.51672363 68.79431152 C-80.50862671 69.87668091 -80.50052979 70.95905029 -80.4921875 72.07421875 C-80.4960144 73.19107056 -80.49984131 74.30792236 -80.50378418 75.45861816 C-80.50650506 77.81893821 -80.4991317 80.17928832 -80.48242188 82.53955078 C-80.46101634 86.1546545 -80.48221928 89.76777068 -80.5078125 93.3828125 C-80.50516926 95.67578564 -80.50004436 97.96875755 -80.4921875 100.26171875 C-80.50028442 101.34408813 -80.50838135 102.42645752 -80.51672363 103.54162598 C-80.50411499 104.54947144 -80.49150635 105.55731689 -80.47851562 106.59570312 C-80.47533325 107.48076538 -80.47215088 108.36582764 -80.46887207 109.27770996 C-79.78050978 112.51703271 -78.51432173 113.59520625 -75.9609375 115.66796875 C-73.31389375 116.26417779 -73.31389375 116.26417779 -70.35742188 116.17133331 C-68.63534515 116.1869798 -68.63534515 116.1869798 -66.878479 116.20294237 C-65.61662781 116.19401948 -64.35477661 116.1850966 -63.0546875 116.17590332 C-61.7011447 116.18051122 -60.34760689 116.18686339 -58.99407959 116.1948123 C-55.27098749 116.21154441 -51.54830434 116.20324193 -47.82521057 116.19086742 C-43.8115051 116.181835 -39.79787107 116.19577764 -35.78417969 116.20678711 C-27.91993028 116.22459632 -20.05583336 116.2207217 -12.19157791 116.20913655 C-5.80153398 116.20011192 0.58846715 116.19887401 6.97851562 116.20323181 C8.34144808 116.20415121 8.34144808 116.20415121 9.73191452 116.20508918 C11.57762147 116.20636805 13.42332841 116.2076649 15.26903534 116.20897955 C32.58614581 116.22039238 49.90317166 116.20726062 67.22026825 116.18577808 C82.08699206 116.16790646 96.95359095 116.17101037 111.8203125 116.18945312 C129.07442279 116.21084743 146.32845887 116.21929368 163.58258057 116.20700407 C165.42159016 116.20572984 167.26059976 116.20447236 169.09960938 116.20323181 C170.00449474 116.20261471 170.90938011 116.20199761 171.84168625 116.20136181 C178.22585579 116.19790458 184.60997836 116.20374526 190.99414062 116.21315002 C198.77175421 116.22435541 206.54920628 116.22136082 214.3268013 116.20002705 C218.29693749 116.18949685 222.26680413 116.18542806 226.23693848 116.19862366 C229.86894075 116.21051305 233.50042278 116.20404295 237.13237762 116.18271345 C239.07378688 116.17610426 241.01523204 116.18921441 242.956604 116.20294237 C244.10465515 116.19251138 245.2527063 116.18208039 246.43554688 116.17133331 C247.92459534 116.1703592 247.92459534 116.1703592 249.44372559 116.16936541 C252.76819275 115.52710709 253.95997903 114.28663454 256.0390625 111.66796875 C256.63844718 109.24773846 256.63844718 109.24773846 256.55664062 106.59570312 C256.57555359 105.08393494 256.57555359 105.08393494 256.59484863 103.54162598 C256.58270325 101.9180719 256.58270325 101.9180719 256.5703125 100.26171875 C256.57605286 98.58644104 256.57605286 98.58644104 256.58190918 96.87731934 C256.58463006 94.51699929 256.5772567 92.15664918 256.56054688 89.79638672 C256.53914134 86.181283 256.56034428 82.56816682 256.5859375 78.953125 C256.58329426 76.66015186 256.57816936 74.36717995 256.5703125 72.07421875 C256.58245789 70.45066467 256.58245789 70.45066467 256.59484863 68.79431152 C256.58223999 67.78646606 256.56963135 66.77862061 256.55664062 65.74023438 C256.55345825 64.85517212 256.55027588 63.97010986 256.54699707 63.05822754 C255.83355438 59.70088044 254.8661597 58.62192977 252.0390625 56.66796875 C249.10919636 56.22721829 246.5416355 56.02977378 243.60546875 56.00756836 C242.33140419 55.97536949 242.33140419 55.97536949 241.03160095 55.94252014 C238.2214839 55.87901056 235.41225897 55.84686657 232.6015625 55.8203125 C231.63831055 55.80775484 230.67505859 55.79519718 229.68261719 55.78225899 C224.57891272 55.7164362 219.47565548 55.6744492 214.37158203 55.65209961 C209.12222808 55.62466379 203.87766623 55.51836337 198.62986755 55.39301205 C194.57513684 55.31055521 190.52153154 55.2869715 186.46603394 55.2788105 C184.53307271 55.2649435 182.60013158 55.22949295 180.66799927 55.17121696 C169.19430446 54.60961301 169.19430446 54.60961301 159.26635742 59.50808716 C156.17108206 62.64755515 153.64855711 66.12257923 151.0390625 69.66796875 C134.02245733 86.1577816 110.24574427 93.28922469 87.0390625 93.66796875 C60.12807446 93.21114642 36.88539105 82.08762397 18.09765625 62.9296875 C16.0390625 60.66796875 16.0390625 60.66796875 14.93833923 58.55895996 C12.45687523 56.08832125 10.46557775 56.17723 7.06217957 56.12585449 C5.83946098 56.13799988 5.83946098 56.13799988 4.59204102 56.15039062 C3.72996033 56.14338135 2.86787964 56.13637207 1.97967529 56.12915039 C-0.87455307 56.1115226 -3.72779252 56.12321098 -6.58203125 56.13671875 C-8.56356497 56.13402496 -10.5450974 56.13014349 -12.52662659 56.12512207 C-16.68202281 56.11922033 -20.83707534 56.12781084 -24.99243164 56.14648438 C-30.32035697 56.16925937 -35.64747573 56.1561642 -40.97537136 56.13219452 C-45.06832458 56.11774215 -49.16108652 56.12234024 -53.25404549 56.13270569 C-55.2184566 56.13537529 -57.18288505 56.13209502 -59.14727592 56.12278748 C-61.89349234 56.11263282 -64.63840241 56.12810818 -67.38452148 56.15039062 C-68.19764297 56.1422937 -69.01076447 56.13419678 -69.848526 56.12585449 C-73.34315294 56.1784088 -75.54768456 56.38483881 -78.46461487 58.38330078 Z M-96.9609375 68.66796875 C-96.9609375 80.54796875 -96.9609375 92.42796875 -96.9609375 104.66796875 C-93.9909375 104.66796875 -91.0209375 104.66796875 -87.9609375 104.66796875 C-87.9609375 92.78796875 -87.9609375 80.90796875 -87.9609375 68.66796875 C-90.9309375 68.66796875 -93.9009375 68.66796875 -96.9609375 68.66796875 Z M264.0390625 68.66796875 C264.0390625 80.54796875 264.0390625 92.42796875 264.0390625 104.66796875 C267.0090625 104.66796875 269.9790625 104.66796875 273.0390625 104.66796875 C273.0390625 92.78796875 273.0390625 80.90796875 273.0390625 68.66796875 C270.0690625 68.66796875 267.0990625 68.66796875 264.0390625 68.66796875 Z M-36.9609375 123.66796875 C-36.9609375 127.29796875 -36.9609375 130.92796875 -36.9609375 134.66796875 C-32.6709375 134.66796875 -28.3809375 134.66796875 -23.9609375 134.66796875 C-23.9609375 131.03796875 -23.9609375 127.40796875 -23.9609375 123.66796875 C-28.2509375 123.66796875 -32.5409375 123.66796875 -36.9609375 123.66796875 Z M82.0390625 123.66796875 C82.0390625 127.29796875 82.0390625 130.92796875 82.0390625 134.66796875 C86.3290625 134.66796875 90.6190625 134.66796875 95.0390625 134.66796875 C95.0390625 131.03796875 95.0390625 127.40796875 95.0390625 123.66796875 C90.7490625 123.66796875 86.4590625 123.66796875 82.0390625 123.66796875 Z M200.0390625 123.66796875 C200.0390625 127.29796875 200.0390625 130.92796875 200.0390625 134.66796875 C204.3290625 134.66796875 208.6190625 134.66796875 213.0390625 134.66796875 C213.0390625 131.03796875 213.0390625 127.40796875 213.0390625 123.66796875 C208.7490625 123.66796875 204.4590625 123.66796875 200.0390625 123.66796875 Z M-52.9609375 142.66796875 C-52.9609375 146.29796875 -52.9609375 149.92796875 -52.9609375 153.66796875 C-38.1109375 153.66796875 -23.2609375 153.66796875 -7.9609375 153.66796875 C-7.9609375 150.36796875 -7.9609375 147.06796875 -7.9609375 143.66796875 C-8.93727215 142.47225489 -8.93727215 142.47225489 -10.75160217 142.54771423 C-11.53103683 142.54993484 -12.3104715 142.55215546 -13.11352539 142.55444336 C-13.99436295 142.55451889 -14.8752005 142.55459442 -15.7827301 142.55467224 C-17.21865761 142.56241417 -17.21865761 142.56241417 -18.68359375 142.5703125 C-20.14641029 142.57243492 -20.14641029 142.57243492 -21.63877869 142.57460022 C-24.76702893 142.58021742 -27.89520873 142.59277282 -31.0234375 142.60546875 C-33.13867084 142.61048153 -35.25390531 142.61504482 -37.36914062 142.61914062 C-42.56643357 142.63019244 -47.76367358 142.64746859 -52.9609375 142.66796875 Z M66.0390625 142.66796875 C66.0390625 146.29796875 66.0390625 149.92796875 66.0390625 153.66796875 C80.8890625 153.66796875 95.7390625 153.66796875 111.0390625 153.66796875 C111.0390625 150.36796875 111.0390625 147.06796875 111.0390625 143.66796875 C110.06272785 142.47225489 110.06272785 142.47225489 108.24839783 142.54771423 C107.46896317 142.54993484 106.6895285 142.55215546 105.88647461 142.55444336 C105.00563705 142.55451889 104.1247995 142.55459442 103.2172699 142.55467224 C101.78134239 142.56241417 101.78134239 142.56241417 100.31640625 142.5703125 C98.85358971 142.57243492 98.85358971 142.57243492 97.36122131 142.57460022 C94.23297107 142.58021742 91.10479127 142.59277282 87.9765625 142.60546875 C85.86132916 142.61048153 83.74609469 142.61504482 81.63085938 142.61914062 C76.43356643 142.63019244 71.23632642 142.64746859 66.0390625 142.66796875 Z M184.0390625 143.66796875 C184.0390625 146.96796875 184.0390625 150.26796875 184.0390625 153.66796875 C198.8890625 153.66796875 213.7390625 153.66796875 229.0390625 153.66796875 C229.0390625 150.03796875 229.0390625 146.40796875 229.0390625 142.66796875 C222.79109996 142.6433242 216.54316547 142.62513532 210.29516602 142.61303711 C208.16788236 142.60799577 206.04060219 142.60116284 203.91333008 142.5925293 C200.86278424 142.58045496 197.81228405 142.57473861 194.76171875 142.5703125 C193.80443375 142.56515121 192.84714874 142.55998993 191.8608551 142.55467224 C190.53959877 142.55455894 190.53959877 142.55455894 189.19165039 142.55444336 C188.41221573 142.55222275 187.63278107 142.55000214 186.82972717 142.54771423 C185.01539715 142.47225489 185.01539715 142.47225489 184.0390625 143.66796875 Z M-61.9609375 179.66796875 C-61.9609375 189.42399485 -61.81103685 198.91049453 -61.0859375 208.6015625 C-60.99715332 209.84551285 -60.90836914 211.0894632 -60.81689453 212.37110901 C-60.53656189 216.28294098 -60.24889025 220.19419111 -59.9609375 224.10546875 C-59.76713733 226.78312487 -59.5749085 229.46089301 -59.3828125 232.13867188 C-58.91534674 238.6489386 -58.43792515 245.15836504 -57.9609375 251.66796875 C-40.1409375 251.66796875 -22.3209375 251.66796875 -3.9609375 251.66796875 C-2.3109375 227.90796875 -0.6609375 204.14796875 1.0390625 179.66796875 C-19.7509375 179.66796875 -40.5409375 179.66796875 -61.9609375 179.66796875 Z M56.0390625 179.66796875 C57.6890625 203.42796875 59.3390625 227.18796875 61.0390625 251.66796875 C78.8590625 251.66796875 96.6790625 251.66796875 115.0390625 251.66796875 C115.56415244 244.50189761 116.08810545 237.33587412 116.60223389 230.16902924 C116.84205992 226.82999884 117.08428658 223.4911876 117.33007812 220.15258789 C117.61317633 216.30259672 117.88923527 212.45215191 118.1640625 208.6015625 C118.29530518 206.84748329 118.29530518 206.84748329 118.42919922 205.05796814 C119.02831766 196.52900629 119.0390625 188.27257917 119.0390625 179.66796875 C98.2490625 179.66796875 77.4590625 179.66796875 56.0390625 179.66796875 Z M175.0390625 179.66796875 C176.6890625 203.42796875 178.3390625 227.18796875 180.0390625 251.66796875 C197.8590625 251.66796875 215.6790625 251.66796875 234.0390625 251.66796875 C234.56415244 244.50189761 235.08810545 237.33587412 235.60223389 230.16902924 C235.84205992 226.82999884 236.08428658 223.4911876 236.33007812 220.15258789 C236.61317633 216.30259672 236.88923527 212.45215191 237.1640625 208.6015625 C237.29530518 206.84748329 237.29530518 206.84748329 237.42919922 205.05796814 C238.02831766 196.52900629 238.0390625 188.27257917 238.0390625 179.66796875 C217.2490625 179.66796875 196.4590625 179.66796875 175.0390625 179.66796875 Z " fill="#242424" transform="translate(167.9609375,157.33203125)"/>
<path d="M0 0 C4.11629004 1.06527104 4.93583097 2.73316273 7.03979492 6.28955078 C7.69298706 7.47266846 7.69298706 7.47266846 8.359375 8.6796875 C8.82899658 9.49034668 9.29861816 10.30100586 9.7824707 11.13623047 C11.24754746 13.68015212 12.67958959 16.24079886 14.109375 18.8046875 C14.99228081 20.35225275 15.8763536 21.89915293 16.76171875 23.4453125 C24.73072648 37.47015779 32.1614547 51.79591664 38.109375 66.8046875 C38.45097656 67.66320312 38.79257812 68.52171875 39.14453125 69.40625 C43.03737194 80.52347877 42.06814002 92.20745135 37.109375 102.8046875 C31.13404565 113.2297302 21.6034595 120.52873221 10.109375 123.8046875 C-2.91895462 126.14547486 -13.70116993 123.82641032 -24.890625 116.8046875 C-33.16437169 110.40615446 -39.35032853 101.29491711 -40.890625 90.8046875 C-43.68542216 64.37793465 -25.44812474 38.00923895 -12.45605469 16.4375 C-11.07279934 14.11107678 -9.73919311 11.76685747 -8.4296875 9.3984375 C-8.07664551 8.77646484 -7.72360352 8.15449219 -7.35986328 7.51367188 C-6.47328249 5.95043119 -5.6029705 4.37799256 -4.734375 2.8046875 C-2.890625 0.8046875 -2.890625 0.8046875 0 0 Z " fill="#9DD2F8" transform="translate(255.890625,95.1953125)"/>
<path d="M0 0 C17.16 0 34.32 0 52 0 C52 6.98554882 51.92139614 13.78668936 51.4140625 20.7265625 C51.32129532 22.03625504 51.32129532 22.03625504 51.22665405 23.37240601 C51.09585337 25.1992644 50.96299366 27.02597648 50.828125 28.85253906 C50.62498878 31.6251532 50.43329207 34.39840872 50.2421875 37.171875 C50.11267337 38.96098789 49.98248788 40.75005233 49.8515625 42.5390625 C49.76861435 43.76286118 49.76861435 43.76286118 49.68399048 45.01138306 C49.27463006 50.37284157 48.77536087 55.89427604 47 61 C43.74891482 62.62554259 40.17104094 62.18441026 36.59765625 62.203125 C35.34739906 62.21167511 35.34739906 62.21167511 34.07188416 62.22039795 C32.30745718 62.22985044 30.54301254 62.23638292 28.77856445 62.24023438 C26.07667365 62.24994904 23.3755406 62.28097304 20.67382812 62.3125 C18.96094203 62.31902913 17.24805048 62.32427996 15.53515625 62.328125 C14.7257106 62.3404718 13.91626495 62.3528186 13.08229065 62.36553955 C7.46737264 62.34319401 7.46737264 62.34319401 5.30691528 60.75675964 C3.69298595 58.58731075 3.51051676 57.22025476 3.29223633 54.53540039 C3.21237991 53.63338394 3.1325235 52.73136749 3.05024719 51.80201721 C2.97823593 50.82707809 2.90622467 49.85213898 2.83203125 48.84765625 C2.74749191 47.83714706 2.66295258 46.82663788 2.57585144 45.7855072 C2.39908164 43.64162001 2.2288739 41.49718324 2.06469727 39.35229492 C1.81578032 36.10529021 1.54748678 32.86037024 1.27539062 29.61523438 C1.10561454 27.52613531 0.93696048 25.43694471 0.76953125 23.34765625 C0.6914473 22.39093521 0.61336334 21.43421417 0.53291321 20.44850159 C0.01262433 13.5725088 0 6.94402634 0 0 Z " fill="#9ED4FA" transform="translate(111,417)"/>
<path d="M0 0 C17.16 0 34.32 0 52 0 C52 6.60041279 51.89245812 13.03340609 51.4140625 19.59375 C51.32129532 20.90200745 51.32129532 20.90200745 51.22665405 22.23669434 C51.09567849 24.06532026 50.9628153 25.8938119 50.828125 27.72216797 C50.62553398 30.49269757 50.43358397 33.26383357 50.2421875 36.03515625 C50.1126272 37.82556785 49.9824397 39.61593419 49.8515625 41.40625 C49.76861435 42.62701233 49.76861435 42.62701233 49.68399048 43.87243652 C49.24802179 49.60532586 48.70569463 55.48893563 47 61 C43.74891482 62.62554259 40.17104094 62.18441026 36.59765625 62.203125 C35.34739906 62.21167511 35.34739906 62.21167511 34.07188416 62.22039795 C32.30745718 62.22985044 30.54301254 62.23638292 28.77856445 62.24023438 C26.07667365 62.24994904 23.3755406 62.28097304 20.67382812 62.3125 C18.96094203 62.31902913 17.24805048 62.32427996 15.53515625 62.328125 C14.7257106 62.3404718 13.91626495 62.3528186 13.08229065 62.36553955 C7.44713566 62.34311347 7.44713566 62.34311347 5.30018616 60.69563293 C3.15112873 57.89294769 3.3023422 54.59355595 3.0859375 51.18359375 C3.02596588 50.41249771 2.96599426 49.64140167 2.90420532 48.84693909 C2.71492926 46.37789404 2.54453038 43.90797184 2.375 41.4375 C2.25388669 39.80133685 2.13150422 38.16526712 2.0078125 36.52929688 C1.82791444 34.14674968 1.64973227 31.76418718 1.47918701 29.38095093 C1.19772472 25.46235169 0.86402484 21.56377694 0.4140625 17.66015625 C-0.10707279 11.79492604 0 5.88833656 0 0 Z " fill="#9ED4FA" transform="translate(349,417)"/>
<path d="M0 0 C17.16 0 34.32 0 52 0 C52 6.60041279 51.89245812 13.03340609 51.4140625 19.59375 C51.32129532 20.90200745 51.32129532 20.90200745 51.22665405 22.23669434 C51.09567849 24.06532026 50.9628153 25.8938119 50.828125 27.72216797 C50.62553398 30.49269757 50.43358397 33.26383357 50.2421875 36.03515625 C50.1126272 37.82556785 49.9824397 39.61593419 49.8515625 41.40625 C49.76861435 42.62701233 49.76861435 42.62701233 49.68399048 43.87243652 C49.24802179 49.60532586 48.70569463 55.48893563 47 61 C43.74891482 62.62554259 40.17104094 62.18441026 36.59765625 62.203125 C35.34739906 62.21167511 35.34739906 62.21167511 34.07188416 62.22039795 C32.30745718 62.22985044 30.54301254 62.23638292 28.77856445 62.24023438 C26.07667365 62.24994904 23.3755406 62.28097304 20.67382812 62.3125 C18.96094203 62.31902913 17.24805048 62.32427996 15.53515625 62.328125 C14.7257106 62.3404718 13.91626495 62.3528186 13.08229065 62.36553955 C7.4461127 62.3431094 7.4461127 62.3431094 5.30018616 60.69265747 C3.16664745 57.9150935 3.3032746 54.67019814 3.0859375 51.2890625 C3.02596588 50.52508148 2.96599426 49.76110046 2.90420532 48.97396851 C2.71495304 46.525087 2.54468487 44.07530733 2.375 41.625 C2.2538601 40.01422797 2.13147679 38.40354894 2.0078125 36.79296875 C1.7683071 33.64932974 1.53791446 30.50523975 1.31542969 27.36035156 C0.97875319 22.62495153 0.58263251 17.89493208 0.17041016 13.16552734 C-0.06551508 8.78299632 0 4.38887672 0 0 Z " fill="#9ED4FA" transform="translate(230,417)"/>
<path d="M0 0 C20.3907678 16.05998526 31.25133035 35.19614873 37.08984375 60.43359375 C37.60933594 60.01207031 38.12882813 59.59054688 38.6640625 59.15625 C45.94866728 53.43359375 45.94866728 53.43359375 50.08984375 53.43359375 C52.08984375 55.43359375 52.08984375 55.43359375 52.56640625 57.71484375 C51.87368825 61.66674313 49.39752387 63.45849493 46.46484375 65.93359375 C45.94277344 66.39378906 45.42070312 66.85398437 44.8828125 67.328125 C43.82853481 68.25224495 42.76429122 69.16511798 41.69042969 70.06640625 C40.6098922 70.98937909 39.55571934 71.94400156 38.52832031 72.92578125 C34.75635736 76.42469372 34.75635736 76.42469372 31.45703125 76.46875 C28.746877 75.28361654 27.24222773 74.02045727 25.21484375 71.87109375 C24.53550781 71.15308594 23.85617187 70.43507813 23.15625 69.6953125 C22.47433594 68.94894531 21.79242188 68.20257813 21.08984375 67.43359375 C20.41824219 66.71816406 19.74664062 66.00273437 19.0546875 65.265625 C13.52341945 59.21189632 13.52341945 59.21189632 13.08984375 55.43359375 C14.52734375 53.18359375 14.52734375 53.18359375 16.08984375 51.43359375 C19.00241875 51.51925772 20.65782399 52.0127033 22.7578125 54.05859375 C24.25076147 55.8175075 25.69420637 57.59672394 27.08984375 59.43359375 C24.49856592 45.1815657 17.39869413 29.50673206 6.88671875 19.29296875 C5.08984375 17.43359375 5.08984375 17.43359375 5.08984375 15.43359375 C4.50203125 15.16933594 3.91421875 14.90507813 3.30859375 14.6328125 C1.01210163 13.39157468 -0.53083978 12.04710537 -2.41015625 10.24609375 C-17.87555012 -3.43155734 -38.9132801 -9.1777396 -59.23828125 -8.81640625 C-79.14432781 -7.46110095 -98.83797581 -0.11064277 -113.23828125 13.96484375 C-114.91015625 15.43359375 -114.91015625 15.43359375 -116.91015625 15.43359375 C-117.17699219 16.02785156 -117.44382813 16.62210938 -117.71875 17.234375 C-118.93130285 19.47262829 -120.17750999 20.83443518 -121.97265625 22.62109375 C-129.73884643 31.31337774 -135.08284604 42.98106864 -137.86328125 54.2109375 C-138.91015625 56.43359375 -138.91015625 56.43359375 -141.33203125 57.875 C-142.1828125 58.05933594 -143.03359375 58.24367188 -143.91015625 58.43359375 C-144.90015625 57.77359375 -145.89015625 57.11359375 -146.91015625 56.43359375 C-146.2124261 36.54828455 -132.57495021 18.54597757 -118.78515625 5.30859375 C-85.7592615 -23.74495562 -35.39380458 -25.94379001 0 0 Z " fill="#222222" transform="translate(311.91015625,81.56640625)"/>
<path d="M0 0 C4.11629004 1.06527104 4.93583097 2.73316273 7.03979492 6.28955078 C7.69298706 7.47266846 7.69298706 7.47266846 8.359375 8.6796875 C8.82899658 9.49034668 9.29861816 10.30100586 9.7824707 11.13623047 C11.24754746 13.68015212 12.67958959 16.24079886 14.109375 18.8046875 C14.99228081 20.35225275 15.8763536 21.89915293 16.76171875 23.4453125 C24.73072648 37.47015779 32.1614547 51.79591664 38.109375 66.8046875 C38.45097656 67.66320312 38.79257812 68.52171875 39.14453125 69.40625 C43.03737194 80.52347877 42.06814002 92.20745135 37.109375 102.8046875 C31.13404565 113.2297302 21.6034595 120.52873221 10.109375 123.8046875 C-2.91895462 126.14547486 -13.70116993 123.82641032 -24.890625 116.8046875 C-33.16437169 110.40615446 -39.35032853 101.29491711 -40.890625 90.8046875 C-43.68542216 64.37793465 -25.44812474 38.00923895 -12.45605469 16.4375 C-11.07279934 14.11107678 -9.73919311 11.76685747 -8.4296875 9.3984375 C-8.07664551 8.77646484 -7.72360352 8.15449219 -7.35986328 7.51367188 C-6.47328249 5.95043119 -5.6029705 4.37799256 -4.734375 2.8046875 C-2.890625 0.8046875 -2.890625 0.8046875 0 0 Z M-0.890625 12.8046875 C-2.28954456 14.81837888 -3.53721228 16.81321672 -4.765625 18.9296875 C-5.15492188 19.59202393 -5.54421875 20.25436035 -5.9453125 20.93676758 C-7.27464784 23.21818743 -8.58527129 25.50946366 -9.890625 27.8046875 C-10.36918945 28.64531738 -10.84775391 29.48594727 -11.34082031 30.35205078 C-16.95437894 40.27935972 -22.29952737 50.29197494 -27.015625 60.6796875 C-27.38171875 61.48108154 -27.7478125 62.28247559 -28.125 63.1081543 C-32.74362412 73.54963827 -35.30814392 84.92616029 -31.390625 96.0546875 C-26.86990181 105.75770313 -19.57937449 111.59218772 -9.890625 115.8046875 C-2.06587122 118.32530977 6.42156173 117.44285192 13.796875 114.0625 C22.39391105 109.38640944 29.53332486 102.63178432 32.63671875 93.1171875 C37.99174461 66.91739158 16.14722267 36.16030737 2.85546875 15.15234375 C2.27925781 14.37761719 1.70304687 13.60289063 1.109375 12.8046875 C0.449375 12.8046875 -0.210625 12.8046875 -0.890625 12.8046875 Z " fill="#242525" transform="translate(255.890625,95.1953125)"/>
<path d="M0 0 C5.04191306 0.5817592 7.98570562 2.95745782 11.3125 6.6875 C11.951875 7.574375 12.59125 8.46125 13.25 9.375 C13.69730469 9.97054687 14.14460938 10.56609375 14.60546875 11.1796875 C18.25 16.10031513 18.25 16.10031513 18.25 18.375 C21.08151973 18.79309201 21.08151973 18.79309201 24.25 18.375 C26.56112328 16.13842908 28.09705508 13.61099364 29.83984375 10.921875 C35.83038889 1.95571991 35.83038889 1.95571991 41.25 0.375 C45.84709554 -0.21008489 49.41256069 0.2147435 53.4140625 2.6953125 C56.8324021 5.82272958 59.1179211 9.78552939 61.55078125 13.6953125 C63.12850259 16.39916732 63.12850259 16.39916732 65.25 18.375 C67.71650198 18.43345809 67.71650198 18.43345809 70.25 17.375 C72.29527556 15.19777118 73.91710327 12.85300556 75.62109375 10.40625 C82.27613788 1.14104571 82.27613788 1.14104571 88.1953125 0 C93.30564166 -0.31089455 96.27743973 1.03443795 100.25 4.375 C102.2916528 6.6022576 103.92851925 8.79567634 105.39453125 11.4375 C106.00361328 12.5203125 106.00361328 12.5203125 106.625 13.625 C106.98335938 14.31078125 107.34171875 14.9965625 107.7109375 15.703125 C109.93196407 18.11581376 112.07641451 18.07774957 115.25 18.375 C115.78109375 17.63894531 116.3121875 16.90289062 116.859375 16.14453125 C117.91898438 14.68080078 117.91898438 14.68080078 119 13.1875 C120.04414063 11.74310547 120.04414063 11.74310547 121.109375 10.26953125 C127.60257652 1.48949051 127.60257652 1.48949051 131.25 0.375 C136.22424215 -0.11426972 140.06718321 -0.06486621 144.44921875 2.6953125 C147.82775828 5.84666173 150.12370524 9.79482492 152.55078125 13.6953125 C155.04283628 17.62531193 156.99768335 18.7394936 161.25 20.375 C162.25 21.375 162.25 21.375 162.375 23.875 C162.25 26.375 162.25 26.375 161.25 27.375 C157.24493693 27.93711412 154.67861108 28.22365351 151.15234375 26.12890625 C146.705851 22.41921191 143.50361454 18.20558672 140.4765625 13.29296875 C139.2643292 11.24616516 139.2643292 11.24616516 137.25 9.375 C134.78073559 9.24997158 134.78073559 9.24997158 132.25 10.375 C130.04310763 12.97243259 130.04310763 12.97243259 128.1875 16.1875 C122.35214505 25.67428498 122.35214505 25.67428498 117.25 27.375 C115.19921875 27.61328125 115.19921875 27.61328125 112.9375 27.6875 C112.19886719 27.72488281 111.46023438 27.76226562 110.69921875 27.80078125 C106.63589737 27.09439843 103.61024389 25.03346646 100.99389648 21.84350586 C99.81964156 20.15231139 98.71007124 18.43717738 97.625 16.6875 C95.07843313 12.31656199 95.07843313 12.31656199 91.12109375 9.3671875 C89.00575484 9.18466905 89.00575484 9.18466905 86.9375 11.1875 C83.90405107 14.50095961 81.52119818 18.30318773 79.09375 22.0703125 C76.49116485 25.32354394 73.92677176 26.9975212 69.85546875 27.9140625 C64.92569059 28.08927271 61.86385204 27.633892 58 24.4375 C54.60980919 21.07476012 51.97618251 17.34961464 49.4765625 13.29296875 C48.2643292 11.24616516 48.2643292 11.24616516 46.25 9.375 C43.7756428 9.25429009 43.7756428 9.25429009 41.25 10.375 C39.11342774 12.9422095 39.11342774 12.9422095 37.3125 16.125 C31.72123943 24.87110592 31.72123943 24.87110592 27.25 27.375 C22.26762319 28.26529356 18.68113913 28.14799744 14.18359375 25.71875 C10.98717917 23.16502331 9.37218228 20.82658795 7.3125 17.3125 C4.26635294 12.26517118 4.26635294 12.26517118 -0.6875 9.5 C-1.698125 9.12875 -2.70875 8.7575 -3.75 8.375 C-4.8125 5.3125 -4.8125 5.3125 -4.75 2.375 C-2.75 0.375 -2.75 0.375 0 0 Z " fill="#222222" transform="translate(322.75,53.625)"/>
<path d="M0 0 C3.88915318 0.18293926 6.30489589 0.61297683 9.34765625 3.16015625 C13.02579517 7.2592454 16.17217626 11.64891257 19.1171875 16.29296875 C20.91852168 18.55443072 20.91852168 18.55443072 23.4296875 18.34765625 C27.33990137 16.81312464 28.93892758 13.82830694 31.1171875 10.41796875 C36.29382638 2.41035549 36.29382638 2.41035549 41.1171875 0.29296875 C43.36328125 -0.140625 43.36328125 -0.140625 45.5546875 -0.14453125 C46.27527344 -0.16386719 46.99585938 -0.18320312 47.73828125 -0.203125 C52.65395193 0.82198202 55.56090788 3.54486857 58.49609375 7.4921875 C59.61418537 9.2395767 60.69514396 11.00593459 61.77148438 12.77929688 C63.60932195 15.64214511 64.59296458 17.1241262 67.89453125 18.1875 C68.99474609 18.23970703 68.99474609 18.23970703 70.1171875 18.29296875 C73.473205 14.34471286 76.63265772 10.31095955 79.6875 6.125 C82.03424451 3.11783286 83.43479647 1.52043243 87.1171875 0.29296875 C92.47573698 -0.05274412 95.81016913 -0.2206515 100.1171875 3.29296875 C103.98279805 7.28978801 107.0919272 11.6470333 110.1171875 16.29296875 C111.1071875 17.28296875 111.1071875 17.28296875 112.1171875 18.29296875 C114.58920775 18.41841463 114.58920775 18.41841463 117.1171875 17.29296875 C119.28823504 14.69273819 119.28823504 14.69273819 121.1171875 11.48046875 C124.09203444 6.55637734 126.88835666 2.90738417 132.1171875 0.29296875 C134.0703125 0.0546875 134.0703125 0.0546875 136.3671875 -0.01953125 C137.11484375 -0.05691406 137.8625 -0.09429688 138.6328125 -0.1328125 C143.43234241 0.68974844 146.39589686 3.28371036 149.171875 7.16796875 C150.07292969 8.71484375 150.07292969 8.71484375 150.9921875 10.29296875 C154.46616989 15.79232312 157.02603689 18.11755782 163.1171875 20.29296875 C163.15973106 22.29251621 163.15799533 24.29338511 163.1171875 26.29296875 C162.1171875 27.29296875 162.1171875 27.29296875 158.9296875 27.60546875 C153.50194898 27.16057215 150.67883463 24.9965838 147.0546875 21.04296875 C145.1171875 18.29296875 145.1171875 18.29296875 143.9375 16.23046875 C141.52437813 11.87159114 141.52437813 11.87159114 137.6171875 8.98046875 C134.6581528 9.35034809 133.39917003 10.36529606 131.4296875 12.5625 C129.890988 14.59120202 128.54404688 16.70589213 127.1796875 18.85546875 C124.60699706 22.77327145 122.49672854 25.31788161 118.1171875 27.29296875 C113.51685741 28.1692221 109.53466881 27.96954713 105.4921875 25.48046875 C101.5491209 22.30027984 99.1485922 18.03257533 96.59765625 13.71875 C95.20652666 11.22550087 95.20652666 11.22550087 93.1171875 9.29296875 C90.67976128 9.08568433 90.67976128 9.08568433 88.1171875 10.29296875 C86.28359194 12.56534867 84.72824134 14.71670343 83.1796875 17.16796875 C80.06285723 22.08927971 77.81469612 25.19149087 72.1171875 27.29296875 C68.05988156 28.12083816 64.89650159 27.63391866 61.1171875 25.98046875 C57.24411718 23.05179092 54.67072122 18.80767161 51.94921875 14.8515625 C49.84537264 11.75184175 49.84537264 11.75184175 47.1171875 9.29296875 C44.59414886 9.07840767 44.59414886 9.07840767 42.1171875 10.29296875 C39.94613996 12.89319931 39.94613996 12.89319931 38.1171875 16.10546875 C35.14234056 21.02956016 32.34601834 24.67855333 27.1171875 27.29296875 C25.1640625 27.53125 25.1640625 27.53125 22.8671875 27.60546875 C22.11953125 27.64285156 21.371875 27.68023437 20.6015625 27.71875 C15.74374815 26.88620006 12.78920819 24.16659565 9.8515625 20.34765625 C8.86929687 18.77371094 8.86929687 18.77371094 7.8671875 17.16796875 C4.74228446 11.62270673 4.74228446 11.62270673 -0.4453125 8.48046875 C-2.8828125 7.29296875 -2.8828125 7.29296875 -3.8203125 4.79296875 C-3.8409375 3.96796875 -3.8615625 3.14296875 -3.8828125 2.29296875 C-1.8828125 0.29296875 -1.8828125 0.29296875 0 0 Z " fill="#222222" transform="translate(321.8828125,24.70703125)"/>
<path d="M0 0 C28.71 0 57.42 0 87 0 C87 3.3 87 6.6 87 10 C58.29 10 29.58 10 0 10 C0 6.7 0 3.4 0 0 Z " fill="#BEE423" transform="translate(331,319)"/>
<path d="M0 0 C28.71 0 57.42 0 87 0 C87 3.3 87 6.6 87 10 C58.29 10 29.58 10 0 10 C0 6.7 0 3.4 0 0 Z " fill="#BEE423" transform="translate(212,319)"/>
<path d="M0 0 C28.71 0 57.42 0 87 0 C87 3.3 87 6.6 87 10 C58.29 10 29.58 10 0 10 C0 6.7 0 3.4 0 0 Z " fill="#BEE423" transform="translate(94,319)"/>
<path d="M0 0 C2.625 0.375 2.625 0.375 5 1 C5.60601851 8.51462949 4.38495043 13.77654023 0 20 C-5.13073362 25.10966284 -10.49227454 27.76615164 -17.75 28.25 C-21 28 -21 28 -23 26 C-22.88671875 23.96875 -22.88671875 23.96875 -22 22 C-20.14453125 21.09375 -20.14453125 21.09375 -17.8125 20.5 C-12.8120203 19.02927068 -9.03515084 16.96246688 -5.25 13.3125 C-3.62961498 10.31478771 -3.11010379 7.36459504 -2.52734375 4.0234375 C-2 2 -2 2 0 0 Z " fill="#272A2B" transform="translate(275,175)"/>
</svg>
