<svg height="512" viewBox="0 0 64 64" width="512" xmlns="http://www.w3.org/2000/svg"><g id="_05-Real_Estate" data-name="05-Real Estate"><path d="m55 20.37v28.63h-34v-28.63l17-12.37z" fill="#eee"/><path d="m38 8-17 12.37v3.71l17-12.37 12 8.73v28.56h5v-28.63z" fill="#e0e0e0"/><circle cx="38" cy="30" fill="#ffb74d" r="11"/><path d="m49 30a10.9938 10.9938 0 0 1 -11 11 10.827 10.827 0 0 1 -2.5-.29 10.9973 10.9973 0 0 0 0-21.42 10.827 10.827 0 0 1 2.5-.29 10.9938 10.9938 0 0 1 11 11z" fill="#ffa726"/><path d="m38.5 29h-1a1.5 1.5 0 0 1 0-3h3.5a1 1 0 0 0 0-2h-2v-1a1 1 0 0 0 -2 0v1.05a3.4922 3.4922 0 0 0 .5 6.95h1a1.5 1.5 0 0 1 0 3h-3.5a1 1 0 0 0 0 2h2v1a1 1 0 0 0 2 0v-1.05a3.4922 3.4922 0 0 0 -.5-6.95z" fill="#eee"/><path d="m55 3v11.64l-8-5.82v-5.82z" fill="#757575"/><path d="m47 5.109v3.711l8 5.82v-3.713z" fill="#616161"/><path d="m61 19-2.9 3.62-20.1-14.62-20.1 14.62-2.9-3.62 21.1913-15.4118a3.0749 3.0749 0 0 1 1.8087-.5882 3.0749 3.0749 0 0 1 1.8087.5882z" fill="#ef5350"/><path d="m60.8146 46.098a3.6036 3.6036 0 0 0 -4.2171-2.3744l-15.6056 3.5464-.01-.0019a4.2127 4.2127 0 0 0 -1.5577-3.8376l-11.6953-9.2679a10 10 0 0 0 -6.2108-2.1626h-8.5181l.002 19 17.3789 8.69a12.4132 12.4132 0 0 0 11.3369-.12l17.3577-9.1436a3.6035 3.6035 0 0 0 1.7391-4.3284z" fill="#ffccbc"/><path d="m59.08 50.43-17.36 9.14a12.4178 12.4178 0 0 1 -10.76.39c.32.03.65.04.97.04a12.4332 12.4332 0 0 0 5.79-1.43l17.36-9.14a3.6057 3.6057 0 0 0 1.73-4.33 3.7339 3.7339 0 0 0 -.72-1.26l.51-.12a3.6094 3.6094 0 0 1 2.48 6.71z" fill="#ffab91"/><path d="m11 29h-8v26h8a2 2 0 0 0 2-2v-22a2 2 0 0 0 -2-2z" fill="#64b5f6"/><path d="m13 31v22a2.0059 2.0059 0 0 1 -2 2h-8v-3h3a2.0059 2.0059 0 0 0 2-2v-21h3a2.0059 2.0059 0 0 1 2 2z" fill="#42a5f5"/><path d="m40.75 45.25a4.0558 4.0558 0 0 1 -.7028 1.2033 4.3852 4.3852 0 0 1 -5.4525.9006l-9.6471-5.2866a1.3154 1.3154 0 0 0 -1.9476 1.1536 1.3153 1.3153 0 0 0 .6833 1.1535l11.0867 6.0756a4.2217 4.2217 0 0 0 5.98-5.2z" fill="#ffab91"/></g></svg>