<svg id="Layer_1" height="512" viewBox="0 0 48 48" width="512" xmlns="http://www.w3.org/2000/svg" data-name="Layer 1"><path d="m11.74 27.21-.14-26.21 32.9.05v39.24h-4.4" fill="#fff"/><path d="m40.1 41.29a1 1 0 0 1 0-2h3.4v-22.35a1 1 0 1 1 2 0v23.35a1 1 0 0 1 -.29.7 1 1 0 0 1 -.71.29zm-28.36-13.08a1 1 0 0 1 -1-1l-.14-26.21a1 1 0 0 1 .29-.71 1 1 0 0 1 .7-.29l32.91.05a1 1 0 0 1 1 1v7.89a1 1 0 0 1 -2 0v-6.89l-30.9-.05.14 25.21a1 1 0 0 1 -1 1zm32.76-14.27a1 1 0 1 1 1-1 1 1 0 0 1 -1 1z"/><path d="m18.5 9.37a1 1 0 0 1 -1-1v-3a1 1 0 0 1 2 0v3a1 1 0 0 1 -1 1z"/><path d="m17.83 15.47v-5.22a1.13 1.13 0 0 1 .05-.32h-1.88l6.3-5.12 6.31 5.12h-1.84a1.13 1.13 0 0 1 .05.32v5.22z" fill="#e8b99a"/><path d="m26.82 16.47h-9a1 1 0 0 1 -1-1v-4.54h-.82a1 1 0 0 1 -.63-1.78l6.32-5.15a1 1 0 0 1 1.31 0l6.31 5.11a1 1 0 0 1 -.63 1.78h-.81v4.54a1 1 0 0 1 -1.05 1.04zm-8-2h7v-4.22a1.09 1.09 0 0 1 .31-1.06l-3.81-3.09-3.78 3.07c0 .05.09.09.13.15a1 1 0 0 1 .18.86z"/><path d="m37.68 42a3.64 3.64 0 0 1 1.24.23v-10.4a3.64 3.64 0 0 1 -1.24.23 3.7 3.7 0 0 1 -3.48-5h-26a3.7 3.7 0 0 1 -3.48 5 3.58 3.58 0 0 1 -1.19-.21v10.38a3.86 3.86 0 0 1 1.16-.23 3.7 3.7 0 0 1 3.48 5h26a3.7 3.7 0 0 1 3.48-5z" fill="#9c9"/><path d="m34.2 48h-26a1 1 0 0 1 -.94-1.33 2.9 2.9 0 0 0 .17-.92 2.73 2.73 0 0 0 -2.74-2.75 2.64 2.64 0 0 0 -.87.16 1 1 0 0 1 -.9-.13 1 1 0 0 1 -.42-.82v-10.36a1 1 0 0 1 .42-.85 1 1 0 0 1 .9-.14 2.64 2.64 0 0 0 .87.16 2.73 2.73 0 0 0 2.71-2.69 2.8 2.8 0 0 0 -.17-.91 1 1 0 0 1 .94-1.34h26a1 1 0 0 1 .81.42 1 1 0 0 1 .13.92 2.56 2.56 0 0 0 -.17.91 2.73 2.73 0 0 0 2.71 2.73 2.51 2.51 0 0 0 .9-.17 1 1 0 0 1 1.34.94v10.42a1 1 0 0 1 -1.34.94 2.67 2.67 0 0 0 -3.55 2.56 2.65 2.65 0 0 0 .17.92 1 1 0 0 1 -.97 1.33zm-24.81-2h23.61a2 2 0 0 1 0-.25 4.72 4.72 0 0 1 5-4.72v-8a4.74 4.74 0 0 1 -5-4.73 2.09 2.09 0 0 1 0-.25h-23.61a2.09 2.09 0 0 1 0 .25 4.72 4.72 0 0 1 -4.9 4.73v8a4.73 4.73 0 0 1 4.9 4.73 2 2 0 0 1 0 .24z"/><path d="m38.92 32.83a1 1 0 0 1 -1-1v-3.75h-3.72a1 1 0 0 1 0-2h4.72a1 1 0 0 1 1 1v4.75a1 1 0 0 1 -1 1z"/><path d="m3.5 32.85a1 1 0 0 1 -1-1v-4.77a1 1 0 0 1 1-1h4.67a1 1 0 1 1 0 2h-3.67v3.77a1 1 0 0 1 -1 1z"/><path d="m38.92 48h-4.72a1 1 0 0 1 0-2h3.72v-3.75a1 1 0 0 1 2 0v4.75a1 1 0 0 1 -1 1z"/><path d="m8.17 48h-4.67a1 1 0 0 1 -1-1v-4.77a1 1 0 0 1 2 0v3.77h3.67a1 1 0 1 1 0 2z"/><path d="m21.7 42.14h-3.1a1 1 0 0 1 0-2h3.1a1.08 1.08 0 0 0 0-2.15h-1a3.08 3.08 0 0 1 0-6.16h3.1a1 1 0 0 1 0 2h-3.1a1.08 1.08 0 0 0 0 2.16h1a3.08 3.08 0 0 1 0 6.15z"/><path d="m21.18 33.83a1 1 0 0 1 -1-1v-2.08a1 1 0 0 1 2 0v2.08a1 1 0 0 1 -1 1z"/><path d="m21.18 44.22a1 1 0 0 1 -1-1v-2.08a1 1 0 0 1 2 0v2.08a1 1 0 0 1 -1 1z"/><path d="m39.77 7.25h-8.58a1 1 0 1 1 0-2h8.58a1 1 0 1 1 0 2z"/><path d="m39.88 23.33h-22.16a1 1 0 0 1 -1-1 1 1 0 0 1 1-1h22.16a1 1 0 0 1 1 1 1 1 0 0 1 -1 1z"/><path d="m39.77 10.82h-5.07a1 1 0 0 1 0-2h5.07a1 1 0 0 1 0 2z"/></svg>