<svg xmlns="http://www.w3.org/2000/svg" version="1.1" xmlns:xlink="http://www.w3.org/1999/xlink" width="512" height="512" x="0" y="0" viewBox="0 0 32 32" style="enable-background:new 0 0 512 512" xml:space="preserve" class=""><g><g data-name="Layer 10"><path d="M7 8a1 1 0 1 0 1 1 1 1 0 0 0-1-1zM12 9a1 1 0 0 0-1-1 1 1 0 1 0 1 1z" fill="#b2bec3" opacity="1" data-original="#000000" class=""></path><path d="M29 4H3a1 1 0 0 0-1 1v22a1 1 0 0 0 1 1h8a1 1 0 0 0 0-2H4V6h24v2H15a1 1 0 0 0 0 2h13v16a1 1 0 0 0 0 2h1a1 1 0 0 0 1-1V5a1 1 0 0 0-1-1z" fill="#b2bec3" opacity="1" data-original="#000000" class=""></path><path d="M21.6 23.18a7 7 0 1 0-1.42 1.42l3.11 3.11a1 1 0 0 0 1.42-1.42zM16 24a5 5 0 1 1 5-5 5 5 0 0 1-5 5z" fill="#b2bec3" opacity="1" data-original="#000000" class=""></path><path d="M18.21 16.79a1 1 0 0 0-1.42 0l-.79.8-.79-.8a1 1 0 0 0-1.42 1.42l.8.79-.8.79a1 1 0 0 0 1.42 1.42l.79-.8.79.8a1 1 0 0 0 1.42-1.42l-.8-.79.8-.79a1 1 0 0 0 0-1.42z" fill="#b2bec3" opacity="1" data-original="#000000" class=""></path></g></g></svg>