<svg enable-background="new 0 0 512 512" viewBox="0 0 512 512" xmlns="http://www.w3.org/2000/svg"><g id="_x31_0510_-_Service"><g><g id="XMLID_59_"><g><g><path d="m346.24 290.21h11.97c0 18.81-17.55 34.06-39.19 34.06s-39.18-15.25-39.18-34.06h11.97 27.21z" fill="#fee274"/></g><g><path d="m220.19 290.21h11.97c0 18.81-17.54 34.06-39.18 34.06s-39.19-15.25-39.19-34.06h11.97 27.22z" fill="#fee274"/></g><g><path d="m240.62 205.98c0-8.49 6.89-15.38 15.38-15.38s15.37 6.89 15.37 15.38-6.88 15.37-15.37 15.37-15.38-6.88-15.38-15.37z" fill="#fee274"/></g><g><circle cx="256" cy="365.69" fill="#b7d8fb" r="12.6"/></g><g><path d="m291.84 334.77 8.85 15.33-12.19 7.04c.72 2.73 1.1 5.59 1.1 8.55 0 2.95-.38 5.81-1.1 8.54l12.19 7.04-8.85 15.33-12.2-7.04c-4.05 4.01-9.12 7-14.79 8.55v14.08h-17.7v-14.08c-5.67-1.55-10.74-4.54-14.79-8.55l-12.21 7.04-8.85-15.33 12.2-7.04c-.72-2.73-1.1-5.59-1.1-8.54 0-2.96.38-5.82 1.1-8.55l-12.2-7.04 8.85-15.33 12.21 7.05c4.05-4.02 9.12-7.01 14.79-8.55v-14.08h8.85 8.85v14.08c5.67 1.54 10.74 4.53 14.79 8.55zm-23.24 30.92c0-6.94-5.66-12.6-12.6-12.6s-12.6 5.66-12.6 12.6 5.66 12.6 12.6 12.6 12.6-5.66 12.6-12.6z" fill="#1480ae"/></g><g><path d="m463.25 435.16v34.95h-414.5v-34.95h29.08 50.49 255.36 50.49z" fill="#047297"/></g><g><path d="m394.6 196.77h28.64v211.68h-28.64z" fill="#047297"/></g><g><path d="m88.76 196.77h28.64v211.68h-28.64z" fill="#047297"/></g><g><path d="m434.17 408.45v26.71h-50.49v-26.71h10.92 28.64z" fill="#1480ae"/></g><g><path d="m128.32 408.45v26.71h-50.49v-26.71h10.93 28.64z" fill="#1480ae"/></g><g><path d="m434.17 170.06v26.71h-10.93-28.64-10.92v-26.71z" fill="#1480ae"/></g><g><path d="m128.32 170.06v26.71h-10.92-28.64-10.93v-26.71z" fill="#1480ae"/></g><g><path d="m319.02 205.98 27.22 84.23h-27.22-27.21z" fill="#b7d8fb"/></g><g><path d="m192.98 205.98 27.21 84.23h-27.21-27.22z" fill="#b7d8fb"/></g><g><path d="m192.98 205.98-27.22 84.23h-11.97c0 18.81 17.55 34.06 39.19 34.06s39.18-15.25 39.18-34.06h-11.97zm126.04 0-27.21 84.23h-11.97c0 18.81 17.54 34.06 39.18 34.06s39.19-15.25 39.19-34.06h-11.97zm-63.02 15.37c8.49 0 15.37-6.88 15.37-15.37s-6.88-15.38-15.37-15.38-15.38 6.89-15.38 15.38 6.89 15.37 15.38 15.37zm0 97.84h-8.85v14.08c-5.67 1.54-10.74 4.53-14.79 8.55l-12.21-7.05-8.85 15.33 12.2 7.04c-.72 2.73-1.1 5.59-1.1 8.55 0 2.95.38 5.81 1.1 8.54l-12.2 7.04 8.85 15.33 12.21-7.04c4.05 4.01 9.12 7 14.79 8.55v14.08h17.7v-14.08c5.67-1.55 10.74-4.54 14.79-8.55l12.2 7.04 8.85-15.33-12.19-7.04c.72-2.73 1.1-5.59 1.1-8.54 0-2.96-.38-5.82-1.1-8.55l12.19-7.04-8.85-15.33-12.2 7.05c-4.05-4.02-9.12-7.01-14.79-8.55v-14.08zm138.6-122.42v211.68h-10.92v26.71h-255.36v-26.71h-10.92v-211.68h10.92v-26.71h255.36v26.71z" fill="#b7d8fb"/></g><g><path d="m210.36 105.97h91.28v35.93h-91.28z" fill="#95d6a4"/></g><g><path d="m471.04 170.06h-36.87-50.49-255.36-50.49-36.87l215.04-128.17zm-169.4-28.16v-35.93h-91.28v35.93z" fill="#b3e59f"/></g></g><g><g><path d="m471.04 175.06h-430.08c-2.25 0-4.223-1.503-4.82-3.672-.598-2.169.328-4.471 2.26-5.623l215.04-128.17c1.577-.94 3.543-.94 5.12 0l215.04 128.17c1.934 1.152 2.858 3.453 2.261 5.623s-2.571 3.672-4.821 3.672zm-411.925-10h393.77l-196.885-117.349z"/></g><g><path d="m463.25 475.11h-414.5c-2.761 0-5-2.238-5-5v-34.95c0-2.762 2.239-5 5-5h414.5c2.762 0 5 2.238 5 5v34.95c0 2.762-2.238 5-5 5zm-409.5-10h404.5v-24.95h-404.5z"/></g><g><path d="m128.32 201.77h-50.49c-2.761 0-5-2.239-5-5v-26.71c0-2.761 2.239-5 5-5s5 2.239 5 5v21.71h40.49v-21.71c0-2.761 2.239-5 5-5s5 2.239 5 5v26.71c0 2.761-2.239 5-5 5z"/></g><g><path d="m128.32 440.16c-2.761 0-5-2.238-5-5v-21.71h-40.49v21.71c0 2.762-2.239 5-5 5s-5-2.238-5-5v-26.71c0-2.762 2.239-5 5-5h50.49c2.761 0 5 2.238 5 5v26.71c0 2.762-2.239 5-5 5z"/></g><g><path d="m88.76 413.45c-2.761 0-5-2.238-5-5v-211.68c0-2.761 2.239-5 5-5s5 2.239 5 5v211.68c0 2.762-2.239 5-5 5z"/></g><g><path d="m117.4 413.45c-2.761 0-5-2.238-5-5v-211.68c0-2.761 2.239-5 5-5s5 2.239 5 5v211.68c0 2.762-2.239 5-5 5z"/></g><g><path d="m434.17 201.77h-50.49c-2.762 0-5-2.239-5-5v-26.71c0-2.761 2.238-5 5-5s5 2.239 5 5v21.71h40.49v-21.71c0-2.761 2.238-5 5-5s5 2.239 5 5v26.71c0 2.761-2.238 5-5 5z"/></g><g><path d="m434.17 440.16c-2.762 0-5-2.238-5-5v-21.71h-40.49v21.71c0 2.762-2.238 5-5 5s-5-2.238-5-5v-26.71c0-2.762 2.238-5 5-5h50.49c2.762 0 5 2.238 5 5v26.71c0 2.762-2.238 5-5 5z"/></g><g><path d="m394.6 413.45c-2.762 0-5-2.238-5-5v-211.68c0-2.761 2.238-5 5-5s5 2.239 5 5v211.68c0 2.762-2.239 5-5 5z"/></g><g><path d="m423.24 413.45c-2.762 0-5-2.238-5-5v-211.68c0-2.761 2.238-5 5-5s5 2.239 5 5v211.68c0 2.762-2.238 5-5 5z"/></g><g><path d="m301.64 146.9h-91.28c-2.761 0-5-2.239-5-5v-35.93c0-2.761 2.239-5 5-5h91.28c2.762 0 5 2.239 5 5v35.93c0 2.761-2.239 5-5 5zm-86.28-10h81.28v-25.93h-81.28z"/></g><g><path d="m319.02 329.27c-24.36 0-44.18-17.522-44.18-39.06 0-2.762 2.238-5 5-5h78.37c2.762 0 5 2.238 5 5 0 21.537-19.824 39.06-44.19 39.06zm-33.674-34.06c2.796 13.649 16.832 24.06 33.674 24.06 16.847 0 30.888-10.41 33.684-24.06z"/></g><g><path d="m346.239 295.211c-2.111.001-4.072-1.347-4.757-3.464l-22.462-69.504-22.453 69.504c-.849 2.627-3.665 4.069-6.295 3.221-2.628-.849-4.069-3.667-3.221-6.295l27.21-84.23c.667-2.064 2.588-3.463 4.758-3.463 2.169 0 4.091 1.398 4.758 3.462l27.221 84.23c.849 2.627-.593 5.445-3.221 6.295-.51.166-1.029.244-1.538.244z"/></g><g><path d="m337.63 210.98h-66.26c-2.762 0-5-2.239-5-5s2.238-5 5-5h66.26c2.762 0 5 2.239 5 5s-2.238 5-5 5z"/></g><g><path d="m256 226.35c-11.237 0-20.38-9.138-20.38-20.37 0-11.237 9.143-20.38 20.38-20.38 11.232 0 20.37 9.143 20.37 20.38 0 11.232-9.138 20.37-20.37 20.37zm0-30.75c-5.724 0-10.38 4.656-10.38 10.38 0 5.718 4.656 10.37 10.38 10.37 5.718 0 10.37-4.652 10.37-10.37 0-5.724-4.652-10.38-10.37-10.38z"/></g><g><path d="m192.98 329.27c-24.366 0-44.19-17.522-44.19-39.06 0-2.762 2.239-5 5-5h78.37c2.761 0 5 2.238 5 5 0 21.537-19.819 39.06-44.18 39.06zm-33.684-34.06c2.797 13.649 16.837 24.06 33.684 24.06 16.842 0 30.878-10.41 33.674-24.06z"/></g><g><path d="m220.189 295.211c-2.111.001-4.073-1.347-4.757-3.464l-22.453-69.504-22.461 69.504c-.85 2.628-3.664 4.07-6.295 3.221-2.627-.85-4.069-3.668-3.22-6.295l27.22-84.23c.667-2.064 2.589-3.462 4.758-3.462 2.169 0 4.091 1.399 4.757 3.463l27.21 84.23c.849 2.628-.593 5.446-3.221 6.295-.511.164-1.029.242-1.538.242z"/></g><g><path d="m240.63 210.98h-66.26c-2.761 0-5-2.239-5-5s2.239-5 5-5h66.25c2.761 0 5.005 2.239 5.005 5s-2.234 5-4.995 5z"/></g><g><path d="m264.85 417.19h-17.7c-2.761 0-5-2.238-5-5v-10.467c-3.761-1.451-7.283-3.487-10.423-6.027l-9.08 5.235c-2.392 1.376-5.448.557-6.828-1.832l-8.85-15.33c-.663-1.148-.843-2.514-.5-3.795.344-1.281 1.182-2.373 2.331-3.036l9.067-5.231c-.312-1.981-.469-3.994-.469-6.017 0-2.027.157-4.043.469-6.027l-9.068-5.232c-1.149-.663-1.987-1.755-2.331-3.036-.343-1.281-.164-2.646.5-3.795l8.85-15.33c.663-1.148 1.755-1.986 3.036-2.33 1.281-.341 2.646-.163 3.794.5l9.075 5.241c3.141-2.545 6.663-4.582 10.424-6.029v-10.462c0-2.762 2.239-5 5-5h17.7c2.762 0 5 2.238 5 5v10.461c3.761 1.447 7.283 3.484 10.424 6.028l9.064-5.239c1.148-.663 2.512-.842 3.795-.501 1.281.343 2.374 1.182 3.037 2.33l8.851 15.33c1.381 2.392.562 5.449-1.829 6.83l-9.061 5.232c.312 1.984.469 4.001.469 6.028 0 2.022-.157 4.035-.469 6.018l9.06 5.231c2.392 1.381 3.211 4.438 1.83 6.83l-8.851 15.33c-1.38 2.39-4.438 3.21-6.829 1.831l-9.069-5.233c-3.14 2.539-6.661 4.575-10.422 6.026v10.467c.003 2.763-2.236 5.001-4.997 5.001zm-12.7-10h7.7v-9.08c0-2.253 1.507-4.229 3.681-4.823 4.735-1.295 9.09-3.813 12.591-7.28 1.603-1.586 4.063-1.905 6.018-.778l7.87 4.542 3.852-6.671-7.86-4.539c-1.953-1.128-2.91-3.424-2.335-5.604.62-2.353.935-4.797.935-7.266 0-2.476-.314-4.924-.935-7.276-.575-2.181.382-4.477 2.334-5.604l7.861-4.54-3.85-6.668-7.869 4.548c-1.953 1.131-4.422.809-6.024-.78-3.5-3.475-7.849-5.99-12.578-7.274-2.178-.592-3.689-2.568-3.689-4.825v-9.079h-7.7v9.079c0 2.257-1.512 4.233-3.689 4.825-4.729 1.284-9.078 3.8-12.578 7.274-1.602 1.589-4.069 1.908-6.023.781l-7.879-4.55-3.85 6.668 7.869 4.54c1.954 1.128 2.911 3.425 2.335 5.606-.62 2.352-.935 4.799-.935 7.275 0 2.469.314 4.913.935 7.265.576 2.182-.381 4.479-2.336 5.606l-7.868 4.539 3.851 6.671 7.881-4.544c1.951-1.125 4.414-.807 6.016.779 3.502 3.468 7.856 5.985 12.591 7.28 2.173.595 3.681 2.57 3.681 4.823v9.08z"/></g><g><path d="m256 383.29c-9.705 0-17.6-7.896-17.6-17.6 0-9.705 7.896-17.601 17.6-17.601s17.6 7.896 17.6 17.601-7.896 17.6-17.6 17.6zm0-25.2c-4.191 0-7.6 3.409-7.6 7.601 0 4.19 3.409 7.6 7.6 7.6 4.19 0 7.6-3.409 7.6-7.6 0-4.192-3.41-7.601-7.6-7.601z"/></g><g><path d="m256 324.19c-2.761 0-5-2.238-5-5v-97.84c0-2.761 2.239-5 5-5 2.762 0 5 2.239 5 5v97.84c0 2.762-2.238 5-5 5z"/></g></g></g></g></g><g id="Layer_1"/></svg>