<?xml version="1.0" encoding="UTF-8"?>
<svg version="1.1" xmlns="http://www.w3.org/2000/svg" width="512" height="512">
<path d="M0 0 C0.99261841 0.00215515 1.98523682 0.0043103 3.00793457 0.00653076 C17.83440163 0.05816285 32.35262639 0.38658718 46.9375 3.3125 C48.42540039 3.61051514 48.42540039 3.61051514 49.94335938 3.91455078 C88.96766362 12.02941778 125.43080754 27.74490085 156.9375 52.3125 C157.82179688 52.98539063 158.70609375 53.65828125 159.6171875 54.3515625 C175.20737101 66.4551235 189.81954477 80.75418497 201.9375 96.3125 C203.08412109 97.71628906 203.08412109 97.71628906 204.25390625 99.1484375 C231.2924992 132.91412821 248.48449154 174.6856642 254.9375 217.3125 C255.11482666 218.43132568 255.29215332 219.55015137 255.47485352 220.70288086 C257.15626341 232.42485947 257.29484341 244.04748976 257.25 255.875 C257.24784485 256.89540375 257.2456897 257.9158075 257.24346924 258.96713257 C257.19383352 273.59460524 256.94669712 287.94513838 253.9375 302.3125 C253.63948486 303.77478027 253.63948486 303.77478027 253.33544922 305.26660156 C243.21482806 353.6484774 221.2983123 397.63678269 186.9375 433.3125 C186.30537598 433.97185547 185.67325195 434.63121094 185.02197266 435.31054688 C175.87752521 444.79880305 166.58015991 453.5387044 155.9375 461.3125 C154.78644983 462.17056152 153.63540823 463.02863451 152.484375 463.88671875 C144.29474019 469.92427396 135.79211724 475.30707302 126.9375 480.3125 C126.23028809 480.7146875 125.52307617 481.116875 124.79443359 481.53125 C101.65904164 494.5566741 76.48787591 503.30551461 50.5 508.625 C49.78110596 508.77235596 49.06221191 508.91971191 48.3215332 509.0715332 C33.64589502 511.86090125 19.12081162 512.66142619 4.21020508 512.62817383 C1.27061513 512.6250221 -1.6679558 512.64854926 -4.60742188 512.67382812 C-17.98056192 512.71848737 -30.87666711 511.51301542 -44.0625 509.3125 C-45.76805054 509.03031616 -45.76805054 509.03031616 -47.50805664 508.74243164 C-90.77552759 500.97044532 -131.82543216 480.98345309 -165.0625 452.3125 C-165.80757813 451.67828125 -166.55265625 451.0440625 -167.3203125 450.390625 C-180.82529833 438.57948485 -193.49668743 425.82889772 -204.0625 411.3125 C-204.91899066 410.16255169 -205.77576433 409.01281411 -206.6328125 407.86328125 C-212.67284209 399.67315742 -218.05617614 391.16870382 -223.0625 382.3125 C-223.4646875 381.60528809 -223.866875 380.89807617 -224.28125 380.16943359 C-237.3066741 357.03404164 -246.05551461 331.86287591 -251.375 305.875 C-251.52235596 305.15610596 -251.66971191 304.43721191 -251.8215332 303.6965332 C-254.79539088 288.05024391 -255.43550362 272.57681954 -255.375 256.6875 C-255.37284485 255.66959381 -255.3706897 254.65168762 -255.36846924 253.60293579 C-255.31879854 238.99386477 -255.06790191 224.66174147 -252.0625 210.3125 C-251.86382324 209.33764648 -251.66514648 208.36279297 -251.46044922 207.35839844 C-241.33982806 158.9765226 -219.4233123 114.98821731 -185.0625 79.3125 C-184.43037598 78.65314453 -183.79825195 77.99378906 -183.14697266 77.31445312 C-174.00252521 67.82619695 -164.70515991 59.0862956 -154.0625 51.3125 C-152.91144983 50.45443848 -151.76040823 49.59636549 -150.609375 48.73828125 C-142.41974019 42.70072604 -133.91711724 37.31792698 -125.0625 32.3125 C-124.35528809 31.9103125 -123.64807617 31.508125 -122.91943359 31.09375 C-99.78404164 18.0683259 -74.61287591 9.31948539 -48.625 4 C-47.90610596 3.85264404 -47.18721191 3.70528809 -46.4465332 3.5534668 C-30.98940107 0.61556182 -15.69740187 -0.06136669 0 0 Z " fill="#030201" transform="translate(255.0625,-0.31250000000000006)"/>
<path d="M0 0 C0.68868164 0.11214844 1.37736328 0.22429688 2.08691406 0.33984375 C57.64143017 9.49066389 109.01840592 42.21683087 141.984375 87.6953125 C150.82282942 100.16940234 158.61373678 113.10804237 165 127 C165.53109375 128.14597656 166.0621875 129.29195312 166.609375 130.47265625 C187.53394159 177.44507248 191.48813746 232.8302361 176 282 C175.67177246 283.09296387 175.67177246 283.09296387 175.33691406 284.20800781 C168.14392513 308.125479 154.71712528 344.76105773 133.4375 359.8125 C128.65280902 361.46539325 124.00086869 361.89200888 119 361 C114.73011292 358.42145289 111.25961353 355.51061115 107.73826218 351.99273777 C107.24230994 351.49999201 106.74635769 351.00724624 106.2353766 350.49956879 C104.57963419 348.85210821 102.93107369 347.19764791 101.28240967 345.54310608 C100.08288536 344.34660326 98.88292755 343.15053491 97.68257451 341.95486349 C94.38901937 338.67159699 91.10173212 335.38211707 87.81545734 332.09156573 C84.26895849 328.54260132 80.71672831 324.99938139 77.16525269 321.45539856 C70.21072689 314.51362535 63.2616933 307.56637926 56.31471154 300.61705715 C50.67001234 294.97057569 45.02355155 289.32586167 39.3758316 283.68240166 C38.57236723 282.87953247 37.76890286 282.07666329 36.94109108 281.24946473 C35.30894294 279.61852832 33.6767936 277.98759312 32.04464307 276.35665911 C16.73796258 261.06085578 1.43780882 245.75853674 -13.86038503 230.45424616 C-27.86485297 216.4446058 -41.87752325 202.44320252 -55.89407578 188.44565362 C-70.28051341 174.07857205 -84.66140603 159.70596191 -99.03628802 145.32731813 C-107.10915916 137.25253195 -115.18423315 129.1799782 -123.26511383 121.11320686 C-130.14226381 114.24794302 -137.01417857 107.37749178 -143.87931588 100.50021464 C-147.38359506 96.99002805 -150.89026953 93.48232433 -154.40346909 89.98106384 C-157.61720333 86.77812461 -160.82397781 83.56838701 -164.02526388 80.35300737 C-165.18668998 79.18891672 -166.35067393 78.02737151 -167.51740709 76.86860002 C-169.09914977 75.29690716 -170.671425 73.71631401 -172.24162674 72.13310337 C-173.11856603 71.2562191 -173.99550532 70.37933482 -174.89901853 69.4758783 C-178.30208899 65.46556769 -179.31098972 61.81936321 -179.4375 56.625 C-179.49744141 55.28308594 -179.49744141 55.28308594 -179.55859375 53.9140625 C-178.30197286 47.35854372 -173.64449688 43.33728449 -168.38134766 39.6262207 C-167.67800293 39.15144287 -166.9746582 38.67666504 -166.25 38.1875 C-165.50411621 37.67469482 -164.75823242 37.16188965 -163.98974609 36.63354492 C-115.51717126 3.72653868 -58.01844261 -10.01551414 0 0 Z " fill="#030202" transform="translate(293,37)"/>
<path d="M0 0 C0.99261841 0.00215515 1.98523682 0.0043103 3.00793457 0.00653076 C17.83440163 0.05816285 32.35262639 0.38658718 46.9375 3.3125 C48.42540039 3.61051514 48.42540039 3.61051514 49.94335938 3.91455078 C88.96766362 12.02941778 125.43080754 27.74490085 156.9375 52.3125 C157.82179688 52.98539063 158.70609375 53.65828125 159.6171875 54.3515625 C175.20737101 66.4551235 189.81954477 80.75418497 201.9375 96.3125 C203.08412109 97.71628906 203.08412109 97.71628906 204.25390625 99.1484375 C231.2924992 132.91412821 248.48449154 174.6856642 254.9375 217.3125 C255.11482666 218.43132568 255.29215332 219.55015137 255.47485352 220.70288086 C257.15626341 232.42485947 257.29484341 244.04748976 257.25 255.875 C257.24784485 256.89540375 257.2456897 257.9158075 257.24346924 258.96713257 C257.19383352 273.59460524 256.94669712 287.94513838 253.9375 302.3125 C253.63948486 303.77478027 253.63948486 303.77478027 253.33544922 305.26660156 C243.21482806 353.6484774 221.2983123 397.63678269 186.9375 433.3125 C186.30537598 433.97185547 185.67325195 434.63121094 185.02197266 435.31054688 C175.87752521 444.79880305 166.58015991 453.5387044 155.9375 461.3125 C154.78644983 462.17056152 153.63540823 463.02863451 152.484375 463.88671875 C144.29474019 469.92427396 135.79211724 475.30707302 126.9375 480.3125 C126.23028809 480.7146875 125.52307617 481.116875 124.79443359 481.53125 C101.65904164 494.5566741 76.48787591 503.30551461 50.5 508.625 C49.78110596 508.77235596 49.06221191 508.91971191 48.3215332 509.0715332 C33.64589502 511.86090125 19.12081162 512.66142619 4.21020508 512.62817383 C1.27061513 512.6250221 -1.6679558 512.64854926 -4.60742188 512.67382812 C-17.98056192 512.71848737 -30.87666711 511.51301542 -44.0625 509.3125 C-45.76805054 509.03031616 -45.76805054 509.03031616 -47.50805664 508.74243164 C-90.77552759 500.97044532 -131.82543216 480.98345309 -165.0625 452.3125 C-165.80757813 451.67828125 -166.55265625 451.0440625 -167.3203125 450.390625 C-180.82529833 438.57948485 -193.49668743 425.82889772 -204.0625 411.3125 C-204.91899066 410.16255169 -205.77576433 409.01281411 -206.6328125 407.86328125 C-212.67284209 399.67315742 -218.05617614 391.16870382 -223.0625 382.3125 C-223.4646875 381.60528809 -223.866875 380.89807617 -224.28125 380.16943359 C-237.3066741 357.03404164 -246.05551461 331.86287591 -251.375 305.875 C-251.52235596 305.15610596 -251.66971191 304.43721191 -251.8215332 303.6965332 C-254.79539088 288.05024391 -255.43550362 272.57681954 -255.375 256.6875 C-255.37284485 255.66959381 -255.3706897 254.65168762 -255.36846924 253.60293579 C-255.31879854 238.99386477 -255.06790191 224.66174147 -252.0625 210.3125 C-251.86382324 209.33764648 -251.66514648 208.36279297 -251.46044922 207.35839844 C-241.33982806 158.9765226 -219.4233123 114.98821731 -185.0625 79.3125 C-184.43037598 78.65314453 -183.79825195 77.99378906 -183.14697266 77.31445312 C-174.00252521 67.82619695 -164.70515991 59.0862956 -154.0625 51.3125 C-152.91144983 50.45443848 -151.76040823 49.59636549 -150.609375 48.73828125 C-142.41974019 42.70072604 -133.91711724 37.31792698 -125.0625 32.3125 C-124.35528809 31.9103125 -123.64807617 31.508125 -122.91943359 31.09375 C-99.78404164 18.0683259 -74.61287591 9.31948539 -48.625 4 C-47.90610596 3.85264404 -47.18721191 3.70528809 -46.4465332 3.5534668 C-30.98940107 0.61556182 -15.69740187 -0.06136669 0 0 Z M-138.0625 83.3125 C-141.6160128 87.33981451 -141.4170986 91.35963623 -141.4609375 96.49609375 C-140.61225261 102.49513103 -137.3381142 106.41187692 -133.15987492 110.58985519 C-132.66629503 111.08749581 -132.17271514 111.58513642 -131.66417828 112.09785706 C-130.01020669 113.7617659 -128.34577116 115.41478688 -126.6811676 117.0680542 C-125.48047456 118.2714881 -124.28043784 119.47557713 -123.0810017 120.68026376 C-119.78437487 123.98748207 -116.47845155 127.28526863 -113.17092931 130.58158565 C-109.60514653 134.13853136 -106.04800973 137.70410527 -102.48977661 141.26860046 C-95.51872591 148.24914362 -88.53965083 155.2216107 -81.55778212 162.19133201 C-73.43132031 170.30418053 -65.31248659 178.42464478 -57.19388735 186.54536012 C-42.71129076 201.03114717 -28.22127514 215.5094906 -13.72729492 229.98388672 C0.345202 244.03737397 14.41171797 258.09681337 28.47192383 272.16259766 C43.77553268 287.47226027 59.0822447 302.77880704 74.39456707 318.07975507 C76.02632625 319.71030693 77.65808477 321.34085946 79.28984261 322.97141266 C80.09275088 323.7737174 80.89565916 324.57602213 81.72289799 325.40263914 C87.38836439 331.06422179 93.05168658 336.72794394 98.71426201 342.39241791 C105.61133271 349.2916077 112.51205012 356.18712551 119.41744333 363.07798567 C122.94240671 366.59569108 126.46574821 370.11498152 129.98480797 373.63859367 C133.20342984 376.86127805 136.42660075 380.07933712 139.65353645 383.29369608 C140.82281664 384.4600372 141.99040075 385.62808154 143.15614956 386.79795226 C144.73589594 388.38277831 146.32161554 389.96137331 147.90903378 391.53850937 C148.7898776 392.41848642 149.67072143 393.29846347 150.5782575 394.2051065 C154.396813 397.61603142 157.15713379 398.61546512 162.25 398.6875 C163.15363281 398.71585937 164.05726563 398.74421875 164.98828125 398.7734375 C170.43895131 397.9215447 174.310482 395.38440889 177.7109375 391.16796875 C178.59394236 389.95668642 179.46059024 388.73335 180.3125 387.5 C180.78018799 386.84128906 181.24787598 386.18257813 181.72973633 385.50390625 C186.51711731 378.66455837 190.82439569 371.57260738 194.9375 364.3125 C195.2787793 363.72033691 195.62005859 363.12817383 195.97167969 362.51806641 C209.31228167 339.25180123 216.93237018 313.71631837 220.9375 287.3125 C221.11539063 286.17312988 221.11539063 286.17312988 221.296875 285.01074219 C229.68706621 229.40075463 213.40033723 171.08459085 180.41577148 126.00585938 C175.86236271 119.89328148 171.13085597 114.03764439 165.9296875 108.45703125 C164.13056211 106.52032568 162.44040804 104.53101264 160.75 102.5 C146.16251362 85.87160383 127.97135409 73.29675623 108.9375 62.3125 C108.29989746 61.94141113 107.66229492 61.57032227 107.00537109 61.18798828 C81.39108969 46.42387019 53.08808845 38.97452967 23.9375 35.3125 C23.19951172 35.209375 22.46152344 35.10625 21.70117188 35 C-33.71930572 27.79585249 -95.96349503 46.6271341 -138.0625 83.3125 Z M-175.4765625 121.01171875 C-181.87957232 128.87727535 -187.11295976 137.48370294 -192.0625 146.3125 C-192.47000488 147.03179687 -192.87750977 147.75109375 -193.29736328 148.4921875 C-214.11682298 185.53304231 -221.88508171 225.1726148 -221.0625 267.3125 C-221.05379883 268.05064941 -221.04509766 268.78879883 -221.03613281 269.54931641 C-220.28811152 319.11217565 -196.22040903 370.02810987 -162.515625 405.70703125 C-160.43222845 407.91981071 -158.45502399 410.17498316 -156.5 412.5 C-144.66863329 426.06142505 -129.16650296 436.71529891 -114.0625 446.3125 C-112.65677734 447.21742188 -112.65677734 447.21742188 -111.22265625 448.140625 C-64.61154878 476.76265369 -4.24082566 485.88851873 48.79418945 473.40478516 C76.52430488 466.56225734 103.63865431 456.0759051 126.9375 439.3125 C128.01128906 438.55839844 129.08507812 437.80429687 130.19140625 437.02734375 C131.27474436 436.24921207 132.35681096 435.4693066 133.4375 434.6875 C134.3965625 433.99398438 135.355625 433.30046875 136.34375 432.5859375 C140.99529704 428.5088285 143.71933142 424.20323371 144.1875 418 C143.32163104 405.22843286 128.80121203 395.02805529 120.27243042 386.50698853 C119.11450172 385.3464701 117.95678579 384.18573934 116.79926217 383.02481687 C113.64290287 379.860457 110.48347651 376.69917558 107.32348561 373.53844285 C103.9065856 370.11968032 100.49253358 366.69807554 97.07806396 363.27688599 C89.6265826 355.81187505 82.17137216 348.35059591 74.71532965 340.89014101 C70.05809074 336.23013323 65.40158703 331.56939127 60.74521255 326.90851974 C47.84478742 313.99591403 34.94342489 301.08424653 22.03860283 288.17603493 C21.2142487 287.35146123 20.38989457 286.52688754 19.54056001 285.67732676 C18.71429569 284.85084416 17.88803137 284.02436156 17.03672874 283.17283404 C15.36253766 281.4981995 13.68834814 279.82356341 12.01416016 278.14892578 C11.18371371 277.3182579 10.35326726 276.48759002 9.49765576 275.63175039 C-3.97876162 262.15137914 -17.44840379 248.66425962 -30.91516425 235.17424186 C-44.751378 221.31432598 -58.59319952 207.46003142 -72.44068611 193.61137807 C-80.21168258 185.83946474 -87.98024188 178.06514944 -95.74261856 170.28462601 C-102.34648697 163.66537275 -108.95545187 157.0512621 -115.57115068 150.443832 C-118.94593966 147.07295382 -122.31824903 143.69968895 -125.68407059 140.31985474 C-128.76539005 137.22582422 -131.8535561 134.13880332 -134.94730924 131.05720679 C-136.06485376 129.94162396 -137.17987074 128.82350214 -138.29207577 127.7025959 C-148.14402547 117.50238194 -148.14402547 117.50238194 -161.25 112.9375 C-167.70232365 113.57215479 -171.18563815 116.21393764 -175.4765625 121.01171875 Z " fill="#F04234" transform="translate(255.0625,-0.31250000000000006)"/>
<path d="M0 0 C0.99261841 0.00215515 1.98523682 0.0043103 3.00793457 0.00653076 C17.83440163 0.05816285 32.35262639 0.38658718 46.9375 3.3125 C48.42540039 3.61051514 48.42540039 3.61051514 49.94335938 3.91455078 C88.96766362 12.02941778 125.43080754 27.74490085 156.9375 52.3125 C157.82179688 52.98539063 158.70609375 53.65828125 159.6171875 54.3515625 C175.20737101 66.4551235 189.81954477 80.75418497 201.9375 96.3125 C203.08412109 97.71628906 203.08412109 97.71628906 204.25390625 99.1484375 C231.2924992 132.91412821 248.48449154 174.6856642 254.9375 217.3125 C255.11482666 218.43132568 255.29215332 219.55015137 255.47485352 220.70288086 C257.15626341 232.42485947 257.29484341 244.04748976 257.25 255.875 C257.24784485 256.89540375 257.2456897 257.9158075 257.24346924 258.96713257 C257.19383352 273.59460524 256.94669712 287.94513838 253.9375 302.3125 C253.63948486 303.77478027 253.63948486 303.77478027 253.33544922 305.26660156 C243.21482806 353.6484774 221.2983123 397.63678269 186.9375 433.3125 C186.30537598 433.97185547 185.67325195 434.63121094 185.02197266 435.31054688 C175.87752521 444.79880305 166.58015991 453.5387044 155.9375 461.3125 C154.78644983 462.17056152 153.63540823 463.02863451 152.484375 463.88671875 C144.29474019 469.92427396 135.79211724 475.30707302 126.9375 480.3125 C126.23028809 480.7146875 125.52307617 481.116875 124.79443359 481.53125 C101.65904164 494.5566741 76.48787591 503.30551461 50.5 508.625 C49.78110596 508.77235596 49.06221191 508.91971191 48.3215332 509.0715332 C33.64589502 511.86090125 19.12081162 512.66142619 4.21020508 512.62817383 C1.27061513 512.6250221 -1.6679558 512.64854926 -4.60742188 512.67382812 C-17.98056192 512.71848737 -30.87666711 511.51301542 -44.0625 509.3125 C-45.76805054 509.03031616 -45.76805054 509.03031616 -47.50805664 508.74243164 C-90.77552759 500.97044532 -131.82543216 480.98345309 -165.0625 452.3125 C-165.80757813 451.67828125 -166.55265625 451.0440625 -167.3203125 450.390625 C-180.82529833 438.57948485 -193.49668743 425.82889772 -204.0625 411.3125 C-204.91899066 410.16255169 -205.77576433 409.01281411 -206.6328125 407.86328125 C-212.67284209 399.67315742 -218.05617614 391.16870382 -223.0625 382.3125 C-223.4646875 381.60528809 -223.866875 380.89807617 -224.28125 380.16943359 C-237.3066741 357.03404164 -246.05551461 331.86287591 -251.375 305.875 C-251.52235596 305.15610596 -251.66971191 304.43721191 -251.8215332 303.6965332 C-254.79539088 288.05024391 -255.43550362 272.57681954 -255.375 256.6875 C-255.37284485 255.66959381 -255.3706897 254.65168762 -255.36846924 253.60293579 C-255.31879854 238.99386477 -255.06790191 224.66174147 -252.0625 210.3125 C-251.86382324 209.33764648 -251.66514648 208.36279297 -251.46044922 207.35839844 C-241.33982806 158.9765226 -219.4233123 114.98821731 -185.0625 79.3125 C-184.43037598 78.65314453 -183.79825195 77.99378906 -183.14697266 77.31445312 C-174.00252521 67.82619695 -164.70515991 59.0862956 -154.0625 51.3125 C-152.91144983 50.45443848 -151.76040823 49.59636549 -150.609375 48.73828125 C-142.41974019 42.70072604 -133.91711724 37.31792698 -125.0625 32.3125 C-124.35528809 31.9103125 -123.64807617 31.508125 -122.91943359 31.09375 C-99.78404164 18.0683259 -74.61287591 9.31948539 -48.625 4 C-47.90610596 3.85264404 -47.18721191 3.70528809 -46.4465332 3.5534668 C-30.98940107 0.61556182 -15.69740187 -0.06136669 0 0 Z M-165.0625 84.3125 C-165.62904297 84.85036133 -166.19558594 85.38822266 -166.77929688 85.94238281 C-175.37604351 94.16391233 -182.97242884 102.76850695 -190.0625 112.3125 C-190.78050781 113.25867188 -191.49851563 114.20484375 -192.23828125 115.1796875 C-222.4523885 155.6607244 -238.25324292 204.89955726 -238.24780273 255.23754883 C-238.24998012 257.47952548 -238.26818736 259.72100092 -238.28710938 261.96289062 C-238.42357059 296.38316891 -229.21137476 330.51772178 -214.0625 361.3125 C-213.69576172 362.06901855 -213.32902344 362.82553711 -212.95117188 363.60498047 C-202.20176155 385.58124954 -187.87822228 404.63086958 -171.0625 422.3125 C-170.25570801 423.16231445 -170.25570801 423.16231445 -169.43261719 424.02929688 C-161.21132402 432.62579638 -152.62427376 440.24533576 -143.0625 447.3125 C-142.50095215 447.7348291 -141.9394043 448.1571582 -141.36083984 448.59228516 C-89.73091805 487.35567899 -25.58267812 501.75901873 37.92626953 492.75683594 C38.91997559 492.61020508 39.91368164 492.46357422 40.9375 492.3125 C41.82163574 492.18391602 42.70577148 492.05533203 43.61669922 491.92285156 C66.01517339 488.49036946 87.68412585 480.29720277 107.9375 470.3125 C108.60104492 469.98958984 109.26458984 469.66667969 109.94824219 469.33398438 C131.05192737 458.9593483 150.03292062 444.56898049 166.9375 428.3125 C167.47793945 427.79397461 168.01837891 427.27544922 168.57519531 426.74121094 C175.90271094 419.66886126 182.75953953 412.43064641 188.9375 404.3125 C189.41654785 403.68811035 189.8955957 403.0637207 190.38916016 402.42041016 C228.12669236 352.90679347 246.57242509 289.85331712 238.6875 227.75 C238.1604508 223.92723738 237.57035621 220.11909293 236.9375 216.3125 C236.79296387 215.43271484 236.64842773 214.55292969 236.49951172 213.64648438 C234.38585957 201.18459726 231.17058993 189.21791275 226.9375 177.3125 C226.52056885 176.1383252 226.52056885 176.1383252 226.09521484 174.94042969 C214.45785591 142.83419832 196.3820515 114.96430431 172.9375 90.3125 C172.39963867 89.74595703 171.86177734 89.17941406 171.30761719 88.59570312 C163.08776333 80.00070863 154.50381109 72.37150102 144.9375 65.3125 C144.36531738 64.88485352 143.79313477 64.45720703 143.20361328 64.01660156 C112.25970021 40.95487566 75.2373913 24.91886952 36.9375 19.3125 C36.27202148 19.20115723 35.60654297 19.08981445 34.92089844 18.97509766 C-37.58429079 6.93831171 -112.6495711 34.46634694 -165.0625 84.3125 Z " fill="#010000" transform="translate(255.0625,-0.31250000000000006)"/>
<path d="M0 0 C0.74781738 0.24476074 1.49563477 0.48952148 2.26611328 0.74169922 C30.04376028 9.97485094 54.57958207 26.41017919 75.9375 46.1875 C76.54037842 46.74550293 77.14325684 47.30350586 77.7644043 47.87841797 C84.92526433 54.63963438 91.01389947 62.15173937 96.9375 70 C97.52595703 70.77472656 98.11441406 71.54945313 98.72070312 72.34765625 C100.14974916 74.22981444 101.57612937 76.11392548 103 78 C101.13472184 82.00231869 98.48677236 84.98661498 95.5625 88.25 C88.17055322 96.68290839 81.94580903 105.81427682 75.921875 115.2578125 C68.31028178 127.10838243 59.11147406 137.59854363 47 145 C46.01 145 45.02 145 44 145 C43.85304688 144.39414063 43.70609375 143.78828125 43.5546875 143.1640625 C40.25000557 130.81898634 33.8588039 121.30712112 22.97265625 114.58203125 C18.80523179 112.36415095 14.58900446 111.04521793 10 110 C9.85304688 109.20078125 9.70609375 108.4015625 9.5546875 107.578125 C6.66663259 93.43661477 0.55899785 79.88160897 -11.8125 71.6875 C-16.81446796 68.0574517 -17.19335738 64.28592583 -18.21875 58.41015625 C-20.87549771 46.81345249 -29.71053359 37.16895579 -39.5625 30.9375 C-40.696875 30.298125 -41.83125 29.65875 -43 29 C-42.08552154 27.91481889 -41.16829593 26.83195262 -40.25 25.75 C-39.70601562 25.10546875 -39.16203125 24.4609375 -38.6015625 23.796875 C-37 22 -37 22 -34.625 20 C-32.69558471 17.96550596 -32.69558471 17.96550596 -32.4375 14.5 C-32.7097249 10.92242331 -32.7097249 10.92242331 -35.0625 8.5 C-37.94827934 7.02641055 -39.75897055 6.38675696 -42.96875 7.0625 C-48.8011587 9.75438094 -53.95059233 14.86370581 -56.75 20.5625 C-59.74931272 23.81175545 -61.51906635 23.60673269 -65.875 23.875 C-72.23500689 23.60561954 -72.23500689 23.60561954 -74.96875 21.44140625 C-76.375 19.4375 -76.375 19.4375 -77.65234375 17.2421875 C-80.72110836 12.13647478 -85.09439247 8.64596865 -90.6875 6.75 C-94.12843157 6.74442307 -94.12843157 6.74442307 -97 8.9375 C-99.09909496 12.15173916 -99.70070006 14.04969039 -98.99609375 17.86328125 C-96.93355442 22.28763032 -92.81157416 25.10474367 -89 28 C-91.0594642 30.16685958 -93.16765356 31.86865009 -95.625 33.5625 C-104.55660947 40.24064631 -112.70073113 49.22993513 -114.390625 60.63671875 C-114.48859375 61.47847656 -114.5865625 62.32023437 -114.6875 63.1875 C-115.42946093 67.64626521 -116.96904866 69.19373246 -120.5625 71.875 C-121.44808594 72.50148438 -122.33367187 73.12796875 -123.24609375 73.7734375 C-128.12709857 77.71978182 -131.45267956 82.85895589 -135 88 C-141.52878733 82.62806094 -147.44579862 76.68214926 -153.40234375 70.6953125 C-154.49071139 69.60507635 -155.57930257 68.51506331 -156.66810608 67.42526245 C-159.51269535 64.57688206 -162.35426681 61.72550996 -165.19519043 58.87347412 C-168.10289665 55.95548 -171.01348824 53.04036696 -173.92382812 50.125 C-179.61869081 44.41946016 -185.31036412 38.71075206 -191 33 C-165.71799365 7.51463215 -125.25094875 -5.91675211 -90.27441406 -9.75024414 C-88.80075091 -9.91206868 -87.32849268 -10.08749805 -85.85839844 -10.27905273 C-56.6752744 -13.96502834 -27.68039192 -9.21984025 0 0 Z " fill="#F3F3F3" transform="translate(322,62)"/>
<path d="M0 0 C2.44213321 2.21517242 3.83919661 4.32737643 5.26953125 7.2890625 C5.68041992 8.13879639 6.09130859 8.98853027 6.51464844 9.86401367 C27.8828305 55.32164553 34.56173943 107.45829349 19 156 C18.57661426 157.3970722 18.15344951 158.79421139 17.73046875 160.19140625 C10.97145798 181.95159959 0.86217885 206.16468135 -15 223 C-23.83897288 223 -36.24044467 207.61103305 -42.6875 201.5625 C-43.55422396 200.7524394 -43.55422396 200.7524394 -44.43845749 199.92601395 C-57.95332269 187.20315157 -69.39912108 175.88918144 -70.42237854 156.40483093 C-70.47361176 145.82165466 -69.16203603 135.34451086 -67 125 C-59.66087347 125.96983313 -52.88034158 127.05015947 -46 129.8125 C-45.33484375 130.07385742 -44.6696875 130.33521484 -43.984375 130.60449219 C-41.98479448 131.39154082 -39.99231009 132.19475797 -38 133 C-16.9432123 141.51983015 -16.9432123 141.51983015 5.1640625 140.17578125 C7.30448782 138.97825105 7.30448782 138.97825105 9 136 C8.80451232 131.34351262 8.80451232 131.34351262 6.70800781 127.31591797 C4.62929684 125.71439536 3.46168231 125.57513936 0.859375 125.4453125 C0.04364014 125.39084961 -0.77209473 125.33638672 -1.61254883 125.28027344 C-2.91808716 125.20341309 -2.91808716 125.20341309 -4.25 125.125 C-13.54587937 124.38112951 -21.29681214 122.46235517 -30 119 C-30.63808594 118.74637695 -31.27617187 118.49275391 -31.93359375 118.23144531 C-34.53278092 117.19563062 -37.12894896 116.15268715 -39.72119141 115.09960938 C-46.84706301 112.21689607 -53.71087521 110.14957742 -61.30078125 108.921875 C-62.37110596 108.7475293 -63.44143066 108.57318359 -64.54418945 108.39355469 C-65.35460693 108.26368164 -66.16502441 108.13380859 -67 108 C-67.39865719 102.77222425 -67.68702017 97.55341427 -67.87890625 92.31396484 C-67.95889971 90.53765842 -68.06776844 88.76239083 -68.20703125 86.98974609 C-69.10857108 75.21006757 -69.10857108 75.21006757 -67 70 C-63.25377638 65.68006043 -58.14649476 63.42290852 -53.04502869 61.06549072 C-49.69656292 59.32088966 -46.91022438 56.95602673 -44.0625 54.5 C-42.62583984 53.27796875 -42.62583984 53.27796875 -41.16015625 52.03125 C-33.14721913 44.58503029 -26.8770692 36.24688404 -21 27.0625 C-14.77685384 17.37447465 -8.28395507 8.06123049 0 0 Z " fill="#F3F3F3" transform="translate(434,157)"/>
<path d="M0 0 C2.84144354 1.31422594 5.10867798 2.77048281 7.48016357 4.80899048 C8.15040621 5.38382644 8.82064884 5.9586624 9.51120186 6.55091763 C10.23550329 7.18202985 10.95980473 7.81314207 11.70605469 8.46337891 C12.47693861 9.13267205 13.24782253 9.8019652 14.04206657 10.49153996 C86.09413417 73.45690535 86.09413417 73.45690535 88.52433777 102.15021515 C88.80231263 107.11808903 88.58901868 111.98799835 88.125 116.9375 C88.03311653 117.93538921 88.03311653 117.93538921 87.93937683 118.95343781 C87.15379235 126.82577582 85.66998124 134.4349094 83.7199707 142.09399414 C82.71378982 146.15522544 81.995218 150.24923954 81.2890625 154.37109375 C77.3075371 176.18167797 66.75577431 191.8253813 51 207 C28.6098787 197.03580989 12.14655595 178.5529488 3 156 C-1.30962373 143.59800268 -3.14821974 131.9283326 -3.16113281 118.82592773 C-3.16609772 117.61534698 -3.17106262 116.40476624 -3.17617798 115.15750122 C-3.18823464 111.85388311 -3.19573 108.55032783 -3.20018864 105.24669528 C-3.20313006 103.18004066 -3.20723664 101.11339145 -3.21169281 99.04673958 C-3.22534107 92.5722438 -3.23502302 86.09776054 -3.2388947 79.62325138 C-3.24338112 72.16360521 -3.2609671 64.70414174 -3.2898953 57.24455112 C-3.31152339 51.4660163 -3.32159944 45.68753288 -3.32293582 39.90895802 C-3.32398224 36.46253824 -3.32985629 33.01629085 -3.34775543 29.56991386 C-3.36732414 25.72810853 -3.36294266 21.8865317 -3.35644531 18.04467773 C-3.3656601 16.90840439 -3.37487488 15.77213104 -3.3843689 14.60142517 C-3.35413127 8.90100373 -3.16906474 4.81927298 0 0 Z " fill="#EE304B" transform="translate(165,202)"/>
<path d="M0 0 C9.4053966 7.15628003 15.71319221 16.95931471 22.0859375 26.75439453 C31.12649162 40.62858552 42.79329282 57.97405552 59.05175781 64.16137695 C62.77166053 65.75032566 65.19504915 67.06226392 68 70 C70.01258091 76.17717799 69.1204607 83.05753766 68.75 89.4375 C68.68975889 91.2361507 68.63501425 93.03499443 68.5859375 94.83398438 C68.45413456 99.22744149 68.24744833 103.61159896 68 108 C66.87070068 108.18248291 65.74140137 108.36496582 64.57788086 108.55297852 C56.98422446 109.81326435 49.72695862 111.03007169 42.5625 113.9375 C41.90983154 114.19692383 41.25716309 114.45634766 40.5847168 114.72363281 C38.71755411 115.46855942 36.85848366 116.23367719 35 117 C33.10452314 117.75090045 31.20874428 118.50103961 29.3125 119.25 C27.04905136 120.16663639 24.7909098 121.0887553 22.54296875 122.04296875 C14.98450732 124.88755101 6.84434287 125.24717431 -1.15234375 125.4609375 C-4.65318102 126.12364744 -5.84532449 127.21010176 -8 130 C-8.73213349 133.82336376 -8.28955397 135.48771221 -6.375 138.875 C1.74971754 143.9905629 13.31870221 141.00134703 22.21875 139.04296875 C28.0388165 137.43764049 33.5172142 135.17763058 39.06005859 132.8203125 C42.43748627 131.3921528 45.83567366 130.02474721 49.25 128.6875 C50.47203125 128.19636719 51.6940625 127.70523438 52.953125 127.19921875 C57.82521606 125.51321216 62.88633005 125.29780984 68 125 C70.52711957 157.22563431 70.52711957 157.22563431 66.65527344 164.54052734 C63.14943342 168.03743908 58.80184465 169.52020277 54.18945312 171.09912109 C50.43574435 172.64363329 47.61846181 175.18547685 44.625 177.875 C44.0460498 178.38627441 43.46709961 178.89754883 42.87060547 179.42431641 C30.96234342 190.17412091 22.66325817 203.63898025 14 217 C10.91665923 215.67914973 9.3535895 214.52366782 7.58984375 211.67578125 C7.16292236 210.98919434 6.73600098 210.30260742 6.29614258 209.59521484 C5.84779053 208.84191895 5.39943848 208.08862305 4.9375 207.3125 C4.46143311 206.5179541 3.98536621 205.7234082 3.49487305 204.90478516 C-22.72954579 160.22295644 -32.7122879 108.92957914 -22 58 C-21.81808105 57.11666992 -21.63616211 56.23333984 -21.44873047 55.32324219 C-17.96548397 38.86887133 -12.3000995 12.3000995 0 0 Z " fill="#F3F3F3" transform="translate(77,157)"/>
<path d="M0 0 C2.26040269 3.39060403 2.50744032 5.49890914 3.125 9.5 C6.41453882 27.90000349 16.07764111 44.87163292 28 59 C28.44472656 59.59039062 28.88945312 60.18078125 29.34765625 60.7890625 C43.37486952 78.89146005 69.81978753 92.11107138 92.21362305 95.31689453 C126.53210977 99.1517839 156.45459671 91.27536082 183.65625 69.9140625 C190.87062919 63.77270806 198.7151019 55.56979621 203 47 C205.85779017 48.29719924 207.91008536 49.6636826 210.11621094 51.88916016 C210.98666046 52.75983627 210.98666046 52.75983627 211.87469482 53.64810181 C212.48838928 54.27211884 213.10208374 54.89613586 213.734375 55.5390625 C214.37240051 56.17991791 215.01042603 56.82077332 215.66778564 57.48104858 C217.69994069 59.52437821 219.72502218 61.57455982 221.75 63.625 C223.1284453 65.0134786 224.50734636 66.4015049 225.88671875 67.7890625 C229.26311894 71.18748697 232.63319288 74.59207254 236 78 C234.19487094 81.98589192 231.77790376 84.02740487 228.25 86.5 C227.64583252 86.92579346 227.04166504 87.35158691 226.41918945 87.7902832 C181.72285155 118.39521918 126.17942411 129.58366241 73 120 C52.00297305 115.76417961 31.76228689 108.32072588 13 98 C12.37963867 97.65888184 11.75927734 97.31776367 11.12011719 96.96630859 C-2.25107296 89.50194426 -14.6292589 80.45004648 -25.8359375 70.01171875 C-27.8837896 68.10802952 -29.98830888 66.30257532 -32.125 64.5 C-36.49987904 60.70546206 -40.24836017 56.40019459 -44 52 C-42.49913897 47.57204535 -40.07290839 44.09115165 -37.3125 40.375 C-34.17675054 36.08900702 -31.19510014 31.79421431 -28.4375 27.25 C-21.24609304 15.80759781 -11.35732762 7.17304902 0 0 Z " fill="#F2F2F2" transform="translate(145,338)"/>
<path d="M0 0 C8.46710909 -0.09295482 16.93400258 -0.16389321 25.40149689 -0.20724869 C29.33392955 -0.22806427 33.26601139 -0.25627007 37.19824219 -0.30175781 C40.99785274 -0.345433 44.79712727 -0.36918239 48.5969696 -0.37950897 C50.04177637 -0.38686174 51.48656614 -0.40121968 52.93122864 -0.42292023 C63.89558463 -0.58096765 70.61923118 0.75283153 79 8 C87.47489432 18.31608773 85.76306485 31.61266218 85.5859375 44.140625 C85.57473057 46.47758896 85.56619747 48.81456713 85.56021118 51.15155029 C85.5374311 57.26743291 85.47860083 63.38244456 85.4119873 69.49798584 C85.35033094 75.75244367 85.32314641 82.00704384 85.29296875 88.26171875 C85.22884735 100.5081927 85.12659936 112.75402359 85 125 C79.92924089 120.69292232 74.95679629 116.29676253 70.04516602 111.80932617 C69.28336533 111.11352951 68.52156464 110.41773285 67.73667908 109.70085144 C60.71419509 103.26048499 53.7975459 96.7114495 46.9152689 90.12169933 C42.30880276 85.71690359 37.67278431 81.3584724 32.94067383 77.08862305 C-1.42926428 45.99556666 -1.42926428 45.99556666 -2.5762682 26.38065434 C-2.7272314 17.47881192 -1.71618025 8.72194426 0 0 Z " fill="#EE304B" transform="translate(265,188)"/>
<path d="M0 0 C8.4136128 1.37346544 15.60836173 4.82817804 23.1875 8.5625 C23.83273621 8.87713196 24.47797241 9.19176392 25.14276123 9.51593018 C34.52101643 14.09562877 43.51837673 18.88230255 52 25 C52.96164062 25.67417969 53.92328125 26.34835938 54.9140625 27.04296875 C65.5885987 34.6445324 75.51091425 42.97102556 85 52 C85.56799316 52.53931152 86.13598633 53.07862305 86.72119141 53.63427734 C95.31644642 61.85427668 102.91120368 70.45772301 110 80 C110.71800781 80.94617188 111.43601562 81.89234375 112.17578125 82.8671875 C149.23827495 132.52373246 164.61652377 195.81874673 156 257 C155.83927002 258.15266357 155.83927002 258.15266357 155.67529297 259.32861328 C147.27625878 317.70617986 115.39125043 375.24553756 68.0871582 411.25073242 C66.95489486 412.09496528 65.81910858 412.93449579 64.6796875 413.76904297 C63.0029241 414.99785707 61.34512847 416.24944508 59.6875 417.50390625 C42.76842343 430.12912626 23.12898818 441.42726917 3 448 C2.01 447.67 1.02 447.34 0 447 C1.16273438 446.41734375 2.32546875 445.8346875 3.5234375 445.234375 C23.21834251 435.21059356 41.48799999 423.07527841 57.75390625 408.05859375 C59.70954276 406.26621038 61.71044258 404.56960056 63.75 402.875 C92.12471661 377.98289448 112.81929935 343.01969146 126 308 C126.52013672 306.65035156 126.52013672 306.65035156 127.05078125 305.2734375 C128.33523496 301.73053676 129.12001321 298.50580115 129.4375 294.75 C129.75510093 291.03406909 130.62653967 287.84739726 131.8125 284.3125 C134.88269024 274.7558351 136.44279143 264.89888356 138 255 C138.12149414 254.23026855 138.24298828 253.46053711 138.36816406 252.66748047 C143.35274361 219.58326371 138.92909836 186.00659457 129.015625 154.265625 C127.97335937 150.91434012 127.10381194 147.78600472 126.64453125 144.30859375 C116.74023814 93.46655577 70.99204549 45.95257881 29.8125 17.9375 C20.30253409 11.58698683 10.09626843 6.34353689 0 1 C0 0.67 0 0.34 0 0 Z " fill="#C51E1D" transform="translate(337,32)"/>
<path d="M0 0 C7.33912653 0.96983313 14.11965842 2.05015947 21 4.8125 C21.66515625 5.07385742 22.3303125 5.33521484 23.015625 5.60449219 C25.01520552 6.39154082 27.00768991 7.19475797 29 8 C31.33125103 8.92194949 33.66443935 9.83902322 36 10.75 C37.4540625 11.33007812 37.4540625 11.33007812 38.9375 11.921875 C46.43347197 14.56076309 53.61554686 15.49382987 61.5 16.125 C62.51320313 16.21136719 63.52640625 16.29773438 64.5703125 16.38671875 C67.04644858 16.59695672 69.52292026 16.80124567 72 17 C69.79378752 42.23020299 56.90585804 69.14121294 43 90 C26.99013185 82.5746738 8.35426797 64.32892653 0 49 C-5.186005 33.59315623 -2.51018101 15.73343829 0 0 Z " fill="#F4F4F4" transform="translate(367,282)"/>
<path d="M0 0 C2.81106202 1.28305504 4.87710262 2.62337564 7.06929016 4.7951355 C7.9379496 5.64883224 7.9379496 5.64883224 8.82415771 6.51977539 C9.44719788 7.14215088 10.07023804 7.76452637 10.7121582 8.40576172 C11.3775914 9.0628714 12.0430246 9.71998108 12.72862244 10.39700317 C14.92481922 12.56911739 17.11329282 14.74880561 19.30078125 16.9296875 C20.82195914 18.44190139 22.3432157 19.95403615 23.86454773 21.46609497 C27.04990714 24.63496912 30.23084991 27.80820722 33.40942383 30.98388672 C37.49132411 35.06038807 41.58915195 39.12047029 45.69108295 43.17680168 C48.836654 46.29270324 51.97098403 49.41972564 55.10225487 52.54999161 C56.60892717 54.05244548 58.11973944 55.55075922 59.63466835 57.04488754 C61.74666549 59.13016758 63.84243715 61.23050908 65.93481445 63.33544922 C66.56797577 63.95377625 67.20113708 64.57210327 67.85348511 65.20916748 C69.56562805 66.95089722 69.56562805 66.95089722 72 70 C70.71403352 80.14960287 58.60250953 90.62100905 51 97 C45.13368695 101.40326305 38.92069164 105.49044079 32 108 C14.8039236 91.99994128 5.06557577 75.36974848 1 52 C0.73872314 50.7478772 0.73872314 50.7478772 0.47216797 49.47045898 C-0.16993367 44.75097871 -0.12283256 40.10863178 -0.09765625 35.3515625 C-0.0962413 34.33903412 -0.09482635 33.32650574 -0.09336853 32.28329468 C-0.08779143 29.06383249 -0.07524312 25.84444101 -0.0625 22.625 C-0.05748204 20.43619892 -0.05291965 18.24739675 -0.04882812 16.05859375 C-0.0378295 10.70570523 -0.0211142 5.35285767 0 0 Z " fill="#EE304B" transform="translate(264,301)"/>
<path d="M0 0 C2.44213321 2.21517242 3.83919661 4.32737643 5.26953125 7.2890625 C5.68041992 8.13879639 6.09130859 8.98853027 6.51464844 9.86401367 C27.8828305 55.32164553 34.56173943 107.45829349 19 156 C18.57661426 157.3970722 18.15344951 158.79421139 17.73046875 160.19140625 C10.97145798 181.95159959 0.86217885 206.16468135 -15 223 C-18 223 -18 223 -19.82421875 221.46875 C-20.43910156 220.8190625 -21.05398438 220.169375 -21.6875 219.5 C-22.31011719 218.8503125 -22.93273437 218.200625 -23.57421875 217.53125 C-24.27998047 216.77328125 -24.27998047 216.77328125 -25 216 C-24.6596875 215.37996094 -24.319375 214.75992188 -23.96875 214.12109375 C-22.918339 212.20185875 -21.87337528 210.2796384 -20.83203125 208.35546875 C-19.62137364 206.13808094 -18.38986194 203.93193862 -17.13671875 201.73828125 C-6.88624503 183.39424712 0.94525063 162.64236042 5 142 C4.34 141.67 3.68 141.34 3 141 C3.928125 140.5978125 3.928125 140.5978125 4.875 140.1875 C7.2995233 139.04443152 7.2995233 139.04443152 9 136 C8.98287757 133.16014135 8.98287757 133.16014135 8.5625 130 C7.96304654 124.85101027 8.21652986 120.17302646 8.7355957 115.04785156 C10.40607278 95.7918628 8.94232921 76.8653713 5 58 C4.78037598 56.9373291 4.56075195 55.8746582 4.33447266 54.77978516 C1.66394591 42.16045953 -1.66475599 30.14718689 -6.6796875 18.25390625 C-8 15 -8 15 -8 13 C-8.99 13.33 -9.98 13.66 -11 14 C-9.42219077 10.28954753 -7.09296752 7.70093616 -4.375 4.75 C-3.14910156 3.41195312 -3.14910156 3.41195312 -1.8984375 2.046875 C-1.27195312 1.37140625 -0.64546875 0.6959375 0 0 Z " fill="#CCD5D9" transform="translate(434,157)"/>
<path d="M0 0 C1.15597687 -0.00619858 2.31195374 -0.01239716 3.50296021 -0.01878357 C5.93507043 -0.02585062 8.36722935 -0.02276264 10.79931641 -0.01000977 C14.49082844 0.00384252 18.17979555 -0.03025153 21.87109375 -0.06835938 C24.24739645 -0.0693109 26.62370227 -0.06744997 29 -0.0625 C30.08787811 -0.07575821 31.17575623 -0.08901642 32.29660034 -0.10267639 C44.52623556 0.04358749 55.06903035 4.81001309 63.6328125 13.56640625 C68.07545037 19.39212949 73.6328125 26.97874438 73.6328125 34.56640625 C59.67246101 34.73014303 45.71225903 34.85300576 31.75114346 34.92909145 C25.26824561 34.9656106 18.78599318 35.01513956 12.3034668 35.09448242 C6.04645007 35.1705852 -0.20994621 35.21240645 -6.46739006 35.23054695 C-8.85366521 35.24347307 -11.2399067 35.26871539 -13.62591743 35.30651665 C-16.97083816 35.35739835 -20.3132013 35.364327 -23.65844727 35.36108398 C-24.6431601 35.38625092 -25.62787292 35.41141785 -26.64242554 35.43734741 C-31.82840193 35.38300782 -34.70971832 34.8369415 -38.52915955 31.18153381 C-41.34534288 28.05791019 -41.34534288 28.05791019 -41.484375 24.9296875 C-36.0021656 13.33270608 -27.07134748 6.07255962 -15.24806213 1.4317627 C-10.20420964 -0.08330853 -5.23184736 -0.02376467 0 0 Z " fill="#7E8D93" transform="translate(241.3671875,136.43359375)"/>
<path d="M0 0 C7.97471359 -0.66455947 13.02421662 1.06549442 19.41537476 5.78277588 C24.57503755 10.2089993 27.43643943 15.72505156 28.32311249 22.45100403 C28.84467996 29.67355772 28.6882302 36.90560958 28.5859375 44.140625 C28.57473057 46.47758896 28.56619747 48.81456713 28.56021118 51.15155029 C28.5374311 57.26743291 28.47860083 63.38244456 28.4119873 69.49798584 C28.35033094 75.75244367 28.32314641 82.00704384 28.29296875 88.26171875 C28.22884735 100.5081927 28.12659936 112.75402359 28 125 C27.55703174 124.61455584 27.11406347 124.22911167 26.65767193 123.83198738 C23.88107 121.43136269 21.13573246 119.09870482 18.16474915 116.9382019 C13.83649149 113.44619698 10.93796248 110.31015434 10.1289978 104.71832275 C9.70220366 99.39717932 9.85082267 94.08871911 9.98046875 88.7578125 C9.98939472 86.78304661 9.99315519 84.80825131 9.99201965 82.83346558 C9.9995093 77.65206668 10.06219342 72.47298453 10.14123535 67.29223633 C10.26221221 59.01026942 10.31570132 50.72828369 10.337183 42.44552231 C10.35507457 39.57114033 10.40687661 36.69884831 10.46244812 33.82498169 C10.61751602 20.52050523 8.46847989 10.646089 0 0 Z " fill="#B9183A" transform="translate(322,188)"/>
<path d="M0 0 C5.16149809 4.31342142 9.96618178 8.84488361 14.69140625 13.62890625 C15.39974106 14.34102768 16.10807587 15.05314911 16.83787537 15.78684998 C19.08187715 18.04297206 21.32259378 20.30231221 23.5625 22.5625 C26.51919704 25.54590556 29.47926428 28.52590782 32.44140625 31.50390625 C33.11031387 32.18111221 33.7792215 32.85831818 34.46839905 33.55604553 C37.37012406 36.47280265 40.26009808 39.26922645 43.47241211 41.84350586 C44.30651611 42.55514893 45.14062012 43.26679199 46 44 C46 44.66 46 45.32 46 46 C46.85658203 46.37898438 46.85658203 46.37898438 47.73046875 46.765625 C51.88103293 49.02307471 55.15047859 52.25210731 58 56 C58.22435231 59.73920521 57.24889739 61.51302684 55.5625 64.8125 C53.61965897 68.7758957 52.8149724 72.68544025 52 77 C37.23426021 69.45306633 27.43659963 57.46770121 18.55859375 43.89453125 C10.8688831 32.1459578 2.35555937 21.47001471 -7 11 C-5.32603695 6.408335 -3.20616974 3.62803418 0 0 Z " fill="#CCD5D9" transform="translate(94,131)"/>
<path d="M0 0 C3.18476326 1.59238163 4.69079456 2.43880367 7.06929016 4.7951355 C7.9379496 5.64883224 7.9379496 5.64883224 8.82415771 6.51977539 C9.44719788 7.14215088 10.07023804 7.76452637 10.7121582 8.40576172 C11.3775914 9.0628714 12.0430246 9.71998108 12.72862244 10.39700317 C14.92481922 12.56911739 17.11329282 14.74880561 19.30078125 16.9296875 C20.82195914 18.44190139 22.3432157 19.95403615 23.86454773 21.46609497 C27.04990714 24.63496912 30.23084991 27.80820722 33.40942383 30.98388672 C37.49132411 35.06038807 41.58915195 39.12047029 45.69108295 43.17680168 C48.836654 46.29270324 51.97098403 49.41972564 55.10225487 52.54999161 C56.60892717 54.05244548 58.11973944 55.55075922 59.63466835 57.04488754 C61.74666549 59.13016758 63.84243715 61.23050908 65.93481445 63.33544922 C66.56797577 63.95377625 67.20113708 64.57210327 67.85348511 65.20916748 C69.56562805 66.95089722 69.56562805 66.95089722 72 70 C70.71403352 80.14960287 58.60250953 90.62100905 51 97 C45.13368695 101.40326305 38.92069164 105.49044079 32 108 C31.01 106.68 30.02 105.36 29 104 C29.845625 103.24976563 30.69125 102.49953125 31.5625 101.7265625 C40.98817637 93.26501805 51.00283224 83.91793148 56 72 C55.69602161 67.7908715 52.87723352 65.4740463 50.02124023 62.68066406 C49.50415497 62.16314072 48.9870697 61.64561737 48.45431519 61.1124115 C46.74609034 59.40627403 45.02749105 57.71100408 43.30859375 56.015625 C42.12109704 54.83372441 40.93426165 53.65115904 39.74806213 52.46795654 C36.6261371 49.35747898 33.49530756 46.25611608 30.36254883 43.15655518 C27.16661903 39.99132819 23.9791781 36.81757832 20.79101562 33.64453125 C14.53562301 27.42130111 8.27003345 21.20847898 2 15 C1.67 25.23 1.34 35.46 1 46 C0.67 46 0.34 46 0 46 C0 30.82 0 15.64 0 0 Z " fill="#B41838" transform="translate(264,301)"/>
<path d="M0 0 C2.84144354 1.31422594 5.10867798 2.77048281 7.48016357 4.80899048 C8.15040526 5.38383147 8.82064695 5.95867247 9.511199 6.55093288 C10.23550138 7.18204007 10.95980375 7.81314726 11.70605469 8.46337891 C12.47694711 9.13262673 13.24783953 9.80187456 14.04209232 10.49140263 C24.14471386 19.31944065 34.00357504 28.4063797 43.75 37.625 C44.68274372 38.50573811 45.61548744 39.38647621 46.57649612 40.29390335 C87.21288992 78.90991106 87.21288992 78.90991106 88.52035522 105.0256958 C88.60818163 109.3591296 88.35470916 113.62568578 87.9375 117.9375 C87.83646217 118.98421246 87.83646217 118.98421246 87.73338318 120.05207062 C86.84915068 128.52845432 85.29913448 136.7909172 83 145 C82.67 145 82.34 145 82 145 C82.07837821 144.4590526 82.15675642 143.9181052 82.23750973 143.36076546 C84.87634331 124.06659526 87.39494025 101.60029362 75.52280617 84.95708847 C65.96354894 72.96056161 54.48142048 62.69497277 43.03582764 52.54431152 C38.51860572 48.48896546 34.12422812 44.30805775 29.72600377 40.12459731 C22.15272267 32.92778193 14.50704403 25.81724764 6.73852539 18.83154297 C5.98052643 18.14850098 5.22252747 17.46545898 4.44155884 16.76171875 C3.75029404 16.14408661 3.05902924 15.52645447 2.34681702 14.8901062 C1.74526322 14.35257154 1.14370943 13.81503689 0.52392673 13.2612133 C-0.99222328 11.90983026 -0.99222328 11.90983026 -3 11 C-2.25 3.375 -2.25 3.375 0 0 Z " fill="#B11837" transform="translate(165,202)"/>
<path d="M0 0 C19.8651411 6.15850255 38.27089824 15.68228239 55 28 C55.928125 28.67796631 55.928125 28.67796631 56.875 29.36962891 C63.92734256 34.57339137 70.50854485 40.23432101 76.9375 46.1875 C77.54037842 46.74550293 78.14325684 47.30350586 78.7644043 47.87841797 C85.92526433 54.63963438 92.01389947 62.15173937 97.9375 70 C98.52595703 70.77472656 99.11441406 71.54945313 99.72070312 72.34765625 C101.14974916 74.22981444 102.57612937 76.11392548 104 78 C102.57046772 80.96695379 101.06179607 83.27796966 98.875 85.75 C98.33617187 86.36359375 97.79734375 86.9771875 97.2421875 87.609375 C96.83226562 88.06828125 96.42234375 88.5271875 96 89 C92.61151599 85.89262341 90.25596453 82.45344925 87.875 78.5625 C80.39910543 66.68389202 71.69551184 56.1239877 62 46 C61.52836426 45.50113281 61.05672852 45.00226563 60.57080078 44.48828125 C44.41568179 27.46331332 22.52345383 9.50781794 0 2 C0 1.34 0 0.68 0 0 Z " fill="#CCD4D8" transform="translate(321,62)"/>
<path d="M0 0 C4.05958559 3.33788148 7.6288976 7.12695166 10.8125 11.3125 C10.8125 11.9725 10.8125 12.6325 10.8125 13.3125 C-8.9875 13.3125 -28.7875 13.3125 -49.1875 13.3125 C-45.55629339 4.23448347 -39.60133219 0.62671468 -30.95703125 -3.5234375 C-20.07107417 -8.09891734 -10.09274359 -5.34321719 0 0 Z " fill="#9C9C9C" transform="translate(275.1875,107.6875)"/>
<path d="M0 0 C0.66 0 1.32 0 2 0 C2.54527344 1.02738281 3.09054687 2.05476563 3.65234375 3.11328125 C8.71327824 12.47544395 13.95672838 21.26560671 21.7578125 28.66796875 C23 30 23 30 23 32 C16.15635278 33.60768489 9.71108659 34.3231964 2.6875 34.25 C1.7797583 34.24613281 0.8720166 34.24226563 -0.06323242 34.23828125 C-7.19145118 34.14712918 -14.00886929 33.45270249 -21 32 C-19.58711032 28.79792338 -17.87331231 26.68236231 -15.4375 24.1875 C-9.0300154 17.15918051 -4.09723675 8.56106837 0 0 Z " fill="#B61839" transform="translate(255,384)"/>
<path d="M0 0 C3.91587989 1.6045806 6.64287087 4.28657398 9.62646484 7.19311523 C10.17646149 7.72193802 10.72645813 8.2507608 11.29312134 8.79560852 C17.01491687 14.31289024 22.67870164 19.89055299 28.33740234 25.47241211 C31.0229143 28.11778712 33.72547212 30.74367982 36.44482422 33.35424805 C39.73336918 36.51146604 42.98880674 39.69951014 46.22331619 42.91203499 C47.4586811 44.12845607 48.70515103 45.33370757 49.96274948 46.52712822 C59.81770361 55.90488217 59.81770361 55.90488217 60.28448486 61.26956177 C59.79357336 64.05105136 59.1381292 66.42127202 58 69 C43.23426021 61.45306633 33.43659963 49.46770121 24.55859375 35.89453125 C18.0360645 25.92921298 11.13333668 16.63350949 3.02612305 7.88476562 C1.61020515 6.32032783 0.2945648 4.66625061 -1 3 C-0.67 2.01 -0.34 1.02 0 0 Z " fill="#EFF0F0" transform="translate(88,139)"/>
<path d="M0 0 C3.23387334 1.61693667 4.72002588 2.47195593 7.11621094 4.88916016 C7.69651062 5.4696109 8.2768103 6.05006165 8.87469482 6.64810181 C9.48838928 7.27211884 10.10208374 7.89613586 10.734375 8.5390625 C11.37240051 9.17991791 12.01042603 9.82077332 12.66778564 10.48104858 C14.69994069 12.52437821 16.72502218 14.57455982 18.75 16.625 C20.1284453 18.0134786 21.50734636 19.4015049 22.88671875 20.7890625 C26.26311894 24.18748697 29.63319288 27.59207254 33 31 C31.19487094 34.98589192 28.77790376 37.02740487 25.25 39.5 C24.64583252 39.92579346 24.04166504 40.35158691 23.41918945 40.7902832 C-10.47695545 64 -10.47695545 64 -24 64 C-24 63.34 -24 62.68 -24 62 C-22.82566406 61.41734375 -21.65132813 60.8346875 -20.44140625 60.234375 C-11.79715852 55.8639113 -3.48920138 51.27172536 4.4375 45.6875 C5.1399585 45.19668945 5.84241699 44.70587891 6.56616211 44.20019531 C10.26354777 41.5307925 13.71664964 39.02478557 16 35 C15.78345163 29.38040572 14.54538883 26.80782699 10.52734375 22.94140625 C9.62822266 22.06162109 8.72910156 21.18183594 7.80273438 20.27539062 C6.38444336 18.93250977 6.38444336 18.93250977 4.9375 17.5625 C3.9771449 16.63227241 3.01814507 15.70064349 2.06054688 14.76757812 C-0.28001373 12.49758719 -2.63340779 10.24278658 -5 8 C-3.35 5.36 -1.7 2.72 0 0 Z " fill="#C9D1D5" transform="translate(348,385)"/>
<path d="M0 0 C9.84999231 -0.46627183 18.39579884 4.44343261 25.7421875 10.69140625 C31.35592072 16.43139991 38 25.65190689 38 34 C2.36 34 -33.28 34 -70 34 C-70 33.67 -70 33.34 -70 33 C-40.3 32.67 -10.6 32.34 20 32 C15.81477309 18.04924362 10.16564434 10.03614568 0 0 Z " fill="#525A5E" transform="translate(277,137)"/>
<path d="M0 0 C9.92736752 -0.77523911 19.19976026 1.58646955 27 8 C35 16.17550274 35 16.17550274 35 19 C17.51 18.67 0.02 18.34 -18 18 C-18 17.67 -18 17.34 -18 17 C-6.12 17 5.76 17 18 17 C12.31398469 6.50418719 12.31398469 6.50418719 2.6875 1.25 C1.3571875 1.12625 1.3571875 1.12625 0 1 C0 0.67 0 0.34 0 0 Z " fill="#666666" transform="translate(251,102)"/>
<path d="M0 0 C7.26 0 14.52 0 22 0 C22 7.26 22 14.52 22 22 C14.11135642 15.23830551 14.11135642 15.23830551 11.03515625 12.16796875 C10.38095703 11.51505859 9.72675781 10.86214844 9.05273438 10.18945312 C8.39595703 9.52880859 7.73917969 8.86816406 7.0625 8.1875 C6.37865234 7.50751953 5.69480469 6.82753906 4.99023438 6.12695312 C4.34505859 5.48048828 3.69988281 4.83402344 3.03515625 4.16796875 C2.4512915 3.58297607 1.86742676 2.9979834 1.26586914 2.39526367 C0 1 0 1 0 0 Z " fill="#EE304B" transform="translate(225,188)"/>
<path d="M0 0 C1.16532419 3.39086679 0.84802312 5.21594062 -0.44140625 8.52734375 C-0.77495117 9.39649414 -1.10849609 10.26564453 -1.45214844 11.16113281 C-1.81856445 12.07733398 -2.18498047 12.99353516 -2.5625 13.9375 C-2.93020508 14.87303711 -3.29791016 15.80857422 -3.67675781 16.77246094 C-4.76771131 19.5221187 -5.87904586 22.26245265 -7 25 C-7.2995459 25.73814941 -7.5990918 26.47629883 -7.90771484 27.23681641 C-11.16062561 35.14998034 -11.16062561 35.14998034 -13 38 C-15.171875 38.828125 -15.171875 38.828125 -17 39 C-15.20141005 34.23565002 -12.96193845 29.70618456 -10.75 25.125 C-6.79799843 16.87640599 -3.2575807 8.54635877 0 0 Z " fill="#E73D31" transform="translate(466,327)"/>
<path d="M0 0 C3 1 3 1 4.640625 4.23828125 C5.18888537 5.5916327 5.72488362 6.95000142 6.25 8.3125 C6.53101563 8.98990234 6.81203125 9.66730469 7.1015625 10.36523438 C8.22810269 13.21783489 9.07940113 15.39976526 8.671875 18.48046875 C8.45015625 18.98191406 8.2284375 19.48335937 8 20 C6.84727636 17.60727078 5.70271155 15.21118379 4.5625 12.8125 C4.23701172 12.13896484 3.91152344 11.46542969 3.57617188 10.77148438 C1.88320189 7.19355813 0.54637879 3.96317006 0 0 Z " fill="#E33C30" transform="translate(456,159)"/>
<path d="M0 0 C1.48785086 4.56738556 -0.15317905 7.8472315 -1.875 12.125 C-2.15730469 12.85332031 -2.43960937 13.58164062 -2.73046875 14.33203125 C-3.74365906 16.92983199 -4.75228769 19.50457537 -6 22 C-6.66 22 -7.32 22 -8 22 C-7.29807915 17.06678166 -5.36469225 12.74025318 -3.4375 8.1875 C-3.10814453 7.39923828 -2.77878906 6.61097656 -2.43945312 5.79882812 C-1.63041094 3.86416204 -0.81576148 1.93184247 0 0 Z " fill="#DC3A2E" transform="translate(466,327)"/>
<path d="M0 0 C3.96 1.32 7.92 2.64 12 4 C12 4.66 12 5.32 12 6 C7.61110675 5.33501617 4.0188515 3.81242323 0 2 C0 1.34 0 0.68 0 0 Z " fill="#C5CDD0" transform="translate(321,62)"/>
</svg>
