<svg id="Слой_1" height="512" viewBox="0 0 512 512" width="512" xmlns="http://www.w3.org/2000/svg" data-name="Слой 1"><path d="m85.22 230.4h341.43a35.09 35.09 0 0 1 35.09 35.09v167.58a0 0 0 0 1 0 0h-411.61a0 0 0 0 1 0 0v-167.58a35.09 35.09 0 0 1 35.09-35.09z" fill="#ffc96d"/><path d="m113.61 20.68h323.31v150.88h-323.31z" fill="#abf5ff" transform="matrix(.998 .06 -.06 .998 6.3 -16.44)"/><path d="m50.39 433.07h411.35v67.87h-411.35z" fill="#83868a"/><g fill="#ffc96d"><path d="m84.78 367.09h136.9a34.38 34.38 0 0 1 34.38 34.38v31.6a0 0 0 0 1 0 0h-205.67a0 0 0 0 1 0 0v-31.6a34.38 34.38 0 0 1 34.39-34.38z"/><path d="m290.45 367.09h136.91a34.38 34.38 0 0 1 34.38 34.38v31.6a0 0 0 0 1 0 0h-205.67a0 0 0 0 1 0 0v-31.6a34.38 34.38 0 0 1 34.38-34.38z"/><path d="m23.71 309.58h6.65a19.77 19.77 0 0 1 19.77 19.77v171.59a0 0 0 0 1 0 0h-46.19a0 0 0 0 1 0 0v-171.59a19.77 19.77 0 0 1 19.77-19.77z"/><path d="m481.51 309.58h6.65a19.77 19.77 0 0 1 19.77 19.77v171.59a0 0 0 0 1 0 0h-46.19a0 0 0 0 1 0 0v-171.59a19.77 19.77 0 0 1 19.77-19.77z"/></g><path d="m3.94 467.01h46.45v33.94h-46.45z" fill="#83868a"/><path d="m461.61 467.01h46.45v33.94h-46.45z" fill="#83868a"/><path d="m144.18 125.36h-.24a3.94 3.94 0 0 1 -3.69-4.17l4.57-75.63a3.94 3.94 0 0 1 4.18-3.7l19.9 1.2c14.09.85 24.95 11.62 24.2 24s-12.85 21.79-26.93 20.94l-16-1-2.09 34.63a3.94 3.94 0 0 1 -3.9 3.73zm6.5-46.19 16 1c9.76.59 18.09-5.48 18.58-13.54s-7.06-15.09-16.81-15.68l-16-1z"/><path d="m185.7 127.87a3.94 3.94 0 0 1 -3.58-2.29l-18.43-39.81a3.94 3.94 0 0 1 7.15-3.31l18.43 39.81a3.94 3.94 0 0 1 -3.57 5.59z"/><path d="m253.92 132h-.24l-40-2.42a3.94 3.94 0 0 1 -3.69-4.17l4.57-75.63a3.94 3.94 0 0 1 4.17-3.69l40 2.42a3.94 3.94 0 1 1 -.47 7.86l-36.11-2.18-4.15 67.75 36.11 2.18a3.94 3.94 0 0 1 -.23 7.87z"/><path d="m256.16 94.92h-.24l-37.07-2.24a3.94 3.94 0 0 1 .47-7.86l37.07 2.24a3.94 3.94 0 0 1 -.23 7.87z"/><path d="m326.58 136.39a3.94 3.94 0 0 1 -3.48-2.1l-34.83-66-3.72 61.6a3.94 3.94 0 0 1 -7.86-.47l4.57-75.63a3.94 3.94 0 0 1 7.41-1.6l34.83 66 3.72-61.6a3.94 3.94 0 0 1 7.86.47l-4.57 75.63a3.94 3.94 0 0 1 -3.93 3.7z"/><path d="m408.28 65.42h-.28l-54.87-3.32a3.94 3.94 0 1 1 .47-7.86l54.87 3.32a3.94 3.94 0 0 1 -.23 7.87z"/><path d="m377 139.44h-.24a3.94 3.94 0 0 1 -3.69-4.17l4.3-71.18a3.94 3.94 0 0 1 7.86.47l-4.3 71.18a3.94 3.94 0 0 1 -3.93 3.7z"/><path d="m3.94 103.85a3.94 3.94 0 0 1 -3.18-6.27c14.38-19.63 38.9-32.42 70.9-37a185.35 185.35 0 0 1 44.1-1 3.94 3.94 0 0 1 -.94 7.82c-.75-.09-75.86-8.57-107.7 34.88a3.94 3.94 0 0 1 -3.18 1.57z"/><path d="m432.08 185.11h-.24l-322.73-19.52a3.94 3.94 0 0 1 -3.69-4.17l9.11-150.6a3.94 3.94 0 0 1 7.86.47l-8.87 146.71 314.86 19 8.62-142.73-295.53-17.88a3.94 3.94 0 0 1 .47-7.86l299.48 18.11a3.94 3.94 0 0 1 3.69 4.17l-9.11 150.6a3.94 3.94 0 0 1 -3.92 3.7z"/><path d="m255.93 344a3.94 3.94 0 0 1 -3.94-3.94v-109.66a3.94 3.94 0 1 1 7.88 0v109.66a3.94 3.94 0 0 1 -3.94 3.94z"/><path d="m256.07 437h-205.68a3.94 3.94 0 0 1 -3.94-3.94v-31.6a38.36 38.36 0 0 1 38.32-38.32h136.91a38.36 38.36 0 0 1 38.32 38.33v31.6a3.94 3.94 0 0 1 -3.93 3.93zm-201.74-7.87h197.8v-27.66a30.48 30.48 0 0 0 -30.45-30.47h-136.9a30.48 30.48 0 0 0 -30.44 30.44z"/><path d="m461.74 437a3.94 3.94 0 0 1 -3.94-3.94v-31.6a30.48 30.48 0 0 0 -30.44-30.46h-136.91a30.48 30.48 0 0 0 -30.45 30.47v27.66h178.47a3.94 3.94 0 0 1 0 7.88h-182.4a3.94 3.94 0 0 1 -3.94-3.94v-31.6a38.36 38.36 0 0 1 38.32-38.32h136.91a38.36 38.36 0 0 1 38.32 38.32v31.6a3.94 3.94 0 0 1 -3.94 3.93z"/><path d="m461.74 336.62a3.94 3.94 0 0 1 -3.94-3.94v-70.47a27.9 27.9 0 0 0 -27.87-27.87h-348a27.9 27.9 0 0 0 -27.87 27.87v26a3.94 3.94 0 0 1 -7.88 0v-26a35.79 35.79 0 0 1 35.75-35.75h348a35.79 35.79 0 0 1 35.75 35.75v70.47a3.94 3.94 0 0 1 -3.94 3.94z"/><path d="m50.13 504.88h-46.19a3.94 3.94 0 0 1 -3.94-3.94v-171.59a23.74 23.74 0 0 1 23.71-23.71h6.65a23.74 23.74 0 0 1 23.71 23.71v171.59a3.94 3.94 0 0 1 -3.94 3.94zm-42.25-7.88h38.31v-167.65a15.85 15.85 0 0 0 -15.83-15.83h-6.65a15.85 15.85 0 0 0 -15.83 15.83z"/><path d="m507.93 504.88h-46.19a3.94 3.94 0 0 1 -3.94-3.94v-171.59a23.74 23.74 0 0 1 23.71-23.71h6.65a23.74 23.74 0 0 1 23.71 23.71v171.59a3.94 3.94 0 0 1 -3.94 3.94zm-42.25-7.88h38.32v-167.65a15.85 15.85 0 0 0 -15.83-15.83h-6.65a15.85 15.85 0 0 0 -15.83 15.83z"/><path d="m49.41 470.95h-45.47a3.94 3.94 0 1 1 0-7.88h45.47a3.94 3.94 0 1 1 0 7.88z"/><path d="m508.06 470.95h-45.47a3.94 3.94 0 1 1 0-7.88h45.47a3.94 3.94 0 0 1 0 7.88z"/><path d="m461.74 504.88h-386.35a3.94 3.94 0 0 1 0-7.88h386.35a3.94 3.94 0 0 1 0 7.88z"/></svg>