<svg height="512" viewBox="0 0 64 64" width="512" xmlns="http://www.w3.org/2000/svg"><g id="FILDOUTLINE"><g id="_28-_sandwich_copy_5" data-name="28- sandwich copy 5"><path d="m50.179 24h-36.2632c1.0632-1.98 0-4.96-1.9158-5.62a6.8737 6.8737 0 0 0 4.3053-3.2c2.1789-3.37.7368-5.58.0526-6.35.79.69 3.0737 2.15 6.6842.09 3.5684-2.04 3.1369-4.78 2.79-5.87.4737 1.05 2.0316 3.49 6.21 3.49 4.2527 0 5.79-2.52 6.2421-3.54-.3368 1.05-.8 3.85 2.8211 5.92 3.6105 2.06 5.8632.59 6.6421-.1-.6737.77-2.0947 2.99.0947 6.36a5.25 5.25 0 0 0 4.1579 2.71c-.7579 1.15-3.01 4.11-1.821 6.11z" fill="#fecc81"/><path d="m52 17.89a5.25 5.25 0 0 1 -4.1579-2.71c-2.19-3.37-.7684-5.59-.0947-6.36-.779.69-3.0316 2.16-6.6421.1-3.621-2.07-3.1579-4.87-2.8211-5.92-.4526 1.02-1.9895 3.54-6.242 3.54-.0147 0-.0276-.0015-.0422-.0015v17.4615h18.179c-1.189-2 1.0631-4.96 1.821-6.11z" fill="#fcb64d"/><path d="m28 52h8v6h-8z" fill="#757576"/><path d="m32 52h4v6h-4z" fill="#9e9d9e"/><path d="m61 52h-58l7-24h44z" fill="#57c1ef"/><path d="m61 52h-58l51-24z" fill="#44b3e6"/><path d="m19 58h26v4h-26z" fill="#bdbdbd"/><path d="m32 58h13v4h-13z" fill="#e0e0e0"/><path d="m39 21a6.8441 6.8441 0 0 1 -.68 3h-12.64a6.8441 6.8441 0 0 1 -.68-3 7 7 0 0 1 14 0z" fill="#f8981d"/><path d="m32 14v10h-6.32a6.8441 6.8441 0 0 1 -.68-3 6.9949 6.9949 0 0 1 7-7z" fill="#fcb64d"/><path d="m61.96 51.72-7-24a1 1 0 0 0 -.96-.72h-44a1 1 0 0 0 -.96.72l-7 24a1.0007 1.0007 0 0 0 .96 1.28h24v4h-8a1 1 0 0 0 -1 1v4a1 1 0 0 0 1 1h26a1 1 0 0 0 1-1v-4a1 1 0 0 0 -1-1h-8v-4h24a1.0007 1.0007 0 0 0 .96-1.28zm-38.8736-.72.5-6h7.4136v6zm-14.6698-14h5.6873l-1.25 6h-6.1875zm7.73 0h6.1004l-.5 6h-6.8509zm6.7675-8-.5 6h-5.8514l1.25-6zm23.2737 0 1.25 6h-5.8514l-.5-6zm-6.6078 6h-6.58v-6h6.08zm-6.58 2h6.747l.5 6h-7.247zm-2 6h-7.247l.5-6h6.747zm0-8h-6.58l.5-6h6.08zm-9.42 10-.5 6h-7.8506l1.25-6zm11.42 0h7.4136l.5 6h-7.9136zm9.42 0h7.1009l1.25 6h-7.8509zm-.1667-2-.5-6h6.1009l1.25 6zm7.6431-6h5.6873l1.75 6h-6.1876zm5.1036-2h-5.5206l-1.25-6h5.0206zm-44.25-6h5.0206l-1.25 6h-5.5206zm-4.6669 16h6.3542l-1.25 6h-6.8543zm37.9169 16h-24v-2h24zm-9-4h-6v-4h6zm17.8127-6-1.25-6h6.3542l1.75 6zm-41.1389-31.6748a2.5806 2.5806 0 0 1 1.4043 1.5566 3.2593 3.2593 0 0 1 -.0429 2.6455.9992.9992 0 0 0 .8808 1.4727h36.2627a1 1 0 0 0 .8594-1.5107c-.7608-1.2793.8662-3.6748 1.56-4.6973l.2364-.3525a1 1 0 0 0 -.7725-1.5479 4.3438 4.3438 0 0 1 -3.3818-2.2568c-1.74-2.6787-.86-4.38-.1817-5.1553a1 1 0 0 0 -1.415-1.4082c-.7979.707-2.5713 1.6426-5.4824-.02-2.8584-1.6348-2.709-3.6748-2.3653-4.7461a1 1 0 0 0 -1.8662-.711c-.3921.8863-1.6977 2.9458-5.3276 2.9458-3.6006 0-4.9053-2.0293-5.2988-2.9013a1 1 0 0 0 -1.8643.7138c.3389 1.0635.4854 3.0879-2.333 4.6993-3.0332 1.7314-4.8789.5947-5.5313.0244a1 1 0 0 0 -1.4046 1.4189c.6875.7725 1.583 2.4688-.1436 5.14a5.9241 5.9241 0 0 1 -3.6816 2.7685 1 1 0 0 0 -.1114 1.9219zm14.3262 1.6748a6 6 0 0 1 12 0 5.8919 5.8919 0 0 1 -.3457 2h-11.3085a5.892 5.892 0 0 1 -.3458-2zm-8.8545-5.2773a6.7787 6.7787 0 0 0 1.24-4.8379 7.4269 7.4269 0 0 0 5.1524-1.0967 6.4948 6.4948 0 0 0 3.3125-3.8672 8.0947 8.0947 0 0 0 5.1916 1.6191 8.0878 8.0878 0 0 0 5.2236-1.6416 6.56 6.56 0 0 0 3.3438 3.89 7.3782 7.3782 0 0 0 5.13 1.0908 6.8241 6.8241 0 0 0 1.2627 4.8428 6.7333 6.7333 0 0 0 3.3524 2.838 7.88 7.88 0 0 0 -1.5045 4.44h-9.112a8 8 0 1 0 -15.476 0h-8.9837a5.5684 5.5684 0 0 0 -.3379-2.8477 5.2866 5.2866 0 0 0 -.875-1.4892 8.535 8.535 0 0 0 3.0801-2.9404z"/></g></g></svg>