<?xml version="1.0" encoding="UTF-8"?>
<svg version="1.1" xmlns="http://www.w3.org/2000/svg" width="512" height="512">
<path d="M0 0 C0.89119537 -0.00335861 1.78239075 -0.00671722 2.70059204 -0.01017761 C5.65734233 -0.01970466 8.61403608 -0.02163165 11.57080078 -0.02270508 C13.62102278 -0.02591661 15.67124455 -0.0292806 17.72146606 -0.03279114 C22.02395153 -0.03878692 26.3264169 -0.04063059 30.62890625 -0.04003906 C36.14608414 -0.03993745 41.66313331 -0.05358642 47.18028069 -0.07081127 C51.41643874 -0.08192234 55.65256559 -0.08395854 59.88873672 -0.08342934 C61.92292855 -0.08461093 63.95712115 -0.08904269 65.99129868 -0.0967617 C68.83543697 -0.10654283 71.67929483 -0.10369086 74.5234375 -0.09765625 C75.36618225 -0.10327576 76.208927 -0.10889526 77.07720947 -0.11468506 C84.41614576 -0.07505242 84.41614576 -0.07505242 87.39111328 2.14526367 C89.85858949 5.84647798 89.65937283 8.64251427 89.61816406 12.92138672 C89.61845612 13.71186401 89.61874817 14.50234131 89.61904907 15.31677246 C89.61765543 17.93028734 89.60209266 20.54351733 89.58642578 23.15698242 C89.58269577 24.96873316 89.57984874 26.78048591 89.57785034 28.59223938 C89.57021292 33.3614763 89.55056348 38.13059147 89.52844238 42.89978027 C89.50798631 47.76609653 89.49884914 52.63243244 89.48876953 57.4987793 C89.46731771 67.04766092 89.43318042 76.59645217 89.39111328 86.14526367 C90.38923286 86.13527092 90.38923286 86.13527092 91.40751648 86.12507629 C98.33420988 86.05869688 105.26081288 86.01345204 112.18774414 85.98046875 C114.77274241 85.96538405 117.3577151 85.94491366 119.94262695 85.91894531 C123.65859289 85.88254926 127.37422035 85.86553383 131.09033203 85.85229492 C132.24570969 85.83681107 133.40108734 85.82132721 134.59147644 85.80537415 C135.67221939 85.80514755 136.75296234 85.80492096 137.86645508 85.8046875 C138.81465622 85.79802567 139.76285736 85.79136383 140.73979187 85.78450012 C143.92293116 86.21762778 145.8026988 87.27305552 148.39111328 89.14526367 C150.12295873 92.60895457 150.00183248 96.36685811 149.39111328 100.14526367 C147.07861328 102.70776367 147.07861328 102.70776367 144.39111328 104.14526367 C143.40111328 104.14526367 142.41111328 104.14526367 141.39111328 104.14526367 C141.39111328 126.58526367 141.39111328 149.02526367 141.39111328 172.14526367 C144.36111328 173.13526367 144.36111328 173.13526367 147.39111328 174.14526367 C150.04985888 178.13338208 150.23784892 181.45434823 149.39111328 186.14526367 C147.07861328 188.70776367 147.07861328 188.70776367 144.39111328 190.14526367 C143.40111328 190.14526367 142.41111328 190.14526367 141.39111328 190.14526367 C141.39111328 212.58526367 141.39111328 235.02526367 141.39111328 258.14526367 C143.37111328 258.80526367 145.35111328 259.46526367 147.39111328 260.14526367 C149.41492828 263.18098617 149.72885582 264.10298854 149.82861328 267.58276367 C149.86857422 268.34459961 149.90853516 269.10643555 149.94970703 269.89135742 C149.09630523 273.33480387 147.36904974 274.34465093 144.39111328 276.14526367 C141.44580078 276.43823242 141.44580078 276.43823242 138.26611328 276.33276367 C130.07790422 276.7297118 126.09197579 280.623352 120.39111328 286.14526367 C118.72893892 287.65024014 117.06235251 289.15035992 115.39111328 290.64526367 C114.57771484 291.38647461 113.76431641 292.12768555 112.92626953 292.89135742 C110.2838191 295.24065465 107.57487754 297.48095969 104.82861328 299.70776367 C103.92240234 300.45413086 103.01619141 301.20049805 102.08251953 301.96948242 C100.32976334 303.38644207 98.54645264 304.766666 96.73095703 306.10229492 C92.01505526 309.67841994 92.01505526 309.67841994 89.75439453 314.94995117 C89.63982917 316.8695574 89.57115602 318.79262065 89.55517578 320.71557617 C89.39111328 323.14526367 89.39111328 323.14526367 87.45361328 325.77026367 C83.8866659 328.14822859 81.71026131 328.56870956 77.39111328 328.14526367 C74.57861328 326.45776367 74.57861328 326.45776367 72.39111328 324.14526367 C72.06111328 322.49526367 71.73111328 320.84526367 71.39111328 319.14526367 C48.95111328 319.14526367 26.51111328 319.14526367 3.39111328 319.14526367 C3.06111328 320.79526367 2.73111328 322.44526367 2.39111328 324.14526367 C0.0475814 326.998259 -1.71588072 328.04604078 -5.42138672 328.45776367 C-9.4040839 328.06730316 -10.87856421 327.03160461 -13.60888672 324.14526367 C-13.93888672 322.49526367 -14.26888672 320.84526367 -14.60888672 319.14526367 C-37.04888672 319.14526367 -59.48888672 319.14526367 -82.60888672 319.14526367 C-82.93888672 320.79526367 -83.26888672 322.44526367 -83.60888672 324.14526367 C-85.9524186 326.998259 -87.71588072 328.04604078 -91.42138672 328.45776367 C-95.33965122 328.07362009 -96.82181939 326.85270051 -99.60888672 324.14526367 C-101.29906086 320.76491539 -100.75683181 316.92538237 -100.75605774 313.20671082 C-100.75973443 312.26931275 -100.76341112 311.33191469 -100.76719922 310.36611062 C-100.77826705 307.20549409 -100.78208512 304.04491039 -100.78588867 300.88427734 C-100.79215092 298.62611282 -100.7987975 296.36794933 -100.80580139 294.10978699 C-100.82323193 287.96100905 -100.83376848 281.81223891 -100.84200692 275.66344237 C-100.8471521 271.8250736 -100.853228 267.98670728 -100.85951805 264.14834023 C-100.87638987 253.52397417 -100.89102534 242.89961026 -100.89826679 232.27523327 C-100.90017673 229.51763597 -100.90209706 226.76003868 -100.90405273 224.00244141 C-100.90453647 223.31704256 -100.90502021 222.63164372 -100.90551861 221.92547522 C-100.91382108 210.81943619 -100.93916148 199.7135048 -100.97163341 188.60751279 C-101.00468937 177.20898395 -101.0223813 165.81052911 -101.02591103 154.41194516 C-101.02826617 148.01050687 -101.03728698 141.60923869 -101.06237221 135.20784569 C-101.08558338 129.18732961 -101.08991413 123.16709647 -101.07961082 117.14654732 C-101.07911368 114.9345951 -101.08548643 112.72262927 -101.09916687 110.5107193 C-101.11677756 107.49505938 -101.10983278 104.48042686 -101.09663391 101.46476746 C-101.11308778 100.14628296 -101.11308778 100.14628296 -101.12987405 98.80116242 C-101.08655998 94.71298817 -100.93452249 92.66135818 -98.70340252 89.12529469 C-95.01434567 85.63787913 -91.87458892 86.00826777 -87.03808594 86.03173828 C-85.86721939 86.03151924 -85.86721939 86.03151924 -84.67269897 86.03129578 C-82.08629603 86.03199381 -79.49996462 86.0397811 -76.91357422 86.04760742 C-75.12281331 86.04947199 -73.33205189 86.05089571 -71.54129028 86.05189514 C-66.82304481 86.05571726 -62.10483001 86.06554496 -57.38659668 86.07659912 C-52.57397883 86.08681979 -47.76135604 86.09139417 -42.94873047 86.09643555 C-33.50210239 86.10716749 -24.0554971 86.12424027 -14.60888672 86.14526367 C-14.61776917 85.15412064 -14.62665161 84.1629776 -14.63580322 83.14179993 C-14.7169096 73.7986703 -14.77686195 64.45561214 -14.81613541 55.11221027 C-14.83700519 50.30870701 -14.86531171 45.50548807 -14.91064453 40.70214844 C-14.95412402 36.0661407 -14.97802841 31.43040634 -14.98839569 26.79421043 C-14.99578329 25.02595911 -15.01020965 23.25772265 -15.03180695 21.48958778 C-15.06086944 19.01161052 -15.06484162 16.53476106 -15.06298828 14.05664062 C-15.07736938 13.32655792 -15.09175049 12.59647522 -15.10656738 11.8442688 C-15.06738954 6.99923926 -14.05339171 4.54281546 -10.60888672 1.14526367 C-7.30729687 -0.50553125 -3.6294 -0.00194238 0 0 Z " fill="#FCB024" transform="translate(312.60888671875,134.854736328125)"/>
<path d="M0 0 C7.48980017 5.37627631 11.61437618 12.56507824 14.25 21.3125 C14.37375 22.611875 14.4975 23.91125 14.625 25.25 C14.934375 26.7659375 14.934375 26.7659375 15.25 28.3125 C18.13349928 30.12930116 18.13349928 30.12930116 21.25 31.3125 C23.75031654 35.06297482 23.78603554 36.87106266 23.25 41.3125 C20.70862841 44.47204305 19.10377341 46.02790886 15.25 47.3125 C12.91700175 47.35204234 10.58291811 47.35651732 8.25 47.3125 C8.30220703 48.32957031 8.30220703 48.32957031 8.35546875 49.3671875 C8.63470753 58.96768275 6.19826072 66.66392889 2.25 75.3125 C3.5184375 76.0859375 3.5184375 76.0859375 4.8125 76.875 C9.83461546 80.21518056 13.78144857 84.73905204 17.875 89.125 C20.30681418 91.36482885 22.18883145 92.18871553 25.25 93.3125 C25.62809814 92.78817383 26.00619629 92.26384766 26.39575195 91.72363281 C28.11761352 89.33630858 29.84005109 86.9494005 31.5625 84.5625 C32.15740234 83.7375 32.75230469 82.9125 33.36523438 82.0625 C33.94208984 81.26328125 34.51894531 80.4640625 35.11328125 79.640625 C35.90665894 78.54089355 35.90665894 78.54089355 36.71606445 77.41894531 C38.25 75.3125 38.25 75.3125 39.82182312 73.61834717 C41.79702711 70.42930344 41.62866254 68.04997882 41.63476562 64.3125 C41.6401384 63.61608398 41.64551117 62.91966797 41.65104675 62.20214844 C41.6608107 60.6940386 41.66377307 59.18587267 41.66069031 57.67773438 C41.65620793 55.29009225 41.67022296 52.90318959 41.68908691 50.515625 C41.72584697 45.44792865 41.73957783 40.38031006 41.75 35.3125 C41.76207853 29.43927881 41.78359926 23.56641839 41.83000183 17.69335938 C41.8435779 15.34230406 41.83940053 12.99170417 41.83459473 10.640625 C41.84393528 9.19791075 41.85410409 7.75520155 41.86523438 6.3125 C41.86728882 5.054375 41.86934326 3.79625 41.87145996 2.5 C42.27738899 -0.91812921 42.81011148 -2.30401163 45.25 -4.6875 C49.15767911 -5.9900597 52.88240708 -5.85148554 56.95654297 -5.86450195 C57.84627808 -5.87107315 58.73601318 -5.87764435 59.65270996 -5.88441467 C62.59920332 -5.90413766 65.54564578 -5.91580679 68.4921875 -5.92578125 C69.49819126 -5.92985678 70.50419502 -5.9339323 71.54068375 -5.93813133 C76.86322067 -5.95898575 82.18573184 -5.97329136 87.50830078 -5.98266602 C93.00866528 -5.99374153 98.50862646 -6.02815651 104.00884819 -6.06783772 C108.2364681 -6.09396239 112.46399119 -6.10235406 116.69168472 -6.10594749 C118.71949112 -6.11082257 120.74729294 -6.12246266 122.7750206 -6.14098549 C125.61189689 -6.16529315 128.44771975 -6.16442746 131.28466797 -6.1574707 C132.54103561 -6.17668579 132.54103561 -6.17668579 133.82278442 -6.19628906 C137.8333148 -6.16043154 139.77900794 -5.98669764 143.24783325 -3.78312683 C146.9573943 0.09959457 146.41706798 3.77953336 146.44287109 8.88964844 C146.45513733 10.22162262 146.45513733 10.22162262 146.46765137 11.58050537 C146.49252195 14.52762168 146.50902626 17.47468974 146.5234375 20.421875 C146.52876118 21.42754768 146.53408485 22.43322037 146.53956985 23.46936798 C146.56630956 28.79304747 146.58568123 34.11670345 146.60009766 39.44042969 C146.61674119 44.93969684 146.66151439 50.4383642 146.7124691 55.93740463 C146.74612595 60.16506641 146.75767344 64.39258562 146.76332474 68.62036896 C146.77004226 70.64736765 146.78527728 72.67435681 146.80921555 74.70122528 C146.84083419 77.54057144 146.8409087 80.37829744 146.83349609 83.21777344 C146.84990143 84.05332764 146.86630676 84.88888184 146.88320923 85.74975586 C146.83996459 89.80187277 146.49980986 92.55900189 144.02772522 95.85542297 C141.25 98.3125 141.25 98.3125 138.80677795 98.91722107 C137.95409836 98.85228958 137.10141876 98.78735809 136.22290039 98.72045898 C134.75909439 98.64000336 134.75909439 98.64000336 133.26571655 98.55792236 C131.6975267 98.4345047 131.6975267 98.4345047 130.09765625 98.30859375 C127.85995708 98.20551634 125.62188375 98.11031786 123.38354492 98.0222168 C121.64577286 97.9481813 121.64577286 97.9481813 119.87289429 97.87265015 C102.67613679 96.49794392 102.67613679 96.49794392 86.70800781 101.23632812 C81.7131429 106.26503628 79.5490696 112.41227821 77.42578125 119.06445312 C75.41472976 124.61989934 72.17041796 129.33844345 68.9375 134.25 C68.39633545 135.14162842 67.8551709 136.03325684 67.29760742 136.9519043 C61.4807971 146.32436986 54.12333701 153.48445719 43.25 156.3125 C37.08235776 157.38439369 31.3857636 157.53965272 25.25 156.3125 C24.13214632 160.40828526 23.92235183 164.45657449 23.71484375 168.6796875 C23.67186661 169.50969269 23.62888947 170.33969788 23.58460999 171.19485474 C23.49440953 172.96166968 23.40628374 174.72859158 23.32006836 176.49560547 C23.19102264 179.1159702 23.05207407 181.73566776 22.91210938 184.35546875 C22.63812852 189.67287523 22.43554779 194.99135122 22.25 200.3125 C22.21844126 201.16667007 22.18688251 202.02084015 22.15436745 202.90089417 C21.73083813 215.95209625 22.80942865 227.96809548 25.58314896 240.71713448 C26.43411239 244.64658074 27.22608807 248.58736895 28.02257729 252.52815723 C28.44530333 254.61923311 28.87011553 256.70988829 29.29695702 258.80012798 C36.16836486 292.46168869 42.09986625 325.42668244 41.625 359.875 C41.61772888 360.58740089 41.61045776 361.29980179 41.60296631 362.03379059 C41.55296922 366.69316904 41.43825225 371.34688937 41.2734375 376.00390625 C41.23689056 377.13372421 41.20034363 378.26354218 41.16268921 379.42759705 C40.73815926 387.22424274 39.18822688 393.68325609 34.20703125 399.8359375 C27.26874083 405.82637404 20.80707141 408.99432919 11.50390625 408.58984375 C3.42176024 407.59533358 -2.28946785 404.34132283 -7.75 398.3125 C-10.86640957 393.91710153 -12.8456121 389.62361547 -12.93945312 384.20263672 C-12.95617065 383.37682098 -12.97288818 382.55100525 -12.9901123 381.70016479 C-13.00368774 380.80653229 -13.01726318 379.91289978 -13.03125 378.9921875 C-13.04965942 378.06012482 -13.06806885 377.12806213 -13.08703613 376.16775513 C-13.14578499 373.17440124 -13.19844632 370.18098585 -13.25 367.1875 C-13.36924897 360.43488791 -13.50353265 353.68326391 -13.68386841 346.93197632 C-13.72549694 345.28306787 -13.76109286 343.63398519 -13.78805542 341.98477173 C-14.00199446 329.72059968 -16.59068097 318.55086158 -19.8125 306.75 C-20.29120708 304.94896402 -20.76842892 303.1475326 -21.24414062 301.34570312 C-22.39575914 296.99657158 -23.56709796 292.65322225 -24.75 288.3125 C-24.73839844 289.25077637 -24.72679687 290.18905273 -24.71484375 291.15576172 C-24.51471893 314.44604883 -26.36318847 337.17965873 -29.5625 360.25 C-29.82123901 362.15782257 -29.82123901 362.15782257 -30.08520508 364.10418701 C-30.58767986 367.76878553 -31.11130047 371.42960542 -31.64453125 375.08984375 C-31.79573929 376.1769313 -31.94694733 377.26401886 -32.10273743 378.38404846 C-33.68004407 388.75070585 -36.06410899 396.9567438 -44.39453125 403.68359375 C-50.78906151 408.10568184 -57.03046218 409.22927816 -64.75 408.3125 C-67.75 407.375 -67.75 407.375 -69.75 405.3125 C-70.37884255 403.08534931 -70.77167587 400.87140371 -71.15625 398.58984375 C-72.10103919 394.96607997 -74.25112809 393.0612591 -76.75 390.3125 C-78.22212778 387.29814312 -78.75 385.67619412 -78.75 382.3125 C-79.53375 382.044375 -80.3175 381.77625 -81.125 381.5 C-83.75 380.3125 -83.75 380.3125 -85.75 377.3125 C-86.41666667 370.3125 -86.41666667 370.3125 -84.125 366.875 C-81.3127594 365.02484171 -79.07739873 364.61499079 -75.75 364.3125 C-75.68941406 363.49265625 -75.62882812 362.6728125 -75.56640625 361.828125 C-75.48261719 360.75046875 -75.39882812 359.6728125 -75.3125 358.5625 C-75.23128906 357.49515625 -75.15007812 356.4278125 -75.06640625 355.328125 C-74.80909227 352.87570038 -74.43187782 350.67328709 -73.75 348.3125 C-74.53375 348.044375 -75.3175 347.77625 -76.125 347.5 C-78.75 346.3125 -78.75 346.3125 -80.75 343.3125 C-80.9453125 340.87768555 -80.9453125 340.87768555 -80.875 337.94921875 C-80.85808105 336.85061523 -80.84116211 335.75201172 -80.82373047 334.62011719 C-80.78723389 332.82815918 -80.78723389 332.82815918 -80.75 331 C-80.64604415 320.81232717 -80.89380822 310.72848958 -81.625 300.5625 C-81.75817627 298.6904187 -81.75817627 298.6904187 -81.89404297 296.78051758 C-82.26260591 291.71358687 -82.64579537 286.64792779 -83.04101562 281.58300781 C-84.73588851 259.55542515 -84.95133186 237.69251357 -84.79077148 215.60998535 C-84.7438964 208.92719544 -84.72747733 202.24445018 -84.71289062 195.56152344 C-84.68727789 184.64216807 -84.63676761 173.72316821 -84.56606293 162.8040123 C-84.52611775 156.56073329 -84.49408432 150.31761164 -84.47900391 144.07421875 C-84.46384909 137.8960228 -84.42952012 131.7182067 -84.38169098 125.54018021 C-84.36697247 123.22071235 -84.35896453 120.90119088 -84.35811615 118.58167648 C-84.35574512 115.36701994 -84.32868824 112.15343552 -84.29589844 108.93896484 C-84.30344398 107.53968498 -84.30344398 107.53968498 -84.31114197 106.11213684 C-84.1462276 95.63216577 -80.35577311 88.03017293 -73.19140625 80.51171875 C-68.29681346 76.10266956 -62.82261428 73.69058671 -56.75 71.3125 C-57.02714844 70.66023438 -57.30429688 70.00796875 -57.58984375 69.3359375 C-60.83856628 61.4973828 -61.88280469 55.27321171 -61.58984375 46.80078125 C-61.55808051 44.05859221 -61.55808051 44.05859221 -63.75 41.3125 C-63.9747319 38.41433406 -64.08308115 35.64723811 -64.0625 32.75 C-64.05686035 31.93805176 -64.0512207 31.12610352 -64.04541016 30.28955078 C-63.82056064 19.1561604 -60.87665681 11.65954014 -53.12109375 3.625 C-39.40898182 -9.10085794 -15.51045965 -9.37782321 0 0 Z " fill="#0157D1" transform="translate(135.75,54.6875)"/>
<path d="M0 0 C7.48980017 5.37627631 11.61437618 12.56507824 14.25 21.3125 C14.37375 22.611875 14.4975 23.91125 14.625 25.25 C14.934375 26.7659375 14.934375 26.7659375 15.25 28.3125 C18.13349928 30.12930116 18.13349928 30.12930116 21.25 31.3125 C23.75031654 35.06297482 23.78603554 36.87106266 23.25 41.3125 C20.70862841 44.47204305 19.10377341 46.02790886 15.25 47.3125 C12.91700175 47.35204234 10.58291811 47.35651732 8.25 47.3125 C8.30220703 48.32957031 8.30220703 48.32957031 8.35546875 49.3671875 C8.64343001 59.26756987 6.51799165 66.95637531 1.25 75.3125 C0.59 75.3125 -0.07 75.3125 -0.75 75.3125 C-1.11351562 76.19035156 -1.11351562 76.19035156 -1.484375 77.0859375 C-4.37863967 82.17769942 -10.00014815 85.60641943 -15.3125 87.75 C-16.116875 87.935625 -16.92125 88.12125 -17.75 88.3125 C-17.09773438 88.37566406 -16.44546875 88.43882812 -15.7734375 88.50390625 C-8.66433706 89.50001914 -8.66433706 89.50001914 -6.2421875 91.65234375 C-5.36380942 92.82627672 -4.49204213 94.00516983 -3.625 95.1875 C0.30944263 99.64653498 5.64078852 102.77573206 10.52978516 106.11669922 C12.08978581 107.20112772 13.61557152 108.33436881 15.13671875 109.47265625 C21.49936221 114.26875546 21.49936221 114.26875546 29.25 115.3125 C33.3617383 112.54039256 35.89495787 109.31055952 38.6875 105.25 C39.56489657 103.99113395 40.44389245 102.73338154 41.32421875 101.4765625 C41.7939209 100.80399414 42.26362305 100.13142578 42.74755859 99.43847656 C45.44190081 95.62594293 48.22353566 91.8779262 51 88.125 C52.19401358 86.50911692 53.38802395 84.89323147 54.58203125 83.27734375 C55.18354004 82.46378418 55.78504883 81.65022461 56.40478516 80.81201172 C58.27784241 78.27478492 60.14555619 75.73370764 62.01171875 73.19140625 C62.93549316 71.93396606 62.93549316 71.93396606 63.87792969 70.65112305 C65.04222817 69.06599946 66.20570656 67.480273 67.36816406 65.89379883 C77.64222427 51.92027573 77.64222427 51.92027573 81.25 48.3125 C85.88012619 47.79804153 88.51885662 48.54079349 92.25 51.3125 C93.78452851 54.38155703 93.89022017 57.00682736 93.25 60.3125 C91.51236661 64.06063732 89.29945268 67.47001908 87.0625 70.9375 C86.42683105 71.95094482 85.79116211 72.96438965 85.13623047 74.00854492 C83.82013585 76.10544834 82.49782215 78.1984608 81.16943359 80.28759766 C78.8919891 83.87670186 76.65630926 87.49021332 74.42626953 91.10888672 C72.8561797 93.65552597 71.27815911 96.1971217 69.69921875 98.73828125 C67.1227758 102.89229304 64.56746168 107.05893182 62.01953125 111.23046875 C60.93178484 113.00851343 59.84381179 114.78641926 58.75579834 116.56430054 C57.71127788 118.27358908 56.67029421 119.98503731 55.62939453 121.6965332 C54.98728027 122.74542725 54.34516602 123.79432129 53.68359375 124.875 C52.83365845 126.26912109 52.83365845 126.26912109 51.96655273 127.69140625 C49.31883477 131.73434467 46.89007835 135.42089042 42.5 137.625 C41.88640625 137.95113281 41.2728125 138.27726563 40.640625 138.61328125 C32.02217489 141.13403708 26.37498705 137.84530433 18.82495117 133.71557617 C17.95253784 133.23761597 17.95253784 133.23761597 17.0625 132.75 C15.91974609 132.14091797 14.77699219 131.53183594 13.59960938 130.90429688 C8.92932618 128.40943107 4.27582442 125.88641025 -0.34985352 123.30981445 C-1.49768311 122.67648193 -2.6455127 122.04314941 -3.828125 121.390625 C-4.85711914 120.81602539 -5.88611328 120.24142578 -6.94628906 119.64941406 C-11.00580921 117.71368328 -13.34577091 117.43165418 -17.75 118.3125 C-20.37716577 119.77247987 -20.37716577 119.77247987 -21.75 122.3125 C-22.50015195 125.26941709 -22.50015195 125.26941709 -21.75 128.3125 C-19.24316836 131.50301299 -16.56476182 133.50779199 -13.06640625 135.4609375 C-11.97199219 136.07195312 -10.87757812 136.68296875 -9.75 137.3125 C-13.35742462 147.96734065 -17.31775606 158.47109586 -21.4375 168.9375 C-21.91292236 170.14631836 -22.38834473 171.35513672 -22.87817383 172.60058594 C-24.15908697 175.84185901 -25.4533452 179.0775021 -26.75 182.3125 C-27.03818604 183.05902832 -27.32637207 183.80555664 -27.62329102 184.57470703 C-29.82964036 190.11143644 -33.01485726 192.87543949 -37.75 196.3125 C-38.43578125 196.82425781 -39.1215625 197.33601562 -39.828125 197.86328125 C-45.67401862 201.49141453 -50.93246034 201.5757243 -57.60546875 201.44140625 C-58.48601929 201.43210083 -59.36656982 201.42279541 -60.27380371 201.41320801 C-62.43266164 201.38904988 -64.59136943 201.35206268 -66.75 201.3125 C-66.84278504 188.67311586 -66.91380844 176.03381309 -66.95724869 163.39415741 C-66.97810055 157.52469328 -67.00637482 151.6554626 -67.05175781 145.78613281 C-67.09530047 140.11918348 -67.11915517 134.45245836 -67.12950897 128.78535461 C-67.13688517 126.62604749 -67.15128917 124.46675227 -67.17292023 122.30754089 C-67.20206559 119.27702563 -67.20595128 116.24743032 -67.20410156 113.21679688 C-67.21848267 112.32918671 -67.23286377 111.44157654 -67.24768066 110.52706909 C-67.20902645 104.65311547 -66.06384629 100.22010157 -62.75 95.3125 C-60.25 92.9375 -60.25 92.9375 -57.75 91.3125 C-57.21890625 90.961875 -56.6878125 90.61125 -56.140625 90.25 C-52.50429947 88.82398999 -48.87466784 88.84171564 -45 88.6875 C-44.20722656 88.64882812 -43.41445312 88.61015625 -42.59765625 88.5703125 C-40.64880584 88.476392 -38.69943549 88.39337178 -36.75 88.3125 C-37.306875 88.044375 -37.86375 87.77625 -38.4375 87.5 C-48.14385162 82.51565727 -56.07925067 74.99090433 -59.71875 64.52734375 C-61.41659032 58.43555556 -62.02157474 52.90076653 -61.66015625 46.58984375 C-61.56298446 44.0280983 -61.56298446 44.0280983 -63.75 41.3125 C-63.9747319 38.41433406 -64.08308115 35.64723811 -64.0625 32.75 C-64.05686035 31.93805176 -64.0512207 31.12610352 -64.04541016 30.28955078 C-63.82056064 19.1561604 -60.87665681 11.65954014 -53.12109375 3.625 C-39.40898182 -9.10085794 -15.51045965 -9.37782321 0 0 Z " fill="#90EAFC" transform="translate(135.75,54.6875)"/>
<path d="M0 0 C2.64704909 1.31009532 5.2926656 2.62294764 7.9375 3.9375 C8.69224609 4.31068359 9.44699219 4.68386719 10.22460938 5.06835938 C10.94326172 5.42607422 11.66191406 5.78378906 12.40234375 6.15234375 C13.06741943 6.48226318 13.73249512 6.81218262 14.41772461 7.15209961 C16 8 16 8 17 9 C16.94483459 12.06677405 16.82467622 15.1064203 16.66015625 18.16796875 C16.61434921 19.11319901 16.56854218 20.05842926 16.52134705 21.03230286 C16.32513225 25.07833361 16.11711241 29.12373384 15.90942383 33.16918945 C15.75937138 36.12691172 15.61595549 39.08491263 15.47265625 42.04296875 C15.42577164 42.91060349 15.37888702 43.77823822 15.33058167 44.67216492 C15.18045063 47.78116844 15.08576662 50.8885032 15 54 C14.97253063 54.76951996 14.94506126 55.53903992 14.91675949 56.33187866 C14.48551593 69.47903873 15.53876113 81.56059995 18.33314896 94.40463448 C19.18411239 98.33408074 19.97608807 102.27486895 20.77257729 106.21565723 C21.19530333 108.30673311 21.62011553 110.39738829 22.04695702 112.48762798 C28.91836486 146.14918869 34.84986625 179.11418244 34.375 213.5625 C34.36772888 214.27490089 34.36045776 214.98730179 34.35296631 215.72129059 C34.30296922 220.38066904 34.18825225 225.03438937 34.0234375 229.69140625 C33.98689056 230.82122421 33.95034363 231.95104218 33.91268921 233.11509705 C33.48815926 240.91174274 31.93822688 247.37075609 26.95703125 253.5234375 C20.01874083 259.51387404 13.55707141 262.68182919 4.25390625 262.27734375 C-3.82823976 261.28283358 -9.53946785 258.02882283 -15 252 C-18.11640957 247.60460153 -20.0956121 243.31111547 -20.18945312 237.89013672 C-20.20617065 237.06432098 -20.22288818 236.23850525 -20.2401123 235.38766479 C-20.25368774 234.49403229 -20.26726318 233.60039978 -20.28125 232.6796875 C-20.30886414 231.28159348 -20.30886414 231.28159348 -20.33703613 229.85525513 C-20.39578499 226.86190124 -20.44844632 223.86848585 -20.5 220.875 C-20.61924897 214.12238791 -20.75353265 207.37076391 -20.93386841 200.61947632 C-20.97549694 198.97056787 -21.01109286 197.32148519 -21.03805542 195.67227173 C-21.25199446 183.40809968 -23.84068097 172.23836158 -27.0625 160.4375 C-27.54120708 158.63646402 -28.01842892 156.8350326 -28.49414062 155.03320312 C-29.64575914 150.68407158 -30.81709796 146.34072225 -32 142 C-31.98839844 142.93827637 -31.97679687 143.87655273 -31.96484375 144.84326172 C-31.76471893 168.13354883 -33.61318847 190.86715873 -36.8125 213.9375 C-36.98499268 215.20938171 -37.15748535 216.48126343 -37.33520508 217.79168701 C-37.83767986 221.45628553 -38.36130047 225.11710542 -38.89453125 228.77734375 C-39.04573929 229.8644313 -39.19694733 230.95151886 -39.35273743 232.07154846 C-40.93004407 242.43820585 -43.31410899 250.6442438 -51.64453125 257.37109375 C-57.99044815 261.75956365 -64.32512531 263.00221731 -72 262 C-76.51315789 259.97368421 -76.51315789 259.97368421 -78 257 C-78.35467623 253.24043194 -78.32226194 250.70897626 -76.75 247.25 C-73.04410389 244.21790318 -69.44948315 243.79985706 -64.77734375 243.06640625 C-61.79726532 242.24089544 -61.79726532 242.24089544 -60.40649414 239.46142578 C-58.77382149 235.44336766 -58.19323108 231.83369707 -57.71875 227.55078125 C-57.61912964 226.73868698 -57.51950928 225.92659271 -57.41687012 225.08988953 C-57.10076639 222.49856077 -56.799625 219.90578098 -56.5 217.3125 C-56.19932347 214.7795795 -55.8953629 212.24709669 -55.58848572 209.71492004 C-55.38141982 208.00363118 -55.17768238 206.29193669 -54.97706604 204.57987976 C-54.49796238 200.59211626 -53.96615748 196.64615715 -53.19116211 192.7043457 C-49.91016951 175.73559283 -50.55705958 158.43970704 -50.56335449 141.22583008 C-50.56501934 136.66225656 -50.55141118 132.09930629 -50.51487541 127.53587151 C-50.50410142 125.4172844 -50.51612779 123.29960257 -50.52870178 121.18104553 C-50.51866623 119.90128342 -50.50863068 118.6215213 -50.49829102 117.30297852 C-50.49845718 116.17892105 -50.49862335 115.05486359 -50.49879456 113.89674377 C-49.88831679 110.351401 -48.8069203 109.17935583 -46 107 C-42.55791278 106.17880434 -39.09196848 106.35094091 -35.5625 106.375 C-34.62083984 106.34277344 -33.67917969 106.31054688 -32.70898438 106.27734375 C-31.79568359 106.27605469 -30.88238281 106.27476562 -29.94140625 106.2734375 C-28.69919312 106.26449463 -28.69919312 106.26449463 -27.43188477 106.25537109 C-23.71868499 107.39233117 -21.88150514 109.75297688 -20 113 C-18.78191333 116.20256714 -18.02303163 119.45570626 -17.28125 122.796875 C-17.05602661 123.74451721 -16.83080322 124.69215942 -16.59875488 125.66851807 C-15.8832504 128.69220356 -15.19076823 131.72057767 -14.5 134.75 C-13.57888704 138.70453326 -12.64890394 142.65696002 -11.71875 146.609375 C-11.49388916 147.57242554 -11.26902832 148.53547607 -11.03735352 149.52770996 C-9.22205847 157.24026256 -7.17404791 164.87144651 -4.99804688 172.48925781 C-3.41398137 178.06138646 -2.73854713 183.07825093 -2.5 188.875 C-2.45721924 189.79450439 -2.41443848 190.71400879 -2.37036133 191.66137695 C-2.11844493 197.51505723 -1.96759249 203.3652004 -1.88998413 209.22338867 C-1.84371937 212.6781515 -1.78403798 216.13265259 -1.72509766 219.58721924 C-1.70004327 221.31999839 -1.68229594 223.05289869 -1.671875 224.78582764 C-1.65680285 227.24712211 -1.61773167 229.707036 -1.57421875 232.16796875 C-1.57616745 232.91395828 -1.57811615 233.65994781 -1.5801239 234.42854309 C-1.50209885 237.68651091 -1.4413339 239.52249605 0.81713867 241.96606445 C4.03117049 243.4884249 6.49422321 243.37561894 10 243 C12.27345559 241.93030417 12.27345559 241.93030417 14 240 C14.63508494 237.30829169 14.63508494 237.30829169 14.58105469 234.19140625 C14.60620651 232.98738159 14.63135834 231.78335693 14.65727234 230.54284668 C14.66209122 229.22933228 14.6669101 227.91581787 14.671875 226.5625 C14.68786537 225.18264838 14.70467153 223.80280601 14.72224426 222.42297363 C14.76816209 217.94846004 14.76110075 213.47467502 14.75 209 C14.74996349 208.23769073 14.74992699 207.47538147 14.74988937 206.68997192 C14.74822461 183.18789251 13.13042843 161.0600724 7.79646301 138.09947205 C5.31805428 127.33155634 3.5301378 116.43571154 1.66159058 105.54882812 C0.71530892 100.04206755 -0.24915172 94.5385397 -1.21484375 89.03515625 C-1.3811731 88.07694473 -1.54750244 87.11873322 -1.71887207 86.13148499 C-1.87343872 85.24770676 -2.02800537 84.36392853 -2.18725586 83.45336914 C-2.32078964 82.68593887 -2.45432343 81.91850861 -2.59190369 81.12782288 C-2.96323592 79.02240059 -2.96323592 79.02240059 -3.54446411 77.09155273 C-5.4939213 68.14079252 -3.87753673 57.7808343 -3.37890625 48.69140625 C-3.28258156 46.87587502 -3.28258156 46.87587502 -3.18431091 45.02366638 C-3.04897406 42.49005132 -2.9119162 39.95652763 -2.77319336 37.4230957 C-2.56174127 33.54859761 -2.35767377 29.67375758 -2.15429688 25.79882812 C-2.02127304 23.32549715 -1.88782456 20.85218896 -1.75390625 18.37890625 C-1.6934462 17.22572403 -1.63298615 16.07254181 -1.57069397 14.88441467 C-1.48071388 13.26629128 -1.48071388 13.26629128 -1.38891602 11.61547852 C-1.33784195 10.67317886 -1.28676788 9.73087921 -1.23414612 8.76002502 C-0.98321042 5.80209089 -0.52449363 2.92079441 0 0 Z " fill="#0156D1" transform="translate(143,201)"/>
<path d="M0 0 C0.33 0 0.66 0 1 0 C1.29181233 16.24421987 0.67561192 32.34903546 -0.28857422 48.55908203 C-0.51451385 52.37299213 -0.71738282 56.18742706 -0.89984131 60.00366211 C-0.98742463 61.74935095 -1.09573873 63.49397467 -1.20751953 65.23828125 C-1.5828967 75.1963387 0.57455127 84.78114979 2.50408936 94.49807739 C3.56261011 99.82881621 4.58296272 105.16691012 5.609375 110.50390625 C5.91813065 112.10011055 5.91813065 112.10011055 6.23312378 113.7285614 C8.34432179 124.6818538 10.22817797 135.66933084 12.05908203 146.67236328 C12.27419434 147.95739746 12.48930664 149.24243164 12.7109375 150.56640625 C12.9050824 151.72959381 13.09922729 152.89278137 13.29925537 154.09121704 C13.95424899 157.74479896 14.74297726 161.34374909 15.55126953 164.96582031 C17.21428048 172.95143163 17.47363533 180.84653163 17.46875 188.98046875 C17.47587569 190.45160705 17.48357806 191.92274266 17.49182129 193.39387512 C17.50511787 196.44178064 17.50689722 199.4894275 17.50097656 202.53735352 C17.49501794 206.43922425 17.52598982 210.33987735 17.56609344 214.24151134 C17.59191234 217.26386689 17.59485469 220.28592379 17.59120178 223.3083744 C17.5928908 224.74809201 17.60251255 226.18782373 17.62034607 227.62743187 C17.64247103 229.62934802 17.62964585 231.63155838 17.61523438 233.63354492 C17.61728882 234.76966721 17.61934326 235.90578949 17.62145996 237.07633972 C17 240 17 240 14.68029785 242.36665344 C11.14733477 244.51960561 9.07421083 244.58203012 5 244 C2.32324219 242.46435547 2.32324219 242.46435547 0 240 C-0.50814701 237.16278161 -0.69918314 234.90735013 -0.671875 232.0703125 C-0.69018372 230.90263336 -0.69018372 230.90263336 -0.7088623 229.71136475 C-0.73210388 228.04595303 -0.74421359 226.3803554 -0.74621582 224.71478271 C-0.75002381 222.10870349 -0.7842476 219.50463524 -0.82714844 216.89892578 C-0.89395231 212.67202221 -0.94032044 208.44526084 -0.97900391 204.21801758 C-1.12619742 188.6685637 -2.63881743 174.95128515 -7 160 C-7.59835623 157.89235 -8.19145448 155.78330302 -8.7824707 153.67358398 C-9.17799406 152.26439962 -9.57758453 150.85635056 -9.98120117 149.44946289 C-11.37047308 144.52932611 -12.58032567 139.58321012 -13.73046875 134.6015625 C-13.88159119 133.95152756 -14.03271362 133.30149261 -14.18841553 132.63175964 C-14.94648017 129.36974568 -15.69092546 126.10634347 -16.41357422 122.83618164 C-16.82953857 121.03588501 -16.82953857 121.03588501 -17.25390625 119.19921875 C-17.61464233 117.58793091 -17.61464233 117.58793091 -17.98266602 115.9440918 C-19.15519689 112.55087129 -20.43475284 110.51134103 -23 108 C-25.34204025 107.27327287 -25.34204025 107.27327287 -27.87890625 107.40625 C-29.26045898 107.41011719 -29.26045898 107.41011719 -30.66992188 107.4140625 C-31.62447266 107.44242187 -32.57902344 107.47078125 -33.5625 107.5 C-34.52091797 107.49742187 -35.47933594 107.49484375 -36.46679688 107.4921875 C-41.30908972 107.33894173 -41.30908972 107.33894173 -45.61474609 109.14634705 C-47.60386356 111.80804931 -47.37176938 113.77711338 -47.36889648 117.07836914 C-47.37577988 118.33561295 -47.38266327 119.59285675 -47.38975525 120.88819885 C-47.38657728 121.5621979 -47.38339931 122.23619694 -47.38012505 122.93062019 C-47.37095273 125.06801837 -47.38132033 127.20454966 -47.39674377 129.34190369 C-47.43658708 135.42054827 -47.43810271 141.49912728 -47.43579102 147.57788086 C-47.43970458 165.8355246 -48.25645324 183.23133627 -51.52731323 201.25900269 C-52.21844101 205.26668706 -52.70779289 209.28754866 -53.16015625 213.328125 C-53.23862289 214.00556259 -53.31708954 214.68300018 -53.39793396 215.38096619 C-53.70233027 218.02091309 -53.99892322 220.6616525 -54.28442383 223.30371094 C-54.50384427 225.3129651 -54.73804759 227.3205876 -54.97265625 229.328125 C-55.09906494 230.4718457 -55.22547363 231.61556641 -55.35571289 232.79394531 C-56.36662283 237.82436188 -57.68427945 241.12285297 -62 244 C-64.53268791 244.52486625 -67.06384157 244.88393022 -69.625 245.2421875 C-72.56201895 246.17932842 -73.41219582 247.4198182 -75 250 C-79.23345479 248.48805186 -80.85664857 245.84325085 -83 242 C-83.144375 240.9275 -83.28875 239.855 -83.4375 238.75 C-83.623125 237.8425 -83.80875 236.935 -84 236 C-86.40952023 234.75285597 -86.40952023 234.75285597 -89 234 C-91.45618439 230.31572341 -91.69019715 227.27922232 -91 223 C-88.83666939 219.75500409 -87.55587463 219.12827876 -83.75 218.25 C-82.8425 218.1675 -81.935 218.085 -81 218 C-80.93941406 217.18015625 -80.87882812 216.3603125 -80.81640625 215.515625 C-80.73261719 214.43796875 -80.64882812 213.3603125 -80.5625 212.25 C-80.48128906 211.18265625 -80.40007812 210.1153125 -80.31640625 209.015625 C-79.77454901 203.85125726 -79.77454901 203.85125726 -79 202 C-77.22265625 201.12890625 -77.22265625 201.12890625 -75.0625 200.5625 C-71.70130833 199.50334823 -71.70130833 199.50334823 -69.5625 196.75 C-66.07419824 179.69608028 -68.4548625 161.9432659 -69.71008301 144.75253296 C-71.47551012 120.48357747 -72.6362355 96.34090182 -72 72 C-71.39639648 71.99589111 -70.79279297 71.99178223 -70.17089844 71.98754883 C-53.37629959 71.78746068 -41.42516354 69.74479235 -28 59 C-27.34 58.47792969 -26.68 57.95585937 -26 57.41796875 C-22.52472796 54.33965666 -20.51628613 51.32451228 -18.78515625 47.0234375 C-18.14284058 45.4302771 -18.14284058 45.4302771 -17.48754883 43.80493164 C-13.9979319 34.92084461 -10.6049067 25.99924104 -7.20947266 17.07885742 C-6.20961264 14.45404777 -5.20654749 11.83048066 -4.203125 9.20703125 C-3.89586487 8.3967598 -3.58860474 7.58648834 -3.27203369 6.75166321 C-1.11316879 1.11316879 -1.11316879 1.11316879 0 0 Z " fill="#92ACF6" transform="translate(141,201)"/>
<path d="M0 0 C0.88973511 -0.0065712 1.77947021 -0.0131424 2.69616699 -0.01991272 C5.64266035 -0.0396357 8.58910281 -0.05130484 11.53564453 -0.0612793 C13.04465017 -0.06739259 13.04465017 -0.06739259 14.58414078 -0.07362938 C19.9066777 -0.09448379 25.22918887 -0.10878941 30.55175781 -0.11816406 C36.05212231 -0.12923958 41.55208349 -0.16365455 47.05230522 -0.20333576 C51.27992513 -0.22946044 55.50744822 -0.23785211 59.73514175 -0.24144554 C61.76294815 -0.24632062 63.79074997 -0.25796071 65.81847763 -0.27648354 C68.65535393 -0.30079119 71.49117678 -0.2999255 74.328125 -0.29296875 C75.58449265 -0.31218384 75.58449265 -0.31218384 76.86624146 -0.33178711 C80.87677183 -0.29592958 82.82246497 -0.12219569 86.29129028 2.08137512 C90.00085134 5.96409652 89.46052501 9.64403531 89.48632812 14.75415039 C89.49859436 16.08612457 89.49859436 16.08612457 89.5111084 17.44500732 C89.53597898 20.39212363 89.55248329 23.33919169 89.56689453 26.28637695 C89.57221821 27.29204964 89.57754189 28.29772232 89.58302689 29.33386993 C89.60976659 34.65754942 89.62913827 39.9812054 89.64355469 45.30493164 C89.66019822 50.80419879 89.70497142 56.30286615 89.75592613 61.80190659 C89.78958298 66.02956836 89.80113047 70.25708757 89.80678177 74.48487091 C89.81349929 76.51186961 89.82873431 78.53885876 89.85267258 80.56572723 C89.88429122 83.4050734 89.88436573 86.2427994 89.87695312 89.08227539 C89.89335846 89.91782959 89.90976379 90.75338379 89.92666626 91.61425781 C89.88355138 95.65421571 89.54923608 98.41573305 87.08506775 101.70285034 C84.03613158 104.40506462 83.02623171 104.91744029 79.04418945 104.8581543 C77.51316841 104.85747452 77.51316841 104.85747452 75.95121765 104.85678101 C74.86146133 104.82581329 73.77170502 104.79484558 72.64892578 104.76293945 C71.52400223 104.75444977 70.39907867 104.74596008 69.24006653 104.73721313 C65.65271602 104.70366888 62.06762629 104.6283805 58.48095703 104.55200195 C56.04674474 104.521904 53.61249715 104.49452791 51.17822266 104.4699707 C45.21586483 104.40387406 39.25482244 104.30351297 33.29345703 104.17700195 C34.72764997 100.48517827 36.35784569 97.23940007 38.44580078 93.8684082 C39.05746094 92.87389648 39.66912109 91.87938477 40.29931641 90.85473633 C40.93675781 89.82670898 41.57419922 88.79868164 42.23095703 87.73950195 C43.49232321 85.70052855 44.75150672 83.66020297 46.00830078 81.6184082 C46.84542603 80.26791382 46.84542603 80.26791382 47.69946289 78.89013672 C52.44688525 70.80955705 53.7367872 64.08037181 51.78955078 54.7668457 C49.5131728 48.015759 45.81962668 43.78878082 39.79345703 40.30200195 C33.15519991 37.2404774 25.870082 36.72749211 18.86376953 38.9465332 C16.84880744 39.90078884 15.11044712 40.88598268 13.29345703 42.17700195 C12.51357422 42.72098633 11.73369141 43.2649707 10.93017578 43.82543945 C7.5208579 46.86604592 5.16465219 50.2897584 2.60595703 54.05200195 C1.55418655 55.56914597 0.5020977 57.08606932 -0.55029297 58.6027832 C-1.07494141 59.36413574 -1.59958984 60.12548828 -2.14013672 60.90991211 C-4.53201952 64.37173002 -6.95790668 67.80874075 -9.39404297 71.23950195 C-9.81580811 71.84068848 -10.23757324 72.441875 -10.67211914 73.0612793 C-11.65832348 74.45146353 -12.67869797 75.81731601 -13.70654297 77.17700195 C-14.03654297 77.17700195 -14.36654297 77.17700195 -14.70654297 77.17700195 C-14.77604883 67.85848838 -14.82935712 58.54006403 -14.86197948 49.22134781 C-14.87763648 44.89429825 -14.89887526 40.56742602 -14.93286133 36.24047852 C-14.96545375 32.06483975 -14.98339573 27.88937157 -14.9911747 23.71361542 C-14.99671844 22.1203925 -15.00754402 20.52717893 -15.02373314 18.93402863 C-15.04550636 16.7026399 -15.04851002 14.47195635 -15.04711914 12.24047852 C-15.05378098 10.9702887 -15.06044281 9.70009888 -15.06730652 8.39141846 C-14.68084492 4.94803143 -14.16687807 3.57062229 -11.70654297 1.17700195 C-7.79886385 -0.12555775 -4.07413589 0.01301641 0 0 Z " fill="#FAAE22" transform="translate(192.70654296875,48.822998046875)"/>
<path d="M0 0 C7.48980017 5.37627631 11.61437618 12.56507824 14.25 21.3125 C14.37375 22.611875 14.4975 23.91125 14.625 25.25 C14.934375 26.7659375 14.934375 26.7659375 15.25 28.3125 C18.13349928 30.12930116 18.13349928 30.12930116 21.25 31.3125 C23.75031654 35.06297482 23.78603554 36.87106266 23.25 41.3125 C20.70862841 44.47204305 19.10377341 46.02790886 15.25 47.3125 C12.91700175 47.35204234 10.58291811 47.35651732 8.25 47.3125 C8.30220703 48.32957031 8.30220703 48.32957031 8.35546875 49.3671875 C8.64343001 59.26756987 6.51799165 66.95637531 1.25 75.3125 C0.59 75.3125 -0.07 75.3125 -0.75 75.3125 C-0.99621094 75.89902344 -1.24242187 76.48554688 -1.49609375 77.08984375 C-4.87575955 83.08059091 -11.88411539 87.06048359 -18.3671875 88.87890625 C-27.68424633 90.57430548 -35.66758982 89.1586497 -43.875 84.5625 C-54.02212348 76.62127293 -59.74317101 68.19504741 -61.75 55.3125 C-61.85311946 52.38096104 -61.8278282 49.51765394 -61.66015625 46.58984375 C-61.56298446 44.0280983 -61.56298446 44.0280983 -63.75 41.3125 C-63.9747319 38.41433406 -64.08308115 35.64723811 -64.0625 32.75 C-64.05686035 31.93805176 -64.0512207 31.12610352 -64.04541016 30.28955078 C-63.82056064 19.1561604 -60.87665681 11.65954014 -53.12109375 3.625 C-39.40898182 -9.10085794 -15.51045965 -9.37782321 0 0 Z " fill="#FA801C" transform="translate(135.75,54.6875)"/>
<path d="M0 0 C6.2808403 3.62983628 10.86870726 8.59784492 13.078125 15.58984375 C15.42103077 26.94537895 12.66462554 34.42678414 6.5625 43.9375 C5.57505629 45.50100879 4.58810882 47.06483106 3.6015625 48.62890625 C2.05251782 51.0827578 0.49837841 53.5314956 -1.08496094 55.96337891 C-4.12922966 60.67388938 -6.73070244 65.4442361 -9.18652344 70.48413086 C-11.20528691 74.4432554 -13.58849839 78.14630851 -16 81.875 C-17.06055612 83.5256176 -18.12043156 85.17667273 -19.1796875 86.828125 C-19.71819336 87.66666016 -20.25669922 88.50519531 -20.81152344 89.36914062 C-22.43248773 91.92958272 -24.00701941 94.51338484 -25.5703125 97.109375 C-32.75319723 108.96930106 -39.27078029 119.22059453 -53.4375 122.9375 C-65.23450649 125.19011086 -73.55532265 122.31847994 -83.75 116.4375 C-92.0604323 111.75038214 -100.43782544 107.34797071 -109.09106445 103.32421875 C-113.59913358 101.15503481 -116.72911923 99.33236589 -119.4375 94.9375 C-120 91.9375 -120 91.9375 -119.4375 88.9375 C-117.4375 86.0625 -117.4375 86.0625 -114.4375 83.9375 C-108.44008414 83.39056955 -104.48511156 84.35378788 -99.19140625 87.26171875 C-98.20828712 87.77663628 -98.20828712 87.77663628 -97.20530701 88.30195618 C-95.1284171 89.39447304 -93.06445723 90.50920138 -91 91.625 C-89.61992423 92.35499897 -88.23906951 93.08352732 -86.85742188 93.81054688 C-80.59150107 97.12017965 -74.35884665 100.47695225 -68.25585938 104.08105469 C-64.29606596 105.94611313 -60.63170169 105.69293034 -56.4831543 104.26464844 C-50.95492044 101.72611083 -48.35290333 98.81249854 -45.3125 93.625 C-44.85858887 92.88862305 -44.40467773 92.15224609 -43.93701172 91.39355469 C-42.41806668 88.91933362 -40.92839141 86.42871033 -39.4375 83.9375 C-38.31964609 82.10428574 -37.19979318 80.2722892 -36.078125 78.44140625 C-33.708906 74.56838947 -31.35051429 70.68908282 -29 66.8046875 C-25.55514499 61.11916914 -22.06518396 55.4625194 -18.5625 49.8125 C-18.02681396 48.94383301 -17.49112793 48.07516602 -16.93920898 47.18017578 C-14.61694392 43.41928505 -12.28090036 39.67462104 -9.84765625 35.984375 C-9.46657715 35.39672363 -9.08549805 34.80907227 -8.69287109 34.20361328 C-7.71689392 32.70372335 -6.72450634 31.21454454 -5.73046875 29.7265625 C-4.12389252 26.2610174 -4.10760175 23.71551288 -4.4375 19.9375 C-6.55013968 17.05662771 -8.64678257 16.102999 -12.125 15.375 C-19.26287273 16.5870916 -23.03241014 24.68694774 -27 30.25 C-27.85986274 31.46970838 -28.7192155 32.68977641 -29.578125 33.91015625 C-32.73686686 38.38429801 -35.99154918 42.78570166 -39.25 47.1875 C-42.86610117 52.0734149 -46.46948516 56.96640706 -50.01171875 61.90625 C-50.87543091 63.11039551 -50.87543091 63.11039551 -51.7565918 64.33886719 C-52.84033011 65.85311012 -53.92142673 67.3692489 -54.99926758 68.88769531 C-63.8495906 81.25251948 -63.8495906 81.25251948 -68.625 83.3125 C-80.52001009 82.14249901 -93.61215448 68.52019629 -102.4375 60.9375 C-102.994375 60.195 -103.55125 59.4525 -104.125 58.6875 C-108.00373455 55.75224142 -112.69629771 56.10098973 -117.4375 55.9375 C-114.94128608 54.27335739 -112.93016241 53.28072907 -110.1875 52.1875 C-105.19785562 50.01879836 -99.94675005 46.9560001 -97.4375 41.9375 C-93.44364207 42.46538383 -91.33853064 43.47731293 -88.375 46.1875 C-87.6840625 46.81914062 -86.993125 47.45078125 -86.28125 48.1015625 C-84.4375 49.9375 -84.4375 49.9375 -82.375 52.5625 C-79.8498431 55.65785362 -76.89426332 57.93666409 -73.4375 59.9375 C-72.7775 59.9375 -72.1175 59.9375 -71.4375 59.9375 C-69.9720719 58.29340243 -69.9720719 58.29340243 -68.50390625 56.140625 C-67.93736328 55.3465625 -67.37082031 54.5525 -66.78710938 53.734375 C-65.90249023 52.47367188 -65.90249023 52.47367188 -65 51.1875 C-63.83481123 49.54675013 -62.66945227 47.90612111 -61.50390625 46.265625 C-60.98771729 45.5324707 -60.47152832 44.79931641 -59.93969727 44.04394531 C-59.44397217 43.34881836 -58.94824707 42.65369141 -58.4375 41.9375 C-57.92050537 41.18823242 -57.40351074 40.43896484 -56.87084961 39.66699219 C-56.39784424 39.09625977 -55.92483887 38.52552734 -55.4375 37.9375 C-54.7775 37.9375 -54.1175 37.9375 -53.4375 37.9375 C-53.07978516 37.14279297 -53.07978516 37.14279297 -52.71484375 36.33203125 C-51.06564422 33.24041256 -49.05326919 30.45512833 -47 27.625 C-46.34173218 26.71717773 -46.34173218 26.71717773 -45.67016602 25.79101562 C-44.73673569 24.50398071 -43.80271956 23.21737047 -42.86816406 21.93115234 C-41.43610795 19.93556016 -40.03963928 17.91876406 -38.6484375 15.89453125 C-29.36694142 2.55391014 -17.20721248 -7.97598755 0 0 Z " fill="#0BB5FC" transform="translate(232.4375,88.0625)"/>
<path d="M0 0 C22.77 0 45.54 0 69 0 C69 22.77 69 45.54 69 69 C46.23 69 23.46 69 0 69 C0 46.23 0 23.46 0 0 Z " fill="#FBD39C" transform="translate(316,325)"/>
<path d="M0 0 C22.44 0 44.88 0 68 0 C68 22.44 68 44.88 68 68 C45.56 68 23.12 68 0 68 C0 45.56 0 23.12 0 0 Z " fill="#FBD49E" transform="translate(230,325)"/>
<path d="M0 0 C22.44 0 44.88 0 68 0 C68 22.44 68 44.88 68 68 C45.56 68 23.12 68 0 68 C0 45.56 0 23.12 0 0 Z " fill="#FFFFFF" transform="translate(316,239)"/>
<path d="M0 0 C22.44 0 44.88 0 68 0 C68 22.44 68 44.88 68 68 C45.56 68 23.12 68 0 68 C0 45.56 0 23.12 0 0 Z " fill="#FFFFFF" transform="translate(230,239)"/>
<path d="M0 0 C22.44 0 44.88 0 68 0 C68 22.44 68 44.88 68 68 C45.56 68 23.12 68 0 68 C0 45.56 0 23.12 0 0 Z " fill="#FBD49E" transform="translate(316,153)"/>
<path d="M0 0 C17.16 0 34.32 0 52 0 C52 22.44 52 44.88 52 68 C34.84 68 17.68 68 0 68 C0 45.56 0 23.12 0 0 Z " fill="#FAD49D" transform="translate(402,325)"/>
<path d="M0 0 C17.16 0 34.32 0 52 0 C52 22.44 52 44.88 52 68 C34.84 68 17.68 68 0 68 C0 45.56 0 23.12 0 0 Z " fill="#FFFFFF" transform="translate(402,239)"/>
<path d="M0 0 C22.44 0 44.88 0 68 0 C68 14.19 68 28.38 68 43 C45.56 43 23.12 43 0 43 C0 28.81 0 14.62 0 0 Z " fill="#FFFFFF" transform="translate(316,411)"/>
<path d="M0 0 C22.44 0 44.88 0 68 0 C68 14.19 68 28.38 68 43 C45.56 43 23.12 43 0 43 C0 28.81 0 14.62 0 0 Z " fill="#FFFFFF" transform="translate(230,411)"/>
<path d="M0 0 C22.77 0 45.54 0 69 0 C69 22.77 69 45.54 69 69 C59.76 69 50.52 69 41 69 C47 58 47 58 48.875 55.125 C51.18141528 48.7182909 50.99035893 41.02140734 48.8125 34.5625 C45.34564402 27.7483348 41.81302716 24.11414238 34.8828125 20.91796875 C28.20657906 18.79206786 20.89785952 18.7200703 14.5 21.75 C13.31158635 22.46504134 12.14170536 23.21252303 11 24 C9.6696875 24.8971875 9.6696875 24.8971875 8.3125 25.8125 C5.36481528 28.60085041 3.30860426 31.6653494 1 35 C0.67 35 0.34 35 0 35 C0 23.45 0 11.9 0 0 Z " fill="#F9D39D" transform="translate(195,67)"/>
<path d="M0 0 C0.99 0.33 1.98 0.66 3 1 C5.13091056 1.11762201 7.26520525 1.1768694 9.39916992 1.20532227 C10.36543053 1.22017166 10.36543053 1.22017166 11.35121155 1.23532104 C13.4775934 1.26687467 15.60399758 1.29166905 17.73046875 1.31640625 C19.20592322 1.33698109 20.68137186 1.3579777 22.15681458 1.37937927 C26.03819051 1.43454526 29.91961915 1.48397862 33.80108643 1.53222656 C37.76262091 1.58248158 41.72407894 1.63814676 45.68554688 1.69335938 C53.45696649 1.80087399 61.22844972 1.90233377 69 2 C69.03404978 3.88919556 69.05812987 5.77857217 69.078125 7.66796875 C69.09262695 8.72008545 69.10712891 9.77220215 69.12207031 10.85620117 C68.82926403 18.39713423 65.96781727 24.70622087 62 31 C61.34 31 60.68 31 60 31 C59.75378906 31.58652344 59.50757813 32.17304688 59.25390625 32.77734375 C55.87424045 38.76809091 48.86588461 42.74798359 42.3828125 44.56640625 C33.06575367 46.26180548 25.08241018 44.8461497 16.875 40.25 C6.66142447 32.25676698 1.148588 23.90844604 -1 11 C-1.61797753 3.23595506 -1.61797753 3.23595506 0 0 Z " fill="#FCB023" transform="translate(75,99)"/>
<path d="M0 0 C1.640625 1.671875 1.640625 1.671875 3.25 3.75 C7.8407289 9.24705306 13.22414472 12.67079975 20 15 C20 15.33 20 15.66 20 16 C19.43603516 16.00410889 18.87207031 16.00821777 18.29101562 16.01245117 C15.69300297 16.04569765 13.09724077 16.1163677 10.5 16.1875 C9.613125 16.19330078 8.72625 16.19910156 7.8125 16.20507812 C1.65236099 16.40890625 -3.59467977 17.4082915 -8 22 C-11.82754361 27.88607858 -12.58507516 32.99154604 -12.54589844 39.90429688 C-12.55623611 40.861315 -12.56657379 41.81833313 -12.57722473 42.80435181 C-12.60653573 45.94265867 -12.60814945 49.08031731 -12.609375 52.21875 C-12.62436451 54.40451275 -12.64109327 56.5902642 -12.65948486 58.77600098 C-12.7030837 64.51013728 -12.72314106 70.24412079 -12.73822021 75.97839355 C-12.75781811 81.83724981 -12.79978517 87.69594173 -12.83984375 93.5546875 C-12.91506511 105.03640755 -12.96540557 116.51809067 -13 128 C-14.21236328 128.03867187 -14.21236328 128.03867187 -15.44921875 128.078125 C-16.51785156 128.13484375 -17.58648437 128.1915625 -18.6875 128.25 C-19.74324219 128.29640625 -20.79898438 128.3428125 -21.88671875 128.390625 C-25.54802865 129.10726784 -27.295267 130.49097124 -30 133 C-30.09368848 119.09132318 -30.16383226 105.18269572 -30.20724869 91.27376747 C-30.2280903 84.81472425 -30.25634592 78.35589357 -30.30175781 71.89697266 C-30.34533688 65.65943701 -30.36916286 59.42210535 -30.37950897 53.18442917 C-30.38687863 50.80907355 -30.40126976 48.43372862 -30.42292023 46.05846024 C-30.45211368 42.72183681 -30.45594923 39.38604776 -30.45410156 36.04931641 C-30.46848267 35.0753894 -30.48286377 34.1014624 -30.49768066 33.09802246 C-30.43423021 22.45333645 -26.72761484 14.84593736 -19.4453125 7.203125 C-14.47501435 2.7250928 -6.93323909 -2.82876155 0 0 Z " fill="#0AB5FC" transform="translate(82,128)"/>
<path d="M0 0 C13.86 0 27.72 0 42 0 C36.37414966 5.62585034 36.37414966 5.62585034 33.72265625 7.91015625 C33.13363525 8.41925537 32.54461426 8.92835449 31.93774414 9.45288086 C31.31891357 9.98405518 30.70008301 10.51522949 30.0625 11.0625 C29.41079834 11.62396729 28.75909668 12.18543457 28.08764648 12.76391602 C26.73232657 13.93101067 25.37628213 15.09726446 24.01953125 16.26269531 C22.0713579 17.93861426 20.12873309 19.62073842 18.1875 21.3046875 C16.97929994 22.34911252 15.77097193 23.39338955 14.5625 24.4375 C14.02052979 24.90873291 13.47855957 25.37996582 12.92016602 25.86547852 C8.7341081 29.46909513 4.4484682 32.66364885 0 36 C0 24.12 0 12.24 0 0 Z " fill="#FFFFFF" transform="translate(402,411)"/>
<path d="M0 0 C11.22 0 22.44 0 34 0 C34 15.24840764 34 15.24840764 28 22 C24.3083197 24.87876484 20.98220238 25.86452381 16.375 26.5 C11.24380519 25.73982299 8.36883115 23.40794061 4.8125 19.75 C0.42350588 13.09083651 0 8.31337015 0 0 Z " fill="#FEFDFB" transform="translate(92,101)"/>
<path d="M0 0 C1.2365332 -0.00386719 1.2365332 -0.00386719 2.49804688 -0.0078125 C8.40904463 0.08668786 12.67127549 1.15711803 17.30078125 5.078125 C17.77902344 5.62984375 18.25726563 6.1815625 18.75 6.75 C19.48669922 7.56210938 19.48669922 7.56210938 20.23828125 8.390625 C21.4375 10.5 21.4375 10.5 22.4375 17.5 C8.2475 17.5 -5.9425 17.5 -20.5625 17.5 C-20.5625 11.21559241 -20.37242856 10.09145237 -16.5625 5.5 C-11.38182596 0.57262297 -6.99782058 -0.24187282 0 0 Z " fill="#FABD86" transform="translate(110.5625,66.5)"/>
<path d="M0 0 C2.4375 1.625 2.4375 1.625 4 4 C4.61984499 8.26143432 4.49311964 10.24388322 2.125 13.875 C-0.37454287 16.37454287 -1.32175958 16.90956794 -4.8125 17.375 C-8 17 -8 17 -10.875 15 C-13.81148802 10.85436985 -13.7152453 9.00671711 -13 4 C-9.06026357 -1.12165737 -6.18034334 -1.38524937 0 0 Z " fill="#0257D1" transform="translate(63,420)"/>
</svg>
