<svg xmlns="http://www.w3.org/2000/svg" width="26" height="26" viewBox="0 0 26 26" fill="none">
  <path d="M11.5709 6.68129C11.3877 6.86457 11.2848 7.11311 11.2848 7.37227C11.2848 7.63142 11.3877 7.87996 11.5709 8.06324L16.4087 12.901L11.5709 17.7388C11.3929 17.9232 11.2944 18.17 11.2966 18.4263C11.2989 18.6826 11.4016 18.9277 11.5829 19.1089C11.7641 19.2901 12.0092 19.3929 12.2654 19.3951C12.5217 19.3973 12.7686 19.2988 12.9529 19.1208L18.4817 13.592C18.6649 13.4087 18.7678 13.1602 18.7678 12.901C18.7678 12.6419 18.6649 12.3933 18.4817 12.2101L12.9529 6.68129C12.7696 6.49807 12.5211 6.39514 12.2619 6.39514C12.0028 6.39514 11.7542 6.49807 11.5709 6.68129Z" fill="#25282B"/>
  <circle cx="12.5" cy="12.5" r="12" transform="matrix(-1 0 0 1 25.887 0.395142)" stroke="#25282B"/>
</svg>