<?xml version="1.0" encoding="UTF-8"?>
<svg version="1.1" xmlns="http://www.w3.org/2000/svg" width="512" height="512">
<path d="M0 0 C0.97582031 -0.04253906 1.95164062 -0.08507812 2.95703125 -0.12890625 C11.37293193 1.67232038 17.89031358 9.98506805 23.72937012 15.86386108 C24.65908835 16.79187047 25.58880658 17.71987985 26.54669809 18.67601073 C29.10987701 21.234744 31.66682219 23.79962644 34.22274065 26.36560941 C36.98654162 29.13808295 39.75615713 31.90473754 42.52505493 34.67211914 C47.31585117 39.46186893 52.10298477 44.25525401 56.88761902 49.05115891 C63.8053198 55.98514432 70.72856562 62.91357154 77.65315801 69.84067388 C88.88890133 81.08078965 100.12017515 92.32536038 111.34863281 103.57275391 C122.25318421 114.49567573 133.15984343 125.41648577 144.06933594 136.33447266 C144.74229515 137.00795732 145.41525436 137.68144198 146.10860628 138.37533526 C149.48480685 141.75414599 152.86104882 145.13291535 156.23731136 148.51166415 C184.22712795 176.52219925 212.20968903 204.53997361 240.1875 232.5625 C243.49377956 231.11867774 245.67039136 229.32695161 248.21086788 226.77964115 C249.40428512 225.59034696 249.40428512 225.59034696 250.62181181 224.37702662 C251.48999511 223.5016534 252.3581784 222.62628018 253.25267029 221.72438049 C254.17952654 220.79782196 255.1063828 219.87126342 256.06132561 218.91662735 C258.63529708 216.34324752 261.20298758 213.76367881 263.76972592 211.18308723 C266.53845543 208.40162035 269.31298129 205.62594641 272.08685303 202.84960938 C276.89339958 198.03728638 281.69637716 193.22142504 286.49706841 188.40326118 C293.44252245 181.43271457 300.39443438 174.46863723 307.34813977 167.50632309 C318.63542359 156.20490007 329.91896618 144.89975013 341.19946289 133.59155273 C341.87475889 132.91460112 342.55005488 132.2376495 343.24581439 131.54018419 C348.72470747 126.04780255 354.20342 120.55524082 359.68212318 115.06266975 C364.46972015 110.26296885 369.25738859 105.46333926 374.04516602 100.66381836 C374.7193361 99.98799202 375.39350619 99.31216568 376.08810567 98.61585975 C387.32494033 87.35166308 398.56569428 76.09138545 409.80925804 64.83390564 C416.74607909 57.8881169 423.67931715 50.93878772 430.60799671 43.98487734 C435.35491545 39.22111945 440.10535337 34.46089055 444.85858851 29.70343513 C447.60200695 26.95732408 450.34372742 24.20957009 453.08108711 21.45741844 C456.04712882 18.47540966 459.02083326 15.50116212 461.99534607 12.52760315 C462.86129865 11.65446065 463.72725122 10.78131815 464.61944479 9.88171679 C465.41766403 9.08624624 466.21588327 8.2907757 467.03829098 7.47119999 C467.7237962 6.78385118 468.40930143 6.09650236 469.11557955 5.3883248 C474.41600397 0.71746674 478.39317143 0.02413977 485.3046875 0.2109375 C489.2085649 0.68702011 491.34480391 1.8655832 494.1875 4.5625 C496.7865635 8.22881179 497.66178036 10.88756095 497.75 15.375 C497.79253906 16.35082031 497.83507812 17.32664063 497.87890625 18.33203125 C496.03687413 26.93858812 487.41077475 33.6203502 481.41279602 39.58444214 C480.42350403 40.5753249 479.43465005 41.56664512 478.4461934 42.55836117 C475.74503532 45.2658982 473.03772221 47.96720467 470.32930887 50.66748142 C467.40342248 53.586764 464.48333253 56.51183496 461.5625 59.43617249 C455.84738321 65.15632015 450.12695755 70.87112993 444.40469448 76.58412771 C437.74167249 83.23674952 431.08389708 89.8946117 424.42631652 96.55267824 C412.550936 108.42855891 400.67073724 120.29960786 388.7878418 132.16796875 C377.25360916 143.68810059 365.72289819 155.21174223 354.19604492 166.73925781 C353.48542553 167.44991716 352.77480614 168.16057651 352.04265282 168.89277099 C351.33326737 169.60219679 350.62388192 170.3116226 349.89299995 171.04254615 C336.76962137 184.16661408 323.6429582 197.28739237 310.51475692 210.40663596 C305.87012537 215.04824898 301.22647291 219.69084017 296.58312416 224.33373642 C290.9295772 229.9866021 285.27414861 235.63757765 279.61634485 241.28618293 C276.72868075 244.16922285 273.84181568 247.0530509 270.95709038 249.9390316 C268.31876881 252.57844569 265.67816284 255.21555124 263.03567722 257.85079624 C261.62283779 259.26095391 260.21245376 260.67357033 258.80214578 262.08625972 C257.96734128 262.91783977 257.13253679 263.74941982 256.27243519 264.60619926 C255.55080151 265.32712851 254.82916784 266.04805776 254.08566648 266.79083335 C252.1875 268.5625 252.1875 268.5625 249.1875 270.5625 C251.02681689 270.56469984 251.02681689 270.56469984 252.9032917 270.56694412 C282.00981557 270.60264463 311.11624164 270.65888362 340.22267062 270.74042095 C343.80502219 270.75043843 347.38737422 270.76028256 350.96972656 270.77001953 C352.03950116 270.77293159 352.03950116 270.77293159 353.13088737 270.77590248 C364.67927885 270.80692521 376.22765045 270.82390389 387.77607574 270.83569422 C399.62547146 270.84810438 411.47476287 270.87560268 423.32409275 270.91711307 C429.97984967 270.93999638 436.6354915 270.95540789 443.2912941 270.95438385 C449.55397077 270.95363999 455.81631756 270.9714808 462.07890892 271.00366783 C464.37910521 271.01219714 466.67933838 271.01389632 468.97954369 271.00830269 C472.11761985 271.00168713 475.25463894 271.01952581 478.39260864 271.04351807 C479.76129803 271.03187744 479.76129803 271.03187744 481.15763772 271.02000165 C486.65734483 271.09455469 489.82923248 271.88606894 494.1875 275.5625 C497.35377315 279.51213355 497.56999303 282.65688253 497.59155273 287.64428711 C497.60184761 288.68431129 497.60184761 288.68431129 497.61235046 289.74534607 C497.63058446 292.02705628 497.62678604 294.30807663 497.62109375 296.58984375 C497.62565731 298.18258385 497.63096341 299.77532197 497.63697815 301.36805725 C497.64590262 304.70272837 497.64349393 308.03715992 497.63354492 311.37182617 C497.62205775 315.6368197 497.64226552 319.90098497 497.67146206 324.16586971 C497.68984382 327.45424111 497.68952769 330.74241476 497.68382454 334.03082466 C497.68367156 335.60284143 497.68969697 337.1748718 497.70211601 338.74683952 C497.71706205 340.94885476 497.70632476 343.14934939 497.68920898 345.35131836 C497.68895973 347.22731972 497.68895973 347.22731972 497.68870544 349.14122009 C496.964552 354.08436598 495.00626188 357.15127129 491.06451982 360.20978028 C487.31153315 361.97436287 483.93596944 361.97800767 479.87403965 361.94281673 C479.03601141 361.94747665 478.19798316 361.95213657 477.33456013 361.9569377 C474.51369957 361.96893165 471.69331675 361.95947532 468.87245178 361.95018005 C466.83475829 361.95435104 464.79706712 361.95982726 462.75938028 361.96649987 C457.14983723 361.98100399 451.54044048 361.97669425 445.93088925 361.96933305 C439.88512027 361.96461596 433.83938361 361.97709826 427.79362488 361.98735046 C416.6309428 362.0035763 405.46830625 362.00597784 394.30561861 362.00104547 C383.99335093 361.99649103 373.68110066 361.99708406 363.36883354 362.00288582 C361.98639045 362.00364268 360.60394735 362.00439866 359.22150425 362.00515376 C357.13837306 362.00629894 355.05524188 362.00744881 352.9721107 362.00861301 C333.60104264 362.01932052 314.2299804 362.02404066 294.85891056 362.01614285 C294.12845898 362.01584567 293.3980074 362.0155485 292.64542093 362.01524232 C286.71336445 362.0127933 280.78130805 362.01018176 274.84925165 362.00755819 C251.70782315 361.99745486 228.56646721 362.00581176 205.42504883 362.02905273 C179.43367556 362.0551136 153.44234597 362.06797643 127.45095915 362.06086498 C124.68063351 362.06014891 121.91030787 362.05947452 119.13998222 362.05882454 C118.45784293 362.05865473 117.77570363 362.05848492 117.07289344 362.05830997 C106.76719241 362.05600514 96.46153187 362.06399269 86.15583992 362.07711601 C74.43822342 362.09201055 62.72068567 362.09251752 51.00306541 362.0750451 C45.02161167 362.06650508 39.0403396 362.06445864 33.05889511 362.07969666 C27.58696059 362.09346441 22.11536473 362.08888298 16.64345019 362.06945742 C14.66033072 362.06567269 12.67718463 362.06868987 10.6940887 362.07906907 C8.00458077 362.09214828 5.3162575 362.08073704 2.62680149 362.06307125 C1.85144616 362.07272176 1.07609083 362.08237227 0.27723989 362.09231523 C-4.89610396 362.02223338 -7.82214586 360.82016051 -11.8125 357.5625 C-14.97877315 353.61286645 -15.19499303 350.46811747 -15.21655273 345.48071289 C-15.22684761 344.44068871 -15.22684761 344.44068871 -15.23735046 343.37965393 C-15.25558446 341.09794372 -15.25178604 338.81692337 -15.24609375 336.53515625 C-15.25065731 334.94241615 -15.25596341 333.34967803 -15.26197815 331.75694275 C-15.27090262 328.42227163 -15.26849393 325.08784008 -15.25854492 321.75317383 C-15.24705775 317.4881803 -15.26726552 313.22401503 -15.29646206 308.95913029 C-15.31484382 305.67075889 -15.31452769 302.38258524 -15.30882454 299.09417534 C-15.30867156 297.52215857 -15.31469697 295.9501282 -15.32711601 294.37816048 C-15.34206205 292.17614524 -15.33132476 289.97565061 -15.31420898 287.77368164 C-15.31404282 286.52301407 -15.31387665 285.2723465 -15.31370544 283.98377991 C-14.5930471 279.06449196 -12.63152897 276.03183003 -8.77459335 272.91637039 C-4.54169042 270.98165691 -0.74134547 271.13939373 3.86213684 271.16377258 C4.84237798 271.15712576 5.82261912 271.15047893 6.83256453 271.14363068 C10.12000833 271.12496539 13.4070893 271.1276084 16.69458008 271.13012695 C19.04997269 271.12111197 21.4053606 271.11078541 23.76074219 271.09924316 C30.1590147 271.0716162 36.55719833 271.06238087 42.95552278 271.05638909 C48.96353624 271.04938988 54.97150034 271.02584306 60.97947332 271.00377061 C72.87846931 270.96050211 84.77746007 270.93053573 96.67651367 270.90893555 C108.23448251 270.88792604 119.79240859 270.86065121 131.3503418 270.82495117 C132.06292012 270.82275235 132.77549845 270.82055352 133.50967006 270.81828807 C137.08451024 270.80721842 140.65935002 270.79602561 144.23418963 270.78477156 C173.88525355 270.69158557 203.53634529 270.62020966 233.1875 270.5625 C232.58284564 270.02848186 231.97819128 269.49446373 231.35521406 268.94426322 C225.06775531 263.34497736 219.03082815 257.54996874 213.08363342 251.59234619 C212.10802017 250.61860632 211.1321924 249.64508134 210.15617174 248.67174983 C207.50295692 246.02459317 204.85281243 243.3743821 202.20321834 240.72360206 C199.33460371 237.85478191 196.4631217 234.98883406 193.59204102 232.1224823 C187.98074239 226.51945538 182.37219152 220.91368597 176.76474775 215.30680141 C172.20813389 210.75066391 167.65072874 206.19531942 163.09277153 201.64052582 C150.16044536 188.7169929 137.23020406 175.79137924 124.30264945 162.86307326 C123.60714769 162.16753154 122.91164593 161.47198983 122.19506836 160.75537109 C121.49871583 160.05897769 120.80236331 159.36258428 120.08490919 158.64508805 C108.77846067 147.33823234 97.46702122 136.03638415 86.15333242 124.73677352 C74.52704779 113.12484183 62.90448468 101.50919671 51.2858066 89.88965392 C44.76625636 83.36977158 38.24517192 76.85144088 31.72007942 70.3371048 C26.17057613 64.79669173 20.62452972 59.25284714 15.08297122 53.70448717 C12.25575168 50.87399636 9.42693508 48.04515133 6.59375572 45.22062492 C4.00094153 42.63564858 1.41277825 40.04610894 -1.1717431 37.45284197 C-2.55155282 36.070761 -3.93629231 34.69360714 -5.32119507 33.31662965 C-6.13959918 32.49362674 -6.9580033 31.67062382 -7.80120754 30.82268143 C-8.50852188 30.11558446 -9.21583621 29.4084875 -9.94458431 28.67996335 C-14.63986993 23.35740234 -15.35182111 19.39238105 -15.1640625 12.4453125 C-14.68797989 8.5414351 -13.5094168 6.40519609 -10.8125 3.5625 C-7.14618821 0.9634365 -4.48743905 0.08821964 0 0 Z " fill="#BBE1FF" transform="translate(14.8125,150.4375)"/>
<path d="M0 0 C0.97582031 -0.04253906 1.95164062 -0.08507812 2.95703125 -0.12890625 C11.37293193 1.67232038 17.89031358 9.98506805 23.72937012 15.86386108 C24.65908835 16.79187047 25.58880658 17.71987985 26.54669809 18.67601073 C29.10987701 21.234744 31.66682219 23.79962644 34.22274065 26.36560941 C36.98654162 29.13808295 39.75615713 31.90473754 42.52505493 34.67211914 C47.31585117 39.46186893 52.10298477 44.25525401 56.88761902 49.05115891 C63.8053198 55.98514432 70.72856562 62.91357154 77.65315801 69.84067388 C88.88890133 81.08078965 100.12017515 92.32536038 111.34863281 103.57275391 C122.25318421 114.49567573 133.15984343 125.41648577 144.06933594 136.33447266 C144.74229515 137.00795732 145.41525436 137.68144198 146.10860628 138.37533526 C149.48480685 141.75414599 152.86104882 145.13291535 156.23731136 148.51166415 C184.22712795 176.52219925 212.20968903 204.53997361 240.1875 232.5625 C243.49377956 231.11867774 245.67039136 229.32695161 248.21086788 226.77964115 C249.40428512 225.59034696 249.40428512 225.59034696 250.62181181 224.37702662 C251.48999511 223.5016534 252.3581784 222.62628018 253.25267029 221.72438049 C254.17952654 220.79782196 255.1063828 219.87126342 256.06132561 218.91662735 C258.63529708 216.34324752 261.20298758 213.76367881 263.76972592 211.18308723 C266.53845543 208.40162035 269.31298129 205.62594641 272.08685303 202.84960938 C276.89339958 198.03728638 281.69637716 193.22142504 286.49706841 188.40326118 C293.44252245 181.43271457 300.39443438 174.46863723 307.34813977 167.50632309 C318.63542359 156.20490007 329.91896618 144.89975013 341.19946289 133.59155273 C341.87475889 132.91460112 342.55005488 132.2376495 343.24581439 131.54018419 C348.72470747 126.04780255 354.20342 120.55524082 359.68212318 115.06266975 C364.46972015 110.26296885 369.25738859 105.46333926 374.04516602 100.66381836 C374.7193361 99.98799202 375.39350619 99.31216568 376.08810567 98.61585975 C387.32494033 87.35166308 398.56569428 76.09138545 409.80925804 64.83390564 C416.74607909 57.8881169 423.67931715 50.93878772 430.60799671 43.98487734 C435.35491545 39.22111945 440.10535337 34.46089055 444.85858851 29.70343513 C447.60200695 26.95732408 450.34372742 24.20957009 453.08108711 21.45741844 C456.04712882 18.47540966 459.02083326 15.50116212 461.99534607 12.52760315 C462.86129865 11.65446065 463.72725122 10.78131815 464.61944479 9.88171679 C465.41766403 9.08624624 466.21588327 8.2907757 467.03829098 7.47119999 C467.7237962 6.78385118 468.40930143 6.09650236 469.11557955 5.3883248 C474.41600397 0.71746674 478.39317143 0.02413977 485.3046875 0.2109375 C489.2085649 0.68702011 491.34480391 1.8655832 494.1875 4.5625 C496.7865635 8.22881179 497.66178036 10.88756095 497.75 15.375 C497.79253906 16.35082031 497.83507812 17.32664063 497.87890625 18.33203125 C496.03804393 26.93312243 487.41878953 33.614588 481.42625427 39.57771301 C480.4383898 40.56788551 479.45096114 41.55849297 478.46392781 42.54949397 C475.76663242 45.25509865 473.06318351 47.95447868 470.35862696 50.65282238 C467.43681049 53.57009967 464.52077236 56.49314339 461.60397339 59.41543579 C455.89629439 65.13199379 450.18323902 70.84314909 444.4682179 76.552366 C439.82418556 81.19187731 435.18211418 85.83334223 430.54142952 90.47620201 C429.88037474 91.13756326 429.21931995 91.79892451 428.53823321 92.48032701 C427.1952636 93.82393607 425.85229848 95.16754962 424.50933779 96.51116761 C411.92634885 109.09985512 399.33724469 121.68241283 386.74603123 134.26287343 C375.94154821 145.05841515 365.14232835 155.85919853 354.34692383 166.66381836 C341.80610055 179.21534189 329.26204293 191.76361832 316.71279675 204.30672091 C315.37511188 205.64376869 314.03743119 206.98082064 312.69975471 208.31787682 C311.71253141 209.30463729 311.71253141 209.30463729 310.70536421 210.31133232 C306.06659005 214.94837927 301.43014145 219.58774368 296.79458427 224.22800636 C291.14806338 229.88013308 285.49799975 235.52868928 279.8433476 241.17268155 C276.95821147 244.05255793 274.07470419 246.93401681 271.19550133 249.81982613 C268.56044623 252.46083604 265.92082701 255.09719245 263.27747501 257.72989734 C261.86841905 259.13565737 260.46427638 260.54633688 259.0603084 261.95717841 C258.2215218 262.79074951 257.38273521 263.62432061 256.51853085 264.48315144 C255.79765661 265.20370097 255.07678238 265.92425049 254.33406347 266.66663486 C250.19701939 270.32051128 246.91725946 272.01604339 241.375 272.125 C239.91126953 272.18880859 239.91126953 272.18880859 238.41796875 272.25390625 C229.81687757 270.41304393 223.135412 261.79378953 217.17228699 255.80125427 C216.18211449 254.8133898 215.19150703 253.82596114 214.20050603 252.83892781 C211.49490135 250.14163242 208.79552132 247.43818351 206.09717762 244.73362696 C203.17990033 241.81181049 200.25685661 238.89577236 197.33456421 235.97897339 C191.61800621 230.27129439 185.90685091 224.55823902 180.197634 218.8432179 C175.55812269 214.19918556 170.91665777 209.55711418 166.27379799 204.91642952 C165.61243674 204.25537474 164.95107549 203.59431995 164.26967299 202.91323321 C162.92606393 201.5702636 161.58245038 200.22729848 160.23883239 198.88433779 C147.65014488 186.30134885 135.06758717 173.71224469 122.48712657 161.12103123 C111.69158485 150.31654821 100.89080147 139.51732835 90.08618164 128.72192383 C77.53465811 116.18110055 64.98638168 103.63704293 52.44327909 91.08779675 C51.10623131 89.75011188 49.76917936 88.41243119 48.43212318 87.07475471 C47.77428287 86.41660585 47.11644255 85.75845698 46.43866768 85.08036421 C41.80162073 80.44159005 37.16225632 75.80514145 32.52199364 71.16958427 C26.86986692 65.52306338 21.22131072 59.87299975 15.57731845 54.2183476 C12.69744207 51.33321147 9.81598319 48.44970419 6.93017387 45.57050133 C4.28916396 42.93544623 1.65280755 40.29582701 -0.97989734 37.65247501 C-2.38565737 36.24341905 -3.79633688 34.83927638 -5.20717841 33.4353084 C-6.04074951 32.5965218 -6.87432061 31.75773521 -7.73315144 30.89353085 C-8.45370097 30.17265661 -9.17425049 29.45178238 -9.91663486 28.70906347 C-14.62924752 23.37328195 -15.35243634 19.41514476 -15.1640625 12.4453125 C-14.68797989 8.5414351 -13.5094168 6.40519609 -10.8125 3.5625 C-7.14618821 0.9634365 -4.48743905 0.08821964 0 0 Z " fill="#E6F4FF" transform="translate(14.8125,150.4375)"/>
<path d="M0 0 C1.52560547 -0.04253906 1.52560547 -0.04253906 3.08203125 -0.0859375 C7.17248049 0.52119836 9.04183747 1.67098016 12.1875 4.375 C14.25883426 7.20782642 15.90250449 10.22487931 17.5625 13.3125 C18.06869873 14.22563965 18.57489746 15.1387793 19.09643555 16.07958984 C20.20888016 18.09070801 21.31461107 20.10555053 22.41455078 22.12353516 C24.26144145 25.51060346 26.12670389 28.88702024 27.99609375 32.26171875 C30.69943316 37.14404798 33.39367247 42.0312827 36.08203125 46.921875 C39.45060181 53.04795562 42.84424077 59.15977051 46.24755859 65.26660156 C48.70927317 69.68690657 51.16101176 74.11270165 53.61181641 78.5390625 C54.9852369 81.01096403 56.37110805 83.47525168 57.76171875 85.9375 C67.53186127 103.43397569 70.90794797 121.46608957 66.16015625 141.09765625 C60.90706776 158.79782189 49.61531443 173.88902814 33.40039062 182.79394531 C17.36007268 191.16780479 -1.87052517 193.47912569 -19.5 188.8125 C-30.95553871 184.8315959 -40.31933735 179.00321294 -48.8125 170.375 C-49.45960938 169.72660156 -50.10671875 169.07820312 -50.7734375 168.41015625 C-63.27159264 155.06605611 -68.44404817 137.26914418 -68.1171875 119.328125 C-67.17159019 107.05960603 -62.97630897 96.55315951 -57.13916016 85.81787109 C-55.61962572 83.01984725 -54.1282208 80.20759505 -52.63671875 77.39453125 C-46.51618124 65.89589085 -40.251261 54.48434064 -33.79614258 43.17016602 C-30.75983841 37.84450791 -27.77372252 32.49578674 -24.83984375 27.11328125 C-24.16282865 25.87613881 -23.48566457 24.6390779 -22.80834961 23.40209961 C-21.50450954 21.02082204 -20.21165066 18.63460302 -18.92407227 16.24438477 C-18.33037842 15.16084717 -17.73668457 14.07730957 -17.125 12.9609375 C-16.34576172 11.52306885 -16.34576172 11.52306885 -15.55078125 10.05615234 C-11.55811259 3.8977974 -7.44303211 0.09362305 0 0 Z " fill="#2493FF" transform="translate(275.8125,109.625)"/>
<path d="M0 0 C1.52560547 -0.04253906 1.52560547 -0.04253906 3.08203125 -0.0859375 C7.17248049 0.52119836 9.04183747 1.67098016 12.1875 4.375 C14.25883426 7.20782642 15.90250449 10.22487931 17.5625 13.3125 C18.06869873 14.22563965 18.57489746 15.1387793 19.09643555 16.07958984 C20.20888016 18.09070801 21.31461107 20.10555053 22.41455078 22.12353516 C24.26144145 25.51060346 26.12670389 28.88702024 27.99609375 32.26171875 C30.0124651 35.9024005 32.02613378 39.54447491 34.02807617 43.19311523 C37.43831127 49.40755843 40.87257409 55.60598915 44.3671875 61.7734375 C45.37949132 63.56758439 46.39116986 65.36208247 47.40267944 67.15667725 C48.33819325 68.80995368 49.28280737 70.45807059 50.2277832 72.10595703 C59.76101666 89.03710713 64.31319272 106.32848032 60.1875 125.6875 C55.11488255 142.50096442 44.51118842 155.82984079 29.1875 164.375 C13.47344406 171.63561991 -5.12984715 173.34377965 -21.70703125 167.69921875 C-39.22472854 160.22940821 -49.69680807 148.73351888 -57.55078125 131.6484375 C-60.34521156 124.39849137 -61.17610084 117.95582906 -61.1875 110.25 C-61.21199219 109.40179688 -61.23648438 108.55359375 -61.26171875 107.6796875 C-61.31872655 94.90993968 -56.55318399 83.87501608 -50.375 72.9375 C-49.75737793 71.81770752 -49.13975586 70.69791504 -48.50341797 69.54418945 C-46.62259753 66.14513082 -44.72126876 62.75842953 -42.8125 59.375 C-42.26352051 58.39821289 -41.71454102 57.42142578 -41.14892578 56.41503906 C-39.06412882 52.70859041 -36.97520585 49.0047185 -34.86743164 45.3112793 C-31.72249624 39.79559781 -28.64324659 34.24941493 -25.6171875 28.66796875 C-24.89511242 27.34085115 -24.17294462 26.01378399 -23.45068359 24.68676758 C-22.38970704 22.73697599 -21.33172076 20.78587917 -20.2835083 18.82919312 C-19.31130738 17.01464468 -18.3285161 15.20618964 -17.34375 13.3984375 C-16.50166992 11.83488525 -16.50166992 11.83488525 -15.64257812 10.23974609 C-11.65128124 3.99189688 -7.53300471 0.09475478 0 0 Z " fill="#0FACFF" transform="translate(135.8125,-0.375)"/>
<path d="M0 0 C0.73931155 -0.00256327 1.4786231 -0.00512655 2.24033803 -0.0077675 C4.71254726 -0.01270085 7.184143 0.0037797 9.65629578 0.02018738 C11.4304096 0.02103375 13.20452448 0.02055831 14.9786377 0.01885986 C19.79232975 0.01799888 24.60579769 0.03564144 29.41943765 0.05658174 C34.45094941 0.07533124 39.48246626 0.07709762 44.51400757 0.08065796 C54.04078583 0.08998349 63.56746085 0.11460419 73.09419364 0.14470643 C83.94052157 0.17823459 94.78685442 0.19473247 105.63322127 0.20979273 C127.94394853 0.24115326 150.25458414 0.29392369 172.56523132 0.36076355 C171.71664047 1.34222855 170.86804962 2.32369354 169.9937439 3.3348999 C167.72688157 5.9789185 165.49995408 8.64953352 163.30505371 11.35354614 C152.73709092 24.36845542 141.75404605 36.98423222 130.37773132 49.29826355 C129.92764348 49.78645773 129.47755563 50.27465192 129.01382875 50.77763987 C106.80438948 74.80816574 85.97025995 94.86924251 51.72171021 96.32110596 C45.54470812 96.44334726 39.41617594 96.19463389 33.25273132 95.79826355 C32.24742496 95.73581829 31.24211861 95.67337303 30.20634842 95.60903549 C20.16837965 94.93631293 10.19606063 93.86121582 0.28276062 92.13200378 C-0.41637042 92.01619933 -1.11550146 91.90039488 -1.83581829 91.7810812 C-7.53099479 90.68649718 -11.63548661 88.60520187 -15.28451538 84.05337524 C-16.74003363 80.64617313 -16.82280651 77.98370137 -16.83882141 74.27897644 C-16.84568466 73.58562698 -16.85254791 72.89227753 -16.85961914 72.17791748 C-16.87785314 69.89620727 -16.87405472 67.61518692 -16.86836243 65.3334198 C-16.87292599 63.7406797 -16.87823209 62.14794158 -16.88424683 60.5552063 C-16.8931713 57.22053518 -16.89076261 53.88610363 -16.8808136 50.55143738 C-16.86932643 46.28644385 -16.88953419 42.02227858 -16.91873074 37.75739384 C-16.9371125 34.46902244 -16.93679636 31.18084879 -16.93109322 27.89243889 C-16.93094023 26.32042212 -16.93696564 24.74839175 -16.94938469 23.17642403 C-16.96433072 20.97440879 -16.95359343 18.77391415 -16.93647766 16.57194519 C-16.93631149 15.32127762 -16.93614532 14.07061005 -16.93597412 12.78204346 C-16.20932373 7.82185316 -14.25174643 4.7360766 -10.25687027 1.7122612 C-6.77201506 0.04337244 -3.78005821 -0.04816538 0 0 Z " fill="#BBE1FF" transform="translate(16.434768676757813,421.6392364501953)"/>
<path d="M0 0 C1.14826956 0.05238571 1.14826956 0.05238571 2.31973648 0.10582972 C22.23365201 1.03263368 42.02719394 2.7224751 61.8125 5.1875 C60.94983521 6.168965 60.08717041 7.15042999 59.19836426 8.16163635 C56.39000863 11.43836654 53.81805512 14.83182526 51.28815937 18.32580853 C42.25556807 30.78649731 32.50852089 42.60177823 22.3125 54.125 C21.44973324 55.10108341 20.58696648 56.07716682 19.69805527 57.08282852 C-3.29995005 82.72254532 -25.04509953 98.59633069 -60.20195723 100.56055903 C-73.2834535 101.19100481 -86.29733021 100.9861311 -99.375 100.375 C-100.52326956 100.32261429 -100.52326956 100.32261429 -101.69473648 100.26917028 C-121.60865201 99.34236632 -141.40219394 97.6525249 -161.1875 95.1875 C-160.32483521 94.206035 -159.46217041 93.22457001 -158.57336426 92.21336365 C-155.76500863 88.93663346 -153.19305512 85.54317474 -150.66315937 82.04919147 C-141.63056807 69.58850269 -131.88352089 57.77322177 -121.6875 46.25 C-120.82473324 45.27391659 -119.96196648 44.29783318 -119.07305527 43.29217148 C-84.2478985 4.46675403 -50.97502744 -2.38210819 0 0 Z " fill="#BBE1FF" transform="translate(261.1875,416.8125)"/>
<path d="M0 0 C1.52560547 -0.04253906 1.52560547 -0.04253906 3.08203125 -0.0859375 C7.17248049 0.52119836 9.04183747 1.67098016 12.1875 4.375 C14.25880624 7.2077881 15.90273465 10.22480123 17.5625 13.3125 C18.06217285 14.21476318 18.5618457 15.11702637 19.07666016 16.04663086 C20.18227659 18.04689509 21.28138856 20.05076425 22.375 22.05761719 C24.33528907 25.6454954 26.32167764 29.21808031 28.3125 32.7890625 C29.73040725 35.33785346 31.14682595 37.88746805 32.5625 40.4375 C32.8988446 41.04302704 33.23518921 41.64855408 33.58172607 42.27243042 C51.54716989 74.67209573 51.54716989 74.67209573 47.5 94.79296875 C43.27219508 108.41002377 35.25699208 119.1910714 22.71875 126.12109375 C11.04857172 131.90215429 -3.94073186 132.56800545 -16.4375 128.8125 C-22.17483416 126.51432948 -27.04153237 123.27322965 -31.8125 119.375 C-32.44929688 118.86324219 -33.08609375 118.35148437 -33.7421875 117.82421875 C-42.24430598 110.21009931 -47.48204401 98.67714095 -48.1484375 87.33203125 C-48.17191691 85.950659 -48.18490062 84.56906933 -48.1875 83.1875 C-48.21199219 82.52169922 -48.23648437 81.85589844 -48.26171875 81.16992188 C-48.32862359 69.24970962 -42.83926054 58.80222586 -37 48.75 C-36.0040385 47.00170943 -35.00810407 45.25340284 -34.01367188 43.50424194 C-33.32818627 42.30017423 -32.64100115 41.09707253 -31.95214844 39.89492798 C-29.46927372 35.55795756 -27.05419257 31.18766308 -24.66796875 26.796875 C-23.99404134 25.56193266 -23.31997096 24.32706832 -22.64575195 23.09228516 C-21.36513255 20.74662314 -20.09297955 18.39699274 -18.82495117 16.04443359 C-10.08510944 0.12685672 -10.08510944 0.12685672 0 0 Z " fill="#10ABFF" transform="translate(395.8125,29.625)"/>
<path d="M0 0 C4.45694306 1.52758925 6.89470648 5.02301226 9.43597507 8.83491516 C9.70340061 11.88870239 9.70340061 11.88870239 9.72650242 15.68965149 C9.73321964 16.38270889 9.73993687 17.0757663 9.74685764 17.78982544 C9.76586317 20.08227196 9.76976337 22.37442599 9.77191257 24.66694641 C9.77833981 26.26254395 9.78506811 27.8581403 9.79208469 29.45373535 C9.80406459 32.80030549 9.8077649 36.14677236 9.80658054 39.49336243 C9.80637756 43.77406944 9.83365499 48.05411105 9.86812496 52.33466053 C9.89040635 55.63159197 9.89441768 58.92836376 9.89336109 62.22536278 C9.89571614 63.80297319 9.90453433 65.38058806 9.92002583 66.95812416 C9.93970775 69.16988227 9.93384025 71.38021223 9.92181492 73.59199524 C9.92466496 74.84869522 9.92751499 76.1053952 9.93045139 77.400177 C9.20209676 82.45948392 7.11227253 85.41387504 3.24928379 88.68862915 C-0.73712774 90.31289731 -4.31169878 90.2301095 -8.57696438 90.17549133 C-9.92405231 90.17614845 -9.92405231 90.17614845 -11.29835415 90.17681885 C-14.25822818 90.17473363 -17.21753144 90.151415 -20.17730618 90.12788391 C-22.23281959 90.12228701 -24.28833701 90.11801736 -26.34385586 90.11502075 C-31.74770102 90.10357941 -37.15130337 90.07411816 -42.55505276 90.04090881 C-48.07168194 90.01019273 -53.58835045 89.99651211 -59.10504055 89.98139954 C-69.92480855 89.94924793 -80.74439653 89.89806001 -91.56402493 89.83491516 C-87.05353339 84.4409835 -82.29426067 79.39507536 -77.34307766 74.40522766 C-76.54068661 73.59305283 -75.73829556 72.78087799 -74.91158962 71.9440918 C-72.27676403 69.27954308 -69.63785749 66.61909974 -66.99761868 63.95991516 C-66.09365919 63.04938385 -65.18969971 62.13885254 -64.25834751 61.20072937 C-60.46263638 57.37920281 -56.66576696 53.55884352 -52.86472893 49.74261475 C-47.43125361 44.28715734 -42.00814038 38.82182565 -36.59839004 33.34283829 C-32.32367502 29.01528342 -28.03273245 24.70415047 -23.73588657 20.39857483 C-21.91225559 18.56635819 -20.09378326 16.72899241 -18.28054523 14.88648987 C-15.75265958 12.31997568 -13.20678769 9.77274619 -10.65557766 7.22944641 C-9.53251469 6.07638252 -9.53251469 6.07638252 -8.38676357 4.90002441 C-7.69018642 4.21314041 -6.99360928 3.52625641 -6.27592373 2.81855774 C-5.37642073 1.91270683 -5.37642073 1.91270683 -4.45874596 0.98855591 C-2.56402493 -0.16508484 -2.56402493 -0.16508484 0 0 Z " fill="#4F60FF" transform="translate(502.56402492523193,422.1650848388672)"/>
<path d="M0 0 C0.89805862 -0.00043808 1.79611725 -0.00087616 2.72138977 -0.00132751 C5.6812638 0.0007577 8.64056706 0.02407634 11.6003418 0.04760742 C13.65585521 0.05320432 15.71137263 0.05747398 17.76689148 0.06047058 C23.17073664 0.07191193 28.57433899 0.10137317 33.97808838 0.13458252 C39.49471757 0.1652986 45.01138608 0.17897922 50.52807617 0.1940918 C61.34784417 0.22624341 72.16743215 0.27743133 82.98706055 0.34057617 C78.47656901 5.73450783 73.7172963 10.78041597 68.76611328 15.77026367 C67.5625267 16.98852592 67.5625267 16.98852592 66.33462524 18.23139954 C63.69979965 20.89594825 61.06089311 23.55639159 58.4206543 26.21557617 C57.51669481 27.12610748 56.61273533 28.03663879 55.68138313 28.97476196 C51.885672 32.79628852 48.08880258 36.61664781 44.28776455 40.43287659 C38.85428923 45.88833399 33.431176 51.35366568 28.02142566 56.83265305 C23.74671064 61.16020791 19.45576808 65.47134086 15.1589222 69.7769165 C13.33529122 71.60913314 11.51681888 73.44649892 9.70358086 75.28900146 C7.1756952 77.85551566 4.62982332 80.40274514 2.07861328 82.94604492 C1.32990463 83.71475418 0.58119598 84.48346344 -0.19020081 85.27546692 C-0.88677795 85.96235092 -1.5833551 86.64923492 -2.30104065 87.35693359 C-2.90070931 87.9608342 -3.50037798 88.5647348 -4.11821842 89.18693542 C-6.01293945 90.34057617 -6.01293945 90.34057617 -8.57696438 90.17549133 C-13.03390744 88.64790208 -15.47167085 85.15247907 -18.01293945 81.34057617 C-18.28036499 78.28678894 -18.28036499 78.28678894 -18.3034668 74.48583984 C-18.31018402 73.79278244 -18.31690125 73.09972504 -18.32382202 72.38566589 C-18.34282755 70.09321937 -18.34672774 67.80106534 -18.34887695 65.50854492 C-18.35530419 63.91294739 -18.36203249 62.31735104 -18.36904907 60.72175598 C-18.38102897 57.37518584 -18.38472928 54.02871898 -18.38354492 50.68212891 C-18.38334193 46.40142189 -18.41061936 42.12138028 -18.44508934 37.8408308 C-18.46737072 34.54389936 -18.47138206 31.24712757 -18.47032547 27.95012856 C-18.47268052 26.37251815 -18.48149871 24.79490328 -18.4969902 23.21736717 C-18.51667212 21.00560906 -18.51080462 18.7952791 -18.4987793 16.58349609 C-18.50162933 15.32679611 -18.50447937 14.07009613 -18.50741577 12.77531433 C-17.77906114 7.71600741 -15.68923691 4.76161629 -11.82624817 1.48686218 C-7.83983664 -0.13740598 -4.26526559 -0.05461816 0 0 Z " fill="#4D62FF" transform="translate(18.012939453125,421.659423828125)"/>
<path d="M0 0 C-11.70747834 13.77982926 -24.08706656 26.96913153 -36.57499695 40.04048824 C-41.25201547 44.94196415 -45.87678236 49.87714059 -50.39794922 54.9230957 C-83.31524315 91.52247895 -83.31524315 91.52247895 -105.25465393 92.74346638 C-115.27802864 92.9047664 -125.15653398 91.81995193 -135 90 C-123.29252166 76.22017074 -110.91293344 63.03086847 -98.42500305 49.95951176 C-93.74798453 45.05803585 -89.12321764 40.12285941 -84.60205078 35.0769043 C-58.45759025 6.00795553 -39.79296413 -7.35729484 0 0 Z " fill="#BBE1FF" transform="translate(500,422)"/>
<path d="M0 0 C-11.71195972 13.79051684 -24.1245314 26.96801923 -36.62680912 40.04048824 C-41.31007659 44.94314894 -45.94239059 49.87902802 -50.47338867 54.9230957 C-83.41485434 91.51923226 -83.41485434 91.51923226 -104.96103191 92.74346638 C-114.75184079 92.90446761 -124.39389621 91.82303594 -134 90 C-122.28804028 76.20948316 -109.8754686 63.03198077 -97.37319088 49.95951176 C-92.68992341 45.05685106 -88.05760941 40.12097198 -83.52661133 35.0769043 C-57.76125909 6.45303071 -39.2979798 -7.45792791 0 0 Z " fill="#BCE2FF" transform="translate(323,422)"/>
<path d="M0 0 C-4.44023151 5.23236205 -8.9859873 10.35064352 -13.61791992 15.41381836 C-14.35927185 16.2243869 -15.10062378 17.03495544 -15.86444092 17.87008667 C-22.72961759 25.34607364 -29.7074538 32.71278415 -36.73043346 40.04048824 C-41.42621834 44.94553116 -46.07362327 49.88279218 -50.62426758 54.9230957 C-83.72984189 91.5191782 -83.72984189 91.5191782 -104.37378788 92.74346638 C-113.69992427 92.90383695 -122.86896169 91.82965232 -132 90 C-127.55976849 84.76763795 -123.0140127 79.64935648 -118.38208008 74.58618164 C-117.64072815 73.7756131 -116.89937622 72.96504456 -116.13555908 72.12991333 C-109.27038241 64.65392636 -102.2925462 57.28721585 -95.26956654 49.95951176 C-90.57378166 45.05446884 -85.92637673 40.11720782 -81.37573242 35.0769043 C-56.32740869 7.38759393 -38.32524816 -7.67950771 0 0 Z " fill="#4E62FF" transform="translate(366,422)"/>
<path d="M0 0 C-4.44023151 5.23236205 -8.9859873 10.35064352 -13.61791992 15.41381836 C-14.35927185 16.2243869 -15.10062378 17.03495544 -15.86444092 17.87008667 C-22.72961759 25.34607364 -29.7074538 32.71278415 -36.73043346 40.04048824 C-41.42621834 44.94553116 -46.07362327 49.88279218 -50.62426758 54.9230957 C-83.72984189 91.5191782 -83.72984189 91.5191782 -104.37378788 92.74346638 C-113.69992427 92.90383695 -122.86896169 91.82965232 -132 90 C-127.55976849 84.76763795 -123.0140127 79.64935648 -118.38208008 74.58618164 C-117.64072815 73.7756131 -116.89937622 72.96504456 -116.13555908 72.12991333 C-109.27038241 64.65392636 -102.2925462 57.28721585 -95.26956654 49.95951176 C-90.57378166 45.05446884 -85.92637673 40.11720782 -81.37573242 35.0769043 C-56.32740869 7.38759393 -38.32524816 -7.67950771 0 0 Z " fill="#4E62FF" transform="translate(278,422)"/>
<path d="M0 0 C-4.441816 5.23628694 -8.99340003 10.35297328 -13.63378906 15.41381836 C-14.74822639 16.62967117 -14.74822639 16.62967117 -15.88517761 17.87008667 C-22.76282911 25.34414434 -29.75052058 32.7114305 -36.78224564 40.04048824 C-41.48429894 44.94672852 -46.13924769 49.88466893 -50.69970703 54.9230957 C-83.88733373 91.51914924 -83.88733373 91.51914924 -104.08016586 92.74346638 C-113.1742192 92.90350395 -122.10668652 91.83320599 -131 90 C-126.558184 84.76371306 -122.00659997 79.64702672 -117.36621094 74.58618164 C-116.25177361 73.37032883 -116.25177361 73.37032883 -115.11482239 72.12991333 C-108.23717089 64.65585566 -101.24947942 57.2885695 -94.21775436 49.95951176 C-89.51570106 45.05327148 -84.86075231 40.11533107 -80.30029297 35.0769043 C-55.62595383 7.86846772 -37.82124597 -7.79620947 0 0 Z " fill="#4D61FF" transform="translate(454,422)"/>
<path d="M0 0 C-4.441816 5.23628694 -8.99340003 10.35297328 -13.63378906 15.41381836 C-14.74822639 16.62967117 -14.74822639 16.62967117 -15.88517761 17.87008667 C-22.76282911 25.34414434 -29.75052058 32.7114305 -36.78224564 40.04048824 C-41.48429894 44.94672852 -46.13924769 49.88466893 -50.69970703 54.9230957 C-83.88733373 91.51914924 -83.88733373 91.51914924 -104.08016586 92.74346638 C-113.1742192 92.90350395 -122.10668652 91.83320599 -131 90 C-126.558184 84.76371306 -122.00659997 79.64702672 -117.36621094 74.58618164 C-116.25177361 73.37032883 -116.25177361 73.37032883 -115.11482239 72.12991333 C-108.23717089 64.65585566 -101.24947942 57.2885695 -94.21775436 49.95951176 C-89.51570106 45.05327148 -84.86075231 40.11533107 -80.30029297 35.0769043 C-55.62595383 7.86846772 -37.82124597 -7.79620947 0 0 Z " fill="#4D61FF" transform="translate(189,422)"/>
<path d="M0 0 C0.10158627 6.86836079 0.17154375 13.73652717 0.21972656 20.60546875 C0.23981709 22.94115438 0.26709461 25.27678987 0.30175781 27.61230469 C0.35038691 30.97343331 0.37299492 34.33389575 0.390625 37.6953125 C0.41127014 38.73615997 0.43191528 39.77700745 0.45318604 40.84939575 C0.45499509 46.72079714 0.16463808 50.48430941 -4 55 C-8.62810496 59.19258347 -14.31836599 58.38013747 -20.20703125 58.29296875 C-21.28756271 58.28872391 -22.36809418 58.28447906 -23.48136902 58.28010559 C-26.92533506 58.26334129 -30.36871144 58.22569226 -33.8125 58.1875 C-36.15038216 58.1724503 -38.48827351 58.15876239 -40.82617188 58.14648438 C-46.55098172 58.11344511 -52.27544872 58.06326766 -58 58 C-52.50568942 51.31469367 -46.4107928 45.26513085 -40.29296875 39.16015625 C-39.16036122 38.02687419 -38.0279021 36.89344379 -36.89558411 35.75987244 C-34.53625716 33.39907917 -32.17515066 31.04008452 -29.81274414 28.68237305 C-26.77835213 25.65371712 -23.74852453 22.62054068 -20.71998119 19.58603764 C-18.38931707 17.25177246 -16.05629207 14.91987869 -13.72252846 12.58871269 C-12.60338162 11.47023436 -11.48498107 10.35100879 -10.36733055 9.23103523 C-8.81393608 7.67511751 -7.25740112 6.12241339 -5.69995117 4.57055664 C-4.81425949 3.68566055 -3.92856781 2.80076447 -3.01603699 1.88905334 C-1 0 -1 0 0 0 Z " fill="#B3DEFF" transform="translate(512,454)"/>
<path d="M0 0 C1.08053146 0.00424484 2.16106293 0.00848969 3.27433777 0.01286316 C6.71830381 0.02962746 10.16168019 0.06727649 13.60546875 0.10546875 C15.94335091 0.12051845 18.28124226 0.13420636 20.61914062 0.14648438 C26.34395047 0.17952364 32.06841747 0.22970109 37.79296875 0.29296875 C32.29865817 6.97827508 26.20376155 13.0278379 20.0859375 19.1328125 C18.95332997 20.26609456 17.82087085 21.39952496 16.68855286 22.53309631 C14.32922591 24.89388958 11.96811941 27.25288423 9.60571289 29.6105957 C6.57132088 32.63925163 3.54149328 35.67242807 0.51294994 38.70693111 C-1.81771418 41.04119629 -4.15073918 43.37309006 -6.48450279 45.70425606 C-7.60364963 46.82273439 -8.72205018 47.94195996 -9.8397007 49.06193352 C-11.39309517 50.61785124 -12.94963013 52.17055536 -14.50708008 53.72241211 C-15.39277176 54.6073082 -16.27846344 55.49220428 -17.19099426 56.40391541 C-19.20703125 58.29296875 -19.20703125 58.29296875 -20.20703125 58.29296875 C-20.30861752 51.42460796 -20.378575 44.55644158 -20.42675781 37.6875 C-20.44684834 35.35181437 -20.47412586 33.01617888 -20.50878906 30.68066406 C-20.55741816 27.31953544 -20.58002617 23.959073 -20.59765625 20.59765625 C-20.61830139 19.55680878 -20.63894653 18.5159613 -20.66021729 17.443573 C-20.66202634 11.57217161 -20.37166933 7.80865934 -16.20703125 3.29296875 C-11.57892629 -0.89961472 -5.88866526 -0.08716872 0 0 Z " fill="#C4E6FF" transform="translate(20.20703125,421.70703125)"/>
</svg>
