<svg xmlns="http://www.w3.org/2000/svg" width="500" height="500" style="width:100%;height:100%;transform:translate3d(0,0,0)" viewBox="0 0 500 500"><defs><mask id="e" mask-type="alpha"><use xmlns:a0="http://www.w3.org/1999/xlink" a0:href="#a"/></mask><mask id="d" mask-type="alpha"><use xmlns:a1="http://www.w3.org/1999/xlink" a1:href="#b"/></mask><g id="a" style="display:block"><path fill-opacity="0" stroke="#121331" stroke-linecap="round" stroke-linejoin="round" stroke-width="0" d="M343.049 340.192H156.772a8.754 8.754 0 0 1-8.753-8.754l.241-218.488a8.753 8.753 0 0 1 8.753-8.753h186.276a8.753 8.753 0 0 1 8.753 8.753l-.24 218.488a8.754 8.754 0 0 1-8.753 8.754z"/><path fill="#121331" d="M343.049 340.192H156.772a8.754 8.754 0 0 1-8.753-8.754l.241-218.488a8.753 8.753 0 0 1 8.753-8.753h186.276a8.753 8.753 0 0 1 8.753 8.753l-.24 218.488a8.754 8.754 0 0 1-8.753 8.754z"/></g><g id="b" style="display:block"><path fill-opacity="0" stroke="#121331" stroke-linecap="round" stroke-linejoin="round" stroke-width="0" d="M343.049 340.192H156.772a8.754 8.754 0 0 1-8.753-8.754l.241-218.488a8.753 8.753 0 0 1 8.753-8.753h186.276a8.753 8.753 0 0 1 8.753 8.753l-.24 218.488a8.754 8.754 0 0 1-8.753 8.754z"/><path fill="#121331" d="M343.049 340.192H156.772a8.754 8.754 0 0 1-8.753-8.754l.241-218.488a8.753 8.753 0 0 1 8.753-8.753h186.276a8.753 8.753 0 0 1 8.753 8.753l-.24 218.488a8.754 8.754 0 0 1-8.753 8.754z"/></g><clipPath id="c"><path d="M0 0h500v500H0z"/></clipPath></defs><g clip-path="url(#c)"><g mask="url(#d)" style="display:block"><path fill="none" stroke="#07A889" stroke-linecap="round" stroke-linejoin="round" stroke-width="12.6" d="M171.924 130.773h9.988m28.28-.227 115.207.227m-153.475 30h77.488m28.28-.227 47.707.227m-153.475 30h99.988m28.28-.227 25.207.227m-153.475 30h37.488m28.28-.227 87.707.227m-153.551 30 124.738.25m28.28-.227.457-.023m-153.475 30h49.988m28.28-.227 75.207.227m-153.475 30h77.488m28.28-.227 47.707.227"/></g><g mask="url(#e)" style="display:block"><path fill="none" stroke="#07A889" stroke-linecap="round" stroke-linejoin="round" stroke-width="12.6" d="M372.924 130.773h9.988m28.28-.227 115.207.227m-153.475 30h77.488m28.28-.227 47.707.227m-153.475 30h99.988m28.28-.227 25.207.227m-153.475 30h37.488m28.28-.227 87.707.227m-153.551 30 124.738.25m28.28-.227.457-.023m-153.475 30h49.988m28.28-.227 75.207.227m-153.475 30h77.488m28.28-.227 47.707.227"/></g><g style="display:block"><path fill="none" stroke="#121330" stroke-linecap="round" stroke-linejoin="round" stroke-width="12.6" d="M353.509 415.636H146.793c-13.709 0-24.822-11.114-24.822-24.823v-287.99c0-13.709 11.113-24.823 24.822-24.823h206.716c13.709 0 24.822 11.114 24.822 24.823v287.99c0 13.709-11.113 24.823-24.822 24.823zm-10.46-75.444H156.772a8.754 8.754 0 0 1-8.753-8.754l.241-218.488a8.753 8.753 0 0 1 8.753-8.753h186.276a8.753 8.753 0 0 1 8.753 8.753l-.24 218.488a8.754 8.754 0 0 1-8.753 8.754z"/><path fill="#07A889" d="M297.426 378.207a4.8 4.8 0 1 1-9.602 0 4.8 4.8 0 0 1 9.602 0zm-86.485 0a4.802 4.802 0 1 1-9.603-.001 4.802 4.802 0 0 1 9.603.001zm46.649 0a8.206 8.206 0 0 1-8.207 8.207 8.206 8.206 0 0 1-8.207-8.207 8.206 8.206 0 0 1 8.207-8.207 8.206 8.206 0 0 1 8.207 8.207z"/><path fill="none" stroke="#07A889" stroke-linecap="round" stroke-linejoin="round" stroke-width="11.9" d="M297.426 378.207a4.8 4.8 0 1 1-9.602 0 4.8 4.8 0 0 1 9.602 0zm-86.485 0a4.802 4.802 0 1 1-9.603-.001 4.802 4.802 0 0 1 9.603.001zm46.649 0a8.206 8.206 0 0 1-8.207 8.207 8.206 8.206 0 0 1-8.207-8.207 8.206 8.206 0 0 1 8.207-8.207 8.206 8.206 0 0 1 8.207 8.207z"/></g><g class="com" style="display:none"><path/><path/><path/><path/><path/><path/><path/><path/><path/><path/><path/><path/></g></g></svg>