<svg xmlns="http://www.w3.org/2000/svg" width="500" height="500" style="width:100%;height:100%;transform:translate3d(0,0,0)" viewBox="0 0 500 500"><defs><clipPath id="a"><path d="M0 0h500v500H0z"/></clipPath><clipPath id="b"><path d="M0 0h500v500H0z"/></clipPath></defs><g clip-path="url(#a)"><g fill="none" clip-path="url(#b)" style="display:block" transform="rotate(45.892 202.197 271.64) scale(.89)"><path stroke="#07A889" stroke-linecap="round" stroke-linejoin="round" stroke-width="4.34" d="M-18.393 18.241c.099-.106.2-.21.303-.313l36.183-36.183.193-.19" style="display:block" transform="rotate(-90 250 0) scale(3.74)"/><path style="display:none"/><path style="display:none"/><path stroke="#07A889" stroke-linecap="round" stroke-linejoin="round" stroke-width="4.34" d="M-19.071 18.564c.1-.106.202-.211.306-.315l36.426-36.426.194-.191" style="display:block" transform="rotate(180 125 125) scale(3.74)"/></g><path fill="none" stroke="#121330" stroke-linecap="round" stroke-linejoin="round" stroke-width="14" d="M155.006 134.761C186.39 98.693 205.393 51.565 205.393 0c0 0 0 0 0 0 0-61.87-27.356-117.35-70.632-155.006" style="display:block" transform="rotate(45.892 -171.83 423.167) scale(.89)"/><path fill="none" stroke="#121330" stroke-linecap="round" stroke-linejoin="round" stroke-width="14" d="M155.006 134.761C186.39 98.693 205.393 51.565 205.393 0c0 0 0 0 0 0 0-61.87-27.356-117.35-70.632-155.006" style="display:block" transform="rotate(135.892 74.757 176.975) scale(.89)"/><path fill="none" stroke="#121330" stroke-linecap="round" stroke-linejoin="round" stroke-width="14" d="M155.006 134.761C186.39 98.693 205.393 51.565 205.393 0c0 0 0 0 0 0 0-61.87-27.356-117.35-70.632-155.006" style="display:block" transform="rotate(-134.108 179.153 72.746) scale(.89)"/><path fill="none" stroke="#121330" stroke-linecap="round" stroke-linejoin="round" stroke-width="14" d="M155.006 134.761C186.39 98.693 205.393 51.565 205.393 0c0 0 0 0 0 0 0-61.87-27.356-117.35-70.632-155.006" style="display:block" transform="rotate(-44.108 436.842 -184.53) scale(.89)"/><path fill="none" style="display:none"/><path fill="none" style="display:none"/><path fill="none" style="display:none"/><path fill="none" style="display:none"/><g class="com" style="display:none"><path/><path/><path/><path/><path/><path/><path/><path/><path/><path/><path/><path/></g></g></svg>