<svg xmlns="http://www.w3.org/2000/svg" width="500" height="500" style="width:100%;height:100%;transform:translate3d(0,0,0)" viewBox="0 0 500 500"><defs><filter id="a" width="100%" height="100%" x="0%" y="0%" filterUnits="objectBoundingBox"><feComponentTransfer in="SourceGraphic"><feFuncA tableValues="1.0 0.0" type="table"/></feComponentTransfer></filter><filter id="c" width="100%" height="100%" x="0%" y="0%" filterUnits="objectBoundingBox"><feComponentTransfer in="SourceGraphic"><feFuncA tableValues="1.0 0.0" type="table"/></feComponentTransfer></filter><path id="b" fill="#FFF" d="M58.974-87.275-82.552 54.252l-4.718 33.023 33.023-4.718L87.27-58.979 58.974-87.275z" style="display:block" transform="translate(310.574 269.161)"/><path id="d" fill="#FFF" d="M58.974-87.275-82.552 54.252l-4.718 33.023 33.023-4.718L87.27-58.979 58.974-87.275z" style="display:block" transform="translate(310.574 269.161)"/><mask id="g" mask-type="alpha"><g filter="url(#a)"><path fill="#fff" d="M0 0h500v500H0z" opacity="0"/><use xmlns:a0="http://www.w3.org/1999/xlink" a0:href="#b"/></g></mask><mask id="f" mask-type="alpha"><g filter="url(#c)"><path fill="#fff" d="M0 0h500v500H0z" opacity="0"/><use xmlns:a1="http://www.w3.org/1999/xlink" a1:href="#d"/></g></mask><clipPath id="e"><path d="M0 0h500v500H0z"/></clipPath></defs><g clip-path="url(#e)"><g fill="none" stroke="#121330" stroke-linecap="round" stroke-linejoin="round" stroke-width="12" mask="url(#f)" style="display:block"><path d="M343.402 183.288v226.831H116.57V89.881l133.43.004"/><path d="M250 183.287h93.402L250 89.885v93.402z"/></g><g mask="url(#g)" style="display:none"><path fill="none"/></g><g style="display:block"><path fill="none" stroke="#07A889" stroke-linecap="round" stroke-linejoin="round" stroke-width="12" d="M369.548 181.886 228.022 323.413l-4.718 33.023 33.023-4.718 141.517-141.536-28.296-28.296z"/><path fill="#07A889" d="m393.136 205.474-18.871-18.871 14.847-14.846a5.69 5.69 0 0 1 8.047 0l10.823 10.823a5.69 5.69 0 0 1 0 8.047l-14.846 14.847z"/></g><path style="display:none"/></g></svg>